<?xml version="1.0" standalone="no"?>
<!DOCTYPE svg PUBLIC "-//W3C//DTD SVG 1.1//EN" "http://www.w3.org/Graphics/SVG/1.1/DTD/svg11.dtd" >
<svg xmlns="http://www.w3.org/2000/svg" xmlns:xlink="http://www.w3.org/1999/xlink" version="1.1">
<metadata>
Created by FontForge 20201107 at Mon Aug  2 03:36:02 2021
 By 
Copyright (c) 2020 by Charles Forman. All rights reserved.
</metadata>
<defs>
<font id="THICCCBOI-Thin" horiz-adv-x="600" >
  <font-face 
    font-family="THICCCBOI Thin"
    font-weight="100"
    font-stretch="normal"
    units-per-em="1000"
    panose-1="0 0 0 0 0 0 0 0 0 0"
    ascent="800"
    descent="-200"
    x-height="500"
    cap-height="700"
    bbox="-100 -283 1558 993"
    underline-thickness="50"
    underline-position="-125"
    unicode-range="U+000D-FB02"
  />
<missing-glyph horiz-adv-x="527" 
d="M88 -90v842h351v-842h-351zM407 722h-288v-782h288v782z" />
    <glyph glyph-name="fi" unicode="fi" horiz-adv-x="547" 
d="M426 658q-11 0 -20 8.5t-9 20.5t9 20.5t20 8.5q12 0 20.5 -8.5t8.5 -20.5t-8.5 -20.5t-20.5 -8.5zM135 470h-105v30h105v71q0 79 27.5 109t84.5 30q14 0 28.5 -1.5t31.5 -3.5v-28q-17 2 -31 3.5t-26 1.5q-46 0 -65.5 -23t-19.5 -88v-71h141v-30h-141v-470h-30v470z
M411 500h30v-500h-30v500z" />
    <glyph glyph-name="fl" unicode="fl" horiz-adv-x="554" 
d="M135 470h-105v30h105v71q0 79 27.5 109t84.5 30q14 0 28.5 -1.5t31.5 -3.5v-28q-17 2 -31 3.5t-26 1.5q-46 0 -65.5 -23t-19.5 -88v-71h141v-30h-141v-470h-30v470zM494 0q-7 -2 -15.5 -3t-19.5 -1q-10 0 -20 2.5t-18.5 8.5t-13.5 17.5t-5 29.5v646h30v-646
q0 -17 7.5 -23t20.5 -6q15 0 34 3v-28z" />
    <glyph glyph-name=".notdef" horiz-adv-x="527" 
d="M88 -90v842h351v-842h-351zM407 722h-288v-782h288v782z" />
    <glyph glyph-name=".null" horiz-adv-x="0" 
 />
    <glyph glyph-name=".null" horiz-adv-x="0" 
 />
    <glyph glyph-name="uni000D" unicode="&#xd;" horiz-adv-x="250" 
 />
    <glyph glyph-name="space" unicode=" " horiz-adv-x="259" 
 />
    <glyph glyph-name="exclam" unicode="!" horiz-adv-x="233" 
d="M109 161l-11 539h42l-11 -539h-20zM83 29q0 17 9.5 26.5t26.5 9.5q35 0 35 -36t-35 -36q-36 0 -36 36z" />
    <glyph glyph-name="quotedbl" unicode="&#x22;" horiz-adv-x="290" 
d="M70 674h49v-62l-14 -157h-21l-14 157v62zM171 674h49v-62l-14 -157h-21l-14 157v62z" />
    <glyph glyph-name="numbersign" unicode="#" horiz-adv-x="567" 
d="M234 0l65 191h-125l-64 -191h-33l64 191h-115l9 29h116l76 227h-117l8 29h119l63 191h33l-63 -191h124l63 191h33l-64 -191h115l-7 -29h-117l-77 -227h120l-9 -29h-120l-64 -191h-33zM384 447h-124l-76 -227h123z" />
    <glyph glyph-name="dollar" unicode="$" horiz-adv-x="575" 
d="M275 768h32v-91q122 -7 192 -93l-25 -23q-62 79 -167 86v-285q48 -14 86.5 -29.5t65 -37.5t41 -52t14.5 -74q0 -41 -15.5 -73.5t-43 -55.5t-65.5 -36t-83 -15v-89h-32v88q-72 2 -129 31t-93 75l26 23q77 -95 196 -99v318q-44 13 -81 26.5t-63.5 32.5t-41.5 46t-15 67
q0 38 15.5 69t43 53t64 34.5t78.5 13.5v90zM109 508q0 -30 11.5 -50.5t33.5 -36t52.5 -27.5t68.5 -23v277q-36 -1 -66 -12t-52.5 -29.5t-35 -43.5t-12.5 -55zM307 18q79 5 125.5 43.5t46.5 107.5q0 36 -12 60.5t-34.5 41.5t-54 30t-71.5 26v-309z" />
    <glyph glyph-name="percent" unicode="%" horiz-adv-x="709" 
d="M189 351q-33 0 -61.5 12t-48.5 34t-31.5 51.5t-11.5 64.5q0 36 11.5 66t31.5 51.5t48.5 34t61.5 12.5t61.5 -12.5t48.5 -34t31.5 -51.5t11.5 -66q0 -35 -11 -64.5t-31.5 -51.5t-48.5 -34t-62 -12zM127 0l426 667h37l-427 -667h-36zM189 378q27 0 49 10.5t37.5 29t24.5 43
t9 52.5q0 29 -9 53.5t-24.5 43.5t-37.5 29.5t-49 10.5q-26 0 -48 -10.5t-38 -29.5t-25 -43.5t-9 -53.5q0 -27 9 -51.5t25 -43t38 -29.5t48 -11zM520 -12q-33 0 -61.5 12t-48.5 34t-31.5 51.5t-11.5 64.5q0 36 11.5 66t31.5 51.5t48.5 34t61.5 12.5t61.5 -12.5t48.5 -34
t31.5 -51.5t11.5 -66q0 -35 -11 -64.5t-31.5 -51.5t-48.5 -34t-62 -12zM520 15q27 0 49 10.5t37.5 29t24.5 43t9 52.5q0 29 -9 53.5t-24.5 43.5t-37.5 29.5t-49 10.5t-49 -10.5t-37.5 -29.5t-24.5 -43.5t-9 -53.5q0 -27 8.5 -51.5t24 -43t38 -29.5t49.5 -11z" />
    <glyph glyph-name="ampersand" unicode="&#x26;" horiz-adv-x="637" 
d="M141 546q0 60 36.5 92t102.5 32q127 0 127 -125q0 -33 -11 -59t-29 -47.5t-42 -39.5t-50 -35l180 -216q9 11 15.5 29.5t11.5 41t7 46.5t2 45h29q0 -29 -2 -51.5t-7.5 -43.5t-14 -42.5t-21.5 -48.5l103 -124h-37l-82 99q-38 -49 -95.5 -78t-116.5 -29q-82 0 -133.5 41.5
t-51.5 127.5q0 38 12.5 67t35 53t53 45.5t67.5 44.5q-25 32 -42.5 54.5t-27.5 41.5t-14.5 37t-4.5 42zM280 641q-52 0 -81 -22t-29 -73q0 -26 10.5 -51.5t24.5 -47t28.5 -37.5t21.5 -24q25 16 47.5 32t39 35t26.5 41.5t10 50.5q0 49 -23.5 72.5t-74.5 23.5zM250 349
q-45 -27 -75 -49t-49 -43.5t-27 -44t-8 -51.5q0 -73 42 -106.5t114 -33.5q59 0 107 26.5t86 74.5z" />
    <glyph glyph-name="quotesingle" unicode="'" horiz-adv-x="129" 
d="M60 700h49v-62l-14 -157h-21l-14 157v62z" />
    <glyph glyph-name="parenleft" unicode="(" horiz-adv-x="206" 
d="M173 -94q-126 206 -126 442q0 237 126 442l16 -11q-27 -57 -47 -108t-33.5 -102t-20 -104.5t-6.5 -116.5q0 -62 6.5 -116t20 -105t33.5 -102t47 -107z" />
    <glyph glyph-name="parenright" unicode=")" horiz-adv-x="206" 
d="M33 790q126 -205 126 -442q0 -236 -126 -442l-16 12q27 56 47 107t33.5 102t20 105t6.5 116q0 63 -6.5 116.5t-20 104.5t-33.5 102t-47 108z" />
    <glyph glyph-name="asterisk" unicode="*" horiz-adv-x="330" 
d="M147 543l-106 54l15 26l100 -65l-6 119h30l-6 -119l100 65l15 -26l-106 -54l106 -54l-15 -26l-100 65l6 -119h-30l6 119l-100 -65l-15 26z" />
    <glyph glyph-name="plus" unicode="+" horiz-adv-x="494" 
d="M263 322v-222h-32v222h-202v30h202v216h32v-216h202v-30h-202z" />
    <glyph glyph-name="comma" unicode="," horiz-adv-x="173" 
d="M50 -68l26 58q-23 0 -23 24t23 24q25 0 25 -26q0 -14 -5.5 -27t-16.5 -34l-15 -30z" />
    <glyph glyph-name="hyphen" unicode="-" horiz-adv-x="360" 
d="M50 227v30h240v-30h-240z" />
    <glyph glyph-name="period" unicode="." horiz-adv-x="168" 
d="M78 15q0 25 25 25t25 -25t-25 -25t-25 25z" />
    <glyph glyph-name="slash" unicode="/" horiz-adv-x="268" 
d="M268 687l-237 -707h-31l237 707h31z" />
    <glyph glyph-name="zero" unicode="0" 
d="M285 -11q-63 0 -110 26t-78.5 73.5t-47 114t-15.5 147.5t15.5 147.5t47 114t78.5 73.5t110 26t110 -26t78.5 -73.5t47 -114t15.5 -147.5t-15.5 -147.5t-47 -114t-78.5 -73.5t-110 -26zM285 21q106 0 162.5 87t56.5 242t-56.5 242t-162.5 87t-162.5 -87t-56.5 -242
t56.5 -242t162.5 -87z" />
    <glyph glyph-name="one" unicode="1" 
d="M102 638l179 62h32v-670h222v-30h-500v30h246v638l-170 -58z" />
    <glyph glyph-name="two" unicode="2" 
d="M54 22q5 45 21.5 89t43 82.5t61 70t75.5 50.5q40 20 77 37t65.5 38.5t45.5 51.5t17 75q0 41 -16.5 71.5t-42.5 51t-57.5 31t-61.5 10.5q-35 0 -68.5 -8t-61.5 -25t-47 -42t-25 -60l-32 4q6 41 28 71t54 50t71.5 30t80.5 10q38 0 75.5 -12t67.5 -36.5t48.5 -61t18.5 -84.5
q0 -52 -19 -87t-50 -60t-71.5 -44t-83.5 -40q-36 -17 -67 -45t-54.5 -61.5t-39 -72t-20.5 -76.5h435v-30h-468v22z" />
    <glyph glyph-name="three" unicode="3" 
d="M478 535q0 -56 -31 -98t-83 -62q62 -21 99 -69.5t37 -114.5q0 -44 -17 -81t-47 -63.5t-71 -41.5t-90 -15q-37 0 -71.5 10.5t-63 29t-49.5 44.5t-32 56l33 5q22 -54 73 -84.5t110 -30.5q42 0 77.5 13t61 36t40 54.5t14.5 67.5t-14.5 67t-40 53.5t-61 35t-77.5 12.5h-32v31
l32 -1q37 0 68.5 11t54 30.5t35.5 46.5t13 58t-13 57.5t-35.5 46t-54 30.5t-68.5 11q-51 0 -95 -24t-65 -74l-34 5q9 27 28 49.5t44.5 39t57 25.5t64.5 9q44 0 81.5 -13t64.5 -36.5t42 -55.5t15 -70z" />
    <glyph glyph-name="four" unicode="4" 
d="M406 179h-386v30l265 491h36l-265 -491h350v216h32v-216h101v-30h-101v-179h-32v179z" />
    <glyph glyph-name="five" unicode="5" 
d="M502 221q0 -115 -56.5 -173t-168.5 -58q-167 0 -216 140l32 5q24 -62 71 -88.5t113 -26.5q96 0 144.5 51t48.5 150q0 156 -193 156h-184l42 323h350v-30h-324l-34 -263h150q112 0 168.5 -46t56.5 -140z" />
    <glyph glyph-name="six" unicode="6" 
d="M279 464q55 -1 101 -19t79.5 -49.5t52 -75t18.5 -94.5t-18.5 -94.5t-52 -75t-79.5 -49t-101 -17.5t-101 17.5t-79.5 49t-52 75t-18.5 94.5q0 65 29 117l2 3q2 5 5 9t6 9l214 336h38l-167 -264q56 28 124 28zM279 434q-57 0 -103.5 -23t-75.5 -62l-14 -22
q-26 -46 -26 -101q0 -44 16.5 -81.5t46 -65.5t69.5 -43.5t87 -15.5t87.5 15.5t69.5 43.5t45.5 65.5t16.5 81.5t-16.5 82t-45.5 66t-69.5 44t-87.5 16z" />
    <glyph glyph-name="seven" unicode="7" 
d="M495 670h-453v30h488v-30l-299 -670h-35z" />
    <glyph glyph-name="eight" unicode="8" 
d="M285 -10q-106 0 -166 53.5t-60 147.5q0 69 34 116.5t96 68.5q-51 19 -79 59t-28 99q0 82 54 129t149 47t149 -47t54 -129q0 -59 -28 -99t-79 -59q61 -21 95 -68.5t34 -116.5q0 -94 -60 -147.5t-165 -53.5zM285 680q-80 0 -125.5 -39.5t-45.5 -106.5t45.5 -105.5
t125.5 -38.5t125.5 38.5t45.5 105.5t-45.5 106.5t-125.5 39.5zM285 360q-91 0 -142.5 -45.5t-51.5 -123.5t52 -124.5t142 -46.5t141.5 46.5t51.5 124.5t-51 123.5t-142 45.5z" />
    <glyph glyph-name="nine" unicode="9" 
d="M276 236q-55 1 -101 19t-79.5 49.5t-52 75t-18.5 94.5t18.5 94.5t52 75t79.5 49t101 17.5t101 -17.5t79.5 -49t52 -75t18.5 -94.5q0 -65 -29 -117l-2 -3q-2 -5 -5 -9t-6 -9l-214 -336h-38l167 264q-56 -28 -124 -28zM276 266q57 0 103.5 23t75.5 62l14 22q26 46 26 101
q0 44 -16.5 81.5t-45.5 65.5t-69.5 43.5t-87.5 15.5t-87 -15.5t-69.5 -43.5t-46 -65.5t-16.5 -81.5t16.5 -82t46 -66t69.5 -44t87 -16z" />
    <glyph glyph-name="colon" unicode=":" horiz-adv-x="201" 
d="M60 452q0 17 9.5 26.5t26.5 9.5q35 0 35 -36t-35 -36q-36 0 -36 36zM60 29q0 17 9.5 26.5t26.5 9.5q35 0 35 -36t-35 -36q-36 0 -36 36z" />
    <glyph glyph-name="semicolon" unicode=";" horiz-adv-x="208" 
d="M66 452q0 17 9.5 26.5t26.5 9.5q35 0 35 -36t-35 -36q-36 0 -36 36zM63 -93l39 86q-36 0 -36 36q0 17 9.5 26.5t26.5 9.5t27 -11t10 -28q-1 -20 -8.5 -39t-23.5 -51l-23 -46z" />
    <glyph glyph-name="less" unicode="&#x3c;" horiz-adv-x="494" 
d="M29 324v21l436 235v-36l-395 -210l395 -208v-36z" />
    <glyph glyph-name="equal" unicode="=" horiz-adv-x="494" 
d="M29 418v30h436v-30h-436zM29 220v30h436v-30h-436z" />
    <glyph glyph-name="greater" unicode="&#x3e;" horiz-adv-x="494" 
d="M29 90v36l395 208l-395 210v36l436 -235v-21z" />
    <glyph glyph-name="question" unicode="?" horiz-adv-x="467" 
d="M205 161v116q0 34 14 58.5t34.5 44t44.5 36.5t44.5 37t34.5 44.5t14 59.5q0 52 -39.5 87.5t-111.5 35.5q-69 0 -113 -25t-78 -73l-23 21q75 107 214 107q42 0 76.5 -12t59 -32.5t37.5 -48.5t13 -60q0 -37 -14 -65t-35.5 -49.5t-46 -40t-46 -37t-35.5 -39.5t-14 -49v-116
h-30zM198 18q0 25 25 25q24 0 24 -25t-24 -25q-25 0 -25 25z" />
    <glyph glyph-name="at" unicode="@" horiz-adv-x="935" 
d="M634 160q0 -51 27.5 -75t65.5 -24q22 0 40 15t31.5 41.5t21 63t7.5 79.5q0 81 -27.5 150t-76.5 119t-117 78t-148 28q-81 0 -150.5 -28t-120 -78t-79.5 -119t-30 -150q-1 -82 27 -151t78.5 -119t120.5 -78t154 -28q18 0 38 3t41 9t41 14t36 17l17 -20q-15 -11 -35.5 -20
t-43.5 -16t-47 -11t-47 -4q-89 -2 -164 27.5t-129 83.5t-84.5 129t-30.5 164q0 88 30.5 162t84.5 127.5t129 83.5t164 30q86 0 159 -30t126 -83.5t82.5 -127.5t29.5 -162q0 -49 -9.5 -91t-26.5 -72t-40.5 -47t-51.5 -17q-22 0 -44 7.5t-39 23t-27.5 39.5t-10.5 57v4
q-23 -48 -68 -76t-104 -28q-40 0 -74.5 15t-59 41.5t-38.5 63t-14 79.5q0 44 14 80.5t38.5 63t59 41.5t74.5 15q59 0 104 -28.5t68 -76.5v98h28v-292zM434 88q38 0 69.5 13t54 35.5t35.5 54t13 68.5q0 38 -13 69.5t-35.5 54t-54 35.5t-69.5 13q-34 0 -63 -13t-50 -35.5
t-33 -54t-12 -69.5q0 -37 12 -68.5t33 -54t50 -35.5t63 -13z" />
    <glyph glyph-name="A" unicode="A" horiz-adv-x="644" 
d="M289 700h36l269 -700h-34l-72 188h-360l-72 -188h-36zM476 218l-168 438l-168 -438h336z" />
    <glyph glyph-name="B" unicode="B" horiz-adv-x="627" 
d="M90 0v700h264q36 0 67.5 -14t55.5 -37.5t37.5 -55.5t13.5 -68q0 -51 -26.5 -95t-69.5 -67q26 -10 48 -27.5t38 -41t25 -50.5t9 -57q0 -38 -14.5 -72t-39.5 -59.5t-58.5 -40.5t-71.5 -15h-278zM354 375q29 0 55 12.5t45.5 33.5t30.5 48t11 56t-11 55t-30.5 45.5t-45.5 31
t-55 11.5h-232v-293h232zM368 32q32 0 59.5 12.5t48 33.5t32.5 49.5t12 59.5q0 32 -12 60t-32.5 49.5t-48 34t-59.5 12.5h-246v-311h246z" />
    <glyph glyph-name="C" unicode="C" horiz-adv-x="795" 
d="M50 349q0 75 28.5 140.5t77.5 114.5t114.5 77.5t140.5 28.5q50 0 97 -13.5t87.5 -37.5t73.5 -57.5t56 -74.5l-28 -15q-43 75 -118 120.5t-168 45.5q-68 0 -128 -26t-104.5 -70.5t-70.5 -104.5t-26 -128t26 -128t70.5 -104.5t104.5 -70.5t128 -26q93 0 168 45.5t118 120.5
l28 -15q-23 -41 -56 -74.5t-73.5 -57.5t-87.5 -37.5t-97 -13.5q-75 0 -140.5 28.5t-114.5 77.5t-77.5 114.5t-28.5 140.5z" />
    <glyph glyph-name="D" unicode="D" horiz-adv-x="753" 
d="M90 700h226q75 0 140 -27t113 -74t76 -111t28 -139t-28 -138.5t-76 -110.5t-113 -73.5t-140 -26.5h-226v700zM122 670v-640h194q68 0 127.5 24.5t103.5 67t69 101t25 126.5t-25 127t-69 102t-103 67.5t-128 24.5h-194z" />
    <glyph glyph-name="E" unicode="E" horiz-adv-x="539" 
d="M90 700h370v-30h-338v-304h312v-30h-312v-306h342v-30h-374v700z" />
    <glyph glyph-name="F" unicode="F" horiz-adv-x="535" 
d="M90 700h370v-30h-338v-310h323v-30h-323v-330h-32v700z" />
    <glyph glyph-name="G" unicode="G" horiz-adv-x="830" 
d="M50 349q0 75 28.5 140.5t77.5 114.5t114.5 77.5t140.5 28.5q51 0 97.5 -13.5t87 -37.5t73.5 -58t56 -75l-27 -16q-21 38 -51.5 68.5t-67.5 53t-79.5 34.5t-88.5 12q-68 0 -128 -26t-104.5 -70.5t-70.5 -104.5t-26 -128t26 -128t70.5 -104.5t104.5 -70.5t128 -26t125.5 20
t98.5 55.5t64 84.5t23 107h-320v30h352v-30q0 -61 -25.5 -115t-71.5 -95t-108.5 -65t-137.5 -24t-140.5 28.5t-114.5 77.5t-77.5 114.5t-28.5 140.5z" />
    <glyph glyph-name="H" unicode="H" horiz-adv-x="701" 
d="M90 700h32v-326h427v326h32v-700h-32v344h-427v-344h-32v700z" />
    <glyph glyph-name="I" unicode="I" horiz-adv-x="242" 
d="M90 700h32v-700h-32v700z" />
    <glyph glyph-name="J" unicode="J" horiz-adv-x="580" 
d="M438 699h32v-502q0 -50 -16.5 -89t-45 -65.5t-68 -40t-86.5 -13.5q-72 0 -125 29.5t-84 87.5l25 17q34 -56 76.5 -79.5t107.5 -23.5q38 0 71.5 11t58.5 32.5t39.5 55t14.5 78.5v502z" />
    <glyph glyph-name="K" unicode="K" horiz-adv-x="597" 
d="M516 0l-319 357l-75 -72v-285h-32v700h32v-371l386 371h46l-334 -321l337 -377z" />
    <glyph glyph-name="L" unicode="L" horiz-adv-x="530" 
d="M90 700h32v-670h353v-30h-385v700z" />
    <glyph glyph-name="M" unicode="M" horiz-adv-x="823" 
d="M664 700h39v-700h-32v649l-269 -457h-10l-270 459v-652h-32v700h4l-1 1h37l267 -454z" />
    <glyph glyph-name="N" unicode="N" horiz-adv-x="700" 
d="M123 700l425 -644v644h32v-700h-33l-425 651v-651h-32v700h33z" />
    <glyph glyph-name="O" unicode="O" horiz-adv-x="852" 
d="M411 -12q-75 0 -140.5 28.5t-114.5 77.5t-77.5 114.5t-28.5 140.5t28.5 140.5t77.5 114.5t114.5 77.5t140.5 28.5t140.5 -28.5t114.5 -77.5t77.5 -114.5t28.5 -140.5t-28.5 -140.5t-77.5 -114.5t-114.5 -77.5t-140.5 -28.5zM411 20q68 0 128 26t104.5 70.5t70.5 104.5
t26 128t-26 128t-70.5 104.5t-104.5 70.5t-128 26t-128 -26t-104.5 -70.5t-70.5 -104.5t-26 -128t26 -128t70.5 -104.5t104.5 -70.5t128 -26z" />
    <glyph glyph-name="P" unicode="P" horiz-adv-x="593" 
d="M122 284v-284h-32v700h220q43 0 81 -16.5t66 -44.5t44.5 -66t16.5 -81t-16.5 -81t-44.5 -66t-66 -44.5t-81 -16.5h-188zM310 316q36 0 68 14t56 38t38 56t14 68t-14 68t-38 56t-56 38t-68 14h-188v-352h188z" />
    <glyph glyph-name="Q" unicode="Q" horiz-adv-x="856" 
d="M411 -12q-75 0 -140.5 28.5t-114.5 77.5t-77.5 114.5t-28.5 140.5t28.5 140.5t77.5 114.5t114.5 77.5t140.5 28.5t140.5 -28.5t114.5 -77.5t77.5 -114.5t28.5 -140.5q0 -80 -32 -148.5t-87 -119.5l73 -72l-23 -23l-75 75q-45 -35 -100 -54t-117 -19zM411 20q55 0 104 17
t91 47l-119 118l23 23l121 -121q51 45 80 108.5t29 136.5q0 68 -26 128t-70.5 104.5t-104.5 70.5t-128 26t-128 -26t-104.5 -70.5t-70.5 -104.5t-26 -128t26 -128t70.5 -104.5t104.5 -70.5t128 -26z" />
    <glyph glyph-name="R" unicode="R" horiz-adv-x="627" 
d="M122 284v-284h-32v700h253q43 0 81 -16.5t66 -44.5t44.5 -66t16.5 -81q0 -35 -11 -67t-30.5 -58t-47 -45t-59.5 -29l169 -293h-36l-166 286q-7 -1 -13.5 -1.5t-13.5 -0.5h-221zM343 316q36 0 68 14t56 38t38 56t14 68t-14 68t-38 56t-56 38t-68 14h-221v-352h221z" />
    <glyph glyph-name="S" unicode="S" horiz-adv-x="606" 
d="M301 -11q-99 0 -165.5 45t-90.5 120l29 17q10 -31 29.5 -59t48 -48t66 -32t83.5 -12q52 0 89.5 14t61.5 36.5t35.5 51.5t11.5 59q0 32 -16.5 56t-44.5 42.5t-65 33t-77 27.5q-44 14 -84 27.5t-71 32.5t-49 48t-18 75q0 43 16.5 78t45 59.5t67 37.5t83.5 13q43 0 79 -11.5
t64 -31.5t48.5 -47t33.5 -57l-28 -13q-22 56 -72 92.5t-125 36.5q-45 0 -79 -13.5t-56.5 -35.5t-33.5 -50t-11 -57q0 -36 16 -59.5t43 -40t62 -28.5t72 -24q47 -15 89 -30t73.5 -35.5t50.5 -50.5t19 -75q0 -43 -16.5 -78.5t-46.5 -61t-72.5 -39t-94.5 -13.5z" />
    <glyph glyph-name="T" unicode="T" horiz-adv-x="572" 
d="M255 670h-230v30h492v-30h-230v-670h-32v670z" />
    <glyph glyph-name="U" unicode="U" horiz-adv-x="682" 
d="M80 700h32v-463q0 -47 13.5 -87t40 -68.5t66.5 -44.5t93 -16q54 0 94 16t67 44.5t40.5 68.5t13.5 87v463h32v-463q0 -55 -17 -101t-49 -78.5t-77.5 -50.5t-103.5 -18t-103.5 18t-77 50.5t-48 78.5t-16.5 101v463z" />
    <glyph glyph-name="V" unicode="V" horiz-adv-x="633" 
d="M15 700h35l252 -657l251 657h35l-270 -700h-33z" />
    <glyph glyph-name="W" unicode="W" horiz-adv-x="981" 
d="M35 700h33l189 -658l200 658h37l200 -658l189 658h33l-201 -700h-41l-198 649l-199 -649h-41z" />
    <glyph glyph-name="X" unicode="X" horiz-adv-x="585" 
d="M491 0l-213 330l-214 -330h-39l233 358l-222 342h39l203 -313l202 313h39l-222 -342l233 -358h-39z" />
    <glyph glyph-name="Y" unicode="Y" horiz-adv-x="598" 
d="M268 287l-258 413h37l237 -379l237 379h37l-258 -413v-287h-32v287z" />
    <glyph glyph-name="Z" unicode="Z" horiz-adv-x="556" 
d="M446 670h-393v30h429v-30l-401 -640h410v-30h-446v30z" />
    <glyph glyph-name="bracketleft" unicode="[" horiz-adv-x="212" 
d="M195 -48v-30h-161v868h161v-30h-131v-808h131z" />
    <glyph glyph-name="backslash" unicode="\" horiz-adv-x="268" 
d="M0 687h31l237 -707h-31z" />
    <glyph glyph-name="bracketright" unicode="]" horiz-adv-x="212" 
d="M178 790v-868h-161v30h131v808h-131v30h161z" />
    <glyph glyph-name="asciicircum" unicode="^" horiz-adv-x="424" 
d="M371 333l-159 307l-159 -307h-34l180 334h26l180 -334h-34z" />
    <glyph glyph-name="underscore" unicode="_" horiz-adv-x="564" 
d="M567 -40v-30h-570v30h570z" />
    <glyph glyph-name="grave" unicode="`" horiz-adv-x="205" 
d="M45 700l160 -144h-30l-175 144h45z" />
    <glyph glyph-name="a" unicode="a" horiz-adv-x="629" 
d="M504 143q-27 -69 -86 -111.5t-137 -42.5q-53 0 -96.5 20.5t-74.5 55.5t-48 82.5t-17 101.5t17 101.5t48 82.5t74.5 55.5t96.5 20.5q78 0 137 -42.5t86 -111.5v145h30v-500h-30v143zM281 19q47 0 87.5 18t70.5 49t47.5 73t17.5 90t-17.5 90t-47.5 73t-70.5 49t-87.5 18
t-85 -18t-65 -49.5t-41.5 -73.5t-14.5 -89t14.5 -89t41.5 -73.5t65 -49.5t85 -18z" />
    <glyph glyph-name="b" unicode="b" horiz-adv-x="639" 
d="M65 700h30v-345q27 69 86 111.5t137 42.5q53 0 96.5 -20.5t74.5 -55.5t48 -82.5t17 -101.5t-17 -101.5t-48 -82.5t-74.5 -55.5t-96.5 -20.5q-78 0 -137 42.5t-86 111.5v-143h-30v700zM318 19q47 0 85 18t65 49.5t41.5 73.5t14.5 89t-14.5 89t-41.5 73.5t-65 49.5t-85 18
t-87.5 -18t-70.5 -49t-47.5 -73t-17.5 -90t17.5 -90t47.5 -73t70.5 -49t87.5 -18z" />
    <glyph glyph-name="c" unicode="c" horiz-adv-x="579" 
d="M514 96q-35 -48 -89.5 -77t-119.5 -29q-54 0 -101.5 20.5t-82.5 55.5t-55.5 82.5t-20.5 101.5t20.5 101t55.5 82t82.5 55.5t101.5 20.5q64 0 118 -28t90 -76l-24 -17q-32 42 -79.5 67t-104.5 25q-48 0 -89.5 -18t-73 -49.5t-49.5 -73t-18 -89.5t18 -89.5t49.5 -73
t73 -49.5t89.5 -18q57 0 104.5 25t79.5 67z" />
    <glyph glyph-name="d" unicode="d" horiz-adv-x="629" 
d="M534 0h-30v143q-27 -69 -86 -111.5t-137 -42.5q-53 0 -96.5 20.5t-74.5 55.5t-48 82.5t-17 101.5t17 101.5t48 82.5t74.5 55.5t96.5 20.5q78 0 137 -42.5t86 -111.5v345h30v-700zM281 19q47 0 87.5 18t70.5 49t47.5 73t17.5 90t-17.5 90t-47.5 73t-70.5 49t-87.5 18
t-85 -18t-65 -49.5t-41.5 -73.5t-14.5 -89t14.5 -89t41.5 -73.5t65 -49.5t85 -18z" />
    <glyph glyph-name="e" unicode="e" horiz-adv-x="621" 
d="M304 511q57 0 102.5 -22t78 -58.5t49.5 -84t17 -98.5v-5l-1 -5v-5h-473q1 -42 17.5 -81t47 -68.5t73 -47t94.5 -17.5q31 0 60.5 8t54.5 21.5t44.5 31.5t30.5 38l27 -16q-31 -51 -87 -82t-131 -31q-58 0 -106 19.5t-83 54.5t-54.5 82.5t-19.5 104.5q0 55 19 102.5t53 83
t82 55.5t105 20zM521 263q-11 101 -66 159.5t-151 58.5q-51 0 -93 -18.5t-72 -49t-46 -69.5t-16 -81h444z" />
    <glyph glyph-name="f" unicode="f" horiz-adv-x="337" 
d="M135 470h-105v30h105v71q0 79 27.5 109t84.5 30q14 0 28.5 -1.5t31.5 -3.5v-28q-17 2 -31 3.5t-26 1.5q-46 0 -65.5 -23t-19.5 -88v-71h141v-30h-141v-470h-30v470z" />
    <glyph glyph-name="g" unicode="g" horiz-adv-x="634" 
d="M509 143q-27 -69 -86 -111.5t-137 -42.5q-53 0 -96.5 20.5t-74.5 55.5t-48 82.5t-17 101.5t17 101.5t48 82.5t74.5 55.5t96.5 20.5q78 0 137 -42.5t86 -111.5v145h30v-476q0 -56 -19.5 -100t-53 -74t-79 -45.5t-97.5 -15.5q-88 0 -148.5 32.5t-87.5 87.5l26 15
q10 -20 27 -39t42.5 -34t60.5 -24.5t80 -9.5q47 0 87 14.5t69.5 41.5t46 65.5t16.5 85.5v119zM286 19q47 0 87.5 18t70.5 49t47.5 73t17.5 90t-17.5 90t-47.5 73t-70.5 49t-87.5 18t-85 -18t-65 -49.5t-41.5 -73.5t-14.5 -89t14.5 -89t41.5 -73.5t65 -49.5t85 -18z" />
    <glyph glyph-name="h" unicode="h" horiz-adv-x="563" 
d="M65 700h30v-280q22 36 65 63t101 27q27 0 62.5 -8t68 -31.5t54.5 -64.5t22 -107v-299h-30v299q0 55 -17.5 90t-43.5 55.5t-57.5 28t-58.5 7.5q-22 0 -46.5 -5.5t-48 -20t-42.5 -39t-29 -62.5v-353h-30v700z" />
    <glyph glyph-name="i" unicode="i" horiz-adv-x="210" 
d="M89 658q-11 0 -20 8.5t-9 20.5t9 20.5t20 8.5q12 0 20.5 -8.5t8.5 -20.5t-8.5 -20.5t-20.5 -8.5zM74 500h30v-500h-30v500z" />
    <glyph glyph-name="j" unicode="j" horiz-adv-x="253" 
d="M133 658q-25 0 -25 25t25 25t25 -25t-25 -25zM116 500h30v-557q0 -80 -42.5 -121t-123.5 -33v28q72 -8 104 25.5t32 100.5v557z" />
    <glyph glyph-name="k" unicode="k" horiz-adv-x="498" 
d="M65 700h30v-518l297 318h41l-213 -229l223 -271h-41l-203 249l-104 -113v-136h-30v700z" />
    <glyph glyph-name="l" unicode="l" horiz-adv-x="217" 
d="M157 0q-7 -2 -16 -3t-19 -1t-20 2.5t-18.5 8.5t-13.5 17.5t-5 29.5v646h30v-646q0 -17 7.5 -23t20.5 -6q15 0 34 3v-28z" />
    <glyph glyph-name="m" unicode="m" horiz-adv-x="936" 
d="M841 0h-30v299q0 55 -17.5 90t-43.5 55.5t-57.5 28t-58.5 7.5q-26 0 -55.5 -8.5t-54 -31t-40.5 -61.5t-16 -101v-278h-30v299q0 55 -17.5 90t-43.5 55.5t-57.5 28t-58.5 7.5q-26 0 -55.5 -8.5t-54 -31t-40.5 -61.5t-16 -101v-278h-30v500h30v-91q9 20 24 38t36.5 32
t48 22.5t57.5 8.5q23 0 51.5 -5.5t57 -20.5t52.5 -41t36 -68q3 24 17 48t36.5 43.5t53.5 31.5t69 12q27 0 62.5 -8t68 -31.5t54.5 -64.5t22 -107v-299z" />
    <glyph glyph-name="n" unicode="n" horiz-adv-x="572" 
d="M477 0h-30v299q0 55 -17.5 90t-43.5 55.5t-57.5 28t-58.5 7.5q-26 0 -56.5 -8.5t-57 -31t-44 -61.5t-17.5 -101v-278h-30v500h30v-98q9 21 25 40.5t38.5 34.5t51 24t60.5 9q27 0 62.5 -8t68 -31.5t54.5 -64.5t22 -107v-299z" />
    <glyph glyph-name="o" unicode="o" horiz-adv-x="639" 
d="M305 -10q-54 0 -101.5 20.5t-82.5 55.5t-55.5 82.5t-20.5 101.5t20.5 101t55.5 82t82.5 55.5t101.5 20.5t101 -20.5t82 -55.5t55.5 -82t20.5 -101t-20.5 -101.5t-55.5 -82.5t-82 -55.5t-101 -20.5zM304 20q48 0 89.5 18t73 49.5t49.5 73t18 89.5t-18 89.5t-49.5 73
t-73 49.5t-89.5 18t-89.5 -18t-73 -49.5t-49.5 -73t-18 -89.5t18 -89.5t49.5 -73t73 -49.5t89.5 -18z" />
    <glyph glyph-name="p" unicode="p" horiz-adv-x="629" 
d="M65 500h30v-144q27 69 86 111.5t137 42.5q53 0 96.5 -20.5t74.5 -55.5t48 -82.5t17 -101.5t-17 -101.5t-48 -82.5t-74.5 -55.5t-96.5 -20.5q-78 0 -137 42.5t-86 111.5v-344h-30v700zM318 480q-47 0 -87.5 -18t-70.5 -49t-47.5 -73t-17.5 -90t17.5 -90t47.5 -73t70.5 -49
t87.5 -18t85 18t65 49.5t41.5 73.5t14.5 89t-14.5 89t-41.5 73.5t-65 49.5t-85 18z" />
    <glyph glyph-name="q" unicode="q" horiz-adv-x="629" 
d="M534 -190l-30 -10v344q-27 -69 -86 -111.5t-137 -42.5q-53 0 -96.5 20.5t-74.5 55.5t-48 82.5t-17 101.5t17 101.5t48 82.5t74.5 55.5t96.5 20.5q78 0 137 -42.5t86 -111.5v144h30v-690zM281 480q-47 0 -85 -18t-65 -49.5t-41.5 -73.5t-14.5 -89t14.5 -89t41.5 -73.5
t65 -49.5t85 -18t87.5 18t70.5 49t47.5 73t17.5 90t-17.5 90t-47.5 73t-70.5 49t-87.5 18z" />
    <glyph glyph-name="r" unicode="r" horiz-adv-x="328" 
d="M268 469q-5 1 -15 1q-28 0 -57 -7t-52.5 -26t-38.5 -51.5t-15 -82.5v-303h-30v500h30v-94q16 39 58 66.5t105 27.5h10t10 -1z" />
    <glyph glyph-name="s" unicode="s" horiz-adv-x="489" 
d="M91 369q0 -33 24 -51t60 -29.5t77.5 -20.5t77.5 -24.5t60 -41.5t24 -71q0 -31 -13 -57t-36.5 -45t-56.5 -29.5t-73 -10.5q-75 0 -123.5 31.5t-66.5 79.5l27 15q19 -50 62.5 -73t100.5 -23q29 0 56 7.5t47.5 21.5t33 35t12.5 48q0 38 -24 58t-60 32.5t-77.5 21t-77.5 22.5
t-60 37.5t-24 66.5q0 30 12 55.5t34.5 45t54 30.5t69.5 11q61 0 105.5 -27t64.5 -73l-26 -14q-16 39 -53.5 61.5t-90.5 22.5q-66 0 -103 -30.5t-37 -81.5z" />
    <glyph glyph-name="t" unicode="t" horiz-adv-x="406" 
d="M331 0q-17 -2 -31.5 -3.5t-28.5 -1.5q-57 0 -84.5 30t-27.5 109v336h-134v30h134v157l30 13v-170h140v-30h-140v-336q0 -65 19.5 -88t65.5 -23q12 0 26 1.5t31 3.5v-28z" />
    <glyph glyph-name="u" unicode="u" horiz-adv-x="567" 
d="M65 500h30v-299q0 -55 17.5 -90t43.5 -55t57.5 -28t58.5 -8q26 0 57 8.5t57 31t43.5 62t17.5 100.5v278h30v-500h-30v98q-9 -21 -25 -40.5t-38.5 -34.5t-51 -24t-60.5 -9q-27 0 -62.5 8t-68 31.5t-54.5 64.5t-22 107v299z" />
    <glyph glyph-name="v" unicode="v" horiz-adv-x="522" 
d="M15 500h33l198 -469l198 469h33l-211 -500h-40z" />
    <glyph glyph-name="w" unicode="w" horiz-adv-x="779" 
d="M33 500h31l140 -464l146 464h36l149 -458l149 458h32l-162 -500h-37l-149 457l-147 -457h-35z" />
    <glyph glyph-name="x" unicode="x" horiz-adv-x="508" 
d="M220 251l-195 249h39l175 -225l175 225h39l-195 -249l195 -251h-37l-177 226l-177 -226h-37z" />
    <glyph glyph-name="y" unicode="y" horiz-adv-x="523" 
d="M252 0l-237 500h33l219 -460l179 460h32l-211 -543q-15 -36 -35 -66t-44.5 -51t-53.5 -32t-61 -8v29q30 -2 55.5 9t46.5 31t37 46t27 53z" />
    <glyph glyph-name="z" unicode="z" horiz-adv-x="530" 
d="M445 500v-20h-1l1 -1l-344 -449h354v-30h-400v20l345 450h-335v30h380z" />
    <glyph glyph-name="braceleft" unicode="{" horiz-adv-x="237" 
d="M7 369q25 0 38.5 21t13.5 51v234q0 24 8 45t22 36t32 23.5t37 8.5h62v-30h-62q-28 0 -48.5 -24t-20.5 -59v-234q0 -67 -45 -87q45 -19 45 -87v-234q0 -35 20.5 -59t48.5 -24h62v-30h-62q-19 0 -37 8.5t-32 23.5t-22 36t-8 45v234q0 30 -13.5 51t-38.5 21v30z" />
    <glyph glyph-name="bar" unicode="|" horiz-adv-x="206" 
d="M88 -80v827h30v-827h-30z" />
    <glyph glyph-name="braceright" unicode="}" horiz-adv-x="237" 
d="M230 339q-25 0 -38.5 -21t-13.5 -51v-234q0 -24 -8 -45t-22 -36t-31.5 -23.5t-37.5 -8.5h-62v30h62q28 0 48.5 24t20.5 59v234q0 68 45 87q-45 20 -45 87v234q0 35 -20.5 59t-48.5 24h-62v30h62q20 0 37.5 -8.5t31.5 -23.5t22 -36t8 -45v-234q0 -30 13.5 -51t38.5 -21
v-30z" />
    <glyph glyph-name="asciitilde" unicode="~" horiz-adv-x="496" 
d="M468 664q-4 -44 -12.5 -85.5t-23 -74t-37.5 -52t-56 -19.5q-29 0 -47 15t-30 37.5t-20.5 48.5t-19.5 48.5t-26 37.5t-39 15q-79 0 -99 -204l-30 5q5 53 14.5 95t25 72t37.5 46t52 16t49 -15t31.5 -37.5t21.5 -49t19 -49t24 -37.5t37 -15q26 0 43.5 18t28.5 47t17 66
t10 74z" />
    <glyph glyph-name="uni00A0" unicode="&#xa0;" horiz-adv-x="260" 
 />
    <glyph glyph-name="exclamdown" unicode="&#xa1;" horiz-adv-x="208" 
d="M69 458q0 17 9.5 26.5t26.5 9.5q35 0 35 -36t-35 -36q-36 0 -36 36zM94 328h20l11 -506h-42z" />
    <glyph glyph-name="cent" unicode="&#xa2;" horiz-adv-x="493" 
d="M60 242q0 50 14.5 93.5t40.5 77t63.5 54.5t83.5 26v72h30v-70q97 -2 161 -81l-22 -18q-52 70 -139 72v-453q85 0 139 73l22 -19q-64 -79 -161 -81v-88h-30v90q-46 5 -83.5 26t-63.5 55t-40.5 77.5t-14.5 93.5zM93 242q0 -45 12 -84t33.5 -69t53 -49t70.5 -24v450
q-42 -6 -73.5 -25.5t-53 -49.5t-32 -68.5t-10.5 -80.5z" />
    <glyph glyph-name="sterling" unicode="&#xa3;" horiz-adv-x="491" 
d="M17 267v30h143q-25 25 -45 47t-34 44.5t-22 47t-8 53.5q0 38 15.5 72t43 59.5t66 41t83.5 15.5q27 0 53.5 -7.5t49.5 -21t41.5 -32.5t30.5 -43l-26 -18q-7 18 -22 34.5t-34.5 29.5t-43 20.5t-49.5 7.5q-36 0 -68 -11t-56 -31.5t-37.5 -50t-13.5 -65.5q0 -33 6 -52.5
t19.5 -38t34 -41t50.5 -60.5h152v-30h-133q31 -57 9 -113.5t-79 -99.5q27 10 55 10q22 0 43 -7.5t41 -16.5t39.5 -16.5t38.5 -7.5q32 0 62 14t42 29l18 -27q-47 -46 -124 -46q-30 0 -50.5 7.5t-39 16.5t-38.5 16.5t-50 7.5q-39 0 -119 -41l-14 33q76 32 114 77.5t38 99.5
q0 33 -18 64h-164z" />
    <glyph glyph-name="currency" unicode="&#xa4;" horiz-adv-x="577" 
d="M288 99q-93 0 -155 59l-80 -80l-21 21l81 81q-50 65 -50 153q0 91 51 154l-83 83l21 21l82 -83q62 58 154 58q93 0 154 -57l81 81l21 -21l-82 -82q51 -63 51 -154q0 -88 -50 -153l81 -81l-21 -21l-80 80q-62 -59 -155 -59zM288 129q45 0 80.5 16t60 44t38 65t13.5 79
t-13.5 79t-38 64.5t-60 43.5t-80.5 16q-44 0 -79.5 -16t-60.5 -44t-38.5 -64.5t-13.5 -78.5t13.5 -79t38.5 -65t60.5 -44t79.5 -16z" />
    <glyph glyph-name="yen" unicode="&#xa5;" horiz-adv-x="610" 
d="M289 0v129h-268v30h268v130h-268v30h246l-246 348h41l243 -346l243 346h41l-247 -348h247v-30h-268v-130h268v-30h-268v-129h-32z" />
    <glyph glyph-name="brokenbar" unicode="&#xa6;" horiz-adv-x="206" 
d="M118 687v-316h-30v316h30zM118 296v-316h-30v316h30z" />
    <glyph glyph-name="section" unicode="&#xa7;" horiz-adv-x="454" 
d="M394 306q0 -88 -100 -127q51 -18 75.5 -46.5t24.5 -74.5q0 -66 -47.5 -102.5t-125.5 -36.5q-65 0 -104.5 20t-72.5 57l24 22q54 -72 153 -72q63 0 103 30.5t40 81.5q0 37 -23 57.5t-57.5 33.5t-74.5 22t-74.5 23t-57.5 38t-23 66q0 52 35 84.5t95 45.5q-64 18 -97 45
t-33 76q0 54 43 91t121 37q108 0 166 -73l-22 -20q-48 66 -144 66q-58 0 -96 -28.5t-38 -74.5q0 -34 23 -53t57.5 -31t74.5 -21.5t74.5 -24.5t57.5 -41t23 -70zM364 309q0 24 -10 41t-28 29t-43.5 21t-56.5 17q-79 -21 -110.5 -50t-31.5 -71q0 -24 15.5 -41.5t40.5 -30
t56.5 -21t63.5 -14.5q104 45 104 120z" />
    <glyph glyph-name="dieresis" unicode="&#xa8;" horiz-adv-x="252" 
d="M255 598q0 -11 -8.5 -19.5t-19.5 -8.5t-19.5 8.5t-8.5 19.5t8.5 19.5t19.5 8.5t19.5 -8t8.5 -20zM53 598q0 -11 -8.5 -19.5t-19.5 -8.5t-19.5 8.5t-8.5 19.5t8.5 19.5t19.5 8.5t19.5 -8t8.5 -20z" />
    <glyph glyph-name="copyright" unicode="&#xa9;" horiz-adv-x="778" 
d="M734 334q0 -72 -27 -134.5t-74 -109.5t-109.5 -74t-134.5 -27t-134.5 27.5t-109.5 74.5t-74 109.5t-27 133.5q0 72 27 134.5t74 109.5t109.5 74t134.5 27t134.5 -27t109.5 -73.5t74 -109.5t27 -135zM708 334q0 66 -25 124t-68.5 101.5t-101.5 68.5t-124 25t-124 -25
t-101.5 -68.5t-68.5 -101.5t-25 -124t25 -124t68.5 -101.5t101.5 -68.5t124 -25t124 25t101.5 68.5t68.5 101.5t25 124zM533 184q-56 -65 -144 -65q-43 0 -81 17t-66.5 46t-44.5 69t-16 85t16 84.5t44.5 68t66.5 45t81 16.5q89 0 144 -64l-20 -20q-19 26 -53.5 41.5
t-70.5 15.5t-68.5 -14t-57 -38.5t-39 -59t-14.5 -76.5q0 -40 14.5 -75t39 -60t57 -39.5t68.5 -14.5t70.5 16t53.5 42z" />
    <glyph glyph-name="ordfeminine" unicode="&#xaa;" horiz-adv-x="629" 
d="M504 143q-27 -69 -86 -111.5t-137 -42.5q-53 0 -96.5 20.5t-74.5 55.5t-48 82.5t-17 101.5t17 101.5t48 82.5t74.5 55.5t96.5 20.5q78 0 137 -42.5t86 -111.5v145h30v-500h-30v143zM281 19q47 0 87.5 18t70.5 49t47.5 73t17.5 90t-17.5 90t-47.5 73t-70.5 49t-87.5 18
t-85 -18t-65 -49.5t-41.5 -73.5t-14.5 -89t14.5 -89t41.5 -73.5t65 -49.5t85 -18z" />
    <glyph glyph-name="guillemotleft" unicode="&#xab;" horiz-adv-x="364" 
d="M295 63l-160 180l160 177h39l-160 -177l160 -180h-39zM190 63l-160 180l160 177h39l-160 -177l160 -180h-39z" />
    <glyph glyph-name="logicalnot" unicode="&#xac;" horiz-adv-x="494" 
d="M465 220h-32v198h-404v30h436v-228z" />
    <glyph glyph-name="uni00AD" unicode="&#xad;" horiz-adv-x="300" 
d="M50 227v30h240v-30h-240z" />
    <glyph glyph-name="registered" unicode="&#xae;" horiz-adv-x="494" 
d="M459 465q0 -44 -16.5 -82.5t-45.5 -67.5t-67.5 -45.5t-82.5 -16.5t-82.5 16.5t-67.5 45.5t-45.5 67.5t-16.5 82.5t16.5 82.5t45.5 67.5t67.5 45.5t82.5 16.5q45 0 83.5 -16.5t67 -45t45 -67t16.5 -83.5zM433 465q0 39 -14.5 73t-40 59t-59 39.5t-72.5 14.5t-72.5 -14.5
t-59 -39.5t-40 -59t-14.5 -73t14.5 -72.5t40 -59t59 -40t72.5 -14.5t72.5 14.5t59 40t40 59t14.5 72.5zM306 343l-63 96h-47v-96h-29v243h99q31 0 52.5 -20.5t21.5 -53.5q0 -18 -6.5 -31.5t-16 -22.5t-20 -13.5t-19.5 -4.5l65 -97h-37zM310 512q0 20 -14 33.5t-30 13.5h-70
v-92h70q16 0 30 13.5t14 31.5z" />
    <glyph glyph-name="macron" unicode="&#xaf;" horiz-adv-x="363" 
d="M0 581v27h363v-27h-363z" />
    <glyph glyph-name="degree" unicode="&#xb0;" horiz-adv-x="273" 
d="M247 566q0 -23 -9 -43t-24 -35t-35 -23.5t-43 -8.5t-43 8.5t-35 23.5t-23.5 35t-8.5 43t8.5 43t23.5 35t35 24t43 9t43.5 -8.5t35.5 -23.5t23.5 -35t8.5 -44zM217 566q0 33 -24 57t-57 24t-56.5 -24t-23.5 -57t23.5 -56.5t56.5 -23.5q16 0 30.5 6.5t26 17t18 25.5t6.5 31
z" />
    <glyph glyph-name="plusminus" unicode="&#xb1;" horiz-adv-x="494" 
d="M263 322v-222h-32v222h-202v30h202v216h32v-216h202v-30h-202zM29 0v30h436v-30h-436z" />
    <glyph glyph-name="twosuperior" unicode="&#xb2;" 
d="M54 22q5 45 21.5 89t43 82.5t61 70t75.5 50.5q40 20 77 37t65.5 38.5t45.5 51.5t17 75q0 41 -16.5 71.5t-42.5 51t-57.5 31t-61.5 10.5q-35 0 -68.5 -8t-61.5 -25t-47 -42t-25 -60l-32 4q6 41 28 71t54 50t71.5 30t80.5 10q38 0 75.5 -12t67.5 -36.5t48.5 -61t18.5 -84.5
q0 -52 -19 -87t-50 -60t-71.5 -44t-83.5 -40q-36 -17 -67 -45t-54.5 -61.5t-39 -72t-20.5 -76.5h435v-30h-468v22z" />
    <glyph glyph-name="threesuperior" unicode="&#xb3;" 
d="M478 535q0 -56 -31 -98t-83 -62q62 -21 99 -69.5t37 -114.5q0 -44 -17 -81t-47 -63.5t-71 -41.5t-90 -15q-37 0 -71.5 10.5t-63 29t-49.5 44.5t-32 56l33 5q22 -54 73 -84.5t110 -30.5q42 0 77.5 13t61 36t40 54.5t14.5 67.5t-14.5 67t-40 53.5t-61 35t-77.5 12.5h-32v31
l32 -1q37 0 68.5 11t54 30.5t35.5 46.5t13 58t-13 57.5t-35.5 46t-54 30.5t-68.5 11q-51 0 -95 -24t-65 -74l-34 5q9 27 28 49.5t44.5 39t57 25.5t64.5 9q44 0 81.5 -13t64.5 -36.5t42 -55.5t15 -70z" />
    <glyph glyph-name="acute" unicode="&#xb4;" horiz-adv-x="205" 
d="M160 700h45l-175 -144h-30z" />
    <glyph glyph-name="uni00B5" unicode="&#xb5;" horiz-adv-x="542" 
d="M116 -184h-30v667h30v-339q0 -131 127 -131q24 0 48.5 7t47 19.5t41.5 29t32 34.5v380h30v-398q0 -82 72 -68l3 -27q-48 -6 -74 13.5t-31 70.5q-36 -42 -85 -64t-96 -22q-37 0 -67.5 15.5t-47.5 49.5v-237z" />
    <glyph glyph-name="paragraph" unicode="&#xb6;" horiz-adv-x="449" 
d="M327 -100v737h-98v-737h-30v423q-36 0 -67 13.5t-54.5 37t-37 54.5t-13.5 67t13.5 67t37 54.5t54.5 37t67 13.5h158v-767h-30z" />
    <glyph glyph-name="periodcentered" unicode="&#xb7;" horiz-adv-x="208" 
d="M74 271h61v-62h-61v62z" />
    <glyph glyph-name="cedilla" unicode="&#xb8;" horiz-adv-x="191" 
d="M93 -187q-59 0 -93 28l14 27q31 -28 79 -28q29 0 49 13.5t20 35.5q0 43 -44 43q-27 0 -43 -19l-22 13l31 85h30l-26 -69q15 12 38 12q29 0 47 -17.5t18 -47.5q0 -33 -28 -54.5t-70 -21.5z" />
    <glyph glyph-name="onesuperior" unicode="&#xb9;" 
d="M102 638l179 62h32v-670h222v-30h-500v30h246v638l-170 -58z" />
    <glyph glyph-name="ordmasculine" unicode="&#xba;" horiz-adv-x="639" 
d="M305 -10q-54 0 -101.5 20.5t-82.5 55.5t-55.5 82.5t-20.5 101.5t20.5 101t55.5 82t82.5 55.5t101.5 20.5t101 -20.5t82 -55.5t55.5 -82t20.5 -101t-20.5 -101.5t-55.5 -82.5t-82 -55.5t-101 -20.5zM304 20q48 0 89.5 18t73 49.5t49.5 73t18 89.5t-18 89.5t-49.5 73
t-73 49.5t-89.5 18t-89.5 -18t-73 -49.5t-49.5 -73t-18 -89.5t18 -89.5t49.5 -73t73 -49.5t89.5 -18z" />
    <glyph glyph-name="guillemotright" unicode="&#xbb;" horiz-adv-x="364" 
d="M69 63h-39l160 180l-160 177h39l160 -177zM174 63h-39l160 180l-160 177h39l160 -177z" />
    <glyph glyph-name="questiondown" unicode="&#xbf;" horiz-adv-x="467" 
d="M279 444h-61v62h61v-62zM262 338v-76q0 -34 -14 -58.5t-34.5 -44t-44.5 -36.5t-44.5 -37t-34.5 -44.5t-14 -59.5q0 -52 39.5 -87.5t111.5 -35.5q69 0 113 25t78 73l23 -21q-75 -107 -214 -107q-42 0 -76.5 12t-59 32.5t-37.5 48.5t-13 60q0 38 14 65.5t35.5 49t46 40
t46 37t35.5 39.5t14 49v76h30z" />
    <glyph glyph-name="Agrave" unicode="&#xc0;" horiz-adv-x="644" 
d="M164 980l160 -144h-40l-165 144h45zM289 700h36l269 -700h-34l-72 188h-360l-72 -188h-36zM476 218l-168 438l-168 -438h336z" />
    <glyph glyph-name="Aacute" unicode="&#xc1;" horiz-adv-x="644" 
d="M453 979h45l-165 -144h-40zM289 700h36l269 -700h-34l-72 188h-360l-72 -188h-36zM476 218l-168 438l-168 -438h336z" />
    <glyph glyph-name="Acircumflex" unicode="&#xc2;" horiz-adv-x="644" 
d="M398 836l-91 120l-88 -120h-28l98 144h36l101 -144h-28zM289 700h36l269 -700h-34l-72 188h-360l-72 -188h-36zM476 218l-168 438l-168 -438h336z" />
    <glyph glyph-name="Atilde" unicode="&#xc3;" horiz-adv-x="644" 
d="M353 842q-28 0 -43 17.5t-26.5 39t-23.5 39t-35 17.5q-26 0 -42.5 -26.5t-16.5 -80.5h-26q0 57 23 95.5t65 38.5q28 0 43 -17.5t26.5 -39t24 -39t34.5 -17.5q26 0 42.5 26.5t16.5 80.5h26q0 -57 -23 -95.5t-65 -38.5zM289 700h36l269 -700h-34l-72 188h-360l-72 -188h-36
zM476 218l-168 438l-168 -438h336z" />
    <glyph glyph-name="Adieresis" unicode="&#xc4;" horiz-adv-x="644" 
d="M437 898q0 -11 -8.5 -19.5t-19.5 -8.5t-19.5 8.5t-8.5 19.5t8.5 19.5t19.5 8.5t19.5 -8t8.5 -20zM235 898q0 -11 -8.5 -19.5t-19.5 -8.5t-19.5 8.5t-8.5 19.5t8.5 19.5t19.5 8.5t19.5 -8t8.5 -20zM289 700h36l269 -700h-34l-72 188h-360l-72 -188h-36zM476 218l-168 438
l-168 -438h336z" />
    <glyph glyph-name="Aring" unicode="&#xc5;" horiz-adv-x="644" 
d="M307 807q-19 0 -36 7.5t-29.5 20t-20 29.5t-7.5 36t7.5 36t20 29.5t29.5 20t36 7.5t36 -7.5t29.5 -20t19.5 -29.5t7 -36t-7 -35.5t-19.5 -29.5t-29 -20.5t-36.5 -7.5zM307 831q28 0 48 20t20 49t-20 49t-48 20q-29 0 -49 -20.5t-20 -48.5t20 -48.5t49 -20.5zM289 700h36
l269 -700h-34l-72 188h-360l-72 -188h-36zM476 218l-168 438l-168 -438h336z" />
    <glyph glyph-name="AE" unicode="&#xc6;" horiz-adv-x="840" 
d="M289 700h472v-30h-338v-304h312v-30h-312v-306h342v-30h-374v188h-263l-72 -188h-36zM391 218v452h-78l-173 -452h251z" />
    <glyph glyph-name="Ccedilla" unicode="&#xc7;" horiz-adv-x="795" 
d="M50 349q0 75 28.5 140.5t77.5 114.5t114.5 77.5t140.5 28.5q50 0 97 -13.5t87.5 -37.5t73.5 -57.5t56 -74.5l-28 -15q-43 75 -118 120.5t-168 45.5q-68 0 -128 -26t-104.5 -70.5t-70.5 -104.5t-26 -128t26 -128t70.5 -104.5t104.5 -70.5t128 -26q93 0 168 45.5t118 120.5
l28 -15q-22 -39 -54 -72t-70.5 -57t-83 -38t-92.5 -16l-22 -58q15 12 38 12q29 0 47 -17.5t18 -47.5q0 -33 -28 -54.5t-70 -21.5q-59 0 -93 28l14 27q31 -28 79 -28q29 0 49 13.5t20 35.5q0 43 -44 43q-27 0 -43 -19l-22 13l27 74q-72 3 -135 32.5t-109.5 78.5t-73.5 113
t-27 137z" />
    <glyph glyph-name="Egrave" unicode="&#xc8;" horiz-adv-x="539" 
d="M135 980l160 -144h-40l-165 144h45zM90 700h370v-30h-338v-304h312v-30h-312v-306h342v-30h-374v700z" />
    <glyph glyph-name="Eacute" unicode="&#xc9;" horiz-adv-x="539" 
d="M424 979h45l-165 -144h-40zM90 700h370v-30h-338v-304h312v-30h-312v-306h342v-30h-374v700z" />
    <glyph glyph-name="Ecircumflex" unicode="&#xca;" horiz-adv-x="539" 
d="M369 836l-91 120l-88 -120h-28l98 144h36l101 -144h-28zM90 700h370v-30h-338v-304h312v-30h-312v-306h342v-30h-374v700z" />
    <glyph glyph-name="Edieresis" unicode="&#xcb;" horiz-adv-x="539" 
d="M408 898q0 -11 -8.5 -19.5t-19.5 -8.5t-19.5 8.5t-8.5 19.5t8.5 19.5t19.5 8.5t19.5 -8t8.5 -20zM206 898q0 -11 -8.5 -19.5t-19.5 -8.5t-19.5 8.5t-8.5 19.5t8.5 19.5t19.5 8.5t19.5 -8t8.5 -20zM90 700h370v-30h-338v-304h312v-30h-312v-306h342v-30h-374v700z" />
    <glyph glyph-name="Igrave" unicode="&#xcc;" horiz-adv-x="242" 
d="M-36 980l160 -144h-40l-165 144h45zM90 700h32v-700h-32v700z" />
    <glyph glyph-name="Iacute" unicode="&#xcd;" horiz-adv-x="242" 
d="M253 979h45l-165 -144h-40zM90 700h32v-700h-32v700z" />
    <glyph glyph-name="Icircumflex" unicode="&#xce;" horiz-adv-x="242" 
d="M198 836l-91 120l-88 -120h-28l98 144h36l101 -144h-28zM90 700h32v-700h-32v700z" />
    <glyph glyph-name="Idieresis" unicode="&#xcf;" horiz-adv-x="242" 
d="M237 898q0 -11 -8.5 -19.5t-19.5 -8.5t-19.5 8.5t-8.5 19.5t8.5 19.5t19.5 8.5t19.5 -8t8.5 -20zM35 898q0 -11 -8.5 -19.5t-19.5 -8.5t-19.5 8.5t-8.5 19.5t8.5 19.5t19.5 8.5t19.5 -8t8.5 -20zM90 700h32v-700h-32v700z" />
    <glyph glyph-name="Eth" unicode="&#xd0;" horiz-adv-x="753" 
d="M90 333h-53v30h53v337h226q75 0 140 -27t113 -74t76 -111t28 -139t-28 -138.5t-76 -110.5t-113 -73.5t-140 -26.5h-226v333zM122 670v-307h195v-30h-195v-303h194q68 0 127.5 24.5t103.5 67t69 101t25 126.5t-25 127t-69 102t-103 67.5t-128 24.5h-194z" />
    <glyph glyph-name="Ntilde" unicode="&#xd1;" horiz-adv-x="700" 
d="M386 842q-28 0 -43 17.5t-26.5 39t-23.5 39t-35 17.5q-26 0 -42.5 -26.5t-16.5 -80.5h-26q0 57 23 95.5t65 38.5q28 0 43 -17.5t26.5 -39t24 -39t34.5 -17.5q26 0 42.5 26.5t16.5 80.5h26q0 -57 -23 -95.5t-65 -38.5zM123 700l425 -644v644h32v-700h-33l-425 651v-651
h-32v700h33z" />
    <glyph glyph-name="Ograve" unicode="&#xd2;" horiz-adv-x="852" 
d="M268 990l160 -144h-40l-165 144h45zM411 -12q-75 0 -140.5 28.5t-114.5 77.5t-77.5 114.5t-28.5 140.5t28.5 140.5t77.5 114.5t114.5 77.5t140.5 28.5t140.5 -28.5t114.5 -77.5t77.5 -114.5t28.5 -140.5t-28.5 -140.5t-77.5 -114.5t-114.5 -77.5t-140.5 -28.5zM411 20
q68 0 128 26t104.5 70.5t70.5 104.5t26 128t-26 128t-70.5 104.5t-104.5 70.5t-128 26t-128 -26t-104.5 -70.5t-70.5 -104.5t-26 -128t26 -128t70.5 -104.5t104.5 -70.5t128 -26z" />
    <glyph glyph-name="Oacute" unicode="&#xd3;" horiz-adv-x="852" 
d="M557 989h45l-165 -144h-40zM411 -12q-75 0 -140.5 28.5t-114.5 77.5t-77.5 114.5t-28.5 140.5t28.5 140.5t77.5 114.5t114.5 77.5t140.5 28.5t140.5 -28.5t114.5 -77.5t77.5 -114.5t28.5 -140.5t-28.5 -140.5t-77.5 -114.5t-114.5 -77.5t-140.5 -28.5zM411 20
q68 0 128 26t104.5 70.5t70.5 104.5t26 128t-26 128t-70.5 104.5t-104.5 70.5t-128 26t-128 -26t-104.5 -70.5t-70.5 -104.5t-26 -128t26 -128t70.5 -104.5t104.5 -70.5t128 -26z" />
    <glyph glyph-name="Ocircumflex" unicode="&#xd4;" horiz-adv-x="852" 
d="M502 846l-91 120l-88 -120h-28l98 144h36l101 -144h-28zM411 -12q-75 0 -140.5 28.5t-114.5 77.5t-77.5 114.5t-28.5 140.5t28.5 140.5t77.5 114.5t114.5 77.5t140.5 28.5t140.5 -28.5t114.5 -77.5t77.5 -114.5t28.5 -140.5t-28.5 -140.5t-77.5 -114.5t-114.5 -77.5
t-140.5 -28.5zM411 20q68 0 128 26t104.5 70.5t70.5 104.5t26 128t-26 128t-70.5 104.5t-104.5 70.5t-128 26t-128 -26t-104.5 -70.5t-70.5 -104.5t-26 -128t26 -128t70.5 -104.5t104.5 -70.5t128 -26z" />
    <glyph glyph-name="Otilde" unicode="&#xd5;" horiz-adv-x="852" 
d="M457 852q-28 0 -43 17.5t-26.5 39t-23.5 39t-35 17.5q-26 0 -42.5 -26.5t-16.5 -80.5h-26q0 57 23 95.5t65 38.5q28 0 43 -17.5t26.5 -39t24 -39t34.5 -17.5q26 0 42.5 26.5t16.5 80.5h26q0 -57 -23 -95.5t-65 -38.5zM411 -12q-75 0 -140.5 28.5t-114.5 77.5t-77.5 114.5
t-28.5 140.5t28.5 140.5t77.5 114.5t114.5 77.5t140.5 28.5t140.5 -28.5t114.5 -77.5t77.5 -114.5t28.5 -140.5t-28.5 -140.5t-77.5 -114.5t-114.5 -77.5t-140.5 -28.5zM411 20q68 0 128 26t104.5 70.5t70.5 104.5t26 128t-26 128t-70.5 104.5t-104.5 70.5t-128 26t-128 -26
t-104.5 -70.5t-70.5 -104.5t-26 -128t26 -128t70.5 -104.5t104.5 -70.5t128 -26z" />
    <glyph glyph-name="Odieresis" unicode="&#xd6;" horiz-adv-x="852" 
d="M541 908q0 -11 -8.5 -19.5t-19.5 -8.5t-19.5 8.5t-8.5 19.5t8.5 19.5t19.5 8.5t19.5 -8t8.5 -20zM339 908q0 -11 -8.5 -19.5t-19.5 -8.5t-19.5 8.5t-8.5 19.5t8.5 19.5t19.5 8.5t19.5 -8t8.5 -20zM411 -12q-75 0 -140.5 28.5t-114.5 77.5t-77.5 114.5t-28.5 140.5
t28.5 140.5t77.5 114.5t114.5 77.5t140.5 28.5t140.5 -28.5t114.5 -77.5t77.5 -114.5t28.5 -140.5t-28.5 -140.5t-77.5 -114.5t-114.5 -77.5t-140.5 -28.5zM411 20q68 0 128 26t104.5 70.5t70.5 104.5t26 128t-26 128t-70.5 104.5t-104.5 70.5t-128 26t-128 -26
t-104.5 -70.5t-70.5 -104.5t-26 -128t26 -128t70.5 -104.5t104.5 -70.5t128 -26z" />
    <glyph glyph-name="multiply" unicode="&#xd7;" horiz-adv-x="494" 
d="M423 179l-21 -21l-155 155l-155 -155l-21 21l155 155l-155 155l21 21l155 -155l155 155l21 -21l-155 -155z" />
    <glyph glyph-name="Oslash" unicode="&#xd8;" horiz-adv-x="852" 
d="M411 -12q-66 0 -124.5 22t-105.5 61l-52 -58l-20 19l51 57q-51 50 -80.5 116.5t-29.5 143.5q0 75 28.5 140.5t77.5 114.5t114.5 77.5t140.5 28.5q66 0 124 -22t106 -61l54 61l20 -18l-54 -61q51 -49 81 -116t30 -144q0 -75 -28.5 -140.5t-77.5 -114.5t-114.5 -77.5
t-140.5 -28.5zM620 604q-43 35 -96 54.5t-113 19.5q-68 0 -128 -26t-104.5 -70.5t-70.5 -104.5t-26 -128q0 -70 26.5 -130.5t72.5 -105.5zM411 20q68 0 128 26t104.5 70.5t70.5 104.5t26 128q0 70 -26.5 131t-73.5 106l-438 -491q43 -35 96 -55t113 -20z" />
    <glyph glyph-name="Ugrave" unicode="&#xd9;" horiz-adv-x="682" 
d="M182 980l160 -144h-40l-165 144h45zM80 700h32v-463q0 -47 13.5 -87t40 -68.5t66.5 -44.5t93 -16q54 0 94 16t67 44.5t40.5 68.5t13.5 87v463h32v-463q0 -55 -17 -101t-49 -78.5t-77.5 -50.5t-103.5 -18t-103.5 18t-77 50.5t-48 78.5t-16.5 101v463z" />
    <glyph glyph-name="Uacute" unicode="&#xda;" horiz-adv-x="682" 
d="M471 979h45l-165 -144h-40zM80 700h32v-463q0 -47 13.5 -87t40 -68.5t66.5 -44.5t93 -16q54 0 94 16t67 44.5t40.5 68.5t13.5 87v463h32v-463q0 -55 -17 -101t-49 -78.5t-77.5 -50.5t-103.5 -18t-103.5 18t-77 50.5t-48 78.5t-16.5 101v463z" />
    <glyph glyph-name="Ucircumflex" unicode="&#xdb;" horiz-adv-x="682" 
d="M416 836l-91 120l-88 -120h-28l98 144h36l101 -144h-28zM80 700h32v-463q0 -47 13.5 -87t40 -68.5t66.5 -44.5t93 -16q54 0 94 16t67 44.5t40.5 68.5t13.5 87v463h32v-463q0 -55 -17 -101t-49 -78.5t-77.5 -50.5t-103.5 -18t-103.5 18t-77 50.5t-48 78.5t-16.5 101v463z
" />
    <glyph glyph-name="Udieresis" unicode="&#xdc;" horiz-adv-x="682" 
d="M455 898q0 -11 -8.5 -19.5t-19.5 -8.5t-19.5 8.5t-8.5 19.5t8.5 19.5t19.5 8.5t19.5 -8t8.5 -20zM253 898q0 -11 -8.5 -19.5t-19.5 -8.5t-19.5 8.5t-8.5 19.5t8.5 19.5t19.5 8.5t19.5 -8t8.5 -20zM80 700h32v-463q0 -47 13.5 -87t40 -68.5t66.5 -44.5t93 -16q54 0 94 16
t67 44.5t40.5 68.5t13.5 87v463h32v-463q0 -55 -17 -101t-49 -78.5t-77.5 -50.5t-103.5 -18t-103.5 18t-77 50.5t-48 78.5t-16.5 101v463z" />
    <glyph glyph-name="Yacute" unicode="&#xdd;" horiz-adv-x="598" 
d="M432 979h45l-165 -144h-40zM268 287l-258 413h37l237 -379l237 379h37l-258 -413v-287h-32v287z" />
    <glyph glyph-name="Thorn" unicode="&#xde;" horiz-adv-x="593" 
d="M122 154v-154h-32v700h32v-130h188q43 0 81 -16.5t66 -44.5t44.5 -66t16.5 -81t-16.5 -81t-44.5 -66t-66 -44.5t-81 -16.5h-188zM310 186q36 0 68 14t56 38t38 56t14 68t-14 68t-38 56t-56 38t-68 14h-188v-352h188z" />
    <glyph glyph-name="germandbls" unicode="&#xdf;" horiz-adv-x="532" 
d="M185 377h64q66 2 104 40.5t38 107.5q0 66 -38 105.5t-105 39.5q-69 1 -109.5 -37.5t-43.5 -107.5v-525h-30v525q3 83 52 129.5t132 45.5q81 0 126.5 -47t45.5 -128q-1 -60 -24 -100.5t-65 -60.5q57 -20 90.5 -67.5t34.5 -111.5q1 -40 -12.5 -73.5t-39 -58.5t-61 -39
t-77.5 -14h-82v30h82q35 1 64.5 13t51 32.5t33 48.5t11.5 61q-1 35 -14.5 65t-37.5 51.5t-56 33.5t-70 12h-64v30z" />
    <glyph glyph-name="agrave" unicode="&#xe0;" horiz-adv-x="629" 
d="M163 780l160 -144h-40l-165 144h45zM504 143q-27 -69 -86 -111.5t-137 -42.5q-53 0 -96.5 20.5t-74.5 55.5t-48 82.5t-17 101.5t17 101.5t48 82.5t74.5 55.5t96.5 20.5q78 0 137 -42.5t86 -111.5v145h30v-500h-30v143zM281 19q47 0 87.5 18t70.5 49t47.5 73t17.5 90
t-17.5 90t-47.5 73t-70.5 49t-87.5 18t-85 -18t-65 -49.5t-41.5 -73.5t-14.5 -89t14.5 -89t41.5 -73.5t65 -49.5t85 -18z" />
    <glyph glyph-name="aacute" unicode="&#xe1;" horiz-adv-x="629" 
d="M452 779h45l-165 -144h-40zM504 143q-27 -69 -86 -111.5t-137 -42.5q-53 0 -96.5 20.5t-74.5 55.5t-48 82.5t-17 101.5t17 101.5t48 82.5t74.5 55.5t96.5 20.5q78 0 137 -42.5t86 -111.5v145h30v-500h-30v143zM281 19q47 0 87.5 18t70.5 49t47.5 73t17.5 90t-17.5 90
t-47.5 73t-70.5 49t-87.5 18t-85 -18t-65 -49.5t-41.5 -73.5t-14.5 -89t14.5 -89t41.5 -73.5t65 -49.5t85 -18z" />
    <glyph glyph-name="acircumflex" unicode="&#xe2;" horiz-adv-x="629" 
d="M397 636l-91 120l-88 -120h-28l98 144h36l101 -144h-28zM504 143q-27 -69 -86 -111.5t-137 -42.5q-53 0 -96.5 20.5t-74.5 55.5t-48 82.5t-17 101.5t17 101.5t48 82.5t74.5 55.5t96.5 20.5q78 0 137 -42.5t86 -111.5v145h30v-500h-30v143zM281 19q47 0 87.5 18t70.5 49
t47.5 73t17.5 90t-17.5 90t-47.5 73t-70.5 49t-87.5 18t-85 -18t-65 -49.5t-41.5 -73.5t-14.5 -89t14.5 -89t41.5 -73.5t65 -49.5t85 -18z" />
    <glyph glyph-name="atilde" unicode="&#xe3;" horiz-adv-x="629" 
d="M352 642q-28 0 -43 17.5t-26.5 39t-23.5 39t-35 17.5q-26 0 -42.5 -26.5t-16.5 -80.5h-26q0 57 23 95.5t65 38.5q28 0 43 -17.5t26.5 -39t24 -39t34.5 -17.5q26 0 42.5 26.5t16.5 80.5h26q0 -57 -23 -95.5t-65 -38.5zM504 143q-27 -69 -86 -111.5t-137 -42.5
q-53 0 -96.5 20.5t-74.5 55.5t-48 82.5t-17 101.5t17 101.5t48 82.5t74.5 55.5t96.5 20.5q78 0 137 -42.5t86 -111.5v145h30v-500h-30v143zM281 19q47 0 87.5 18t70.5 49t47.5 73t17.5 90t-17.5 90t-47.5 73t-70.5 49t-87.5 18t-85 -18t-65 -49.5t-41.5 -73.5t-14.5 -89
t14.5 -89t41.5 -73.5t65 -49.5t85 -18z" />
    <glyph glyph-name="adieresis" unicode="&#xe4;" horiz-adv-x="629" 
d="M436 698q0 -11 -8.5 -19.5t-19.5 -8.5t-19.5 8.5t-8.5 19.5t8.5 19.5t19.5 8.5t19.5 -8t8.5 -20zM234 698q0 -11 -8.5 -19.5t-19.5 -8.5t-19.5 8.5t-8.5 19.5t8.5 19.5t19.5 8.5t19.5 -8t8.5 -20zM504 143q-27 -69 -86 -111.5t-137 -42.5q-53 0 -96.5 20.5t-74.5 55.5
t-48 82.5t-17 101.5t17 101.5t48 82.5t74.5 55.5t96.5 20.5q78 0 137 -42.5t86 -111.5v145h30v-500h-30v143zM281 19q47 0 87.5 18t70.5 49t47.5 73t17.5 90t-17.5 90t-47.5 73t-70.5 49t-87.5 18t-85 -18t-65 -49.5t-41.5 -73.5t-14.5 -89t14.5 -89t41.5 -73.5t65 -49.5
t85 -18z" />
    <glyph glyph-name="aring" unicode="&#xe5;" horiz-adv-x="629" 
d="M306 607q-19 0 -36 7.5t-29.5 20t-20 29.5t-7.5 36t7.5 36t20 29.5t29.5 20t36 7.5t36 -7.5t29.5 -20t19.5 -29.5t7 -36t-7 -35.5t-19.5 -29.5t-29 -20.5t-36.5 -7.5zM306 631q28 0 48 20t20 49t-20 49t-48 20q-29 0 -49 -20.5t-20 -48.5t20 -48.5t49 -20.5zM504 143
q-27 -69 -86 -111.5t-137 -42.5q-53 0 -96.5 20.5t-74.5 55.5t-48 82.5t-17 101.5t17 101.5t48 82.5t74.5 55.5t96.5 20.5q78 0 137 -42.5t86 -111.5v145h30v-500h-30v143zM281 19q47 0 87.5 18t70.5 49t47.5 73t17.5 90t-17.5 90t-47.5 73t-70.5 49t-87.5 18t-85 -18
t-65 -49.5t-41.5 -73.5t-14.5 -89t14.5 -89t41.5 -73.5t65 -49.5t85 -18z" />
    <glyph glyph-name="ae" unicode="&#xe6;" horiz-adv-x="980" 
d="M693 511q57 0 98 -22t67.5 -58.5t39 -84t12.5 -98.5v-5l-1 -5v-5h-413q1 -42 13 -81t36.5 -68.5t62.5 -47t90 -17.5q31 0 55.5 8t44 21.5t34.5 31.5t26 38l27 -16q-15 -25 -32.5 -46t-39.5 -36t-50.5 -23t-65.5 -8q-90 0 -145 44.5t-75 119.5q-12 -36 -32 -66t-47.5 -52
t-62 -34t-74.5 -12q-53 0 -93.5 20.5t-67.5 55.5t-41 82.5t-14 101.5t14 101.5t41 82.5t67.5 55.5t93.5 20.5q80 0 136 -45.5t79 -117.5q20 74 74 119.5t143 45.5zM880 263q-5 50 -17 90.5t-34 69t-55 43.5t-81 15q-51 0 -88.5 -18.5t-61.5 -49t-35.5 -69.5t-11.5 -81h384z
M261 19q47 0 84.5 18t64 49t40.5 73t14 90t-14 90t-40.5 73t-64 49t-84.5 18t-82 -18t-58 -49.5t-34.5 -73.5t-11.5 -89t11.5 -89t34.5 -73.5t58 -49.5t82 -18z" />
    <glyph glyph-name="ccedilla" unicode="&#xe7;" horiz-adv-x="579" 
d="M514 96q-33 -46 -84 -74t-111 -32l-22 -58q15 12 38 12q29 0 47 -17.5t18 -47.5q0 -33 -28 -54.5t-70 -21.5q-59 0 -93 28l14 27q31 -28 79 -28q29 0 49 13.5t20 35.5q0 43 -44 43q-27 0 -43 -19l-22 13l27 74q-51 3 -95.5 24.5t-77.5 56.5t-52 81t-19 98q0 54 20.5 101
t55.5 82t82.5 55.5t101.5 20.5q64 0 118 -28t90 -76l-24 -17q-32 42 -79.5 67t-104.5 25q-48 0 -89.5 -18t-73 -49.5t-49.5 -73t-18 -89.5t18 -89.5t49.5 -73t73 -49.5t89.5 -18q57 0 104.5 25t79.5 67z" />
    <glyph glyph-name="egrave" unicode="&#xe8;" horiz-adv-x="621" 
d="M164 791l160 -144h-40l-165 144h45zM304 511q57 0 102.5 -22t78 -58.5t49.5 -84t17 -98.5v-5l-1 -5v-5h-473q1 -42 17.5 -81t47 -68.5t73 -47t94.5 -17.5q31 0 60.5 8t54.5 21.5t44.5 31.5t30.5 38l27 -16q-31 -51 -87 -82t-131 -31q-58 0 -106 19.5t-83 54.5t-54.5 82.5
t-19.5 104.5q0 55 19 102.5t53 83t82 55.5t105 20zM521 263q-11 101 -66 159.5t-151 58.5q-51 0 -93 -18.5t-72 -49t-46 -69.5t-16 -81h444z" />
    <glyph glyph-name="eacute" unicode="&#xe9;" horiz-adv-x="621" 
d="M453 790h45l-165 -144h-40zM304 511q57 0 102.5 -22t78 -58.5t49.5 -84t17 -98.5v-5l-1 -5v-5h-473q1 -42 17.5 -81t47 -68.5t73 -47t94.5 -17.5q31 0 60.5 8t54.5 21.5t44.5 31.5t30.5 38l27 -16q-31 -51 -87 -82t-131 -31q-58 0 -106 19.5t-83 54.5t-54.5 82.5
t-19.5 104.5q0 55 19 102.5t53 83t82 55.5t105 20zM521 263q-11 101 -66 159.5t-151 58.5q-51 0 -93 -18.5t-72 -49t-46 -69.5t-16 -81h444z" />
    <glyph glyph-name="ecircumflex" unicode="&#xea;" horiz-adv-x="621" 
d="M398 647l-91 120l-88 -120h-28l98 144h36l101 -144h-28zM304 511q57 0 102.5 -22t78 -58.5t49.5 -84t17 -98.5v-5l-1 -5v-5h-473q1 -42 17.5 -81t47 -68.5t73 -47t94.5 -17.5q31 0 60.5 8t54.5 21.5t44.5 31.5t30.5 38l27 -16q-31 -51 -87 -82t-131 -31q-58 0 -106 19.5
t-83 54.5t-54.5 82.5t-19.5 104.5q0 55 19 102.5t53 83t82 55.5t105 20zM521 263q-11 101 -66 159.5t-151 58.5q-51 0 -93 -18.5t-72 -49t-46 -69.5t-16 -81h444z" />
    <glyph glyph-name="edieresis" unicode="&#xeb;" horiz-adv-x="621" 
d="M437 709q0 -11 -8.5 -19.5t-19.5 -8.5t-19.5 8.5t-8.5 19.5t8.5 19.5t19.5 8.5t19.5 -8t8.5 -20zM235 709q0 -11 -8.5 -19.5t-19.5 -8.5t-19.5 8.5t-8.5 19.5t8.5 19.5t19.5 8.5t19.5 -8t8.5 -20zM304 511q57 0 102.5 -22t78 -58.5t49.5 -84t17 -98.5v-5l-1 -5v-5h-473
q1 -42 17.5 -81t47 -68.5t73 -47t94.5 -17.5q31 0 60.5 8t54.5 21.5t44.5 31.5t30.5 38l27 -16q-31 -51 -87 -82t-131 -31q-58 0 -106 19.5t-83 54.5t-54.5 82.5t-19.5 104.5q0 55 19 102.5t53 83t82 55.5t105 20zM521 263q-11 101 -66 159.5t-151 58.5q-51 0 -93 -18.5
t-72 -49t-46 -69.5t-16 -81h444z" />
    <glyph glyph-name="igrave" unicode="&#xec;" horiz-adv-x="210" 
d="M-55 780l160 -144h-40l-165 144h45zM74 500h30v-500h-30v500z" />
    <glyph glyph-name="iacute" unicode="&#xed;" horiz-adv-x="210" 
d="M234 779h45l-165 -144h-40zM74 500h30v-500h-30v500z" />
    <glyph glyph-name="icircumflex" unicode="&#xee;" horiz-adv-x="210" 
d="M179 636l-91 120l-88 -120h-28l98 144h36l101 -144h-28zM74 500h30v-500h-30v500z" />
    <glyph glyph-name="idieresis" unicode="&#xef;" horiz-adv-x="210" 
d="M218 698q0 -11 -8.5 -19.5t-19.5 -8.5t-19.5 8.5t-8.5 19.5t8.5 19.5t19.5 8.5t19.5 -8t8.5 -20zM16 698q0 -11 -8.5 -19.5t-19.5 -8.5t-19.5 8.5t-8.5 19.5t8.5 19.5t19.5 8.5t19.5 -8t8.5 -20zM74 500h30v-500h-30v500z" />
    <glyph glyph-name="eth" unicode="&#xf0;" horiz-adv-x="659" 
d="M329 700q49 -29 88 -68l69 39l12 -22l-63 -36q44 -50 69.5 -105t38.5 -105t17 -89t4 -57q1 -55 -19 -103.5t-55.5 -85t-83 -57.5t-101.5 -21t-101.5 20.5t-82.5 55.5t-55.5 82.5t-20.5 101.5t20.5 101t55.5 82t82.5 55.5t101.5 20.5q66 0 121.5 -29.5t90.5 -80.5
q-12 45 -37 96t-72 103l-64 -37l-15 22l61 34q-21 21 -45.5 42t-54.5 41h39zM304 20q48 0 89.5 18t73 49.5t49.5 73t18 89.5t-18 89.5t-49.5 73t-73 49.5t-89.5 18t-89.5 -18t-73 -49.5t-49.5 -73t-18 -89.5t18 -89.5t49.5 -73t73 -49.5t89.5 -18z" />
    <glyph glyph-name="ntilde" unicode="&#xf1;" horiz-adv-x="572" 
d="M322 642q-28 0 -43 17.5t-26.5 39t-23.5 39t-35 17.5q-26 0 -42.5 -26.5t-16.5 -80.5h-26q0 57 23 95.5t65 38.5q28 0 43 -17.5t26.5 -39t24 -39t34.5 -17.5q26 0 42.5 26.5t16.5 80.5h26q0 -57 -23 -95.5t-65 -38.5zM477 0h-30v299q0 55 -17.5 90t-43.5 55.5t-57.5 28
t-58.5 7.5q-26 0 -56.5 -8.5t-57 -31t-44 -61.5t-17.5 -101v-278h-30v500h30v-98q9 21 25 40.5t38.5 34.5t51 24t60.5 9q27 0 62.5 -8t68 -31.5t54.5 -64.5t22 -107v-299z" />
    <glyph glyph-name="ograve" unicode="&#xf2;" horiz-adv-x="639" 
d="M162 789l160 -144h-40l-165 144h45zM305 -10q-54 0 -101.5 20.5t-82.5 55.5t-55.5 82.5t-20.5 101.5t20.5 101t55.5 82t82.5 55.5t101.5 20.5t101 -20.5t82 -55.5t55.5 -82t20.5 -101t-20.5 -101.5t-55.5 -82.5t-82 -55.5t-101 -20.5zM304 20q48 0 89.5 18t73 49.5
t49.5 73t18 89.5t-18 89.5t-49.5 73t-73 49.5t-89.5 18t-89.5 -18t-73 -49.5t-49.5 -73t-18 -89.5t18 -89.5t49.5 -73t73 -49.5t89.5 -18z" />
    <glyph glyph-name="oacute" unicode="&#xf3;" horiz-adv-x="639" 
d="M451 788h45l-165 -144h-40zM305 -10q-54 0 -101.5 20.5t-82.5 55.5t-55.5 82.5t-20.5 101.5t20.5 101t55.5 82t82.5 55.5t101.5 20.5t101 -20.5t82 -55.5t55.5 -82t20.5 -101t-20.5 -101.5t-55.5 -82.5t-82 -55.5t-101 -20.5zM304 20q48 0 89.5 18t73 49.5t49.5 73
t18 89.5t-18 89.5t-49.5 73t-73 49.5t-89.5 18t-89.5 -18t-73 -49.5t-49.5 -73t-18 -89.5t18 -89.5t49.5 -73t73 -49.5t89.5 -18z" />
    <glyph glyph-name="ocircumflex" unicode="&#xf4;" horiz-adv-x="639" 
d="M396 645l-91 120l-88 -120h-28l98 144h36l101 -144h-28zM305 -10q-54 0 -101.5 20.5t-82.5 55.5t-55.5 82.5t-20.5 101.5t20.5 101t55.5 82t82.5 55.5t101.5 20.5t101 -20.5t82 -55.5t55.5 -82t20.5 -101t-20.5 -101.5t-55.5 -82.5t-82 -55.5t-101 -20.5zM304 20
q48 0 89.5 18t73 49.5t49.5 73t18 89.5t-18 89.5t-49.5 73t-73 49.5t-89.5 18t-89.5 -18t-73 -49.5t-49.5 -73t-18 -89.5t18 -89.5t49.5 -73t73 -49.5t89.5 -18z" />
    <glyph glyph-name="otilde" unicode="&#xf5;" horiz-adv-x="639" 
d="M351 651q-28 0 -43 17.5t-26.5 39t-23.5 39t-35 17.5q-26 0 -42.5 -26.5t-16.5 -80.5h-26q0 57 23 95.5t65 38.5q28 0 43 -17.5t26.5 -39t24 -39t34.5 -17.5q26 0 42.5 26.5t16.5 80.5h26q0 -57 -23 -95.5t-65 -38.5zM305 -10q-54 0 -101.5 20.5t-82.5 55.5t-55.5 82.5
t-20.5 101.5t20.5 101t55.5 82t82.5 55.5t101.5 20.5t101 -20.5t82 -55.5t55.5 -82t20.5 -101t-20.5 -101.5t-55.5 -82.5t-82 -55.5t-101 -20.5zM304 20q48 0 89.5 18t73 49.5t49.5 73t18 89.5t-18 89.5t-49.5 73t-73 49.5t-89.5 18t-89.5 -18t-73 -49.5t-49.5 -73
t-18 -89.5t18 -89.5t49.5 -73t73 -49.5t89.5 -18z" />
    <glyph glyph-name="odieresis" unicode="&#xf6;" horiz-adv-x="639" 
d="M435 707q0 -11 -8.5 -19.5t-19.5 -8.5t-19.5 8.5t-8.5 19.5t8.5 19.5t19.5 8.5t19.5 -8t8.5 -20zM233 707q0 -11 -8.5 -19.5t-19.5 -8.5t-19.5 8.5t-8.5 19.5t8.5 19.5t19.5 8.5t19.5 -8t8.5 -20zM305 -10q-54 0 -101.5 20.5t-82.5 55.5t-55.5 82.5t-20.5 101.5t20.5 101
t55.5 82t82.5 55.5t101.5 20.5t101 -20.5t82 -55.5t55.5 -82t20.5 -101t-20.5 -101.5t-55.5 -82.5t-82 -55.5t-101 -20.5zM304 20q48 0 89.5 18t73 49.5t49.5 73t18 89.5t-18 89.5t-49.5 73t-73 49.5t-89.5 18t-89.5 -18t-73 -49.5t-49.5 -73t-18 -89.5t18 -89.5t49.5 -73
t73 -49.5t89.5 -18z" />
    <glyph glyph-name="divide" unicode="&#xf7;" horiz-adv-x="511" 
d="M289 536q0 -14 -10 -24t-23 -10t-23 10t-10 24q0 13 9.5 22.5t23.5 9.5t23.5 -9.5t9.5 -22.5zM482 352v-30h-453v30h453zM289 133q0 -13 -9.5 -23t-23.5 -10t-23.5 10t-9.5 23t9.5 23t23.5 10t23.5 -9.5t9.5 -23.5z" />
    <glyph glyph-name="oslash" unicode="&#xf8;" horiz-adv-x="639" 
d="M305 -10q-47 0 -88.5 15.5t-75.5 42.5l-119 -134l-20 19l119 133q-35 35 -55.5 82.5t-20.5 101.5t20.5 101t55.5 82t82.5 55.5t101.5 20.5q46 0 87 -15t74 -41l122 136l20 -18l-122 -136q36 -35 57 -83t21 -102t-20.5 -101.5t-55.5 -82.5t-82 -55.5t-101 -20.5zM446 431
q-29 23 -65 36t-77 13q-48 0 -89.5 -18t-73 -49.5t-49.5 -73t-18 -89.5t17.5 -89t49.5 -73zM304 20q48 0 89.5 18t73 49.5t49.5 73t18 89.5t-18 89.5t-49 73.5l-306 -343q29 -23 65.5 -36.5t77.5 -13.5z" />
    <glyph glyph-name="ugrave" unicode="&#xf9;" horiz-adv-x="567" 
d="M134 780l160 -144h-40l-165 144h45zM65 500h30v-299q0 -55 17.5 -90t43.5 -55t57.5 -28t58.5 -8q26 0 57 8.5t57 31t43.5 62t17.5 100.5v278h30v-500h-30v98q-9 -21 -25 -40.5t-38.5 -34.5t-51 -24t-60.5 -9q-27 0 -62.5 8t-68 31.5t-54.5 64.5t-22 107v299z" />
    <glyph glyph-name="uacute" unicode="&#xfa;" horiz-adv-x="567" 
d="M423 779h45l-165 -144h-40zM65 500h30v-299q0 -55 17.5 -90t43.5 -55t57.5 -28t58.5 -8q26 0 57 8.5t57 31t43.5 62t17.5 100.5v278h30v-500h-30v98q-9 -21 -25 -40.5t-38.5 -34.5t-51 -24t-60.5 -9q-27 0 -62.5 8t-68 31.5t-54.5 64.5t-22 107v299z" />
    <glyph glyph-name="ucircumflex" unicode="&#xfb;" horiz-adv-x="567" 
d="M368 636l-91 120l-88 -120h-28l98 144h36l101 -144h-28zM65 500h30v-299q0 -55 17.5 -90t43.5 -55t57.5 -28t58.5 -8q26 0 57 8.5t57 31t43.5 62t17.5 100.5v278h30v-500h-30v98q-9 -21 -25 -40.5t-38.5 -34.5t-51 -24t-60.5 -9q-27 0 -62.5 8t-68 31.5t-54.5 64.5
t-22 107v299z" />
    <glyph glyph-name="udieresis" unicode="&#xfc;" horiz-adv-x="567" 
d="M407 698q0 -11 -8.5 -19.5t-19.5 -8.5t-19.5 8.5t-8.5 19.5t8.5 19.5t19.5 8.5t19.5 -8t8.5 -20zM205 698q0 -11 -8.5 -19.5t-19.5 -8.5t-19.5 8.5t-8.5 19.5t8.5 19.5t19.5 8.5t19.5 -8t8.5 -20zM65 500h30v-299q0 -55 17.5 -90t43.5 -55t57.5 -28t58.5 -8q26 0 57 8.5
t57 31t43.5 62t17.5 100.5v278h30v-500h-30v98q-9 -21 -25 -40.5t-38.5 -34.5t-51 -24t-60.5 -9q-27 0 -62.5 8t-68 31.5t-54.5 64.5t-22 107v299z" />
    <glyph glyph-name="yacute" unicode="&#xfd;" horiz-adv-x="523" 
d="M408 779h45l-165 -144h-40zM252 0l-237 500h33l219 -460l179 460h32l-211 -543q-15 -36 -35 -66t-44.5 -51t-53.5 -32t-61 -8v29q30 -2 55.5 9t46.5 31t37 46t27 53z" />
    <glyph glyph-name="thorn" unicode="&#xfe;" horiz-adv-x="629" 
d="M65 700h30v-344q27 69 86 111.5t137 42.5q53 0 96.5 -20.5t74.5 -55.5t48 -82.5t17 -101.5t-17 -101.5t-48 -82.5t-74.5 -55.5t-96.5 -20.5q-78 0 -137 42.5t-86 111.5v-344h-30v900zM318 480q-47 0 -87.5 -18t-70.5 -49t-47.5 -73t-17.5 -90t17.5 -90t47.5 -73t70.5 -49
t87.5 -18t85 18t65 49.5t41.5 73.5t14.5 89t-14.5 89t-41.5 73.5t-65 49.5t-85 18z" />
    <glyph glyph-name="ydieresis" unicode="&#xff;" horiz-adv-x="523" 
d="M392 698q0 -11 -8.5 -19.5t-19.5 -8.5t-19.5 8.5t-8.5 19.5t8.5 19.5t19.5 8.5t19.5 -8t8.5 -20zM190 698q0 -11 -8.5 -19.5t-19.5 -8.5t-19.5 8.5t-8.5 19.5t8.5 19.5t19.5 8.5t19.5 -8t8.5 -20zM252 0l-237 500h33l219 -460l179 460h32l-211 -543q-15 -36 -35 -66
t-44.5 -51t-53.5 -32t-61 -8v29q30 -2 55.5 9t46.5 31t37 46t27 53z" />
    <glyph glyph-name="Amacron" unicode="&#x100;" horiz-adv-x="644" 
d="M122 871v27h363v-27h-363zM289 700h36l269 -700h-34l-72 188h-360l-72 -188h-36zM476 218l-168 438l-168 -438h336z" />
    <glyph glyph-name="amacron" unicode="&#x101;" horiz-adv-x="629" 
d="M121 671v27h363v-27h-363zM504 143q-27 -69 -86 -111.5t-137 -42.5q-53 0 -96.5 20.5t-74.5 55.5t-48 82.5t-17 101.5t17 101.5t48 82.5t74.5 55.5t96.5 20.5q78 0 137 -42.5t86 -111.5v145h30v-500h-30v143zM281 19q47 0 87.5 18t70.5 49t47.5 73t17.5 90t-17.5 90
t-47.5 73t-70.5 49t-87.5 18t-85 -18t-65 -49.5t-41.5 -73.5t-14.5 -89t14.5 -89t41.5 -73.5t65 -49.5t85 -18z" />
    <glyph glyph-name="Abreve" unicode="&#x102;" horiz-adv-x="644" 
d="M483 931q-64 -88 -175 -88q-109 0 -176 88l21 19q57 -80 155 -80t155 80zM289 700h36l269 -700h-34l-72 188h-360l-72 -188h-36zM476 218l-168 438l-168 -438h336z" />
    <glyph glyph-name="abreve" unicode="&#x103;" horiz-adv-x="629" 
d="M482 731q-64 -88 -175 -88q-109 0 -176 88l21 19q57 -80 155 -80t155 80zM504 143q-27 -69 -86 -111.5t-137 -42.5q-53 0 -96.5 20.5t-74.5 55.5t-48 82.5t-17 101.5t17 101.5t48 82.5t74.5 55.5t96.5 20.5q78 0 137 -42.5t86 -111.5v145h30v-500h-30v143zM281 19
q47 0 87.5 18t70.5 49t47.5 73t17.5 90t-17.5 90t-47.5 73t-70.5 49t-87.5 18t-85 -18t-65 -49.5t-41.5 -73.5t-14.5 -89t14.5 -89t41.5 -73.5t65 -49.5t85 -18z" />
    <glyph glyph-name="Aogonek" unicode="&#x104;" horiz-adv-x="644" 
d="M109 -123q-22 -63 -83 -63q-35 0 -58 21t-23 63q0 34 22 64.5t58 50.5l264 687h36l269 -700h-34l-72 188h-360l-72 -188q-82 -39 -82 -102q0 -57 52 -57q43 0 58 47zM476 218l-168 438l-168 -438h336z" />
    <glyph glyph-name="aogonek" unicode="&#x105;" horiz-adv-x="629" 
d="M504 143q-27 -69 -86 -111.5t-137 -42.5q-53 0 -96.5 20.5t-74.5 55.5t-48 82.5t-17 101.5t17 101.5t48 82.5t74.5 55.5t96.5 20.5q78 0 137 -42.5t86 -111.5v145h30v-498l3 -2q-82 -39 -82 -102q0 -57 52 -57q43 0 58 47l25 -11q-22 -63 -83 -63q-35 0 -58 21t-23 63
q0 33 21.5 63.5t56.5 50.5v131zM281 19q47 0 87.5 18t70.5 49t47.5 73t17.5 90t-17.5 90t-47.5 73t-70.5 49t-87.5 18t-85 -18t-65 -49.5t-41.5 -73.5t-14.5 -89t14.5 -89t41.5 -73.5t65 -49.5t85 -18z" />
    <glyph glyph-name="Cacute" unicode="&#x106;" horiz-adv-x="795" 
d="M557 989h45l-165 -144h-40zM50 349q0 75 28.5 140.5t77.5 114.5t114.5 77.5t140.5 28.5q50 0 97 -13.5t87.5 -37.5t73.5 -57.5t56 -74.5l-28 -15q-43 75 -118 120.5t-168 45.5q-68 0 -128 -26t-104.5 -70.5t-70.5 -104.5t-26 -128t26 -128t70.5 -104.5t104.5 -70.5
t128 -26q93 0 168 45.5t118 120.5l28 -15q-23 -41 -56 -74.5t-73.5 -57.5t-87.5 -37.5t-97 -13.5q-75 0 -140.5 28.5t-114.5 77.5t-77.5 114.5t-28.5 140.5z" />
    <glyph glyph-name="cacute" unicode="&#x107;" horiz-adv-x="579" 
d="M451 788h45l-165 -144h-40zM514 96q-35 -48 -89.5 -77t-119.5 -29q-54 0 -101.5 20.5t-82.5 55.5t-55.5 82.5t-20.5 101.5t20.5 101t55.5 82t82.5 55.5t101.5 20.5q64 0 118 -28t90 -76l-24 -17q-32 42 -79.5 67t-104.5 25q-48 0 -89.5 -18t-73 -49.5t-49.5 -73
t-18 -89.5t18 -89.5t49.5 -73t73 -49.5t89.5 -18q57 0 104.5 25t79.5 67z" />
    <glyph glyph-name="Cdotaccent" unicode="&#x10a;" horiz-adv-x="795" 
d="M407 868q-11 0 -20 8.5t-9 20.5t9 20.5t20 8.5q12 0 20.5 -8.5t8.5 -20.5t-8.5 -20.5t-20.5 -8.5zM50 349q0 75 28.5 140.5t77.5 114.5t114.5 77.5t140.5 28.5q50 0 97 -13.5t87.5 -37.5t73.5 -57.5t56 -74.5l-28 -15q-43 75 -118 120.5t-168 45.5q-68 0 -128 -26
t-104.5 -70.5t-70.5 -104.5t-26 -128t26 -128t70.5 -104.5t104.5 -70.5t128 -26q93 0 168 45.5t118 120.5l28 -15q-23 -41 -56 -74.5t-73.5 -57.5t-87.5 -37.5t-97 -13.5q-75 0 -140.5 28.5t-114.5 77.5t-77.5 114.5t-28.5 140.5z" />
    <glyph glyph-name="cdotaccent" unicode="&#x10b;" horiz-adv-x="579" 
d="M301 667q-11 0 -20 8.5t-9 20.5t9 20.5t20 8.5q12 0 20.5 -8.5t8.5 -20.5t-8.5 -20.5t-20.5 -8.5zM514 96q-35 -48 -89.5 -77t-119.5 -29q-54 0 -101.5 20.5t-82.5 55.5t-55.5 82.5t-20.5 101.5t20.5 101t55.5 82t82.5 55.5t101.5 20.5q64 0 118 -28t90 -76l-24 -17
q-32 42 -79.5 67t-104.5 25q-48 0 -89.5 -18t-73 -49.5t-49.5 -73t-18 -89.5t18 -89.5t49.5 -73t73 -49.5t89.5 -18q57 0 104.5 25t79.5 67z" />
    <glyph glyph-name="Ccaron" unicode="&#x10c;" horiz-adv-x="795" 
d="M393 836l-101 144h28l91 -120l88 120h28l-98 -144h-36zM50 349q0 75 28.5 140.5t77.5 114.5t114.5 77.5t140.5 28.5q50 0 97 -13.5t87.5 -37.5t73.5 -57.5t56 -74.5l-28 -15q-43 75 -118 120.5t-168 45.5q-68 0 -128 -26t-104.5 -70.5t-70.5 -104.5t-26 -128t26 -128
t70.5 -104.5t104.5 -70.5t128 -26q93 0 168 45.5t118 120.5l28 -15q-23 -41 -56 -74.5t-73.5 -57.5t-87.5 -37.5t-97 -13.5q-75 0 -140.5 28.5t-114.5 77.5t-77.5 114.5t-28.5 140.5z" />
    <glyph glyph-name="ccaron" unicode="&#x10d;" horiz-adv-x="579" 
d="M287 635l-101 144h28l91 -120l88 120h28l-98 -144h-36zM514 96q-35 -48 -89.5 -77t-119.5 -29q-54 0 -101.5 20.5t-82.5 55.5t-55.5 82.5t-20.5 101.5t20.5 101t55.5 82t82.5 55.5t101.5 20.5q64 0 118 -28t90 -76l-24 -17q-32 42 -79.5 67t-104.5 25q-48 0 -89.5 -18
t-73 -49.5t-49.5 -73t-18 -89.5t18 -89.5t49.5 -73t73 -49.5t89.5 -18q57 0 104.5 25t79.5 67z" />
    <glyph glyph-name="Dcaron" unicode="&#x10e;" horiz-adv-x="753" 
d="M298 826l-101 144h28l91 -120l88 120h28l-98 -144h-36zM90 700h226q75 0 140 -27t113 -74t76 -111t28 -139t-28 -138.5t-76 -110.5t-113 -73.5t-140 -26.5h-226v700zM122 670v-640h194q68 0 127.5 24.5t103.5 67t69 101t25 126.5t-25 127t-69 102t-103 67.5t-128 24.5
h-194z" />
    <glyph glyph-name="dcaron" unicode="&#x10f;" horiz-adv-x="629" 
d="M297 710l-101 144h28l91 -120l88 120h28l-98 -144h-36zM534 0h-30v143q-27 -69 -86 -111.5t-137 -42.5q-53 0 -96.5 20.5t-74.5 55.5t-48 82.5t-17 101.5t17 101.5t48 82.5t74.5 55.5t96.5 20.5q78 0 137 -42.5t86 -111.5v345h30v-700zM281 19q47 0 87.5 18t70.5 49
t47.5 73t17.5 90t-17.5 90t-47.5 73t-70.5 49t-87.5 18t-85 -18t-65 -49.5t-41.5 -73.5t-14.5 -89t14.5 -89t41.5 -73.5t65 -49.5t85 -18z" />
    <glyph glyph-name="Dcroat" unicode="&#x110;" horiz-adv-x="753" 
d="M90 333h-53v30h53v337h226q75 0 140 -27t113 -74t76 -111t28 -139t-28 -138.5t-76 -110.5t-113 -73.5t-140 -26.5h-226v333zM122 670v-307h195v-30h-195v-303h194q68 0 127.5 24.5t103.5 67t69 101t25 126.5t-25 127t-69 102t-103 67.5t-128 24.5h-194z" />
    <glyph glyph-name="dcroat" unicode="&#x111;" horiz-adv-x="629" 
d="M534 585h120v-30h-120v-555h-30v143q-27 -69 -86 -111.5t-137 -42.5q-53 0 -96.5 20.5t-74.5 55.5t-48 82.5t-17 101.5t17 101.5t48 82.5t74.5 55.5t96.5 20.5q78 0 137 -42.5t86 -111.5v200h-130v30h130v115h30v-115zM281 19q47 0 87.5 18t70.5 49t47.5 73t17.5 90
t-17.5 90t-47.5 73t-70.5 49t-87.5 18t-85 -18t-65 -49.5t-41.5 -73.5t-14.5 -89t14.5 -89t41.5 -73.5t65 -49.5t85 -18z" />
    <glyph glyph-name="Emacron" unicode="&#x112;" horiz-adv-x="539" 
d="M93 871v27h363v-27h-363zM90 700h370v-30h-338v-304h312v-30h-312v-306h342v-30h-374v700z" />
    <glyph glyph-name="emacron" unicode="&#x113;" horiz-adv-x="621" 
d="M122 682v27h363v-27h-363zM304 511q57 0 102.5 -22t78 -58.5t49.5 -84t17 -98.5v-5l-1 -5v-5h-473q1 -42 17.5 -81t47 -68.5t73 -47t94.5 -17.5q31 0 60.5 8t54.5 21.5t44.5 31.5t30.5 38l27 -16q-31 -51 -87 -82t-131 -31q-58 0 -106 19.5t-83 54.5t-54.5 82.5
t-19.5 104.5q0 55 19 102.5t53 83t82 55.5t105 20zM521 263q-11 101 -66 159.5t-151 58.5q-51 0 -93 -18.5t-72 -49t-46 -69.5t-16 -81h444z" />
    <glyph glyph-name="Edotaccent" unicode="&#x116;" horiz-adv-x="539" 
d="M274 858q-11 0 -20 8.5t-9 20.5t9 20.5t20 8.5q12 0 20.5 -8.5t8.5 -20.5t-8.5 -20.5t-20.5 -8.5zM90 700h370v-30h-338v-304h312v-30h-312v-306h342v-30h-374v700z" />
    <glyph glyph-name="edotaccent" unicode="&#x117;" horiz-adv-x="621" 
d="M303 669q-11 0 -20 8.5t-9 20.5t9 20.5t20 8.5q12 0 20.5 -8.5t8.5 -20.5t-8.5 -20.5t-20.5 -8.5zM304 511q57 0 102.5 -22t78 -58.5t49.5 -84t17 -98.5v-5l-1 -5v-5h-473q1 -42 17.5 -81t47 -68.5t73 -47t94.5 -17.5q31 0 60.5 8t54.5 21.5t44.5 31.5t30.5 38l27 -16
q-31 -51 -87 -82t-131 -31q-58 0 -106 19.5t-83 54.5t-54.5 82.5t-19.5 104.5q0 55 19 102.5t53 83t82 55.5t105 20zM521 263q-11 101 -66 159.5t-151 58.5q-51 0 -93 -18.5t-72 -49t-46 -69.5t-16 -81h444z" />
    <glyph glyph-name="Eogonek" unicode="&#x118;" horiz-adv-x="539" 
d="M90 16v684h370v-30h-338v-304h312v-30h-312v-306h342v-30h-353q-82 -39 -82 -102q0 -57 52 -57q43 0 58 47l25 -11q-22 -63 -83 -63q-35 0 -58 21t-23 63q0 35 24.5 67.5t63.5 51.5z" />
    <glyph glyph-name="eogonek" unicode="&#x119;" horiz-adv-x="621" 
d="M304 511q57 0 102.5 -22t78 -58.5t49.5 -84t17 -98.5v-5l-1 -5v-5h-473q1 -42 17.5 -81t47 -68.5t73 -47t94.5 -17.5q31 0 60.5 8t54.5 21.5t44.5 31.5t30.5 38l27 -16q-29 -48 -79.5 -78t-117.5 -34q-70 -37 -70 -96q0 -57 52 -57q43 0 58 47l25 -11q-22 -63 -83 -63
q-35 0 -58 21t-23 63q0 26 14 51t38 45q-52 4 -96 25.5t-75 56t-48.5 80t-17.5 98.5q0 55 19 102.5t53 83t82 55.5t105 20zM521 263q-11 101 -66 159.5t-151 58.5q-51 0 -93 -18.5t-72 -49t-46 -69.5t-16 -81h444z" />
    <glyph glyph-name="Ecaron" unicode="&#x11a;" horiz-adv-x="539" 
d="M260 826l-101 144h28l91 -120l88 120h28l-98 -144h-36zM90 700h370v-30h-338v-304h312v-30h-312v-306h342v-30h-374v700z" />
    <glyph glyph-name="ecaron" unicode="&#x11b;" horiz-adv-x="621" 
d="M289 637l-101 144h28l91 -120l88 120h28l-98 -144h-36zM304 511q57 0 102.5 -22t78 -58.5t49.5 -84t17 -98.5v-5l-1 -5v-5h-473q1 -42 17.5 -81t47 -68.5t73 -47t94.5 -17.5q31 0 60.5 8t54.5 21.5t44.5 31.5t30.5 38l27 -16q-31 -51 -87 -82t-131 -31q-58 0 -106 19.5
t-83 54.5t-54.5 82.5t-19.5 104.5q0 55 19 102.5t53 83t82 55.5t105 20zM521 263q-11 101 -66 159.5t-151 58.5q-51 0 -93 -18.5t-72 -49t-46 -69.5t-16 -81h444z" />
    <glyph glyph-name="Gbreve" unicode="&#x11e;" horiz-adv-x="830" 
d="M587 941q-64 -88 -175 -88q-109 0 -176 88l21 19q57 -80 155 -80t155 80zM50 349q0 75 28.5 140.5t77.5 114.5t114.5 77.5t140.5 28.5q51 0 97.5 -13.5t87 -37.5t73.5 -58t56 -75l-27 -16q-21 38 -51.5 68.5t-67.5 53t-79.5 34.5t-88.5 12q-68 0 -128 -26t-104.5 -70.5
t-70.5 -104.5t-26 -128t26 -128t70.5 -104.5t104.5 -70.5t128 -26t125.5 20t98.5 55.5t64 84.5t23 107h-320v30h352v-30q0 -61 -25.5 -115t-71.5 -95t-108.5 -65t-137.5 -24t-140.5 28.5t-114.5 77.5t-77.5 114.5t-28.5 140.5z" />
    <glyph glyph-name="gbreve" unicode="&#x11f;" horiz-adv-x="634" 
d="M486 731q-64 -88 -175 -88q-109 0 -176 88l21 19q57 -80 155 -80t155 80zM509 143q-27 -69 -86 -111.5t-137 -42.5q-53 0 -96.5 20.5t-74.5 55.5t-48 82.5t-17 101.5t17 101.5t48 82.5t74.5 55.5t96.5 20.5q78 0 137 -42.5t86 -111.5v145h30v-476q0 -56 -19.5 -100
t-53 -74t-79 -45.5t-97.5 -15.5q-88 0 -148.5 32.5t-87.5 87.5l26 15q10 -20 27 -39t42.5 -34t60.5 -24.5t80 -9.5q47 0 87 14.5t69.5 41.5t46 65.5t16.5 85.5v119zM286 19q47 0 87.5 18t70.5 49t47.5 73t17.5 90t-17.5 90t-47.5 73t-70.5 49t-87.5 18t-85 -18t-65 -49.5
t-41.5 -73.5t-14.5 -89t14.5 -89t41.5 -73.5t65 -49.5t85 -18z" />
    <glyph glyph-name="Gdotaccent" unicode="&#x120;" horiz-adv-x="830" 
d="M407 868q-11 0 -20 8.5t-9 20.5t9 20.5t20 8.5q12 0 20.5 -8.5t8.5 -20.5t-8.5 -20.5t-20.5 -8.5zM50 349q0 75 28.5 140.5t77.5 114.5t114.5 77.5t140.5 28.5q51 0 97.5 -13.5t87 -37.5t73.5 -58t56 -75l-27 -16q-21 38 -51.5 68.5t-67.5 53t-79.5 34.5t-88.5 12
q-68 0 -128 -26t-104.5 -70.5t-70.5 -104.5t-26 -128t26 -128t70.5 -104.5t104.5 -70.5t128 -26t125.5 20t98.5 55.5t64 84.5t23 107h-320v30h352v-30q0 -61 -25.5 -115t-71.5 -95t-108.5 -65t-137.5 -24t-140.5 28.5t-114.5 77.5t-77.5 114.5t-28.5 140.5z" />
    <glyph glyph-name="gdotaccent" unicode="&#x121;" horiz-adv-x="634" 
d="M306 658q-11 0 -20 8.5t-9 20.5t9 20.5t20 8.5q12 0 20.5 -8.5t8.5 -20.5t-8.5 -20.5t-20.5 -8.5zM509 143q-27 -69 -86 -111.5t-137 -42.5q-53 0 -96.5 20.5t-74.5 55.5t-48 82.5t-17 101.5t17 101.5t48 82.5t74.5 55.5t96.5 20.5q78 0 137 -42.5t86 -111.5v145h30v-476
q0 -56 -19.5 -100t-53 -74t-79 -45.5t-97.5 -15.5q-88 0 -148.5 32.5t-87.5 87.5l26 15q10 -20 27 -39t42.5 -34t60.5 -24.5t80 -9.5q47 0 87 14.5t69.5 41.5t46 65.5t16.5 85.5v119zM286 19q47 0 87.5 18t70.5 49t47.5 73t17.5 90t-17.5 90t-47.5 73t-70.5 49t-87.5 18
t-85 -18t-65 -49.5t-41.5 -73.5t-14.5 -89t14.5 -89t41.5 -73.5t65 -49.5t85 -18z" />
    <glyph glyph-name="uni0122" unicode="&#x122;" horiz-adv-x="830" 
d="M50 349q0 75 28.5 140.5t77.5 114.5t114.5 77.5t140.5 28.5q51 0 97.5 -13.5t87 -37.5t73.5 -58t56 -75l-27 -16q-21 38 -51.5 68.5t-67.5 53t-79.5 34.5t-88.5 12q-68 0 -128 -26t-104.5 -70.5t-70.5 -104.5t-26 -128t26 -128t70.5 -104.5t104.5 -70.5t128 -26t125.5 20
t98.5 55.5t64 84.5t23 107h-320v30h352v-30q0 -61 -25.5 -115t-71.5 -95t-108.5 -65t-137.5 -24t-140.5 28.5t-114.5 77.5t-77.5 114.5t-28.5 140.5zM385 -118h61v-62l-51 -103l-21 17l39 86h-28v62z" />
    <glyph glyph-name="uni0123" unicode="&#x123;" horiz-adv-x="634" 
d="M163 631h-61v62l51 103l21 -17l-39 -86h28v-62zM509 143q-27 -69 -86 -111.5t-137 -42.5q-53 0 -96.5 20.5t-74.5 55.5t-48 82.5t-17 101.5t17 101.5t48 82.5t74.5 55.5t96.5 20.5q78 0 137 -42.5t86 -111.5v145h30v-476q0 -56 -19.5 -100t-53 -74t-79 -45.5t-97.5 -15.5
q-88 0 -148.5 32.5t-87.5 87.5l26 15q10 -20 27 -39t42.5 -34t60.5 -24.5t80 -9.5q47 0 87 14.5t69.5 41.5t46 65.5t16.5 85.5v119zM286 19q47 0 87.5 18t70.5 49t47.5 73t17.5 90t-17.5 90t-47.5 73t-70.5 49t-87.5 18t-85 -18t-65 -49.5t-41.5 -73.5t-14.5 -89t14.5 -89
t41.5 -73.5t65 -49.5t85 -18z" />
    <glyph glyph-name="Hbar" unicode="&#x126;" horiz-adv-x="701" 
d="M90 507h-58v30h58v163h32v-163h427v163h32v-163h48v-30h-48v-507h-32v344h-427v-344h-32v507zM549 374v133h-427v-133h427z" />
    <glyph glyph-name="hbar" unicode="&#x127;" horiz-adv-x="563" 
d="M65 567h-121v30h121v103h30v-103h129v-30h-129v-147q22 36 65 63t101 27q27 0 62.5 -8t68 -31.5t54.5 -64.5t22 -107v-299h-30v299q0 55 -17.5 90t-43.5 55.5t-57.5 28t-58.5 7.5q-22 0 -46.5 -5.5t-48 -20t-42.5 -39t-29 -62.5v-353h-30v567z" />
    <glyph glyph-name="Imacron" unicode="&#x12a;" horiz-adv-x="242" 
d="M-78 871v27h363v-27h-363zM90 700h32v-700h-32v700z" />
    <glyph glyph-name="imacron" unicode="&#x12b;" horiz-adv-x="210" 
d="M-97 671v27h363v-27h-363zM74 500h30v-500h-30v500z" />
    <glyph glyph-name="Iogonek" unicode="&#x12e;" horiz-adv-x="242" 
d="M90 16v684h32v-700h-11q-82 -39 -82 -102q0 -57 52 -57q43 0 58 47l25 -11q-22 -63 -83 -63q-35 0 -58 21t-23 63q0 35 24.5 67.5t63.5 51.5z" />
    <glyph glyph-name="iogonek" unicode="&#x12f;" horiz-adv-x="210" 
d="M84 658q-11 0 -20 8.5t-9 20.5t9 20.5t20 8.5q12 0 20.5 -8.5t8.5 -20.5t-8.5 -20.5t-20.5 -8.5zM164 -123q-22 -63 -83 -63q-35 0 -58 21t-23 63q0 32 20.5 62t53.5 50v490h30v-495l7 -5q-82 -39 -82 -102q0 -57 52 -57q43 0 58 47z" />
    <glyph glyph-name="Idotaccent" unicode="&#x130;" horiz-adv-x="242" 
d="M103 858q-11 0 -20 8.5t-9 20.5t9 20.5t20 8.5q12 0 20.5 -8.5t8.5 -20.5t-8.5 -20.5t-20.5 -8.5zM90 700h32v-700h-32v700z" />
    <glyph glyph-name="dotlessi" unicode="&#x131;" horiz-adv-x="210" 
d="M74 500h30v-500h-30v500z" />
    <glyph glyph-name="uni0136" unicode="&#x136;" horiz-adv-x="597" 
d="M516 0l-319 357l-75 -72v-285h-32v700h32v-371l386 371h46l-334 -321l337 -377zM277 -106h61v-62l-51 -103l-21 17l39 86h-28v62z" />
    <glyph glyph-name="uni0137" unicode="&#x137;" horiz-adv-x="498" 
d="M65 700h30v-518l297 318h41l-213 -229l223 -271h-41l-203 249l-104 -113v-136h-30v700zM74 -106h61v-62l-51 -103l-21 17l39 86h-28v62z" />
    <glyph glyph-name="Lacute" unicode="&#x139;" horiz-adv-x="530" 
d="M253 979h45l-165 -144h-40zM90 700h32v-670h353v-30h-385v700z" />
    <glyph glyph-name="lacute" unicode="&#x13a;" horiz-adv-x="217" 
d="M227 979h45l-165 -144h-40zM157 0q-7 -2 -15.5 -3t-19.5 -1q-10 0 -20 2.5t-18.5 8.5t-13.5 17.5t-5 29.5v646h30v-646q0 -17 7.5 -23t20.5 -6q15 0 34 3v-28z" />
    <glyph glyph-name="uni013B" unicode="&#x13b;" horiz-adv-x="530" 
d="M90 700h32v-670h353v-30h-385v700zM271 -106h61v-62l-51 -103l-21 17l39 86h-28v62z" />
    <glyph glyph-name="uni013C" unicode="&#x13c;" horiz-adv-x="217" 
d="M157 0q-7 -2 -15.5 -3t-19.5 -1q-10 0 -20 2.5t-18.5 8.5t-13.5 17.5t-5 29.5v646h30v-646q0 -17 7.5 -23t20.5 -6q15 0 34 3v-28zM88 -106h61v-62l-51 -103l-21 17l39 86h-28v62z" />
    <glyph glyph-name="Lcaron" unicode="&#x13d;" horiz-adv-x="530" 
d="M89 826l-101 144h28l91 -120l88 120h28l-98 -144h-36zM90 700h32v-670h353v-30h-385v700z" />
    <glyph glyph-name="lcaron" unicode="&#x13e;" horiz-adv-x="217" 
d="M63 826l-101 144h28l91 -120l88 120h28l-98 -144h-36zM157 0q-7 -2 -15.5 -3t-19.5 -1q-10 0 -20 2.5t-18.5 8.5t-13.5 17.5t-5 29.5v646h30v-646q0 -17 7.5 -23t20.5 -6q15 0 34 3v-28z" />
    <glyph glyph-name="Lslash" unicode="&#x141;" horiz-adv-x="530" 
d="M90 279l-79 -94l-26 22l105 125v368h32v-330l119 142l26 -22l-145 -173v-287h353v-30h-385v279z" />
    <glyph glyph-name="lslash" unicode="&#x142;" horiz-adv-x="217" 
d="M157 0q-7 -2 -15.5 -3t-19.5 -1q-10 0 -20 2.5t-18.5 8.5t-13.5 17.5t-5 29.5v284l-103 -123l-26 22l129 154v309h30v-274l97 116l26 -22l-123 -147v-319q0 -17 7.5 -23t20.5 -6q15 0 34 3v-28z" />
    <glyph glyph-name="Nacute" unicode="&#x143;" horiz-adv-x="700" 
d="M486 979h45l-165 -144h-40zM123 700l425 -644v644h32v-700h-33l-425 651v-651h-32v700h33z" />
    <glyph glyph-name="nacute" unicode="&#x144;" horiz-adv-x="572" 
d="M422 779h45l-165 -144h-40zM477 0h-30v299q0 55 -17.5 90t-43.5 55.5t-57.5 28t-58.5 7.5q-26 0 -56.5 -8.5t-57 -31t-44 -61.5t-17.5 -101v-278h-30v500h30v-98q9 21 25 40.5t38.5 34.5t51 24t60.5 9q27 0 62.5 -8t68 -31.5t54.5 -64.5t22 -107v-299z" />
    <glyph glyph-name="uni0145" unicode="&#x145;" horiz-adv-x="700" 
d="M123 700l425 -644v644h32v-700h-33l-425 651v-651h-32v700h33zM318 -106h61v-62l-51 -103l-21 17l39 86h-28v62z" />
    <glyph glyph-name="uni0146" unicode="&#x146;" horiz-adv-x="572" 
d="M477 0h-30v299q0 55 -17.5 90t-43.5 55.5t-57.5 28t-58.5 7.5q-26 0 -56.5 -8.5t-57 -31t-44 -61.5t-17.5 -101v-278h-30v500h30v-98q9 21 25 40.5t38.5 34.5t51 24t60.5 9q27 0 62.5 -8t68 -31.5t54.5 -64.5t22 -107v-299zM242 -106h61v-62l-51 -103l-21 17l39 86h-28
v62z" />
    <glyph glyph-name="Ncaron" unicode="&#x147;" horiz-adv-x="700" 
d="M322 826l-101 144h28l91 -120l88 120h28l-98 -144h-36zM123 700l425 -644v644h32v-700h-33l-425 651v-651h-32v700h33z" />
    <glyph glyph-name="ncaron" unicode="&#x148;" horiz-adv-x="572" 
d="M258 626l-101 144h28l91 -120l88 120h28l-98 -144h-36zM477 0h-30v299q0 55 -17.5 90t-43.5 55.5t-57.5 28t-58.5 7.5q-26 0 -56.5 -8.5t-57 -31t-44 -61.5t-17.5 -101v-278h-30v500h30v-98q9 21 25 40.5t38.5 34.5t51 24t60.5 9q27 0 62.5 -8t68 -31.5t54.5 -64.5
t22 -107v-299z" />
    <glyph glyph-name="Eng" unicode="&#x14a;" horiz-adv-x="700" 
d="M123 700l425 -644v644h32v-700h-1v-26q0 -80 -42.5 -121t-123.5 -33v28q72 -8 104 25.5t32 100.5v26h-2l-425 651v-651h-32v700h33z" />
    <glyph glyph-name="eng" unicode="&#x14b;" horiz-adv-x="572" 
d="M447 299q0 55 -17.5 90t-43.5 55.5t-57.5 28t-58.5 7.5q-26 0 -56.5 -8.5t-57 -31t-44 -61.5t-17.5 -101v-278h-30v500h30v-98q9 21 25 40.5t38.5 34.5t51 24t60.5 9q27 0 62.5 -8t68 -31.5t54.5 -64.5t22 -107v-354q0 -80 -42.5 -121t-123.5 -33v28q72 -8 104 25.5
t32 100.5v354z" />
    <glyph glyph-name="Omacron" unicode="&#x14c;" horiz-adv-x="852" 
d="M226 881v27h363v-27h-363zM411 -12q-75 0 -140.5 28.5t-114.5 77.5t-77.5 114.5t-28.5 140.5t28.5 140.5t77.5 114.5t114.5 77.5t140.5 28.5t140.5 -28.5t114.5 -77.5t77.5 -114.5t28.5 -140.5t-28.5 -140.5t-77.5 -114.5t-114.5 -77.5t-140.5 -28.5zM411 20q68 0 128 26
t104.5 70.5t70.5 104.5t26 128t-26 128t-70.5 104.5t-104.5 70.5t-128 26t-128 -26t-104.5 -70.5t-70.5 -104.5t-26 -128t26 -128t70.5 -104.5t104.5 -70.5t128 -26z" />
    <glyph glyph-name="omacron" unicode="&#x14d;" horiz-adv-x="639" 
d="M120 680v27h363v-27h-363zM305 -10q-54 0 -101.5 20.5t-82.5 55.5t-55.5 82.5t-20.5 101.5t20.5 101t55.5 82t82.5 55.5t101.5 20.5t101 -20.5t82 -55.5t55.5 -82t20.5 -101t-20.5 -101.5t-55.5 -82.5t-82 -55.5t-101 -20.5zM304 20q48 0 89.5 18t73 49.5t49.5 73
t18 89.5t-18 89.5t-49.5 73t-73 49.5t-89.5 18t-89.5 -18t-73 -49.5t-49.5 -73t-18 -89.5t18 -89.5t49.5 -73t73 -49.5t89.5 -18z" />
    <glyph glyph-name="Ohungarumlaut" unicode="&#x150;" horiz-adv-x="852" 
d="M421 989h41l-115 -144h-26zM557 989h41l-115 -144h-26zM411 -12q-75 0 -140.5 28.5t-114.5 77.5t-77.5 114.5t-28.5 140.5t28.5 140.5t77.5 114.5t114.5 77.5t140.5 28.5t140.5 -28.5t114.5 -77.5t77.5 -114.5t28.5 -140.5t-28.5 -140.5t-77.5 -114.5t-114.5 -77.5
t-140.5 -28.5zM411 20q68 0 128 26t104.5 70.5t70.5 104.5t26 128t-26 128t-70.5 104.5t-104.5 70.5t-128 26t-128 -26t-104.5 -70.5t-70.5 -104.5t-26 -128t26 -128t70.5 -104.5t104.5 -70.5t128 -26z" />
    <glyph glyph-name="ohungarumlaut" unicode="&#x151;" horiz-adv-x="639" 
d="M315 788h41l-115 -144h-26zM451 788h41l-115 -144h-26zM305 -10q-54 0 -101.5 20.5t-82.5 55.5t-55.5 82.5t-20.5 101.5t20.5 101t55.5 82t82.5 55.5t101.5 20.5t101 -20.5t82 -55.5t55.5 -82t20.5 -101t-20.5 -101.5t-55.5 -82.5t-82 -55.5t-101 -20.5zM304 20
q48 0 89.5 18t73 49.5t49.5 73t18 89.5t-18 89.5t-49.5 73t-73 49.5t-89.5 18t-89.5 -18t-73 -49.5t-49.5 -73t-18 -89.5t18 -89.5t49.5 -73t73 -49.5t89.5 -18z" />
    <glyph glyph-name="OE" unicode="&#x152;" horiz-adv-x="1133" 
d="M381 -12q-75 0 -136 28.5t-104.5 77.5t-67 114.5t-23.5 140.5t23.5 140.5t67 114.5t104.5 77.5t136 28.5q54 0 101.5 -15.5t86 -43t68 -66t47.5 -84.5v199h370v-30h-338v-304h312v-30h-312v-306h342v-30h-374v197q-18 -46 -47.5 -84.5t-68 -66t-86 -43t-101.5 -15.5z
M381 20q68 0 123.5 26t94.5 70.5t60 104.5t21 128t-21 128t-60 104.5t-94.5 70.5t-123.5 26t-123.5 -26t-94.5 -70.5t-60 -104.5t-21 -128t21 -128t60 -104.5t94.5 -70.5t123.5 -26z" />
    <glyph glyph-name="oe" unicode="&#x153;" horiz-adv-x="1012" 
d="M725 511q57 0 98 -22t67.5 -58.5t39 -84t12.5 -98.5v-5l-1 -5v-5h-413q1 -42 13 -81t36.5 -68.5t62.5 -47t90 -17.5q31 0 55.5 8t44 21.5t34.5 31.5t26 38l27 -16q-15 -25 -32.5 -46t-39.5 -36t-50.5 -23t-65.5 -8q-91 0 -146 45.5t-75 121.5q-13 -37 -34.5 -67.5
t-51 -52.5t-65 -34.5t-76.5 -12.5q-53 0 -96.5 20.5t-74.5 55.5t-48 82.5t-17 101.5t17 101.5t48 82.5t74.5 55.5t96.5 20.5q41 0 76.5 -12.5t65 -34.5t51 -52.5t34.5 -66.5q10 37 28.5 68t45.5 53t62.5 34.5t80.5 12.5zM912 263q-5 50 -17 90.5t-34 69t-55 43.5t-81 15
q-51 0 -88.5 -18.5t-61.5 -49t-35.5 -69.5t-11.5 -81h384zM281 19q47 0 86.5 18t68 49t44.5 73t16 90t-16 90t-44.5 73t-68 49t-86.5 18t-85 -18t-65 -49.5t-41.5 -73.5t-14.5 -89t14.5 -89t41.5 -73.5t65 -49.5t85 -18z" />
    <glyph glyph-name="Racute" unicode="&#x154;" horiz-adv-x="627" 
d="M438 979h45l-165 -144h-40zM122 284v-284h-32v700h253q43 0 81 -16.5t66 -44.5t44.5 -66t16.5 -81q0 -35 -11 -67t-30.5 -58t-47 -45t-59.5 -29l169 -293h-36l-166 286q-7 -1 -13.5 -1.5t-13.5 -0.5h-221zM343 316q36 0 68 14t56 38t38 56t14 68t-14 68t-38 56t-56 38
t-68 14h-221v-352h221z" />
    <glyph glyph-name="racute" unicode="&#x155;" horiz-adv-x="328" 
d="M307 779h45l-165 -144h-40zM268 469q-5 1 -15 1q-28 0 -57 -7t-52.5 -26t-38.5 -51.5t-15 -82.5v-303h-30v500h30v-94q16 39 58 66.5t105 27.5h10t10 -1z" />
    <glyph glyph-name="uni0156" unicode="&#x156;" horiz-adv-x="627" 
d="M122 284v-284h-32v700h253q43 0 81 -16.5t66 -44.5t44.5 -66t16.5 -81q0 -35 -11 -67t-30.5 -58t-47 -45t-59.5 -29l169 -293h-36l-166 286q-7 -1 -13.5 -1.5t-13.5 -0.5h-221zM343 316q36 0 68 14t56 38t38 56t14 68t-14 68t-38 56t-56 38t-68 14h-221v-352h221z
M291 -106h61v-62l-51 -103l-21 17l39 86h-28v62z" />
    <glyph glyph-name="uni0157" unicode="&#x157;" horiz-adv-x="328" 
d="M268 469q-5 1 -15 1q-28 0 -57 -7t-52.5 -26t-38.5 -51.5t-15 -82.5v-303h-30v500h30v-94q16 39 58 66.5t105 27.5h10t10 -1zM50 -106h61v-62l-51 -103l-21 17l39 86h-28v62z" />
    <glyph glyph-name="Rcaron" unicode="&#x158;" horiz-adv-x="627" 
d="M274 826l-101 144h28l91 -120l88 120h28l-98 -144h-36zM122 284v-284h-32v700h253q43 0 81 -16.5t66 -44.5t44.5 -66t16.5 -81q0 -35 -11 -67t-30.5 -58t-47 -45t-59.5 -29l169 -293h-36l-166 286q-7 -1 -13.5 -1.5t-13.5 -0.5h-221zM343 316q36 0 68 14t56 38t38 56
t14 68t-14 68t-38 56t-56 38t-68 14h-221v-352h221z" />
    <glyph glyph-name="rcaron" unicode="&#x159;" horiz-adv-x="328" 
d="M143 626l-101 144h28l91 -120l88 120h28l-98 -144h-36zM268 469q-5 1 -15 1q-28 0 -57 -7t-52.5 -26t-38.5 -51.5t-15 -82.5v-303h-30v500h30v-94q16 39 58 66.5t105 27.5h10t10 -1z" />
    <glyph glyph-name="Sacute" unicode="&#x15a;" horiz-adv-x="606" 
d="M432 990h45l-165 -144h-40zM301 -11q-99 0 -165.5 45t-90.5 120l29 17q10 -31 29.5 -59t48 -48t66 -32t83.5 -12q52 0 89.5 14t61.5 36.5t35.5 51.5t11.5 59q0 32 -16.5 56t-44.5 42.5t-65 33t-77 27.5q-44 14 -84 27.5t-71 32.5t-49 48t-18 75q0 43 16.5 78t45 59.5
t67 37.5t83.5 13q43 0 79 -11.5t64 -31.5t48.5 -47t33.5 -57l-28 -13q-22 56 -72 92.5t-125 36.5q-45 0 -79 -13.5t-56.5 -35.5t-33.5 -50t-11 -57q0 -36 16 -59.5t43 -40t62 -28.5t72 -24q47 -15 89 -30t73.5 -35.5t50.5 -50.5t19 -75q0 -43 -16.5 -78.5t-46.5 -61
t-72.5 -39t-94.5 -13.5z" />
    <glyph glyph-name="sacute" unicode="&#x15b;" horiz-adv-x="489" 
d="M377 790h45l-165 -144h-40zM91 369q0 -33 24 -51t60 -29.5t77.5 -20.5t77.5 -24.5t60 -41.5t24 -71q0 -31 -13 -57t-36.5 -45t-56.5 -29.5t-73 -10.5q-75 0 -123.5 31.5t-66.5 79.5l27 15q19 -50 62.5 -73t100.5 -23q29 0 56 7.5t47.5 21.5t33 35t12.5 48q0 38 -24 58
t-60 32.5t-77.5 21t-77.5 22.5t-60 37.5t-24 66.5q0 30 12 55.5t34.5 45t54 30.5t69.5 11q61 0 105.5 -27t64.5 -73l-26 -14q-16 39 -53.5 61.5t-90.5 22.5q-66 0 -103 -30.5t-37 -81.5z" />
    <glyph glyph-name="Scedilla" unicode="&#x15e;" horiz-adv-x="606" 
d="M298 -198q-59 0 -93 28l14 27q31 -28 79 -28q29 0 49 13.5t20 35.5q0 43 -44 43q-27 0 -43 -19l-22 13l27 74q-93 4 -155 48.5t-85 116.5l29 17q10 -31 29.5 -59t48 -48t66 -32t83.5 -12q52 0 89.5 14t61.5 36.5t35.5 51.5t11.5 59q0 32 -16.5 56t-44.5 42.5t-65 33
t-77 27.5q-44 14 -84 27.5t-71 32.5t-49 48t-18 75q0 43 16.5 78t45 59.5t67 37.5t83.5 13q43 0 79 -11.5t64 -31.5t48.5 -47t33.5 -57l-28 -13q-22 56 -72 92.5t-125 36.5q-45 0 -79 -13.5t-56.5 -35.5t-33.5 -50t-11 -57q0 -36 16 -59.5t43 -40t62 -28.5t72 -24
q47 -15 89 -30t73.5 -35.5t50.5 -50.5t19 -75q0 -42 -15.5 -76.5t-43.5 -59.5t-68 -39.5t-89 -16.5l-22 -58q15 12 38 12q29 0 47 -17.5t18 -47.5q0 -33 -28 -54.5t-70 -21.5z" />
    <glyph glyph-name="scedilla" unicode="&#x15f;" horiz-adv-x="489" 
d="M91 369q0 -33 24 -51t60 -29.5t77.5 -20.5t77.5 -24.5t60 -41.5t24 -71q0 -29 -12 -54.5t-33.5 -44t-52 -30t-67.5 -13.5l-22 -58q15 12 38 12q29 0 47 -17.5t18 -47.5q0 -33 -28 -54.5t-70 -21.5q-59 0 -93 28l14 27q31 -28 79 -28q29 0 49 13.5t20 35.5q0 43 -44 43
q-27 0 -43 -19l-22 13l27 74q-69 4 -113 34.5t-61 76.5l27 15q19 -50 62.5 -73t100.5 -23q29 0 56 7.5t47.5 21.5t33 35t12.5 48q0 38 -24 58t-60 32.5t-77.5 21t-77.5 22.5t-60 37.5t-24 66.5q0 30 12 55.5t34.5 45t54 30.5t69.5 11q61 0 105.5 -27t64.5 -73l-26 -14
q-16 39 -53.5 61.5t-90.5 22.5q-66 0 -103 -30.5t-37 -81.5z" />
    <glyph glyph-name="Scaron" unicode="&#x160;" horiz-adv-x="606" 
d="M268 837l-101 144h28l91 -120l88 120h28l-98 -144h-36zM301 -11q-99 0 -165.5 45t-90.5 120l29 17q10 -31 29.5 -59t48 -48t66 -32t83.5 -12q52 0 89.5 14t61.5 36.5t35.5 51.5t11.5 59q0 32 -16.5 56t-44.5 42.5t-65 33t-77 27.5q-44 14 -84 27.5t-71 32.5t-49 48
t-18 75q0 43 16.5 78t45 59.5t67 37.5t83.5 13q43 0 79 -11.5t64 -31.5t48.5 -47t33.5 -57l-28 -13q-22 56 -72 92.5t-125 36.5q-45 0 -79 -13.5t-56.5 -35.5t-33.5 -50t-11 -57q0 -36 16 -59.5t43 -40t62 -28.5t72 -24q47 -15 89 -30t73.5 -35.5t50.5 -50.5t19 -75
q0 -43 -16.5 -78.5t-46.5 -61t-72.5 -39t-94.5 -13.5z" />
    <glyph glyph-name="scaron" unicode="&#x161;" horiz-adv-x="489" 
d="M213 637l-101 144h28l91 -120l88 120h28l-98 -144h-36zM91 369q0 -33 24 -51t60 -29.5t77.5 -20.5t77.5 -24.5t60 -41.5t24 -71q0 -31 -13 -57t-36.5 -45t-56.5 -29.5t-73 -10.5q-75 0 -123.5 31.5t-66.5 79.5l27 15q19 -50 62.5 -73t100.5 -23q29 0 56 7.5t47.5 21.5
t33 35t12.5 48q0 38 -24 58t-60 32.5t-77.5 21t-77.5 22.5t-60 37.5t-24 66.5q0 30 12 55.5t34.5 45t54 30.5t69.5 11q61 0 105.5 -27t64.5 -73l-26 -14q-16 39 -53.5 61.5t-90.5 22.5q-66 0 -103 -30.5t-37 -81.5z" />
    <glyph glyph-name="uni0162" unicode="&#x162;" horiz-adv-x="572" 
d="M265 -187q-59 0 -93 28l14 27q31 -28 79 -28q29 0 49 13.5t20 35.5q0 43 -44 43q-27 0 -43 -19l-22 13l30 82v662h-230v30h492v-30h-230v-670h-5l-22 -58q15 12 38 12q29 0 47 -17.5t18 -47.5q0 -33 -28 -54.5t-70 -21.5z" />
    <glyph glyph-name="uni0163" unicode="&#x163;" horiz-adv-x="406" 
d="M331 0q-17 -2 -32 -3.5t-29 -1.5l-20 -53q15 12 38 12q29 0 47 -17.5t18 -47.5q0 -33 -28 -54.5t-70 -21.5q-59 0 -93 28l14 27q31 -28 79 -28q29 0 49 13.5t20 35.5q0 43 -44 43q-27 0 -43 -19l-22 13l26 71q-42 7 -62 38t-20 99v336h-134v30h134v157l30 13v-170h140
v-30h-140v-336q0 -32 4.5 -53.5t15 -34t26.5 -17.5t39 -5q12 0 26 1t31 3v-28z" />
    <glyph glyph-name="Tcaron" unicode="&#x164;" horiz-adv-x="572" 
d="M255 826l-101 144h28l91 -120l88 120h28l-98 -144h-36zM255 670h-230v30h492v-30h-230v-670h-32v670z" />
    <glyph glyph-name="tcaron" unicode="&#x165;" horiz-adv-x="406" 
d="M154 774l-101 144h28l91 -120l88 120h28l-98 -144h-36zM331 0q-17 -2 -31.5 -3.5t-28.5 -1.5q-57 0 -84.5 30t-27.5 109v336h-134v30h134v157l30 13v-170h140v-30h-140v-336q0 -32 4.5 -53.5t15 -34t26.5 -17.5t39 -5q12 0 26 1t31 3v-28z" />
    <glyph glyph-name="Tbar" unicode="&#x166;" horiz-adv-x="572" 
d="M255 312h-128v30h128v328h-230v30h492v-30h-230v-328h120v-30h-120v-312h-32v312z" />
    <glyph glyph-name="tbar" unicode="&#x167;" horiz-adv-x="406" 
d="M331 0q-17 -2 -31.5 -3.5t-28.5 -1.5q-57 0 -84.5 30t-27.5 109v192h-125v30h125v114h-134v30h134v157l30 13v-170h140v-30h-140v-114h125v-30h-125v-192q0 -32 4.5 -53.5t15 -34t26.5 -17.5t39 -5q12 0 26 1t31 3v-28z" />
    <glyph glyph-name="Umacron" unicode="&#x16a;" horiz-adv-x="682" 
d="M140 871v27h363v-27h-363zM80 700h32v-463q0 -47 13.5 -87t40 -68.5t66.5 -44.5t93 -16q54 0 94 16t67 44.5t40.5 68.5t13.5 87v463h32v-463q0 -55 -17 -101t-49 -78.5t-77.5 -50.5t-103.5 -18t-103.5 18t-77 50.5t-48 78.5t-16.5 101v463z" />
    <glyph glyph-name="umacron" unicode="&#x16b;" horiz-adv-x="567" 
d="M92 671v27h363v-27h-363zM65 500h30v-299q0 -55 17.5 -90t43.5 -55t57.5 -28t58.5 -8q26 0 57 8.5t57 31t43.5 62t17.5 100.5v278h30v-500h-30v98q-9 -21 -25 -40.5t-38.5 -34.5t-51 -24t-60.5 -9q-27 0 -62.5 8t-68 31.5t-54.5 64.5t-22 107v299z" />
    <glyph glyph-name="Uring" unicode="&#x16e;" horiz-adv-x="682" 
d="M325 807q-19 0 -36 7.5t-29.5 20t-20 29.5t-7.5 36t7.5 36t20 29.5t29.5 20t36 7.5t36 -7.5t29.5 -20t19.5 -29.5t7 -36t-7 -35.5t-19.5 -29.5t-29 -20.5t-36.5 -7.5zM325 831q28 0 48 20t20 49t-20 49t-48 20q-29 0 -49 -20.5t-20 -48.5t20 -48.5t49 -20.5zM80 700h32
v-463q0 -47 13.5 -87t40 -68.5t66.5 -44.5t93 -16q54 0 94 16t67 44.5t40.5 68.5t13.5 87v463h32v-463q0 -55 -17 -101t-49 -78.5t-77.5 -50.5t-103.5 -18t-103.5 18t-77 50.5t-48 78.5t-16.5 101v463z" />
    <glyph glyph-name="uring" unicode="&#x16f;" horiz-adv-x="567" 
d="M277 607q-19 0 -36 7.5t-29.5 20t-20 29.5t-7.5 36t7.5 36t20 29.5t29.5 20t36 7.5t36 -7.5t29.5 -20t19.5 -29.5t7 -36t-7 -35.5t-19.5 -29.5t-29 -20.5t-36.5 -7.5zM277 631q28 0 48 20t20 49t-20 49t-48 20q-29 0 -49 -20.5t-20 -48.5t20 -48.5t49 -20.5zM65 500h30
v-299q0 -55 17.5 -90t43.5 -55t57.5 -28t58.5 -8q26 0 57 8.5t57 31t43.5 62t17.5 100.5v278h30v-500h-30v98q-9 -21 -25 -40.5t-38.5 -34.5t-51 -24t-60.5 -9q-27 0 -62.5 8t-68 31.5t-54.5 64.5t-22 107v299z" />
    <glyph glyph-name="Uhungarumlaut" unicode="&#x170;" horiz-adv-x="682" 
d="M335 979h41l-115 -144h-26zM471 979h41l-115 -144h-26zM80 700h32v-463q0 -47 13.5 -87t40 -68.5t66.5 -44.5t93 -16q54 0 94 16t67 44.5t40.5 68.5t13.5 87v463h32v-463q0 -55 -17 -101t-49 -78.5t-77.5 -50.5t-103.5 -18t-103.5 18t-77 50.5t-48 78.5t-16.5 101v463z
" />
    <glyph glyph-name="uhungarumlaut" unicode="&#x171;" horiz-adv-x="567" 
d="M287 779h41l-115 -144h-26zM423 779h41l-115 -144h-26zM65 500h30v-299q0 -55 17.5 -90t43.5 -55t57.5 -28t58.5 -8q26 0 57 8.5t57 31t43.5 62t17.5 100.5v278h30v-500h-30v98q-9 -21 -25 -40.5t-38.5 -34.5t-51 -24t-60.5 -9q-27 0 -62.5 8t-68 31.5t-54.5 64.5
t-22 107v299z" />
    <glyph glyph-name="Uogonek" unicode="&#x172;" horiz-adv-x="682" 
d="M80 700h32v-463q0 -47 13.5 -87t40 -68.5t66.5 -44.5t93 -16q54 0 94 16t67 44.5t40.5 68.5t13.5 87v463h32v-463q0 -106 -58.5 -172.5t-164.5 -74.5q-70 -37 -70 -96q0 -57 52 -57q43 0 58 47l25 -11q-22 -63 -83 -63q-35 0 -58 21t-23 63q0 26 14 51t38 45
q-106 8 -164 74.5t-58 172.5v463z" />
    <glyph glyph-name="uogonek" unicode="&#x173;" horiz-adv-x="567" 
d="M65 500h30v-299q0 -55 17.5 -90t43.5 -55t57.5 -28t58.5 -8q26 0 57 8.5t57 31t43.5 62t17.5 100.5v278h30v-500h-30v98q-16 -38 -55 -68.5t-94 -37.5q-66 -38 -66 -94q0 -57 52 -57q43 0 58 47l25 -11q-22 -63 -83 -63q-35 0 -58 21t-23 63q0 26 12.5 49.5t35.5 43.5
q-28 2 -60.5 12.5t-60.5 34.5t-46.5 63.5t-18.5 99.5v299z" />
    <glyph glyph-name="Wcircumflex" unicode="&#x174;" horiz-adv-x="981" 
d="M568 836l-91 120l-88 -120h-28l98 144h36l101 -144h-28zM35 700h33l189 -658l200 658h37l200 -658l189 658h33l-201 -700h-41l-198 649l-199 -649h-41z" />
    <glyph glyph-name="wcircumflex" unicode="&#x175;" horiz-adv-x="779" 
d="M459 636l-91 120l-88 -120h-28l98 144h36l101 -144h-28zM33 500h31l140 -464l146 464h36l150 -458l148 458h32l-162 -500h-37l-149 457l-147 -457h-35z" />
    <glyph glyph-name="Ycircumflex" unicode="&#x176;" horiz-adv-x="598" 
d="M377 836l-91 120l-88 -120h-28l98 144h36l101 -144h-28zM268 287l-258 413h37l237 -379l237 379h37l-258 -413v-287h-32v287z" />
    <glyph glyph-name="ycircumflex" unicode="&#x177;" horiz-adv-x="523" 
d="M353 636l-91 120l-88 -120h-28l98 144h36l101 -144h-28zM252 0l-237 500h33l219 -460l179 460h32l-211 -543q-15 -36 -35 -66t-44.5 -51t-53.5 -32t-61 -8v29q30 -2 55.5 9t46.5 31t37 46t27 53z" />
    <glyph glyph-name="Ydieresis" unicode="&#x178;" horiz-adv-x="598" 
d="M416 898q0 -11 -8.5 -19.5t-19.5 -8.5t-19.5 8.5t-8.5 19.5t8.5 19.5t19.5 8.5t19.5 -8t8.5 -20zM214 898q0 -11 -8.5 -19.5t-19.5 -8.5t-19.5 8.5t-8.5 19.5t8.5 19.5t19.5 8.5t19.5 -8t8.5 -20zM268 287l-258 413h37l237 -379l237 379h37l-258 -413v-287h-32v287z" />
    <glyph glyph-name="Zacute" unicode="&#x179;" horiz-adv-x="556" 
d="M416 979h45l-165 -144h-40zM446 670h-393v30h429v-30l-401 -640h410v-30h-446v30z" />
    <glyph glyph-name="zacute" unicode="&#x17a;" horiz-adv-x="530" 
d="M414 779h45l-165 -144h-40zM445 500v-20h-1l1 -1l-344 -449h354v-30h-400v20l345 450h-335v30h380z" />
    <glyph glyph-name="Zdotaccent" unicode="&#x17b;" horiz-adv-x="556" 
d="M266 858q-11 0 -20 8.5t-9 20.5t9 20.5t20 8.5q12 0 20.5 -8.5t8.5 -20.5t-8.5 -20.5t-20.5 -8.5zM446 670h-393v30h429v-30l-401 -640h410v-30h-446v30z" />
    <glyph glyph-name="zdotaccent" unicode="&#x17c;" horiz-adv-x="530" 
d="M264 658q-11 0 -20 8.5t-9 20.5t9 20.5t20 8.5q12 0 20.5 -8.5t8.5 -20.5t-8.5 -20.5t-20.5 -8.5zM445 500v-20h-1l1 -1l-344 -449h354v-30h-400v20l345 450h-335v30h380z" />
    <glyph glyph-name="Zcaron" unicode="&#x17d;" horiz-adv-x="556" 
d="M252 826l-101 144h28l91 -120l88 120h28l-98 -144h-36zM446 670h-393v30h429v-30l-401 -640h410v-30h-446v30z" />
    <glyph glyph-name="zcaron" unicode="&#x17e;" horiz-adv-x="530" 
d="M250 626l-101 144h28l91 -120l88 120h28l-98 -144h-36zM445 500v-20h-1l1 -1l-344 -449h354v-30h-400v20l345 450h-335v30h380z" />
    <glyph glyph-name="florin" unicode="&#x192;" horiz-adv-x="412" 
d="M167 267l-95 -428h-32l95 428h-80v30h86l53 237q15 67 55.5 105t97.5 38q47 0 75 -30l-23 -24q-19 24 -52 24q-45 0 -77.5 -29.5t-43.5 -83.5l-53 -237h162v-30h-168z" />
    <glyph glyph-name="uni0218" unicode="&#x218;" horiz-adv-x="606" 
d="M301 -11q-99 0 -165.5 45t-90.5 120l29 17q10 -31 29.5 -59t48 -48t66 -32t83.5 -12q52 0 89.5 14t61.5 36.5t35.5 51.5t11.5 59q0 32 -16.5 56t-44.5 42.5t-65 33t-77 27.5q-44 14 -84 27.5t-71 32.5t-49 48t-18 75q0 43 16.5 78t45 59.5t67 37.5t83.5 13q43 0 79 -11.5
t64 -31.5t48.5 -47t33.5 -57l-28 -13q-22 56 -72 92.5t-125 36.5q-45 0 -79 -13.5t-56.5 -35.5t-33.5 -50t-11 -57q0 -36 16 -59.5t43 -40t62 -28.5t72 -24q47 -15 89 -30t73.5 -35.5t50.5 -50.5t19 -75q0 -43 -16.5 -78.5t-46.5 -61t-72.5 -39t-94.5 -13.5zM275 -117h61
v-62l-51 -103l-21 17l39 86h-28v62z" />
    <glyph glyph-name="uni0219" unicode="&#x219;" horiz-adv-x="489" 
d="M91 369q0 -33 24 -51t60 -29.5t77.5 -20.5t77.5 -24.5t60 -41.5t24 -71q0 -31 -13 -57t-36.5 -45t-56.5 -29.5t-73 -10.5q-75 0 -123.5 31.5t-66.5 79.5l27 15q19 -50 62.5 -73t100.5 -23q29 0 56 7.5t47.5 21.5t33 35t12.5 48q0 38 -24 58t-60 32.5t-77.5 21t-77.5 22.5
t-60 37.5t-24 66.5q0 30 12 55.5t34.5 45t54 30.5t69.5 11q61 0 105.5 -27t64.5 -73l-26 -14q-16 39 -53.5 61.5t-90.5 22.5q-66 0 -103 -30.5t-37 -81.5zM209 -117h61v-62l-51 -103l-21 17l39 86h-28v62z" />
    <glyph glyph-name="uni021A" unicode="&#x21a;" horiz-adv-x="572" 
d="M255 670h-230v30h492v-30h-230v-670h-32v670zM242 -106h61v-62l-51 -103l-21 17l39 86h-28v62z" />
    <glyph glyph-name="uni021B" unicode="&#x21b;" horiz-adv-x="406" 
d="M331 0q-17 -2 -31.5 -3.5t-28.5 -1.5q-57 0 -84.5 30t-27.5 109v336h-134v30h134v157l30 13v-170h140v-30h-140v-336q0 -32 4.5 -53.5t15 -34t26.5 -17.5t39 -5q12 0 26 1t31 3v-28zM232 -106h61v-62l-51 -103l-21 17l39 86h-28v62z" />
    <glyph glyph-name="uni02BC" unicode="&#x2bc;" 
 />
    <glyph glyph-name="circumflex" unicode="&#x2c6;" horiz-adv-x="235" 
d="M207 556l-91 120l-88 -120h-28l98 144h36l101 -144h-28z" />
    <glyph glyph-name="caron" unicode="&#x2c7;" horiz-adv-x="235" 
d="M101 626l-101 144h28l91 -120l88 120h28l-98 -144h-36z" />
    <glyph glyph-name="breve" unicode="&#x2d8;" horiz-adv-x="351" 
d="M351 632q-64 -88 -175 -88q-109 0 -176 88l21 19q57 -80 155 -80t155 80z" />
    <glyph glyph-name="dotaccent" unicode="&#x2d9;" horiz-adv-x="58" 
d="M29 566q-11 0 -20 8.5t-9 20.5t9 20.5t20 8.5q12 0 20.5 -8.5t8.5 -20.5t-8.5 -20.5t-20.5 -8.5z" />
    <glyph glyph-name="ring" unicode="&#x2da;" horiz-adv-x="185" 
d="M93 553q-19 0 -36 7.5t-29.5 20t-20 29.5t-7.5 36t7.5 36t20 29.5t29.5 20t36 7.5t36 -7.5t29.5 -20t19.5 -29.5t7 -36t-7 -35.5t-19.5 -29.5t-29 -20.5t-36.5 -7.5zM93 577q28 0 48 20t20 49t-20 49t-48 20q-29 0 -49 -20.5t-20 -48.5t20 -48.5t49 -20.5z" />
    <glyph glyph-name="ogonek" unicode="&#x2db;" horiz-adv-x="164" 
d="M111 0q-82 -39 -82 -102q0 -57 52 -57q43 0 58 47l25 -11q-22 -63 -83 -63q-35 0 -58 21t-23 63q0 35 24.5 67.5t63.5 51.5z" />
    <glyph glyph-name="tilde" unicode="&#x2dc;" horiz-adv-x="301" 
d="M213 554q-28 0 -43 17.5t-26.5 39t-23.5 39t-35 17.5q-26 0 -42.5 -26.5t-16.5 -80.5h-26q0 57 23 95.5t65 38.5q28 0 43 -17.5t26.5 -39t24 -39t34.5 -17.5q26 0 42.5 26.5t16.5 80.5h26q0 -57 -23 -95.5t-65 -38.5z" />
    <glyph glyph-name="hungarumlaut" unicode="&#x2dd;" horiz-adv-x="277" 
d="M100 700h41l-115 -144h-26zM236 700h41l-115 -144h-26z" />
    <glyph glyph-name="gravecomb" unicode="&#x300;" horiz-adv-x="205" 
d="M45 780l160 -144h-40l-165 144h45z" />
    <glyph glyph-name="acutecomb" unicode="&#x301;" horiz-adv-x="205" 
d="M160 779h45l-165 -144h-40z" />
    <glyph glyph-name="uni0302" unicode="&#x302;" horiz-adv-x="235" 
d="M207 636l-91 120l-88 -120h-28l98 144h36l101 -144h-28z" />
    <glyph glyph-name="tildecomb" unicode="&#x303;" horiz-adv-x="301" 
d="M213 642q-28 0 -43 17.5t-26.5 39t-23.5 39t-35 17.5q-26 0 -42.5 -26.5t-16.5 -80.5h-26q0 57 23 95.5t65 38.5q28 0 43 -17.5t26.5 -39t24 -39t34.5 -17.5q26 0 42.5 26.5t16.5 80.5h26q0 -57 -23 -95.5t-65 -38.5z" />
    <glyph glyph-name="uni0304" unicode="&#x304;" horiz-adv-x="363" 
d="M0 671v27h363v-27h-363z" />
    <glyph glyph-name="uni0306" unicode="&#x306;" horiz-adv-x="351" 
d="M351 731q-64 -88 -175 -88q-109 0 -176 88l21 19q57 -80 155 -80t155 80z" />
    <glyph glyph-name="uni0307" unicode="&#x307;" horiz-adv-x="58" 
d="M29 658q-11 0 -20 8.5t-9 20.5t9 20.5t20 8.5q12 0 20.5 -8.5t8.5 -20.5t-8.5 -20.5t-20.5 -8.5z" />
    <glyph glyph-name="uni0308" unicode="&#x308;" horiz-adv-x="252" 
d="M255 698q0 -11 -8.5 -19.5t-19.5 -8.5t-19.5 8.5t-8.5 19.5t8.5 19.5t19.5 8.5t19.5 -8t8.5 -20zM53 698q0 -11 -8.5 -19.5t-19.5 -8.5t-19.5 8.5t-8.5 19.5t8.5 19.5t19.5 8.5t19.5 -8t8.5 -20z" />
    <glyph glyph-name="uni030A" unicode="&#x30a;" horiz-adv-x="185" 
d="M93 607q-19 0 -36 7.5t-29.5 20t-20 29.5t-7.5 36t7.5 36t20 29.5t29.5 20t36 7.5t36 -7.5t29.5 -20t19.5 -29.5t7 -36t-7 -35.5t-19.5 -29.5t-29 -20.5t-36.5 -7.5zM93 631q28 0 48 20t20 49t-20 49t-48 20q-29 0 -49 -20.5t-20 -48.5t20 -48.5t49 -20.5z" />
    <glyph glyph-name="uni030B" unicode="&#x30b;" horiz-adv-x="277" 
d="M100 779h41l-115 -144h-26zM236 779h41l-115 -144h-26z" />
    <glyph glyph-name="uni030C" unicode="&#x30c;" horiz-adv-x="235" 
d="M101 626l-101 144h28l91 -120l88 120h28l-98 -144h-36z" />
    <glyph glyph-name="uni0312" unicode="&#x312;" 
d="M163 631h-61v62l51 103l21 -17l-39 -86h28v-62z" />
    <glyph glyph-name="uni0326" unicode="&#x326;" horiz-adv-x="208" 
d="M74 -106h61v-62l-51 -103l-21 17l39 86h-28v62z" />
    <glyph glyph-name="uni0327" unicode="&#x327;" horiz-adv-x="191" 
d="M93 -187q-59 0 -93 28l14 27q31 -28 79 -28q29 0 49 13.5t20 35.5q0 43 -44 43q-27 0 -43 -19l-22 13l31 85h30l-26 -69q15 12 38 12q29 0 47 -17.5t18 -47.5q0 -33 -28 -54.5t-70 -21.5z" />
    <glyph glyph-name="uni0328" unicode="&#x328;" horiz-adv-x="164" 
d="M111 0q-82 -39 -82 -102q0 -57 52 -57q43 0 58 47l25 -11q-22 -63 -83 -63q-35 0 -58 21t-23 63q0 35 24.5 67.5t63.5 51.5z" />
    <glyph glyph-name="uni0335" unicode="&#x335;" 
d="M18 310v30h280v-30h-280z" />
    <glyph glyph-name="uni0337" unicode="&#x337;" 
d="M189 151l256 305l26 -22l-256 -305z" />
    <glyph glyph-name="uni0338" unicode="&#x338;" 
d="M-28 -78l586 656l20 -18l-586 -657z" />
    <glyph glyph-name="tonos" unicode="&#x384;" horiz-adv-x="176" 
d="M161 765l-47 -190h-22l17 190h52z" />
    <glyph glyph-name="uni03BC" unicode="&#x3bc;" horiz-adv-x="542" 
d="M116 -184h-30v667h30v-339q0 -131 127 -131q24 0 48.5 7t47 19.5t41.5 29t32 34.5v380h30v-398q0 -82 72 -68l3 -27q-48 -6 -74 13.5t-31 70.5q-36 -42 -85 -64t-96 -22q-37 0 -67.5 15.5t-47.5 49.5v-237z" />
    <glyph glyph-name="pi" unicode="&#x3c0;" horiz-adv-x="673" 
d="M614 470h-113v-336q0 -65 19.5 -88t65.5 -23q12 0 26 1.5t31 3.5v-28q-17 -2 -31.5 -3.5t-28.5 -1.5q-57 0 -84.5 30t-27.5 109v336h-303v-470h-30v470h-108v30h584v-30z" />
    <glyph glyph-name="Wgrave" unicode="&#x1e80;" horiz-adv-x="981" 
d="M334 980l160 -144h-40l-165 144h45zM35 700h33l189 -658l200 658h37l200 -658l189 658h33l-201 -700h-41l-198 649l-199 -649h-41z" />
    <glyph glyph-name="wgrave" unicode="&#x1e81;" horiz-adv-x="779" 
d="M225 780l160 -144h-40l-165 144h45zM33 500h31l140 -464l146 464h36l150 -458l148 458h32l-162 -500h-37l-149 457l-147 -457h-35z" />
    <glyph glyph-name="Wacute" unicode="&#x1e82;" horiz-adv-x="981" 
d="M623 979h45l-165 -144h-40zM35 700h33l189 -658l200 658h37l200 -658l189 658h33l-201 -700h-41l-198 649l-199 -649h-41z" />
    <glyph glyph-name="wacute" unicode="&#x1e83;" horiz-adv-x="779" 
d="M514 779h45l-165 -144h-40zM33 500h31l140 -464l146 464h36l150 -458l148 458h32l-162 -500h-37l-149 457l-147 -457h-35z" />
    <glyph glyph-name="Wdieresis" unicode="&#x1e84;" horiz-adv-x="981" 
d="M607 898q0 -11 -8.5 -19.5t-19.5 -8.5t-19.5 8.5t-8.5 19.5t8.5 19.5t19.5 8.5t19.5 -8t8.5 -20zM405 898q0 -11 -8.5 -19.5t-19.5 -8.5t-19.5 8.5t-8.5 19.5t8.5 19.5t19.5 8.5t19.5 -8t8.5 -20zM35 700h33l189 -658l200 658h37l200 -658l189 658h33l-201 -700h-41
l-198 649l-199 -649h-41z" />
    <glyph glyph-name="wdieresis" unicode="&#x1e85;" horiz-adv-x="779" 
d="M498 698q0 -11 -8.5 -19.5t-19.5 -8.5t-19.5 8.5t-8.5 19.5t8.5 19.5t19.5 8.5t19.5 -8t8.5 -20zM296 698q0 -11 -8.5 -19.5t-19.5 -8.5t-19.5 8.5t-8.5 19.5t8.5 19.5t19.5 8.5t19.5 -8t8.5 -20zM33 500h31l140 -464l146 464h36l150 -458l148 458h32l-162 -500h-37
l-149 457l-147 -457h-35z" />
    <glyph glyph-name="Germandbls" unicode="&#x1e9e;" horiz-adv-x="607" 
d="M277 377l210 143q-14 158 -197 158q-161 2 -170 -153v-525h-30v525q9 185 201 183q112 0 168.5 -51t56.5 -151l-185 -131q94 -10 147 -55.5t54 -120.5q2 -92 -56 -145t-164 -54h-95v30h95q88 0 137 45t48 124q-2 69 -60.5 108.5t-159.5 39.5v30z" />
    <glyph glyph-name="Ygrave" unicode="&#x1ef2;" horiz-adv-x="598" 
d="M143 980l160 -144h-40l-165 144h45zM268 287l-258 413h37l237 -379l237 379h37l-258 -413v-287h-32v287z" />
    <glyph glyph-name="ygrave" unicode="&#x1ef3;" horiz-adv-x="523" 
d="M119 780l160 -144h-40l-165 144h45zM252 0l-237 500h33l219 -460l179 460h32l-211 -543q-15 -36 -35 -66t-44.5 -51t-53.5 -32t-61 -8v29q30 -2 55.5 9t46.5 31t37 46t27 53z" />
    <glyph glyph-name="uni2009" unicode="&#x2009;" horiz-adv-x="52" 
 />
    <glyph glyph-name="endash" unicode="&#x2013;" horiz-adv-x="593" 
d="M30 227v30h533v-30h-533z" />
    <glyph glyph-name="emdash" unicode="&#x2014;" horiz-adv-x="833" 
d="M30 227v30h773v-30h-773z" />
    <glyph glyph-name="quoteleft" unicode="&#x2018;" horiz-adv-x="196" 
d="M136 650l-39 -86q36 0 36 -36q0 -17 -9.5 -26.5t-26.5 -9.5t-27 11t-10 28q1 20 8.5 39t23.5 51l23 46z" />
    <glyph glyph-name="quoteright" unicode="&#x2019;" horiz-adv-x="196" 
d="M60 517l39 86q-36 0 -36 36q0 17 9.5 26.5t26.5 9.5t27 -11t10 -28q-1 -20 -8.5 -39t-23.5 -51l-23 -46z" />
    <glyph glyph-name="quotesinglbase" unicode="&#x201a;" horiz-adv-x="196" 
d="M60 -93l39 86q-36 0 -36 36q0 17 9.5 26.5t26.5 9.5t27 -11t10 -28q-1 -20 -8.5 -39t-23.5 -51l-23 -46z" />
    <glyph glyph-name="quotereversed" unicode="&#x201b;" horiz-adv-x="196" 
d="M136 517l-21 -17l-23 46q-16 32 -23.5 51t-8.5 39q0 17 10 28t27 11t26.5 -9.5t9.5 -26.5q0 -36 -36 -36z" />
    <glyph glyph-name="quotedblleft" unicode="&#x201c;" horiz-adv-x="288" 
d="M238 655l-39 -86q36 0 36 -36q0 -17 -9.5 -26.5t-26.5 -9.5t-27 11t-10 28q1 20 8.5 39t23.5 51l23 46zM136 655l-39 -86q36 0 36 -36q0 -17 -9.5 -26.5t-26.5 -9.5t-27 11t-10 28q1 20 8.5 39t23.5 51l23 46z" />
    <glyph glyph-name="quotedblright" unicode="&#x201d;" horiz-adv-x="293" 
d="M157 517l39 86q-36 0 -36 36q0 17 9.5 26.5t26.5 9.5t27 -11t10 -28q-1 -20 -8.5 -39t-23.5 -51l-23 -46zM50 517l39 86q-36 0 -36 36q0 17 9.5 26.5t26.5 9.5t27 -11t10 -28q-1 -20 -8.5 -39t-23.5 -51l-23 -46z" />
    <glyph glyph-name="quotedblbase" unicode="&#x201e;" horiz-adv-x="331" 
d="M186 -88l39 86q-36 0 -36 36q0 17 9.5 26.5t26.5 9.5t27 -11t10 -28q-1 -20 -8.5 -39t-23.5 -51l-23 -46zM79 -88l39 86q-36 0 -36 36q0 17 9.5 26.5t26.5 9.5t27 -11t10 -28q-1 -20 -8.5 -39t-23.5 -51l-23 -46z" />
    <glyph glyph-name="dagger" unicode="&#x2020;" horiz-adv-x="251" 
d="M226 566v-27l-89 4l4 -216h-31l4 216l-89 -4v27l89 -3l-4 114h31l-4 -114z" />
    <glyph glyph-name="daggerdbl" unicode="&#x2021;" horiz-adv-x="251" 
d="M137 563l89 3v-27l-89 4v-229l89 4v-27l-89 3l4 -114h-31l4 114l-89 -3v27l89 -4v229l-89 -4v27l89 -3l-4 114h31z" />
    <glyph glyph-name="bullet" unicode="&#x2022;" horiz-adv-x="358" 
d="M278 242q0 -20 -8 -37.5t-21.5 -31t-31 -21t-37.5 -7.5t-37.5 7.5t-31 21t-21.5 31t-8 37.5t8 37.5t21.5 31t31 21.5t37.5 8q41 0 69.5 -28.5t28.5 -69.5z" />
    <glyph glyph-name="ellipsis" unicode="&#x2026;" horiz-adv-x="624" 
d="M66 29q0 17 9.5 26.5t26.5 9.5q35 0 35 -36t-35 -36q-36 0 -36 36zM276 29q0 17 9.5 26.5t26.5 9.5q35 0 35 -36t-35 -36q-36 0 -36 36zM486 29q0 17 9.5 26.5t26.5 9.5q35 0 35 -36t-35 -36q-36 0 -36 36z" />
    <glyph glyph-name="perthousand" unicode="&#x2030;" horiz-adv-x="1051" 
d="M342 513q0 -35 -11.5 -64.5t-31.5 -51.5t-48.5 -34t-61.5 -12t-61.5 12t-48.5 34t-31.5 51.5t-11.5 64.5q0 36 11.5 66t31.5 51.5t48.5 34t61.5 12.5t61.5 -12.5t48.5 -34t31.5 -51.5t11.5 -66zM163 0h-36l426 667h37zM309 513q0 29 -9 53.5t-24.5 43.5t-37.5 29.5
t-49 10.5q-26 0 -48 -10.5t-38 -29.5t-25 -43.5t-9 -53.5q0 -27 9 -51.5t25 -43t38 -29.5t48 -11q27 0 49 10.5t37.5 29t24.5 43t9 52.5zM673 150q0 -35 -11.5 -64.5t-31.5 -51.5t-48.5 -34t-61.5 -12t-61.5 12t-48.5 34t-31.5 51.5t-11.5 64.5q0 36 11.5 66t31.5 51.5
t48.5 34t61.5 12.5t61.5 -12.5t48.5 -34t31.5 -51.5t11.5 -66zM1015 150q0 -35 -11.5 -64.5t-31.5 -51.5t-48.5 -34t-61.5 -12t-61.5 12t-48.5 34t-31.5 51.5t-11.5 64.5q0 36 11.5 66t31.5 51.5t48.5 34t61.5 12.5t61.5 -12.5t48.5 -34t31.5 -51.5t11.5 -66zM640 150
q0 29 -9 53.5t-24.5 43.5t-37.5 29.5t-49 10.5t-49 -10.5t-37.5 -29.5t-24.5 -43.5t-9 -53.5q0 -28 9 -52.5t24.5 -43t37.5 -29t49 -10.5t49 10.5t37.5 29t24.5 43t9 52.5zM982 150q0 29 -9 53.5t-24.5 43.5t-37.5 29.5t-49 10.5t-49 -10.5t-37.5 -29.5t-24.5 -43.5
t-9 -53.5q0 -28 9 -52.5t24.5 -43t37.5 -29t49 -10.5t49 10.5t37.5 29t24.5 43t9 52.5z" />
    <glyph glyph-name="guilsinglleft" unicode="&#x2039;" horiz-adv-x="259" 
d="M190 63l-160 180l160 177h39l-160 -177l160 -180h-39z" />
    <glyph glyph-name="guilsinglright" unicode="&#x203a;" horiz-adv-x="259" 
d="M69 63h-39l160 180l-160 177h39l160 -177z" />
    <glyph glyph-name="fraction" unicode="&#x2044;" horiz-adv-x="453" 
d="M0 0l406 700h47l-407 -700h-46z" />
    <glyph glyph-name="colonmonetary" unicode="&#x20a1;" horiz-adv-x="667" 
d="M398 -12q-5 0 -13.5 0.5t-19.5 1.5l-29 -90h-31l31 94q-23 4 -46 11t-45 18l-41 -123h-31l46 138q-72 45 -113 121.5t-41 173.5q0 75 25.5 138.5t70.5 109.5t106 71.5t131 25.5q6 0 15 -0.5t21 -1.5l31 92h31l-33 -97q46 -9 90 -34l44 131h31l-50 -147q26 -18 52 -48
l-25 -22q-9 11 -18.5 20t-19.5 17l-191 -569q5 -1 22 -1q63 0 117 26t90 71l26 -21q-94 -106 -233 -106zM100 333q0 -85 34.5 -153.5t95.5 -110.5l194 578q-4 1 -10.5 1h-15.5q-63 0 -117.5 -23t-94.5 -65t-63 -100t-23 -127zM256 53q38 -22 90 -31l196 584q-42 27 -88 36z
" />
    <glyph glyph-name="franc" unicode="&#x20a3;" horiz-adv-x="545" 
d="M100 667h408v-30h-376v-279h369v-30h-369v-140h243v-27h-243v-161h-32v161h-88v27h88v479z" />
    <glyph glyph-name="lira" unicode="&#x20a4;" horiz-adv-x="491" 
d="M346 353v-30h-174q43 -45 52 -85h122v-30h-118q0 -51 -21.5 -87t-63.5 -67q27 10 55 10q22 0 43 -7.5t41 -16.5t39.5 -16.5t38.5 -7.5q32 0 62 14t42 29l18 -27q-47 -46 -124 -46q-30 0 -50.5 7.5t-39 16.5t-38.5 16.5t-50 7.5q-39 0 -119 -41l-14 33q76 32 113.5 80
t37.5 102h-181v30h177q-10 34 -58 85h-119v30h90q-56 62 -56 136q0 38 15.5 72t43 59.5t66 41t83.5 15.5q27 0 53.5 -7.5t49.5 -21t41.5 -32.5t30.5 -43l-26 -18q-7 18 -22 34.5t-34.5 29.5t-43 20.5t-49.5 7.5q-36 0 -68 -11t-56 -31.5t-37.5 -50t-13.5 -65.5
q0 -70 60 -136h202z" />
    <glyph glyph-name="peseta" unicode="&#x20a7;" horiz-adv-x="608" 
d="M525 462q-3 -37 -17.5 -68.5t-40 -55t-60 -36.5t-76.5 -13h-199v-289h-32v462h-88v30h88v175h231q42 0 77 -13.5t60 -36.5t39.5 -55t17.5 -70h79v-30h-79zM132 492h358q-5 66 -48 105.5t-112 39.5h-198v-145zM330 319q68 0 111.5 39.5t48.5 103.5h-358v-143h198z" />
    <glyph glyph-name="uni20A8" unicode="&#x20a8;" horiz-adv-x="973" 
d="M483 0l-203 288h-160v-288h-32v667h230q42 0 78.5 -13t62.5 -37.5t41 -59.5t15 -79t-15 -79t-41.5 -60t-62.5 -38t-78 -13l206 -288h-41zM318 318q36 0 66 12t51.5 33t33 50.5t11.5 64.5t-11.5 64t-33 50t-51.5 33t-66 12h-198v-319h198zM740 -12q-109 0 -177 77l24 22
q54 -72 153 -72q66 0 104.5 31.5t38.5 80.5q0 39 -23 60.5t-57.5 34.5t-74.5 22t-74.5 23t-57.5 36.5t-23 63.5q0 55 44 91.5t120 36.5q109 0 166 -73l-22 -20q-46 66 -144 66q-63 0 -98.5 -28t-35.5 -73q0 -34 23 -53t57.5 -31t74.5 -21.5t74.5 -25t57.5 -41t23 -68.5
q0 -60 -44 -99.5t-129 -39.5z" />
    <glyph glyph-name="uni20AA" unicode="&#x20aa;" horiz-adv-x="800" 
d="M283 0v399h32v-370h183q184 0 184 178v343h32v-343q0 -103 -55 -155t-161 -52h-215zM301 550q106 0 161 -52t55 -155v-193h-32v193q0 178 -184 178h-183v-521h-32v550h215z" />
    <glyph glyph-name="Euro" unicode="&#x20ac;" horiz-adv-x="684" 
d="M418 -12q-60 0 -113 18.5t-95.5 52.5t-72.5 82t-43 106h-55v30h50q-2 12 -3 26t-1 30q0 10 1 24.5t3 33.5h-50v30h55q14 58 44 105.5t72.5 81t95.5 52t112 18.5q141 0 232 -105l-25 -22q-36 45 -90 71t-117 26q-52 0 -99 -16t-85 -46t-65 -72t-39 -93h348v-30h-354
q-4 -23 -4 -58q0 -10 1 -24t3 -32h354v-30h-348q12 -52 39 -94.5t65 -72.5t85 -46t99 -16q63 0 117 26t90 71l26 -21q-94 -106 -233 -106z" />
    <glyph glyph-name="uni2113" unicode="&#x2113;" horiz-adv-x="432" 
d="M116 312v-227q0 -70 52 -70q34 0 57 26l18 -23q-30 -30 -75 -30q-82 0 -82 97v436q0 33 12 61.5t33 49.5t50 33t63 12q66 0 107 -31t41 -79q0 -40 -25 -70t-71 -62zM116 350l165 111q42 28 61.5 52t19.5 54q0 18 -10 33.5t-26.5 26.5t-37.5 17t-44 6q-27 0 -50 -9.5
t-40.5 -26.5t-27.5 -41t-10 -54v-169z" />
    <glyph glyph-name="uni2116" unicode="&#x2116;" horiz-adv-x="1095" 
d="M892 350q-34 0 -62.5 12.5t-48.5 35t-31.5 52.5t-11.5 65q0 36 11.5 66t31.5 52t48.5 34.5t62.5 12.5q35 0 63.5 -12.5t48.5 -34.5t31.5 -52t11.5 -66q0 -35 -11.5 -65t-31.5 -52.5t-48.5 -35t-63.5 -12.5zM602 667v-667h-32l-450 615v-615h-32v667h32l450 -609v609h32z
M892 376q29 0 52 11t39.5 29.5t25.5 44t9 54.5t-9 54t-25.5 44t-39.5 29.5t-52 10.5q-28 0 -51 -10.5t-39.5 -29.5t-25 -44t-8.5 -54t8.5 -54.5t25 -44t39.5 -29.5t51 -11z" />
    <glyph glyph-name="uni2117" unicode="&#x2117;" horiz-adv-x="778" 
d="M734 334q0 -71 -27 -133.5t-74 -109.5t-109.5 -74.5t-134.5 -27.5t-134.5 27.5t-109.5 74.5t-74 109.5t-27 133.5t27 133.5t74 109.5t109.5 74.5t134.5 27.5q73 0 136 -27.5t109.5 -74.5t73 -109.5t26.5 -133.5zM708 334q0 66 -25 124t-68.5 101.5t-101.5 68.5t-124 25
t-124 -25t-101.5 -68.5t-68.5 -101.5t-25 -124t25 -124t68.5 -101.5t101.5 -68.5t124 -25t124 25t101.5 68.5t68.5 101.5t25 124zM545 422q0 -52 -35.5 -82t-89.5 -30h-112v-179h-29v405h141q54 0 89.5 -30t35.5 -84zM516 422q0 40 -25.5 62.5t-70.5 22.5h-112v-168h112
q45 0 70.5 22t25.5 61z" />
    <glyph glyph-name="uni2120" unicode="&#x2120;" horiz-adv-x="476" 
d="M188 506q0 -31 -22.5 -49t-64.5 -18q-54 0 -86 36l18 21q29 -32 66 -32q56 0 56 39q0 19 -21.5 30t-46.5 15t-46.5 19t-21.5 42q0 28 22.5 46t57.5 18q55 0 82 -32l-18 -19q-22 27 -63 27q-21 0 -34.5 -10t-13.5 -26q0 -17 21 -26.5t47 -14.5t47 -21t21 -45zM439 667
v-220h-28v182l-75 -182h-8l-75 182v-182h-28v220h43l64 -160l64 160h43z" />
    <glyph glyph-name="trademark" unicode="&#x2122;" horiz-adv-x="356" 
d="M291 667v-124h-16v106l-42 -66h-4l-43 66v-106h-15v124h24l36 -57l36 57h24zM150 667v-15h-34v-109h-16v109h-35v15h85z" />
    <glyph glyph-name="uni2126" unicode="&#x2126;" horiz-adv-x="764" 
d="M84 30h148q-167 95 -167 303q0 74 22.5 137t64 109.5t100 72.5t130.5 26t130.5 -26t100 -72.5t64 -109.5t22.5 -137q0 -209 -166 -303h148v-30h-215v30q39 9 75 34t63 64t43.5 90.5t16.5 114.5q0 69 -20 127t-57 99.5t-89 64.5t-116 23t-116 -23t-89 -64.5t-57 -99.5
t-20 -127q0 -63 16.5 -114.5t44 -90.5t63.5 -64t75 -34v-30h-215v30z" />
    <glyph glyph-name="estimated" unicode="&#x212e;" horiz-adv-x="842" 
d="M811 324h-632q-5 0 -5 -5v-190q0 -14 9 -23q97 -103 240 -103q151 0 250 115h57q-54 -63 -134.5 -99.5t-174.5 -36.5q-81 0 -152 27.5t-124 75.5t-83.5 112t-30.5 136t30.5 136t83.5 112t124 75.5t152 27.5t152 -27.5t124 -75.5t83.5 -112t30.5 -136v-9zM668 540
q0 14 -10 24q-97 99 -235 99q-140 0 -239 -102q-10 -10 -10 -24v-188q0 -6 5 -6h485q4 0 4 6v191z" />
    <glyph glyph-name="arrowleft" unicode="&#x2190;" horiz-adv-x="582" 
d="M269 211l12 -130l-281 205l281 204l-12 -129h269v-150h-269z" />
    <glyph glyph-name="arrowup" unicode="&#x2191;" horiz-adv-x="582" 
d="M216 286l-130 -12l205 281l204 -281l-129 12v-269h-150v269z" />
    <glyph glyph-name="arrowright" unicode="&#x2192;" horiz-adv-x="582" 
d="M303 81l12 130h-268v150h268l-12 129l281 -204z" />
    <glyph glyph-name="arrowdown" unicode="&#x2193;" horiz-adv-x="582" 
d="M366 286l130 12l-205 -281l-204 281l129 -12v269h150v-269z" />
    <glyph glyph-name="partialdiff" unicode="&#x2202;" horiz-adv-x="570" 
d="M285 -12q-50 0 -91.5 19.5t-71 53.5t-46 80.5t-16.5 100.5t16.5 100.5t46 80t71 53t91.5 19.5q95 0 156 -85q-16 33 -43 66.5t-63 65t-78.5 59.5t-90.5 50l18 27q69 -33 129 -78t103.5 -100.5t68.5 -120t25 -137.5q0 -54 -16 -100.5t-45.5 -80.5t-71 -53.5t-92.5 -19.5z
M285 15q45 0 80.5 18t60 48.5t38 72t13.5 88.5t-13.5 88t-38 71.5t-60 48.5t-80.5 18q-44 0 -79.5 -18t-60.5 -48.5t-38.5 -71.5t-13.5 -88t13.5 -88.5t38.5 -72t60.5 -48.5t79.5 -18z" />
    <glyph glyph-name="uni2206" unicode="&#x2206;" horiz-adv-x="636" 
d="M21 0l278 667h38l278 -667h-594zM318 630l-249 -600h498z" />
    <glyph glyph-name="product" unicode="&#x220f;" horiz-adv-x="639" 
d="M455 -90v727h-272v-727h-32v727h-113v30h563v-30h-114v-727h-32z" />
    <glyph glyph-name="summation" unicode="&#x2211;" horiz-adv-x="567" 
d="M63 667h442v-30h-404l254 -337l-256 -360h406v-30h-443v30l255 359l-254 338v30z" />
    <glyph glyph-name="minus" unicode="&#x2212;" horiz-adv-x="494" 
d="M465 322h-436v30h436v-30z" />
    <glyph glyph-name="radical" unicode="&#x221a;" horiz-adv-x="762" 
d="M724 667l-278 -667h-35l-146 349l-175 -73l-12 28l201 84l150 -353l266 632h29z" />
    <glyph glyph-name="infinity" unicode="&#x221e;" horiz-adv-x="627" 
d="M173 180q-34 0 -61 12.5t-45.5 34t-28 49.5t-9.5 59q0 32 9.5 60t27.5 49t45 33.5t62 12.5q48 0 83 -33.5t57 -84.5q22 51 57.5 84.5t83.5 33.5q35 0 62 -12.5t45 -33.5t27.5 -49t9.5 -60q0 -31 -9.5 -59t-28 -49.5t-45 -34t-61.5 -12.5q-48 0 -83.5 33.5t-57.5 84.5
q-22 -51 -57 -84.5t-83 -33.5zM454 211q54 0 83 35t29 89q0 55 -29 90t-83 35q-76 0 -126 -125q49 -124 126 -124zM173 211q77 0 126 124q-50 125 -126 125q-54 0 -83 -35t-29 -90q0 -54 29 -89t83 -35z" />
    <glyph glyph-name="integral" unicode="&#x222b;" horiz-adv-x="326" 
d="M17 -100v30h62q28 0 48.5 24t20.5 59v642q0 24 8 45t22 36t32 23.5t37 8.5h62v-30h-62q-28 0 -48.5 -24t-20.5 -59v-642q0 -24 -8 -45t-22 -36t-31.5 -23.5t-37.5 -8.5h-62z" />
    <glyph glyph-name="approxequal" unicode="&#x2248;" horiz-adv-x="494" 
d="M29 450q47 -36 109 -36q33 0 57.5 10t48.5 22t50 22t61 10q62 0 110 -30v-36q-46 36 -110 36q-33 0 -58 -10t-49 -22t-49.5 -22t-60.5 -10q-61 0 -109 30v36zM29 256q47 -36 109 -36q33 0 57.5 10t48.5 22t50 22t61 10q62 0 110 -30v-36q-46 36 -110 36q-33 0 -58 -10
t-49 -22t-49.5 -22t-60.5 -10q-61 0 -109 30v36z" />
    <glyph glyph-name="notequal" unicode="&#x2260;" horiz-adv-x="494" 
d="M76 93l81 127h-128v30h147l107 168h-254v30h273l80 126h37l-81 -126h127v-30h-145l-108 -168h253v-30h-272l-81 -127h-36z" />
    <glyph glyph-name="lessequal" unicode="&#x2264;" horiz-adv-x="494" 
d="M29 324v21l436 235v-36l-395 -210l395 -208v-36zM29 0v30h436v-30h-436z" />
    <glyph glyph-name="greaterequal" unicode="&#x2265;" horiz-adv-x="494" 
d="M29 90v36l395 208l-395 210v36l436 -235v-21zM28 0v30h436v-30h-436z" />
    <glyph glyph-name="uni22B2" unicode="&#x22b2;" horiz-adv-x="587" 
d="M54 -23v618l535 -309z" />
    <glyph glyph-name="uni22B3" unicode="&#x22b3;" horiz-adv-x="587" 
d="M535 -23l-535 309l535 309v-618z" />
    <glyph glyph-name="dotmath" unicode="&#x22c5;" horiz-adv-x="208" 
d="M127 268q10 -10 10 -23t-9.5 -23t-23.5 -10t-23.5 10t-9.5 23t10 22.5t23 9.5t23 -9z" />
    <glyph glyph-name="uni2318" unicode="&#x2318;" horiz-adv-x="667" 
d="M625 154q0 -23 -9 -43.5t-24 -35.5t-35 -24t-43 -9t-43.5 9t-35.5 24t-24 35.5t-9 43.5v58h-137v-58q0 -23 -9 -43.5t-24 -35.5t-35.5 -24t-43.5 -9t-43 9t-35 24t-24 35.5t-9 43.5t9 43t24 35t35 24t43 9h58v137h-57q-23 0 -43.5 9t-35.5 24t-24 35.5t-9 43.5t9 43
t24 35t35.5 24t43.5 9t43 -9t35 -24t24 -35t9 -43v-59h137v59q0 23 9 43t24 35t35.5 24t43.5 9t43 -9t35 -24t24 -35t9 -43t-9 -43.5t-24 -35.5t-35 -24t-43 -9h-58v-137h58q23 0 43 -9t35 -24t24 -35t9 -43zM211 514q0 24 -17 41t-40 17q-25 0 -42 -17t-17 -41t17 -41.5
t42 -17.5h57v59zM572 514q0 24 -17.5 41t-40.5 17q-24 0 -41 -17t-17 -41v-59h58q23 0 40.5 17.5t17.5 41.5zM402 265v137h-137v-137h137zM211 212h-58q-24 0 -41 -17.5t-17 -40.5q0 -25 17 -42t41 -17t41 17t17 42v58zM572 154q0 23 -17 40.5t-41 17.5h-58v-58
q0 -25 17 -42t41 -17t41 17t17 42z" />
    <glyph glyph-name="filledbox" unicode="&#x25a0;" horiz-adv-x="661" 
d="M618 572v-572h-571v572h571z" />
    <glyph glyph-name="triagup" unicode="&#x25b2;" horiz-adv-x="616" 
d="M307 565l310 -536l-619 1z" />
    <glyph glyph-name="triagdn" unicode="&#x25bc;" horiz-adv-x="616" 
d="M-2 510h619l-310 -535z" />
    <glyph glyph-name="lozenge" unicode="&#x25ca;" horiz-adv-x="375" 
d="M356 334l-158 -334h-21l-158 334l158 333h21zM55 334l133 -293l132 293l-133 292z" />
    <glyph glyph-name="uni25CF" unicode="&#x25cf;" horiz-adv-x="695" 
d="M644 285q0 -61 -23.5 -115.5t-63.5 -94.5t-94 -63.5t-116 -23.5q-61 0 -115.5 23.5t-94.5 63.5t-63.5 94.5t-23.5 115.5q0 62 23.5 116t63.5 94t94.5 63.5t115.5 23.5q62 0 116 -23t94.5 -63.5t63.5 -94.5t23 -116z" />
    <glyph glyph-name="uni2605" unicode="&#x2605;" horiz-adv-x="759" 
d="M469 421h290l-235 -171l90 -275l-235 170l-234 -170l89 275l-234 171h290l89 276z" />
    <glyph glyph-name="uni2610" unicode="&#x2610;" horiz-adv-x="661" 
d="M616 572v-572h-571v572h571zM76 30h508v512h-508v-512z" />
    <glyph glyph-name="diamond" unicode="&#x2666;" horiz-adv-x="501" 
d="M250 35l-250 250l250 251l251 -251z" />
    <glyph glyph-name="uni2713" unicode="&#x2713;" horiz-adv-x="531" 
d="M202 91l-202 246l25 23l173 -215l306 572l27 -19z" />
    <glyph glyph-name="uniE000" unicode="&#xe000;" horiz-adv-x="1624" 
d="M1225 667l333 -472l-333 -326l-567 798h567zM538 667l287 -398l-287 -269l-473 667h473z" />
    <glyph glyph-name="uniF6B6" unicode="&#xf6b6;" horiz-adv-x="364" 
d="M174 342l160 -180h-39l-160 180l160 177h39zM69 342l160 -180h-39l-160 180l160 177h39z" />
    <glyph glyph-name="uniF6B7" unicode="&#xf6b7;" horiz-adv-x="364" 
d="M69 519l160 -177l-160 -180h-39l160 180l-160 177h39zM174 519l160 -177l-160 -180h-39l160 180l-160 177h39z" />
    <glyph glyph-name="uniF6B8" unicode="&#xf6b8;" horiz-adv-x="259" 
d="M69 342l160 -180h-39l-160 180l160 177h39z" />
    <glyph glyph-name="uniF6B9" unicode="&#xf6b9;" horiz-adv-x="259" 
d="M69 519l160 -177l-160 -180h-39l160 180l-160 177h39z" />
    <glyph glyph-name="uniF6BA" unicode="&#xf6ba;" horiz-adv-x="370" 
d="M50 326v30h240v-30h-240z" />
    <glyph glyph-name="uniF6BB" unicode="&#xf6bb;" horiz-adv-x="593" 
d="M30 326v30h533v-30h-533z" />
    <glyph glyph-name="uniF6BC" unicode="&#xf6bc;" horiz-adv-x="833" 
d="M30 326v30h773v-30h-773z" />
    <glyph glyph-name="uniF6C3" unicode="&#xf6c3;" horiz-adv-x="208" 
d="M142 -137q0 -36 -18 -69.5t-44 -51.5l-22 18q24 18 38.5 43.5t14.5 48.5q-4 -1 -8 -1q-14 0 -23 9.5t-9 23.5q0 13 9 22.5t23 9.5q16 0 27.5 -14t11.5 -39z" />
    <glyph glyph-name="uniF8FF" unicode="&#xf8ff;" horiz-adv-x="1624" 
d="M1225 667l333 -472l-333 -326l-567 798h567zM538 667l287 -398l-287 -269l-473 667h473z" />
    <glyph glyph-name="idotaccent" horiz-adv-x="210" 
d="M84 658q-11 0 -20 8.5t-9 20.5t9 20.5t20 8.5q12 0 20.5 -8.5t8.5 -20.5t-8.5 -20.5t-20.5 -8.5zM74 500h30v-500h-30v500z" />
    <glyph glyph-name="a.ss01" horiz-adv-x="542" 
d="M447 0h-30v62q-23 -35 -64.5 -54t-100.5 -19q-97 -2 -152 37.5t-55 111.5q-2 66 46 103.5t135 37.5q72 0 121.5 7t69.5 20v36q0 65 -45.5 101.5t-126.5 36.5q-44 0 -86.5 -24.5t-71.5 -66.5l-22 15q14 25 34.5 44.5t44.5 33t50 21t51 7.5q94 0 148 -45t54 -123v-342z
M252 19q77 0 121 34.5t44 94.5v129q-22 -13 -69.5 -20.5t-114.5 -7.5q-80 0 -119 -28.5t-39 -82.5q0 -58 45.5 -88.5t131.5 -30.5z" />
    <glyph glyph-name="b.ss01" horiz-adv-x="647" 
d="M65 660l30 10v-315q27 69 86 111.5t137 42.5q53 0 96.5 -20.5t74.5 -55.5t48 -82.5t17 -101.5t-17 -101.5t-48 -82.5t-74.5 -55.5t-96.5 -20.5q-78 0 -137 42.5t-86 111.5v-143h-30v660zM318 19q47 0 85 18t65 49.5t41.5 73.5t14.5 89t-14.5 89t-41.5 73.5t-65 49.5
t-85 18t-87.5 -18t-70.5 -49t-47.5 -73t-17.5 -90t17.5 -90t47.5 -73t70.5 -49t87.5 -18z" />
    <glyph glyph-name="d.ss01" horiz-adv-x="629" 
d="M534 670v-670h-30v143q-27 -69 -86 -111.5t-137 -42.5q-53 0 -96.5 20.5t-74.5 55.5t-48 82.5t-17 101.5t17 101.5t48 82.5t74.5 55.5t96.5 20.5q78 0 137 -42.5t86 -111.5v305zM281 19q47 0 87.5 18t70.5 49t47.5 73t17.5 90t-17.5 90t-47.5 73t-70.5 49t-87.5 18
t-85 -18t-65 -49.5t-41.5 -73.5t-14.5 -89t14.5 -89t41.5 -73.5t65 -49.5t85 -18z" />
    <glyph glyph-name="h.ss01" horiz-adv-x="563" 
d="M65 660l30 10v-250q22 36 65 63t101 27q27 0 62.5 -8t68 -31.5t54.5 -64.5t22 -107v-299h-30v299q0 55 -17.5 90t-43.5 55.5t-57.5 28t-58.5 7.5q-22 0 -46.5 -5.5t-48 -20t-42.5 -39t-29 -62.5v-353h-30v660z" />
    <glyph glyph-name="i.ss01" horiz-adv-x="182" 
d="M90 646l-30 -6v60h30v-54zM60 494l30 6v-500h-30v494z" />
    <glyph glyph-name="t.ss01" horiz-adv-x="312" 
d="M237 0q-43 -6 -71 -5q-51 3 -76 33.5t-25 105.5v523l30 13v-170h140v-30h-140v-336q0 -65 19.5 -88t65.5 -23q12 0 26 1.5t31 3.5v-28z" />
    <glyph glyph-name="colon.alt" horiz-adv-x="208" 
d="M66 515q0 17 9.5 26.5t26.5 9.5q35 0 35 -36t-35 -36q-36 0 -36 36zM66 92q0 17 9.5 26.5t26.5 9.5q35 0 35 -36t-35 -36q-36 0 -36 36z" />
    <glyph glyph-name="colon.centered" horiz-adv-x="201" 
d="M60 471q0 17 9.5 26.5t26.5 9.5q35 0 35 -36t-35 -36q-36 0 -36 36zM60 166q0 17 9.5 26.5t26.5 9.5q35 0 35 -36t-35 -36q-36 0 -36 36z" />
    <glyph glyph-name="brevecomb-cy" 
 />
    <glyph glyph-name="thickspace" horiz-adv-x="500" 
 />
    <glyph glyph-name="accentcomb" horiz-adv-x="205" 
d="M160 779h45l-165 -144h-40z" />
    <glyph glyph-name="slashsmallcomb" 
d="M-45 -107l633 720l20 -18l-633 -721z" />
    <glyph glyph-name="lowercase-shoulder" 
d="M470 299q0 55 -17.5 90t-43.5 55.5t-57.5 28t-58.5 7.5q-26 0 -56.5 -8.5t-57 -31t-44 -61.5t-17.5 -101l-7 -2q-1 0 -1 8t-0.5 25.5t-0.5 51.5q0 25 13.5 51.5t38 48t58.5 35.5t74 14q27 0 62.5 -8t68 -31.5t54.5 -64.5t22 -107h-30z" />
    <glyph glyph-name="lowercase-stem" 
d="M279 500h30v-500h-30v500z" />
    <glyph glyph-name="lowercase-shortstem" 
d="M470 299h30v-299h-30v299z" />
    <glyph glyph-name="lowercase-aloop" 
d="M497 249q0 -54 -18.5 -101.5t-50.5 -82.5t-76.5 -55.5t-97.5 -20.5t-96.5 20.5t-74.5 55.5t-48 82.5t-17 101.5t17 101.5t48 82.5t74.5 55.5t96.5 20.5t97.5 -20.5t76.5 -55.5t50.5 -82.5t18.5 -101.5zM254 19q47 0 87.5 18t70.5 49t47.5 73t17.5 90t-17.5 90t-47.5 73
t-70.5 49t-87.5 18t-85 -18t-65 -49.5t-41.5 -73.5t-14.5 -89t14.5 -89t41.5 -73.5t65 -49.5t85 -18z" />
    <glyph glyph-name="newGlyph" 
 />
    <glyph glyph-name="lowercase-ftop" 
d="M272 683q-83 5 -126.5 -34t-43.5 -122v-27h-30v27q0 92 51 142t149 42v-28z" />
    <glyph glyph-name="lowercase-g-descender" 
d="M541 500h30v-476q0 -56 -19.5 -100t-53 -74t-79 -45.5t-97.5 -15.5q-88 0 -148.5 32.5t-87.5 87.5l26 15q10 -20 27 -39t42.5 -34t60.5 -24.5t80 -9.5q47 0 87 14.5t69.5 41.5t46 65.5t16.5 85.5v476z" />
    <glyph glyph-name="lowercase-thook" 
d="M246 0q-17 -2 -31.5 -3.5t-28.5 -1.5q-57 0 -84.5 30t-27.5 109v27h30v-27q0 -65 19.5 -88t65.5 -23q12 0 26 1.5t31 3.5v-28z" />
    <glyph glyph-name="lowercase-r" 
d="M305 480q-5 1 -15 1q-28 0 -57 -9t-52.5 -30t-38.5 -55t-15 -84l-7 -27q-1 0 -1 8t-0.5 25.5t-0.5 51.5q0 26 11.5 53t34 48.5t54.5 35t72 13.5h10t10 -1z" />
    <glyph glyph-name="lowercase-tcross" horiz-adv-x="1200" 
d="M174 500h304v-30h-304v30z" />
    <glyph glyph-name="ascender-stem" 
d="M119 700h32v-700h-32v700z" />
    <glyph glyph-name="uppercase-horiz" horiz-adv-x="822" 
d="M197 700h214v-30h-214v30z" />
    <glyph glyph-name="i-dot" 
d="M293 657q-25 0 -25 25t25 25t25 -25t-25 -25z" />
    <glyph glyph-name="wonderUnitLogo.ss02" horiz-adv-x="1624" 
 />
    </font>
</defs>
</svg>
