<?xml version="1.0" standalone="no"?>
<!DOCTYPE svg PUBLIC "-//W3C//DTD SVG 1.1//EN" "http://www.w3.org/Graphics/SVG/1.1/DTD/svg11.dtd" >
<svg xmlns="http://www.w3.org/2000/svg" xmlns:xlink="http://www.w3.org/1999/xlink" version="1.1">
<metadata>
Created by FontForge 20201107 at Mon Aug  2 03:36:11 2021
 By 
Copyright (c) 2020 by Charles Forman. All rights reserved.
</metadata>
<defs>
<font id="THICCCBOI-SemiBold" horiz-adv-x="600" >
  <font-face 
    font-family="THICCCBOI SemBd"
    font-weight="600"
    font-stretch="normal"
    units-per-em="1000"
    panose-1="0 0 0 0 0 0 0 0 0 0"
    ascent="800"
    descent="-200"
    x-height="500"
    cap-height="700"
    bbox="-109 -345 1558 1003"
    underline-thickness="50"
    underline-position="-125"
    unicode-range="U+000D-FB02"
  />
<missing-glyph horiz-adv-x="493" 
d="M71 -90v842h351v-842h-351zM390 722h-288v-782h288v782z" />
    <glyph glyph-name="fi" unicode="fi" horiz-adv-x="611" 
d="M474 624q-24 0 -41.5 17.5t-17.5 41.5q0 25 17.5 42t41.5 17t41.5 -17t17.5 -42q0 -24 -17.5 -41.5t-41.5 -17.5zM108 405h-88v95h88v51q0 48 10 79t28.5 49.5t46 26t63.5 7.5q17 0 36 -1.5t39 -3.5v-97q-27 3 -48 3q-35 0 -52.5 -14t-17.5 -56v-44h117v-95h-117v-405
h-105v405zM421 500h105v-500h-105v500z" />
    <glyph glyph-name="fl" unicode="fl" horiz-adv-x="632" 
d="M108 405h-88v95h88v51q0 48 10 79t28.5 49.5t46 26t63.5 7.5q17 0 36 -1.5t39 -3.5v-97q-27 3 -48 3q-35 0 -52.5 -14t-17.5 -56v-44h117v-95h-117v-405h-105v405zM577 0q-17 -2 -32 -4t-30 -2q-23 0 -42.5 5.5t-33.5 19.5t-22 37.5t-8 60.5v583h105v-576q0 -24 15.5 -28
t47.5 1v-97z" />
    <glyph glyph-name=".notdef" horiz-adv-x="493" 
d="M71 -90v842h351v-842h-351zM390 722h-288v-782h288v782z" />
    <glyph glyph-name=".null" horiz-adv-x="0" 
 />
    <glyph glyph-name=".null" horiz-adv-x="0" 
 />
    <glyph glyph-name="uni000D" unicode="&#xd;" horiz-adv-x="250" 
 />
    <glyph glyph-name="space" unicode=" " horiz-adv-x="257" 
 />
    <glyph glyph-name="exclam" unicode="!" horiz-adv-x="257" 
d="M85 205l-19 495h128l-18 -495h-91zM66 55q0 64 64 64q30 0 46.5 -16.5t16.5 -47.5q0 -32 -16.5 -48.5t-46.5 -16.5q-64 0 -64 65z" />
    <glyph glyph-name="quotedbl" unicode="&#x22;" horiz-adv-x="375" 
d="M65 674h99v-100l-28 -180h-42l-29 180v100zM211 674h99v-100l-28 -180h-42l-29 180v100z" />
    <glyph glyph-name="numbersign" unicode="#" horiz-adv-x="607" 
d="M242 0l59 175h-102l-58 -175h-80l59 175h-101l22 69h102l60 179h-102l21 69h104l58 175h80l-58 -175h101l58 175h80l-59 -175h102l-20 -69h-104l-61 -179h106l-22 -69h-107l-58 -175h-80zM384 423h-101l-60 -179h100z" />
    <glyph glyph-name="dollar" unicode="$" horiz-adv-x="605" 
d="M269 768h80v-93q122 -12 201 -91l-67 -83q-56 59 -139 70v-175q44 -11 84 -25.5t70.5 -37t48.5 -56t18 -82.5q0 -45 -15.5 -81t-43.5 -62t-68 -41.5t-89 -20.5v-90h-80v90q-76 5 -134.5 33t-98.5 71l65 87q34 -38 78 -61t98 -29v197q-42 10 -81.5 23t-70.5 34.5
t-49.5 54.5t-18.5 82q0 38 15 71.5t42.5 59.5t66.5 42.5t88 20.5v92zM177 493q0 -34 27 -51t73 -31v166q-45 -2 -72.5 -25.5t-27.5 -58.5zM344 91q47 5 74.5 27.5t27.5 63.5q0 20 -7 34t-20.5 24t-32 18t-42.5 15v-182z" />
    <glyph glyph-name="percent" unicode="%" horiz-adv-x="747" 
d="M194 346q-37 0 -67.5 12.5t-52.5 35t-34 52.5t-12 65t12 65.5t34 53t52.5 35t67.5 12.5t67.5 -12.5t52.5 -35t34 -53t12 -65.5t-12 -65t-33.5 -52.5t-52 -35t-68.5 -12.5zM129 0l426 667h68l-427 -667h-67zM194 413q38 0 63.5 26.5t25.5 71.5t-25.5 72.5t-63.5 27.5
t-63 -27.5t-25 -72.5q0 -44 25 -71t63 -27zM553 -12q-37 0 -67.5 12.5t-52.5 35t-34 52.5t-12 65t12 65.5t34 53t52.5 35t67.5 12.5t67.5 -12.5t52.5 -35t34 -53t12 -65.5t-12 -65t-33.5 -52.5t-52 -35t-68.5 -12.5zM553 55q38 0 63.5 26.5t25.5 71.5t-25.5 72.5t-63.5 27.5
q-39 0 -64 -27.5t-25 -72.5q0 -44 24.5 -71t64.5 -27z" />
    <glyph glyph-name="ampersand" unicode="&#x26;" horiz-adv-x="648" 
d="M114 534q0 35 13.5 61.5t37 44.5t56 27.5t70.5 9.5q77 0 121 -36t44 -108q0 -57 -31 -95t-87 -77l115 -133q9 14 14 38.5t4 50.5h100q0 -26 -2 -47.5t-7 -41.5t-12 -39t-18 -40l141 -149h-131l-71 79q-26 -23 -55.5 -39t-58 -26.5t-54 -15t-45.5 -4.5q-47 0 -88 11.5
t-71 34.5t-47.5 57.5t-17.5 81.5q0 35 11.5 63.5t32.5 52.5t49 45t61 40q-20 24 -34 44t-23 37.5t-13 35t-4 37.5zM291 594q-38 0 -57.5 -14.5t-19.5 -47.5q0 -17 6.5 -33t15.5 -29.5t19 -25t17 -19.5q34 22 59 46t25 62q0 61 -65 61zM254 315q-33 -19 -55 -35t-35.5 -31.5
t-19.5 -32t-6 -37.5q0 -48 32.5 -72t87.5 -24q37 0 73 16t69 52z" />
    <glyph glyph-name="quotesingle" unicode="'" horiz-adv-x="175" 
d="M56 700h99v-100l-29 -180h-42l-28 180v100z" />
    <glyph glyph-name="parenleft" unicode="(" horiz-adv-x="276" 
d="M194 -94q-36 43 -64 95.5t-47.5 109.5t-30 117t-10.5 120t10.5 120t30 117t47.5 109.5t64 95.5l65 -49q-27 -50 -46.5 -96.5t-32 -93.5t-18.5 -96.5t-6 -106.5q0 -56 6 -105.5t18.5 -96.5t32 -93.5t46.5 -96.5z" />
    <glyph glyph-name="parenright" unicode=")" horiz-adv-x="277" 
d="M83 790q36 -43 64 -95.5t47.5 -109.5t30 -117t10.5 -120t-10.5 -120t-30 -117t-47.5 -109.5t-64 -95.5l-65 50q27 50 46.5 96.5t32 93.5t18.5 96.5t6 105.5q0 57 -6 106.5t-18.5 96.5t-32 93.5t-46.5 96.5z" />
    <glyph glyph-name="asterisk" unicode="*" horiz-adv-x="347" 
d="M128 527l-99 51l28 48l94 -61l-5 112h55l-5 -112l94 61l28 -48l-100 -51l100 -51l-28 -48l-94 60l5 -112h-55l5 112l-94 -60l-28 48z" />
    <glyph glyph-name="plus" unicode="+" horiz-adv-x="502" 
d="M288 304v-208h-74v208h-185v67h185v201h74v-201h185v-67h-185z" />
    <glyph glyph-name="comma" unicode="," horiz-adv-x="220" 
d="M49 -85l33 75q-26 6 -33 17t-7 40q0 59 57 59q28 0 44 -16t16 -45q0 -16 -2 -28.5t-6.5 -24t-11 -23t-16.5 -25.5l-41 -56z" />
    <glyph glyph-name="hyphen" unicode="-" horiz-adv-x="360" 
d="M45 197v90h240v-90h-240z" />
    <glyph glyph-name="period" unicode="." horiz-adv-x="216" 
d="M65 48q0 28 15 43.5t43 15.5t43 -15.5t15 -43.5q0 -29 -15 -44.5t-43 -15.5t-43 15.5t-15 44.5z" />
    <glyph glyph-name="slash" unicode="/" horiz-adv-x="345" 
d="M345 687l-237 -707h-108l237 707h108z" />
    <glyph glyph-name="zero" unicode="0" horiz-adv-x="625" 
d="M298 -13q-66 0 -117.5 26.5t-87 74t-54.5 114.5t-19 148t19 148t54.5 114.5t87 74t117.5 26.5q65 0 116.5 -26.5t87.5 -74t55 -114.5t19 -148t-19 -148t-55 -114.5t-87.5 -74t-116.5 -26.5zM298 99q75 0 121 61.5t46 189.5q0 129 -46 190.5t-121 61.5q-76 0 -121.5 -61.5
t-45.5 -190.5q0 -128 45.5 -189.5t121.5 -61.5z" />
    <glyph glyph-name="one" unicode="1" horiz-adv-x="625" 
d="M72 605l178 95h111v-595h197v-105h-520v105h212v478l-121 -65z" />
    <glyph glyph-name="two" unicode="2" horiz-adv-x="625" 
d="M45 29q3 41 16 88t38.5 91t64 81.5t93.5 60.5q34 15 66.5 28.5t58 30t41 37.5t15.5 50t-12.5 51t-32 36.5t-43 22t-44.5 7.5q-30 0 -57.5 -6t-50 -19t-38 -33.5t-20.5 -48.5l-105 11q7 48 32 84.5t61.5 61t82.5 37.5t95 13q44 0 86.5 -14t76.5 -41t54.5 -66.5t20.5 -90.5
q0 -52 -19.5 -88.5t-52.5 -63.5t-77.5 -48t-95.5 -41q-49 -20 -79 -62t-46 -92h382v-105h-511v28z" />
    <glyph glyph-name="three" unicode="3" horiz-adv-x="625" 
d="M526 515q0 -45 -20 -81t-55 -62q45 -28 70 -70.5t25 -96.5q0 -47 -19.5 -86.5t-53.5 -68.5t-80.5 -45t-100.5 -16q-49 0 -92 14t-76.5 39t-54.5 59.5t-25 75.5l114 9q12 -43 49 -68.5t85 -25.5q31 0 57.5 9t45.5 24.5t30 37t11 46.5q0 26 -11 47t-30 37t-45.5 24.5
t-57.5 8.5h-36l1 90l35 -1q55 0 90.5 28.5t35.5 71.5q0 21 -9.5 39t-26.5 31.5t-40 21t-51 7.5q-39 0 -73 -17.5t-48 -51.5l-110 7q6 35 26.5 64.5t51 50.5t70 33t83.5 12q51 0 94.5 -14.5t74.5 -41t48.5 -62.5t17.5 -79z" />
    <glyph glyph-name="four" unicode="4" horiz-adv-x="625" 
d="M375 145h-351v105l228 450h123l-228 -450h228v168h111v-168h80v-105h-80v-145h-111v145z" />
    <glyph glyph-name="five" unicode="5" horiz-adv-x="625" 
d="M547 226q0 -114 -64.5 -175.5t-183.5 -61.5q-112 0 -178 48.5t-76 136.5l105 12q13 -48 51.5 -71t97.5 -23q70 0 107 34.5t37 99.5q0 53 -37 81t-107 28h-147v1l-76 -1l47 365h400v-105h-309l-20 -166h105q119 0 183.5 -52.5t64.5 -150.5z" />
    <glyph glyph-name="six" unicode="6" horiz-adv-x="625" 
d="M294 481q57 0 105 -19t83 -52t54.5 -78t19.5 -98t-19.5 -98t-54.5 -78t-83 -51.5t-105 -18.5t-104.5 18.5t-82.5 51.5t-54.5 78t-19.5 98q0 69 32 124v1q2 4 4.5 7t4.5 7l206 327h128l-139 -220q6 1 12.5 1h12.5zM294 374q-31 0 -58 -11t-47 -29.5t-31.5 -44t-11.5 -55.5
t11.5 -55.5t32 -43.5t47.5 -28.5t57 -10.5q32 0 59 10.5t47 29.5t31.5 44t11.5 54t-11.5 54.5t-31.5 44.5t-47 30t-59 11z" />
    <glyph glyph-name="seven" unicode="7" horiz-adv-x="625" 
d="M420 595h-376v105h509v-81l-277 -619h-121z" />
    <glyph glyph-name="eight" unicode="8" horiz-adv-x="625" 
d="M298 -13q-59 0 -106 15t-80 42.5t-50.5 67.5t-17.5 89q0 60 24.5 101.5t71.5 64.5q-38 22 -58 57.5t-20 88.5q0 94 62.5 147t173.5 53q110 0 173 -53t63 -147q0 -53 -20.5 -89t-58.5 -57q46 -24 71 -65t25 -101q0 -49 -17.5 -89t-50 -67.5t-79.5 -42.5t-106 -15zM298 614
q-60 0 -94 -27t-34 -74t34 -73.5t94 -26.5t94 26.5t34 73.5t-34 74t-94 27zM298 322q-67 0 -108 -29.5t-41 -84.5q0 -56 41 -87.5t108 -31.5t107.5 31.5t40.5 87.5q0 55 -40.5 84.5t-107.5 29.5z" />
    <glyph glyph-name="nine" unicode="9" horiz-adv-x="625" 
d="M293 219q-57 0 -105 19t-83 52t-54.5 78t-19.5 98q0 54 19.5 99t54.5 78t83 51.5t105 18.5t104.5 -18.5t82.5 -51.5t54.5 -78t19.5 -99q0 -39 -10.5 -74t-30.5 -64l-206 -328h-128l139 220q-7 -1 -13 -1h-12zM293 327q31 0 58 10.5t47 29.5t31.5 44t11.5 55t-11.5 55.5
t-32 44t-47.5 29t-57 10.5q-32 0 -59 -10.5t-47 -29.5t-31.5 -44.5t-11.5 -54.5t11.5 -54.5t31.5 -44t47.5 -29.5t58.5 -11z" />
    <glyph glyph-name="colon" unicode=":" horiz-adv-x="232" 
d="M45 425q0 31 17 47.5t47 16.5q63 0 63 -64q0 -65 -63 -65q-64 0 -64 65zM45 55q0 31 17 47.5t47 16.5q63 0 63 -64q0 -65 -63 -65q-64 0 -64 65z" />
    <glyph glyph-name="semicolon" unicode=";" horiz-adv-x="245" 
d="M59 425q0 64 64 64q30 0 46.5 -16.5t16.5 -47.5q0 -32 -16.5 -48.5t-46.5 -16.5q-64 0 -64 65zM66 -97l39 88q-28 7 -37 19.5t-9 44.5q0 64 64 64q30 0 47.5 -17.5t17.5 -49.5q0 -18 -2.5 -32t-7 -27t-12.5 -26.5t-19 -30.5l-45 -63z" />
    <glyph glyph-name="less" unicode="&#x3c;" horiz-adv-x="502" 
d="M29 297v76l444 207v-80l-364 -166l364 -163v-81z" />
    <glyph glyph-name="equal" unicode="=" horiz-adv-x="502" 
d="M29 396v67h444v-67h-444zM29 205v68h444v-68h-444z" />
    <glyph glyph-name="greater" unicode="&#x3e;" horiz-adv-x="502" 
d="M29 90v81l365 163l-365 166v80l444 -207v-76z" />
    <glyph glyph-name="question" unicode="?" horiz-adv-x="459" 
d="M171 202v115q0 46 22.5 74.5t49.5 50t49.5 42.5t22.5 53q0 30 -23.5 51t-71.5 21q-45 0 -79 -18t-60 -52l-68 75q41 50 97.5 74.5t120.5 24.5q47 0 84.5 -11.5t63.5 -32.5t40.5 -49.5t14.5 -63.5q0 -36 -12 -62.5t-30 -47t-38.5 -36.5t-38.5 -31.5t-30 -32.5t-12 -40
v-104h-102zM164 49q0 59 58 59t58 -59t-58 -59t-58 59z" />
    <glyph glyph-name="at" unicode="@" horiz-adv-x="910" 
d="M627 176q0 -31 19 -46.5t43 -15.5q15 0 28.5 11t23 30.5t15.5 46.5t6 59q0 72 -23.5 131t-66 101t-102 65t-131.5 23q-70 0 -129 -24t-102.5 -66.5t-68.5 -101t-26 -128.5t24 -128.5t69.5 -101.5t106.5 -67t135 -24q31 0 67 9.5t62 23.5l44 -70q-29 -22 -77.5 -36
t-95.5 -15q-92 -2 -169.5 28t-134 84.5t-88 130.5t-31.5 166q0 88 31 162t86 127.5t131 83.5t166 30t164 -29t126.5 -82t81.5 -127t29 -165q0 -51 -11.5 -92t-31 -69t-45.5 -43t-55 -15q-51 0 -88.5 17t-55.5 47q-26 -21 -59 -33t-70 -12q-43 0 -79 15t-62.5 41.5t-41 63.5
t-14.5 80t14.5 79.5t41 63t62.5 41.5t79 15q64 0 115 -34v12h88v-262zM428 151q48 0 79.5 31t31.5 79t-31.5 79t-79.5 31q-46 0 -75 -31t-29 -79t29 -79t75 -31z" />
    <glyph glyph-name="A" unicode="A" horiz-adv-x="694" 
d="M272 700h120l262 -700h-119l-56 151h-293l-56 -151h-120zM439 256l-107 286l-107 -286h214z" />
    <glyph glyph-name="B" unicode="B" horiz-adv-x="634" 
d="M63 0v700h293q39 0 73.5 -15.5t60 -41.5t40.5 -61t15 -74t-14.5 -74.5t-40.5 -63.5q38 -28 59.5 -70.5t21.5 -92.5q0 -42 -16 -80t-43 -66t-63 -44.5t-77 -16.5h-309zM356 411q17 0 32.5 7t27.5 20t19 30t7 36q0 20 -7 36.5t-19 28.5t-27.5 18.5t-32.5 6.5h-182v-184z
M372 106q19 0 36 8t29.5 22t20 32.5t7.5 38.5q0 21 -7.5 39.5t-20 32.5t-29.5 22t-36 8h-198v-203h198z" />
    <glyph glyph-name="C" unicode="C" horiz-adv-x="773" 
d="M40 348q0 75 28.5 140.5t77.5 114.5t114.5 77.5t140.5 28.5q51 0 98 -13.5t88 -38t74 -58.5t56 -76l-97 -53q-16 29 -39 52.5t-51.5 40t-61 26t-67.5 9.5q-52 0 -97.5 -19.5t-79.5 -53.5t-53.5 -79.5t-19.5 -97.5t19.5 -97.5t53.5 -79.5t79.5 -53.5t97.5 -19.5
q72 0 129.5 36t89.5 94l98 -53q-23 -42 -56 -76.5t-74 -59.5t-88.5 -38.5t-98.5 -13.5q-75 0 -140.5 28.5t-114.5 77.5t-77.5 114.5t-28.5 140.5z" />
    <glyph glyph-name="D" unicode="D" horiz-adv-x="759" 
d="M63 700h267q75 0 140 -27t114 -74.5t77 -111.5t28 -139t-28 -138.5t-77 -110t-114 -73t-140 -26.5h-267v700zM174 595v-490h156q52 0 97 18.5t78.5 51.5t53 77.5t19.5 96.5t-19.5 97t-53 78t-78.5 52t-97 19h-156z" />
    <glyph glyph-name="E" unicode="E" horiz-adv-x="537" 
d="M60 700h409v-105h-298v-188h273v-105h-273v-197h303v-105h-414v700z" />
    <glyph glyph-name="F" unicode="F" horiz-adv-x="535" 
d="M63 700h409v-105h-298v-197h286v-105h-286v-293h-111v700z" />
    <glyph glyph-name="G" unicode="G" horiz-adv-x="820" 
d="M40 348q0 75 28.5 140.5t77.5 114.5t114.5 77.5t140.5 28.5q47 0 90.5 -11.5t82 -32.5t70.5 -50.5t56 -65.5l-88 -67q-33 52 -88.5 84t-122.5 32q-52 0 -97.5 -19.5t-79.5 -53.5t-53.5 -79.5t-19.5 -97.5t19.5 -97.5t53.5 -79.5t79.5 -53.5t97.5 -19.5q43 0 80.5 11.5
t67.5 32t51 49.5t31 63h-251v105h372v-52q0 -66 -27.5 -124t-74.5 -101.5t-111 -69t-138 -25.5q-75 0 -140.5 28.5t-114.5 77.5t-77.5 114.5t-28.5 140.5z" />
    <glyph glyph-name="H" unicode="H" horiz-adv-x="721" 
d="M63 700h111v-289h343v289h111v-700h-111v306h-343v-306h-111v700z" />
    <glyph glyph-name="I" unicode="I" horiz-adv-x="266" 
d="M63 700h111v-700h-111v700z" />
    <glyph glyph-name="J" unicode="J" horiz-adv-x="574" 
d="M378 700h111v-484q0 -51 -17.5 -93t-49.5 -72t-76 -47t-98 -17q-156 0 -223 127l91 53q25 -43 55.5 -61t80.5 -18q58 0 92 31t34 97v484z" />
    <glyph glyph-name="K" unicode="K" horiz-adv-x="660" 
d="M486 0l-242 295l-70 -79v-216h-111v700h111v-316l287 316h144l-286 -321l306 -378z" />
    <glyph glyph-name="L" unicode="L" horiz-adv-x="528" 
d="M63 700h111v-595h306v-105h-417v700z" />
    <glyph glyph-name="M" unicode="M" horiz-adv-x="823" 
d="M397 330l219 370l3 -2v2h111v-700h-111v499l-208 -351h-28l-209 352v-501h-111v701h111v-2l4 2z" />
    <glyph glyph-name="N" unicode="N" horiz-adv-x="690" 
d="M63 700h111l313 -482v482h111v-700h-96l-328 509v-509h-111v700z" />
    <glyph glyph-name="O" unicode="O" horiz-adv-x="832" 
d="M401 -13q-75 0 -140.5 28.5t-114.5 77.5t-77.5 114.5t-28.5 140.5t28.5 140.5t77.5 114.5t114.5 77.5t140.5 28.5t140.5 -28.5t114.5 -77.5t77.5 -114.5t28.5 -140.5t-28.5 -140.5t-77.5 -114.5t-114.5 -77.5t-140.5 -28.5zM401 98q52 0 97.5 19.5t79.5 53.5t53.5 79.5
t19.5 97.5t-19.5 97.5t-53.5 79.5t-79.5 53.5t-97.5 19.5t-97.5 -19.5t-79.5 -53.5t-53.5 -79.5t-19.5 -97.5t19.5 -97.5t53.5 -79.5t79.5 -53.5t97.5 -19.5z" />
    <glyph glyph-name="P" unicode="P" horiz-adv-x="598" 
d="M174 251v-251h-111v700h247q47 0 88 -17.5t71.5 -48t48 -71t17.5 -87.5t-17.5 -88t-48 -71.5t-71.5 -48t-88 -17.5h-136zM310 357q25 0 46.5 9.5t37.5 25.5t25.5 37.5t9.5 46.5q0 24 -9.5 45.5t-25.5 37.5t-37.5 25.5t-46.5 9.5h-136v-237h136z" />
    <glyph glyph-name="Q" unicode="Q" horiz-adv-x="847" 
d="M401 -13q-75 0 -140.5 28.5t-114.5 77.5t-77.5 114.5t-28.5 140.5t28.5 140.5t77.5 114.5t114.5 77.5t140.5 28.5t140.5 -28.5t114.5 -77.5t77.5 -114.5t28.5 -140.5q0 -66 -22.5 -125t-62.5 -107l72 -72l-78 -79l-77 78q-42 -27 -90.5 -41.5t-102.5 -14.5zM401 98
q61 0 111 26l-90 90l79 79l98 -98q24 32 38 70.5t14 82.5q0 52 -19.5 97.5t-53.5 79.5t-79.5 53.5t-97.5 19.5t-97.5 -19.5t-79.5 -53.5t-53.5 -79.5t-19.5 -97.5t19.5 -97.5t53.5 -79.5t79.5 -53.5t97.5 -19.5z" />
    <glyph glyph-name="R" unicode="R" horiz-adv-x="644" 
d="M60 700h278q47 0 87.5 -17.5t71.5 -48t48.5 -71t17.5 -87.5q0 -67 -34.5 -120.5t-89.5 -81.5l155 -274h-127l-142 251h-154v-251h-111v700zM338 357q24 0 46 9.5t38 25.5t25.5 37.5t9.5 46.5q0 24 -9.5 45.5t-25.5 37.5t-38 25.5t-46 9.5h-167v-237h167z" />
    <glyph glyph-name="S" unicode="S" horiz-adv-x="639" 
d="M317 -13q-113 0 -186.5 47t-102.5 123l106 55q21 -54 66.5 -85t119.5 -31q35 0 62 9t45.5 23.5t28 32.5t9.5 36q0 44 -45 66.5t-131 45.5q-45 13 -86.5 28t-73.5 38t-51 56t-19 81q0 47 19.5 84t52.5 63t77 40t92 14q94 0 159.5 -42t100.5 -111l-108 -54q-21 47 -58.5 72
t-93.5 25q-30 0 -53 -8t-39.5 -20.5t-25 -29t-8.5 -34.5q0 -23 10.5 -38t31 -26t50.5 -20.5t70 -21.5q46 -13 90.5 -29t79 -39.5t55.5 -57.5t21 -85q0 -47 -20 -85t-55.5 -65t-84 -42t-105.5 -15z" />
    <glyph glyph-name="T" unicode="T" horiz-adv-x="571" 
d="M215 595h-200v105h511v-105h-200v-595h-111v595z" />
    <glyph glyph-name="U" unicode="U" horiz-adv-x="669" 
d="M55 700h111v-463q0 -64 43 -101.5t110 -37.5q72 0 113 37.5t41 101.5v463h111v-463q0 -56 -19.5 -102t-55 -79t-84 -51t-106.5 -18t-106.5 18t-83.5 51t-54.5 79t-19.5 102v463z" />
    <glyph glyph-name="V" unicode="V" horiz-adv-x="661" 
d="M8 700h117l193 -546l193 546h118l-249 -700h-124z" />
    <glyph glyph-name="W" unicode="W" horiz-adv-x="1006" 
d="M18 700h114l143 -528l155 528h116l155 -528l143 528h114l-194 -700h-121l-155 512l-155 -512h-121z" />
    <glyph glyph-name="X" unicode="X" horiz-adv-x="675" 
d="M495 0l-172 267l-172 -267h-133l228 352l-225 348h133l169 -262l169 262h133l-226 -348l229 -352h-133z" />
    <glyph glyph-name="Y" unicode="Y" horiz-adv-x="658" 
d="M259 258l-254 442h126l183 -316l183 316h126l-253 -442v-258h-111v258z" />
    <glyph glyph-name="Z" unicode="Z" horiz-adv-x="562" 
d="M360 595h-316v105h454v-83l-321 -512h325v-105h-462v84z" />
    <glyph glyph-name="bracketleft" unicode="[" horiz-adv-x="265" 
d="M247 -6v-72h-203v868h203v-72h-125v-724h125z" />
    <glyph glyph-name="backslash" unicode="\" horiz-adv-x="345" 
d="M0 687h108l237 -707h-108z" />
    <glyph glyph-name="bracketright" unicode="]" horiz-adv-x="265" 
d="M221 790v-868h-203v72h125v724h-125v72h203z" />
    <glyph glyph-name="asciicircum" unicode="^" horiz-adv-x="437" 
d="M338 333l-119 261l-119 -261h-81l162 334h77l160 -334h-80z" />
    <glyph glyph-name="underscore" unicode="_" horiz-adv-x="564" 
d="M567 -40v-72h-570v72h570z" />
    <glyph glyph-name="grave" unicode="`" horiz-adv-x="240" 
d="M100 700l140 -144h-75l-165 144h100z" />
    <glyph glyph-name="a" unicode="a" horiz-adv-x="619" 
d="M441 68q-27 -36 -67 -58.5t-94 -22.5q-57 0 -102.5 20t-77.5 55.5t-49.5 83.5t-17.5 103q0 56 17.5 104t49.5 83.5t77.5 55.5t102.5 20q54 0 94 -22.5t67 -58.5v69h105v-500h-105v68zM283 85q34 0 63 12.5t50 34.5t33 52.5t12 65.5t-12 65t-33 52t-50 34t-63 12
q-33 0 -60 -13t-46.5 -35.5t-30 -52t-10.5 -63.5t10.5 -63.5t30 -52t46.5 -35.5t60 -13z" />
    <glyph glyph-name="b" unicode="b" horiz-adv-x="625" 
d="M43 700h105v-271q27 37 67 60t95 23q57 0 102.5 -20t77.5 -55.5t49.5 -83.5t17.5 -104q0 -55 -17.5 -103t-49.5 -83.5t-77.5 -55.5t-102.5 -20q-55 0 -95 22.5t-67 59.5v-69h-105v700zM307 85q33 0 60 13t46.5 35.5t30 52t10.5 63.5t-10.5 63.5t-30 52t-46.5 35.5t-60 13
q-34 0 -63 -12t-50 -34t-33 -52t-12 -65t12 -65.5t33 -52.5t50 -34.5t63 -12.5z" />
    <glyph glyph-name="c" unicode="c" horiz-adv-x="558" 
d="M508 97q-35 -50 -91 -80t-122 -30q-54 0 -102 20.5t-83.5 56.5t-56 84t-20.5 102t20.5 101.5t56 83.5t83.5 56.5t102 20.5q66 0 121 -29.5t91 -79.5l-86 -58q-24 29 -56 45.5t-70 16.5q-33 0 -61.5 -12.5t-49.5 -33.5t-33.5 -49.5t-12.5 -61.5t12.5 -61.5t33.5 -50
t49.5 -34t61.5 -12.5q38 0 70.5 17t55.5 45z" />
    <glyph glyph-name="d" unicode="d" horiz-adv-x="618" 
d="M546 0h-105v67q-28 -35 -67.5 -57.5t-93.5 -22.5q-57 0 -102.5 20t-77.5 55.5t-49.5 83.5t-17.5 103q0 56 17.5 104t49.5 83.5t77.5 55.5t102.5 20q54 0 93.5 -22.5t67.5 -58.5v269h105v-700zM283 85q34 0 63 12.5t50 34.5t33 52.5t12 65.5t-12 65t-33 52t-50 34t-63 12
q-33 0 -60 -13t-46.5 -35.5t-30 -52t-10.5 -63.5t10.5 -63.5t30 -52t46.5 -35.5t60 -13z" />
    <glyph glyph-name="e" unicode="e" horiz-adv-x="606" 
d="M295 513q56 0 102 -21t79 -57t51.5 -84t18.5 -102q0 -11 -1 -19.5t-3 -18.5h-404q11 -57 55 -94.5t112 -37.5q42 0 79 18t55 47l82 -48q-34 -51 -89.5 -80t-128.5 -29q-61 0 -111 20t-85 55.5t-54.5 83.5t-19.5 104t19 104t53.5 83t83 55.5t106.5 20.5zM446 294
q-8 60 -48.5 93.5t-103.5 33.5q-33 0 -61.5 -10.5t-49.5 -28t-33.5 -40.5t-12.5 -48h309z" />
    <glyph glyph-name="f" unicode="f" horiz-adv-x="366" 
d="M108 405h-88v95h88v51q0 48 9.5 79t28.5 49.5t46.5 26t63.5 7.5q17 0 36 -1.5t39 -3.5v-97q-27 3 -48 3q-35 0 -52.5 -14t-17.5 -56v-44h117v-95h-117v-405h-105v405z" />
    <glyph glyph-name="g" unicode="g" horiz-adv-x="638" 
d="M455 67q-27 -35 -66.5 -57.5t-93.5 -22.5q-57 0 -103 20t-78 55.5t-49.5 83.5t-17.5 103q0 56 17.5 104t49.5 83.5t78 55.5t103 20q54 0 93.5 -22.5t66.5 -58.5v69h105v-475q0 -54 -20.5 -98t-56.5 -75t-85.5 -48t-107.5 -17q-44 0 -83.5 9t-72.5 24.5t-58 38t-39 49.5
l90 52q15 -30 57 -53t109 -23q35 0 64.5 10t51.5 28.5t34 44.5t12 58v42zM297 85q34 0 63 12.5t50 34.5t33 52.5t12 65.5t-12 65t-33 52t-50 34t-63 12q-33 0 -60 -13t-46.5 -35.5t-30 -52t-10.5 -63.5t10.5 -63.5t30 -52t46.5 -35.5t60 -13z" />
    <glyph glyph-name="h" unicode="h" horiz-adv-x="556" 
d="M43 700h105v-248q24 25 58 41.5t76 16.5q27 0 61.5 -8.5t65.5 -31.5t52.5 -64.5t21.5 -106.5v-299h-105v297q0 36 -11.5 59t-28.5 36.5t-38 19t-41 5.5q-16 0 -33.5 -4.5t-33 -15.5t-27 -29t-17.5 -45v-323h-105v700z" />
    <glyph glyph-name="i" unicode="i" horiz-adv-x="245" 
d="M108 624q-24 0 -41.5 17.5t-17.5 41.5q0 25 17.5 42t41.5 17t41.5 -17t17.5 -42q0 -24 -17.5 -41.5t-41.5 -17.5zM55 500h105v-500h-105v500z" />
    <glyph glyph-name="j" unicode="j" horiz-adv-x="279" 
d="M141 598q-30 0 -47.5 16.5t-17.5 45.5t17.5 45.5t47.5 16.5t47.5 -16.5t17.5 -45.5t-17.5 -45.5t-47.5 -16.5zM88 500h105v-529q0 -46 -15.5 -82t-43 -60t-67 -35t-87.5 -7v101q57 -5 82.5 15t25.5 68v529z" />
    <glyph glyph-name="k" unicode="k" horiz-adv-x="554" 
d="M43 700h105v-433l210 233h146l-205 -223l213 -277h-132l-153 199l-79 -86v-113h-105v700z" />
    <glyph glyph-name="l" unicode="l" horiz-adv-x="266" 
d="M211 0q-17 -2 -32 -4t-30 -2q-23 0 -42.5 5.5t-33.5 19.5t-22 37.5t-8 60.5v583h105v-576q0 -24 15.5 -28t47.5 1v-97z" />
    <glyph glyph-name="m" unicode="m" horiz-adv-x="891" 
d="M819 0h-105v299q0 36 -11.5 59t-29 37t-38.5 19.5t-41 5.5q-19 0 -39 -6.5t-36 -22.5t-26 -43t-10 -68v-280h-105v299q0 36 -11.5 59t-28.5 37t-38 19.5t-41 5.5q-19 0 -39 -6.5t-36 -22.5t-26 -43t-10 -68v-280h-105v500h105v-47q24 25 58 42.5t76 17.5q20 0 43.5 -4.5
t47.5 -15t45.5 -29t37.5 -46.5q11 18 27 35t36.5 30.5t45.5 21.5t53 8q27 0 62 -8.5t65.5 -32.5t52 -65.5t21.5 -107.5v-299z" />
    <glyph glyph-name="n" unicode="n" horiz-adv-x="560" 
d="M488 0h-105v299q0 36 -11.5 59t-29 37t-38.5 19.5t-41 5.5q-19 0 -39.5 -6.5t-37.5 -22.5t-27.5 -43t-10.5 -68v-280h-105v500h105v-50q25 26 60 44.5t79 18.5q27 0 62 -8.5t65.5 -32.5t52 -65.5t21.5 -107.5v-299z" />
    <glyph glyph-name="o" unicode="o" horiz-adv-x="620" 
d="M295 -13q-54 0 -102 20.5t-83.5 56.5t-56 84t-20.5 102t20.5 101.5t56 83.5t83.5 56.5t102 20.5t102 -20.5t83.5 -56.5t56 -83.5t20.5 -101.5t-20.5 -102t-56 -84t-83.5 -56.5t-102 -20.5zM295 92q33 0 61.5 12.5t49.5 34t33.5 50t12.5 61.5t-12.5 61.5t-33.5 49.5
t-49.5 33.5t-61.5 12.5t-61.5 -12.5t-50 -33.5t-34 -49.5t-12.5 -61.5t12.5 -61.5t34 -50t50 -34t61.5 -12.5z" />
    <glyph glyph-name="p" unicode="p" horiz-adv-x="618" 
d="M43 500h105v-68q27 35 66.5 57.5t93.5 22.5q57 0 103 -20t78 -55t49.5 -83t17.5 -104t-17.5 -104t-49.5 -83.5t-78 -55.5t-103 -20q-54 0 -93.5 22.5t-66.5 58.5v-268h-105v700zM306 414q-34 0 -63 -12.5t-50 -34.5t-33 -52.5t-12 -65.5t12 -64.5t33 -51.5t50 -34t63 -12
q33 0 60 13t46.5 35t30 52t10.5 63q0 34 -10.5 63.5t-30 52t-46.5 35.5t-60 13z" />
    <glyph glyph-name="q" unicode="q" horiz-adv-x="618" 
d="M546 -175l-105 -25v268q-28 -36 -67.5 -58.5t-93.5 -22.5q-57 0 -102.5 20t-77.5 55.5t-49.5 83.5t-17.5 104t17.5 104t49.5 83t77.5 55t102.5 20q54 0 93.5 -22.5t67.5 -57.5v68h105v-675zM283 414q-33 0 -60 -13t-46.5 -35.5t-30 -52t-10.5 -63.5q0 -33 10.5 -63
t30 -52t46.5 -35t60 -13q34 0 63 12t50 34t33 51.5t12 64.5t-12 65.5t-33 52.5t-50 34.5t-63 12.5z" />
    <glyph glyph-name="r" unicode="r" horiz-adv-x="365" 
d="M312 400q-5 2 -10 2h-10q-30 0 -56.5 -8t-47 -25t-32 -43t-11.5 -61v-265h-105v500h105v-91q16 36 56 63.5t102 27.5h17z" />
    <glyph glyph-name="s" unicode="s" horiz-adv-x="513" 
d="M154 362q0 -23 22 -34.5t55 -20t71.5 -17t71.5 -25t55 -45.5t22 -77q0 -37 -16.5 -66t-45 -49t-66.5 -30.5t-80 -10.5q-79 0 -133 30.5t-80 85.5l87 45q15 -39 48 -57t78 -18q20 0 39 4.5t34 13t24 21.5t9 30q0 25 -22.5 38.5t-55.5 22.5t-72.5 18t-72.5 25t-55.5 42.5
t-22.5 70.5q0 35 15.5 63.5t41.5 48.5t62 31t76 11q64 0 114 -27t77 -77l-86 -43q-28 61 -105 61q-42 0 -65.5 -17.5t-23.5 -47.5z" />
    <glyph glyph-name="t" unicode="t" horiz-adv-x="404" 
d="M341 0q-20 -2 -39 -3.5t-36 -1.5q-36 0 -63.5 7.5t-46 26t-28.5 49.5t-10 79v248h-103v95h103v130l105 36v-166h116v-95h-116v-241q0 -42 17.5 -56.5t52.5 -14.5q11 0 22.5 1t25.5 3v-97z" />
    <glyph glyph-name="u" unicode="u" horiz-adv-x="563" 
d="M48 500h105v-299q0 -36 11.5 -59t28.5 -36.5t38.5 -19t40.5 -5.5q20 0 40.5 6.5t37 22.5t27.5 43t11 68v279h105v-500h-105v50q-26 -26 -61 -44.5t-78 -18.5q-27 0 -62 8.5t-65.5 32.5t-52 65.5t-21.5 107.5v299z" />
    <glyph glyph-name="v" unicode="v" horiz-adv-x="557" 
d="M8 500h111l145 -376l144 376h112l-192 -500h-129z" />
    <glyph glyph-name="w" unicode="w" horiz-adv-x="802" 
d="M17 500h110l99 -335l100 335h113l102 -336l104 336h110l-162 -500h-105l-106 329l-104 -329h-104z" />
    <glyph glyph-name="x" unicode="x" horiz-adv-x="554" 
d="M197 250l-184 250h129l120 -163l120 163h129l-185 -250l185 -250l-129 -1l-120 163l-120 -163l-129 1z" />
    <glyph glyph-name="y" unicode="y" horiz-adv-x="555" 
d="M121 500l161 -347l125 347h111l-183 -510q-38 -96 -102 -146.5t-152 -43.5v101q30 -3 53 5.5t41.5 24t32 37t23.5 45.5l-223 487h113z" />
    <glyph glyph-name="z" unicode="z" horiz-adv-x="500" 
d="M428 500v-68h-1h1l-243 -332h253v-100h-400v68l246 332h-236v100h380z" />
    <glyph glyph-name="braceleft" unicode="{" horiz-adv-x="277" 
d="M5 386q26 0 39 19.5t13 48.5v186q0 34 11.5 61.5t31 47t45.5 30t54 10.5h61v-72h-61q-26 0 -45.5 -21t-19.5 -55v-197q0 -32 -11 -55t-34 -34q23 -10 34 -33t11 -56v-196q0 -34 19.5 -55.5t45.5 -21.5h61v-72h-61q-28 0 -54 10.5t-45.5 30t-31 47t-11.5 61.5v186
q0 29 -13 48.5t-39 19.5v62z" />
    <glyph glyph-name="bar" unicode="|" horiz-adv-x="214" 
d="M71 -80v827h72v-827h-72z" />
    <glyph glyph-name="braceright" unicode="}" horiz-adv-x="277" 
d="M272 324q-26 0 -39 -19.5t-13 -48.5v-186q0 -34 -11.5 -61.5t-31 -47t-45.5 -30t-54 -10.5h-61v72h61q26 0 45.5 21.5t19.5 55.5v196q0 33 11 56t34 33q-23 11 -34 34t-11 55v197q0 34 -19.5 55t-45.5 21h-61v72h61q28 0 54 -10.5t45.5 -30t31 -47t11.5 -61.5v-186
q0 -29 13 -48.5t39 -19.5v-62z" />
    <glyph glyph-name="asciitilde" unicode="~" horiz-adv-x="507" 
d="M481 659q-4 -44 -12 -87.5t-24 -78t-42 -55.5t-66 -21q-31 0 -51 13.5t-32.5 33.5t-20 44t-15.5 44t-18.5 33.5t-28.5 13.5q-16 0 -27.5 -14.5t-20 -39.5t-14 -58.5t-8.5 -70.5l-74 9q4 48 12.5 92t25 77t42.5 52.5t64 19.5q32 0 52 -13.5t33 -34t21 -44t15.5 -44
t17.5 -34t27 -13.5q19 0 31.5 17t20.5 44t12 59.5t7 63.5z" />
    <glyph glyph-name="uni00A0" unicode="&#xa0;" horiz-adv-x="258" 
 />
    <glyph glyph-name="exclamdown" unicode="&#xa1;" horiz-adv-x="244" 
d="M60 428q0 32 17 48.5t47 16.5q63 0 63 -65q0 -64 -63 -64q-64 0 -64 64zM77 285h91l18 -463h-128z" />
    <glyph glyph-name="cent" unicode="&#xa2;" horiz-adv-x="498" 
d="M39 242q0 50 15 92.5t42.5 75.5t65.5 54t84 28v73h78v-73q51 -6 88 -28.5t61 -54.5l-69 -63q-32 44 -85 50v-308q54 6 85 51l69 -65q-24 -32 -61 -54.5t-88 -28.5v-91h-78v91q-46 7 -84 28t-65.5 54t-42.5 76t-15 93zM147 242q0 -60 29 -102t79 -52v308
q-53 -11 -80.5 -53.5t-27.5 -100.5z" />
    <glyph glyph-name="sterling" unicode="&#xa3;" horiz-adv-x="536" 
d="M22 269v69h90q-29 35 -47 65.5t-18 71.5q0 46 20 83t53 63.5t75 41t86 14.5q77 0 133.5 -29t85.5 -88l-93 -55q-13 34 -44 55t-69 21q-51 0 -85.5 -30t-34.5 -78q0 -22 4 -37t12 -29t20.5 -29.5t29.5 -39.5h143v-69h-121q14 -40 -4 -81t-57 -68q13 5 25.5 6.5t23.5 1.5
q21 0 38.5 -6t34 -12.5t32.5 -12.5t33 -6q32 0 55.5 12t34.5 26l48 -93q-23 -23 -57 -36t-85 -13q-31 0 -54.5 7t-43.5 15.5t-39.5 15.5t-43.5 7q-23 0 -52.5 -10t-63.5 -29l-40 83q53 24 85.5 59t32.5 77q0 15 -3.5 29t-9.5 28h-130z" />
    <glyph glyph-name="currency" unicode="&#xa4;" horiz-adv-x="550" 
d="M275 107q-87 0 -148 55l-68 -69l-25 25l69 69q-25 31 -37.5 68t-12.5 78q0 86 50 147l-69 70l24 25l70 -70q30 27 67.5 40.5t79.5 13.5t79.5 -13.5t67.5 -39.5l68 68l25 -24l-69 -70q51 -62 51 -147q0 -41 -13 -78t-37 -68l68 -69l-25 -25l-68 69q-61 -55 -147 -55z
M275 146q40 0 73 14.5t57 40t37.5 59.5t13.5 73t-13.5 73t-37.5 59.5t-57 40t-73 14.5t-73.5 -14.5t-57.5 -40t-37.5 -59.5t-13.5 -73t13.5 -73t37.5 -59.5t57.5 -40t73.5 -14.5z" />
    <glyph glyph-name="yen" unicode="&#xa5;" horiz-adv-x="637" 
d="M261 0v118h-238v68h238v91h-238v68h194l-215 322h134l183 -285l183 285h134l-215 -322h194v-68h-237v-91h237v-68h-237v-118h-117z" />
    <glyph glyph-name="brokenbar" unicode="&#xa6;" horiz-adv-x="214" 
d="M143 687v-316h-72v316h72zM143 296v-316h-72v316h72z" />
    <glyph glyph-name="section" unicode="&#xa7;" horiz-adv-x="477" 
d="M435 321q0 -42 -22.5 -74.5t-65.5 -52.5q41 -17 64.5 -45.5t23.5 -76.5q0 -36 -15 -64.5t-41.5 -48t-63.5 -30t-81 -10.5q-72 0 -121 22t-85 56l47 68q27 -30 69 -51t90 -21q45 0 72.5 18.5t27.5 51.5q0 27 -21.5 41.5t-54 24t-70.5 18.5t-70.5 24.5t-54 42.5t-21.5 72
q0 25 8.5 45.5t23 36t33.5 26.5t40 17q-105 37 -105 126q0 30 14 55.5t38.5 44.5t59.5 29.5t77 10.5q68 0 113.5 -19t74.5 -50l-44 -62q-25 26 -61 41.5t-78 15.5t-67.5 -18t-25.5 -47q0 -24 21.5 -37t54 -22t70.5 -17.5t70.5 -24.5t54 -43t21.5 -73zM331 304q0 35 -26 52
t-70 28q-52 -13 -72 -34t-20 -50q0 -19 10.5 -32.5t27.5 -23t38.5 -15.5t42.5 -10q36 16 52.5 37t16.5 48z" />
    <glyph glyph-name="dieresis" unicode="&#xa8;" horiz-adv-x="285" 
d="M306 608q0 -24 -17 -41t-42 -17q-24 0 -41 17t-17 41q0 25 17 42t41 17q25 0 42 -17t17 -42zM97 608q0 -24 -17 -41t-42 -17q-24 0 -41.5 17t-17.5 41q0 25 17.5 42t41.5 17q25 0 42 -17t17 -42z" />
    <glyph glyph-name="copyright" unicode="&#xa9;" horiz-adv-x="778" 
d="M734 334q0 -71 -27 -134t-74 -110t-109.5 -74t-134.5 -27q-71 0 -134 27.5t-110 74.5t-74 109.5t-27 133.5q0 72 27 134.5t74 109.5t110 74t134 27q72 0 134.5 -27t109.5 -73.5t74 -109.5t27 -135zM700 334q0 65 -24.5 121.5t-66.5 98.5t-98.5 66.5t-121.5 24.5
q-64 0 -120.5 -24.5t-99 -66.5t-67 -98.5t-24.5 -121.5q0 -64 24.5 -120.5t67 -99t99 -67t120.5 -24.5q65 0 121.5 24.5t98.5 67t66.5 99t24.5 120.5zM541 190q-27 -32 -64.5 -50t-83.5 -18q-43 0 -81 16.5t-66 45t-44.5 67.5t-16.5 85q0 45 16.5 84t44.5 67t66 44t81 16
q46 0 83 -17t64 -49l-28 -29q-20 26 -51.5 42t-67.5 16q-34 0 -64.5 -13t-53 -36t-35.5 -55t-13 -71q0 -37 13.5 -69.5t36 -56t52.5 -37t64 -13.5q36 0 68 16.5t51 42.5z" />
    <glyph glyph-name="ordfeminine" unicode="&#xaa;" horiz-adv-x="619" 
d="M441 68q-27 -36 -67 -58.5t-94 -22.5q-57 0 -102.5 20t-77.5 55.5t-49.5 83.5t-17.5 103q0 56 17.5 104t49.5 83.5t77.5 55.5t102.5 20q54 0 94 -22.5t67 -58.5v69h105v-500h-105v68zM283 85q34 0 63 12.5t50 34.5t33 52.5t12 65.5t-12 65t-33 52t-50 34t-63 12
q-33 0 -60 -13t-46.5 -35.5t-30 -52t-10.5 -63.5t10.5 -63.5t30 -52t46.5 -35.5t60 -13z" />
    <glyph glyph-name="guillemotleft" unicode="&#xab;" horiz-adv-x="490" 
d="M360 63l-160 180l160 177h100l-160 -177l160 -180h-100zM190 63l-160 180l160 177h100l-160 -177l160 -180h-100z" />
    <glyph glyph-name="logicalnot" unicode="&#xac;" horiz-adv-x="511" 
d="M473 205h-70v191h-374v67h444v-258z" />
    <glyph glyph-name="uni00AD" unicode="&#xad;" horiz-adv-x="300" 
d="M45 197v90h240v-90h-240z" />
    <glyph glyph-name="registered" unicode="&#xae;" horiz-adv-x="494" 
d="M459 465q0 -44 -16.5 -82.5t-45 -67.5t-67.5 -45.5t-83 -16.5t-82.5 16.5t-67.5 45.5t-45.5 67.5t-16.5 82.5t16.5 83t45.5 67.5t67.5 45t82.5 16.5q45 0 83.5 -16.5t67 -45t45 -67t16.5 -83.5zM429 465q0 38 -14 71.5t-39 58t-58 38.5t-71 14q-37 0 -70 -14t-58 -38.5
t-39 -58t-14 -71.5q0 -37 14 -70t39 -58t58 -39t70 -14q38 0 71 14t58 39t39 58t14 70zM305 343l-63 96h-43v-96h-33v243h99q31 0 54.5 -20t23.5 -54q0 -19 -7 -32.5t-17 -22.5t-20.5 -13t-17.5 -4l65 -97h-41zM309 512q0 20 -14 32.5t-30 12.5h-66v-88h66q16 0 30 12.5
t14 30.5z" />
    <glyph glyph-name="macron" unicode="&#xaf;" horiz-adv-x="363" 
d="M0 586v62h363v-62h-363z" />
    <glyph glyph-name="degree" unicode="&#xb0;" horiz-adv-x="302" 
d="M281 547q0 -27 -10.5 -50.5t-28 -41t-41 -27.5t-50.5 -10t-50.5 10t-41 27.5t-27.5 41t-10 50.5t10 50.5t27.5 41.5t41 28t50.5 10t50.5 -10t41.5 -27.5t28 -41.5t10 -51zM221 547q0 29 -20.5 49.5t-49.5 20.5t-49 -20.5t-20 -49.5t20 -48.5t49 -19.5q28 0 49 19.5
t21 48.5z" />
    <glyph glyph-name="plusminus" unicode="&#xb1;" horiz-adv-x="502" 
d="M288 325v-207h-74v207h-185v68h185v200h74v-200h185v-68h-185zM29 0v68h444v-68h-444z" />
    <glyph glyph-name="twosuperior" unicode="&#xb2;" horiz-adv-x="625" 
d="M45 29q3 41 16 88t38.5 91t64 81.5t93.5 60.5q34 15 66.5 28.5t58 30t41 37.5t15.5 50t-12.5 51t-32 36.5t-43 22t-44.5 7.5q-30 0 -57.5 -6t-50 -19t-38 -33.5t-20.5 -48.5l-105 11q7 48 32 84.5t61.5 61t82.5 37.5t95 13q44 0 86.5 -14t76.5 -41t54.5 -66.5t20.5 -90.5
q0 -52 -19.5 -88.5t-52.5 -63.5t-77.5 -48t-95.5 -41q-49 -20 -79 -62t-46 -92h382v-105h-511v28z" />
    <glyph glyph-name="threesuperior" unicode="&#xb3;" horiz-adv-x="625" 
d="M526 515q0 -45 -20 -81t-55 -61q45 -29 70 -71.5t25 -96.5q0 -47 -19.5 -86.5t-53.5 -68.5t-80.5 -45t-100.5 -16q-49 0 -92 14t-76.5 39t-54.5 59.5t-25 75.5l114 9q12 -43 49 -68.5t85 -25.5q31 0 57.5 9t45.5 24.5t30 37t11 46.5q0 26 -11 47t-30 37t-45.5 24.5
t-57.5 8.5h-36l1 90l35 -1q55 0 90.5 28.5t35.5 71.5q0 21 -9.5 39t-26.5 31.5t-40 21t-51 7.5q-39 0 -73 -17.5t-48 -51.5l-110 7q6 35 26.5 64.5t51 50.5t70 33t83.5 12q51 0 94.5 -14.5t74.5 -41t48.5 -62.5t17.5 -79z" />
    <glyph glyph-name="acute" unicode="&#xb4;" horiz-adv-x="240" 
d="M140 700h100l-165 -144h-75z" />
    <glyph glyph-name="uni00B5" unicode="&#xb5;" horiz-adv-x="574" 
d="M173 -184h-105v667h105v-303q0 -100 99 -100q38 0 70.5 19.5t51.5 44.5v339h105v-399q0 -61 36 -75l-88 -14q-24 4 -37.5 20.5t-15.5 48.5q-28 -31 -67 -49.5t-78 -18.5q-21 0 -40.5 6t-35.5 19v-205z" />
    <glyph glyph-name="paragraph" unicode="&#xb6;" horiz-adv-x="449" 
d="M337 -100v712h-83v-712h-55v423q-36 0 -67 13.5t-54.5 37t-37 54.5t-13.5 67t13.5 67t37 54.5t54.5 37t67 13.5h193v-767h-55z" />
    <glyph glyph-name="periodcentered" unicode="&#xb7;" horiz-adv-x="246" 
d="M63 305h122v-124h-122v124z" />
    <glyph glyph-name="cedilla" unicode="&#xb8;" horiz-adv-x="214" 
d="M106 -194q-35 0 -62 8.5t-44 22.5l23 46q35 -29 81 -29q23 0 39 9.5t16 26.5q0 30 -32 30q-21 0 -35 -15l-40 23l30 83h55l-25 -64q16 11 36 11q28 0 47 -19t19 -50q0 -38 -31.5 -60.5t-76.5 -22.5z" />
    <glyph glyph-name="onesuperior" unicode="&#xb9;" horiz-adv-x="625" 
d="M72 605l178 95h111v-595h197v-105h-520v105h212v478l-121 -65z" />
    <glyph glyph-name="ordmasculine" unicode="&#xba;" horiz-adv-x="620" 
d="M295 -13q-54 0 -102 20.5t-83.5 56.5t-56 84t-20.5 102t20.5 101.5t56 83.5t83.5 56.5t102 20.5t102 -20.5t83.5 -56.5t56 -83.5t20.5 -101.5t-20.5 -102t-56 -84t-83.5 -56.5t-102 -20.5zM295 92q33 0 61.5 12.5t49.5 34t33.5 50t12.5 61.5t-12.5 61.5t-33.5 49.5
t-49.5 33.5t-61.5 12.5t-61.5 -12.5t-50 -33.5t-34 -49.5t-12.5 -61.5t12.5 -61.5t34 -50t50 -34t61.5 -12.5z" />
    <glyph glyph-name="guillemotright" unicode="&#xbb;" horiz-adv-x="490" 
d="M130 63h-100l160 180l-160 177h100l160 -177zM300 63h-100l160 180l-160 177h100l160 -177z" />
    <glyph glyph-name="questiondown" unicode="&#xbf;" horiz-adv-x="459" 
d="M299 382h-122v124h122v-124zM288 303v-79q0 -31 -10.5 -53t-26.5 -39.5t-35 -31.5t-35 -28t-26.5 -30t-10.5 -37q0 -31 23.5 -52t71.5 -21q45 0 79 18t60 53l68 -76q-41 -50 -97.5 -74.5t-120.5 -24.5q-46 0 -84 11.5t-64 32.5t-40.5 49.5t-14.5 63.5q0 37 12 63.5
t30 46.5t38.5 36t38.5 32t30 33t12 39v68h102z" />
    <glyph glyph-name="Agrave" unicode="&#xc0;" horiz-adv-x="694" 
d="M236 984l140 -144h-110l-145 144h115zM272 700h120l262 -700h-119l-56 151h-293l-56 -151h-120zM439 256l-107 286l-107 -286h214z" />
    <glyph glyph-name="Aacute" unicode="&#xc1;" horiz-adv-x="694" 
d="M437 978h115l-145 -144h-110zM272 700h120l262 -700h-119l-56 151h-293l-56 -151h-120zM439 256l-107 286l-107 -286h214z" />
    <glyph glyph-name="Acircumflex" unicode="&#xc2;" horiz-adv-x="694" 
d="M411 831l-77 97l-75 -97h-66l93 144h96l96 -144h-67zM272 700h120l262 -700h-119l-56 151h-293l-56 -151h-120zM439 256l-107 286l-107 -286h214z" />
    <glyph glyph-name="Atilde" unicode="&#xc3;" horiz-adv-x="694" 
d="M381 841q-25 0 -41 12t-27.5 27t-22.5 27t-28 12q-18 0 -29.5 -17.5t-11.5 -54.5h-58q0 63 26.5 98.5t76.5 35.5q26 0 41.5 -12t27.5 -27t23 -27t27 -12q18 0 30 18t12 54h57q0 -63 -26.5 -98.5t-76.5 -35.5zM272 700h120l262 -700h-119l-56 151h-293l-56 -151h-120z
M439 256l-107 286l-107 -286h214z" />
    <glyph glyph-name="Adieresis" unicode="&#xc4;" horiz-adv-x="694" 
d="M498 898q0 -24 -17 -41t-42 -17q-24 0 -41 17t-17 41q0 25 17 42t41 17q25 0 42 -17t17 -42zM289 898q0 -24 -17 -41t-42 -17q-24 0 -41 17t-17 41q0 25 17 42t41 17q25 0 42 -17t17 -42zM272 700h120l262 -700h-119l-56 151h-293l-56 -151h-120zM439 256l-107 286
l-107 -286h214z" />
    <glyph glyph-name="Aring" unicode="&#xc5;" horiz-adv-x="694" 
d="M333 798q-21 0 -39.5 8t-32.5 22t-22 32.5t-8 39.5t8 39.5t22 33t32.5 22.5t39.5 8t39.5 -8t32 -22.5t21.5 -33t8 -39.5t-8 -39.5t-21.5 -32.5t-32 -22t-39.5 -8zM333 848q21 0 36 15t15 37t-15 37t-36 15q-22 0 -37 -15.5t-15 -36.5t15 -36.5t37 -15.5zM272 700h120
l262 -700h-119l-56 151h-293l-56 -151h-120zM439 256l-107 286l-107 -286h214z" />
    <glyph glyph-name="AE" unicode="&#xc6;" horiz-adv-x="890" 
d="M272 700h551v-105h-298v-188h273v-105h-273v-197h303v-105h-414v151h-228l-56 -151h-120zM414 256v339h-62l-127 -339h189z" />
    <glyph glyph-name="Ccedilla" unicode="&#xc7;" horiz-adv-x="773" 
d="M40 348q0 75 28.5 140.5t77.5 114.5t114.5 77.5t140.5 28.5q51 0 98 -13.5t88 -38t74 -58.5t56 -76l-97 -53q-16 29 -39 52.5t-51.5 40t-61 26t-67.5 9.5q-52 0 -97.5 -19.5t-79.5 -53.5t-53.5 -79.5t-19.5 -97.5t19.5 -97.5t53.5 -79.5t79.5 -53.5t97.5 -19.5
q72 0 129.5 36t89.5 94l98 -53q-43 -79 -120 -129.5t-171 -57.5l-21 -54q16 11 36 11q29 0 48 -19t19 -50q0 -38 -31.5 -60.5t-76.5 -22.5q-35 0 -62 8.5t-44 22.5l22 46q37 -29 81 -29q23 0 39.5 9.5t16.5 26.5q0 30 -33 30q-22 0 -34 -15l-41 23l27 73q-70 6 -130.5 36
t-105.5 78.5t-71 111.5t-26 134z" />
    <glyph glyph-name="Egrave" unicode="&#xc8;" horiz-adv-x="537" 
d="M174 981l140 -144h-110l-145 144h115zM60 700h409v-105h-298v-188h273v-105h-273v-197h303v-105h-414v700z" />
    <glyph glyph-name="Eacute" unicode="&#xc9;" horiz-adv-x="537" 
d="M375 975h115l-145 -144h-110zM60 700h409v-105h-298v-188h273v-105h-273v-197h303v-105h-414v700z" />
    <glyph glyph-name="Ecircumflex" unicode="&#xca;" horiz-adv-x="537" 
d="M349 829l-77 96l-75 -96h-66l93 144h96l96 -144h-67zM60 700h409v-105h-298v-188h273v-105h-273v-197h303v-105h-414v700z" />
    <glyph glyph-name="Edieresis" unicode="&#xcb;" horiz-adv-x="537" 
d="M436 896q0 -25 -17 -42t-42 -17q-24 0 -41 17t-17 42q0 24 17 41t41 17q25 0 42 -16.5t17 -41.5zM227 896q0 -25 -17 -42t-42 -17q-24 0 -41 17t-17 42q0 24 17 41t41 17q25 0 42 -16.5t17 -41.5zM60 700h409v-105h-298v-188h273v-105h-273v-197h303v-105h-414v700z" />
    <glyph glyph-name="Igrave" unicode="&#xcc;" horiz-adv-x="266" 
d="M23 984l140 -144h-110l-145 144h115zM63 700h111v-700h-111v700z" />
    <glyph glyph-name="Iacute" unicode="&#xcd;" horiz-adv-x="266" 
d="M224 978h115l-145 -144h-110zM63 700h111v-700h-111v700z" />
    <glyph glyph-name="Icircumflex" unicode="&#xce;" horiz-adv-x="266" 
d="M199 831l-78 97l-74 -97h-67l93 144h96l96 -144h-66zM63 700h111v-700h-111v700z" />
    <glyph glyph-name="Idieresis" unicode="&#xcf;" horiz-adv-x="266" 
d="M286 898q0 -24 -17.5 -41t-41.5 -17t-41.5 17t-17.5 41q0 25 17.5 42t41.5 17t41.5 -17t17.5 -42zM76 898q0 -24 -17 -41t-41 -17q-25 0 -42 17t-17 41q0 25 17 42t42 17q24 0 41 -17t17 -42zM63 700h111v-700h-111v700z" />
    <glyph glyph-name="Eth" unicode="&#xd0;" horiz-adv-x="759" 
d="M62 298h-63v103h64v299h267q75 0 140 -27t114 -74.5t77 -111.5t28 -139t-28 -138.5t-77 -110t-114 -73t-140 -26.5h-267zM174 595v-194h163v-103h-164l1 -193h156q52 0 97 18.5t78.5 51.5t53 77.5t19.5 96.5t-19.5 97t-53 78t-78.5 52t-97 19h-156z" />
    <glyph glyph-name="Ntilde" unicode="&#xd1;" horiz-adv-x="690" 
d="M384 841q-26 0 -41.5 12t-27.5 27t-23 27t-27 12q-18 0 -30 -17.5t-12 -54.5h-57q0 63 26.5 98.5t76.5 35.5q26 0 41.5 -12t27 -27t23 -27t27.5 -12q18 0 29.5 18t11.5 54h58q0 -63 -26.5 -98.5t-76.5 -35.5zM63 700h111l313 -481v481h111v-700h-96l-328 509v-509h-111
v700z" />
    <glyph glyph-name="Ograve" unicode="&#xd2;" horiz-adv-x="832" 
d="M304 993l140 -144h-110l-145 144h115zM401 -13q-75 0 -140.5 28.5t-114.5 77.5t-77.5 114.5t-28.5 140.5t28.5 140.5t77.5 114.5t114.5 77.5t140.5 28.5t140.5 -28.5t114.5 -77.5t77.5 -114.5t28.5 -140.5t-28.5 -140.5t-77.5 -114.5t-114.5 -77.5t-140.5 -28.5zM401 98
q52 0 97.5 19.5t79.5 53.5t53.5 79.5t19.5 97.5t-19.5 97.5t-53.5 79.5t-79.5 53.5t-97.5 19.5t-97.5 -19.5t-79.5 -53.5t-53.5 -79.5t-19.5 -97.5t19.5 -97.5t53.5 -79.5t79.5 -53.5t97.5 -19.5z" />
    <glyph glyph-name="Oacute" unicode="&#xd3;" horiz-adv-x="832" 
d="M505 987h115l-145 -144h-110zM401 -13q-75 0 -140.5 28.5t-114.5 77.5t-77.5 114.5t-28.5 140.5t28.5 140.5t77.5 114.5t114.5 77.5t140.5 28.5t140.5 -28.5t114.5 -77.5t77.5 -114.5t28.5 -140.5t-28.5 -140.5t-77.5 -114.5t-114.5 -77.5t-140.5 -28.5zM401 98
q52 0 97.5 19.5t79.5 53.5t53.5 79.5t19.5 97.5t-19.5 97.5t-53.5 79.5t-79.5 53.5t-97.5 19.5t-97.5 -19.5t-79.5 -53.5t-53.5 -79.5t-19.5 -97.5t19.5 -97.5t53.5 -79.5t79.5 -53.5t97.5 -19.5z" />
    <glyph glyph-name="Ocircumflex" unicode="&#xd4;" horiz-adv-x="832" 
d="M480 840l-78 97l-74 -97h-67l93 144h96l96 -144h-66zM401 -13q-75 0 -140.5 28.5t-114.5 77.5t-77.5 114.5t-28.5 140.5t28.5 140.5t77.5 114.5t114.5 77.5t140.5 28.5t140.5 -28.5t114.5 -77.5t77.5 -114.5t28.5 -140.5t-28.5 -140.5t-77.5 -114.5t-114.5 -77.5
t-140.5 -28.5zM401 98q52 0 97.5 19.5t79.5 53.5t53.5 79.5t19.5 97.5t-19.5 97.5t-53.5 79.5t-79.5 53.5t-97.5 19.5t-97.5 -19.5t-79.5 -53.5t-53.5 -79.5t-19.5 -97.5t19.5 -97.5t53.5 -79.5t79.5 -53.5t97.5 -19.5z" />
    <glyph glyph-name="Otilde" unicode="&#xd5;" horiz-adv-x="832" 
d="M450 850q-26 0 -41.5 12t-27.5 27t-23 27t-27 12q-18 0 -30 -17.5t-12 -54.5h-57q0 63 26.5 98.5t76.5 35.5q26 0 41.5 -12t27 -27t23 -27t27.5 -12q18 0 29.5 18t11.5 54h58q0 -63 -26.5 -98.5t-76.5 -35.5zM401 -13q-75 0 -140.5 28.5t-114.5 77.5t-77.5 114.5
t-28.5 140.5t28.5 140.5t77.5 114.5t114.5 77.5t140.5 28.5t140.5 -28.5t114.5 -77.5t77.5 -114.5t28.5 -140.5t-28.5 -140.5t-77.5 -114.5t-114.5 -77.5t-140.5 -28.5zM401 98q52 0 97.5 19.5t79.5 53.5t53.5 79.5t19.5 97.5t-19.5 97.5t-53.5 79.5t-79.5 53.5t-97.5 19.5
t-97.5 -19.5t-79.5 -53.5t-53.5 -79.5t-19.5 -97.5t19.5 -97.5t53.5 -79.5t79.5 -53.5t97.5 -19.5z" />
    <glyph glyph-name="Odieresis" unicode="&#xd6;" horiz-adv-x="832" 
d="M567 907q0 -24 -17.5 -41t-41.5 -17t-41.5 17t-17.5 41q0 25 17.5 42t41.5 17t41.5 -17t17.5 -42zM357 907q0 -24 -17 -41t-41 -17q-25 0 -42 17t-17 41q0 25 17 42t42 17q24 0 41 -17t17 -42zM401 -13q-75 0 -140.5 28.5t-114.5 77.5t-77.5 114.5t-28.5 140.5
t28.5 140.5t77.5 114.5t114.5 77.5t140.5 28.5t140.5 -28.5t114.5 -77.5t77.5 -114.5t28.5 -140.5t-28.5 -140.5t-77.5 -114.5t-114.5 -77.5t-140.5 -28.5zM401 98q52 0 97.5 19.5t79.5 53.5t53.5 79.5t19.5 97.5t-19.5 97.5t-53.5 79.5t-79.5 53.5t-97.5 19.5t-97.5 -19.5
t-79.5 -53.5t-53.5 -79.5t-19.5 -97.5t19.5 -97.5t53.5 -79.5t79.5 -53.5t97.5 -19.5z" />
    <glyph glyph-name="multiply" unicode="&#xd7;" horiz-adv-x="502" 
d="M443 190l-47 -48l-145 145l-144 -145l-48 48l145 144l-145 145l48 47l144 -144l145 144l47 -47l-144 -145z" />
    <glyph glyph-name="Oslash" unicode="&#xd8;" horiz-adv-x="832" 
d="M401 -13q-60 0 -113.5 18.5t-98.5 50.5l-57 -64l-52 50l55 62q-45 48 -70 110.5t-25 133.5q0 75 28.5 140.5t77.5 114.5t114.5 77.5t140.5 28.5q60 0 114.5 -18.5t99.5 -51.5l58 64l52 -48l-57 -64q44 -48 69 -110t25 -133q0 -75 -28.5 -140.5t-77.5 -114.5t-114.5 -77.5
t-140.5 -28.5zM540 556q-30 20 -65 31t-74 11q-52 0 -97.5 -19.5t-79.5 -53.5t-53.5 -79.5t-19.5 -97.5q0 -46 15.5 -87t43.5 -74zM401 98q52 0 97.5 19.5t79.5 53.5t53.5 79.5t19.5 97.5q0 46 -15.5 87t-42.5 73l-330 -369q30 -20 65 -30.5t73 -10.5z" />
    <glyph glyph-name="Ugrave" unicode="&#xd9;" horiz-adv-x="669" 
d="M222 984l140 -144h-110l-145 144h115zM55 700h111v-463q0 -64 43 -101.5t110 -37.5q72 0 113 37.5t41 101.5v463h111v-463q0 -56 -19.5 -102t-55 -79t-84 -51t-106.5 -18t-106.5 18t-83.5 51t-54.5 79t-19.5 102v463z" />
    <glyph glyph-name="Uacute" unicode="&#xda;" horiz-adv-x="669" 
d="M423 978h115l-145 -144h-110zM55 700h111v-463q0 -64 43 -101.5t110 -37.5q72 0 113 37.5t41 101.5v463h111v-463q0 -56 -19.5 -102t-55 -79t-84 -51t-106.5 -18t-106.5 18t-83.5 51t-54.5 79t-19.5 102v463z" />
    <glyph glyph-name="Ucircumflex" unicode="&#xdb;" horiz-adv-x="669" 
d="M397 831l-77 97l-75 -97h-66l93 144h96l96 -144h-67zM55 700h111v-463q0 -64 43 -101.5t110 -37.5q72 0 113 37.5t41 101.5v463h111v-463q0 -56 -19.5 -102t-55 -79t-84 -51t-106.5 -18t-106.5 18t-83.5 51t-54.5 79t-19.5 102v463z" />
    <glyph glyph-name="Udieresis" unicode="&#xdc;" horiz-adv-x="669" 
d="M484 898q0 -24 -17 -41t-42 -17q-24 0 -41 17t-17 41q0 25 17 42t41 17q25 0 42 -17t17 -42zM275 898q0 -24 -17 -41t-42 -17q-24 0 -41 17t-17 41q0 25 17 42t41 17q25 0 42 -17t17 -42zM55 700h111v-463q0 -64 43 -101.5t110 -37.5q72 0 113 37.5t41 101.5v463h111
v-463q0 -56 -19.5 -102t-55 -79t-84 -51t-106.5 -18t-106.5 18t-83.5 51t-54.5 79t-19.5 102v463z" />
    <glyph glyph-name="Yacute" unicode="&#xdd;" horiz-adv-x="658" 
d="M422 978h115l-145 -144h-110zM259 258l-254 442h126l183 -316l183 316h126l-253 -442v-258h-111v258z" />
    <glyph glyph-name="Thorn" unicode="&#xde;" horiz-adv-x="598" 
d="M174 136v-136h-111v700h111v-115h136q47 0 88 -17.5t71.5 -48t48 -71t17.5 -87.5t-17.5 -88t-48 -71.5t-71.5 -48t-88 -17.5h-136zM310 242q25 0 46.5 9.5t37.5 25.5t25.5 37.5t9.5 46.5q0 24 -9.5 45.5t-25.5 37.5t-37.5 25.5t-46.5 9.5h-136v-237h136z" />
    <glyph glyph-name="germandbls" unicode="&#xdf;" horiz-adv-x="552" 
d="M217 407h50q42 1 66.5 26t24.5 70q0 44 -26.5 70.5t-71.5 26.5q-48 1 -76.5 -26t-30.5 -73v-501h-110v501q7 201 224 199q42 0 76 -14.5t58.5 -40.5t38 -62t13.5 -80q-1 -42 -13 -76t-34 -60q38 -27 60.5 -69t23.5 -94q2 -46 -12.5 -83.5t-42 -64t-67 -41.5t-88.5 -15
h-63v105h63q53 2 84 28.5t31 70.5q-2 47 -36.5 75t-91.5 28h-50v100z" />
    <glyph glyph-name="agrave" unicode="&#xe0;" horiz-adv-x="619" 
d="M211 784l140 -144h-110l-145 144h115zM441 68q-27 -36 -67 -58.5t-94 -22.5q-57 0 -102.5 20t-77.5 55.5t-49.5 83.5t-17.5 103q0 56 17.5 104t49.5 83.5t77.5 55.5t102.5 20q54 0 94 -22.5t67 -58.5v69h105v-500h-105v68zM283 85q34 0 63 12.5t50 34.5t33 52.5t12 65.5
t-12 65t-33 52t-50 34t-63 12q-33 0 -60 -13t-46.5 -35.5t-30 -52t-10.5 -63.5t10.5 -63.5t30 -52t46.5 -35.5t60 -13z" />
    <glyph glyph-name="aacute" unicode="&#xe1;" horiz-adv-x="619" 
d="M412 778h115l-145 -144h-110zM441 68q-27 -36 -67 -58.5t-94 -22.5q-57 0 -102.5 20t-77.5 55.5t-49.5 83.5t-17.5 103q0 56 17.5 104t49.5 83.5t77.5 55.5t102.5 20q54 0 94 -22.5t67 -58.5v69h105v-500h-105v68zM283 85q34 0 63 12.5t50 34.5t33 52.5t12 65.5t-12 65
t-33 52t-50 34t-63 12q-33 0 -60 -13t-46.5 -35.5t-30 -52t-10.5 -63.5t10.5 -63.5t30 -52t46.5 -35.5t60 -13z" />
    <glyph glyph-name="acircumflex" unicode="&#xe2;" horiz-adv-x="619" 
d="M387 631l-78 97l-74 -97h-67l93 144h96l96 -144h-66zM441 68q-27 -36 -67 -58.5t-94 -22.5q-57 0 -102.5 20t-77.5 55.5t-49.5 83.5t-17.5 103q0 56 17.5 104t49.5 83.5t77.5 55.5t102.5 20q54 0 94 -22.5t67 -58.5v69h105v-500h-105v68zM283 85q34 0 63 12.5t50 34.5
t33 52.5t12 65.5t-12 65t-33 52t-50 34t-63 12q-33 0 -60 -13t-46.5 -35.5t-30 -52t-10.5 -63.5t10.5 -63.5t30 -52t46.5 -35.5t60 -13z" />
    <glyph glyph-name="atilde" unicode="&#xe3;" horiz-adv-x="619" 
d="M357 641q-26 0 -41.5 12t-27.5 27t-23 27t-27 12q-18 0 -30 -17.5t-12 -54.5h-57q0 63 26.5 98.5t76.5 35.5q26 0 41.5 -12t27 -27t23 -27t27.5 -12q18 0 29.5 18t11.5 54h58q0 -63 -26.5 -98.5t-76.5 -35.5zM441 68q-27 -36 -67 -58.5t-94 -22.5q-57 0 -102.5 20
t-77.5 55.5t-49.5 83.5t-17.5 103q0 56 17.5 104t49.5 83.5t77.5 55.5t102.5 20q54 0 94 -22.5t67 -58.5v69h105v-500h-105v68zM283 85q34 0 63 12.5t50 34.5t33 52.5t12 65.5t-12 65t-33 52t-50 34t-63 12q-33 0 -60 -13t-46.5 -35.5t-30 -52t-10.5 -63.5t10.5 -63.5
t30 -52t46.5 -35.5t60 -13z" />
    <glyph glyph-name="adieresis" unicode="&#xe4;" horiz-adv-x="619" 
d="M474 698q0 -24 -17.5 -41t-41.5 -17t-41.5 17t-17.5 41q0 25 17.5 42t41.5 17t41.5 -17t17.5 -42zM264 698q0 -24 -17 -41t-41 -17q-25 0 -42 17t-17 41q0 25 17 42t42 17q24 0 41 -17t17 -42zM441 68q-27 -36 -67 -58.5t-94 -22.5q-57 0 -102.5 20t-77.5 55.5
t-49.5 83.5t-17.5 103q0 56 17.5 104t49.5 83.5t77.5 55.5t102.5 20q54 0 94 -22.5t67 -58.5v69h105v-500h-105v68zM283 85q34 0 63 12.5t50 34.5t33 52.5t12 65.5t-12 65t-33 52t-50 34t-63 12q-33 0 -60 -13t-46.5 -35.5t-30 -52t-10.5 -63.5t10.5 -63.5t30 -52
t46.5 -35.5t60 -13z" />
    <glyph glyph-name="aring" unicode="&#xe5;" horiz-adv-x="619" 
d="M309 598q-21 0 -39.5 8t-33 22t-22.5 32.5t-8 39.5t8 39.5t22.5 33t33 22.5t39.5 8t39.5 -8t32 -22.5t21.5 -33t8 -39.5t-8 -39.5t-21.5 -32.5t-32 -22t-39.5 -8zM309 648q21 0 36 15t15 37t-15 37t-36 15q-22 0 -37 -15.5t-15 -36.5t15 -36.5t37 -15.5zM441 68
q-27 -36 -67 -58.5t-94 -22.5q-57 0 -102.5 20t-77.5 55.5t-49.5 83.5t-17.5 103q0 56 17.5 104t49.5 83.5t77.5 55.5t102.5 20q54 0 94 -22.5t67 -58.5v69h105v-500h-105v68zM283 85q34 0 63 12.5t50 34.5t33 52.5t12 65.5t-12 65t-33 52t-50 34t-63 12q-33 0 -60 -13
t-46.5 -35.5t-30 -52t-10.5 -63.5t10.5 -63.5t30 -52t46.5 -35.5t60 -13z" />
    <glyph glyph-name="ae" unicode="&#xe6;" horiz-adv-x="941" 
d="M655 513q56 0 98 -21t70.5 -57t43 -84t14.5 -102q0 -11 -1 -19.5t-3 -18.5h-364q11 -57 47.5 -94.5t104.5 -37.5q42 0 71.5 18t47.5 47l77 -48q-34 -51 -79.5 -80t-118.5 -29q-75 0 -126 29.5t-79 80.5q-29 -48 -76.5 -79t-111.5 -31q-57 0 -101 20t-74 55.5t-46 83.5
t-16 103q0 56 16 104t46 83.5t74 55.5t101 20q63 0 110.5 -30.5t76.5 -78.5q28 51 77 80.5t121 29.5zM791 294q-8 60 -41 93.5t-96 33.5q-33 0 -59.5 -10.5t-44.5 -28t-28 -40.5t-10 -48h279zM273 85q34 0 61.5 12.5t46.5 34.5t29.5 52.5t10.5 65.5t-10.5 65t-29.5 52
t-46.5 34t-61.5 12q-33 0 -58.5 -13t-43 -35.5t-26.5 -52t-9 -63.5t9 -63.5t26.5 -52t43 -35.5t58.5 -13z" />
    <glyph glyph-name="ccedilla" unicode="&#xe7;" horiz-adv-x="558" 
d="M508 97q-32 -45 -80 -74t-106 -35l-22 -54q16 11 36 11q29 0 48 -19t19 -50q0 -38 -31.5 -60.5t-76.5 -22.5q-35 0 -62 8.5t-44 22.5l22 46q37 -29 81 -29q23 0 39.5 9.5t16.5 26.5q0 30 -33 30q-22 0 -34 -15l-41 23l27 73q-49 5 -92 27.5t-74.5 57.5t-49.5 80.5
t-18 96.5q0 54 20.5 101.5t56 83.5t83.5 56.5t102 20.5q66 0 121 -29.5t91 -79.5l-86 -58q-24 29 -56 45.5t-70 16.5q-33 0 -61.5 -12.5t-49.5 -33.5t-33.5 -49.5t-12.5 -61.5t12.5 -61.5t33.5 -50t49.5 -34t61.5 -12.5q38 0 70.5 17t55.5 45z" />
    <glyph glyph-name="egrave" unicode="&#xe8;" horiz-adv-x="606" 
d="M200 796l140 -144h-110l-145 144h115zM295 513q56 0 102 -21t79 -57t51.5 -84t18.5 -102q0 -11 -1 -19.5t-3 -18.5h-404q11 -57 55 -94.5t112 -37.5q42 0 79 18t55 47l82 -48q-34 -51 -89.5 -80t-128.5 -29q-61 0 -111 20t-85 55.5t-54.5 83.5t-19.5 104t19 104t53.5 83
t83 55.5t106.5 20.5zM446 294q-8 60 -48.5 93.5t-103.5 33.5q-33 0 -61.5 -10.5t-49.5 -28t-33.5 -40.5t-12.5 -48h309z" />
    <glyph glyph-name="eacute" unicode="&#xe9;" horiz-adv-x="606" 
d="M401 790h115l-145 -144h-110zM295 513q56 0 102 -21t79 -57t51.5 -84t18.5 -102q0 -11 -1 -19.5t-3 -18.5h-404q11 -57 55 -94.5t112 -37.5q42 0 79 18t55 47l82 -48q-34 -51 -89.5 -80t-128.5 -29q-61 0 -111 20t-85 55.5t-54.5 83.5t-19.5 104t19 104t53.5 83t83 55.5
t106.5 20.5zM446 294q-8 60 -48.5 93.5t-103.5 33.5q-33 0 -61.5 -10.5t-49.5 -28t-33.5 -40.5t-12.5 -48h309z" />
    <glyph glyph-name="ecircumflex" unicode="&#xea;" horiz-adv-x="606" 
d="M375 644l-77 96l-75 -96h-66l93 144h96l96 -144h-67zM295 513q56 0 102 -21t79 -57t51.5 -84t18.5 -102q0 -11 -1 -19.5t-3 -18.5h-404q11 -57 55 -94.5t112 -37.5q42 0 79 18t55 47l82 -48q-34 -51 -89.5 -80t-128.5 -29q-61 0 -111 20t-85 55.5t-54.5 83.5t-19.5 104
t19 104t53.5 83t83 55.5t106.5 20.5zM446 294q-8 60 -48.5 93.5t-103.5 33.5q-33 0 -61.5 -10.5t-49.5 -28t-33.5 -40.5t-12.5 -48h309z" />
    <glyph glyph-name="edieresis" unicode="&#xeb;" horiz-adv-x="606" 
d="M462 711q0 -25 -17 -42t-42 -17q-24 0 -41 17t-17 42q0 24 17 41t41 17q25 0 42 -16.5t17 -41.5zM253 711q0 -25 -17 -42t-42 -17q-24 0 -41 17t-17 42q0 24 17 41t41 17q25 0 42 -16.5t17 -41.5zM295 513q56 0 102 -21t79 -57t51.5 -84t18.5 -102q0 -11 -1 -19.5
t-3 -18.5h-404q11 -57 55 -94.5t112 -37.5q42 0 79 18t55 47l82 -48q-34 -51 -89.5 -80t-128.5 -29q-61 0 -111 20t-85 55.5t-54.5 83.5t-19.5 104t19 104t53.5 83t83 55.5t106.5 20.5zM446 294q-8 60 -48.5 93.5t-103.5 33.5q-33 0 -61.5 -10.5t-49.5 -28t-33.5 -40.5
t-12.5 -48h309z" />
    <glyph glyph-name="igrave" unicode="&#xec;" horiz-adv-x="245" 
d="M10 784l140 -144h-110l-145 144h115zM55 500h105v-500h-105v500z" />
    <glyph glyph-name="iacute" unicode="&#xed;" horiz-adv-x="245" 
d="M211 778h115l-145 -144h-110zM55 500h105v-500h-105v500z" />
    <glyph glyph-name="icircumflex" unicode="&#xee;" horiz-adv-x="245" 
d="M186 631l-78 97l-74 -97h-67l93 144h96l96 -144h-66zM55 500h105v-500h-105v500z" />
    <glyph glyph-name="idieresis" unicode="&#xef;" horiz-adv-x="245" 
d="M273 698q0 -24 -17.5 -41t-41.5 -17t-41.5 17t-17.5 41q0 25 17.5 42t41.5 17t41.5 -17t17.5 -42zM63 698q0 -24 -17 -41t-41 -17q-25 0 -42 17t-17 41q0 25 17 42t42 17q24 0 41 -17t17 -42zM55 500h105v-500h-105v500z" />
    <glyph glyph-name="eth" unicode="&#xf0;" horiz-adv-x="630" 
d="M322 700q33 -27 60 -54l80 38l26 -43l-71 -34q30 -36 56 -78.5t44.5 -88.5t29 -94t10.5 -96q0 -55 -21 -103t-56.5 -83.5t-83 -56t-101.5 -20.5t-102 20.5t-83.5 56.5t-56 84t-20.5 102t20.5 101.5t56 83.5t83.5 56.5t102 20.5q32 0 62 -7.5t57 -21.5q-11 23 -24.5 46.5
t-32.5 49.5l-82 -39l-28 42l77 36q-37 42 -86 82h84zM295 92q33 0 61.5 12.5t49.5 34t33.5 50t12.5 61.5t-12.5 61.5t-33.5 49.5t-49.5 33.5t-61.5 12.5t-61.5 -12.5t-50 -33.5t-34 -49.5t-12.5 -61.5t12.5 -61.5t34 -50t50 -34t61.5 -12.5z" />
    <glyph glyph-name="ntilde" unicode="&#xf1;" horiz-adv-x="560" 
d="M321 641q-26 0 -41.5 12t-27.5 27t-23 27t-27 12q-18 0 -30 -17.5t-12 -54.5h-57q0 63 26.5 98.5t76.5 35.5q26 0 41.5 -12t27 -27t23 -27t27.5 -12q18 0 29.5 18t11.5 54h58q0 -63 -26.5 -98.5t-76.5 -35.5zM488 0h-105v299q0 36 -11.5 59t-29 37t-38.5 19.5t-41 5.5
q-19 0 -39.5 -6.5t-37.5 -22.5t-27.5 -43t-10.5 -68v-280h-105v500h105v-50q25 26 60 44.5t79 18.5q27 0 62 -8.5t65.5 -32.5t52 -65.5t21.5 -107.5v-299z" />
    <glyph glyph-name="ograve" unicode="&#xf2;" horiz-adv-x="620" 
d="M198 795l140 -144h-110l-145 144h115zM295 -13q-54 0 -102 20.5t-83.5 56.5t-56 84t-20.5 102t20.5 101.5t56 83.5t83.5 56.5t102 20.5t102 -20.5t83.5 -56.5t56 -83.5t20.5 -101.5t-20.5 -102t-56 -84t-83.5 -56.5t-102 -20.5zM295 92q33 0 61.5 12.5t49.5 34t33.5 50
t12.5 61.5t-12.5 61.5t-33.5 49.5t-49.5 33.5t-61.5 12.5t-61.5 -12.5t-50 -33.5t-34 -49.5t-12.5 -61.5t12.5 -61.5t34 -50t50 -34t61.5 -12.5z" />
    <glyph glyph-name="oacute" unicode="&#xf3;" horiz-adv-x="620" 
d="M399 789h115l-145 -144h-110zM295 -13q-54 0 -102 20.5t-83.5 56.5t-56 84t-20.5 102t20.5 101.5t56 83.5t83.5 56.5t102 20.5t102 -20.5t83.5 -56.5t56 -83.5t20.5 -101.5t-20.5 -102t-56 -84t-83.5 -56.5t-102 -20.5zM295 92q33 0 61.5 12.5t49.5 34t33.5 50t12.5 61.5
t-12.5 61.5t-33.5 49.5t-49.5 33.5t-61.5 12.5t-61.5 -12.5t-50 -33.5t-34 -49.5t-12.5 -61.5t12.5 -61.5t34 -50t50 -34t61.5 -12.5z" />
    <glyph glyph-name="ocircumflex" unicode="&#xf4;" horiz-adv-x="620" 
d="M374 643l-78 96l-74 -96h-67l93 144h96l96 -144h-66zM295 -13q-54 0 -102 20.5t-83.5 56.5t-56 84t-20.5 102t20.5 101.5t56 83.5t83.5 56.5t102 20.5t102 -20.5t83.5 -56.5t56 -83.5t20.5 -101.5t-20.5 -102t-56 -84t-83.5 -56.5t-102 -20.5zM295 92q33 0 61.5 12.5
t49.5 34t33.5 50t12.5 61.5t-12.5 61.5t-33.5 49.5t-49.5 33.5t-61.5 12.5t-61.5 -12.5t-50 -33.5t-34 -49.5t-12.5 -61.5t12.5 -61.5t34 -50t50 -34t61.5 -12.5z" />
    <glyph glyph-name="otilde" unicode="&#xf5;" horiz-adv-x="620" 
d="M344 653q-26 0 -41.5 12t-27.5 27t-23 27t-27 12q-18 0 -30 -18t-12 -54h-57q0 63 26.5 98.5t76.5 35.5q26 0 41.5 -12t27 -27t23 -27t27.5 -12q18 0 29.5 17.5t11.5 54.5h58q0 -63 -26.5 -98.5t-76.5 -35.5zM295 -13q-54 0 -102 20.5t-83.5 56.5t-56 84t-20.5 102
t20.5 101.5t56 83.5t83.5 56.5t102 20.5t102 -20.5t83.5 -56.5t56 -83.5t20.5 -101.5t-20.5 -102t-56 -84t-83.5 -56.5t-102 -20.5zM295 92q33 0 61.5 12.5t49.5 34t33.5 50t12.5 61.5t-12.5 61.5t-33.5 49.5t-49.5 33.5t-61.5 12.5t-61.5 -12.5t-50 -33.5t-34 -49.5
t-12.5 -61.5t12.5 -61.5t34 -50t50 -34t61.5 -12.5z" />
    <glyph glyph-name="odieresis" unicode="&#xf6;" horiz-adv-x="620" 
d="M461 710q0 -25 -17.5 -42t-41.5 -17t-41.5 17t-17.5 42q0 24 17.5 41t41.5 17t41.5 -16.5t17.5 -41.5zM251 710q0 -25 -17 -42t-41 -17q-25 0 -42 17t-17 42q0 24 17 41t42 17q24 0 41 -16.5t17 -41.5zM295 -13q-54 0 -102 20.5t-83.5 56.5t-56 84t-20.5 102t20.5 101.5
t56 83.5t83.5 56.5t102 20.5t102 -20.5t83.5 -56.5t56 -83.5t20.5 -101.5t-20.5 -102t-56 -84t-83.5 -56.5t-102 -20.5zM295 92q33 0 61.5 12.5t49.5 34t33.5 50t12.5 61.5t-12.5 61.5t-33.5 49.5t-49.5 33.5t-61.5 12.5t-61.5 -12.5t-50 -33.5t-34 -49.5t-12.5 -61.5
t12.5 -61.5t34 -50t50 -34t61.5 -12.5z" />
    <glyph glyph-name="divide" unicode="&#xf7;" horiz-adv-x="511" 
d="M310 521q0 -23 -16 -39.5t-38 -16.5q-23 0 -39 16.5t-16 39.5q0 22 16 37.5t39 15.5t38.5 -15.5t15.5 -37.5zM482 371v-67h-453v67h453zM310 152q0 -23 -15.5 -39t-38.5 -16t-39 16t-16 39q0 22 16 38t39 16t38.5 -15.5t15.5 -38.5z" />
    <glyph glyph-name="oslash" unicode="&#xf8;" horiz-adv-x="620" 
d="M295 -13q-41 0 -78 12t-69 33l-123 -138l-53 49l123 137q-29 35 -45.5 78t-16.5 92q0 54 20.5 101.5t56 83.5t83.5 56.5t102 20.5q41 0 78 -12t69 -34l124 139l52 -49l-123 -137q29 -35 45.5 -78t16.5 -91q0 -54 -20.5 -102t-56 -84t-83.5 -56.5t-102 -20.5zM371 387
q-35 20 -76 20q-33 0 -61.5 -12.5t-50 -33.5t-34 -49.5t-12.5 -61.5q0 -26 7.5 -48.5t21.5 -42.5zM295 92q33 0 61.5 12.5t49.5 34t33.5 50t12.5 61.5q0 50 -28 90l-205 -229q35 -19 76 -19z" />
    <glyph glyph-name="ugrave" unicode="&#xf9;" horiz-adv-x="563" 
d="M178 784l140 -144h-110l-145 144h115zM48 500h105v-299q0 -36 11.5 -59t28.5 -36.5t38.5 -19t40.5 -5.5q20 0 40.5 6.5t37 22.5t27.5 43t11 68v279h105v-500h-105v50q-26 -26 -61 -44.5t-78 -18.5q-27 0 -62 8.5t-65.5 32.5t-52 65.5t-21.5 107.5v299z" />
    <glyph glyph-name="uacute" unicode="&#xfa;" horiz-adv-x="563" 
d="M379 778h115l-145 -144h-110zM48 500h105v-299q0 -36 11.5 -59t28.5 -36.5t38.5 -19t40.5 -5.5q20 0 40.5 6.5t37 22.5t27.5 43t11 68v279h105v-500h-105v50q-26 -26 -61 -44.5t-78 -18.5q-27 0 -62 8.5t-65.5 32.5t-52 65.5t-21.5 107.5v299z" />
    <glyph glyph-name="ucircumflex" unicode="&#xfb;" horiz-adv-x="563" 
d="M354 631l-78 97l-74 -97h-67l93 144h96l96 -144h-66zM48 500h105v-299q0 -36 11.5 -59t28.5 -36.5t38.5 -19t40.5 -5.5q20 0 40.5 6.5t37 22.5t27.5 43t11 68v279h105v-500h-105v50q-26 -26 -61 -44.5t-78 -18.5q-27 0 -62 8.5t-65.5 32.5t-52 65.5t-21.5 107.5v299z" />
    <glyph glyph-name="udieresis" unicode="&#xfc;" horiz-adv-x="563" 
d="M441 698q0 -24 -17.5 -41t-41.5 -17t-41.5 17t-17.5 41q0 25 17.5 42t41.5 17t41.5 -17t17.5 -42zM231 698q0 -24 -17 -41t-41 -17q-25 0 -42 17t-17 41q0 25 17 42t42 17q24 0 41 -17t17 -42zM48 500h105v-299q0 -36 11.5 -59t28.5 -36.5t38.5 -19t40.5 -5.5
q20 0 40.5 6.5t37 22.5t27.5 43t11 68v279h105v-500h-105v50q-26 -26 -61 -44.5t-78 -18.5q-27 0 -62 8.5t-65.5 32.5t-52 65.5t-21.5 107.5v299z" />
    <glyph glyph-name="yacute" unicode="&#xfd;" horiz-adv-x="555" 
d="M379 778h115l-145 -144h-110zM121 500l161 -347l125 347h111l-183 -510q-38 -96 -102 -146.5t-152 -43.5v101q30 -3 53 5.5t41.5 24t32 37t23.5 45.5l-223 487h113z" />
    <glyph glyph-name="thorn" unicode="&#xfe;" horiz-adv-x="618" 
d="M43 700h105v-268q27 35 66.5 57.5t93.5 22.5q57 0 103 -20t78 -55t49.5 -83t17.5 -104t-17.5 -104t-49.5 -83.5t-78 -55.5t-103 -20q-54 0 -93.5 22.5t-66.5 58.5v-268h-105v900zM306 414q-34 0 -63 -12.5t-50 -34.5t-33 -52.5t-12 -65.5t12 -64.5t33 -51.5t50 -34
t63 -12q33 0 60 13t46.5 35t30 52t10.5 63q0 34 -10.5 63.5t-30 52t-46.5 35.5t-60 13z" />
    <glyph glyph-name="ydieresis" unicode="&#xff;" horiz-adv-x="555" 
d="M441 698q0 -24 -17.5 -41t-41.5 -17t-41.5 17t-17.5 41q0 25 17.5 42t41.5 17t41.5 -17t17.5 -42zM231 698q0 -24 -17 -41t-41 -17q-25 0 -42 17t-17 41q0 25 17 42t42 17q24 0 41 -17t17 -42zM121 500l161 -347l125 347h111l-183 -510q-38 -96 -102 -146.5t-152 -43.5
v101q30 -3 53 5.5t41.5 24t32 37t23.5 45.5l-223 487h113z" />
    <glyph glyph-name="Amacron" unicode="&#x100;" horiz-adv-x="694" 
d="M146 836v62h363v-62h-363zM272 700h120l262 -700h-119l-56 151h-293l-56 -151h-120zM439 256l-107 286l-107 -286h214z" />
    <glyph glyph-name="amacron" unicode="&#x101;" horiz-adv-x="619" 
d="M122 636v62h363v-62h-363zM441 68q-27 -36 -67 -58.5t-94 -22.5q-57 0 -102.5 20t-77.5 55.5t-49.5 83.5t-17.5 103q0 56 17.5 104t49.5 83.5t77.5 55.5t102.5 20q54 0 94 -22.5t67 -58.5v69h105v-500h-105v68zM283 85q34 0 63 12.5t50 34.5t33 52.5t12 65.5t-12 65
t-33 52t-50 34t-63 12q-33 0 -60 -13t-46.5 -35.5t-30 -52t-10.5 -63.5t10.5 -63.5t30 -52t46.5 -35.5t60 -13z" />
    <glyph glyph-name="Abreve" unicode="&#x102;" horiz-adv-x="694" 
d="M507 919q-31 -42 -75.5 -65t-99.5 -23q-54 0 -99 23t-77 65l49 41q23 -32 54.5 -49.5t72.5 -17.5q81 0 128 67zM272 700h120l262 -700h-119l-56 151h-293l-56 -151h-120zM439 256l-107 286l-107 -286h214z" />
    <glyph glyph-name="abreve" unicode="&#x103;" horiz-adv-x="619" 
d="M483 719q-32 -42 -76.5 -65t-98.5 -23t-99 23t-77 65l48 41q23 -32 54.5 -49.5t73.5 -17.5q80 0 127 67zM441 68q-27 -36 -67 -58.5t-94 -22.5q-57 0 -102.5 20t-77.5 55.5t-49.5 83.5t-17.5 103q0 56 17.5 104t49.5 83.5t77.5 55.5t102.5 20q54 0 94 -22.5t67 -58.5v69
h105v-500h-105v68zM283 85q34 0 63 12.5t50 34.5t33 52.5t12 65.5t-12 65t-33 52t-50 34t-63 12q-33 0 -60 -13t-46.5 -35.5t-30 -52t-10.5 -63.5t10.5 -63.5t30 -52t46.5 -35.5t60 -13z" />
    <glyph glyph-name="Aogonek" unicode="&#x104;" horiz-adv-x="694" 
d="M272 700h120l262 -700h-119l-56 151h-293l-56 -151h-22q-38 -19 -55 -42.5t-17 -50.5q0 -24 11.5 -34.5t28.5 -10.5q34 0 47 37l45 -27q-28 -58 -92 -58q-39 0 -67.5 21.5t-28.5 67.5q0 28 12.5 52.5t35.5 44.5h-18zM439 256l-107 286l-107 -286h214z" />
    <glyph glyph-name="aogonek" unicode="&#x105;" horiz-adv-x="619" 
d="M441 68q-27 -36 -67 -58.5t-94 -22.5q-57 0 -102.5 20t-77.5 55.5t-49.5 83.5t-17.5 103q0 56 17.5 104t49.5 83.5t77.5 55.5t102.5 20q54 0 94 -22.5t67 -58.5v69h105v-500h-13q-39 -19 -56 -42.5t-17 -50.5q0 -24 11.5 -34.5t29.5 -10.5q33 0 46 37l46 -27
q-14 -28 -37 -43t-55 -15q-39 0 -67.5 21.5t-28.5 67.5q0 28 12.5 52.5t35.5 44.5h-12v68zM283 85q34 0 63 12.5t50 34.5t33 52.5t12 65.5t-12 65t-33 52t-50 34t-63 12q-33 0 -60 -13t-46.5 -35.5t-30 -52t-10.5 -63.5t10.5 -63.5t30 -52t46.5 -35.5t60 -13z" />
    <glyph glyph-name="Cacute" unicode="&#x106;" horiz-adv-x="773" 
d="M505 987h115l-145 -144h-110zM40 348q0 75 28.5 140.5t77.5 114.5t114.5 77.5t140.5 28.5q51 0 98 -13.5t88 -38t74 -58.5t56 -76l-97 -53q-16 29 -39 52.5t-51.5 40t-61 26t-67.5 9.5q-52 0 -97.5 -19.5t-79.5 -53.5t-53.5 -79.5t-19.5 -97.5t19.5 -97.5t53.5 -79.5
t79.5 -53.5t97.5 -19.5q72 0 129.5 36t89.5 94l98 -53q-23 -42 -56 -76.5t-74 -59.5t-88.5 -38.5t-98.5 -13.5q-75 0 -140.5 28.5t-114.5 77.5t-77.5 114.5t-28.5 140.5z" />
    <glyph glyph-name="cacute" unicode="&#x107;" horiz-adv-x="558" 
d="M399 789h115l-145 -144h-110zM508 97q-35 -50 -91 -80t-122 -30q-54 0 -102 20.5t-83.5 56.5t-56 84t-20.5 102t20.5 101.5t56 83.5t83.5 56.5t102 20.5q66 0 121 -29.5t91 -79.5l-86 -58q-24 29 -56 45.5t-70 16.5q-33 0 -61.5 -12.5t-49.5 -33.5t-33.5 -49.5
t-12.5 -61.5t12.5 -61.5t33.5 -50t49.5 -34t61.5 -12.5q38 0 70.5 17t55.5 45z" />
    <glyph glyph-name="Cdotaccent" unicode="&#x10a;" horiz-adv-x="773" 
d="M402 833q-24 0 -41.5 17.5t-17.5 41.5q0 25 17.5 42t41.5 17t41 -17t17 -42q0 -24 -17 -41.5t-41 -17.5zM40 348q0 75 28.5 140.5t77.5 114.5t114.5 77.5t140.5 28.5q51 0 98 -13.5t88 -38t74 -58.5t56 -76l-97 -53q-16 29 -39 52.5t-51.5 40t-61 26t-67.5 9.5
q-52 0 -97.5 -19.5t-79.5 -53.5t-53.5 -79.5t-19.5 -97.5t19.5 -97.5t53.5 -79.5t79.5 -53.5t97.5 -19.5q72 0 129.5 36t89.5 94l98 -53q-23 -42 -56 -76.5t-74 -59.5t-88.5 -38.5t-98.5 -13.5q-75 0 -140.5 28.5t-114.5 77.5t-77.5 114.5t-28.5 140.5z" />
    <glyph glyph-name="cdotaccent" unicode="&#x10b;" horiz-adv-x="558" 
d="M296 636q-24 0 -41.5 17t-17.5 42q0 24 17.5 41.5t41.5 17.5t41 -17.5t17 -41.5q0 -25 -17 -42t-41 -17zM508 97q-35 -50 -91 -80t-122 -30q-54 0 -102 20.5t-83.5 56.5t-56 84t-20.5 102t20.5 101.5t56 83.5t83.5 56.5t102 20.5q66 0 121 -29.5t91 -79.5l-86 -58
q-24 29 -56 45.5t-70 16.5q-33 0 -61.5 -12.5t-49.5 -33.5t-33.5 -49.5t-12.5 -61.5t12.5 -61.5t33.5 -50t49.5 -34t61.5 -12.5q38 0 70.5 17t55.5 45z" />
    <glyph glyph-name="Ccaron" unicode="&#x10c;" horiz-adv-x="773" 
d="M352 835l-96 144h66l78 -96l74 96h67l-93 -144h-96zM40 348q0 75 28.5 140.5t77.5 114.5t114.5 77.5t140.5 28.5q51 0 98 -13.5t88 -38t74 -58.5t56 -76l-97 -53q-16 29 -39 52.5t-51.5 40t-61 26t-67.5 9.5q-52 0 -97.5 -19.5t-79.5 -53.5t-53.5 -79.5t-19.5 -97.5
t19.5 -97.5t53.5 -79.5t79.5 -53.5t97.5 -19.5q72 0 129.5 36t89.5 94l98 -53q-23 -42 -56 -76.5t-74 -59.5t-88.5 -38.5t-98.5 -13.5q-75 0 -140.5 28.5t-114.5 77.5t-77.5 114.5t-28.5 140.5z" />
    <glyph glyph-name="ccaron" unicode="&#x10d;" horiz-adv-x="558" 
d="M246 638l-96 144h66l78 -97l74 97h67l-93 -144h-96zM508 97q-35 -50 -91 -80t-122 -30q-54 0 -102 20.5t-83.5 56.5t-56 84t-20.5 102t20.5 101.5t56 83.5t83.5 56.5t102 20.5q66 0 121 -29.5t91 -79.5l-86 -58q-24 29 -56 45.5t-70 16.5q-33 0 -61.5 -12.5t-49.5 -33.5
t-33.5 -49.5t-12.5 -61.5t12.5 -61.5t33.5 -50t49.5 -34t61.5 -12.5q38 0 70.5 17t55.5 45z" />
    <glyph glyph-name="Dcaron" unicode="&#x10e;" horiz-adv-x="759" 
d="M280 826l-96 144h67l77 -96l75 96h66l-93 -144h-96zM63 700h267q75 0 140 -27t114 -74.5t77 -111.5t28 -139t-28 -138.5t-77 -110t-114 -73t-140 -26.5h-267v700zM174 595v-490h156q52 0 97 18.5t78.5 51.5t53 77.5t19.5 96.5t-19.5 97t-53 78t-78.5 52t-97 19h-156z" />
    <glyph glyph-name="dcaron" unicode="&#x10f;" horiz-adv-x="618" 
d="M257 724l-96 144h66l78 -96l74 96h67l-93 -144h-96zM546 0h-105v67q-28 -35 -67.5 -57.5t-93.5 -22.5q-57 0 -102.5 20t-77.5 55.5t-49.5 83.5t-17.5 103q0 56 17.5 104t49.5 83.5t77.5 55.5t102.5 20q54 0 93.5 -22.5t67.5 -58.5v269h105v-700zM283 85q34 0 63 12.5
t50 34.5t33 52.5t12 65.5t-12 65t-33 52t-50 34t-63 12q-33 0 -60 -13t-46.5 -35.5t-30 -52t-10.5 -63.5t10.5 -63.5t30 -52t46.5 -35.5t60 -13z" />
    <glyph glyph-name="Dcroat" unicode="&#x110;" horiz-adv-x="759" 
d="M63 298h-64v103h64v299h267q75 0 140 -27t114 -74.5t77 -111.5t28 -139t-28 -138.5t-77 -110t-114 -73t-140 -26.5h-267v298zM174 595v-194h163v-103h-163v-193h156q52 0 97 18.5t78.5 51.5t53 77.5t19.5 96.5t-19.5 97t-53 78t-78.5 52t-97 19h-156z" />
    <glyph glyph-name="dcroat" unicode="&#x111;" horiz-adv-x="618" 
d="M546 623h113v-103h-113v-520h-105v67q-28 -35 -67.5 -57.5t-93.5 -22.5q-57 0 -102.5 20t-77.5 55.5t-49.5 83.5t-17.5 103q0 56 17.5 104t49.5 83.5t77.5 55.5t102.5 20q54 0 93.5 -22.5t67.5 -58.5v89h-119v103h119v77h105v-77zM283 85q34 0 63 12.5t50 34.5t33 52.5
t12 65.5t-12 65t-33 52t-50 34t-63 12q-33 0 -60 -13t-46.5 -35.5t-30 -52t-10.5 -63.5t10.5 -63.5t30 -52t46.5 -35.5t60 -13z" />
    <glyph glyph-name="Emacron" unicode="&#x112;" horiz-adv-x="537" 
d="M84 834v62h363v-62h-363zM60 700h409v-105h-298v-188h273v-105h-273v-197h303v-105h-414v700z" />
    <glyph glyph-name="emacron" unicode="&#x113;" horiz-adv-x="606" 
d="M110 649v62h363v-62h-363zM295 513q56 0 102 -21t79 -57t51.5 -84t18.5 -102q0 -11 -1 -19.5t-3 -18.5h-404q11 -57 55 -94.5t112 -37.5q42 0 79 18t55 47l82 -48q-34 -51 -89.5 -80t-128.5 -29q-61 0 -111 20t-85 55.5t-54.5 83.5t-19.5 104t19 104t53.5 83t83 55.5
t106.5 20.5zM446 294q-8 60 -48.5 93.5t-103.5 33.5q-33 0 -61.5 -10.5t-49.5 -28t-33.5 -40.5t-12.5 -48h309z" />
    <glyph glyph-name="Edotaccent" unicode="&#x116;" horiz-adv-x="537" 
d="M271 822q-24 0 -41.5 17t-17.5 42q0 24 17.5 41.5t41.5 17.5t41.5 -17.5t17.5 -41.5q0 -25 -17.5 -42t-41.5 -17zM60 700h409v-105h-298v-188h273v-105h-273v-197h303v-105h-414v700z" />
    <glyph glyph-name="edotaccent" unicode="&#x117;" horiz-adv-x="606" 
d="M297 637q-24 0 -41.5 17t-17.5 42q0 24 17.5 41.5t41.5 17.5t41.5 -17.5t17.5 -41.5q0 -25 -17.5 -42t-41.5 -17zM295 513q56 0 102 -21t79 -57t51.5 -84t18.5 -102q0 -11 -1 -19.5t-3 -18.5h-404q11 -57 55 -94.5t112 -37.5q42 0 79 18t55 47l82 -48q-34 -51 -89.5 -80
t-128.5 -29q-61 0 -111 20t-85 55.5t-54.5 83.5t-19.5 104t19 104t53.5 83t83 55.5t106.5 20.5zM446 294q-8 60 -48.5 93.5t-103.5 33.5q-33 0 -61.5 -10.5t-49.5 -28t-33.5 -40.5t-12.5 -48h309z" />
    <glyph glyph-name="Eogonek" unicode="&#x118;" horiz-adv-x="537" 
d="M188 -128q-29 -58 -92 -58q-39 0 -67.5 21t-28.5 68q0 31 15.5 58t44.5 48v691h409v-105h-298v-188h273v-105h-273v-197h303v-105h-345q-39 -20 -56.5 -43.5t-17.5 -49.5q0 -25 11.5 -35.5t29.5 -10.5q17 0 28.5 10.5t17.5 27.5z" />
    <glyph glyph-name="eogonek" unicode="&#x119;" horiz-adv-x="606" 
d="M295 513q56 0 102 -21t79 -57t51.5 -84t18.5 -102q0 -11 -1 -19.5t-3 -18.5h-404q11 -57 55 -94.5t112 -37.5q42 0 79 18t55 47l82 -48q-30 -45 -77 -72.5t-107 -34.5q-35 -18 -49.5 -40.5t-14.5 -47.5t11.5 -35.5t28.5 -10.5q18 0 29.5 10.5t17.5 27.5l45 -27
q-27 -58 -92 -58q-39 0 -67 21t-28 68q0 26 11.5 49.5t32.5 43.5q-52 6 -94.5 28.5t-72.5 56.5t-46 79t-16 96q0 56 19 104t53.5 83t83 55.5t106.5 20.5zM446 294q-8 60 -48.5 93.5t-103.5 33.5q-33 0 -61.5 -10.5t-49.5 -28t-33.5 -40.5t-12.5 -48h309z" />
    <glyph glyph-name="Ecaron" unicode="&#x11a;" horiz-adv-x="537" 
d="M221 824l-96 144h67l77 -97l75 97h66l-93 -144h-96zM60 700h409v-105h-298v-188h273v-105h-273v-197h303v-105h-414v700z" />
    <glyph glyph-name="ecaron" unicode="&#x11b;" horiz-adv-x="606" 
d="M247 639l-96 144h67l77 -97l75 97h66l-93 -144h-96zM295 513q56 0 102 -21t79 -57t51.5 -84t18.5 -102q0 -11 -1 -19.5t-3 -18.5h-404q11 -57 55 -94.5t112 -37.5q42 0 79 18t55 47l82 -48q-34 -51 -89.5 -80t-128.5 -29q-61 0 -111 20t-85 55.5t-54.5 83.5t-19.5 104
t19 104t53.5 83t83 55.5t106.5 20.5zM446 294q-8 60 -48.5 93.5t-103.5 33.5q-33 0 -61.5 -10.5t-49.5 -28t-33.5 -40.5t-12.5 -48h309z" />
    <glyph glyph-name="Gbreve" unicode="&#x11e;" horiz-adv-x="820" 
d="M576 928q-32 -42 -76.5 -65t-98.5 -23t-99 23t-77 65l48 41q23 -32 54.5 -49.5t73.5 -17.5q80 0 127 67zM40 348q0 75 28.5 140.5t77.5 114.5t114.5 77.5t140.5 28.5q47 0 90.5 -11.5t82 -32.5t70.5 -50.5t56 -65.5l-88 -67q-33 52 -88.5 84t-122.5 32q-52 0 -97.5 -19.5
t-79.5 -53.5t-53.5 -79.5t-19.5 -97.5t19.5 -97.5t53.5 -79.5t79.5 -53.5t97.5 -19.5q43 0 80.5 11.5t67.5 32t51 49.5t31 63h-251v105h372v-52q0 -66 -27.5 -124t-74.5 -101.5t-111 -69t-138 -25.5q-75 0 -140.5 28.5t-114.5 77.5t-77.5 114.5t-28.5 140.5z" />
    <glyph glyph-name="gbreve" unicode="&#x11f;" horiz-adv-x="638" 
d="M494 719q-32 -42 -76.5 -65t-98.5 -23t-99 23t-77 65l48 41q23 -32 54.5 -49.5t73.5 -17.5q80 0 127 67zM455 67q-27 -35 -66.5 -57.5t-93.5 -22.5q-57 0 -103 20t-78 55.5t-49.5 83.5t-17.5 103q0 56 17.5 104t49.5 83.5t78 55.5t103 20q54 0 93.5 -22.5t66.5 -58.5v69
h105v-475q0 -54 -20.5 -98t-56.5 -75t-85.5 -48t-107.5 -17q-44 0 -83.5 9t-72.5 24.5t-58 38t-39 49.5l90 52q15 -30 57 -53t109 -23q35 0 64.5 10t51.5 28.5t34 44.5t12 58v42zM297 85q34 0 63 12.5t50 34.5t33 52.5t12 65.5t-12 65t-33 52t-50 34t-63 12q-33 0 -60 -13
t-46.5 -35.5t-30 -52t-10.5 -63.5t10.5 -63.5t30 -52t46.5 -35.5t60 -13z" />
    <glyph glyph-name="Gdotaccent" unicode="&#x120;" horiz-adv-x="820" 
d="M402 833q-24 0 -41.5 17.5t-17.5 41.5q0 25 17.5 42t41.5 17t41 -17t17 -42q0 -24 -17 -41.5t-41 -17.5zM40 348q0 75 28.5 140.5t77.5 114.5t114.5 77.5t140.5 28.5q47 0 90.5 -11.5t82 -32.5t70.5 -50.5t56 -65.5l-88 -67q-33 52 -88.5 84t-122.5 32q-52 0 -97.5 -19.5
t-79.5 -53.5t-53.5 -79.5t-19.5 -97.5t19.5 -97.5t53.5 -79.5t79.5 -53.5t97.5 -19.5q43 0 80.5 11.5t67.5 32t51 49.5t31 63h-251v105h372v-52q0 -66 -27.5 -124t-74.5 -101.5t-111 -69t-138 -25.5q-75 0 -140.5 28.5t-114.5 77.5t-77.5 114.5t-28.5 140.5z" />
    <glyph glyph-name="gdotaccent" unicode="&#x121;" horiz-adv-x="638" 
d="M320 624q-24 0 -41.5 17.5t-17.5 41.5q0 25 17.5 42t41.5 17t41 -17t17 -42q0 -24 -17 -41.5t-41 -17.5zM455 67q-27 -35 -66.5 -57.5t-93.5 -22.5q-57 0 -103 20t-78 55.5t-49.5 83.5t-17.5 103q0 56 17.5 104t49.5 83.5t78 55.5t103 20q54 0 93.5 -22.5t66.5 -58.5v69
h105v-475q0 -54 -20.5 -98t-56.5 -75t-85.5 -48t-107.5 -17q-44 0 -83.5 9t-72.5 24.5t-58 38t-39 49.5l90 52q15 -30 57 -53t109 -23q35 0 64.5 10t51.5 28.5t34 44.5t12 58v42zM297 85q34 0 63 12.5t50 34.5t33 52.5t12 65.5t-12 65t-33 52t-50 34t-63 12q-33 0 -60 -13
t-46.5 -35.5t-30 -52t-10.5 -63.5t10.5 -63.5t30 -52t46.5 -35.5t60 -13z" />
    <glyph glyph-name="uni0122" unicode="&#x122;" horiz-adv-x="820" 
d="M40 348q0 75 28.5 140.5t77.5 114.5t114.5 77.5t140.5 28.5q47 0 90.5 -11.5t82 -32.5t70.5 -50.5t56 -65.5l-88 -67q-33 52 -88.5 84t-122.5 32q-52 0 -97.5 -19.5t-79.5 -53.5t-53.5 -79.5t-19.5 -97.5t19.5 -97.5t53.5 -79.5t79.5 -53.5t97.5 -19.5q43 0 80.5 11.5
t67.5 32t51 49.5t31 63h-251v105h372v-52q0 -66 -27.5 -124t-74.5 -101.5t-111 -69t-138 -25.5q-75 0 -140.5 28.5t-114.5 77.5t-77.5 114.5t-28.5 140.5zM339 -103h122v-124l-81 -118l-36 30l39 88h-44v124z" />
    <glyph glyph-name="uni0123" unicode="&#x123;" horiz-adv-x="638" 
d="M198 590h-122v124l81 118l36 -30l-39 -88h44v-124zM455 67q-27 -35 -66.5 -57.5t-93.5 -22.5q-57 0 -103 20t-78 55.5t-49.5 83.5t-17.5 103q0 56 17.5 104t49.5 83.5t78 55.5t103 20q54 0 93.5 -22.5t66.5 -58.5v69h105v-475q0 -54 -20.5 -98t-56.5 -75t-85.5 -48
t-107.5 -17q-44 0 -83.5 9t-72.5 24.5t-58 38t-39 49.5l90 52q15 -30 57 -53t109 -23q35 0 64.5 10t51.5 28.5t34 44.5t12 58v42zM297 85q34 0 63 12.5t50 34.5t33 52.5t12 65.5t-12 65t-33 52t-50 34t-63 12q-33 0 -60 -13t-46.5 -35.5t-30 -52t-10.5 -63.5t10.5 -63.5
t30 -52t46.5 -35.5t60 -13z" />
    <glyph glyph-name="Hbar" unicode="&#x126;" horiz-adv-x="721" 
d="M63 496h-49v86h49v118h111v-118h343v118h111v-118h49v-86h-49v-496h-111v306h-343v-306h-111v496zM517 411v85h-343v-85h343z" />
    <glyph glyph-name="hbar" unicode="&#x127;" horiz-adv-x="556" 
d="M43 516h-106v103h106v81h105v-81h127v-103h-127v-64q24 25 58 41.5t76 16.5q27 0 61.5 -8.5t65.5 -31.5t52.5 -64.5t21.5 -106.5v-299h-105v297q0 36 -11.5 59t-28.5 36.5t-38 19t-41 5.5q-16 0 -33.5 -4.5t-33 -15.5t-27 -29t-17.5 -45v-323h-105v516z" />
    <glyph glyph-name="Imacron" unicode="&#x12a;" horiz-adv-x="266" 
d="M-67 836v62h364v-62h-364zM63 700h111v-700h-111v700z" />
    <glyph glyph-name="imacron" unicode="&#x12b;" horiz-adv-x="245" 
d="M-80 636v62h364v-62h-364zM55 500h105v-500h-105v500z" />
    <glyph glyph-name="Iogonek" unicode="&#x12e;" horiz-adv-x="266" 
d="M188 -128q-29 -58 -92 -58q-39 0 -67.5 21t-28.5 68q0 32 16.5 59.5t46.5 48.5v689h111v-700h-45q-39 -20 -56.5 -43.5t-17.5 -49.5q0 -25 11.5 -35.5t29.5 -10.5q17 0 28.5 10.5t17.5 27.5z" />
    <glyph glyph-name="iogonek" unicode="&#x12f;" horiz-adv-x="245" 
d="M108 624q-24 0 -41.5 17.5t-17.5 41.5q0 25 17.5 42t41.5 17t41 -17t17 -42q0 -24 -17 -41.5t-41 -17.5zM188 -128q-29 -58 -92 -58q-39 0 -67.5 21t-28.5 68q0 29 14.5 55t40.5 47v495h105v-500h-31q-39 -20 -56.5 -43.5t-17.5 -49.5q0 -25 11.5 -35.5t29.5 -10.5
q17 0 28.5 10.5t17.5 27.5z" />
    <glyph glyph-name="Idotaccent" unicode="&#x130;" horiz-adv-x="266" 
d="M121 824q-24 0 -41.5 17.5t-17.5 41.5q0 25 17.5 42t41.5 17t41 -17t17 -42q0 -24 -17 -41.5t-41 -17.5zM63 700h111v-700h-111v700z" />
    <glyph glyph-name="dotlessi" unicode="&#x131;" horiz-adv-x="245" 
d="M55 500h105v-500h-105v500z" />
    <glyph glyph-name="uni0136" unicode="&#x136;" horiz-adv-x="660" 
d="M486 0l-242 296l-70 -80v-216h-111v700h111v-316l287 316h144l-286 -321l306 -378zM260 -90h122v-124l-81 -118l-36 30l39 88h-44v124z" />
    <glyph glyph-name="uni0137" unicode="&#x137;" horiz-adv-x="554" 
d="M43 700h105v-433l210 233h146l-205 -223l213 -277h-132l-153 199l-79 -86v-113h-105v700zM62 -91h122v-124l-82 -119l-36 30l39 89h-43v124z" />
    <glyph glyph-name="Lacute" unicode="&#x139;" horiz-adv-x="528" 
d="M221 978h115l-145 -144h-110zM63 700h111v-595h306v-105h-417v700z" />
    <glyph glyph-name="lacute" unicode="&#x13a;" horiz-adv-x="266" 
d="M202 978h115l-145 -144h-110zM211 0q-17 -2 -32 -4t-30 -2q-23 0 -42.5 5.5t-33.5 19.5t-22 37.5t-8 60.5v583h105v-576q0 -24 15.5 -28t47.5 1v-97z" />
    <glyph glyph-name="uni013B" unicode="&#x13b;" horiz-adv-x="528" 
d="M63 700h111v-595h306v-105h-417v700zM220 -90h122v-124l-81 -118l-36 30l39 88h-44v124z" />
    <glyph glyph-name="uni013C" unicode="&#x13c;" horiz-adv-x="266" 
d="M211 0q-17 -2 -32 -4t-30 -2q-23 0 -42.5 5.5t-33.5 19.5t-22 37.5t-8 60.5v583h105v-576q0 -24 15.5 -28t47.5 1v-97zM66 -90h122v-124l-81 -118l-36 30l39 88h-44v124z" />
    <glyph glyph-name="Lcaron" unicode="&#x13d;" horiz-adv-x="528" 
d="M67 826l-96 144h67l77 -96l75 96h66l-93 -144h-96zM63 700h111v-595h306v-105h-417v700z" />
    <glyph glyph-name="lcaron" unicode="&#x13e;" horiz-adv-x="266" 
d="M48 826l-96 144h67l77 -96l75 96h66l-93 -144h-96zM211 0q-17 -2 -32 -4t-30 -2q-23 0 -42.5 5.5t-33.5 19.5t-22 37.5t-8 60.5v583h105v-576q0 -24 15.5 -28t47.5 1v-97z" />
    <glyph glyph-name="Lslash" unicode="&#x141;" horiz-adv-x="528" 
d="M63 230l-61 -57l-74 72l135 126v329h111v-225l88 83l73 -72l-161 -152v-229h306v-105h-417v230z" />
    <glyph glyph-name="lslash" unicode="&#x142;" horiz-adv-x="266" 
d="M211 0q-17 -2 -32 -4t-30 -2q-23 0 -42.5 5.5t-33.5 19.5t-22 37.5t-8 60.5v148l-78 -72l-74 72l152 141v294h105v-196l77 73l74 -72l-151 -141v-240q0 -24 15.5 -28t47.5 1v-97z" />
    <glyph glyph-name="Nacute" unicode="&#x143;" horiz-adv-x="690" 
d="M439 978h115l-145 -144h-110zM63 700h111l313 -481v481h111v-700h-96l-328 509v-509h-111v700z" />
    <glyph glyph-name="nacute" unicode="&#x144;" horiz-adv-x="560" 
d="M376 778h115l-145 -144h-110zM488 0h-105v299q0 36 -11.5 59t-29 37t-38.5 19.5t-41 5.5q-19 0 -39.5 -6.5t-37.5 -22.5t-27.5 -43t-10.5 -68v-280h-105v500h105v-50q25 26 60 44.5t79 18.5q27 0 62 -8.5t65.5 -32.5t52 -65.5t21.5 -107.5v-299z" />
    <glyph glyph-name="uni0145" unicode="&#x145;" horiz-adv-x="690" 
d="M63 700h111l313 -481v481h111v-700h-96l-328 509v-509h-111v700zM280 -90h122v-124l-81 -118l-36 30l39 88h-44v124z" />
    <glyph glyph-name="uni0146" unicode="&#x146;" horiz-adv-x="560" 
d="M488 0h-105v299q0 36 -11.5 59t-29 37t-38.5 19.5t-41 5.5q-19 0 -39.5 -6.5t-37.5 -22.5t-27.5 -43t-10.5 -68v-280h-105v500h105v-50q25 26 60 44.5t79 18.5q27 0 62 -8.5t65.5 -32.5t52 -65.5t21.5 -107.5v-299zM204 -90h122v-124l-81 -118l-36 30l39 88h-44v124z" />
    <glyph glyph-name="Ncaron" unicode="&#x147;" horiz-adv-x="690" 
d="M286 826l-96 144h66l78 -96l74 96h67l-93 -144h-96zM63 700h111l313 -481v481h111v-700h-96l-328 509v-509h-111v700z" />
    <glyph glyph-name="ncaron" unicode="&#x148;" horiz-adv-x="560" 
d="M223 626l-96 144h66l78 -96l74 96h67l-93 -144h-96zM488 0h-105v299q0 36 -11.5 59t-29 37t-38.5 19.5t-41 5.5q-19 0 -39.5 -6.5t-37.5 -22.5t-27.5 -43t-10.5 -68v-280h-105v500h105v-50q25 26 60 44.5t79 18.5q27 0 62 -8.5t65.5 -32.5t52 -65.5t21.5 -107.5v-299z
" />
    <glyph glyph-name="Eng" unicode="&#x14a;" horiz-adv-x="690" 
d="M492 15l-318 494v-509h-111v700h111l313 -482v482h111v-700h-1v-13q0 -47 -15.5 -82.5t-43 -59.5t-67 -35t-87.5 -7v101q57 -5 82.5 14.5t25.5 68.5v28z" />
    <glyph glyph-name="eng" unicode="&#x14b;" horiz-adv-x="560" 
d="M383 299q0 36 -11.5 59t-29 37t-38.5 19.5t-41 5.5q-19 0 -39.5 -6.5t-37.5 -22.5t-27.5 -43t-10.5 -68v-280h-105v500h105v-50q25 26 60 44.5t79 18.5q27 0 62 -8.5t65.5 -32.5t52 -65.5t21.5 -107.5v-327q0 -46 -15.5 -82t-43 -60t-67 -35t-87.5 -7v101q57 -5 82.5 15
t25.5 68v327z" />
    <glyph glyph-name="Omacron" unicode="&#x14c;" horiz-adv-x="832" 
d="M215 845v62h363v-62h-363zM401 -13q-75 0 -140.5 28.5t-114.5 77.5t-77.5 114.5t-28.5 140.5t28.5 140.5t77.5 114.5t114.5 77.5t140.5 28.5t140.5 -28.5t114.5 -77.5t77.5 -114.5t28.5 -140.5t-28.5 -140.5t-77.5 -114.5t-114.5 -77.5t-140.5 -28.5zM401 98
q52 0 97.5 19.5t79.5 53.5t53.5 79.5t19.5 97.5t-19.5 97.5t-53.5 79.5t-79.5 53.5t-97.5 19.5t-97.5 -19.5t-79.5 -53.5t-53.5 -79.5t-19.5 -97.5t19.5 -97.5t53.5 -79.5t79.5 -53.5t97.5 -19.5z" />
    <glyph glyph-name="omacron" unicode="&#x14d;" horiz-adv-x="620" 
d="M109 648v62h363v-62h-363zM295 -13q-54 0 -102 20.5t-83.5 56.5t-56 84t-20.5 102t20.5 101.5t56 83.5t83.5 56.5t102 20.5t102 -20.5t83.5 -56.5t56 -83.5t20.5 -101.5t-20.5 -102t-56 -84t-83.5 -56.5t-102 -20.5zM295 92q33 0 61.5 12.5t49.5 34t33.5 50t12.5 61.5
t-12.5 61.5t-33.5 49.5t-49.5 33.5t-61.5 12.5t-61.5 -12.5t-50 -33.5t-34 -49.5t-12.5 -61.5t12.5 -61.5t34 -50t50 -34t61.5 -12.5z" />
    <glyph glyph-name="Ohungarumlaut" unicode="&#x150;" horiz-adv-x="832" 
d="M374 989h88l-115 -144h-63zM520 989h88l-115 -144h-63zM401 -13q-75 0 -140.5 28.5t-114.5 77.5t-77.5 114.5t-28.5 140.5t28.5 140.5t77.5 114.5t114.5 77.5t140.5 28.5t140.5 -28.5t114.5 -77.5t77.5 -114.5t28.5 -140.5t-28.5 -140.5t-77.5 -114.5t-114.5 -77.5
t-140.5 -28.5zM401 98q52 0 97.5 19.5t79.5 53.5t53.5 79.5t19.5 97.5t-19.5 97.5t-53.5 79.5t-79.5 53.5t-97.5 19.5t-97.5 -19.5t-79.5 -53.5t-53.5 -79.5t-19.5 -97.5t19.5 -97.5t53.5 -79.5t79.5 -53.5t97.5 -19.5z" />
    <glyph glyph-name="ohungarumlaut" unicode="&#x151;" horiz-adv-x="620" 
d="M268 791h88l-115 -144h-63zM414 791h88l-115 -144h-63zM295 -13q-54 0 -102 20.5t-83.5 56.5t-56 84t-20.5 102t20.5 101.5t56 83.5t83.5 56.5t102 20.5t102 -20.5t83.5 -56.5t56 -83.5t20.5 -101.5t-20.5 -102t-56 -84t-83.5 -56.5t-102 -20.5zM295 92q33 0 61.5 12.5
t49.5 34t33.5 50t12.5 61.5t-12.5 61.5t-33.5 49.5t-49.5 33.5t-61.5 12.5t-61.5 -12.5t-50 -33.5t-34 -49.5t-12.5 -61.5t12.5 -61.5t34 -50t50 -34t61.5 -12.5z" />
    <glyph glyph-name="OE" unicode="&#x152;" horiz-adv-x="1070" 
d="M371 -13q-75 0 -136 28.5t-104.5 77.5t-67 114.5t-23.5 140.5t23.5 140.5t67 114.5t104.5 77.5t136 28.5q68 0 124 -23t98 -64v78h409v-105h-298v-188h273v-105h-273v-197h303v-105h-414v74q-42 -41 -98 -64t-124 -23zM371 98q52 0 92.5 19.5t69 53.5t43.5 79.5t15 97.5
t-15 97.5t-43.5 79.5t-69 53.5t-92.5 19.5t-92.5 -19.5t-69 -53.5t-43.5 -79.5t-15 -97.5t15 -97.5t43.5 -79.5t69 -53.5t92.5 -19.5z" />
    <glyph glyph-name="oe" unicode="&#x153;" horiz-adv-x="967" 
d="M681 513q56 0 98 -21t70.5 -57t43 -84t14.5 -102q0 -11 -1 -19.5t-3 -18.5h-364q11 -57 47.5 -94.5t104.5 -37.5q42 0 71.5 18t47.5 47l77 -48q-34 -51 -79.5 -80t-118.5 -29q-75 0 -125.5 29t-79.5 80q-32 -48 -82.5 -78.5t-113.5 -30.5q-57 0 -103.5 20t-80.5 55.5
t-52.5 83.5t-18.5 103q0 56 18.5 104t52.5 83.5t80.5 55.5t103.5 20q63 0 113.5 -30.5t82.5 -78.5q28 51 76.5 80.5t120.5 29.5zM817 294q-8 60 -41 93.5t-96 33.5q-33 0 -59.5 -10.5t-44.5 -28t-28 -40.5t-10 -48h279zM288 85q34 0 63 12.5t50.5 34.5t33.5 52.5t12 65.5
t-12 65t-33.5 52t-50.5 34t-63 12q-33 0 -61 -13t-48 -35.5t-31.5 -52t-11.5 -63.5t11.5 -63.5t31.5 -52t48 -35.5t61 -13z" />
    <glyph glyph-name="Racute" unicode="&#x154;" horiz-adv-x="644" 
d="M393 978h115l-145 -144h-110zM60 700h278q47 0 87.5 -17.5t71.5 -48t48.5 -71t17.5 -87.5q0 -66 -34.5 -119.5t-89.5 -81.5l155 -275h-127l-142 251h-154v-251h-111v700zM338 357q24 0 46 9.5t38 25.5t25.5 37.5t9.5 46.5q0 24 -9.5 45.5t-25.5 37.5t-38 25.5t-46 9.5
h-167v-237h167z" />
    <glyph glyph-name="racute" unicode="&#x155;" horiz-adv-x="365" 
d="M285 778h115l-145 -144h-110zM312 400q-5 2 -10 2h-10q-30 0 -56.5 -8t-47 -25t-32 -43t-11.5 -61v-265h-105v500h105v-91q16 36 56 63.5t102 27.5h17z" />
    <glyph glyph-name="uni0156" unicode="&#x156;" horiz-adv-x="644" 
d="M60 700h278q47 0 87.5 -17.5t71.5 -48t48.5 -71t17.5 -87.5q0 -66 -34.5 -119.5t-89.5 -81.5l155 -275h-127l-142 251h-154v-251h-111v700zM338 357q24 0 46 9.5t38 25.5t25.5 37.5t9.5 46.5q0 24 -9.5 45.5t-25.5 37.5t-38 25.5t-46 9.5h-167v-237h167zM250 -90h122
v-124l-81 -118l-36 30l39 88h-44v124z" />
    <glyph glyph-name="uni0157" unicode="&#x157;" horiz-adv-x="365" 
d="M312 400q-5 2 -10 2h-10q-30 0 -56.5 -8t-47 -25t-32 -43t-11.5 -61v-265h-105v500h105v-91q16 36 56 63.5t102 27.5h17zM33 -90h122v-124l-81 -118l-36 30l39 88h-44v124z" />
    <glyph glyph-name="Rcaron" unicode="&#x158;" horiz-adv-x="644" 
d="M240 826l-96 144h66l78 -96l74 96h67l-93 -144h-96zM60 700h278q47 0 87.5 -17.5t71.5 -48t48.5 -71t17.5 -87.5q0 -66 -34.5 -119.5t-89.5 -81.5l155 -275h-127l-142 251h-154v-251h-111v700zM338 357q24 0 46 9.5t38 25.5t25.5 37.5t9.5 46.5q0 24 -9.5 45.5
t-25.5 37.5t-38 25.5t-46 9.5h-167v-237h167z" />
    <glyph glyph-name="rcaron" unicode="&#x159;" horiz-adv-x="365" 
d="M131 626l-96 144h67l77 -96l75 96h66l-93 -144h-96zM312 400q-5 2 -10 2h-10q-30 0 -56.5 -8t-47 -25t-32 -43t-11.5 -61v-265h-105v500h105v-91q16 36 56 63.5t102 27.5h17z" />
    <glyph glyph-name="Sacute" unicode="&#x15a;" horiz-adv-x="639" 
d="M404 990h115l-145 -144h-110zM317 -13q-113 0 -186.5 47t-102.5 123l106 55q21 -54 66.5 -85t119.5 -31q35 0 62 9t45.5 23.5t28 32.5t9.5 36q0 44 -45 66.5t-131 45.5q-45 13 -86.5 28t-73.5 38t-51 56t-19 81q0 47 19.5 84t52.5 63t77 40t92 14q94 0 159.5 -42
t100.5 -111l-108 -54q-21 47 -58.5 72t-93.5 25q-30 0 -53 -8t-39.5 -20.5t-25 -29t-8.5 -34.5q0 -23 10.5 -38t31 -26t50.5 -20.5t70 -21.5q46 -13 90.5 -29t79 -39.5t55.5 -57.5t21 -85q0 -47 -20 -85t-55.5 -65t-84 -42t-105.5 -15z" />
    <glyph glyph-name="sacute" unicode="&#x15b;" horiz-adv-x="513" 
d="M347 790h115l-145 -144h-110zM154 362q0 -23 22 -34.5t55 -20t71.5 -17t71.5 -25t55 -45.5t22 -77q0 -37 -16.5 -66t-45 -49t-66.5 -30.5t-80 -10.5q-79 0 -133 30.5t-80 85.5l87 45q15 -39 48 -57t78 -18q20 0 39 4.5t34 13t24 21.5t9 30q0 25 -22.5 38.5t-55.5 22.5
t-72.5 18t-72.5 25t-55.5 42.5t-22.5 70.5q0 35 15.5 63.5t41.5 48.5t62 31t76 11q64 0 114 -27t77 -77l-86 -43q-28 61 -105 61q-42 0 -65.5 -17.5t-23.5 -47.5z" />
    <glyph glyph-name="Scedilla" unicode="&#x15e;" horiz-adv-x="639" 
d="M317 -206q-35 0 -62 8.5t-44 22.5l22 45q18 -14 38.5 -21.5t42.5 -7.5q23 0 39.5 10t16.5 27q0 30 -33 30q-21 0 -34 -16l-41 24l27 72q-102 6 -168 51.5t-93 117.5l106 55q21 -54 66.5 -85t119.5 -31q35 0 62 9t45.5 23.5t28 32.5t9.5 36q0 44 -45 66.5t-131 45.5
q-45 13 -86.5 28t-73.5 38t-51 56t-19 81q0 47 19.5 84t52.5 63t77 40t92 14q94 0 159.5 -42t100.5 -111l-108 -54q-21 47 -58.5 72t-93.5 25q-30 0 -53 -8t-39.5 -20.5t-25 -29t-8.5 -34.5q0 -23 10.5 -38t31 -26t50.5 -20.5t70 -21.5q46 -13 90.5 -29t79 -39.5t55.5 -57.5
t21 -85q0 -44 -18 -80.5t-49.5 -63.5t-75.5 -43t-96 -19l-21 -53q14 10 36 10q29 0 48 -18.5t19 -50.5q0 -38 -31.5 -60t-76.5 -22z" />
    <glyph glyph-name="scedilla" unicode="&#x15f;" horiz-adv-x="513" 
d="M154 362q0 -23 22 -34.5t55 -20t71.5 -17t71.5 -25t55 -45.5t22 -77q0 -34 -14 -61.5t-39 -47t-58 -31t-71 -14.5l-21 -54q14 10 36 10q28 0 47 -18.5t19 -50.5q0 -38 -31.5 -60t-76.5 -22q-35 0 -62 8.5t-44 22.5l23 45q17 -14 37.5 -21.5t43.5 -7.5t39 10t16 27
q0 30 -32 30q-21 0 -35 -16l-40 24l26 73q-67 5 -114 34.5t-70 79.5l87 45q15 -39 48 -57t78 -18q20 0 39 4.5t34 13t24 21.5t9 30q0 25 -22.5 38.5t-55.5 22.5t-72.5 18t-72.5 25t-55.5 42.5t-22.5 70.5q0 35 15.5 63.5t41.5 48.5t62 31t76 11q64 0 114 -27t77 -77l-86 -43
q-28 61 -105 61q-42 0 -65.5 -17.5t-23.5 -47.5z" />
    <glyph glyph-name="Scaron" unicode="&#x160;" horiz-adv-x="639" 
d="M251 839l-96 144h66l78 -97l74 97h67l-93 -144h-96zM317 -13q-113 0 -186.5 47t-102.5 123l106 55q21 -54 66.5 -85t119.5 -31q35 0 62 9t45.5 23.5t28 32.5t9.5 36q0 44 -45 66.5t-131 45.5q-45 13 -86.5 28t-73.5 38t-51 56t-19 81q0 47 19.5 84t52.5 63t77 40t92 14
q94 0 159.5 -42t100.5 -111l-108 -54q-21 47 -58.5 72t-93.5 25q-30 0 -53 -8t-39.5 -20.5t-25 -29t-8.5 -34.5q0 -23 10.5 -38t31 -26t50.5 -20.5t70 -21.5q46 -13 90.5 -29t79 -39.5t55.5 -57.5t21 -85q0 -47 -20 -85t-55.5 -65t-84 -42t-105.5 -15z" />
    <glyph glyph-name="scaron" unicode="&#x161;" horiz-adv-x="513" 
d="M193 639l-96 144h67l77 -97l75 97h66l-93 -144h-96zM154 362q0 -23 22 -34.5t55 -20t71.5 -17t71.5 -25t55 -45.5t22 -77q0 -37 -16.5 -66t-45 -49t-66.5 -30.5t-80 -10.5q-79 0 -133 30.5t-80 85.5l87 45q15 -39 48 -57t78 -18q20 0 39 4.5t34 13t24 21.5t9 30
q0 25 -22.5 38.5t-55.5 22.5t-72.5 18t-72.5 25t-55.5 42.5t-22.5 70.5q0 35 15.5 63.5t41.5 48.5t62 31t76 11q64 0 114 -27t77 -77l-86 -43q-28 61 -105 61q-42 0 -65.5 -17.5t-23.5 -47.5z" />
    <glyph glyph-name="uni0162" unicode="&#x162;" horiz-adv-x="571" 
d="M215 595h-200v105h511v-105h-200v-595h-30l-21 -53q16 11 36 11q28 0 47 -19t19 -50q0 -38 -31.5 -60.5t-76.5 -22.5q-35 0 -62 8.5t-44 22.5l23 46q35 -29 81 -29q23 0 39 9.5t16 26.5q0 30 -32 30q-21 0 -35 -15l-40 23l26 72h-26v595z" />
    <glyph glyph-name="uni0163" unicode="&#x163;" horiz-adv-x="404" 
d="M341 0q-20 -2 -38 -3.5t-35 -1.5l-19 -48q16 11 36 11q29 0 48 -19t19 -50q0 -38 -31.5 -60.5t-76.5 -22.5q-35 0 -62 8.5t-44 22.5l22 46q37 -29 81 -29q23 0 39.5 9.5t16.5 26.5q0 30 -33 30q-22 0 -34 -15l-41 23l26 71q-47 10 -72 45.5t-25 112.5v248h-103v95h103
v130l105 36v-166h116v-95h-116v-241q0 -42 17.5 -56.5t52.5 -14.5q11 0 22.5 1t25.5 3v-97z" />
    <glyph glyph-name="Tcaron" unicode="&#x164;" horiz-adv-x="571" 
d="M223 826l-96 144h66l78 -96l74 96h67l-93 -144h-96zM215 595h-200v105h511v-105h-200v-595h-111v595z" />
    <glyph glyph-name="tcaron" unicode="&#x165;" horiz-adv-x="404" 
d="M123 767l-96 144h67l77 -97l75 97h66l-93 -144h-96zM341 0q-20 -2 -39 -3.5t-36 -1.5q-36 0 -63.5 7.5t-46 26t-28.5 49.5t-10 79v248h-103v95h103v130l105 36v-166h116v-95h-116v-241q0 -42 17.5 -56.5t52.5 -14.5q11 0 22.5 1t25.5 3v-97z" />
    <glyph glyph-name="Tbar" unicode="&#x166;" horiz-adv-x="571" 
d="M215 268h-116v103h116v224h-200v105h511v-105h-200v-224h110v-103h-110v-268h-111v268z" />
    <glyph glyph-name="tbar" unicode="&#x167;" horiz-adv-x="404" 
d="M341 0q-20 -2 -39 -3.5t-36 -1.5q-36 0 -63.5 7.5t-46 26t-28.5 49.5t-10 79v103h-112v103h112v42h-103v95h103v130l105 36v-166h116v-95h-116v-42h120v-103h-120v-96q0 -42 17.5 -56.5t52.5 -14.5q11 0 22.5 1t25.5 3v-97z" />
    <glyph glyph-name="Umacron" unicode="&#x16a;" horiz-adv-x="669" 
d="M132 836v62h363v-62h-363zM55 700h111v-463q0 -64 43 -101.5t110 -37.5q72 0 113 37.5t41 101.5v463h111v-463q0 -56 -19.5 -102t-55 -79t-84 -51t-106.5 -18t-106.5 18t-83.5 51t-54.5 79t-19.5 102v463z" />
    <glyph glyph-name="umacron" unicode="&#x16b;" horiz-adv-x="563" 
d="M89 636v62h363v-62h-363zM48 500h105v-299q0 -36 11.5 -59t28.5 -36.5t38.5 -19t40.5 -5.5q20 0 40.5 6.5t37 22.5t27.5 43t11 68v279h105v-500h-105v50q-26 -26 -61 -44.5t-78 -18.5q-27 0 -62 8.5t-65.5 32.5t-52 65.5t-21.5 107.5v299z" />
    <glyph glyph-name="Uring" unicode="&#x16e;" horiz-adv-x="669" 
d="M319 798q-21 0 -39.5 8t-32.5 22t-22 32.5t-8 39.5t8 39.5t22 33t32.5 22.5t39.5 8t39.5 -8t32 -22.5t21.5 -33t8 -39.5t-8 -39.5t-21.5 -32.5t-32 -22t-39.5 -8zM319 848q21 0 36 15t15 37t-15 37t-36 15q-22 0 -37 -15.5t-15 -36.5t15 -36.5t37 -15.5zM55 700h111v-463
q0 -64 43 -101.5t110 -37.5q72 0 113 37.5t41 101.5v463h111v-463q0 -56 -19.5 -102t-55 -79t-84 -51t-106.5 -18t-106.5 18t-83.5 51t-54.5 79t-19.5 102v463z" />
    <glyph glyph-name="uring" unicode="&#x16f;" horiz-adv-x="563" 
d="M276 598q-21 0 -39.5 8t-33 22t-22.5 32.5t-8 39.5t8 39.5t22.5 33t33 22.5t39.5 8t39.5 -8t32 -22.5t21.5 -33t8 -39.5t-8 -39.5t-21.5 -32.5t-32 -22t-39.5 -8zM276 648q21 0 36 15t15 37t-15 37t-36 15q-22 0 -37 -15.5t-15 -36.5t15 -36.5t37 -15.5zM48 500h105v-299
q0 -36 11.5 -59t28.5 -36.5t38.5 -19t40.5 -5.5q20 0 40.5 6.5t37 22.5t27.5 43t11 68v279h105v-500h-105v50q-26 -26 -61 -44.5t-78 -18.5q-27 0 -62 8.5t-65.5 32.5t-52 65.5t-21.5 107.5v299z" />
    <glyph glyph-name="Uhungarumlaut" unicode="&#x170;" horiz-adv-x="669" 
d="M291 980h88l-115 -144h-63zM437 980h88l-115 -144h-63zM55 700h111v-463q0 -64 43 -101.5t110 -37.5q72 0 113 37.5t41 101.5v463h111v-463q0 -56 -19.5 -102t-55 -79t-84 -51t-106.5 -18t-106.5 18t-83.5 51t-54.5 79t-19.5 102v463z" />
    <glyph glyph-name="uhungarumlaut" unicode="&#x171;" horiz-adv-x="563" 
d="M248 780h88l-115 -144h-63zM394 780h88l-115 -144h-63zM48 500h105v-299q0 -36 11.5 -59t28.5 -36.5t38.5 -19t40.5 -5.5q20 0 40.5 6.5t37 22.5t27.5 43t11 68v279h105v-500h-105v50q-26 -26 -61 -44.5t-78 -18.5q-27 0 -62 8.5t-65.5 32.5t-52 65.5t-21.5 107.5v299z
" />
    <glyph glyph-name="Uogonek" unicode="&#x172;" horiz-adv-x="669" 
d="M55 700h111v-463q0 -64 43 -101.5t110 -37.5q72 0 113 37.5t41 101.5v463h111v-463q0 -52 -17 -95t-47.5 -75.5t-72.5 -52.5t-93 -25q-34 -18 -48.5 -40t-14.5 -47t11.5 -35.5t29.5 -10.5q17 0 28.5 10.5t17.5 27.5l46 -27q-29 -58 -92 -58q-39 0 -67.5 21t-28.5 68
q0 26 11.5 49t31.5 43q-50 6 -91 26t-70.5 52.5t-46 75t-16.5 93.5v463z" />
    <glyph glyph-name="uogonek" unicode="&#x173;" horiz-adv-x="563" 
d="M48 500h105v-299q0 -36 11.5 -59t28.5 -36.5t38.5 -19t40.5 -5.5q20 0 40.5 6.5t37 22.5t27.5 43t11 68v279h105v-500h-105v50q-20 -21 -47 -37t-59 -22q-29 -18 -42 -39t-13 -45t11.5 -34.5t28.5 -10.5q34 0 47 37l45 -27q-28 -58 -92 -58q-39 0 -67 21.5t-28 67.5
q0 50 38 88q-27 4 -55.5 17t-52.5 37t-39 62.5t-15 93.5v299z" />
    <glyph glyph-name="Wcircumflex" unicode="&#x174;" horiz-adv-x="1006" 
d="M568 831l-78 97l-74 -97h-67l93 144h96l96 -144h-66zM18 700h114l143 -528l155 528h116l155 -528l143 528h114l-194 -700h-121l-155 512l-155 -512h-121z" />
    <glyph glyph-name="wcircumflex" unicode="&#x175;" horiz-adv-x="802" 
d="M458 631l-78 97l-74 -97h-67l93 144h96l96 -144h-66zM17 500h110l99 -335l100 335h113l102 -336l104 336h110l-162 -500h-105l-106 329l-104 -329h-104z" />
    <glyph glyph-name="Ycircumflex" unicode="&#x176;" horiz-adv-x="658" 
d="M396 831l-77 97l-75 -97h-66l93 144h96l96 -144h-67zM259 258l-254 442h126l183 -316l183 316h126l-253 -442v-258h-111v258z" />
    <glyph glyph-name="ycircumflex" unicode="&#x177;" horiz-adv-x="555" 
d="M354 631l-78 97l-74 -97h-67l93 144h96l96 -144h-66zM121 500l161 -347l125 347h111l-183 -510q-38 -96 -102 -146.5t-152 -43.5v101q30 -3 53 5.5t41.5 24t32 37t23.5 45.5l-223 487h113z" />
    <glyph glyph-name="Ydieresis" unicode="&#x178;" horiz-adv-x="658" 
d="M483 898q0 -24 -17 -41t-42 -17q-24 0 -41 17t-17 41q0 25 17 42t41 17q25 0 42 -17t17 -42zM274 898q0 -24 -17 -41t-42 -17q-24 0 -41 17t-17 41q0 25 17 42t41 17q25 0 42 -17t17 -42zM259 258l-254 442h126l183 -316l183 316h126l-253 -442v-258h-111v258z" />
    <glyph glyph-name="Zacute" unicode="&#x179;" horiz-adv-x="562" 
d="M374 978h115l-145 -144h-110zM360 595h-316v105h454v-83l-321 -512h325v-105h-462v84z" />
    <glyph glyph-name="zacute" unicode="&#x17a;" horiz-adv-x="500" 
d="M351 778h115l-145 -144h-110zM428 500v-68h-1h1l-243 -332h253v-100h-400v68l246 332h-236v100h380z" />
    <glyph glyph-name="Zdotaccent" unicode="&#x17b;" horiz-adv-x="562" 
d="M271 824q-24 0 -41.5 17.5t-17.5 41.5q0 25 17.5 42t41.5 17t41 -17t17 -42q0 -24 -17 -41.5t-41 -17.5zM360 595h-316v105h454v-83l-321 -512h325v-105h-462v84z" />
    <glyph glyph-name="zdotaccent" unicode="&#x17c;" horiz-adv-x="500" 
d="M247 624q-24 0 -41.5 17.5t-17.5 41.5q0 25 17.5 42t41.5 17t41.5 -17t17.5 -42q0 -24 -17.5 -41.5t-41.5 -17.5zM428 500v-68h-1h1l-243 -332h253v-100h-400v68l246 332h-236v100h380z" />
    <glyph glyph-name="Zcaron" unicode="&#x17d;" horiz-adv-x="562" 
d="M221 826l-96 144h66l78 -96l74 96h67l-93 -144h-96zM360 595h-316v105h454v-83l-321 -512h325v-105h-462v84z" />
    <glyph glyph-name="zcaron" unicode="&#x17e;" horiz-adv-x="500" 
d="M197 626l-96 144h67l77 -96l75 96h66l-93 -144h-96zM428 500v-68h-1h1l-243 -332h253v-100h-400v68l246 332h-236v100h380z" />
    <glyph glyph-name="florin" unicode="&#x192;" horiz-adv-x="445" 
d="M225 245l-91 -406h-119l90 406h-60v93h80l41 182q16 72 67 114.5t120 42.5q33 0 60.5 -9t47.5 -30l-47 -86q-16 22 -47 22q-32 0 -55.5 -20t-31.5 -57l-35 -159h124v-93h-144z" />
    <glyph glyph-name="uni0218" unicode="&#x218;" horiz-adv-x="639" 
d="M317 -13q-113 0 -186.5 47t-102.5 123l106 55q21 -54 66.5 -85t119.5 -31q35 0 62 9t45.5 23.5t28 32.5t9.5 36q0 44 -45 66.5t-131 45.5q-45 13 -86.5 28t-73.5 38t-51 56t-19 81q0 47 19.5 84t52.5 63t77 40t92 14q94 0 159.5 -42t100.5 -111l-108 -54q-21 47 -58.5 72
t-93.5 25q-30 0 -53 -8t-39.5 -20.5t-25 -29t-8.5 -34.5q0 -23 10.5 -38t31 -26t50.5 -20.5t70 -21.5q46 -13 90.5 -29t79 -39.5t55.5 -57.5t21 -85q0 -47 -20 -85t-55.5 -65t-84 -42t-105.5 -15zM255 -102h122v-124l-81 -119l-36 30l39 89h-44v124z" />
    <glyph glyph-name="uni0219" unicode="&#x219;" horiz-adv-x="513" 
d="M154 362q0 -23 22 -34.5t55 -20t71.5 -17t71.5 -25t55 -45.5t22 -77q0 -37 -16.5 -66t-45 -49t-66.5 -30.5t-80 -10.5q-79 0 -133 30.5t-80 85.5l87 45q15 -39 48 -57t78 -18q20 0 39 4.5t34 13t24 21.5t9 30q0 25 -22.5 38.5t-55.5 22.5t-72.5 18t-72.5 25t-55.5 42.5
t-22.5 70.5q0 35 15.5 63.5t41.5 48.5t62 31t76 11q64 0 114 -27t77 -77l-86 -43q-28 61 -105 61q-42 0 -65.5 -17.5t-23.5 -47.5zM181 -102h122v-124l-82 -119l-36 30l39 89h-43v124z" />
    <glyph glyph-name="uni021A" unicode="&#x21a;" horiz-adv-x="571" 
d="M215 595h-200v105h511v-105h-200v-595h-111v595zM208 -90h122v-124l-82 -118l-36 30l39 88h-43v124z" />
    <glyph glyph-name="uni021B" unicode="&#x21b;" horiz-adv-x="404" 
d="M341 0q-20 -2 -39 -3.5t-36 -1.5q-36 0 -63.5 7.5t-46 26t-28.5 49.5t-10 79v248h-103v95h103v130l105 36v-166h116v-95h-116v-241q0 -42 17.5 -56.5t52.5 -14.5q11 0 22.5 1t25.5 3v-97zM182 -90h122v-124l-81 -118l-36 30l39 88h-44v124z" />
    <glyph glyph-name="uni02BC" unicode="&#x2bc;" 
 />
    <glyph glyph-name="circumflex" unicode="&#x2c6;" horiz-adv-x="285" 
d="M219 556l-78 97l-74 -97h-67l93 144h96l96 -144h-66z" />
    <glyph glyph-name="caron" unicode="&#x2c7;" horiz-adv-x="285" 
d="M96 626l-96 144h67l77 -96l75 96h66l-93 -144h-96z" />
    <glyph glyph-name="breve" unicode="&#x2d8;" horiz-adv-x="351" 
d="M351 635q-31 -43 -75.5 -65.5t-99.5 -22.5q-54 0 -99 22.5t-77 65.5l49 40q23 -32 54.5 -49t72.5 -17q80 0 128 66z" />
    <glyph glyph-name="dotaccent" unicode="&#x2d9;" horiz-adv-x="148" 
d="M74 548q-24 0 -41.5 17.5t-17.5 41.5q0 25 17.5 42t41.5 17t41.5 -17t17.5 -42q0 -24 -17.5 -41.5t-41.5 -17.5z" />
    <glyph glyph-name="ring" unicode="&#x2da;" horiz-adv-x="204" 
d="M103 547q-21 0 -39.5 8t-33 22.5t-22.5 33t-8 39.5t8 39.5t22.5 32.5t33 22t39.5 8t39.5 -8t32 -22t21.5 -32.5t8 -39.5t-8 -39.5t-21.5 -33t-32 -22.5t-39.5 -8zM103 598q21 0 36 15t15 37t-15 37t-36 15q-22 0 -37 -15.5t-15 -36.5t15 -36.5t37 -15.5z" />
    <glyph glyph-name="ogonek" unicode="&#x2db;" horiz-adv-x="188" 
d="M129 0q-39 -20 -56.5 -43.5t-17.5 -49.5q0 -25 11.5 -35.5t29.5 -10.5q17 0 28.5 10.5t17.5 27.5l46 -27q-29 -58 -92 -58q-39 0 -67.5 21t-28.5 68q0 38 23.5 70t65.5 54z" />
    <glyph glyph-name="tilde" unicode="&#x2dc;" horiz-adv-x="321" 
d="M218 554q-25 0 -41 12t-27.5 27t-22.5 27t-28 12q-18 0 -29.5 -17.5t-11.5 -54.5h-58q0 63 26.5 98.5t76.5 35.5q26 0 41.5 -12t27.5 -27t23 -27t27 -12q18 0 30 18t12 54h57q0 -63 -26.5 -98.5t-76.5 -35.5z" />
    <glyph glyph-name="hungarumlaut" unicode="&#x2dd;" horiz-adv-x="324" 
d="M90 700h88l-115 -144h-63zM236 700h88l-115 -144h-63z" />
    <glyph glyph-name="gravecomb" unicode="&#x300;" horiz-adv-x="240" 
d="M110 778l140 -144h-110l-145 144h115z" />
    <glyph glyph-name="acutecomb" unicode="&#x301;" horiz-adv-x="240" 
d="M135 778h115l-145 -144h-110z" />
    <glyph glyph-name="uni0302" unicode="&#x302;" horiz-adv-x="285" 
d="M219 631l-78 97l-74 -97h-67l93 144h96l96 -144h-66z" />
    <glyph glyph-name="tildecomb" unicode="&#x303;" horiz-adv-x="321" 
d="M218 641q-25 0 -41 12t-27.5 27t-22.5 27t-28 12q-18 0 -29.5 -17.5t-11.5 -54.5h-58q0 63 26.5 98.5t76.5 35.5q26 0 41.5 -12t27.5 -27t23 -27t27 -12q18 0 30 18t12 54h57q0 -63 -26.5 -98.5t-76.5 -35.5z" />
    <glyph glyph-name="uni0304" unicode="&#x304;" horiz-adv-x="363" 
d="M0 636v62h363v-62h-363z" />
    <glyph glyph-name="uni0306" unicode="&#x306;" horiz-adv-x="351" 
d="M351 719q-31 -42 -75.5 -65t-99.5 -23q-54 0 -99 23t-77 65l49 41q23 -32 54.5 -49.5t72.5 -17.5q81 0 128 67z" />
    <glyph glyph-name="uni0307" unicode="&#x307;" horiz-adv-x="148" 
d="M74 624q-24 0 -41.5 17.5t-17.5 41.5q0 25 17.5 42t41.5 17t41.5 -17t17.5 -42q0 -24 -17.5 -41.5t-41.5 -17.5z" />
    <glyph glyph-name="uni0308" unicode="&#x308;" horiz-adv-x="285" 
d="M306 698q0 -24 -17 -41t-42 -17q-24 0 -41 17t-17 41q0 25 17 42t41 17q25 0 42 -17t17 -42zM97 698q0 -24 -17 -41t-42 -17q-24 0 -41.5 17t-17.5 41q0 25 17.5 42t41.5 17q25 0 42 -17t17 -42z" />
    <glyph glyph-name="uni030A" unicode="&#x30a;" horiz-adv-x="204" 
d="M103 598q-21 0 -39.5 8t-33 22t-22.5 32.5t-8 39.5t8 39.5t22.5 33t33 22.5t39.5 8t39.5 -8t32 -22.5t21.5 -33t8 -39.5t-8 -39.5t-21.5 -32.5t-32 -22t-39.5 -8zM103 648q21 0 36 15t15 37t-15 37t-36 15q-22 0 -37 -15.5t-15 -36.5t15 -36.5t37 -15.5z" />
    <glyph glyph-name="uni030B" unicode="&#x30b;" horiz-adv-x="324" 
d="M90 780h88l-115 -144h-63zM236 780h88l-115 -144h-63z" />
    <glyph glyph-name="uni030C" unicode="&#x30c;" horiz-adv-x="285" 
d="M96 626l-96 144h67l77 -96l75 96h66l-93 -144h-96z" />
    <glyph glyph-name="uni0312" unicode="&#x312;" 
d="M198 590h-122v124l81 118l36 -30l-39 -88h44v-124z" />
    <glyph glyph-name="uni0326" unicode="&#x326;" horiz-adv-x="245" 
d="M62 -91h122v-124l-82 -119l-36 30l39 89h-43v124z" />
    <glyph glyph-name="uni0327" unicode="&#x327;" horiz-adv-x="214" 
d="M106 -194q-35 0 -62 8.5t-44 22.5l23 46q35 -29 81 -29q23 0 39 9.5t16 26.5q0 30 -32 30q-21 0 -35 -15l-40 23l30 83h55l-25 -64q16 11 36 11q28 0 47 -19t19 -50q0 -38 -31.5 -60.5t-76.5 -22.5z" />
    <glyph glyph-name="uni0328" unicode="&#x328;" horiz-adv-x="188" 
d="M129 0q-39 -20 -56.5 -43.5t-17.5 -49.5q0 -25 11.5 -35.5t29.5 -10.5q17 0 28.5 10.5t17.5 27.5l46 -27q-29 -58 -92 -58q-39 0 -67.5 21t-28.5 68q0 38 23.5 70t65.5 54z" />
    <glyph glyph-name="uni0335" unicode="&#x335;" 
d="M7 278v103h337v-103h-337z" />
    <glyph glyph-name="uni0337" unicode="&#x337;" 
d="M113 188l333 313l74 -72l-334 -313z" />
    <glyph glyph-name="uni0338" unicode="&#x338;" 
d="M-63 -52l594 662l52 -49l-594 -662z" />
    <glyph glyph-name="tonos" unicode="&#x384;" horiz-adv-x="388" 
d="M295 765l-70 -190h-79l31 190h118z" />
    <glyph glyph-name="uni03BC" unicode="&#x3bc;" horiz-adv-x="574" 
d="M173 -184h-105v667h105v-303q0 -100 99 -100q38 0 70.5 19.5t51.5 44.5v339h105v-399q0 -61 36 -75l-88 -14q-24 4 -37.5 20.5t-15.5 48.5q-28 -31 -67 -49.5t-78 -18.5q-21 0 -40.5 6t-35.5 19v-205z" />
    <glyph glyph-name="pi" unicode="&#x3c0;" horiz-adv-x="678" 
d="M632 405h-93v-240q0 -42 17.5 -56t53.5 -14q21 0 48 3v-96q-42 -6 -76 -6q-35 0 -62.5 7.5t-46.5 26t-29 50t-10 79.5v246h-209v-405h-105v405h-95v95h607v-95z" />
    <glyph glyph-name="Wgrave" unicode="&#x1e80;" horiz-adv-x="1006" 
d="M392 984l140 -144h-110l-145 144h115zM18 700h114l143 -528l155 528h116l155 -528l143 528h114l-194 -700h-121l-155 512l-155 -512h-121z" />
    <glyph glyph-name="wgrave" unicode="&#x1e81;" horiz-adv-x="802" 
d="M282 784l140 -144h-110l-145 144h115zM17 500h110l99 -335l100 335h113l102 -336l104 336h110l-162 -500h-105l-106 329l-104 -329h-104z" />
    <glyph glyph-name="Wacute" unicode="&#x1e82;" horiz-adv-x="1006" 
d="M593 978h115l-145 -144h-110zM18 700h114l143 -528l155 528h116l155 -528l143 528h114l-194 -700h-121l-155 512l-155 -512h-121z" />
    <glyph glyph-name="wacute" unicode="&#x1e83;" horiz-adv-x="802" 
d="M483 778h115l-145 -144h-110zM17 500h110l99 -335l100 335h113l102 -336l104 336h110l-162 -500h-105l-106 329l-104 -329h-104z" />
    <glyph glyph-name="Wdieresis" unicode="&#x1e84;" horiz-adv-x="1006" 
d="M655 898q0 -24 -17.5 -41t-41.5 -17t-41.5 17t-17.5 41q0 25 17.5 42t41.5 17t41.5 -17t17.5 -42zM445 898q0 -24 -17 -41t-41 -17q-25 0 -42 17t-17 41q0 25 17 42t42 17q24 0 41 -17t17 -42zM18 700h114l143 -528l155 528h116l155 -528l143 528h114l-194 -700h-121
l-155 512l-155 -512h-121z" />
    <glyph glyph-name="wdieresis" unicode="&#x1e85;" horiz-adv-x="802" 
d="M545 698q0 -24 -17.5 -41t-41.5 -17t-41.5 17t-17.5 41q0 25 17.5 42t41.5 17t41.5 -17t17.5 -42zM335 698q0 -24 -17 -41t-41 -17q-25 0 -42 17t-17 41q0 25 17 42t42 17q24 0 41 -17t17 -42zM17 500h110l99 -335l100 335h113l102 -336l104 336h110l-162 -500h-105
l-106 329l-104 -329h-104z" />
    <glyph glyph-name="Germandbls" unicode="&#x1e9e;" horiz-adv-x="639" 
d="M290 407h1l134 100q-6 48 -39.5 72.5t-92.5 24.5q-57 1 -87.5 -25.5t-32.5 -77.5v-501h-110v501q4 101 66 155.5t173 53.5q110 0 174 -51.5t72 -148.5l-141 -114q82 -18 125 -65t45 -120q4 -101 -63 -155.5t-196 -55.5h-76v105h76q71 1 109.5 28.5t38.5 77.5
q-2 46 -47.5 71t-128.5 25v100z" />
    <glyph glyph-name="Ygrave" unicode="&#x1ef2;" horiz-adv-x="658" 
d="M221 984l140 -144h-110l-145 144h115zM259 258l-254 442h126l183 -316l183 316h126l-253 -442v-258h-111v258z" />
    <glyph glyph-name="ygrave" unicode="&#x1ef3;" horiz-adv-x="555" 
d="M178 784l140 -144h-110l-145 144h115zM121 500l161 -347l125 347h111l-183 -510q-38 -96 -102 -146.5t-152 -43.5v101q30 -3 53 5.5t41.5 24t32 37t23.5 45.5l-223 487h113z" />
    <glyph glyph-name="uni2009" unicode="&#x2009;" horiz-adv-x="326" 
 />
    <glyph glyph-name="endash" unicode="&#x2013;" horiz-adv-x="593" 
d="M30 197v90h533v-90h-533z" />
    <glyph glyph-name="emdash" unicode="&#x2014;" horiz-adv-x="833" 
d="M30 197v90h773v-90h-773z" />
    <glyph glyph-name="quoteleft" unicode="&#x2018;" horiz-adv-x="239" 
d="M174 638l-39 -89q29 -6 38 -18.5t9 -44.5q0 -31 -17 -47.5t-47 -16.5q-31 0 -48.5 17.5t-17.5 49.5q1 35 10 58.5t31 56.5l45 64z" />
    <glyph glyph-name="quoteright" unicode="&#x2019;" horiz-adv-x="239" 
d="M65 461l39 88q-29 7 -38 19.5t-9 43.5q0 32 17 48.5t47 16.5q31 0 48.5 -18t17.5 -49q0 -18 -2.5 -32t-7 -27t-12.5 -26.5t-19 -30.5l-45 -63z" />
    <glyph glyph-name="quotesinglbase" unicode="&#x201a;" horiz-adv-x="239" 
d="M65 -97l39 88q-29 7 -38 19.5t-9 44.5q0 31 17 47.5t47 16.5q31 0 48.5 -17.5t17.5 -49.5q0 -18 -2.5 -32t-7.5 -27t-12.5 -26.5t-18.5 -30.5l-45 -63z" />
    <glyph glyph-name="quotereversed" unicode="&#x201b;" horiz-adv-x="239" 
d="M174 461l-36 -30l-45 63q-11 17 -19 30.5t-12.5 26.5t-7 27t-2.5 32q0 31 17.5 49t48.5 18q30 0 47 -16.5t17 -48.5q0 -31 -9 -43.5t-38 -19.5z" />
    <glyph glyph-name="quotedblleft" unicode="&#x201c;" horiz-adv-x="408" 
d="M341 640l-39 -88q28 -7 37 -19.5t9 -43.5q0 -65 -64 -65q-30 0 -48 18t-17 49q0 18 2.5 32t7 27t12.5 26.5t19 30.5l45 63zM179 640l-39 -88q29 -7 38 -19.5t9 -43.5q0 -32 -17 -48.5t-47 -16.5q-31 0 -48.5 18t-17.5 49q0 18 2.5 32t7 27t12.5 26.5t19 30.5l45 63z" />
    <glyph glyph-name="quotedblright" unicode="&#x201d;" horiz-adv-x="411" 
d="M229 461l39 88q-29 7 -38 19.5t-9 43.5q0 32 17 48.5t47 16.5q31 0 48.5 -18t17.5 -49q0 -18 -2.5 -32t-7 -27t-12.5 -26.5t-19 -30.5l-45 -63zM65 461l39 88q-29 7 -38 19.5t-9 43.5q0 32 17 48.5t47 16.5q31 0 48.5 -18t17.5 -49q0 -18 -2.5 -32t-7 -27t-12.5 -26.5
t-19 -30.5l-45 -63z" />
    <glyph glyph-name="quotedblbase" unicode="&#x201e;" horiz-adv-x="430" 
d="M243 -93l39 88q-28 7 -37 19.5t-9 44.5q0 64 64 64q30 0 48 -17.5t17 -49.5q0 -18 -2.5 -32t-7 -27t-12.5 -26.5t-19 -30.5l-45 -63zM79 -93l39 88q-28 7 -37 19.5t-9 44.5q0 64 64 64q30 0 48 -17.5t17 -49.5q0 -18 -2.5 -32t-7 -27t-12.5 -26.5t-19 -30.5l-45 -63z" />
    <glyph glyph-name="dagger" unicode="&#x2020;" horiz-adv-x="271" 
d="M250 580v-54l-89 4l4 -203h-59l4 203l-89 -4v54l89 -3l-4 100h59l-4 -100z" />
    <glyph glyph-name="daggerdbl" unicode="&#x2021;" horiz-adv-x="271" 
d="M161 577l89 3v-54l-89 4v-202l89 4v-54l-89 3l4 -101h-59l4 101l-89 -3v54l89 -4v202l-89 -4v54l89 -3l-4 100h59z" />
    <glyph glyph-name="bullet" unicode="&#x2022;" horiz-adv-x="358" 
d="M294 242q0 -23 -9 -43.5t-24.5 -36t-36 -24.5t-44.5 -9q-23 0 -44 9t-36.5 24.5t-24.5 36t-9 43.5q0 24 9 44.5t24.5 36t36.5 24.5t44 9q24 0 44.5 -9t36 -24.5t24.5 -36t9 -44.5z" />
    <glyph glyph-name="ellipsis" unicode="&#x2026;" horiz-adv-x="735" 
d="M64 55q0 64 64 64q30 0 46.5 -16.5t16.5 -47.5q0 -32 -16.5 -48.5t-46.5 -16.5q-64 0 -64 65zM304 55q0 64 64 64q30 0 46.5 -16.5t16.5 -47.5q0 -32 -16.5 -48.5t-46.5 -16.5q-64 0 -64 65zM544 55q0 64 64 64q30 0 46.5 -16.5t16.5 -47.5q0 -32 -16.5 -48.5
t-46.5 -16.5q-64 0 -64 65z" />
    <glyph glyph-name="perthousand" unicode="&#x2030;" horiz-adv-x="1106" 
d="M360 511q0 -35 -12 -65t-34 -52.5t-52.5 -35t-67.5 -12.5t-67.5 12.5t-52.5 35t-34 52.5t-12 65t12 65.5t34 53t52.5 35t67.5 12.5t67.5 -12.5t52.5 -35t34 -53t12 -65.5zM196 0h-67l426 667h68zM283 511q0 49 -25.5 77.5t-63.5 28.5t-63 -28.5t-25 -77.5q0 -48 25 -76
t63 -28t63.5 28t25.5 76zM719 153q0 -35 -12 -65t-34 -52.5t-52.5 -35t-67.5 -12.5t-67.5 12.5t-52.5 35t-34 52.5t-12 65t12 65.5t34 53t52.5 35t67.5 12.5t67.5 -12.5t52.5 -35t34 -53t12 -65.5zM1078 153q0 -35 -12 -65t-34 -52.5t-52.5 -35t-67.5 -12.5t-67.5 12.5
t-52.5 35t-34 52.5t-12 65t12 65.5t34 53t52.5 35t67.5 12.5t67.5 -12.5t52.5 -35t34 -53t12 -65.5zM642 153q0 49 -25.5 77.5t-63.5 28.5q-39 0 -64 -28.5t-25 -77.5q0 -48 25 -76t64 -28q38 0 63.5 28t25.5 76zM1001 153q0 49 -25.5 77.5t-63.5 28.5q-39 0 -64 -28.5
t-25 -77.5q0 -48 25 -76t64 -28q38 0 63.5 28t25.5 76z" />
    <glyph glyph-name="guilsinglleft" unicode="&#x2039;" horiz-adv-x="320" 
d="M190 63l-160 180l160 177h100l-160 -177l160 -180h-100z" />
    <glyph glyph-name="guilsinglright" unicode="&#x203a;" horiz-adv-x="320" 
d="M130 63h-100l160 180l-160 177h100l160 -177z" />
    <glyph glyph-name="fraction" unicode="&#x2044;" horiz-adv-x="477" 
d="M0 0l403 700h74l-404 -700h-73z" />
    <glyph glyph-name="colonmonetary" unicode="&#x20a1;" horiz-adv-x="690" 
d="M398 -12q-5 0 -13.5 0.5t-19.5 1.5l-29 -90h-31l31 94q-23 4 -46 11t-45 18l-41 -123h-31l46 138q-72 45 -113 121.5t-41 173.5q0 75 25.5 138.5t70.5 109.5t106 71.5t131 25.5q6 0 15 -0.5t21 -1.5l31 92h31l-33 -97q46 -9 90 -34l44 131h31l-50 -147q26 -18 52 -48
l-25 -22q-9 11 -18.5 20t-19.5 17l-191 -569q5 -1 22 -1q63 0 117 26t90 71l26 -21q-94 -106 -233 -106zM100 333q0 -85 34.5 -153.5t95.5 -110.5l194 578q-4 1 -10.5 1h-15.5q-63 0 -117.5 -23t-94.5 -65t-63 -100t-23 -127zM256 53q38 -22 90 -31l196 584q-42 27 -88 36z
" />
    <glyph glyph-name="franc" unicode="&#x20a3;" horiz-adv-x="572" 
d="M81 667h457v-103h-340v-172h333v-103h-333v-106h175v-62h-175v-121h-117v121h-71v62h71v484z" />
    <glyph glyph-name="lira" unicode="&#x20a4;" horiz-adv-x="536" 
d="M383 388v-57h-146q23 -30 29 -60h117v-57h-123q-3 -31 -18 -53.5t-41 -40.5q13 5 25.5 6.5t23.5 1.5q21 0 38.5 -6t34 -12.5t32.5 -12.5t33 -6q32 0 55.5 12t34.5 26l48 -93q-23 -23 -57 -36t-85 -13q-31 0 -54.5 7t-43.5 15.5t-39.5 15.5t-43.5 7q-23 0 -52.5 -10
t-63.5 -29l-40 83q53 24 85 60t33 78h-143v57h129q-10 27 -39 60h-90v57h55q-30 41 -30 87t20 83t53 63.5t75 41t86 14.5q77 0 133.5 -29t85.5 -88l-93 -55q-13 34 -44 55t-69 21q-51 0 -85.5 -30t-34.5 -78q0 -44 32 -85h177z" />
    <glyph glyph-name="peseta" unicode="&#x20a7;" horiz-adv-x="662" 
d="M589 411q-4 -40 -21 -75t-44.5 -61t-65 -40.5t-84.5 -14.5h-176v-220h-117v411h-71v64h71v192h293q47 0 84.5 -14.5t65 -40.5t44.5 -61t21 -76h69v-64h-69zM198 475h268q-7 41 -34.5 65t-70.5 24h-163v-89zM361 323q42 0 70.5 23.5t35.5 64.5h-269v-88h163z" />
    <glyph glyph-name="uni20A8" unicode="&#x20a8;" horiz-adv-x="1049" 
d="M452 0l-147 249h-117v-249h-117v667h293q51 0 91.5 -15.5t69 -43.5t43.5 -66.5t15 -83.5q0 -43 -13 -77.5t-35 -59t-51 -39.5t-60 -20l164 -262h-136zM349 352q49 0 81.5 29t32.5 78q0 48 -32.5 76.5t-81.5 28.5h-161v-212h161zM811 -12q-61 0 -116 20.5t-91 55.5l48 71
q28 -29 73 -47.5t90 -18.5q47 0 71.5 18.5t24.5 47.5q0 25 -21.5 38t-54 22t-70.5 17t-70.5 23.5t-54 42t-21.5 72.5q0 30 12.5 56.5t37 46t60 31t80.5 11.5q58 0 105 -17.5t82 -49.5l-44 -69q-23 26 -60 42t-83 16q-41 0 -65 -17t-24 -44q0 -22 21.5 -33.5t54 -20t70.5 -17
t70.5 -25t54 -44.5t21.5 -75q0 -33 -13.5 -61t-39.5 -48.5t-63 -32t-85 -11.5z" />
    <glyph glyph-name="uni20AA" unicode="&#x20aa;" horiz-adv-x="835" 
d="M267 0v379h100v-288h170q72 0 101 33.5t29 100.5v325h100v-334q0 -51 -12.5 -91t-40 -68t-71 -42.5t-106.5 -14.5h-270zM338 550q63 0 107 -14.5t71 -42t39.5 -68t12.5 -91.5v-164h-100v156q0 66 -29 99.5t-101 33.5h-170v-459h-100v550h270z" />
    <glyph glyph-name="Euro" unicode="&#x20ac;" horiz-adv-x="703" 
d="M414 -12q-61 0 -115.5 17.5t-98.5 49.5t-75.5 77t-46.5 101h-52v62h40q-1 9 -1.5 18t-0.5 20q0 16 3 41h-41v62h52q16 55 47.5 100t75.5 76.5t98.5 48.5t114.5 17q51 0 92 -12t73.5 -32t58 -47.5t44.5 -57.5l-100 -52q-24 42 -69 69.5t-99 27.5q-35 0 -67 -9.5t-58 -27.5
t-46 -43.5t-32 -57.5h263v-62h-287q-3 -19 -3 -41q0 -15 3 -38h287v-62h-264q23 -65 77.5 -103t126.5 -38q54 0 99 27.5t69 69.5l100 -50q-19 -30 -44.5 -57.5t-58.5 -48t-74 -33t-91 -12.5z" />
    <glyph glyph-name="uni2113" unicode="&#x2113;" horiz-adv-x="504" 
d="M174 260v-130q0 -27 11.5 -42.5t34.5 -15.5q27 0 46 18l25 -71q-17 -16 -43 -23.5t-55 -7.5q-58 0 -91 29.5t-33 95.5v382q0 39 15.5 72.5t44 57.5t67.5 38t85 14q40 0 75.5 -10t62 -28t42 -43t15.5 -55q0 -26 -11 -49t-30 -44t-44 -40.5t-54 -38.5zM174 360l127 84
q39 26 57 46t18 46q0 15 -8 27.5t-21.5 21t-31 13.5t-36.5 5q-47 0 -76 -29t-29 -80v-134z" />
    <glyph glyph-name="uni2116" unicode="&#x2116;" horiz-adv-x="1125" 
d="M922 350q-38 0 -69 13t-53 35.5t-34 52.5t-12 64t12 64t34 52.5t53 35.5t69 13q39 0 70.5 -13t53 -35.5t33.5 -52.5t12 -64t-12 -64t-33.5 -52.5t-53 -35.5t-70.5 -13zM649 667v-667h-113l-348 477v-477h-117v667h120l341 -462v462h117zM922 413q42 0 66 28t24 74
t-24 73.5t-66 27.5q-41 0 -64 -27.5t-23 -73.5t23 -74t64 -28z" />
    <glyph glyph-name="uni2117" unicode="&#x2117;" horiz-adv-x="778" 
d="M734 334q0 -71 -27 -133.5t-74 -109.5t-109.5 -74.5t-134.5 -27.5q-71 0 -134 27.5t-110 74.5t-74 109.5t-27 133.5t27 134t74 110t110 74t134 27q72 0 135 -27t109.5 -74t73.5 -110t27 -134zM700 334q0 64 -24.5 120.5t-67 99t-99 67t-120.5 24.5t-120.5 -24.5t-99 -67
t-67 -99t-24.5 -120.5t24.5 -120.5t67 -99t99 -67t120.5 -24.5t120.5 24.5t99 67t67 99t24.5 120.5zM553 418q0 -26 -10 -47.5t-27 -37t-40.5 -24t-49.5 -8.5h-112v-170h-41v405h153q26 0 49 -8.5t40.5 -23.5t27.5 -37t10 -49zM510 418q0 36 -24.5 58t-59.5 22h-112v-158
h112q35 0 59.5 21.5t24.5 56.5z" />
    <glyph glyph-name="uni2120" unicode="&#x2120;" horiz-adv-x="476" 
d="M188 506q0 -31 -22.5 -49t-64.5 -18q-54 0 -86 36l18 21q29 -32 66 -32q56 0 56 39q0 19 -21.5 30t-46.5 15t-46.5 19t-21.5 42q0 28 22.5 46t57.5 18q55 0 82 -32l-18 -19q-22 27 -63 27q-21 0 -34.5 -10t-13.5 -26q0 -17 21 -26.5t47 -14.5t47 -21t21 -45zM439 667
v-220h-28v182l-75 -182h-8l-75 182v-182h-28v220h43l64 -160l64 160h43z" />
    <glyph glyph-name="trademark" unicode="&#x2122;" horiz-adv-x="356" 
d="M291 667v-124h-16v106l-42 -66h-4l-43 66v-106h-15v124h24l36 -57l36 57h24zM150 667v-15h-34v-109h-16v109h-35v15h85z" />
    <glyph glyph-name="uni2126" unicode="&#x2126;" horiz-adv-x="765" 
d="M60 103h125q-66 43 -104.5 106.5t-38.5 148.5q0 72 25.5 131t71 101t108 65t136.5 23t136.5 -23t108 -65t71 -101t25.5 -131q0 -85 -38.5 -148.5t-104.5 -106.5h125v-103h-256v103q35 9 63 30.5t48.5 51.5t31.5 68t11 81q0 47 -13.5 90t-41.5 76t-69 53t-97 20
q-55 0 -96.5 -20t-69.5 -53t-41.5 -76t-13.5 -90q0 -43 11 -81t31.5 -68t49 -51.5t62.5 -30.5v-103h-256v103z" />
    <glyph glyph-name="estimated" unicode="&#x212e;" horiz-adv-x="842" 
d="M811 324h-632q-5 0 -5 -5v-190q0 -14 9 -23q97 -103 240 -103q151 0 250 115h57q-54 -63 -134.5 -99.5t-174.5 -36.5q-81 0 -152 27.5t-124 75.5t-83.5 112t-30.5 136t30.5 136t83.5 112t124 75.5t152 27.5t152 -27.5t124 -75.5t83.5 -112t30.5 -136v-9zM668 540
q0 14 -10 24q-97 99 -235 99q-140 0 -239 -102q-10 -10 -10 -24v-188q0 -6 5 -6h485q4 0 4 6v191z" />
    <glyph glyph-name="arrowleft" unicode="&#x2190;" horiz-adv-x="582" 
d="M269 211l12 -130l-281 205l281 204l-12 -129h269v-150h-269z" />
    <glyph glyph-name="arrowup" unicode="&#x2191;" horiz-adv-x="582" 
d="M216 286l-130 -12l205 281l204 -281l-129 12v-269h-150v269z" />
    <glyph glyph-name="arrowright" unicode="&#x2192;" horiz-adv-x="582" 
d="M303 81l12 130h-268v150h268l-12 129l281 -204z" />
    <glyph glyph-name="arrowdown" unicode="&#x2193;" horiz-adv-x="582" 
d="M366 286l130 12l-205 -281l-204 281l129 -12v269h150v-269z" />
    <glyph glyph-name="partialdiff" unicode="&#x2202;" horiz-adv-x="574" 
d="M287 -12q-57 0 -103 19t-78 51.5t-49.5 76.5t-17.5 94t16.5 93.5t45 75.5t68.5 51t86 19q102 0 155 -80q-29 68 -87 128.5t-146 105.5l82 61q55 -30 105 -74.5t88 -100t60.5 -120t22.5 -135.5q0 -59 -17 -107.5t-49.5 -83.5t-78.5 -54.5t-103 -19.5zM287 81
q33 0 58.5 11.5t43.5 31t27.5 47t9.5 58.5t-9.5 58t-27.5 46.5t-43.5 31t-58.5 11.5q-32 0 -58 -11.5t-44 -31t-27.5 -46.5t-9.5 -58t9.5 -58.5t27.5 -47t44 -31t58 -11.5z" />
    <glyph glyph-name="uni2206" unicode="&#x2206;" horiz-adv-x="673" 
d="M2 0l262 667h146l262 -667h-670zM337 550l-170 -447h339z" />
    <glyph glyph-name="product" unicode="&#x220f;" horiz-adv-x="754" 
d="M502 -90v654h-250v-654h-117v654h-107v103h698v-103h-107v-654h-117z" />
    <glyph glyph-name="summation" unicode="&#x2211;" horiz-adv-x="582" 
d="M50 667h483v-103h-337l212 -266l-218 -285h343v-103h-484v103l215 284l-214 268v102z" />
    <glyph glyph-name="minus" unicode="&#x2212;" horiz-adv-x="502" 
d="M473 302h-444v68h444v-68z" />
    <glyph glyph-name="radical" unicode="&#x221a;" horiz-adv-x="701" 
d="M673 667l-259 -667h-73l-120 313l-141 -53l-21 65l208 75l112 -294l214 561h80z" />
    <glyph glyph-name="infinity" unicode="&#x221e;" horiz-adv-x="676" 
d="M191 164q-42 0 -72.5 14.5t-50.5 38.5t-29.5 55t-9.5 64t9.5 64t29.5 55t50.5 38.5t72.5 14.5q49 0 87 -29.5t60 -75.5q22 46 60 75.5t87 29.5q42 0 72.5 -14.5t50.5 -39t29.5 -55.5t9.5 -64t-9.5 -63.5t-29.5 -54.5t-50.5 -38.5t-72.5 -14.5q-49 0 -87 29t-60 75
q-22 -46 -60 -75t-87 -29zM477 231q44 0 70.5 28t26.5 76t-26.5 77t-70.5 29q-35 0 -62 -27.5t-46 -78.5q19 -51 46 -77.5t62 -26.5zM199 231q35 0 62.5 27t45.5 78q-18 51 -45.5 78t-62.5 27q-44 0 -70.5 -28.5t-26.5 -76.5t27 -76.5t70 -28.5z" />
    <glyph glyph-name="integral" unicode="&#x222b;" horiz-adv-x="363" 
d="M17 -100v72h61q26 0 45.5 21.5t19.5 55.5v570q0 34 11.5 61.5t31 47t45.5 30t54 10.5h61v-72h-61q-26 0 -45.5 -21t-19.5 -55v-571q0 -34 -11.5 -61.5t-31 -47t-45.5 -30t-54 -10.5h-61z" />
    <glyph glyph-name="approxequal" unicode="&#x2248;" horiz-adv-x="502" 
d="M29 465q49 -31 111 -31q34 0 58 8.5t47.5 18.5t50 18.5t65.5 8.5q30 0 59.5 -6.5t52.5 -18.5v-74q-49 32 -112 32q-34 0 -58 -8.5t-47.5 -19t-50 -19t-65.5 -8.5q-29 0 -58.5 6.5t-52.5 18.5v74zM29 279q51 -31 111 -31q34 0 58 8.5t47.5 19t50 19t65.5 8.5q30 0 59.5 -7
t52.5 -18v-74q-50 31 -112 31q-34 0 -58 -8.5t-47.5 -18.5t-50 -18.5t-65.5 -8.5q-29 0 -58.5 6.5t-52.5 17.5v74z" />
    <glyph glyph-name="notequal" unicode="&#x2260;" horiz-adv-x="502" 
d="M65 93l71 112h-107v68h150l78 123h-228v67h271l71 111h67l-71 -111h106v-67h-148l-79 -123h227v-68h-270l-72 -112h-66z" />
    <glyph glyph-name="lessequal" unicode="&#x2264;" horiz-adv-x="502" 
d="M29 312v76l444 207v-80l-364 -166l364 -163v-81zM29 0v68h444v-68h-444z" />
    <glyph glyph-name="greaterequal" unicode="&#x2265;" horiz-adv-x="502" 
d="M29 105v81l364 163l-364 166v80l444 -207v-76zM29 0v68h444v-68h-444z" />
    <glyph glyph-name="uni22B2" unicode="&#x22b2;" horiz-adv-x="587" 
d="M54 -23v618l535 -309z" />
    <glyph glyph-name="uni22B3" unicode="&#x22b3;" horiz-adv-x="587" 
d="M535 -23l-535 309l535 309v-618z" />
    <glyph glyph-name="dotmath" unicode="&#x22c5;" horiz-adv-x="208" 
d="M139 281q16 -16 16 -35q0 -20 -14.5 -35.5t-36.5 -15.5t-36 15.5t-14 35.5t15 34t35 14q21 0 35 -13z" />
    <glyph glyph-name="uni2318" unicode="&#x2318;" horiz-adv-x="667" 
d="M625 154q0 -23 -9 -43.5t-24 -35.5t-35 -24t-43 -9t-43.5 9t-35.5 24t-24 35.5t-9 43.5v58h-137v-58q0 -23 -9 -43.5t-24 -35.5t-35.5 -24t-43.5 -9t-43 9t-35 24t-24 35.5t-9 43.5t9 43t24 35t35 24t43 9h58v137h-57q-23 0 -43.5 9t-35.5 24t-24 35.5t-9 43.5t9 43
t24 35t35.5 24t43.5 9t43 -9t35 -24t24 -35t9 -43v-59h137v59q0 23 9 43t24 35t35.5 24t43.5 9t43 -9t35 -24t24 -35t9 -43t-9 -43.5t-24 -35.5t-35 -24t-43 -9h-58v-137h58q23 0 43 -9t35 -24t24 -35t9 -43zM211 514q0 24 -17 41t-40 17q-25 0 -42 -17t-17 -41t17 -41.5
t42 -17.5h57v59zM572 514q0 24 -17.5 41t-40.5 17q-24 0 -41 -17t-17 -41v-59h58q23 0 40.5 17.5t17.5 41.5zM402 265v137h-137v-137h137zM211 212h-58q-24 0 -41 -17.5t-17 -40.5q0 -25 17 -42t41 -17t41 17t17 42v58zM572 154q0 23 -17 40.5t-41 17.5h-58v-58
q0 -25 17 -42t41 -17t41 17t17 42z" />
    <glyph glyph-name="filledbox" unicode="&#x25a0;" horiz-adv-x="661" 
d="M618 572v-572h-571v572h571z" />
    <glyph glyph-name="triagup" unicode="&#x25b2;" horiz-adv-x="616" 
d="M307 565l310 -536l-619 1z" />
    <glyph glyph-name="triagdn" unicode="&#x25bc;" horiz-adv-x="616" 
d="M-2 510h619l-310 -535z" />
    <glyph glyph-name="lozenge" unicode="&#x25ca;" horiz-adv-x="375" 
d="M356 334l-158 -334h-21l-158 334l158 333h21zM55 334l133 -293l132 293l-133 292z" />
    <glyph glyph-name="uni25CF" unicode="&#x25cf;" horiz-adv-x="695" 
d="M644 285q0 -61 -23.5 -115.5t-63.5 -94.5t-94 -63.5t-116 -23.5q-61 0 -115.5 23.5t-94.5 63.5t-63.5 94.5t-23.5 115.5q0 62 23.5 116t63.5 94t94.5 63.5t115.5 23.5q62 0 116 -23t94.5 -63.5t63.5 -94.5t23 -116z" />
    <glyph glyph-name="uni2605" unicode="&#x2605;" horiz-adv-x="759" 
d="M469 421h290l-235 -171l90 -275l-235 170l-234 -170l89 275l-234 171h290l89 276z" />
    <glyph glyph-name="uni2610" unicode="&#x2610;" horiz-adv-x="661" 
d="M616 572v-572h-571v572h571zM119 68h424v437h-424v-437z" />
    <glyph glyph-name="diamond" unicode="&#x2666;" horiz-adv-x="501" 
d="M250 35l-250 250l250 251l251 -251z" />
    <glyph glyph-name="uni2713" unicode="&#x2713;" horiz-adv-x="531" 
d="M202 91l-202 246l53 50l139 -170l281 518l58 -37z" />
    <glyph glyph-name="uniE000" unicode="&#xe000;" horiz-adv-x="1624" 
d="M1225 667l333 -472l-333 -326l-567 798h567zM538 667l287 -398l-287 -269l-473 667h473z" />
    <glyph glyph-name="uniF6B6" unicode="&#xf6b6;" horiz-adv-x="490" 
d="M300 342l160 -180h-100l-160 180l160 177h100zM130 342l160 -180h-100l-160 180l160 177h100z" />
    <glyph glyph-name="uniF6B7" unicode="&#xf6b7;" horiz-adv-x="490" 
d="M130 519l160 -177l-160 -180h-100l160 180l-160 177h100zM300 519l160 -177l-160 -180h-100l160 180l-160 177h100z" />
    <glyph glyph-name="uniF6B8" unicode="&#xf6b8;" horiz-adv-x="320" 
d="M130 342l160 -180h-100l-160 180l160 177h100z" />
    <glyph glyph-name="uniF6B9" unicode="&#xf6b9;" horiz-adv-x="320" 
d="M130 519l160 -177l-160 -180h-100l160 180l-160 177h100z" />
    <glyph glyph-name="uniF6BA" unicode="&#xf6ba;" horiz-adv-x="360" 
d="M45 296v90h240v-90h-240z" />
    <glyph glyph-name="uniF6BB" unicode="&#xf6bb;" horiz-adv-x="593" 
d="M30 296v90h533v-90h-533z" />
    <glyph glyph-name="uniF6BC" unicode="&#xf6bc;" horiz-adv-x="833" 
d="M30 296v90h773v-90h-773z" />
    <glyph glyph-name="uniF6C3" unicode="&#xf6c3;" horiz-adv-x="245" 
d="M184 -138q0 -43 -21.5 -81t-56.5 -62l-38 31q21 13 39 36t21 46q-6 -2 -13 -2q-21 0 -35 14t-14 37t16 39.5t39 16.5q25 0 44 -20t19 -55z" />
    <glyph glyph-name="uniF8FF" unicode="&#xf8ff;" horiz-adv-x="1624" 
d="M1225 667l333 -472l-333 -326l-567 798h567zM538 667l287 -398l-287 -269l-473 667h473z" />
    <glyph glyph-name="idotaccent" horiz-adv-x="245" 
d="M108 624q-24 0 -41.5 17.5t-17.5 41.5q0 25 17.5 42t41.5 17t41 -17t17 -42q0 -24 -17 -41.5t-41 -17.5zM55 500h105v-500h-105v500z" />
    <glyph glyph-name="a.ss01" horiz-adv-x="570" 
d="M498 1h-105v34q-27 -22 -65.5 -35t-87.5 -13q-54 0 -93.5 11t-64.5 31.5t-37 50t-12 65.5q-1 69 45 109.5t150 40.5q56 0 100 2t65 8v27q0 40 -32.5 66t-93.5 26q-48 0 -90.5 -19.5t-74.5 -47.5l-46 75q34 33 91.5 57.5t132.5 24.5q48 0 87.5 -11.5t68.5 -33.5t45.5 -54
t16.5 -73v-341zM268 70q54 0 89.5 24t35.5 66v77q-15 -8 -50 -12t-83 -4q-63 0 -93 -16.5t-30 -58.5q0 -39 35.5 -57.5t95.5 -18.5z" />
    <glyph glyph-name="b.ss01" horiz-adv-x="629" 
d="M43 644l105 20v-235q27 37 67 60t95 23q57 0 102.5 -20t77.5 -55.5t49.5 -83.5t17.5 -104q0 -55 -17.5 -103t-49.5 -83.5t-77.5 -55.5t-102.5 -20q-55 0 -95 22.5t-67 59.5v-69h-105v644zM307 85q33 0 60 13t46.5 35.5t30 52t10.5 63.5t-10.5 63.5t-30 52t-46.5 35.5
t-60 13q-34 0 -63 -12t-50 -34t-33 -52t-12 -65t12 -65.5t33 -52.5t50 -34.5t63 -12.5z" />
    <glyph glyph-name="d.ss01" horiz-adv-x="618" 
d="M546 666v-666h-105v67q-28 -35 -67.5 -57.5t-93.5 -22.5q-57 0 -102.5 20t-77.5 55.5t-49.5 83.5t-17.5 103q0 56 17.5 104t49.5 83.5t77.5 55.5t102.5 20q54 0 93.5 -22.5t67.5 -58.5v210zM283 85q34 0 63 12.5t50 34.5t33 52.5t12 65.5t-12 65t-33 52t-50 34t-63 12
q-33 0 -60 -13t-46.5 -35.5t-30 -52t-10.5 -63.5t10.5 -63.5t30 -52t46.5 -35.5t60 -13z" />
    <glyph glyph-name="h.ss01" horiz-adv-x="556" 
d="M43 640l105 25v-213q24 25 58 41.5t76 16.5q27 0 61.5 -8.5t65.5 -31.5t52.5 -64.5t21.5 -106.5v-299h-105v297q0 36 -11.5 59t-28.5 36.5t-38 19t-41 5.5q-16 0 -33.5 -4.5t-33 -15.5t-27 -29t-17.5 -45v-323h-105v640z" />
    <glyph glyph-name="i.ss01" horiz-adv-x="231" 
d="M153 605l-105 -21v116h105v-95zM48 482l105 21v-503h-105v482z" />
    <glyph glyph-name="t.ss01" horiz-adv-x="362" 
d="M299 0q-10 -1 -25.5 -1.5t-32.5 -1t-32 -0.5h-24q-28 1 -54 8.5t-45.5 25.5t-31 49t-11.5 77v484l105 24v-165h116v-95h-116v-240q0 -42 21 -57.5t58 -15.5q12 0 25 1.5t27 3.5z" />
    <glyph glyph-name="colon.alt" horiz-adv-x="245" 
d="M59 496q0 65 64 65q30 0 46.5 -16.5t16.5 -48.5q0 -31 -16.5 -47.5t-46.5 -16.5q-64 0 -64 64zM59 126q0 65 64 65q30 0 46.5 -16.5t16.5 -48.5q0 -31 -16.5 -47.5t-46.5 -16.5q-64 0 -64 64z" />
    <glyph glyph-name="colon.centered" horiz-adv-x="232" 
d="M45 451q0 31 17 47.5t47 16.5q63 0 63 -64q0 -65 -63 -65q-64 0 -64 65zM45 180q0 31 17 47.5t47 16.5q63 0 63 -64q0 -65 -63 -65q-64 0 -64 65z" />
    <glyph glyph-name="brevecomb-cy" 
 />
    <glyph glyph-name="thickspace" horiz-adv-x="500" 
 />
    <glyph glyph-name="accentcomb" horiz-adv-x="240" 
d="M135 778h115l-145 -144h-110z" />
    <glyph glyph-name="slashsmallcomb" 
d="M-57 -57l593 681l52 -49l-593 -681z" />
    <glyph glyph-name="lowercase-shoulder" 
d="M395 297q0 36 -11.5 59t-28.5 36.5t-38 19t-41 5.5q-19 0 -40 -6.5t-37.5 -22.5t-27.5 -43t-11 -68l-44 -1q-1 -3 -1 3t-0.5 22t-0.5 50q0 23 13.5 50.5t38.5 51.5t59 40.5t74 16.5q27 0 62 -8.5t65.5 -32t52 -65t21.5 -107.5h-105z" />
    <glyph glyph-name="lowercase-stem" 
d="M242 500h105v-500h-105v500z" />
    <glyph glyph-name="lowercase-shortstem" 
d="M395 299h105v-299h-105v299z" />
    <glyph glyph-name="lowercase-aloop" 
d="M488 249q0 -46 -13.5 -93t-40.5 -84.5t-67.5 -61t-95.5 -23.5q-57 0 -103 20t-78 55.5t-49.5 83.5t-17.5 103q0 56 17.5 104t49.5 83.5t78 55.5t103 20q55 0 95.5 -23.5t67.5 -61t40.5 -84.5t13.5 -94zM273 85q34 0 63 12.5t50 34.5t33 52.5t12 65.5t-12 65t-33 52
t-50 34t-63 12q-33 0 -60 -13t-46.5 -35.5t-30 -52t-10.5 -63.5t10.5 -63.5t30 -52t46.5 -35.5t60 -13z" />
    <glyph glyph-name="newGlyph" 
 />
    <glyph glyph-name="lowercase-ftop" 
d="M274 608q-63 5 -98 -18.5t-35 -75.5v-86h-105v63q0 49 16 91.5t47 72.5t75 46t100 12v-105z" />
    <glyph glyph-name="lowercase-g-descender" 
d="M465 500h105v-475q0 -54 -20.5 -98t-57 -75t-86 -48t-106.5 -17q-44 0 -83.5 9t-72.5 24.5t-58 38t-39 49.5l90 52q15 -30 57 -53t108 -23q35 0 65 10t51.5 28.5t34 44.5t12.5 58v475z" />
    <glyph glyph-name="lowercase-thook" 
d="M261 0q-21 -2 -40 -3.5t-36 -1.5q-35 0 -62.5 7.5t-46.5 26t-29 49.5t-10 79v103h105v-96q0 -42 17.5 -56.5t53.5 -14.5q11 0 22.5 1t25.5 3v-97z" />
    <glyph glyph-name="lowercase-r" 
d="M307 410q-10 3 -21 3q-30 0 -56.5 -9t-46.5 -27t-31.5 -45t-11.5 -62l-20 6q3 2 5 12q2 9 3.5 28t1.5 53q0 23 11 48t32.5 46t53 34.5t71.5 13.5h8t9 -1z" />
    <glyph glyph-name="lowercase-tcross" horiz-adv-x="1200" 
d="M154 500h324v-95h-324v95z" />
    <glyph glyph-name="ascender-stem" 
d="M77 700h111v-700h-111v700z" />
    <glyph glyph-name="uppercase-horiz" horiz-adv-x="802" 
d="M197 700h214v-105h-214v105z" />
    <glyph glyph-name="i-dot" horiz-adv-x="430" 
d="M210 586q-30 0 -47.5 16.5t-17.5 45.5t17.5 46t47.5 17t47.5 -17t17.5 -46t-17.5 -45.5t-47.5 -16.5z" />
    <glyph glyph-name="wonderUnitLogo.ss02" horiz-adv-x="1624" 
 />
    </font>
</defs>
</svg>
