<?xml version="1.0" standalone="no"?>
<!DOCTYPE svg PUBLIC "-//W3C//DTD SVG 1.1//EN" "http://www.w3.org/Graphics/SVG/1.1/DTD/svg11.dtd" >
<svg xmlns="http://www.w3.org/2000/svg" xmlns:xlink="http://www.w3.org/1999/xlink" version="1.1">
<metadata>
Created by FontForge 20201107 at Mon Aug  2 03:36:19 2021
 By 
Copyright (c) 2020 by Charles Forman. All rights reserved.
</metadata>
<defs>
<font id="THICCCBOI-ThicccAF" horiz-adv-x="600" >
  <font-face 
    font-family="THICCCBOI Thin icccAF"
    font-weight="900"
    font-stretch="normal"
    units-per-em="1000"
    panose-1="0 0 0 0 0 0 0 0 0 0"
    ascent="800"
    descent="-200"
    x-height="500"
    cap-height="700"
    bbox="-153 -407 1558 1012"
    underline-thickness="50"
    underline-position="-125"
    unicode-range="U+000D-FB02"
  />
<missing-glyph horiz-adv-x="459" 
d="M54 -90v842h351v-842h-351zM373 722h-288v-782h288v782z" />
    <glyph glyph-name="fi" unicode="fi" horiz-adv-x="675" 
d="M522 590q-37 0 -63 26t-26 63t26 63t63 26q18 0 34 -7t28 -19t19 -28.5t7 -34.5t-7 -34.5t-19 -28.5t-28 -19t-34 -7zM80 340h-70v160h70v30q0 56 13 92t37 56.5t58 28.5t77 8q20 0 43 -1.5t47 -3.5v-165q-42 4 -68.5 0t-26.5 -28v-17h94v-160h-94v-340h-180v340z
M430 500h180v-500h-180v500z" />
    <glyph glyph-name="fl" unicode="fl" horiz-adv-x="710" 
d="M80 340h-70v160h70v30q0 56 13 92t37 56.5t58 28.5t77 8q20 0 43 -1.5t47 -3.5v-165q-42 4 -68.5 0t-26.5 -28v-17h94v-160h-94v-340h-180v340zM660 0q-25 -4 -47.5 -6t-42.5 -2q-37 0 -66 8.5t-49 30t-30 58t-10 91.5v520h180v-507q0 -21 13.5 -27t51.5 -1v-165z" />
    <glyph glyph-name=".notdef" horiz-adv-x="459" 
d="M54 -90v842h351v-842h-351zM373 722h-288v-782h288v782z" />
    <glyph glyph-name=".null" horiz-adv-x="0" 
 />
    <glyph glyph-name=".null" horiz-adv-x="0" 
 />
    <glyph glyph-name="uni000D" unicode="&#xd;" horiz-adv-x="250" 
 />
    <glyph glyph-name="space" unicode=" " horiz-adv-x="255" 
 />
    <glyph glyph-name="exclam" unicode="!" horiz-adv-x="280" 
d="M60 248l-27 452h214l-25 -452h-162zM48 80q0 45 23.5 69t68.5 24t68 -24t23 -69t-23 -69t-68 -24t-68.5 24t-23.5 69z" />
    <glyph glyph-name="quotedbl" unicode="&#x22;" horiz-adv-x="460" 
d="M60 674h149v-138l-43 -203h-63l-43 203v138zM251 674h149v-138l-43 -203h-63l-43 203v138z" />
    <glyph glyph-name="numbersign" unicode="#" horiz-adv-x="646" 
d="M250 0l53 158h-79l-52 -158h-127l53 158h-86l35 109h88l43 132h-87l34 108h90l53 160h127l-53 -160h78l53 160h127l-54 -160h88l-33 -108h-91l-44 -132h91l-34 -109h-94l-52 -158h-127zM383 399h-78l-43 -132h77z" />
    <glyph glyph-name="dollar" unicode="$" horiz-adv-x="635" 
d="M262 768h128v-96q60 -8 112.5 -30t97.5 -58l-108 -143q-53 39 -112 54v-65q40 -8 81.5 -21.5t76 -37t56.5 -60t22 -91.5q0 -97 -59.5 -155.5t-166.5 -72.5v-92h-128v92q-81 8 -140 34.5t-104 67.5l105 150q29 -28 68.5 -49.5t87.5 -30.5v75q-40 8 -82.5 20.5t-77 36.5
t-57 62.5t-22.5 97.5q0 38 14 74t42 65.5t69.5 50t96.5 27.5v95zM245 477q0 -9 9 -15t25 -11v55q-20 -2 -27 -10t-7 -19zM380 163q14 4 23 11.5t9 19.5q0 9 -8.5 14.5t-23.5 10.5v-56z" />
    <glyph glyph-name="percent" unicode="%" horiz-adv-x="784" 
d="M198 341q-41 0 -74 13t-56 35.5t-35.5 53t-12.5 65.5t12.5 66t35.5 54t56 36t74 13t74.5 -13t57 -36t36 -54t12.5 -66t-12.5 -65.5t-36 -53t-57 -35.5t-74.5 -13zM131 0l426 667h98l-427 -667h-97zM198 447q24 0 41 14.5t17 46.5q0 34 -17 48.5t-41 14.5
q-23 0 -39.5 -14.5t-16.5 -48.5q0 -32 16.5 -46.5t39.5 -14.5zM585 -12q-41 0 -74 13t-56 35.5t-35.5 53t-12.5 65.5t12.5 66t35.5 54t56 36t74 13t74 -13t56.5 -36t36 -54t12.5 -66t-12.5 -65.5t-36 -53t-56.5 -35.5t-74 -13zM585 94q24 0 41 14t17 47q0 34 -17 48.5
t-41 14.5t-40.5 -14.5t-16.5 -48.5q0 -33 16.5 -47t40.5 -14z" />
    <glyph glyph-name="ampersand" unicode="&#x26;" horiz-adv-x="658" 
d="M87 522q0 40 17 70.5t46.5 50.5t68.5 30.5t83 10.5q45 0 82.5 -10.5t64 -31t41.5 -51t15 -70.5q0 -25 -5.5 -45t-18 -39t-32.5 -38t-49 -42l51 -49v16h171q0 -46 -9 -83.5t-24 -66.5l179 -174h-225l-60 59q-34 -22 -68 -34.5t-63 -18.5t-51.5 -7.5t-32.5 -1.5
q-54 0 -101.5 12.5t-83.5 37t-57 62t-21 87.5q0 32 11 60t30 52.5t44.5 44.5t55.5 35q-59 68 -59 134zM302 546q-26 0 -35 -6.5t-9 -22.5t8 -26.5t23 -27.5q17 12 31 24.5t14 33.5q0 25 -32 25zM257 281q-42 -23 -57.5 -41t-15.5 -44q0 -23 23.5 -37.5t60.5 -14.5
q16 0 39.5 6t52.5 30z" />
    <glyph glyph-name="quotesingle" unicode="'" horiz-adv-x="220" 
d="M51 700h149v-138l-43 -203h-63l-43 203v138z" />
    <glyph glyph-name="parenleft" unicode="(" horiz-adv-x="346" 
d="M214 -94q-40 36 -72.5 86.5t-55.5 109.5t-36 122.5t-13 123.5t13 123.5t36 122.5t55.5 109.5t72.5 86.5l114 -87q-27 -44 -45.5 -86t-30 -85t-17 -88.5t-5.5 -95.5t5.5 -95t17 -88t30 -85t45.5 -85z" />
    <glyph glyph-name="parenright" unicode=")" horiz-adv-x="347" 
d="M133 790q40 -36 72.5 -86.5t56 -109.5t36 -122.5t12.5 -123.5t-12.5 -123.5t-36 -122.5t-56 -109.5t-72.5 -86.5l-114 89q27 43 45.5 85t30 85t17 88t5.5 95t-5.5 95.5t-17 88.5t-30 85t-45.5 86z" />
    <glyph glyph-name="asterisk" unicode="*" horiz-adv-x="363" 
d="M109 510l-92 48l40 70l88 -56l-4 105h81l-5 -105l88 56l41 -70l-93 -48l93 -48l-41 -70l-88 56l5 -105h-81l4 105l-88 -56l-40 70z" />
    <glyph glyph-name="plus" unicode="+" horiz-adv-x="510" 
d="M313 285v-193h-116v193h-168v105h168v185h116v-185h168v-105h-168z" />
    <glyph glyph-name="comma" unicode="," horiz-adv-x="266" 
d="M48 -101l39 91q-19 6 -30.5 12.5t-17.5 16.5t-7.5 24.5t-1.5 36.5q0 45 23.5 69t68.5 24t69.5 -25t24.5 -70q0 -25 -2.5 -44t-8.5 -34.5t-15.5 -30t-23.5 -32.5l-67 -81z" />
    <glyph glyph-name="hyphen" unicode="-" horiz-adv-x="360" 
d="M40 167v150h240v-150h-240z" />
    <glyph glyph-name="period" unicode="." horiz-adv-x="264" 
d="M51 80q0 45 23.5 69t68.5 24t68 -24t23 -69t-23 -69t-68 -24t-68.5 24t-23.5 69z" />
    <glyph glyph-name="slash" unicode="/" horiz-adv-x="422" 
d="M422 687l-237 -707h-185l237 707h185z" />
    <glyph glyph-name="zero" unicode="0" horiz-adv-x="650" 
d="M310 -14q-68 0 -124 26.5t-96.5 74.5t-62.5 115t-22 148t22 148t62.5 115t96.5 74.5t124 26.5t124 -26.5t96.5 -74.5t62.5 -115t22 -148t-22 -148t-62.5 -115t-96.5 -74.5t-124 -26.5zM310 176q23 0 44 8t36.5 28t25 53.5t9.5 84.5t-9.5 84.5t-25 53.5t-36.5 28t-44 8
t-44 -8t-36.5 -28t-25 -53.5t-9.5 -84.5t9.5 -84.5t25 -53.5t36.5 -28t44 -8z" />
    <glyph glyph-name="one" unicode="1" horiz-adv-x="650" 
d="M42 571l177 129h190v-520h172v-180h-540v180h178v306l-73 -61z" />
    <glyph glyph-name="two" unicode="2" horiz-adv-x="650" 
d="M36 36q2 37 11.5 86.5t33.5 99t66.5 93.5t110.5 70q28 11 56 21.5t50.5 21t36.5 22.5t14 26q0 17 -8.5 30t-21.5 21.5t-28 13t-28 4.5q-49 0 -85 -17t-44 -62l-178 19q8 54 35.5 97t68.5 72.5t93.5 45t109.5 15.5q50 0 98 -16t85.5 -45.5t60.5 -72t23 -95.5
q0 -52 -20 -90.5t-55 -67.5t-84 -51.5t-108 -42.5q-22 -8 -37.5 -21.5t-26.5 -31.5h324v-180h-553v35z" />
    <glyph glyph-name="three" unicode="3" horiz-adv-x="650" 
d="M574 494q0 -72 -53 -125q33 -29 51.5 -67.5t18.5 -83.5q0 -50 -22 -92t-60 -73t-89.5 -48t-110.5 -17q-61 0 -113 17.5t-90.5 49t-59 75t-18.5 94.5l196 13q2 -32 25.5 -52.5t59.5 -20.5q41 0 67.5 17.5t26.5 45.5q0 29 -26.5 47t-67.5 18h-40l1 149h39q35 0 58 15t23 38
t-23.5 38.5t-60.5 15.5q-27 0 -50.5 -11.5t-31.5 -29.5l-186 10q3 43 25 79t57.5 62.5t83 41t102.5 14.5q59 0 108 -16.5t84.5 -45.5t55.5 -69.5t20 -88.5z" />
    <glyph glyph-name="four" unicode="4" horiz-adv-x="650" 
d="M343 110h-316v180l191 410h210l-192 -410h107v121h190v-121h59v-180h-59v-110h-190v110z" />
    <glyph glyph-name="five" unicode="5" horiz-adv-x="650" 
d="M591 230q0 -56 -18.5 -101t-53.5 -76.5t-85 -48t-113 -16.5q-70 0 -125.5 16t-93 45.5t-56.5 72t-17 95.5l177 20q2 -34 32.5 -53.5t82.5 -19.5q44 0 69 17.5t25 48.5q0 29 -25 45.5t-69 16.5h-262l51 408h451v-180h-293l-9 -70h62q63 0 113 -15t85 -43.5t53.5 -69.5
t18.5 -92z" />
    <glyph glyph-name="six" unicode="6" horiz-adv-x="650" 
d="M493 700l-129 -207q48 -8 88.5 -30t69 -55t44.5 -75t16 -91q0 -55 -20.5 -102t-57 -81.5t-86.5 -53.5t-109 -19t-109 19t-86 53.5t-56.5 81.5t-20.5 102q0 40 10.5 75.5t30.5 64.5l197 318h218zM309 313q-30 0 -53.5 -20.5t-23.5 -50.5q0 -16 7 -29t18 -22.5t24.5 -14.5
t27.5 -5q33 0 55.5 21t22.5 50t-23 50t-55 21z" />
    <glyph glyph-name="seven" unicode="7" horiz-adv-x="650" 
d="M346 520h-301v180h530v-133l-254 -567h-207z" />
    <glyph glyph-name="eight" unicode="8" horiz-adv-x="650" 
d="M310 -15q-66 0 -118 15.5t-88.5 45t-56 71.5t-19.5 94q0 51 18 87t52 60q-28 22 -42.5 54.5t-14.5 78.5q0 105 71.5 164.5t197.5 59.5t197.5 -59.5t71.5 -164.5q0 -46 -14.5 -78.5t-42.5 -54.5q34 -24 52 -60t18 -87q0 -52 -19.5 -94t-56 -71.5t-88.5 -45t-118 -15.5z
M310 547q-40 0 -62.5 -15t-22.5 -41t22.5 -40.5t62.5 -14.5t62.5 14.5t22.5 40.5t-22.5 41t-62.5 15zM310 284q-44 0 -74 -14t-30 -46t30 -49t74 -17t74 17t30 49t-30 46t-74 14z" />
    <glyph glyph-name="nine" unicode="9" horiz-adv-x="650" 
d="M254 207q-48 8 -88.5 30t-69 55t-44.5 75t-16 91q0 56 20.5 103t57 81.5t86.5 53.5t109 19t109 -19t86 -53.5t56.5 -81.5t20.5 -103q0 -40 -10.5 -75.5t-30.5 -65.5l-197 -317h-218zM309 387q30 0 53.5 20.5t23.5 50.5q0 17 -7 30t-18 22.5t-24.5 14.5t-27.5 5
q-33 0 -55.5 -21.5t-22.5 -50.5t23 -50t55 -21z" />
    <glyph glyph-name="colon" unicode=":" horiz-adv-x="263" 
d="M30 397q0 45 23.5 69t68.5 24t68 -24t23 -69t-23 -69t-68 -24t-68.5 24t-23.5 69zM30 80q0 45 23.5 69t68.5 24t68 -24t23 -69t-23 -69t-68 -24t-68.5 24t-23.5 69z" />
    <glyph glyph-name="semicolon" unicode=";" horiz-adv-x="281" 
d="M51 397q0 45 23.5 69t68.5 24t68 -24t23 -69t-23 -69t-68 -24t-68.5 24t-23.5 69zM69 -101l39 91q-19 6 -30.5 12.5t-17.5 16.5t-7.5 24.5t-1.5 36.5q0 45 23.5 69t68.5 24t69.5 -25t24.5 -70q0 -25 -2.5 -44t-8.5 -34.5t-15.5 -30t-23.5 -32.5l-67 -81z" />
    <glyph glyph-name="less" unicode="&#x3c;" horiz-adv-x="510" 
d="M29 270v130l452 180v-125l-334 -121l334 -119v-125z" />
    <glyph glyph-name="equal" unicode="=" horiz-adv-x="510" 
d="M29 373v105h452v-105h-452zM29 190v105h452v-105h-452z" />
    <glyph glyph-name="greater" unicode="&#x3e;" horiz-adv-x="510" 
d="M29 90v125l334 119l-334 121v125l452 -180v-130z" />
    <glyph glyph-name="question" unicode="?" horiz-adv-x="450" 
d="M136 242v115q0 41 16 66.5t35 42t35 27.5t16 23q0 9 -8 15t-31 6q-20 0 -44 -11t-43 -31l-112 129q44 47 103.5 69t118.5 22q102 0 161 -43t59 -118q0 -35 -10 -60.5t-24.5 -44t-31.5 -32.5t-31.5 -26.5t-24.5 -25.5t-10 -30v-93h-174zM129 80q0 45 23.5 69t68.5 24
t68 -24t23 -69t-23 -69t-68 -24t-68.5 24t-23.5 69z" />
    <glyph glyph-name="at" unicode="@" horiz-adv-x="885" 
d="M619 192q0 -11 11 -18.5t21 -7.5q16 0 31 27t15 69q0 62 -19 111t-55 83t-87.5 52.5t-116.5 18.5q-58 0 -107.5 -19.5t-85.5 -55t-56.5 -84t-21.5 -106.5t20.5 -106.5t60 -84t92 -55.5t117.5 -20q26 0 55 6.5t46 17.5l72 -121q-14 -11 -34 -20t-43 -16t-47.5 -11
t-48.5 -4q-95 -2 -175.5 28.5t-139 85.5t-91 132t-32.5 168q0 88 31.5 162t87 127.5t132.5 83.5t168 30q95 0 170 -28t127.5 -80t80.5 -126.5t28 -168.5q0 -53 -13.5 -92.5t-36 -66t-51 -39.5t-58.5 -13q-51 0 -88 10t-62 27q-46 -26 -103 -26q-45 0 -83.5 15t-66 41.5
t-43 63.5t-15.5 80t15.5 79.5t43 63t66 41.5t83.5 15q69 0 121 -37h85v-232zM422 213q21 0 35 14t14 35t-14 34.5t-35 13.5q-23 0 -37 -13.5t-14 -34.5t14 -35t37 -14z" />
    <glyph glyph-name="A" unicode="A" horiz-adv-x="743" 
d="M255 700h203l255 -700h-203l-41 113h-225l-41 -113h-203zM403 293l-46 128l-47 -128h93z" />
    <glyph glyph-name="B" unicode="B" horiz-adv-x="640" 
d="M35 0v700h323q42 0 79 -17t64.5 -46t43.5 -67t16 -80q0 -60 -31 -111q29 -30 44.5 -69t15.5 -84q0 -47 -17 -88t-46.5 -72t-68.5 -48.5t-83 -17.5h-340zM358 447q9 0 19.5 8t10.5 27q0 20 -10.5 29t-19.5 9h-133v-75zM375 180q14 0 24.5 14.5t10.5 32.5q0 19 -10.5 33
t-24.5 14h-150v-94h150z" />
    <glyph glyph-name="C" unicode="C" horiz-adv-x="751" 
d="M30 347q0 75 28.5 140.5t77.5 114.5t114.5 77.5t140.5 28.5q51 0 98.5 -14t89 -39t74.5 -60t56 -77l-167 -90q-22 40 -62 65t-89 25q-35 0 -66 -13.5t-54.5 -36.5t-37 -54.5t-13.5 -66.5t13.5 -66t37 -54.5t54.5 -37t66 -13.5q50 0 90.5 26t61.5 68l168 -91
q-23 -43 -56.5 -78.5t-74.5 -61t-89 -39.5t-100 -14q-75 0 -140.5 28.5t-114.5 77.5t-77.5 114.5t-28.5 140.5z" />
    <glyph glyph-name="D" unicode="D" horiz-adv-x="764" 
d="M35 700h308q75 0 140.5 -27t114.5 -74.5t77.5 -112t28.5 -139.5t-28.5 -138.5t-77.5 -110t-114.5 -72.5t-140.5 -26h-308v700zM225 520v-340h118q35 0 66.5 13t54.5 36t36.5 54t13.5 66t-13.5 66.5t-36.5 54.5t-54.5 36.5t-66.5 13.5h-118z" />
    <glyph glyph-name="E" unicode="E" horiz-adv-x="534" 
d="M30 700h449v-180h-259v-72h234v-180h-234v-88h264v-180h-454v700z" />
    <glyph glyph-name="F" unicode="F" horiz-adv-x="534" 
d="M35 700h449v-180h-259v-84h250v-180h-250v-256h-190v700z" />
    <glyph glyph-name="G" unicode="G" horiz-adv-x="809" 
d="M30 347q0 75 28.5 140.5t77.5 114.5t114.5 77.5t140.5 28.5q87 0 160 -37t123 -100l-149 -118q-23 29 -58 47t-76 18q-35 0 -66 -13.5t-54.5 -36.5t-37 -54.5t-13.5 -66.5t13.5 -66t37 -54.5t54.5 -37t66 -13.5q33 0 62 12t52 33h-148v180h392v-74q0 -70 -29 -132.5
t-78 -108.5t-114 -73t-137 -27q-75 0 -140.5 28.5t-114.5 77.5t-77.5 114.5t-28.5 140.5z" />
    <glyph glyph-name="H" unicode="H" horiz-adv-x="740" 
d="M35 700h190v-252h260v252h190v-700h-190v268h-260v-268h-190v700z" />
    <glyph glyph-name="I" unicode="I" horiz-adv-x="290" 
d="M35 700h190v-700h-190v700z" />
    <glyph glyph-name="J" unicode="J" horiz-adv-x="568" 
d="M318 700h190v-465q0 -51 -19 -96.5t-53.5 -79t-83.5 -53.5t-110 -20q-167 0 -237 136l156 88q17 -29 35.5 -42t53.5 -13q38 0 53 19.5t15 60.5v465z" />
    <glyph glyph-name="K" unicode="K" horiz-adv-x="722" 
d="M455 0l-169 228l-61 -78v-150h-190v700h190v-242l189 242h241l-248 -317l285 -383h-237z" />
    <glyph glyph-name="L" unicode="L" horiz-adv-x="526" 
d="M35 700h190v-520h261v-180h-451v700z" />
    <glyph glyph-name="M" unicode="M" horiz-adv-x="822" 
d="M396 414l171 286h190v-700h-190v351l-148 -247h-46l-148 247v-351h-190v700h190z" />
    <glyph glyph-name="N" unicode="N" horiz-adv-x="680" 
d="M35 700h190l200 -314v314h190v-700h-158l-232 365v-365h-190v700z" />
    <glyph glyph-name="O" unicode="O" horiz-adv-x="812" 
d="M391 -14q-75 0 -140.5 28.5t-114.5 77.5t-77.5 114.5t-28.5 140.5t28.5 140.5t77.5 114.5t114.5 77.5t140.5 28.5t140.5 -28.5t114.5 -77.5t77.5 -114.5t28.5 -140.5t-28.5 -140.5t-77.5 -114.5t-114.5 -77.5t-140.5 -28.5zM391 176q35 0 66.5 13.5t54.5 37t36.5 54.5
t13.5 66t-13.5 66.5t-36.5 54.5t-54.5 36.5t-66.5 13.5t-66 -13.5t-54.5 -36.5t-37 -54.5t-13.5 -66.5t13.5 -66t37 -54.5t54.5 -37t66 -13.5z" />
    <glyph glyph-name="P" unicode="P" horiz-adv-x="602" 
d="M225 217v-217h-190v700h275q50 0 94 -19t77 -51.5t52 -76.5t19 -94t-19 -94t-52 -77t-77 -52t-94 -19h-85zM310 397q26 0 44 18t18 44t-18 43.5t-44 17.5h-85v-123h85z" />
    <glyph glyph-name="Q" unicode="Q" horiz-adv-x="838" 
d="M391 -14q-75 0 -140.5 28.5t-114.5 77.5t-77.5 114.5t-28.5 140.5t28.5 140.5t77.5 114.5t114.5 77.5t140.5 28.5t140.5 -28.5t114.5 -77.5t77.5 -114.5t28.5 -140.5q0 -53 -14.5 -101.5t-40.5 -90.5l76 -76l-134 -134l-82 81q-38 -19 -79.5 -29.5t-86.5 -10.5zM391 176
h8t8 1l-49 49l134 134l63 -62q3 11 5 23.5t2 25.5q0 35 -13.5 66.5t-36.5 54.5t-54.5 36.5t-66.5 13.5t-66 -13.5t-54.5 -36.5t-37 -54.5t-13.5 -66.5t13.5 -66t37 -54.5t54.5 -37t66 -13.5z" />
    <glyph glyph-name="R" unicode="R" horiz-adv-x="661" 
d="M30 700h302q50 0 94 -19t77 -51.5t52 -76.5t19 -94q0 -62 -28 -113.5t-75 -84.5l145 -261h-218l-119 217h-59v-217h-190v700zM332 397q26 0 44 18t18 44t-18 43.5t-44 17.5h-112v-123h112z" />
    <glyph glyph-name="S" unicode="S" horiz-adv-x="672" 
d="M333 -14q-128 0 -208.5 47.5t-114.5 125.5l184 93q22 -44 55.5 -62t88.5 -18q19 0 36 4t29.5 10.5t20 13.5t7.5 13q0 12 -6.5 20t-23 14t-46 13t-74.5 18t-87.5 28.5t-76 44t-53.5 63.5t-20 87q0 51 22.5 90.5t60 66.5t86.5 41.5t101 14.5q100 0 175 -40t120 -118
l-188 -95q-21 38 -46.5 51.5t-60.5 13.5q-28 0 -50 -8t-22 -21q0 -10 4.5 -16.5t18.5 -12t40 -12.5t68 -18q46 -12 92 -29t83 -43t60.5 -64.5t23.5 -94.5q0 -51 -23.5 -91.5t-64 -69.5t-95 -44.5t-116.5 -15.5z" />
    <glyph glyph-name="T" unicode="T" horiz-adv-x="569" 
d="M174 520h-169v180h529v-180h-170v-520h-190v520z" />
    <glyph glyph-name="U" unicode="U" horiz-adv-x="655" 
d="M30 701h190v-465q0 -16 9 -28t23 -19t30 -10.5t30 -3.5q18 0 34.5 3.5t29.5 10.5t21 19t8 28v465h190v-465q0 -56 -22.5 -102t-61 -79t-90 -51t-109.5 -18t-109 18t-89.5 51t-61 79t-22.5 102v465z" />
    <glyph glyph-name="V" unicode="V" horiz-adv-x="689" 
d="M0 700h200l135 -415l134 415h200l-227 -700h-215z" />
    <glyph glyph-name="W" unicode="W" horiz-adv-x="1030" 
d="M0 700h196l97 -385l109 385h196l109 -385l97 385h196l-188 -700h-201l-111 372l-111 -372h-201z" />
    <glyph glyph-name="X" unicode="X" horiz-adv-x="765" 
d="M498 0l-130 203l-131 -203h-227l224 346l-229 354h227l136 -210l135 210h227l-229 -354l224 -346h-227z" />
    <glyph glyph-name="Y" unicode="Y" horiz-adv-x="718" 
d="M249 229l-249 471h215l129 -244l129 244h215l-249 -471v-229h-190v229z" />
    <glyph glyph-name="Z" unicode="Z" horiz-adv-x="568" 
d="M274 520h-239v180h478v-137l-239 -383h239v-180h-478v137z" />
    <glyph glyph-name="bracketleft" unicode="[" horiz-adv-x="317" 
d="M299 36v-114h-245v868h245v-114h-120v-640h120z" />
    <glyph glyph-name="backslash" unicode="\" horiz-adv-x="422" 
d="M0 687h185l237 -707h-185z" />
    <glyph glyph-name="bracketright" unicode="]" horiz-adv-x="317" 
d="M263 790v-868h-245v114h120v640h-120v114h245z" />
    <glyph glyph-name="asciicircum" unicode="^" horiz-adv-x="450" 
d="M305 333l-80 215l-79 -215h-127l143 334h129l140 -334h-126z" />
    <glyph glyph-name="underscore" unicode="_" horiz-adv-x="564" 
d="M567 -40v-114h-570v114h570z" />
    <glyph glyph-name="grave" unicode="`" horiz-adv-x="275" 
d="M155 700l120 -144h-120l-155 144h155z" />
    <glyph glyph-name="a" unicode="a" horiz-adv-x="609" 
d="M378 15q-41 -30 -99 -30q-61 0 -109 19.5t-81.5 55t-51 84t-17.5 105.5q0 58 17.5 106.5t51 84t81.5 55.5t109 20q58 0 99 -30v15h180v-500h-180v15zM284 151q43 0 68 27.5t25 72.5q0 44 -25 69.5t-68 25.5q-19 0 -35 -7.5t-28 -21t-18.5 -31t-6.5 -37.5t6.5 -38
t18.5 -31.5t28 -21t35 -7.5z" />
    <glyph glyph-name="b" unicode="b" horiz-adv-x="610" 
d="M20 700h180v-217q20 15 44.5 23.5t56.5 8.5q61 0 109 -20t81.5 -55.5t51 -84t17.5 -106.5q0 -57 -17.5 -105.5t-51 -84t-81.5 -55t-109 -19.5q-32 0 -56.5 8.5t-44.5 22.5v-16h-180v700zM296 151q19 0 35 7.5t28 21t18.5 31.5t6.5 38t-6.5 37.5t-18.5 31t-28 21t-35 7.5
q-43 0 -68 -25.5t-25 -69.5q0 -45 25 -72.5t68 -27.5z" />
    <glyph glyph-name="c" unicode="c" horiz-adv-x="537" 
d="M502 98q-36 -52 -92.5 -83t-124.5 -31q-55 0 -103 21t-84 57t-57 84t-21 103t21 103t57 84t84 57t103 21q67 0 123.5 -31t92.5 -82l-149 -99q-32 32 -67 32t-60 -25t-25 -60t25 -60t60 -25q20 0 36.5 9t30.5 23z" />
    <glyph glyph-name="d" unicode="d" horiz-adv-x="607" 
d="M557 0h-180v14q-20 -14 -44 -21.5t-54 -7.5q-61 0 -109 19.5t-81.5 55t-51 84t-17.5 105.5q0 58 17.5 106.5t51 84t81.5 55.5t109 20q30 0 54 -7.5t44 -21.5v214h180v-700zM284 151q43 0 68 27.5t25 72.5q0 44 -25 69.5t-68 25.5q-19 0 -35 -7.5t-28 -21t-18.5 -31
t-6.5 -37.5t6.5 -38t18.5 -31.5t28 -21t35 -7.5z" />
    <glyph glyph-name="e" unicode="e" horiz-adv-x="590" 
d="M286 514q55 0 101.5 -20t80.5 -55.5t53 -83.5t19 -105q0 -33 -6 -62h-335q20 -29 45.5 -39.5t55.5 -10.5q21 0 42.5 7t36.5 24l136 -80q-74 -103 -218 -103q-64 0 -115.5 20.5t-87.5 56t-55 83.5t-19 104t19.5 104t54.5 83.5t84 56t108 20.5zM371 325q-5 18 -31.5 26.5
t-56.5 8.5q-31 0 -58 -9t-29 -26h175z" />
    <glyph glyph-name="f" unicode="f" horiz-adv-x="395" 
d="M80 340h-70v160h70v30q0 56 13 92t37 56.5t58 28.5t77 8q20 0 43 -1.5t47 -3.5v-165q-42 4 -68.5 0t-26.5 -28v-17h94v-160h-94v-340h-180v340z" />
    <glyph glyph-name="g" unicode="g" horiz-adv-x="641" 
d="M174 -4q11 -20 45 -32t76 -12t70.5 17t34.5 44q-20 -13 -44 -20.5t-53 -7.5q-61 0 -109 19.5t-81.5 55t-51 84t-17.5 105.5q0 58 17.5 106.5t51 84t81.5 55.5t109 20q30 0 54 -7.5t44 -21.5v14h180v-475q0 -52 -21.5 -96t-60.5 -75.5t-92.5 -49.5t-116.5 -18q-44 0 -86 9
t-78 25t-63.5 38.5t-42.5 48.5zM308 151q43 0 68 27.5t25 72.5q0 44 -25 69.5t-68 25.5q-19 0 -35 -7.5t-28 -21t-18.5 -31t-6.5 -37.5t6.5 -38t18.5 -31.5t28 -21t35 -7.5z" />
    <glyph glyph-name="h" unicode="h" horiz-adv-x="548" 
d="M20 700h180v-226q22 16 48 26t55 10q27 0 60.5 -9t63 -32t50 -64t21.5 -106v-299h-180v294q0 33 -19.5 46.5t-42.5 13.5q-26 0 -41 -18.5t-15 -59.5v-276h-180v700z" />
    <glyph glyph-name="i" unicode="i" horiz-adv-x="280" 
d="M127 590q-37 0 -63 26t-26 63t26 63t63 26q18 0 34 -7t28 -19t19 -28.5t7 -34.5t-7 -34.5t-19 -28.5t-28 -19t-34 -7zM35 500h180v-500h-180v500z" />
    <glyph glyph-name="j" unicode="j" horiz-adv-x="304" 
d="M149 537q-49 0 -77 26.5t-28 72.5q0 47 28 73.5t77 26.5t77 -26.5t28 -73.5q0 -46 -28 -72.5t-77 -26.5zM60 500h180v-500q0 -53 -20 -94.5t-54.5 -69t-82 -41t-103.5 -9.5v174q42 -2 61 4t19 36v500z" />
    <glyph glyph-name="k" unicode="k" horiz-adv-x="610" 
d="M20 700h180v-343l123 143h251l-199 -219l205 -281h-223l-105 147l-52 -57v-90h-180v700z" />
    <glyph glyph-name="l" unicode="l" horiz-adv-x="315" 
d="M265 0q-25 -4 -47.5 -6t-42.5 -2q-37 0 -66 8.5t-49 30t-30 58t-10 91.5v520h180v-507q0 -21 13.5 -27t51.5 -1v-165z" />
    <glyph glyph-name="m" unicode="m" horiz-adv-x="846" 
d="M796 0h-180v299q0 33 -19.5 46.5t-42.5 13.5q-26 0 -41 -18.5t-15 -59.5v-281h-180v299q0 33 -19.5 46.5t-42.5 13.5q-26 0 -41 -18.5t-15 -59.5v-281h-180v500h180v-21q22 16 48 26t55 10q17 0 37.5 -3.5t41.5 -12t40.5 -22.5t35.5 -36q26 30 62 52t81 22q27 0 61 -9
t63.5 -33t50 -66t20.5 -108v-299z" />
    <glyph glyph-name="n" unicode="n" horiz-adv-x="548" 
d="M498 0h-180v299q0 33 -19.5 46.5t-42.5 13.5q-26 0 -41 -18.5t-15 -59.5v-281h-180v500h180v-21q22 16 48 26t55 10q27 0 61 -9t63.5 -33t50 -66t20.5 -108v-299z" />
    <glyph glyph-name="o" unicode="o" 
d="M285 -16q-55 0 -103 21t-84 57t-57 84t-21 103t21 103t57 84t84 57t103 21t103 -21t84 -57t57 -84t21 -103t-21 -103t-57 -84t-84 -57t-103 -21zM285 164q35 0 60 25t25 60t-25 60t-60 25t-60 -25t-25 -60t25 -60t60 -25z" />
    <glyph glyph-name="p" unicode="p" horiz-adv-x="607" 
d="M20 500h180v-15q20 14 44 21.5t54 7.5q61 0 109 -19.5t81.5 -55t51 -84t17.5 -105.5q0 -58 -17.5 -106.5t-51 -84t-81.5 -55.5t-109 -20q-30 0 -54 7.5t-44 21.5v-213h-180v700zM293 348q-43 0 -68 -27.5t-25 -72.5q0 -44 25 -69.5t68 -25.5q19 0 35 7.5t28 21t18.5 31
t6.5 37.5t-6.5 38t-18.5 31.5t-28 21t-35 7.5z" />
    <glyph glyph-name="q" unicode="q" horiz-adv-x="607" 
d="M557 -160l-180 -40v213q-20 -14 -44 -21.5t-54 -7.5q-61 0 -109 20t-81.5 55.5t-51 84t-17.5 106.5q0 57 17.5 105.5t51 84t81.5 55t109 19.5q30 0 54 -7.5t44 -21.5v15h180v-660zM284 348q-19 0 -35 -7.5t-28 -21t-18.5 -31.5t-6.5 -38t6.5 -37.5t18.5 -31t28 -21
t35 -7.5q43 0 68 25.5t25 69.5q0 45 -25 72.5t-68 27.5z" />
    <glyph glyph-name="r" unicode="r" horiz-adv-x="402" 
d="M356 330q-11 4 -26 4q-31 0 -55.5 -9.5t-41 -24.5t-25 -34.5t-8.5 -39.5v-226h-180v500h180v-89q24 51 69 70t98 19z" />
    <glyph glyph-name="s" unicode="s" horiz-adv-x="537" 
d="M216 354q0 -12 20 -17t50 -10t65.5 -13.5t65.5 -26.5t50 -49.5t20 -83.5q0 -43 -20.5 -74.5t-54 -52.5t-76 -31t-86.5 -10q-82 0 -142.5 29t-92.5 90l146 75q11 -29 33.5 -41t55.5 -12q22 0 42.5 5.5t20.5 20.5q0 12 -20.5 18.5t-51.5 12.5t-67 15.5t-67 27t-51.5 46.5
t-20.5 75q0 41 18.5 72t49 52t70 31.5t81.5 10.5q67 0 123 -26.5t90 -80.5l-146 -72q-11 20 -25.5 29t-41.5 9q-17 0 -27.5 -4.5t-10.5 -14.5z" />
    <glyph glyph-name="t" unicode="t" horiz-adv-x="401" 
d="M351 0q-24 -2 -47 -3.5t-43 -1.5q-43 0 -77 8t-58 28.5t-37 56.5t-13 92v160h-71v160h71v102l180 60v-162h93v-160h-93v-147q0 -24 26.5 -28t68.5 0v-165z" />
    <glyph glyph-name="u" unicode="u" horiz-adv-x="558" 
d="M30 500h180v-299q0 -33 19.5 -46.5t42.5 -13.5q26 0 41 18.5t15 59.5v281h180v-500h-180v21q-22 -16 -48 -26t-55 -10q-27 0 -61 9t-63.5 33t-50 66t-20.5 108v299z" />
    <glyph glyph-name="v" unicode="v" horiz-adv-x="592" 
d="M0 500h190l91 -263l91 263h190l-172 -500h-218z" />
    <glyph glyph-name="w" unicode="w" horiz-adv-x="824" 
d="M161 2l-161 498h189l58 -196l55 196h189l56 -198l58 198h189l-162 -500h-174l-61 197l-61 -195v-2h-175v2z" />
    <glyph glyph-name="x" unicode="x" horiz-adv-x="599" 
d="M174 249l-174 251h219l66 -94l65 94h219l-174 -251l174 -249l-221 -1l-63 91l-64 -91l-221 1z" />
    <glyph glyph-name="y" unicode="y" horiz-adv-x="586" 
d="M194 500l101 -225l73 225h189l-154 -476q-91 -241 -314 -224v174q47 -6 74.5 10.5t44.5 44.5l-208 471h194z" />
    <glyph glyph-name="z" unicode="z" horiz-adv-x="470" 
d="M410 500v-116l-147 -214h157v-170h-400v116l152 214h-142v170h380z" />
    <glyph glyph-name="braceleft" unicode="{" horiz-adv-x="317" 
d="M2 403q26 0 39 18t13 46v138q0 44 15.5 78t41 58t59 36.5t69.5 12.5h60v-114h-60q-25 0 -42.5 -18.5t-17.5 -51.5v-159q0 -32 -10.5 -56t-35.5 -35q25 -11 35.5 -35t10.5 -56v-158q0 -32 17.5 -51.5t42.5 -19.5h60v-114h-60q-36 0 -69.5 12.5t-59 36t-41 58t-15.5 77.5
v139q0 28 -13 46t-39 18v94z" />
    <glyph glyph-name="bar" unicode="|" horiz-adv-x="222" 
d="M54 -80v827h114v-827h-114z" />
    <glyph glyph-name="braceright" unicode="}" horiz-adv-x="316" 
d="M314 309q-26 0 -39 -18t-13 -46v-139q0 -43 -15.5 -77.5t-41 -58t-59 -36t-69.5 -12.5h-60v114h60q25 0 42.5 19.5t17.5 51.5v158q0 32 10.5 56t35.5 35q-25 11 -35.5 35t-10.5 56v159q0 33 -17.5 51.5t-42.5 18.5h-60v114h60q36 0 69.5 -12.5t59 -36.5t41 -58t15.5 -78
v-138q0 -28 13 -46t39 -18v-94z" />
    <glyph glyph-name="asciitilde" unicode="~" horiz-adv-x="518" 
d="M493 653q-3 -44 -11 -89t-25 -81t-46.5 -59t-76.5 -23q-34 0 -55 12t-34 30t-20 39t-12.5 39t-11 30t-16.5 12q-12 0 -19.5 -16.5t-12 -41t-6.5 -53t-4 -51.5l-118 13q3 44 11 89t25.5 81.5t47.5 59.5t76 23q34 0 55 -12t34 -30t20 -39.5t12.5 -39.5t11 -30t16.5 -12
q12 0 19.5 16.5t12 41t7.5 53t4 52.5z" />
    <glyph glyph-name="uni00A0" unicode="&#xa0;" horiz-adv-x="255" 
 />
    <glyph glyph-name="exclamdown" unicode="&#xa1;" horiz-adv-x="280" 
d="M51 398q0 45 23.5 69t68.5 24t68 -24t23 -69t-23 -69t-68 -24t-68.5 24t-23.5 69zM60 241h162l25 -419h-214z" />
    <glyph glyph-name="cent" unicode="&#xa2;" horiz-adv-x="502" 
d="M17 242q0 50 16 91.5t44 73.5t67 53t85 30v75h126v-77q54 -11 88 -35.5t50 -48.5l-116 -109q-10 16 -31 29v-164q21 13 31 29l116 -110q-16 -23 -50 -48t-88 -36v-95h-126v93q-46 8 -85 29t-67 53.5t-44 74.5t-16 92zM201 242q0 -30 13 -51t33 -32v166q-20 -11 -33 -32
t-13 -51z" />
    <glyph glyph-name="sterling" unicode="&#xa3;" horiz-adv-x="581" 
d="M26 270v109h38q-10 19 -16 39t-6 42q0 54 25 94.5t63 68t84 41t89 13.5q99 0 163 -30.5t100 -99.5l-160 -92q-11 32 -32 46t-45 14q-30 0 -48 -17.5t-18 -41.5q0 -22 7 -40t15 -37h134v-109h-109q-2 -23 -16 -48t-35 -37q11 4 23 5t20 1q20 0 34 -4t26.5 -8.5t25 -8.5
t28.5 -4q30 0 48 9.5t28 23.5l77 -159q-20 -22 -58.5 -37t-101.5 -15q-32 0 -58 6.5t-48 14.5t-41 14.5t-36 6.5q-26 0 -55.5 -10t-58.5 -27l-66 132q15 8 30 18.5t27.5 22.5t20 25.5t7.5 29.5q0 13 -2.5 25t-6.5 24h-96z" />
    <glyph glyph-name="currency" unicode="&#xa4;" horiz-adv-x="522" 
d="M261 114q-38 0 -74.5 13t-65.5 38l-57 -57l-28 29l56 56q-24 30 -37 66t-13 74t13 74.5t37 65.5l-56 57l28 28l57 -56q29 25 65.5 37.5t74.5 12.5t74.5 -13t65.5 -37l56 56l29 -28l-56 -57q24 -29 37 -65.5t13 -74.5t-13 -74t-37 -66l56 -56l-29 -29l-56 57
q-29 -25 -65.5 -38t-74.5 -13zM261 162q35 0 66.5 13.5t54.5 37t36.5 54.5t13.5 66q0 36 -13.5 67t-36.5 54t-54.5 36.5t-66.5 13.5t-66 -13.5t-54.5 -36.5t-37 -54t-13.5 -67q0 -35 13.5 -66t37 -54.5t54.5 -37t66 -13.5z" />
    <glyph glyph-name="yen" unicode="&#xa5;" horiz-adv-x="664" 
d="M232 0v107h-207v105h207v53h-207v105h141l-184 297h227l124 -225l122 225h227l-183 -297h142v-105h-207v-53h207v-105h-207v-107h-202z" />
    <glyph glyph-name="brokenbar" unicode="&#xa6;" horiz-adv-x="222" 
d="M168 687v-316h-114v316h114zM168 296v-316h-114v316h114z" />
    <glyph glyph-name="section" unicode="&#xa7;" horiz-adv-x="500" 
d="M475 336q0 -39 -20 -73.5t-55 -54.5q31 -15 53 -44t22 -79q0 -39 -17.5 -70t-48 -52.5t-72.5 -32.5t-91 -11q-78 0 -137 24t-97 56l69 112q14 -12 33 -24.5t40.5 -22.5t45.5 -16.5t46 -6.5q26 0 41.5 6t15.5 21q0 17 -20.5 25t-50.5 14.5t-66 15t-66 25.5t-50.5 46.5
t-20.5 78.5q0 24 8.5 44t20.5 35t26 25.5t25 16.5q-42 20 -61 54t-19 76q0 33 16.5 61.5t45.5 48.5t68.5 31.5t84.5 11.5q81 0 130.5 -20t78.5 -45l-65 -105q-26 20 -62.5 34t-72.5 14q-52 0 -52 -27q0 -14 20.5 -21t50.5 -12.5t66 -13.5t66 -24.5t50.5 -45t20.5 -75.5z
M298 298q0 22 -14.5 35t-39.5 18q-26 -5 -34.5 -18t-8.5 -30q0 -27 20.5 -38.5t42.5 -15.5q20 8 27 20t7 29z" />
    <glyph glyph-name="dieresis" unicode="&#xa8;" horiz-adv-x="318" 
d="M357 618q0 -38 -26 -63.5t-64 -25.5q-37 0 -63 25.5t-26 63.5t26 63.5t63 25.5q38 0 64 -25.5t26 -63.5zM140 618q0 -38 -25.5 -63.5t-63.5 -25.5t-63.5 25.5t-25.5 63.5t25.5 63.5t63.5 25.5t63.5 -25.5t25.5 -63.5z" />
    <glyph glyph-name="copyright" unicode="&#xa9;" horiz-adv-x="778" 
d="M734 334q0 -71 -27 -134t-74 -110t-109.5 -74t-134.5 -27q-71 0 -134 27t-110 74t-74 110t-27 134q0 72 27 134.5t74 109.5t110 74t134 27q72 0 134.5 -27t109.5 -74t74 -109.5t27 -134.5zM692 334q0 63 -24 118t-65 96t-96 65t-118 24q-62 0 -117 -24t-96.5 -65
t-65.5 -96t-24 -118q0 -62 24 -117t65.5 -96.5t96.5 -65.5t117 -24q63 0 118 24t96 65.5t65 96.5t24 117zM549 195q-27 -32 -66 -51t-86 -19q-43 0 -81 15.5t-66 43.5t-44.5 66.5t-16.5 84.5t16.5 84t44.5 65.5t66 43t81 15.5q47 0 85.5 -18.5t64.5 -49.5l-37 -37
q-20 26 -49 42t-64 16q-32 0 -60 -12t-48.5 -33.5t-32.5 -51t-12 -64.5t12 -65t32.5 -51.5t48.5 -34t60 -12.5q36 0 65 16.5t49 42.5z" />
    <glyph glyph-name="ordfeminine" unicode="&#xaa;" horiz-adv-x="609" 
d="M378 15q-20 -14 -44 -22t-55 -8q-61 0 -109 19.5t-81.5 55t-51 84t-17.5 105.5q0 58 17.5 106.5t51 84t81.5 55.5t109 20q31 0 55 -8t44 -22v15h180v-500h-180v15zM284 151q43 0 68 27.5t25 72.5q0 44 -25 69.5t-68 25.5q-19 0 -35 -7.5t-28 -21t-18.5 -31t-6.5 -37.5
t6.5 -38t18.5 -31.5t28 -21t35 -7.5z" />
    <glyph glyph-name="guillemotleft" unicode="&#xab;" horiz-adv-x="615" 
d="M425 63l-160 180l160 177h160l-160 -177l160 -180h-160zM190 63l-160 180l160 177h160l-160 -177l160 -180h-160z" />
    <glyph glyph-name="logicalnot" unicode="&#xac;" horiz-adv-x="527" 
d="M481 190h-108v183h-344v105h452v-288z" />
    <glyph glyph-name="uni00AD" unicode="&#xad;" horiz-adv-x="300" 
d="M40 167v150h240v-150h-240z" />
    <glyph glyph-name="registered" unicode="&#xae;" horiz-adv-x="494" 
d="M459 465q0 -44 -16.5 -82.5t-45 -67.5t-67.5 -45.5t-83 -16.5t-82.5 16.5t-67.5 45.5t-45.5 67.5t-16.5 82.5t16.5 83t45.5 67.5t67.5 45t82.5 16.5t83 -16.5t67.5 -45t45 -67.5t16.5 -83zM424 465q0 37 -14 69.5t-38 56.5t-56 37.5t-69 13.5t-69 -13.5t-56 -37.5
t-38 -56.5t-14 -69.5q0 -36 14 -68.5t38 -56.5t56 -38t69 -14t69 14t56 38t38 56.5t14 68.5zM304 343l-63 96h-39v-96h-37v243h99q31 0 56.5 -20t25.5 -54q0 -20 -7.5 -34t-18 -22.5t-21 -12t-15.5 -3.5l65 -97h-45zM308 512q0 20 -14 31.5t-30 11.5h-62v-84h62q16 0 30 11
t14 30z" />
    <glyph glyph-name="macron" unicode="&#xaf;" horiz-adv-x="363" 
d="M0 591v97h363v-97h-363z" />
    <glyph glyph-name="degree" unicode="&#xb0;" horiz-adv-x="331" 
d="M314 528q0 -31 -11.5 -58t-32 -47t-47.5 -31.5t-58 -11.5t-58 11.5t-47 31.5t-31.5 47t-11.5 58t11.5 58t31.5 47.5t47 32t58 11.5t58 -11.5t47.5 -32t32 -47.5t11.5 -58zM224 528q0 24 -17.5 41.5t-41.5 17.5t-40.5 -17.5t-16.5 -41.5t16.5 -40.5t40.5 -16.5t41.5 16.5
t17.5 40.5z" />
    <glyph glyph-name="plusminus" unicode="&#xb1;" horiz-adv-x="510" 
d="M313 328v-193h-116v193h-168v105h168v185h116v-185h168v-105h-168zM29 0v105h452v-105h-452z" />
    <glyph glyph-name="twosuperior" unicode="&#xb2;" horiz-adv-x="650" 
d="M36 36q2 37 11.5 86.5t33.5 99t66.5 93.5t110.5 70q28 11 56 21.5t50.5 21t36.5 22.5t14 26q0 17 -8.5 30t-21.5 21.5t-28 13t-28 4.5q-49 0 -85 -17t-44 -62l-178 19q8 54 35.5 97t68.5 72.5t93.5 45t109.5 15.5q50 0 98 -16t85.5 -45.5t60.5 -72t23 -95.5
q0 -52 -20 -90.5t-55 -67.5t-84 -51.5t-108 -42.5q-22 -8 -37 -21.5t-26 -31.5h323v-180h-553v35z" />
    <glyph glyph-name="threesuperior" unicode="&#xb3;" horiz-adv-x="650" 
d="M574 494q0 -72 -53 -125q33 -29 51.5 -67.5t18.5 -83.5q0 -50 -22 -92t-60 -73t-89.5 -48t-110.5 -17q-61 0 -113 17.5t-90.5 49t-59 75t-18.5 94.5l196 13q2 -32 25.5 -52.5t59.5 -20.5q41 0 67.5 17.5t26.5 45.5q0 29 -26.5 47t-67.5 18h-40l1 149h39q35 0 58 15t23 38
t-23.5 38.5t-60.5 15.5q-27 0 -50.5 -11.5t-31.5 -29.5l-186 10q3 43 25 79t57.5 62.5t83 41t102.5 14.5q59 0 108 -16.5t84.5 -45.5t55.5 -69.5t20 -88.5z" />
    <glyph glyph-name="acute" unicode="&#xb4;" horiz-adv-x="275" 
d="M120 700h155l-155 -144h-120z" />
    <glyph glyph-name="uni00B5" unicode="&#xb5;" horiz-adv-x="606" 
d="M230 -184h-180v667h180v-268q0 -37 18.5 -52.5t51.5 -15.5q30 0 47.5 12.5t28.5 25.5v298h180v-483h-180v54q-20 -22 -55.5 -42t-90.5 -24v-172z" />
    <glyph glyph-name="paragraph" unicode="&#xb6;" horiz-adv-x="449" 
d="M347 -100v687h-68v-687h-80v423q-36 0 -67 13.5t-54.5 37t-37 54.5t-13.5 67t13.5 67t37 54.5t54.5 37t67 13.5h228v-767h-80z" />
    <glyph glyph-name="periodcentered" unicode="&#xb7;" horiz-adv-x="283" 
d="M51 339h183v-186h-183v186z" />
    <glyph glyph-name="cedilla" unicode="&#xb8;" horiz-adv-x="237" 
d="M119 -200q-40 0 -71 10t-48 24l31 64q20 -14 41 -22t42 -8q16 0 29 5.5t13 18.5q0 17 -21 17q-16 0 -26 -12l-59 34l30 80h80l-25 -58q15 9 34 9q27 0 47.5 -20.5t20.5 -52.5q0 -43 -35 -66t-83 -23z" />
    <glyph glyph-name="onesuperior" unicode="&#xb9;" horiz-adv-x="650" 
d="M42 571l177 129h190v-520h172v-180h-540v180h178v306l-73 -61z" />
    <glyph glyph-name="ordmasculine" unicode="&#xba;" 
d="M285 -16q-55 0 -103 21t-84 57t-57 84t-21 103t21 103t57 84t84 57t103 21t103 -21t84 -57t57 -84t21 -103t-21 -103t-57 -84t-84 -57t-103 -21zM285 164q35 0 60 25t25 60t-25 60t-60 25t-60 -25t-25 -60t25 -60t60 -25z" />
    <glyph glyph-name="guillemotright" unicode="&#xbb;" horiz-adv-x="615" 
d="M190 63h-160l160 180l-160 177h160l160 -177zM425 63h-160l160 180l-160 177h160l160 -177z" />
    <glyph glyph-name="questiondown" unicode="&#xbf;" horiz-adv-x="450" 
d="M319 320h-183v186h183v-186zM314 268v-82q0 -41 -16 -66.5t-35 -42t-35 -27.5t-16 -23q0 -9 8 -15t31 -6q20 0 44 11t43 31l112 -129q-44 -47 -103.5 -69t-118.5 -22q-102 0 -161 43t-59 118q0 53 20.5 84t45.5 52.5t45.5 39.5t20.5 43v60h174z" />
    <glyph glyph-name="Agrave" unicode="&#xc0;" horiz-adv-x="743" 
d="M307 987l120 -144h-180l-125 144h185zM255 700h203l255 -700h-203l-41 113h-225l-41 -113h-203zM403 293l-46 128l-47 -128h93z" />
    <glyph glyph-name="Aacute" unicode="&#xc1;" horiz-adv-x="743" 
d="M420 976h185l-125 -144h-180zM255 700h203l255 -700h-203l-41 113h-225l-41 -113h-203zM403 293l-46 128l-47 -128h93z" />
    <glyph glyph-name="Acircumflex" unicode="&#xc2;" horiz-adv-x="743" 
d="M424 826l-64 73l-61 -73h-105l88 144h156l91 -144h-105zM255 700h203l255 -700h-203l-41 113h-225l-41 -113h-203zM403 293l-46 128l-47 -128h93z" />
    <glyph glyph-name="Atilde" unicode="&#xc3;" horiz-adv-x="743" 
d="M409 840q-23 0 -39.5 6.5t-28.5 15t-22 15t-20 6.5t-17 -9t-7 -28h-89q0 69 30 101.5t88 32.5q23 0 39.5 -6.5t28.5 -15t22 -15t20 -6.5t17 9t7 28h89q0 -69 -30 -101.5t-88 -32.5zM255 700h203l255 -700h-203l-41 113h-225l-41 -113h-203zM403 293l-46 128l-47 -128h93z
" />
    <glyph glyph-name="Adieresis" unicode="&#xc4;" horiz-adv-x="743" 
d="M559 898q0 -38 -26 -63.5t-64 -25.5q-37 0 -63 25.5t-26 63.5t26 63.5t63 25.5q38 0 64 -25.5t26 -63.5zM342 898q0 -38 -25.5 -63.5t-63.5 -25.5t-63.5 25.5t-25.5 63.5t25.5 63.5t63.5 25.5t63.5 -25.5t25.5 -63.5zM255 700h203l255 -700h-203l-41 113h-225l-41 -113
h-203zM403 293l-46 128l-47 -128h93z" />
    <glyph glyph-name="Aring" unicode="&#xc5;" horiz-adv-x="743" 
d="M359 788q-23 0 -43.5 9t-35.5 24t-24 35.5t-9 43.5t9 43.5t24 35.5t35.5 24t43.5 9t43 -9t35 -24t23.5 -35.5t8.5 -43.5t-8.5 -43.5t-23.5 -35.5t-35 -24t-43 -9zM359 865q14 0 24 10.5t10 24.5t-10 24.5t-24 10.5t-24.5 -10.5t-10.5 -24.5t10.5 -24.5t24.5 -10.5z
M255 700h203l255 -700h-203l-41 113h-225l-41 -113h-203zM403 293l-46 128l-47 -128h93z" />
    <glyph glyph-name="AE" unicode="&#xc6;" horiz-adv-x="940" 
d="M255 700h630v-180h-259v-72h234v-180h-234v-88h264v-180h-454v113h-192l-41 -113h-203zM436 293v227h-44l-82 -227h126z" />
    <glyph glyph-name="Ccedilla" unicode="&#xc7;" horiz-adv-x="751" 
d="M30 347q0 75 28.5 140.5t77.5 114.5t114.5 77.5t140.5 28.5q51 0 98.5 -14t89 -39t74.5 -60t56 -77l-167 -90q-22 40 -62 65t-89 25q-35 0 -66 -13.5t-54.5 -36.5t-37 -54.5t-13.5 -66.5t13.5 -66t37 -54.5t54.5 -37t66 -13.5q50 0 90.5 26t61.5 68l168 -91
q-42 -78 -115.5 -129.5t-165.5 -61.5l-21 -49q15 9 34 9q27 0 47.5 -20.5t20.5 -52.5q0 -43 -35 -66t-83 -23q-40 0 -71 10t-48 24l31 64q20 -14 41 -22t42 -8q16 0 29 5.5t13 18.5q0 17 -21 17q-16 0 -26 -12l-59 34l27 71q-67 7 -126 38.5t-102 79.5t-68 110t-25 131z" />
    <glyph glyph-name="Egrave" unicode="&#xc8;" horiz-adv-x="534" 
d="M212 982l120 -144h-180l-125 144h185zM30 700h449v-180h-259v-72h234v-180h-234v-88h264v-180h-454v700z" />
    <glyph glyph-name="Eacute" unicode="&#xc9;" horiz-adv-x="534" 
d="M325 971h185l-125 -144h-180zM30 700h449v-180h-259v-72h234v-180h-234v-88h264v-180h-454v700z" />
    <glyph glyph-name="Ecircumflex" unicode="&#xca;" horiz-adv-x="534" 
d="M329 821l-64 73l-61 -73h-105l88 144h156l91 -144h-105zM30 700h449v-180h-259v-72h234v-180h-234v-88h264v-180h-454v700z" />
    <glyph glyph-name="Edieresis" unicode="&#xcb;" horiz-adv-x="534" 
d="M464 893q0 -38 -26 -63.5t-64 -25.5q-37 0 -63 25.5t-26 63.5t26 63.5t63 25.5q38 0 64 -25.5t26 -63.5zM247 893q0 -38 -25.5 -63.5t-63.5 -25.5t-63.5 25.5t-25.5 63.5t25.5 63.5t63.5 25.5t63.5 -25.5t25.5 -63.5zM30 700h449v-180h-259v-72h234v-180h-234v-88h264
v-180h-454v700z" />
    <glyph glyph-name="Igrave" unicode="&#xcc;" horiz-adv-x="290" 
d="M82 987l120 -144h-180l-125 144h185zM35 700h190v-700h-190v700z" />
    <glyph glyph-name="Iacute" unicode="&#xcd;" horiz-adv-x="290" 
d="M195 976h185l-125 -144h-180zM35 700h190v-700h-190v700z" />
    <glyph glyph-name="Icircumflex" unicode="&#xce;" horiz-adv-x="290" 
d="M199 826l-64 73l-61 -73h-105l88 144h156l91 -144h-105zM35 700h190v-700h-190v700z" />
    <glyph glyph-name="Idieresis" unicode="&#xcf;" horiz-adv-x="290" 
d="M334 898q0 -38 -26 -63.5t-64 -25.5q-37 0 -63 25.5t-26 63.5t26 63.5t63 25.5q38 0 64 -25.5t26 -63.5zM117 898q0 -38 -25.5 -63.5t-63.5 -25.5t-63.5 25.5t-25.5 63.5t25.5 63.5t63.5 25.5t63.5 -25.5t25.5 -63.5zM35 700h190v-700h-190v700z" />
    <glyph glyph-name="Eth" unicode="&#xd0;" horiz-adv-x="764" 
d="M35 263h-73v176h73v261h308q75 0 140.5 -27t114.5 -74.5t77.5 -112t28.5 -139.5t-28.5 -138.5t-77.5 -110t-114.5 -72.5t-140.5 -26h-308v263zM225 520v-81h131v-176h-131v-83h118q35 0 66.5 13t54.5 36t36.5 54t13.5 66t-13.5 66.5t-36.5 54.5t-54.5 36.5t-66.5 13.5
h-118z" />
    <glyph glyph-name="Ntilde" unicode="&#xd1;" horiz-adv-x="680" 
d="M381 840q-23 0 -39.5 6.5t-28.5 15t-22 15t-20 6.5t-17 -9t-7 -28h-89q0 69 30 101.5t88 32.5q23 0 39.5 -6.5t28.5 -15t22 -15t20 -6.5t17 9t7 28h89q0 -69 -30 -101.5t-88 -32.5zM35 700h190l200 -314v314h190v-700h-158l-232 365v-365h-190v700z" />
    <glyph glyph-name="Ograve" unicode="&#xd2;" horiz-adv-x="812" 
d="M340 995l120 -144h-180l-125 144h185zM391 -14q-75 0 -140.5 28.5t-114.5 77.5t-77.5 114.5t-28.5 140.5t28.5 140.5t77.5 114.5t114.5 77.5t140.5 28.5t140.5 -28.5t114.5 -77.5t77.5 -114.5t28.5 -140.5t-28.5 -140.5t-77.5 -114.5t-114.5 -77.5t-140.5 -28.5zM391 176
q35 0 66.5 13.5t54.5 37t36.5 54.5t13.5 66t-13.5 66.5t-36.5 54.5t-54.5 36.5t-66.5 13.5t-66 -13.5t-54.5 -36.5t-37 -54.5t-13.5 -66.5t13.5 -66t37 -54.5t54.5 -37t66 -13.5z" />
    <glyph glyph-name="Oacute" unicode="&#xd3;" horiz-adv-x="812" 
d="M453 984h185l-125 -144h-180zM391 -14q-75 0 -140.5 28.5t-114.5 77.5t-77.5 114.5t-28.5 140.5t28.5 140.5t77.5 114.5t114.5 77.5t140.5 28.5t140.5 -28.5t114.5 -77.5t77.5 -114.5t28.5 -140.5t-28.5 -140.5t-77.5 -114.5t-114.5 -77.5t-140.5 -28.5zM391 176
q35 0 66.5 13.5t54.5 37t36.5 54.5t13.5 66t-13.5 66.5t-36.5 54.5t-54.5 36.5t-66.5 13.5t-66 -13.5t-54.5 -36.5t-37 -54.5t-13.5 -66.5t13.5 -66t37 -54.5t54.5 -37t66 -13.5z" />
    <glyph glyph-name="Ocircumflex" unicode="&#xd4;" horiz-adv-x="812" 
d="M457 834l-64 73l-61 -73h-105l88 144h156l91 -144h-105zM391 -14q-75 0 -140.5 28.5t-114.5 77.5t-77.5 114.5t-28.5 140.5t28.5 140.5t77.5 114.5t114.5 77.5t140.5 28.5t140.5 -28.5t114.5 -77.5t77.5 -114.5t28.5 -140.5t-28.5 -140.5t-77.5 -114.5t-114.5 -77.5
t-140.5 -28.5zM391 176q35 0 66.5 13.5t54.5 37t36.5 54.5t13.5 66t-13.5 66.5t-36.5 54.5t-54.5 36.5t-66.5 13.5t-66 -13.5t-54.5 -36.5t-37 -54.5t-13.5 -66.5t13.5 -66t37 -54.5t54.5 -37t66 -13.5z" />
    <glyph glyph-name="Otilde" unicode="&#xd5;" horiz-adv-x="812" 
d="M442 848q-23 0 -39.5 6.5t-28.5 15t-22 15t-20 6.5t-17 -9t-7 -28h-89q0 69 30 101.5t88 32.5q23 0 39.5 -6.5t28.5 -15t22 -15t20 -6.5t17 9t7 28h89q0 -69 -30 -101.5t-88 -32.5zM391 -14q-75 0 -140.5 28.5t-114.5 77.5t-77.5 114.5t-28.5 140.5t28.5 140.5
t77.5 114.5t114.5 77.5t140.5 28.5t140.5 -28.5t114.5 -77.5t77.5 -114.5t28.5 -140.5t-28.5 -140.5t-77.5 -114.5t-114.5 -77.5t-140.5 -28.5zM391 176q35 0 66.5 13.5t54.5 37t36.5 54.5t13.5 66t-13.5 66.5t-36.5 54.5t-54.5 36.5t-66.5 13.5t-66 -13.5t-54.5 -36.5
t-37 -54.5t-13.5 -66.5t13.5 -66t37 -54.5t54.5 -37t66 -13.5z" />
    <glyph glyph-name="Odieresis" unicode="&#xd6;" horiz-adv-x="812" 
d="M592 906q0 -38 -26 -63.5t-64 -25.5q-37 0 -63 25.5t-26 63.5t26 63.5t63 25.5q38 0 64 -25.5t26 -63.5zM375 906q0 -38 -25.5 -63.5t-63.5 -25.5t-63.5 25.5t-25.5 63.5t25.5 63.5t63.5 25.5t63.5 -25.5t25.5 -63.5zM391 -14q-75 0 -140.5 28.5t-114.5 77.5t-77.5 114.5
t-28.5 140.5t28.5 140.5t77.5 114.5t114.5 77.5t140.5 28.5t140.5 -28.5t114.5 -77.5t77.5 -114.5t28.5 -140.5t-28.5 -140.5t-77.5 -114.5t-114.5 -77.5t-140.5 -28.5zM391 176q35 0 66.5 13.5t54.5 37t36.5 54.5t13.5 66t-13.5 66.5t-36.5 54.5t-54.5 36.5t-66.5 13.5
t-66 -13.5t-54.5 -36.5t-37 -54.5t-13.5 -66.5t13.5 -66t37 -54.5t54.5 -37t66 -13.5z" />
    <glyph glyph-name="multiply" unicode="&#xd7;" horiz-adv-x="510" 
d="M463 200l-74 -74l-134 134l-133 -134l-75 74l134 134l-134 134l75 74l133 -134l134 134l74 -74l-133 -134z" />
    <glyph glyph-name="Oslash" unicode="&#xd8;" horiz-adv-x="812" 
d="M391 -14q-54 0 -103 15t-91 41l-63 -70l-84 80l61 68q-38 47 -59.5 104.5t-21.5 122.5q0 75 28.5 140.5t77.5 114.5t114.5 77.5t140.5 28.5q55 0 104.5 -15.5t92.5 -43.5l62 69l84 -79l-61 -67q38 -47 58.5 -104t20.5 -121q0 -75 -28.5 -140.5t-77.5 -114.5t-114.5 -77.5
t-140.5 -28.5zM458 504q-33 14 -67 14q-35 0 -66 -13.5t-54.5 -36.5t-37 -54.5t-13.5 -66.5q0 -23 5.5 -43.5t15.5 -39.5zM391 176q35 0 66.5 13.5t54.5 37t36.5 54.5t13.5 66q0 42 -20 79l-214 -238q30 -12 63 -12z" />
    <glyph glyph-name="Ugrave" unicode="&#xd9;" horiz-adv-x="655" 
d="M261 987l120 -144h-180l-125 144h185zM30 701h190v-465q0 -16 9 -28t23 -19t30 -10.5t30 -3.5q18 0 34.5 3.5t29.5 10.5t21 19t8 28v465h190v-465q0 -56 -22.5 -102t-61 -79t-90 -51t-109.5 -18t-109 18t-89.5 51t-61 79t-22.5 102v465z" />
    <glyph glyph-name="Uacute" unicode="&#xda;" horiz-adv-x="655" 
d="M374 976h185l-125 -144h-180zM30 701h190v-465q0 -16 9 -28t23 -19t30 -10.5t30 -3.5q18 0 34.5 3.5t29.5 10.5t21 19t8 28v465h190v-465q0 -56 -22.5 -102t-61 -79t-90 -51t-109.5 -18t-109 18t-89.5 51t-61 79t-22.5 102v465z" />
    <glyph glyph-name="Ucircumflex" unicode="&#xdb;" horiz-adv-x="655" 
d="M378 826l-64 73l-61 -73h-105l88 144h156l91 -144h-105zM30 701h190v-465q0 -16 9 -28t23 -19t30 -10.5t30 -3.5q18 0 34.5 3.5t29.5 10.5t21 19t8 28v465h190v-465q0 -56 -22.5 -102t-61 -79t-90 -51t-109.5 -18t-109 18t-89.5 51t-61 79t-22.5 102v465z" />
    <glyph glyph-name="Udieresis" unicode="&#xdc;" horiz-adv-x="655" 
d="M513 898q0 -38 -26 -63.5t-64 -25.5q-37 0 -63 25.5t-26 63.5t26 63.5t63 25.5q38 0 64 -25.5t26 -63.5zM296 898q0 -38 -25.5 -63.5t-63.5 -25.5t-63.5 25.5t-25.5 63.5t25.5 63.5t63.5 25.5t63.5 -25.5t25.5 -63.5zM30 701h190v-465q0 -16 9 -28t23 -19t30 -10.5
t30 -3.5q18 0 34.5 3.5t29.5 10.5t21 19t8 28v465h190v-465q0 -56 -22.5 -102t-61 -79t-90 -51t-109.5 -18t-109 18t-89.5 51t-61 79t-22.5 102v465z" />
    <glyph glyph-name="Yacute" unicode="&#xdd;" horiz-adv-x="718" 
d="M411 976h185l-125 -144h-180zM249 229l-249 471h215l129 -244l129 244h215l-249 -471v-229h-190v229z" />
    <glyph glyph-name="Thorn" unicode="&#xde;" horiz-adv-x="602" 
d="M225 117v-117h-190v700h190v-100h85q50 0 94 -19t77 -51.5t52 -76.5t19 -94t-19 -94t-52 -77t-77 -52t-94 -19h-85zM310 297q26 0 44 18t18 44t-18 43.5t-44 17.5h-85v-123h85z" />
    <glyph glyph-name="germandbls" unicode="&#xdf;" horiz-adv-x="572" 
d="M248 437h36q18 0 29 12t11 32q0 21 -15 35t-38 14q-26 0 -43.5 -15t-17.5 -38v-477h-190v477q5 118 67.5 171t196.5 52q44 0 80.5 -16.5t63 -45.5t41.5 -69t15 -88q0 -60 -25 -108q29 -28 46 -66.5t17 -84.5q2 -51 -13 -92t-45 -70t-73.5 -44.5t-98.5 -15.5h-44v180h44
q70 2 70 42q-1 45 -78 45h-36v170z" />
    <glyph glyph-name="agrave" unicode="&#xe0;" horiz-adv-x="609" 
d="M259 787l120 -144h-180l-125 144h185zM378 15q-20 -14 -44 -22t-55 -8q-61 0 -109 19.5t-81.5 55t-51 84t-17.5 105.5q0 58 17.5 106.5t51 84t81.5 55.5t109 20q31 0 55 -8t44 -22v15h180v-500h-180v15zM284 151q43 0 68 27.5t25 72.5q0 44 -25 69.5t-68 25.5
q-19 0 -35 -7.5t-28 -21t-18.5 -31t-6.5 -37.5t6.5 -38t18.5 -31.5t28 -21t35 -7.5z" />
    <glyph glyph-name="aacute" unicode="&#xe1;" horiz-adv-x="609" 
d="M372 776h185l-125 -144h-180zM378 15q-20 -14 -44 -22t-55 -8q-61 0 -109 19.5t-81.5 55t-51 84t-17.5 105.5q0 58 17.5 106.5t51 84t81.5 55.5t109 20q31 0 55 -8t44 -22v15h180v-500h-180v15zM284 151q43 0 68 27.5t25 72.5q0 44 -25 69.5t-68 25.5q-19 0 -35 -7.5
t-28 -21t-18.5 -31t-6.5 -37.5t6.5 -38t18.5 -31.5t28 -21t35 -7.5z" />
    <glyph glyph-name="acircumflex" unicode="&#xe2;" horiz-adv-x="609" 
d="M376 626l-64 73l-61 -73h-105l88 144h156l91 -144h-105zM378 15q-20 -14 -44 -22t-55 -8q-61 0 -109 19.5t-81.5 55t-51 84t-17.5 105.5q0 58 17.5 106.5t51 84t81.5 55.5t109 20q31 0 55 -8t44 -22v15h180v-500h-180v15zM284 151q43 0 68 27.5t25 72.5q0 44 -25 69.5
t-68 25.5q-19 0 -35 -7.5t-28 -21t-18.5 -31t-6.5 -37.5t6.5 -38t18.5 -31.5t28 -21t35 -7.5z" />
    <glyph glyph-name="atilde" unicode="&#xe3;" horiz-adv-x="609" 
d="M361 640q-23 0 -39.5 6.5t-28.5 15t-22 15t-20 6.5t-17 -9t-7 -28h-89q0 69 30 101.5t88 32.5q23 0 39.5 -6.5t28.5 -15t22 -15t20 -6.5t17 9t7 28h89q0 -69 -30 -101.5t-88 -32.5zM378 15q-20 -14 -44 -22t-55 -8q-61 0 -109 19.5t-81.5 55t-51 84t-17.5 105.5
q0 58 17.5 106.5t51 84t81.5 55.5t109 20q31 0 55 -8t44 -22v15h180v-500h-180v15zM284 151q43 0 68 27.5t25 72.5q0 44 -25 69.5t-68 25.5q-19 0 -35 -7.5t-28 -21t-18.5 -31t-6.5 -37.5t6.5 -38t18.5 -31.5t28 -21t35 -7.5z" />
    <glyph glyph-name="adieresis" unicode="&#xe4;" horiz-adv-x="609" 
d="M511 698q0 -38 -26 -63.5t-64 -25.5q-37 0 -63 25.5t-26 63.5t26 63.5t63 25.5q38 0 64 -25.5t26 -63.5zM294 698q0 -38 -25.5 -63.5t-63.5 -25.5t-63.5 25.5t-25.5 63.5t25.5 63.5t63.5 25.5t63.5 -25.5t25.5 -63.5zM378 15q-20 -14 -44 -22t-55 -8q-61 0 -109 19.5
t-81.5 55t-51 84t-17.5 105.5q0 58 17.5 106.5t51 84t81.5 55.5t109 20q31 0 55 -8t44 -22v15h180v-500h-180v15zM284 151q43 0 68 27.5t25 72.5q0 44 -25 69.5t-68 25.5q-19 0 -35 -7.5t-28 -21t-18.5 -31t-6.5 -37.5t6.5 -38t18.5 -31.5t28 -21t35 -7.5z" />
    <glyph glyph-name="aring" unicode="&#xe5;" horiz-adv-x="609" 
d="M311 588q-23 0 -43.5 9t-35.5 24t-24 35.5t-9 43.5t9 43.5t24 35.5t35.5 24t43.5 9t43 -9t35 -24t23.5 -35.5t8.5 -43.5t-8.5 -43.5t-23.5 -35.5t-35 -24t-43 -9zM311 665q14 0 24 10.5t10 24.5t-10 24.5t-24 10.5t-24.5 -10.5t-10.5 -24.5t10.5 -24.5t24.5 -10.5z
M378 15q-20 -14 -44 -22t-55 -8q-61 0 -109 19.5t-81.5 55t-51 84t-17.5 105.5q0 58 17.5 106.5t51 84t81.5 55.5t109 20q31 0 55 -8t44 -22v15h180v-500h-180v15zM284 151q43 0 68 27.5t25 72.5q0 44 -25 69.5t-68 25.5q-19 0 -35 -7.5t-28 -21t-18.5 -31t-6.5 -37.5
t6.5 -38t18.5 -31.5t28 -21t35 -7.5z" />
    <glyph glyph-name="ae" unicode="&#xe6;" horiz-adv-x="901" 
d="M617 514q55 0 98.5 -20t73.5 -55.5t46 -83.5t16 -105q0 -33 -6 -62h-315q20 -29 45.5 -39.5t55.5 -10.5q21 0 42.5 7t36.5 24l126 -80q-37 -51 -86.5 -77t-121.5 -26q-65 0 -111.5 20.5t-76.5 56.5q-29 -35 -69 -56.5t-92 -21.5q-61 0 -109 19.5t-81.5 55t-51 84
t-17.5 105.5q0 58 17.5 106.5t51 84t81.5 55.5t109 20q51 0 91 -21.5t69 -56.5q30 36 74 56.5t104 20.5zM702 325q-5 18 -31.5 26.5t-56.5 8.5q-31 0 -58 -9t-29 -26h175zM284 151q43 0 68 27.5t25 72.5q0 44 -25 69.5t-68 25.5q-19 0 -35 -7.5t-28 -21t-18.5 -31
t-6.5 -37.5t6.5 -38t18.5 -31.5t28 -21t35 -7.5z" />
    <glyph glyph-name="ccedilla" unicode="&#xe7;" horiz-adv-x="537" 
d="M502 98q-31 -45 -76.5 -74t-100.5 -37l-22 -50q15 9 34 9q27 0 47.5 -20.5t20.5 -52.5q0 -43 -35 -66t-83 -23q-40 0 -71 10t-48 24l31 64q20 -14 41 -22t42 -8q16 0 29 5.5t13 18.5q0 17 -21 17q-16 0 -26 -12l-59 34l27 72q-48 7 -89 30.5t-71 58.5t-47.5 79.5
t-17.5 93.5q0 55 21 103t57 84t84 57t103 21q67 0 123.5 -31t92.5 -82l-149 -99q-32 32 -67 32t-60 -25t-25 -60t25 -60t60 -25q20 0 36.5 9t30.5 23z" />
    <glyph glyph-name="egrave" unicode="&#xe8;" horiz-adv-x="590" 
d="M235 801l120 -144h-180l-125 144h185zM286 514q55 0 101.5 -20t80.5 -55.5t53 -83.5t19 -105q0 -33 -6 -62h-335q20 -29 45.5 -39.5t55.5 -10.5q21 0 42.5 7t36.5 24l136 -80q-74 -103 -218 -103q-64 0 -115.5 20.5t-87.5 56t-55 83.5t-19 104t19.5 104t54.5 83.5t84 56
t108 20.5zM371 325q-5 18 -31.5 26.5t-56.5 8.5q-31 0 -58 -9t-29 -26h175z" />
    <glyph glyph-name="eacute" unicode="&#xe9;" horiz-adv-x="590" 
d="M348 790h185l-125 -144h-180zM286 514q55 0 101.5 -20t80.5 -55.5t53 -83.5t19 -105q0 -33 -6 -62h-335q20 -29 45.5 -39.5t55.5 -10.5q21 0 42.5 7t36.5 24l136 -80q-74 -103 -218 -103q-64 0 -115.5 20.5t-87.5 56t-55 83.5t-19 104t19.5 104t54.5 83.5t84 56t108 20.5
zM371 325q-5 18 -31.5 26.5t-56.5 8.5q-31 0 -58 -9t-29 -26h175z" />
    <glyph glyph-name="ecircumflex" unicode="&#xea;" horiz-adv-x="590" 
d="M352 640l-64 73l-61 -73h-105l88 144h156l91 -144h-105zM286 514q55 0 101.5 -20t80.5 -55.5t53 -83.5t19 -105q0 -33 -6 -62h-335q20 -29 45.5 -39.5t55.5 -10.5q21 0 42.5 7t36.5 24l136 -80q-74 -103 -218 -103q-64 0 -115.5 20.5t-87.5 56t-55 83.5t-19 104t19.5 104
t54.5 83.5t84 56t108 20.5zM371 325q-5 18 -31.5 26.5t-56.5 8.5q-31 0 -58 -9t-29 -26h175z" />
    <glyph glyph-name="edieresis" unicode="&#xeb;" horiz-adv-x="590" 
d="M487 712q0 -38 -26 -63.5t-64 -25.5q-37 0 -63 25.5t-26 63.5t26 63.5t63 25.5q38 0 64 -25.5t26 -63.5zM270 712q0 -38 -25.5 -63.5t-63.5 -25.5t-63.5 25.5t-25.5 63.5t25.5 63.5t63.5 25.5t63.5 -25.5t25.5 -63.5zM286 514q55 0 101.5 -20t80.5 -55.5t53 -83.5
t19 -105q0 -33 -6 -62h-335q20 -29 45.5 -39.5t55.5 -10.5q21 0 42.5 7t36.5 24l136 -80q-74 -103 -218 -103q-64 0 -115.5 20.5t-87.5 56t-55 83.5t-19 104t19.5 104t54.5 83.5t84 56t108 20.5zM371 325q-5 18 -31.5 26.5t-56.5 8.5q-31 0 -58 -9t-29 -26h175z" />
    <glyph glyph-name="igrave" unicode="&#xec;" horiz-adv-x="280" 
d="M75 787l120 -144h-180l-125 144h185zM35 500h180v-500h-180v500z" />
    <glyph glyph-name="iacute" unicode="&#xed;" horiz-adv-x="280" 
d="M188 776h185l-125 -144h-180zM35 500h180v-500h-180v500z" />
    <glyph glyph-name="icircumflex" unicode="&#xee;" horiz-adv-x="280" 
d="M192 626l-64 73l-61 -73h-105l88 144h156l91 -144h-105zM35 500h180v-500h-180v500z" />
    <glyph glyph-name="idieresis" unicode="&#xef;" horiz-adv-x="280" 
d="M327 698q0 -38 -26 -63.5t-64 -25.5q-37 0 -63 25.5t-26 63.5t26 63.5t63 25.5q38 0 64 -25.5t26 -63.5zM110 698q0 -38 -25.5 -63.5t-63.5 -25.5t-63.5 25.5t-25.5 63.5t25.5 63.5t63.5 25.5t63.5 -25.5t25.5 -63.5zM35 500h180v-500h-180v500z" />
    <glyph glyph-name="eth" unicode="&#xf0;" 
d="M315 700q9 -11 18 -21t17 -20l88 37l40 -63l-79 -33q37 -45 65 -86t47 -82t29 -85t10 -95q0 -55 -20.5 -104t-56.5 -85.5t-84.5 -57.5t-103.5 -21t-103 21t-84 57t-57 84t-21 103t21 103t57 84t84 57t103 21q25 0 44 -4q-6 12 -12.5 24t-14.5 25l-97 -41l-40 63l93 39
q-16 20 -33.5 39.5t-38.5 40.5h129zM285 164q35 0 60 25t25 60t-25 60t-60 25t-60 -25t-25 -60t25 -60t60 -25z" />
    <glyph glyph-name="ntilde" unicode="&#xf1;" horiz-adv-x="548" 
d="M319 640q-23 0 -39.5 6.5t-28.5 15t-22 15t-20 6.5t-17 -9t-7 -28h-89q0 69 30 101.5t88 32.5q23 0 39.5 -6.5t28.5 -15t22 -15t20 -6.5t17 9t7 28h89q0 -69 -30 -101.5t-88 -32.5zM498 0h-180v299q0 33 -19.5 46.5t-42.5 13.5q-26 0 -41 -18.5t-15 -59.5v-281h-180v500
h180v-21q22 16 48 26t55 10q27 0 61 -9t63.5 -33t50 -66t20.5 -108v-299z" />
    <glyph glyph-name="ograve" unicode="&#xf2;" 
d="M234 801l120 -144h-180l-125 144h185zM285 -16q-55 0 -103 21t-84 57t-57 84t-21 103t21 103t57 84t84 57t103 21t103 -21t84 -57t57 -84t21 -103t-21 -103t-57 -84t-84 -57t-103 -21zM285 164q35 0 60 25t25 60t-25 60t-60 25t-60 -25t-25 -60t25 -60t60 -25z" />
    <glyph glyph-name="oacute" unicode="&#xf3;" 
d="M347 790h185l-125 -144h-180zM285 -16q-55 0 -103 21t-84 57t-57 84t-21 103t21 103t57 84t84 57t103 21t103 -21t84 -57t57 -84t21 -103t-21 -103t-57 -84t-84 -57t-103 -21zM285 164q35 0 60 25t25 60t-25 60t-60 25t-60 -25t-25 -60t25 -60t60 -25z" />
    <glyph glyph-name="ocircumflex" unicode="&#xf4;" 
d="M351 640l-64 73l-61 -73h-105l88 144h156l91 -144h-105zM285 -16q-55 0 -103 21t-84 57t-57 84t-21 103t21 103t57 84t84 57t103 21t103 -21t84 -57t57 -84t21 -103t-21 -103t-57 -84t-84 -57t-103 -21zM285 164q35 0 60 25t25 60t-25 60t-60 25t-60 -25t-25 -60t25 -60
t60 -25z" />
    <glyph glyph-name="otilde" unicode="&#xf5;" 
d="M336 654q-23 0 -39.5 6.5t-28.5 15t-22 15t-20 6.5t-17 -9t-7 -28h-89q0 69 30 101.5t88 32.5q23 0 39.5 -6.5t28.5 -15t22 -15t20 -6.5t17 9t7 28h89q0 -69 -30 -101.5t-88 -32.5zM285 -16q-55 0 -103 21t-84 57t-57 84t-21 103t21 103t57 84t84 57t103 21t103 -21
t84 -57t57 -84t21 -103t-21 -103t-57 -84t-84 -57t-103 -21zM285 164q35 0 60 25t25 60t-25 60t-60 25t-60 -25t-25 -60t25 -60t60 -25z" />
    <glyph glyph-name="odieresis" unicode="&#xf6;" 
d="M486 712q0 -38 -26 -63.5t-64 -25.5q-37 0 -63 25.5t-26 63.5t26 63.5t63 25.5q38 0 64 -25.5t26 -63.5zM269 712q0 -38 -25.5 -63.5t-63.5 -25.5t-63.5 25.5t-25.5 63.5t25.5 63.5t63.5 25.5t63.5 -25.5t25.5 -63.5zM285 -16q-55 0 -103 21t-84 57t-57 84t-21 103
t21 103t57 84t84 57t103 21t103 -21t84 -57t57 -84t21 -103t-21 -103t-57 -84t-84 -57t-103 -21zM285 164q35 0 60 25t25 60t-25 60t-60 25t-60 -25t-25 -60t25 -60t60 -25z" />
    <glyph glyph-name="divide" unicode="&#xf7;" horiz-adv-x="511" 
d="M331 505q0 -32 -22 -54.5t-54 -22.5t-54 22.5t-22 54.5t22 53.5t54 21.5t54 -21.5t22 -53.5zM482 390v-105h-453v105h453zM331 170q0 -32 -22 -54t-54 -22t-54 22t-22 54t22 54t54 22t54 -22t22 -54z" />
    <glyph glyph-name="oslash" unicode="&#xf8;" 
d="M285 -16q-70 0 -129 34l-129 -144l-84 80l127 141q-24 32 -37 71.5t-13 82.5q0 55 21 103t57 84t84 57t103 21q36 0 69 -9t62 -26l127 141l84 -79l-125 -139q23 -33 35.5 -71.5t12.5 -81.5q0 -55 -21 -103t-57 -84t-84 -57t-103 -21zM285 334q-35 0 -60 -25t-25 -60v-9z
M288 164q35 2 58.5 26t23.5 59v6z" />
    <glyph glyph-name="ugrave" unicode="&#xf9;" horiz-adv-x="558" 
d="M222 787l120 -144h-180l-125 144h185zM30 500h180v-299q0 -33 19.5 -46.5t42.5 -13.5q26 0 41 18.5t15 59.5v281h180v-500h-180v21q-22 -16 -48 -26t-55 -10q-27 0 -61 9t-63.5 33t-50 66t-20.5 108v299z" />
    <glyph glyph-name="uacute" unicode="&#xfa;" horiz-adv-x="558" 
d="M335 776h185l-125 -144h-180zM30 500h180v-299q0 -33 19.5 -46.5t42.5 -13.5q26 0 41 18.5t15 59.5v281h180v-500h-180v21q-22 -16 -48 -26t-55 -10q-27 0 -61 9t-63.5 33t-50 66t-20.5 108v299z" />
    <glyph glyph-name="ucircumflex" unicode="&#xfb;" horiz-adv-x="558" 
d="M339 626l-64 73l-61 -73h-105l88 144h156l91 -144h-105zM30 500h180v-299q0 -33 19.5 -46.5t42.5 -13.5q26 0 41 18.5t15 59.5v281h180v-500h-180v21q-22 -16 -48 -26t-55 -10q-27 0 -61 9t-63.5 33t-50 66t-20.5 108v299z" />
    <glyph glyph-name="udieresis" unicode="&#xfc;" horiz-adv-x="558" 
d="M474 698q0 -38 -26 -63.5t-64 -25.5q-37 0 -63 25.5t-26 63.5t26 63.5t63 25.5q38 0 64 -25.5t26 -63.5zM257 698q0 -38 -25.5 -63.5t-63.5 -25.5t-63.5 25.5t-25.5 63.5t25.5 63.5t63.5 25.5t63.5 -25.5t25.5 -63.5zM30 500h180v-299q0 -33 19.5 -46.5t42.5 -13.5
q26 0 41 18.5t15 59.5v281h180v-500h-180v21q-22 -16 -48 -26t-55 -10q-27 0 -61 9t-63.5 33t-50 66t-20.5 108v299z" />
    <glyph glyph-name="yacute" unicode="&#xfd;" horiz-adv-x="586" 
d="M350 776h185l-125 -144h-180zM194 500l101 -225l73 225h189l-154 -476q-91 -241 -314 -224v174q47 -6 74.5 10.5t44.5 44.5l-208 471h194z" />
    <glyph glyph-name="thorn" unicode="&#xfe;" horiz-adv-x="607" 
d="M20 700h180v-215q20 14 44 21.5t54 7.5q61 0 109 -19.5t81.5 -55t51 -84t17.5 -105.5q0 -58 -17.5 -106.5t-51 -84t-81.5 -55.5t-109 -20q-30 0 -54 7.5t-44 21.5v-213h-180v900zM293 348q-43 0 -68 -27.5t-25 -72.5q0 -44 25 -69.5t68 -25.5q19 0 35 7.5t28 21t18.5 31
t6.5 37.5t-6.5 38t-18.5 31.5t-28 21t-35 7.5z" />
    <glyph glyph-name="ydieresis" unicode="&#xff;" horiz-adv-x="586" 
d="M489 698q0 -38 -26 -63.5t-64 -25.5q-37 0 -63 25.5t-26 63.5t26 63.5t63 25.5q38 0 64 -25.5t26 -63.5zM272 698q0 -38 -25.5 -63.5t-63.5 -25.5t-63.5 25.5t-25.5 63.5t25.5 63.5t63.5 25.5t63.5 -25.5t25.5 -63.5zM194 500l101 -225l73 225h189l-154 -476
q-91 -241 -314 -224v174q47 -6 74.5 10.5t44.5 44.5l-208 471h194z" />
    <glyph glyph-name="Amacron" unicode="&#x100;" horiz-adv-x="743" 
d="M170 801v97h363v-97h-363zM255 700h203l255 -700h-203l-41 113h-225l-41 -113h-203zM403 293l-46 128l-47 -128h93z" />
    <glyph glyph-name="amacron" unicode="&#x101;" horiz-adv-x="609" 
d="M122 601v97h363v-97h-363zM378 15q-20 -14 -44 -22t-55 -8q-61 0 -109 19.5t-81.5 55t-51 84t-17.5 105.5q0 58 17.5 106.5t51 84t81.5 55.5t109 20q31 0 55 -8t44 -22v15h180v-500h-180v15zM284 151q43 0 68 27.5t25 72.5q0 44 -25 69.5t-68 25.5q-19 0 -35 -7.5
t-28 -21t-18.5 -31t-6.5 -37.5t6.5 -38t18.5 -31.5t28 -21t35 -7.5z" />
    <glyph glyph-name="Abreve" unicode="&#x102;" horiz-adv-x="743" 
d="M531 907q-30 -41 -75.5 -64.5t-99.5 -23.5t-99.5 23.5t-76.5 64.5l76 62q17 -23 42 -38t58 -15q63 0 100 53zM255 700h203l255 -700h-203l-41 113h-225l-41 -113h-203zM403 293l-46 128l-47 -128h93z" />
    <glyph glyph-name="abreve" unicode="&#x103;" horiz-adv-x="609" 
d="M483 707q-30 -41 -75.5 -64.5t-99.5 -23.5t-99.5 23.5t-76.5 64.5l76 62q17 -23 42 -38t58 -15q63 0 100 53zM378 15q-20 -14 -44 -22t-55 -8q-61 0 -109 19.5t-81.5 55t-51 84t-17.5 105.5q0 58 17.5 106.5t51 84t81.5 55.5t109 20q31 0 55 -8t44 -22v15h180v-500h-180
v15zM284 151q43 0 68 27.5t25 72.5q0 44 -25 69.5t-68 25.5q-19 0 -35 -7.5t-28 -21t-18.5 -31t-6.5 -37.5t6.5 -38t18.5 -31.5t28 -21t35 -7.5z" />
    <glyph glyph-name="Aogonek" unicode="&#x104;" horiz-adv-x="743" 
d="M255 700h203l255 -700h-203l-41 113h-225l-41 -113h-43q-35 -19 -49 -40t-14 -43q0 -20 10 -27t19 -7q14 0 22 8.5t13 19.5l66 -43q-17 -25 -41.5 -39t-59.5 -14q-21 0 -41 5.5t-35.5 16.5t-24.5 29t-9 43q0 51 38 91h-54zM403 293l-46 128l-47 -128h93z" />
    <glyph glyph-name="aogonek" unicode="&#x105;" horiz-adv-x="609" 
d="M378 15q-20 -14 -44 -22t-55 -8q-61 0 -109 19.5t-81.5 55t-51 84t-17.5 105.5q0 58 17.5 106.5t51 84t81.5 55.5t109 20q31 0 55 -8t44 -22v15h180v-500h-30q-35 -19 -49 -40t-14 -43q0 -20 10 -27t19 -7q14 0 22 8.5t13 19.5l66 -43q-17 -25 -41.5 -39t-59.5 -14
q-21 0 -41 5.5t-35.5 16.5t-24.5 29t-9 43q0 51 38 91h-44v15zM284 151q43 0 68 27.5t25 72.5q0 44 -25 69.5t-68 25.5q-19 0 -35 -7.5t-28 -21t-18.5 -31t-6.5 -37.5t6.5 -38t18.5 -31.5t28 -21t35 -7.5z" />
    <glyph glyph-name="Cacute" unicode="&#x106;" horiz-adv-x="751" 
d="M453 984h185l-125 -144h-180zM30 347q0 75 28.5 140.5t77.5 114.5t114.5 77.5t140.5 28.5q51 0 98.5 -14t89 -39t74.5 -60t56 -77l-167 -90q-22 40 -62 65t-89 25q-35 0 -66 -13.5t-54.5 -36.5t-37 -54.5t-13.5 -66.5t13.5 -66t37 -54.5t54.5 -37t66 -13.5q50 0 90.5 26
t61.5 68l168 -91q-23 -43 -56.5 -78.5t-74.5 -61t-89 -39.5t-100 -14q-75 0 -140.5 28.5t-114.5 77.5t-77.5 114.5t-28.5 140.5z" />
    <glyph glyph-name="cacute" unicode="&#x107;" horiz-adv-x="537" 
d="M347 790h185l-125 -144h-180zM502 98q-36 -52 -92.5 -83t-124.5 -31q-55 0 -103 21t-84 57t-57 84t-21 103t21 103t57 84t84 57t103 21q67 0 123.5 -31t92.5 -82l-149 -99q-32 32 -67 32t-60 -25t-25 -60t25 -60t60 -25q20 0 36.5 9t30.5 23z" />
    <glyph glyph-name="Cdotaccent" unicode="&#x10a;" horiz-adv-x="751" 
d="M396 798q-37 0 -63 26t-26 63t26 63t63 26q18 0 34 -7t28 -19t19 -28.5t7 -34.5t-7 -34.5t-19 -28.5t-28 -19t-34 -7zM30 347q0 75 28.5 140.5t77.5 114.5t114.5 77.5t140.5 28.5q51 0 98.5 -14t89 -39t74.5 -60t56 -77l-167 -90q-22 40 -62 65t-89 25q-35 0 -66 -13.5
t-54.5 -36.5t-37 -54.5t-13.5 -66.5t13.5 -66t37 -54.5t54.5 -37t66 -13.5q50 0 90.5 26t61.5 68l168 -91q-23 -43 -56.5 -78.5t-74.5 -61t-89 -39.5t-100 -14q-75 0 -140.5 28.5t-114.5 77.5t-77.5 114.5t-28.5 140.5z" />
    <glyph glyph-name="cdotaccent" unicode="&#x10b;" horiz-adv-x="537" 
d="M290 604q-37 0 -63 26t-26 63t26 63t63 26q18 0 34 -7t28 -19t19 -28.5t7 -34.5t-7 -34.5t-19 -28.5t-28 -19t-34 -7zM502 98q-36 -52 -92.5 -83t-124.5 -31q-55 0 -103 21t-84 57t-57 84t-21 103t21 103t57 84t84 57t103 21q67 0 123.5 -31t92.5 -82l-149 -99
q-32 32 -67 32t-60 -25t-25 -60t25 -60t60 -25q20 0 36.5 9t30.5 23z" />
    <glyph glyph-name="Ccaron" unicode="&#x10c;" horiz-adv-x="751" 
d="M310 834l-91 144h105l64 -73l61 73h105l-88 -144h-156zM30 347q0 75 28.5 140.5t77.5 114.5t114.5 77.5t140.5 28.5q51 0 98.5 -14t89 -39t74.5 -60t56 -77l-167 -90q-22 40 -62 65t-89 25q-35 0 -66 -13.5t-54.5 -36.5t-37 -54.5t-13.5 -66.5t13.5 -66t37 -54.5
t54.5 -37t66 -13.5q50 0 90.5 26t61.5 68l168 -91q-23 -43 -56.5 -78.5t-74.5 -61t-89 -39.5t-100 -14q-75 0 -140.5 28.5t-114.5 77.5t-77.5 114.5t-28.5 140.5z" />
    <glyph glyph-name="ccaron" unicode="&#x10d;" horiz-adv-x="537" 
d="M204 640l-91 144h105l64 -73l61 73h105l-88 -144h-156zM502 98q-36 -52 -92.5 -83t-124.5 -31q-55 0 -103 21t-84 57t-57 84t-21 103t21 103t57 84t84 57t103 21q67 0 123.5 -31t92.5 -82l-149 -99q-32 32 -67 32t-60 -25t-25 -60t25 -60t60 -25q20 0 36.5 9t30.5 23z
" />
    <glyph glyph-name="Dcaron" unicode="&#x10e;" horiz-adv-x="764" 
d="M262 826l-91 144h105l64 -73l61 73h105l-88 -144h-156zM35 700h308q75 0 140.5 -27t114.5 -74.5t77.5 -112t28.5 -139.5t-28.5 -138.5t-77.5 -110t-114.5 -72.5t-140.5 -26h-308v700zM225 520v-340h118q35 0 66.5 13t54.5 36t36.5 54t13.5 66t-13.5 66.5t-36.5 54.5
t-54.5 36.5t-66.5 13.5h-118z" />
    <glyph glyph-name="dcaron" unicode="&#x10f;" horiz-adv-x="607" 
d="M216 738l-91 144h105l64 -73l61 73h105l-88 -144h-156zM557 0h-180v14q-20 -14 -44 -21.5t-54 -7.5q-61 0 -109 19.5t-81.5 55t-51 84t-17.5 105.5q0 58 17.5 106.5t51 84t81.5 55.5t109 20q30 0 54 -7.5t44 -21.5v214h180v-700zM284 151q43 0 68 27.5t25 72.5
q0 44 -25 69.5t-68 25.5q-19 0 -35 -7.5t-28 -21t-18.5 -31t-6.5 -37.5t6.5 -38t18.5 -31.5t28 -21t35 -7.5z" />
    <glyph glyph-name="Dcroat" unicode="&#x110;" horiz-adv-x="764" 
d="M35 263h-73v176h73v261h308q75 0 140.5 -27t114.5 -74.5t77.5 -112t28.5 -139.5t-28.5 -138.5t-77.5 -110t-114.5 -72.5t-140.5 -26h-308v263zM225 520v-81h131v-176h-131v-83h118q35 0 66.5 13t54.5 36t36.5 54t13.5 66t-13.5 66.5t-36.5 54.5t-54.5 36.5t-66.5 13.5
h-118z" />
    <glyph glyph-name="dcroat" unicode="&#x111;" horiz-adv-x="607" 
d="M557 660h106v-176h-106v-484h-180v14q-20 -14 -44 -21.5t-54 -7.5q-61 0 -109 19.5t-81.5 55t-51 84t-17.5 105.5t17 105t49 83t78.5 55.5t104.5 22.5v145h108v40h180v-40zM284 151q43 0 68 27.5t25 72.5q0 44 -25 69.5t-68 25.5q-19 0 -35 -7.5t-28 -21t-18.5 -31
t-6.5 -37.5t6.5 -38t18.5 -31.5t28 -21t35 -7.5z" />
    <glyph glyph-name="Emacron" unicode="&#x112;" horiz-adv-x="534" 
d="M75 796v97h363v-97h-363zM30 700h449v-180h-259v-72h234v-180h-234v-88h264v-180h-454v700z" />
    <glyph glyph-name="emacron" unicode="&#x113;" horiz-adv-x="590" 
d="M98 615v97h363v-97h-363zM286 514q55 0 101.5 -20t80.5 -55.5t53 -83.5t19 -105q0 -33 -6 -62h-335q20 -29 45.5 -39.5t55.5 -10.5q21 0 42.5 7t36.5 24l136 -80q-74 -103 -218 -103q-64 0 -115.5 20.5t-87.5 56t-55 83.5t-19 104t19.5 104t54.5 83.5t84 56t108 20.5z
M371 325q-5 18 -31.5 26.5t-56.5 8.5q-31 0 -58 -9t-29 -26h175z" />
    <glyph glyph-name="Edotaccent" unicode="&#x116;" horiz-adv-x="534" 
d="M268 785q-37 0 -63 26t-26 63t26 63t63 26q18 0 34 -7t28 -19t19 -28.5t7 -34.5t-7 -34.5t-19 -28.5t-28 -19t-34 -7zM30 700h449v-180h-259v-72h234v-180h-234v-88h264v-180h-454v700z" />
    <glyph glyph-name="edotaccent" unicode="&#x117;" horiz-adv-x="590" 
d="M291 604q-37 0 -63 26t-26 63t26 63t63 26q18 0 34 -7t28 -19t19 -28.5t7 -34.5t-7 -34.5t-19 -28.5t-28 -19t-34 -7zM286 514q55 0 101.5 -20t80.5 -55.5t53 -83.5t19 -105q0 -33 -6 -62h-335q20 -29 45.5 -39.5t55.5 -10.5q21 0 42.5 7t36.5 24l136 -80
q-74 -103 -218 -103q-64 0 -115.5 20.5t-87.5 56t-55 83.5t-19 104t19.5 104t54.5 83.5t84 56t108 20.5zM371 325q-5 18 -31.5 26.5t-56.5 8.5q-31 0 -58 -9t-29 -26h175z" />
    <glyph glyph-name="Eogonek" unicode="&#x118;" horiz-adv-x="534" 
d="M30 700h449v-180h-259v-72h234v-180h-234v-88h264v-180h-338q-37 -19 -51 -40.5t-14 -43.5q0 -20 10 -27t19 -7q14 0 22 8.5t13 19.5l66 -43q-17 -25 -41.5 -39t-59.5 -14q-21 0 -41 5.5t-35.5 16.5t-24.5 29t-9 43q0 53 39 92h-9v700z" />
    <glyph glyph-name="eogonek" unicode="&#x119;" horiz-adv-x="590" 
d="M286 514q55 0 101.5 -20t80.5 -55.5t53 -83.5t19 -105q0 -33 -6 -62h-335q20 -29 45.5 -39.5t55.5 -10.5q21 0 42.5 7t36.5 24l136 -80q-59 -83 -169 -100q-34 -18 -47 -39t-13 -42q0 -20 10 -27t19 -7q14 0 22 8.5t13 19.5l66 -43q-17 -25 -41.5 -39t-59.5 -14
q-21 0 -41 5.5t-35.5 16.5t-24.5 29t-9 43q0 51 37 90q-52 8 -93 31t-69.5 57.5t-44 78.5t-15.5 93q0 56 19.5 104t54.5 83.5t84 56t108 20.5zM371 325q-5 18 -31.5 26.5t-56.5 8.5q-31 0 -58 -9t-29 -26h175z" />
    <glyph glyph-name="Ecaron" unicode="&#x11a;" horiz-adv-x="534" 
d="M182 821l-91 144h105l64 -73l61 73h105l-88 -144h-156zM30 700h449v-180h-259v-72h234v-180h-234v-88h264v-180h-454v700z" />
    <glyph glyph-name="ecaron" unicode="&#x11b;" horiz-adv-x="590" 
d="M205 640l-91 144h105l64 -73l61 73h105l-88 -144h-156zM286 514q55 0 101.5 -20t80.5 -55.5t53 -83.5t19 -105q0 -33 -6 -62h-335q20 -29 45.5 -39.5t55.5 -10.5q21 0 42.5 7t36.5 24l136 -80q-74 -103 -218 -103q-64 0 -115.5 20.5t-87.5 56t-55 83.5t-19 104t19.5 104
t54.5 83.5t84 56t108 20.5zM371 325q-5 18 -31.5 26.5t-56.5 8.5q-31 0 -58 -9t-29 -26h175z" />
    <glyph glyph-name="Gbreve" unicode="&#x11e;" horiz-adv-x="809" 
d="M564 915q-30 -41 -75.5 -64.5t-99.5 -23.5t-99.5 23.5t-76.5 64.5l76 62q17 -23 42 -38t58 -15q63 0 100 53zM30 347q0 75 28.5 140.5t77.5 114.5t114.5 77.5t140.5 28.5q87 0 160 -37t123 -100l-149 -118q-23 29 -58 47t-76 18q-35 0 -66 -13.5t-54.5 -36.5t-37 -54.5
t-13.5 -66.5t13.5 -66t37 -54.5t54.5 -37t66 -13.5q34 0 62.5 12t51.5 33h-148v180h392v-74q0 -70 -29 -132.5t-78 -108.5t-114 -73t-137 -27q-75 0 -140.5 28.5t-114.5 77.5t-77.5 114.5t-28.5 140.5z" />
    <glyph glyph-name="gbreve" unicode="&#x11f;" horiz-adv-x="641" 
d="M501 707q-30 -41 -75.5 -64.5t-99.5 -23.5t-99.5 23.5t-76.5 64.5l76 62q17 -23 42 -38t58 -15q63 0 100 53zM174 -4q11 -20 45 -32t76 -12t70.5 17t34.5 44q-20 -13 -44 -20.5t-53 -7.5q-61 0 -109 19.5t-81.5 55t-51 84t-17.5 105.5q0 58 17.5 106.5t51 84t81.5 55.5
t109 20q30 0 54 -7.5t44 -21.5v14h180v-475q0 -52 -21.5 -96t-60.5 -75.5t-92.5 -49.5t-116.5 -18q-44 0 -86 9t-78 25t-63.5 38.5t-42.5 48.5zM308 151q43 0 68 27.5t25 72.5q0 44 -25 69.5t-68 25.5q-19 0 -35 -7.5t-28 -21t-18.5 -31t-6.5 -37.5t6.5 -38t18.5 -31.5
t28 -21t35 -7.5z" />
    <glyph glyph-name="Gdotaccent" unicode="&#x120;" horiz-adv-x="809" 
d="M396 798q-37 0 -63 26t-26 63t26 63t63 26q18 0 34 -7t28 -19t19 -28.5t7 -34.5t-7 -34.5t-19 -28.5t-28 -19t-34 -7zM30 347q0 75 28.5 140.5t77.5 114.5t114.5 77.5t140.5 28.5q87 0 160 -37t123 -100l-149 -118q-23 29 -58 47t-76 18q-35 0 -66 -13.5t-54.5 -36.5
t-37 -54.5t-13.5 -66.5t13.5 -66t37 -54.5t54.5 -37t66 -13.5q34 0 62.5 12t51.5 33h-148v180h392v-74q0 -70 -29 -132.5t-78 -108.5t-114 -73t-137 -27q-75 0 -140.5 28.5t-114.5 77.5t-77.5 114.5t-28.5 140.5z" />
    <glyph glyph-name="gdotaccent" unicode="&#x121;" horiz-adv-x="641" 
d="M333 590q-37 0 -63 26t-26 63t26 63t63 26q18 0 34 -7t28 -19t19 -28.5t7 -34.5t-7 -34.5t-19 -28.5t-28 -19t-34 -7zM174 -4q11 -20 45 -32t76 -12t70.5 17t34.5 44q-20 -13 -44 -20.5t-53 -7.5q-61 0 -109 19.5t-81.5 55t-51 84t-17.5 105.5q0 58 17.5 106.5t51 84
t81.5 55.5t109 20q30 0 54 -7.5t44 -21.5v14h180v-475q0 -52 -21.5 -96t-60.5 -75.5t-92.5 -49.5t-116.5 -18q-44 0 -86 9t-78 25t-63.5 38.5t-42.5 48.5zM308 151q43 0 68 27.5t25 72.5q0 44 -25 69.5t-68 25.5q-19 0 -35 -7.5t-28 -21t-18.5 -31t-6.5 -37.5t6.5 -38
t18.5 -31.5t28 -21t35 -7.5z" />
    <glyph glyph-name="uni0122" unicode="&#x122;" horiz-adv-x="809" 
d="M30 347q0 75 28.5 140.5t77.5 114.5t114.5 77.5t140.5 28.5q87 0 160 -37t123 -100l-149 -118q-23 29 -58 47t-76 18q-35 0 -66 -13.5t-54.5 -36.5t-37 -54.5t-13.5 -66.5t13.5 -66t37 -54.5t54.5 -37t66 -13.5q34 0 62.5 12t51.5 33h-148v180h392v-74q0 -70 -29 -132.5
t-78 -108.5t-114 -73t-137 -27q-75 0 -140.5 28.5t-114.5 77.5t-77.5 114.5t-28.5 140.5zM293 -87h183v-186l-112 -134l-51 43l39 91h-59v186z" />
    <glyph glyph-name="uni0123" unicode="&#x123;" horiz-adv-x="641" 
d="M232 548h-183v186l112 134l51 -43l-39 -91h59v-186zM174 -4q11 -20 45 -32t76 -12t70.5 17t34.5 44q-20 -13 -44 -20.5t-53 -7.5q-61 0 -109 19.5t-81.5 55t-51 84t-17.5 105.5q0 58 17.5 106.5t51 84t81.5 55.5t109 20q30 0 54 -7.5t44 -21.5v14h180v-475
q0 -52 -21.5 -96t-60.5 -75.5t-92.5 -49.5t-116.5 -18q-44 0 -86 9t-78 25t-63.5 38.5t-42.5 48.5zM308 151q43 0 68 27.5t25 72.5q0 44 -25 69.5t-68 25.5q-19 0 -35 -7.5t-28 -21t-18.5 -31t-6.5 -37.5t6.5 -38t18.5 -31.5t28 -21t35 -7.5z" />
    <glyph glyph-name="Hbar" unicode="&#x126;" horiz-adv-x="740" 
d="M35 512h-38v114h38v74h190v-74h260v74h190v-74h50v-114h-50v-512h-190v268h-260v-268h-190v512zM485 448v64h-260v-64h260z" />
    <glyph glyph-name="hbar" unicode="&#x127;" horiz-adv-x="548" 
d="M20 465h-89v176h89v59h180v-59h125v-132q27 -3 57 -14.5t55.5 -35.5t42.5 -63t18 -97v-299h-180v294q0 33 -19.5 46.5t-42.5 13.5q-26 0 -41 -18.5t-15 -59.5v-276h-180v465z" />
    <glyph glyph-name="Imacron" unicode="&#x12a;" horiz-adv-x="290" 
d="M-55 801v97h363v-97h-363zM35 700h190v-700h-190v700z" />
    <glyph glyph-name="imacron" unicode="&#x12b;" horiz-adv-x="280" 
d="M-62 601v97h363v-97h-363zM35 500h180v-500h-180v500z" />
    <glyph glyph-name="Iogonek" unicode="&#x12e;" horiz-adv-x="290" 
d="M35 700h190v-700h-79q-37 -19 -51 -40.5t-14 -43.5q0 -20 10 -27t19 -7q14 0 22 8.5t13 19.5l66 -43q-17 -25 -41.5 -39t-59.5 -14q-21 0 -41 5.5t-35.5 16.5t-24.5 29t-9 43q0 53 39 92h-4v700z" />
    <glyph glyph-name="iogonek" unicode="&#x12f;" horiz-adv-x="280" 
d="M131 590q-37 0 -63 26t-26 63t26 63t63 26q18 0 34 -7t28 -19t19 -28.5t7 -34.5t-7 -34.5t-19 -28.5t-28 -19t-34 -7zM35 500h180v-500h-69q-37 -19 -51 -40.5t-14 -43.5q0 -20 10 -27t19 -7q14 0 22 8.5t13 19.5l66 -43q-17 -25 -41.5 -39t-59.5 -14q-21 0 -41 5.5
t-35.5 16.5t-24.5 29t-9 43q0 53 39 92h-4v500z" />
    <glyph glyph-name="Idotaccent" unicode="&#x130;" horiz-adv-x="290" 
d="M138 790q-37 0 -63 26t-26 63t26 63t63 26q18 0 34 -7t28 -19t19 -28.5t7 -34.5t-7 -34.5t-19 -28.5t-28 -19t-34 -7zM35 700h190v-700h-190v700z" />
    <glyph glyph-name="dotlessi" unicode="&#x131;" horiz-adv-x="280" 
d="M35 500h180v-500h-180v500z" />
    <glyph glyph-name="uni0136" unicode="&#x136;" horiz-adv-x="722" 
d="M455 0l-169 228l-61 -78v-150h-190v700h190v-242l189 242h241l-248 -317l285 -383h-237zM243 -73h183v-186l-112 -134l-51 43l39 91h-59v186z" />
    <glyph glyph-name="uni0137" unicode="&#x137;" horiz-adv-x="610" 
d="M20 700h180v-343l123 143h251l-199 -218l205 -282h-223l-105 147l-52 -57v-90h-180v700zM49 -76h183v-186l-112 -134l-51 43l39 91h-59v186z" />
    <glyph glyph-name="Lacute" unicode="&#x139;" horiz-adv-x="526" 
d="M188 976h185l-125 -144h-180zM35 700h190v-520h261v-180h-451v700z" />
    <glyph glyph-name="lacute" unicode="&#x13a;" horiz-adv-x="315" 
d="M176 976h185l-125 -144h-180zM265 0q-25 -4 -47.5 -6t-42.5 -2q-37 0 -66 8.5t-49 30t-30 58t-10 91.5v520h180v-507q0 -21 13.5 -27t51.5 -1v-165z" />
    <glyph glyph-name="uni013B" unicode="&#x13b;" horiz-adv-x="526" 
d="M35 700h190v-520h261v-180h-451v700zM169 -73h183v-186l-112 -134l-51 43l39 91h-59v186z" />
    <glyph glyph-name="uni013C" unicode="&#x13c;" horiz-adv-x="315" 
d="M265 0q-25 -4 -47.5 -6t-42.5 -2q-37 0 -66 8.5t-49 30t-30 58t-10 91.5v520h180v-507q0 -21 13.5 -27t51.5 -1v-165zM44 -73h183v-186l-112 -134l-51 43l39 91h-59v186z" />
    <glyph glyph-name="Lcaron" unicode="&#x13d;" horiz-adv-x="526" 
d="M45 826l-91 144h105l64 -73l61 73h105l-88 -144h-156zM35 700h190v-520h261v-180h-451v700z" />
    <glyph glyph-name="lcaron" unicode="&#x13e;" horiz-adv-x="315" 
d="M33 826l-91 144h105l64 -73l61 73h105l-88 -144h-156zM265 0q-25 -4 -47.5 -6t-42.5 -2q-37 0 -66 8.5t-49 30t-30 58t-10 91.5v520h180v-507q0 -21 13.5 -27t51.5 -1v-165z" />
    <glyph glyph-name="Lslash" unicode="&#x141;" horiz-adv-x="526" 
d="M35 194l-43 -33l-121 122l164 128v289h190v-141l57 44l121 -122l-178 -139v-162h261v-180h-451v194z" />
    <glyph glyph-name="lslash" unicode="&#x142;" horiz-adv-x="315" 
d="M265 0q-25 -4 -47.5 -6t-42.5 -2q-37 0 -66 8.5t-49 30t-30 58t-10 91.5v30l-52 -40l-121 122l173 135v273h180v-133l58 45l121 -122l-179 -139v-158q0 -21 13.5 -27t51.5 -1v-165z" />
    <glyph glyph-name="Nacute" unicode="&#x143;" horiz-adv-x="680" 
d="M392 976h185l-125 -144h-180zM35 700h190l200 -314v314h190v-700h-158l-232 365v-365h-190v700z" />
    <glyph glyph-name="nacute" unicode="&#x144;" horiz-adv-x="548" 
d="M330 776h185l-125 -144h-180zM498 0h-180v299q0 33 -19.5 46.5t-42.5 13.5q-26 0 -41 -18.5t-15 -59.5v-281h-180v500h180v-21q22 16 48 26t55 10q27 0 61 -9t63.5 -33t50 -66t20.5 -108v-299z" />
    <glyph glyph-name="uni0145" unicode="&#x145;" horiz-adv-x="680" 
d="M35 700h190l200 -314v314h190v-700h-158l-232 365v-365h-190v700zM242 -73h183v-186l-112 -134l-51 43l39 91h-59v186z" />
    <glyph glyph-name="uni0146" unicode="&#x146;" horiz-adv-x="548" 
d="M498 0h-180v299q0 33 -19.5 46.5t-42.5 13.5q-26 0 -41 -18.5t-15 -59.5v-281h-180v500h180v-21q22 16 48 26t55 10q27 0 61 -9t63.5 -33t50 -66t20.5 -108v-299zM166 -73h183v-186l-112 -134l-51 43l39 91h-59v186z" />
    <glyph glyph-name="Ncaron" unicode="&#x147;" horiz-adv-x="680" 
d="M249 826l-91 144h105l64 -73l61 73h105l-88 -144h-156zM35 700h190l200 -314v314h190v-700h-158l-232 365v-365h-190v700z" />
    <glyph glyph-name="ncaron" unicode="&#x148;" horiz-adv-x="548" 
d="M187 626l-91 144h105l64 -73l61 73h105l-88 -144h-156zM498 0h-180v299q0 33 -19.5 46.5t-42.5 13.5q-26 0 -41 -18.5t-15 -59.5v-281h-180v500h180v-21q22 16 48 26t55 10q27 0 61 -9t63.5 -33t50 -66t20.5 -108v-299z" />
    <glyph glyph-name="Eng" unicode="&#x14a;" horiz-adv-x="680" 
d="M435 35l-210 330v-365h-190v700h190l200 -314v314h190v-700q0 -53 -20 -94.5t-54.5 -69t-82 -41t-103.5 -9.5v174q42 -2 61 4t19 36v35z" />
    <glyph glyph-name="eng" unicode="&#x14b;" horiz-adv-x="548" 
d="M318 299q0 33 -19.5 46.5t-42.5 13.5q-26 0 -41 -18.5t-15 -59.5v-281h-180v500h180v-21q22 16 48 26t55 10q27 0 61 -9t63.5 -33t50 -66t20.5 -108v-299q0 -53 -20 -94.5t-54.5 -69t-82 -41t-103.5 -9.5v174q42 -2 61 4t19 36v299z" />
    <glyph glyph-name="Omacron" unicode="&#x14c;" horiz-adv-x="812" 
d="M203 809v97h363v-97h-363zM391 -14q-75 0 -140.5 28.5t-114.5 77.5t-77.5 114.5t-28.5 140.5t28.5 140.5t77.5 114.5t114.5 77.5t140.5 28.5t140.5 -28.5t114.5 -77.5t77.5 -114.5t28.5 -140.5t-28.5 -140.5t-77.5 -114.5t-114.5 -77.5t-140.5 -28.5zM391 176
q35 0 66.5 13.5t54.5 37t36.5 54.5t13.5 66t-13.5 66.5t-36.5 54.5t-54.5 36.5t-66.5 13.5t-66 -13.5t-54.5 -36.5t-37 -54.5t-13.5 -66.5t13.5 -66t37 -54.5t54.5 -37t66 -13.5z" />
    <glyph glyph-name="omacron" unicode="&#x14d;" 
d="M97 615v97h363v-97h-363zM285 -16q-55 0 -103 21t-84 57t-57 84t-21 103t21 103t57 84t84 57t103 21t103 -21t84 -57t57 -84t21 -103t-21 -103t-57 -84t-84 -57t-103 -21zM285 164q35 0 60 25t25 60t-25 60t-60 25t-60 -25t-25 -60t25 -60t60 -25z" />
    <glyph glyph-name="Ohungarumlaut" unicode="&#x150;" horiz-adv-x="812" 
d="M326 988h135l-115 -144h-100zM482 988h135l-115 -144h-100zM391 -14q-75 0 -140.5 28.5t-114.5 77.5t-77.5 114.5t-28.5 140.5t28.5 140.5t77.5 114.5t114.5 77.5t140.5 28.5t140.5 -28.5t114.5 -77.5t77.5 -114.5t28.5 -140.5t-28.5 -140.5t-77.5 -114.5t-114.5 -77.5
t-140.5 -28.5zM391 176q35 0 66.5 13.5t54.5 37t36.5 54.5t13.5 66t-13.5 66.5t-36.5 54.5t-54.5 36.5t-66.5 13.5t-66 -13.5t-54.5 -36.5t-37 -54.5t-13.5 -66.5t13.5 -66t37 -54.5t54.5 -37t66 -13.5z" />
    <glyph glyph-name="ohungarumlaut" unicode="&#x151;" 
d="M220 794h135l-115 -144h-100zM376 794h135l-115 -144h-100zM285 -16q-55 0 -103 21t-84 57t-57 84t-21 103t21 103t57 84t84 57t103 21t103 -21t84 -57t57 -84t21 -103t-21 -103t-57 -84t-84 -57t-103 -21zM285 164q35 0 60 25t25 60t-25 60t-60 25t-60 -25t-25 -60
t25 -60t60 -25z" />
    <glyph glyph-name="OE" unicode="&#x152;" horiz-adv-x="1006" 
d="M361 -14q-75 0 -136 28.5t-104.5 77.5t-67 114.5t-23.5 140.5t23.5 140.5t67 114.5t104.5 77.5t136 28.5q76 0 141 -31v23h449v-180h-259v-72h234v-180h-234v-88h264v-180h-454v17q-65 -31 -141 -31zM361 176q35 0 61.5 13.5t44 37t26.5 54.5t9 66t-9 66.5t-26.5 54.5
t-44 36.5t-61.5 13.5t-61.5 -13.5t-44 -36.5t-26.5 -54.5t-9 -66.5t9 -66t26.5 -54.5t44 -37t61.5 -13.5z" />
    <glyph glyph-name="oe" unicode="&#x153;" horiz-adv-x="921" 
d="M637 514q55 0 98.5 -20t73.5 -55.5t46 -83.5t16 -105q0 -33 -6 -62h-315q20 -29 45.5 -39.5t55.5 -10.5q21 0 42.5 7t36.5 24l126 -80q-37 -51 -86.5 -77t-121.5 -26q-64 0 -110 20t-76 55q-32 -33 -74 -54.5t-93 -21.5q-61 0 -111.5 19.5t-87 55t-56.5 84t-20 105.5
q0 58 20 106.5t56.5 84t87 55.5t111.5 20q51 0 92.5 -21.5t73.5 -54.5q29 35 73 55t103 20zM722 325q-5 18 -31.5 26.5t-56.5 8.5q-31 0 -58 -9t-29 -26h175zM294 151q43 0 73 27.5t30 72.5q0 44 -30 69.5t-73 25.5q-19 0 -37 -7.5t-31.5 -21t-21.5 -31t-8 -37.5t8 -38
t21.5 -31.5t31.5 -21t37 -7.5z" />
    <glyph glyph-name="Racute" unicode="&#x154;" horiz-adv-x="661" 
d="M348 976h185l-125 -144h-180zM30 700h302q50 0 94 -19t77 -51.5t52 -76.5t19 -94q0 -62 -27.5 -113.5t-75.5 -84.5l145 -261h-218l-119 217h-59v-217h-190v700zM332 397q26 0 44 18t18 44t-18 43.5t-44 17.5h-112v-123h112z" />
    <glyph glyph-name="racute" unicode="&#x155;" horiz-adv-x="402" 
d="M262 776h185l-125 -144h-180zM356 330q-11 4 -26 4q-31 0 -55.5 -9.5t-41 -24.5t-25 -34.5t-8.5 -39.5v-226h-180v500h180v-89q24 51 69 70t98 19z" />
    <glyph glyph-name="uni0156" unicode="&#x156;" horiz-adv-x="661" 
d="M30 700h302q50 0 94 -19t77 -51.5t52 -76.5t19 -94q0 -62 -27.5 -113.5t-75.5 -84.5l145 -261h-218l-119 217h-59v-217h-190v700zM332 397q26 0 44 18t18 44t-18 43.5t-44 17.5h-112v-123h112zM209 -73h183v-186l-112 -134l-51 43l39 91h-59v186z" />
    <glyph glyph-name="uni0157" unicode="&#x157;" horiz-adv-x="402" 
d="M356 330q-11 4 -26 4q-31 0 -55.5 -9.5t-41 -24.5t-25 -34.5t-8.5 -39.5v-226h-180v500h180v-89q24 51 69 70t98 19zM16 -73h183v-186l-112 -134l-51 43l39 91h-59v186z" />
    <glyph glyph-name="Rcaron" unicode="&#x158;" horiz-adv-x="661" 
d="M205 826l-91 144h105l64 -73l61 73h105l-88 -144h-156zM30 700h302q50 0 94 -19t77 -51.5t52 -76.5t19 -94q0 -62 -27.5 -113.5t-75.5 -84.5l145 -261h-218l-119 217h-59v-217h-190v700zM332 397q26 0 44 18t18 44t-18 43.5t-44 17.5h-112v-123h112z" />
    <glyph glyph-name="rcaron" unicode="&#x159;" horiz-adv-x="402" 
d="M119 626l-91 144h105l64 -73l61 73h105l-88 -144h-156zM356 330q-11 4 -26 4q-31 0 -55.5 -9.5t-41 -24.5t-25 -34.5t-8.5 -39.5v-226h-180v500h180v-89q24 51 69 70t98 19z" />
    <glyph glyph-name="Sacute" unicode="&#x15a;" horiz-adv-x="672" 
d="M376 990h185l-125 -144h-180zM333 -14q-128 0 -208.5 47.5t-114.5 125.5l184 93q22 -44 55.5 -62t88.5 -18q19 0 36 4t29.5 10.5t20 13.5t7.5 13q0 12 -6.5 20t-23 14t-46 13t-74.5 18t-87.5 28.5t-76 44t-53.5 63.5t-20 87q0 51 22.5 90.5t60 66.5t86.5 41.5t101 14.5
q100 0 175 -40t120 -118l-188 -95q-21 38 -46.5 51.5t-60.5 13.5q-28 0 -50 -8t-22 -21q0 -10 4.5 -16.5t18.5 -12t40 -12.5t68 -18q46 -12 92 -29t83 -43t60.5 -64.5t23.5 -94.5q0 -51 -23.5 -91.5t-64 -69.5t-95 -44.5t-116.5 -15.5z" />
    <glyph glyph-name="sacute" unicode="&#x15b;" horiz-adv-x="537" 
d="M316 790h185l-125 -144h-180zM216 354q0 -12 20 -17t50 -10t65.5 -13.5t65.5 -26.5t50 -49.5t20 -83.5q0 -43 -20.5 -74.5t-54 -52.5t-76 -31t-86.5 -10q-82 0 -142.5 29t-92.5 90l146 75q11 -29 33.5 -41t55.5 -12q22 0 42.5 5.5t20.5 20.5q0 12 -20.5 18.5t-51.5 12.5
t-67 15.5t-67 27t-51.5 46.5t-20.5 75q0 41 18.5 72t49 52t70 31.5t81.5 10.5q67 0 123 -26.5t90 -80.5l-146 -72q-11 20 -25.5 29t-41.5 9q-17 0 -27.5 -4.5t-10.5 -14.5z" />
    <glyph glyph-name="Scedilla" unicode="&#x15e;" horiz-adv-x="672" 
d="M335 -214q-40 0 -71 10t-48 24l31 64q20 -14 41 -22t42 -8q16 0 29 5.5t13 18.5q0 17 -21 17q-16 0 -26 -12l-59 34l26 70q-110 8 -180.5 54t-101.5 118l184 93q22 -44 55.5 -62t88.5 -18q19 0 36 4t29.5 10.5t20 13.5t7.5 13q0 12 -6.5 20t-23 14t-46 13t-74.5 18
t-87.5 28.5t-76 44t-53.5 63.5t-20 87q0 51 22.5 90.5t60 66.5t86.5 41.5t101 14.5q100 0 175 -40t120 -118l-188 -95q-21 38 -46.5 51.5t-60.5 13.5q-28 0 -50 -8t-22 -21q0 -10 4.5 -16.5t18.5 -12t40 -12.5t68 -18q46 -12 92 -29t83 -43t60.5 -64.5t23.5 -94.5
q0 -46 -20 -84.5t-55 -67t-82.5 -46t-102.5 -21.5l-21 -49q15 9 34 9q27 0 47.5 -20.5t20.5 -52.5q0 -43 -35 -66t-83 -23z" />
    <glyph glyph-name="scedilla" unicode="&#x15f;" horiz-adv-x="537" 
d="M216 354q0 -12 20 -17t50 -10t65.5 -13.5t65.5 -26.5t50 -49.5t20 -83.5q0 -38 -16.5 -67.5t-43.5 -50t-63 -32.5t-75 -16l-21 -49q15 9 34 9q27 0 47.5 -20.5t20.5 -52.5q0 -43 -35 -66t-83 -23q-40 0 -71 10t-48 24l31 64q20 -14 41 -22t42 -8q16 0 29 5.5t13 18.5
q0 17 -21 17q-16 0 -26 -12l-59 34l27 71q-68 6 -117 34.5t-78 82.5l146 75q11 -29 33.5 -41t55.5 -12q22 0 42.5 5.5t20.5 20.5q0 12 -20.5 18.5t-51.5 12.5t-67 15.5t-67 27t-51.5 46.5t-20.5 75q0 41 18.5 72t49 52t70 31.5t81.5 10.5q67 0 123 -26.5t90 -80.5l-146 -72
q-11 20 -25.5 29t-41.5 9q-17 0 -27.5 -4.5t-10.5 -14.5z" />
    <glyph glyph-name="Scaron" unicode="&#x160;" horiz-adv-x="672" 
d="M233 840l-91 144h105l64 -73l61 73h105l-88 -144h-156zM333 -14q-128 0 -208.5 47.5t-114.5 125.5l184 93q22 -44 55.5 -62t88.5 -18q19 0 36 4t29.5 10.5t20 13.5t7.5 13q0 12 -6.5 20t-23 14t-46 13t-74.5 18t-87.5 28.5t-76 44t-53.5 63.5t-20 87q0 51 22.5 90.5
t60 66.5t86.5 41.5t101 14.5q100 0 175 -40t120 -118l-188 -95q-21 38 -46.5 51.5t-60.5 13.5q-28 0 -50 -8t-22 -21q0 -10 4.5 -16.5t18.5 -12t40 -12.5t68 -18q46 -12 92 -29t83 -43t60.5 -64.5t23.5 -94.5q0 -51 -23.5 -91.5t-64 -69.5t-95 -44.5t-116.5 -15.5z" />
    <glyph glyph-name="scaron" unicode="&#x161;" horiz-adv-x="537" 
d="M173 640l-91 144h105l64 -73l61 73h105l-88 -144h-156zM216 354q0 -12 20 -17t50 -10t65.5 -13.5t65.5 -26.5t50 -49.5t20 -83.5q0 -43 -20.5 -74.5t-54 -52.5t-76 -31t-86.5 -10q-82 0 -142.5 29t-92.5 90l146 75q11 -29 33.5 -41t55.5 -12q22 0 42.5 5.5t20.5 20.5
q0 12 -20.5 18.5t-51.5 12.5t-67 15.5t-67 27t-51.5 46.5t-20.5 75q0 41 18.5 72t49 52t70 31.5t81.5 10.5q67 0 123 -26.5t90 -80.5l-146 -72q-11 20 -25.5 29t-41.5 9q-17 0 -27.5 -4.5t-10.5 -14.5z" />
    <glyph glyph-name="uni0162" unicode="&#x162;" horiz-adv-x="569" 
d="M174 520h-169v180h529v-180h-170v-520h-55l-20 -47q15 9 34 9q27 0 47.5 -20.5t20.5 -52.5q0 -43 -35 -66t-83 -23q-40 0 -71 10t-48 24l31 64q20 -14 41 -22t42 -8q16 0 29 5.5t13 18.5q0 17 -21 17q-16 0 -26 -12l-59 34l26 69h-56v520z" />
    <glyph glyph-name="uni0163" unicode="&#x163;" horiz-adv-x="401" 
d="M351 0q-23 -2 -44 -3.5t-41 -1.5l-18 -42q15 9 34 9q27 0 47.5 -20.5t20.5 -52.5q0 -43 -35 -66t-83 -23q-40 0 -71 10t-48 24l31 64q20 -14 41 -22t42 -8q16 0 29 5.5t13 18.5q0 17 -21 17q-16 0 -26 -12l-59 34l26 70q-53 12 -83 52.5t-30 126.5v160h-71v160h71v102
l180 60v-162h93v-160h-93v-147q0 -24 26.5 -28t68.5 0v-165z" />
    <glyph glyph-name="Tcaron" unicode="&#x164;" horiz-adv-x="569" 
d="M190 826l-91 144h105l64 -73l61 73h105l-88 -144h-156zM174 520h-169v180h529v-180h-170v-520h-190v520z" />
    <glyph glyph-name="tcaron" unicode="&#x165;" horiz-adv-x="401" 
d="M92 759l-91 144h105l64 -73l61 73h105l-88 -144h-156zM351 0q-24 -2 -47 -3.5t-43 -1.5q-43 0 -77 8t-58 28.5t-37 56.5t-13 92v160h-71v160h71v102l180 60v-162h93v-160h-93v-147q0 -24 26.5 -28t68.5 0v-165z" />
    <glyph glyph-name="Tbar" unicode="&#x166;" horiz-adv-x="569" 
d="M174 224h-104v176h104v120h-169v180h529v-180h-170v-120h100v-176h-100v-224h-190v224z" />
    <glyph glyph-name="tbar" unicode="&#x167;" horiz-adv-x="401" 
d="M351 0q-24 -2 -47 -3.5t-43 -1.5q-43 0 -77 8t-58 28.5t-37 56.5t-13 92v14h-99v176h28v130h71v102l180 60v-162h93v-130h22v-176h-115v-1q0 -24 26.5 -28t68.5 0v-165z" />
    <glyph glyph-name="Umacron" unicode="&#x16a;" horiz-adv-x="655" 
d="M124 801v97h363v-97h-363zM30 701h190v-465q0 -16 9 -28t23 -19t30 -10.5t30 -3.5q18 0 34.5 3.5t29.5 10.5t21 19t8 28v465h190v-465q0 -56 -22.5 -102t-61 -79t-90 -51t-109.5 -18t-109 18t-89.5 51t-61 79t-22.5 102v465z" />
    <glyph glyph-name="umacron" unicode="&#x16b;" horiz-adv-x="558" 
d="M85 601v97h363v-97h-363zM30 500h180v-299q0 -33 19.5 -46.5t42.5 -13.5q26 0 41 18.5t15 59.5v281h180v-500h-180v21q-22 -16 -48 -26t-55 -10q-27 0 -61 9t-63.5 33t-50 66t-20.5 108v299z" />
    <glyph glyph-name="Uring" unicode="&#x16e;" horiz-adv-x="655" 
d="M313 788q-23 0 -43.5 9t-35.5 24t-24 35.5t-9 43.5t9 43.5t24 35.5t35.5 24t43.5 9t43 -9t35 -24t23.5 -35.5t8.5 -43.5t-8.5 -43.5t-23.5 -35.5t-35 -24t-43 -9zM313 865q14 0 24 10.5t10 24.5t-10 24.5t-24 10.5t-24.5 -10.5t-10.5 -24.5t10.5 -24.5t24.5 -10.5z
M30 701h190v-465q0 -16 9 -28t23 -19t30 -10.5t30 -3.5q18 0 34.5 3.5t29.5 10.5t21 19t8 28v465h190v-465q0 -56 -22.5 -102t-61 -79t-90 -51t-109.5 -18t-109 18t-89.5 51t-61 79t-22.5 102v465z" />
    <glyph glyph-name="uring" unicode="&#x16f;" horiz-adv-x="558" 
d="M274 588q-23 0 -43.5 9t-35.5 24t-24 35.5t-9 43.5t9 43.5t24 35.5t35.5 24t43.5 9t43 -9t35 -24t23.5 -35.5t8.5 -43.5t-8.5 -43.5t-23.5 -35.5t-35 -24t-43 -9zM274 665q14 0 24 10.5t10 24.5t-10 24.5t-24 10.5t-24.5 -10.5t-10.5 -24.5t10.5 -24.5t24.5 -10.5z
M30 500h180v-299q0 -33 19.5 -46.5t42.5 -13.5q26 0 41 18.5t15 59.5v281h180v-500h-180v21q-22 -16 -48 -26t-55 -10q-27 0 -61 9t-63.5 33t-50 66t-20.5 108v299z" />
    <glyph glyph-name="Uhungarumlaut" unicode="&#x170;" horiz-adv-x="655" 
d="M247 980h135l-115 -144h-100zM403 980h135l-115 -144h-100zM30 701h190v-465q0 -16 9 -28t23 -19t30 -10.5t30 -3.5q18 0 34.5 3.5t29.5 10.5t21 19t8 28v465h190v-465q0 -56 -22.5 -102t-61 -79t-90 -51t-109.5 -18t-109 18t-89.5 51t-61 79t-22.5 102v465z" />
    <glyph glyph-name="uhungarumlaut" unicode="&#x171;" horiz-adv-x="558" 
d="M208 780h135l-115 -144h-100zM364 780h135l-115 -144h-100zM30 500h180v-299q0 -33 19.5 -46.5t42.5 -13.5q26 0 41 18.5t15 59.5v281h180v-500h-180v21q-22 -16 -48 -26t-55 -10q-27 0 -61 9t-63.5 33t-50 66t-20.5 108v299z" />
    <glyph glyph-name="Uogonek" unicode="&#x172;" horiz-adv-x="655" 
d="M30 701h190v-465q0 -16 9 -28t23 -19t30 -10.5t30 -3.5q18 0 34.5 3.5t29.5 10.5t21 19t8 28v465h190v-465q0 -50 -18.5 -92.5t-50 -74.5t-74.5 -52.5t-93 -27.5q-32 -18 -44 -38.5t-12 -40.5t10 -27t19 -7q14 0 22 8.5t13 19.5l66 -43q-17 -25 -41.5 -39t-59.5 -14
q-21 0 -41 5.5t-35.5 16.5t-24.5 29t-9 43q0 50 36 88q-48 8 -90 29t-72.5 52.5t-48 73.5t-17.5 91v465z" />
    <glyph glyph-name="uogonek" unicode="&#x173;" horiz-adv-x="558" 
d="M30 500h180v-299q0 -33 19.5 -46.5t42.5 -13.5q26 0 41 18.5t15 59.5v281h180v-500h-180v21q-28 -20 -59 -30q-27 -17 -37.5 -36t-10.5 -38q0 -20 10 -27t19 -7q14 0 22 8.5t13 19.5l66 -43q-17 -25 -41.5 -39t-59.5 -14q-21 0 -41 5.5t-35.5 16.5t-24.5 29t-9 43
q0 46 31 83q-25 7 -50 21t-45.5 39t-33 61.5t-12.5 87.5v299z" />
    <glyph glyph-name="Wcircumflex" unicode="&#x174;" horiz-adv-x="1030" 
d="M567 826l-64 73l-61 -73h-105l88 144h156l91 -144h-105zM0 700h196l97 -384l109 384h196l109 -384l97 384h196l-188 -700h-201l-111 372l-111 -372h-201z" />
    <glyph glyph-name="wcircumflex" unicode="&#x175;" horiz-adv-x="824" 
d="M456 626l-64 73l-61 -73h-105l88 144h156l91 -144h-105zM162 2l-162 498h189l58 -196l55 196h189l56 -198l58 198h189l-162 -500h-174l-61 197l-61 -195v-2h-175z" />
    <glyph glyph-name="Ycircumflex" unicode="&#x176;" horiz-adv-x="718" 
d="M415 826l-64 73l-61 -73h-105l88 144h156l91 -144h-105zM249 229l-249 471h215l129 -244l129 244h215l-249 -471v-229h-190v229z" />
    <glyph glyph-name="ycircumflex" unicode="&#x177;" horiz-adv-x="586" 
d="M354 626l-64 73l-61 -73h-105l88 144h156l91 -144h-105zM194 500l101 -225l73 225h189l-154 -476q-91 -241 -314 -224v174q47 -6 74.5 10.5t44.5 44.5l-208 471h194z" />
    <glyph glyph-name="Ydieresis" unicode="&#x178;" horiz-adv-x="718" 
d="M550 898q0 -38 -26 -63.5t-64 -25.5q-37 0 -63 25.5t-26 63.5t26 63.5t63 25.5q38 0 64 -25.5t26 -63.5zM333 898q0 -38 -25.5 -63.5t-63.5 -25.5t-63.5 25.5t-25.5 63.5t25.5 63.5t63.5 25.5t63.5 -25.5t25.5 -63.5zM249 229l-249 471h215l129 -244l129 244h215
l-249 -471v-229h-190v229z" />
    <glyph glyph-name="Zacute" unicode="&#x179;" horiz-adv-x="568" 
d="M332 976h185l-125 -144h-180zM274 520h-239v180h478v-137l-239 -383h239v-180h-478v137z" />
    <glyph glyph-name="zacute" unicode="&#x17a;" horiz-adv-x="470" 
d="M287 776h185l-125 -144h-180zM410 500v-116l-147 -214h157v-170h-400v116l152 214h-142v170h380z" />
    <glyph glyph-name="Zdotaccent" unicode="&#x17b;" horiz-adv-x="568" 
d="M275 790q-37 0 -63 26t-26 63t26 63t63 26q18 0 34 -7t28 -19t19 -28.5t7 -34.5t-7 -34.5t-19 -28.5t-28 -19t-34 -7zM274 520h-239v180h478v-137l-239 -383h239v-180h-478v137z" />
    <glyph glyph-name="zdotaccent" unicode="&#x17c;" horiz-adv-x="470" 
d="M230 590q-37 0 -63 26t-26 63t26 63t63 26q18 0 34 -7t28 -19t19 -28.5t7 -34.5t-7 -34.5t-19 -28.5t-28 -19t-34 -7zM410 500v-116l-147 -214h157v-170h-400v116l152 214h-142v170h380z" />
    <glyph glyph-name="Zcaron" unicode="&#x17d;" horiz-adv-x="568" 
d="M189 826l-91 144h105l64 -73l61 73h105l-88 -144h-156zM274 520h-239v180h478v-137l-239 -383h239v-180h-478v137z" />
    <glyph glyph-name="zcaron" unicode="&#x17e;" horiz-adv-x="470" 
d="M144 626l-91 144h105l64 -73l61 73h105l-88 -144h-156zM410 500v-116l-147 -214h157v-170h-400v116l152 214h-142v170h380z" />
    <glyph glyph-name="florin" unicode="&#x192;" horiz-adv-x="477" 
d="M282 223l-86 -384h-206l85 384h-40v156h74l28 127q8 38 29 69t50.5 54t66 35.5t76.5 12.5q42 0 78.5 -10.5t62.5 -38.5l-71 -147q-15 20 -43 20q-17 0 -32 -10.5t-20 -31.5l-18 -80h87v-156h-121z" />
    <glyph glyph-name="uni0218" unicode="&#x218;" horiz-adv-x="672" 
d="M333 -14q-128 0 -208.5 47.5t-114.5 125.5l184 93q22 -44 55.5 -62t88.5 -18q19 0 36 4t29.5 10.5t20 13.5t7.5 13q0 12 -6.5 20t-23 14t-46 13t-74.5 18t-87.5 28.5t-76 44t-53.5 63.5t-20 87q0 51 22.5 90.5t60 66.5t86.5 41.5t101 14.5q100 0 175 -40t120 -118
l-188 -95q-21 38 -46.5 51.5t-60.5 13.5q-28 0 -50 -8t-22 -21q0 -10 4.5 -16.5t18.5 -12t40 -12.5t68 -18q46 -12 92 -29t83 -43t60.5 -64.5t23.5 -94.5q0 -51 -23.5 -91.5t-64 -69.5t-95 -44.5t-116.5 -15.5zM235 -87h183v-186l-112 -134l-51 43l39 91h-59v186z" />
    <glyph glyph-name="uni0219" unicode="&#x219;" horiz-adv-x="537" 
d="M216 354q0 -12 20 -17t50 -10t65.5 -13.5t65.5 -26.5t50 -49.5t20 -83.5q0 -43 -20.5 -74.5t-54 -52.5t-76 -31t-86.5 -10q-82 0 -142.5 29t-92.5 90l146 75q11 -29 33.5 -41t55.5 -12q22 0 42.5 5.5t20.5 20.5q0 12 -20.5 18.5t-51.5 12.5t-67 15.5t-67 27t-51.5 46.5
t-20.5 75q0 41 18.5 72t49 52t70 31.5t81.5 10.5q67 0 123 -26.5t90 -80.5l-146 -72q-11 20 -25.5 29t-41.5 9q-17 0 -27.5 -4.5t-10.5 -14.5zM152 -87h183v-186l-112 -134l-51 43l39 91h-59v186z" />
    <glyph glyph-name="uni021A" unicode="&#x21a;" horiz-adv-x="569" 
d="M174 520h-169v180h529v-180h-170v-520h-190v520zM173 -73h183v-186l-112 -134l-51 43l39 91h-59v186z" />
    <glyph glyph-name="uni021B" unicode="&#x21b;" horiz-adv-x="401" 
d="M351 0q-24 -2 -47 -3.5t-43 -1.5q-43 0 -77 8t-58 28.5t-37 56.5t-13 92v160h-71v160h71v102l180 60v-162h93v-160h-93v-147q0 -24 26.5 -28t68.5 0v-165zM132 -73h183v-186l-112 -134l-51 43l39 91h-59v186z" />
    <glyph glyph-name="uni02BC" unicode="&#x2bc;" 
 />
    <glyph glyph-name="circumflex" unicode="&#x2c6;" horiz-adv-x="335" 
d="M230 556l-64 73l-61 -73h-105l88 144h156l91 -144h-105z" />
    <glyph glyph-name="caron" unicode="&#x2c7;" horiz-adv-x="335" 
d="M91 626l-91 144h105l64 -73l61 73h105l-88 -144h-156z" />
    <glyph glyph-name="breve" unicode="&#x2d8;" horiz-adv-x="351" 
d="M351 637q-30 -41 -75.5 -64.5t-99.5 -23.5t-99.5 23.5t-76.5 64.5l76 62q17 -23 42 -38t58 -15q63 0 100 53z" />
    <glyph glyph-name="dotaccent" unicode="&#x2d9;" horiz-adv-x="237" 
d="M119 530q-37 0 -63 26t-26 63t26 63t63 26q18 0 34 -7t28 -19t19 -28.5t7 -34.5t-7 -34.5t-19 -28.5t-28 -19t-34 -7z" />
    <glyph glyph-name="ring" unicode="&#x2da;" horiz-adv-x="222" 
d="M112 541q-23 0 -43.5 9t-35.5 24t-24 35.5t-9 43.5t9 43.5t24 35.5t35.5 24t43.5 9t43 -9t35 -24t23.5 -35.5t8.5 -43.5t-8.5 -43.5t-23.5 -35.5t-35 -24t-43 -9zM112 618q14 0 24 10.5t10 24.5t-10 24.5t-24 10.5t-24.5 -10.5t-10.5 -24.5t10.5 -24.5t24.5 -10.5z" />
    <glyph glyph-name="ogonek" unicode="&#x2db;" horiz-adv-x="211" 
d="M146 0q-37 -19 -51 -40.5t-14 -43.5q0 -20 10 -27t19 -7q14 0 22 8.5t13 19.5l66 -43q-17 -25 -41.5 -39t-59.5 -14q-21 0 -41 5.5t-35.5 16.5t-24.5 29t-9 43q0 41 22.5 72.5t66.5 56.5z" />
    <glyph glyph-name="tilde" unicode="&#x2dc;" horiz-adv-x="341" 
d="M223 554q-23 0 -39.5 6.5t-28.5 15t-22 15t-20 6.5t-17 -9t-7 -28h-89q0 69 30 101.5t88 32.5q23 0 39.5 -6.5t28.5 -15t22 -15t20 -6.5t17 9t7 28h89q0 -69 -30 -101.5t-88 -32.5z" />
    <glyph glyph-name="hungarumlaut" unicode="&#x2dd;" horiz-adv-x="371" 
d="M80 700h135l-115 -144h-100zM236 700h135l-115 -144h-100z" />
    <glyph glyph-name="gravecomb" unicode="&#x300;" horiz-adv-x="275" 
d="M175 776l120 -144h-180l-125 144h185z" />
    <glyph glyph-name="acutecomb" unicode="&#x301;" horiz-adv-x="275" 
d="M110 776h185l-125 -144h-180z" />
    <glyph glyph-name="uni0302" unicode="&#x302;" horiz-adv-x="335" 
d="M230 626l-64 73l-61 -73h-105l88 144h156l91 -144h-105z" />
    <glyph glyph-name="tildecomb" unicode="&#x303;" horiz-adv-x="341" 
d="M223 640q-23 0 -39.5 6.5t-28.5 15t-22 15t-20 6.5t-17 -9t-7 -28h-89q0 69 30 101.5t88 32.5q23 0 39.5 -6.5t28.5 -15t22 -15t20 -6.5t17 9t7 28h89q0 -69 -30 -101.5t-88 -32.5z" />
    <glyph glyph-name="uni0304" unicode="&#x304;" horiz-adv-x="363" 
d="M0 601v97h363v-97h-363z" />
    <glyph glyph-name="uni0306" unicode="&#x306;" horiz-adv-x="351" 
d="M351 707q-30 -41 -75.5 -64.5t-99.5 -23.5t-99.5 23.5t-76.5 64.5l76 62q17 -23 42 -38t58 -15q63 0 100 53z" />
    <glyph glyph-name="uni0307" unicode="&#x307;" horiz-adv-x="237" 
d="M119 590q-37 0 -63 26t-26 63t26 63t63 26q18 0 34 -7t28 -19t19 -28.5t7 -34.5t-7 -34.5t-19 -28.5t-28 -19t-34 -7z" />
    <glyph glyph-name="uni0308" unicode="&#x308;" horiz-adv-x="318" 
d="M357 698q0 -38 -26 -63.5t-64 -25.5q-37 0 -63 25.5t-26 63.5t26 63.5t63 25.5q38 0 64 -25.5t26 -63.5zM140 698q0 -38 -25.5 -63.5t-63.5 -25.5t-63.5 25.5t-25.5 63.5t25.5 63.5t63.5 25.5t63.5 -25.5t25.5 -63.5z" />
    <glyph glyph-name="uni030A" unicode="&#x30a;" horiz-adv-x="222" 
d="M112 588q-23 0 -43.5 9t-35.5 24t-24 35.5t-9 43.5t9 43.5t24 35.5t35.5 24t43.5 9t43 -9t35 -24t23.5 -35.5t8.5 -43.5t-8.5 -43.5t-23.5 -35.5t-35 -24t-43 -9zM112 665q14 0 24 10.5t10 24.5t-10 24.5t-24 10.5t-24.5 -10.5t-10.5 -24.5t10.5 -24.5t24.5 -10.5z" />
    <glyph glyph-name="uni030B" unicode="&#x30b;" horiz-adv-x="371" 
d="M80 780h135l-115 -144h-100zM236 780h135l-115 -144h-100z" />
    <glyph glyph-name="uni030C" unicode="&#x30c;" horiz-adv-x="335" 
d="M91 626l-91 144h105l64 -73l61 73h105l-88 -144h-156z" />
    <glyph glyph-name="uni0312" unicode="&#x312;" 
d="M232 548h-183v186l112 134l51 -43l-39 -91h59v-186z" />
    <glyph glyph-name="uni0326" unicode="&#x326;" horiz-adv-x="281" 
d="M49 -76h183v-186l-112 -134l-51 43l39 91h-59v186z" />
    <glyph glyph-name="uni0327" unicode="&#x327;" horiz-adv-x="237" 
d="M119 -200q-40 0 -71 10t-48 24l31 64q20 -14 41 -22t42 -8q16 0 29 5.5t13 18.5q0 17 -21 17q-16 0 -26 -12l-59 34l30 80h80l-25 -58q15 9 34 9q27 0 47.5 -20.5t20.5 -52.5q0 -43 -35 -66t-83 -23z" />
    <glyph glyph-name="uni0328" unicode="&#x328;" horiz-adv-x="211" 
d="M146 0q-37 -19 -51 -40.5t-14 -43.5q0 -20 10 -27t19 -7q14 0 22 8.5t13 19.5l66 -43q-17 -25 -41.5 -39t-59.5 -14q-21 0 -41 5.5t-35.5 16.5t-24.5 29t-9 43q0 41 22.5 72.5t66.5 56.5z" />
    <glyph glyph-name="uni0335" unicode="&#x335;" 
d="M-5 245v176h394v-176h-394z" />
    <glyph glyph-name="uni0337" unicode="&#x337;" 
d="M36 225l411 320l121 -122l-411 -320z" />
    <glyph glyph-name="uni0338" unicode="&#x338;" 
d="M-97 -25l600 666l84 -79l-600 -667z" />
    <glyph glyph-name="tonos" unicode="&#x384;" 
d="M428 765l-93 -190h-136l46 190h183z" />
    <glyph glyph-name="uni03BC" unicode="&#x3bc;" horiz-adv-x="606" 
d="M230 -184h-180v667h180v-268q0 -37 18.5 -52.5t51.5 -15.5q30 0 47.5 12.5t28.5 25.5v298h180v-483h-180v54q-20 -22 -55.5 -42t-90.5 -24v-172z" />
    <glyph glyph-name="pi" unicode="&#x3c0;" horiz-adv-x="682" 
d="M650 340h-73v-144q0 -24 26.5 -28t68.5 0v-165q-24 -2 -47 -3.5t-43 -1.5q-43 0 -77 8t-58 28.5t-37 56.5t-13 92v157h-115v-340h-180v340h-82v160h630v-160z" />
    <glyph glyph-name="Wgrave" unicode="&#x1e80;" horiz-adv-x="1030" 
d="M450 987l120 -144h-180l-125 144h185zM0 700h196l97 -384l109 384h196l109 -384l97 384h196l-188 -700h-201l-111 372l-111 -372h-201z" />
    <glyph glyph-name="wgrave" unicode="&#x1e81;" horiz-adv-x="824" 
d="M339 787l120 -144h-180l-125 144h185zM162 2l-162 498h189l58 -196l55 196h189l56 -198l58 198h189l-162 -500h-174l-61 197l-61 -195v-2h-175z" />
    <glyph glyph-name="Wacute" unicode="&#x1e82;" horiz-adv-x="1030" 
d="M563 976h185l-125 -144h-180zM0 700h196l97 -384l109 384h196l109 -384l97 384h196l-188 -700h-201l-111 372l-111 -372h-201z" />
    <glyph glyph-name="wacute" unicode="&#x1e83;" horiz-adv-x="824" 
d="M452 776h185l-125 -144h-180zM162 2l-162 498h189l58 -196l55 196h189l56 -198l58 198h189l-162 -500h-174l-61 197l-61 -195v-2h-175z" />
    <glyph glyph-name="Wdieresis" unicode="&#x1e84;" horiz-adv-x="1030" 
d="M702 898q0 -38 -26 -63.5t-64 -25.5q-37 0 -63 25.5t-26 63.5t26 63.5t63 25.5q38 0 64 -25.5t26 -63.5zM485 898q0 -38 -25.5 -63.5t-63.5 -25.5t-63.5 25.5t-25.5 63.5t25.5 63.5t63.5 25.5t63.5 -25.5t25.5 -63.5zM0 700h196l97 -384l109 384h196l109 -384l97 384h196
l-188 -700h-201l-111 372l-111 -372h-201z" />
    <glyph glyph-name="wdieresis" unicode="&#x1e85;" horiz-adv-x="824" 
d="M591 698q0 -38 -26 -63.5t-64 -25.5q-37 0 -63 25.5t-26 63.5t26 63.5t63 25.5q38 0 64 -25.5t26 -63.5zM374 698q0 -38 -25.5 -63.5t-63.5 -25.5t-63.5 25.5t-25.5 63.5t25.5 63.5t63.5 25.5t63.5 -25.5t25.5 -63.5zM162 2l-162 498h189l58 -196l55 196h189l56 -198
l58 198h189l-162 -500h-174l-61 197l-61 -195v-2h-175z" />
    <glyph glyph-name="Germandbls" unicode="&#x1e9e;" horiz-adv-x="671" 
d="M303 437h1l59 56q-6 17 -23.5 27t-43.5 10q-33 0 -52 -14t-19 -39v-477h-190v477q2 55 22 98.5t56 73.5t86.5 46t113.5 16q109 0 180 -52.5t87 -144.5l-109 -98q148 -45 150 -194q5 -109 -70 -165t-228 -57h-56v180h56q111 2 111 42q-1 45 -131 45v170z" />
    <glyph glyph-name="Ygrave" unicode="&#x1ef2;" horiz-adv-x="718" 
d="M298 987l120 -144h-180l-125 144h185zM249 229l-249 471h215l129 -244l129 244h215l-249 -471v-229h-190v229z" />
    <glyph glyph-name="ygrave" unicode="&#x1ef3;" horiz-adv-x="586" 
d="M237 787l120 -144h-180l-125 144h185zM194 500l101 -225l73 225h189l-154 -476q-91 -241 -314 -224v174q47 -6 74.5 10.5t44.5 44.5l-208 471h194z" />
    <glyph glyph-name="uni2009" unicode="&#x2009;" 
 />
    <glyph glyph-name="endash" unicode="&#x2013;" horiz-adv-x="593" 
d="M30 167v150h533v-150h-533z" />
    <glyph glyph-name="emdash" unicode="&#x2014;" horiz-adv-x="833" 
d="M30 167v150h773v-150h-773z" />
    <glyph glyph-name="quoteleft" unicode="&#x2018;" horiz-adv-x="281" 
d="M212 625l-39 -91q20 -6 31 -12.5t17 -16.5t7.5 -24t1.5 -37q0 -45 -23.5 -69t-68.5 -24t-70 25t-24 70q0 26 2.5 44.5t8 34t15 30t24.5 32.5l67 81z" />
    <glyph glyph-name="quoteright" unicode="&#x2019;" horiz-adv-x="281" 
d="M69 404l39 91q-19 6 -30.5 12.5t-17.5 16.5t-7.5 24.5t-1.5 36.5q0 45 23.5 69t68.5 24t70 -25t24 -70q0 -25 -2.5 -44t-8 -34.5t-15 -30t-24.5 -32.5l-67 -81z" />
    <glyph glyph-name="quotesinglbase" unicode="&#x201a;" horiz-adv-x="281" 
d="M69 -101l39 91q-19 6 -30.5 12.5t-17.5 16.5t-7.5 24.5t-1.5 36.5q0 45 23.5 69t68.5 24t69.5 -25t24.5 -70q0 -25 -2.5 -44t-8.5 -34.5t-15.5 -30t-23.5 -32.5l-67 -81z" />
    <glyph glyph-name="quotereversed" unicode="&#x201b;" horiz-adv-x="281" 
d="M212 404l-51 -43l-67 81q-15 18 -24.5 32.5t-15 30t-8 34.5t-2.5 44q-1 45 24 70t70 25t68.5 -24t23.5 -69q0 -22 -1.5 -36.5t-7.5 -24.5t-17 -16.5t-31 -12.5z" />
    <glyph glyph-name="quotedblleft" unicode="&#x201c;" horiz-adv-x="528" 
d="M443 625l-39 -91q20 -6 31 -12.5t17 -16.5t7.5 -24t1.5 -37q0 -45 -23.5 -69t-68.5 -24t-70 25t-24 70q0 26 2.5 44.5t8 34t15 30t24.5 32.5l67 81zM222 625l-39 -91q20 -6 31 -12.5t17 -16.5t7.5 -24t1.5 -37q0 -45 -23.5 -69t-68.5 -24t-70 25t-24 70q0 26 2.5 44.5
t8 34t15 30t24.5 32.5l67 81z" />
    <glyph glyph-name="quotedblright" unicode="&#x201d;" horiz-adv-x="528" 
d="M300 404l39 91q-19 6 -30.5 12.5t-17.5 16.5t-7.5 24.5t-1.5 36.5q0 45 23.5 69t68.5 24t70 -25t24 -70q0 -25 -2.5 -44t-8 -34.5t-15 -30t-24.5 -32.5l-67 -81zM79 404l39 91q-19 6 -30.5 12.5t-17.5 16.5t-7.5 24.5t-1.5 36.5q0 45 23.5 69t68.5 24t70 -25t24 -70
q0 -25 -2.5 -44t-8 -34.5t-15 -30t-24.5 -32.5l-67 -81z" />
    <glyph glyph-name="quotedblbase" unicode="&#x201e;" horiz-adv-x="528" 
d="M300 -98l39 91q-19 6 -30.5 12.5t-17.5 16.5t-7.5 24.5t-1.5 36.5q0 45 23.5 69t68.5 24t70 -25t24 -70q0 -25 -2.5 -44t-8 -34.5t-15 -30t-24.5 -32.5l-67 -81zM79 -98l39 91q-19 6 -30.5 12.5t-17.5 16.5t-7.5 24.5t-1.5 36.5q0 45 23.5 69t68.5 24t70 -25t24 -70
q0 -25 -2.5 -44t-8 -34.5t-15 -30t-24.5 -32.5l-67 -81z" />
    <glyph glyph-name="dagger" unicode="&#x2020;" horiz-adv-x="291" 
d="M274 594v-81l-89 4l4 -190h-88l5 190l-89 -4v81l89 -3l-5 86h88l-4 -86z" />
    <glyph glyph-name="daggerdbl" unicode="&#x2021;" horiz-adv-x="291" 
d="M185 591l89 3v-81l-89 4v-175l89 4v-81l-89 3l4 -88h-88l4 88l-88 -3v81l88 -4v175l-88 -4v81l88 -3l-4 86h88z" />
    <glyph glyph-name="bullet" unicode="&#x2022;" horiz-adv-x="358" 
d="M310 242q0 -27 -10 -50.5t-28 -41t-41.5 -27.5t-50.5 -10t-50.5 10t-41.5 27.5t-28 41t-10 50.5t10 50.5t28 41.5t41.5 28t50.5 10t50.5 -10t41.5 -28t28 -41.5t10 -50.5z" />
    <glyph glyph-name="ellipsis" unicode="&#x2026;" horiz-adv-x="846" 
d="M61 80q0 45 23.5 69t68.5 24t68 -24t23 -69t-23 -69t-68 -24t-68.5 24t-23.5 69zM331 80q0 45 23.5 69t68.5 24t68 -24t23 -69t-23 -69t-68 -24t-68.5 24t-23.5 69zM601 80q0 45 23.5 69t68.5 24t68 -24t23 -69t-23 -69t-68 -24t-68.5 24t-23.5 69z" />
    <glyph glyph-name="perthousand" unicode="&#x2030;" horiz-adv-x="1160" 
d="M378 508q0 -35 -12.5 -65.5t-36 -53t-57 -35.5t-74.5 -13t-74 13t-56 35.5t-35.5 53t-12.5 65.5t12.5 66t35.5 54t56 36t74 13t74.5 -13t57 -36t36 -54t12.5 -66zM228 0h-97l426 667h98zM256 508q0 41 -17 58t-41 17q-23 0 -39.5 -17t-16.5 -58q0 -39 16.5 -56t39.5 -17
q24 0 41 17t17 56zM764 155q0 -35 -12.5 -65.5t-36 -53t-56.5 -35.5t-74 -13t-74 13t-56 35.5t-35.5 53t-12.5 65.5t12.5 66t35.5 54t56 36t74 13t74 -13t56.5 -36t36 -54t12.5 -66zM1140 155q0 -35 -12.5 -65.5t-36 -53t-56.5 -35.5t-74 -13t-74 13t-56 35.5t-35.5 53
t-12.5 65.5t12.5 66t35.5 54t56 36t74 13t74 -13t56.5 -36t36 -54t12.5 -66zM643 155q0 41 -17 58t-41 17t-40.5 -17t-16.5 -58q0 -39 16.5 -56t40.5 -17t41 17t17 56zM1019 155q0 41 -17 58t-41 17t-40.5 -17t-16.5 -58q0 -39 16.5 -56t40.5 -17t41 17t17 56z" />
    <glyph glyph-name="guilsinglleft" unicode="&#x2039;" horiz-adv-x="380" 
d="M190 63l-160 180l160 177h160l-160 -177l160 -180h-160z" />
    <glyph glyph-name="guilsinglright" unicode="&#x203a;" horiz-adv-x="380" 
d="M190 63h-160l160 180l-160 177h160l160 -177z" />
    <glyph glyph-name="fraction" unicode="&#x2044;" horiz-adv-x="500" 
d="M0 0l400 700h100l-400 -700h-100z" />
    <glyph glyph-name="colonmonetary" unicode="&#x20a1;" horiz-adv-x="712" 
d="M398 -12q-5 0 -13.5 0.5t-19.5 1.5l-29 -90h-31l31 94q-23 4 -46 11t-45 18l-41 -123h-31l46 138q-72 45 -113 121.5t-41 173.5q0 75 25.5 138.5t70.5 109.5t106 71.5t131 25.5q6 0 15 -0.5t21 -1.5l31 92h31l-33 -97q46 -9 90 -34l44 131h31l-50 -147q26 -18 52 -48
l-25 -22q-9 11 -18.5 20t-19.5 17l-191 -569q5 -1 22 -1q63 0 117 26t90 71l26 -21q-94 -106 -233 -106zM100 333q0 -85 34.5 -153.5t95.5 -110.5l194 578q-4 1 -10.5 1h-15.5q-63 0 -117.5 -23t-94.5 -65t-63 -100t-23 -127zM256 53q38 -22 90 -31l196 584q-42 27 -88 36z
" />
    <glyph glyph-name="franc" unicode="&#x20a3;" horiz-adv-x="599" 
d="M61 667h506v-176h-304v-66h297v-176h-297v-71h107v-97h-107v-81h-202v81h-54v97h54v489z" />
    <glyph glyph-name="lira" unicode="&#x20a4;" horiz-adv-x="581" 
d="M419 423v-84h-118q4 -14 7 -35h111v-84h-127q-14 -23 -33 -35q11 4 23 5t20 1q20 0 34 -4t26.5 -8.5t25 -8.5t28.5 -4q30 0 48 9.5t28 23.5l77 -159q-20 -22 -58.5 -37t-101.5 -15q-32 0 -58 6.5t-48 14.5t-41 14.5t-36 6.5q-26 0 -55.5 -10t-58.5 -27l-66 132
q15 8 30 18t27 22t20 25.5t8 29.5h-105v84h81q-5 9 -10 17.5t-10 17.5h-61v84h21q-5 20 -5 37q0 54 25 94.5t63 68t84 41t89 13.5q99 0 163 -30.5t100 -99.5l-160 -92q-11 32 -32 46t-45 14q-30 0 -48 -17.5t-18 -41.5q0 -16 5 -33h151z" />
    <glyph glyph-name="peseta" unicode="&#x20a7;" horiz-adv-x="715" 
d="M653 360q-6 -44 -24.5 -82.5t-48.5 -67t-71 -44.5t-92 -16h-154v-150h-202v360h-54v97h54v210h356q51 0 92 -16t71 -44.5t48.5 -67t24.5 -82.5h58v-97h-58zM263 457h179q-17 34 -51 34h-128v-34zM391 326q17 0 30.5 8.5t21.5 25.5h-180v-34h128z" />
    <glyph glyph-name="uni20A8" unicode="&#x20a8;" horiz-adv-x="1125" 
d="M421 0l-92 210h-73v-210h-202v667h356q59 0 103.5 -18t75 -49.5t46 -73t15.5 -88.5q0 -43 -11.5 -76.5t-29 -58t-38.5 -41t-41 -26.5l121 -236h-230zM881 -12q-33 0 -67 5.5t-65.5 15.5t-58 23.5t-46.5 29.5l72 121q14 -11 35.5 -22t45.5 -19.5t48.5 -14t44.5 -5.5
q28 0 38 6t10 15q0 12 -20.5 16t-50.5 8.5t-66 11.5t-66 24.5t-50.5 48t-20.5 80.5q0 33 14 62.5t41.5 52t68 35.5t92.5 13q61 0 114 -17t95 -45l-66 -117q-23 19 -61.5 34.5t-80.5 15.5q-20 0 -32.5 -5.5t-12.5 -15.5t20.5 -14t50.5 -8.5t66 -12.5t66 -26t50.5 -49
t20.5 -81q0 -36 -15.5 -66.5t-45 -52.5t-72 -34.5t-96.5 -12.5zM379 386q26 0 46 12.5t20 40.5q0 27 -20 39.5t-46 12.5h-123v-105h123z" />
    <glyph glyph-name="uni20AA" unicode="&#x20aa;" horiz-adv-x="869" 
d="M250 0v359h168v-206h157q25 0 40 6t23 17t10.5 27.5t2.5 38.5v308h168v-325q0 -51 -11 -93t-38.5 -71t-74.5 -45t-120 -16h-325zM375 550q73 0 120 -16t74.5 -45t38.5 -71t11 -93v-135h-168v118q0 22 -2.5 38.5t-10.5 28t-23 17t-40 5.5h-157v-397h-168v550h325z" />
    <glyph glyph-name="Euro" unicode="&#x20ac;" horiz-adv-x="722" 
d="M410 -12q-63 0 -118.5 16t-101 46t-78.5 72.5t-51 95.5h-49v95h31v20v11t1 12h-32v95h50q18 52 51.5 94t78.5 71.5t100.5 45.5t117.5 16q66 0 115.5 -17.5t86.5 -45t61.5 -62t39.5 -69.5l-174 -81q-6 20 -18.5 37.5t-29.5 30.5t-37.5 21t-43.5 8q-37 0 -67 -13t-51 -36
h178v-95h-221q-1 -6 -1 -11.5v-11.5v-10t1 -10h221v-95h-181q22 -24 52.5 -38t68.5 -14q23 0 43.5 8t37.5 21t29.5 31t18.5 37l174 -80q-15 -33 -39.5 -68t-61 -63t-86.5 -46t-116 -18z" />
    <glyph glyph-name="uni2113" unicode="&#x2113;" horiz-adv-x="576" 
d="M231 207v-33q0 -19 10.5 -32t29.5 -13q11 0 19.5 2t16.5 7l32 -118q-19 -17 -52 -24.5t-70 -7.5t-67.5 8.5t-52.5 27t-34 47.5t-12 69v329q0 45 19.5 83.5t55 66t84.5 43t108 15.5q47 0 90.5 -11.5t77 -33t54 -51.5t20.5 -67q0 -31 -15.5 -60t-41 -55t-58.5 -50t-67 -46z
M231 369l89 58q38 25 54 41t16 36q0 24 -23 37.5t-53 13.5q-40 0 -61.5 -22.5t-21.5 -63.5v-100z" />
    <glyph glyph-name="uni2116" unicode="&#x2116;" horiz-adv-x="1155" 
d="M952 350q-43 0 -76.5 13.5t-57 36.5t-36 52.5t-12.5 62.5t12.5 62.5t36 52.5t57 36.5t76.5 13.5q44 0 78 -13.5t57 -36.5t35.5 -52.5t12.5 -62.5t-12.5 -62.5t-35.5 -52.5t-57 -36.5t-78 -13.5zM696 667v-667h-194l-246 338v-338h-202v667h208l232 -316v316h202zM952 450
q25 0 39 15.5t14 49.5t-14 48.5t-39 14.5q-24 0 -37.5 -14.5t-13.5 -48.5t13.5 -49.5t37.5 -15.5z" />
    <glyph glyph-name="uni2117" unicode="&#x2117;" horiz-adv-x="778" 
d="M734 334q0 -71 -27 -134t-74 -110t-110 -74t-134 -27t-134 27t-110 74t-74 110t-27 134t27 134t74 110t110 74t134 27t134 -27t110 -74t74 -110t27 -134zM692 334q0 62 -24 117.5t-65 96.5t-96.5 65t-117.5 24t-117 -24t-96.5 -65t-65.5 -96.5t-24 -117.5t24 -117
t65.5 -96.5t96.5 -65.5t117 -24t117.5 24t96.5 65.5t65 96.5t24 117zM560 413q0 -27 -10.5 -49t-28 -38t-40.5 -25t-49 -9h-112v-161h-54v405h166q25 0 48 -9t41 -25t28.5 -38.5t10.5 -50.5zM503 413q0 17 -6 30.5t-16 23.5t-23 15.5t-26 5.5h-112v-148h112q13 0 26 5.5
t23 15.5t16 23t6 29z" />
    <glyph glyph-name="uni2120" unicode="&#x2120;" horiz-adv-x="476" 
d="M188 506q0 -31 -22.5 -49t-64.5 -18q-54 0 -86 36l18 21q29 -32 66 -32q56 0 56 39q0 19 -21.5 30t-46.5 15t-46.5 19t-21.5 42q0 28 22.5 46t57.5 18q55 0 82 -32l-18 -19q-22 27 -63 27q-21 0 -34.5 -10t-13.5 -26q0 -17 21 -26.5t47 -14.5t47 -21t21 -45zM439 667
v-220h-28v182l-75 -182h-8l-75 182v-182h-28v220h43l64 -160l64 160h43z" />
    <glyph glyph-name="trademark" unicode="&#x2122;" horiz-adv-x="356" 
d="M291 667v-124h-16v106l-42 -66h-4l-43 66v-106h-15v124h24l36 -57l36 57h24zM150 667v-15h-34v-109h-16v109h-35v15h85z" />
    <glyph glyph-name="uni2126" unicode="&#x2126;" horiz-adv-x="766" 
d="M35 176h103q-25 19 -46.5 41.5t-38 48.5t-26 55.5t-9.5 61.5q0 71 28 126t77.5 92.5t116 57t143.5 19.5t144 -19.5t116 -57t77 -92.5t28 -126q0 -32 -9.5 -61.5t-26 -55.5t-38 -48.5t-46.5 -41.5h103v-176h-298v176q30 9 51 26.5t34 39.5t19 46.5t6 46.5q0 24 -7.5 52.5
t-25.5 53.5t-49 41.5t-78 16.5t-78 -16.5t-49 -41.5t-25.5 -53.5t-7.5 -52.5q0 -22 6 -46.5t19 -46.5t34 -39.5t51 -26.5v-176h-298v176z" />
    <glyph glyph-name="estimated" unicode="&#x212e;" horiz-adv-x="842" 
d="M811 324h-632q-5 0 -5 -5v-190q0 -14 9 -23q97 -103 240 -103q151 0 250 115h57q-54 -63 -134.5 -99.5t-174.5 -36.5q-81 0 -152 27.5t-124 75.5t-83.5 112t-30.5 136t30.5 136t83.5 112t124 75.5t152 27.5t152 -27.5t124 -75.5t83.5 -112t30.5 -136v-9zM668 540
q0 14 -10 24q-97 99 -235 99q-140 0 -239 -102q-10 -10 -10 -24v-188q0 -6 5 -6h485q4 0 4 6v191z" />
    <glyph glyph-name="arrowleft" unicode="&#x2190;" horiz-adv-x="582" 
d="M269 211l12 -130l-281 205l281 204l-12 -129h269v-150h-269z" />
    <glyph glyph-name="arrowup" unicode="&#x2191;" horiz-adv-x="582" 
d="M216 286l-130 -12l205 281l204 -281l-129 12v-269h-150v269z" />
    <glyph glyph-name="arrowright" unicode="&#x2192;" horiz-adv-x="582" 
d="M303 81l12 130h-268v150h268l-12 129l281 -204z" />
    <glyph glyph-name="arrowdown" unicode="&#x2193;" horiz-adv-x="582" 
d="M366 286l130 12l-205 -281l-204 281l129 -12v269h150v-269z" />
    <glyph glyph-name="partialdiff" unicode="&#x2202;" horiz-adv-x="577" 
d="M288 -12q-64 0 -114.5 18.5t-85 49.5t-53 72.5t-18.5 86.5t16 86t44.5 72t66.5 49.5t81 18.5q110 0 153 -75q-24 68 -67 125t-123 102l146 94q40 -27 80.5 -71t72.5 -99.5t52.5 -119.5t20.5 -133q0 -64 -18.5 -115t-53 -87t-85 -55t-115.5 -19zM288 147q42 0 64.5 18
t22.5 50t-22.5 50t-64.5 18t-64 -18t-22 -50t22 -50t64 -18z" />
    <glyph glyph-name="uni2206" unicode="&#x2206;" horiz-adv-x="710" 
d="M-18 0l246 667h254l246 -667h-746zM355 469l-90 -293h180z" />
    <glyph glyph-name="product" unicode="&#x220f;" horiz-adv-x="868" 
d="M549 -90v581h-229v-581h-202v581h-100v176h832v-176h-99v-581h-202z" />
    <glyph glyph-name="summation" unicode="&#x2211;" horiz-adv-x="596" 
d="M37 667h523v-176h-270l170 -196l-179 -209h279v-176h-524v176l175 208l-174 198v175z" />
    <glyph glyph-name="minus" unicode="&#x2212;" horiz-adv-x="510" 
d="M481 282h-452v105h452v-105z" />
    <glyph glyph-name="radical" unicode="&#x221a;" horiz-adv-x="639" 
d="M621 667l-239 -667h-111l-94 277l-107 -33l-31 101l216 66l74 -234l162 490h130z" />
    <glyph glyph-name="infinity" unicode="&#x221e;" horiz-adv-x="724" 
d="M208 147q-48 0 -82 16.5t-55.5 43.5t-31.5 61t-10 68t10 68t31.5 61t55.5 43.5t82 16.5q51 0 91.5 -25.5t62.5 -65.5q22 40 62.5 65.5t91.5 25.5q49 0 83 -17t55.5 -44t31 -61t9.5 -68t-9.5 -67.5t-31 -60.5t-55.5 -43.5t-83 -16.5q-51 0 -91.5 25t-62.5 65
q-22 -40 -62.5 -65t-91.5 -25zM500 251q33 0 57.5 21.5t24.5 62.5t-24.5 63.5t-57.5 22.5q-32 0 -55 -24t-35 -62q12 -38 35 -61t55 -23zM225 250q32 0 55 24t35 62q-12 38 -35 61.5t-55 23.5q-33 0 -58 -22t-25 -63t25 -63.5t58 -22.5z" />
    <glyph glyph-name="integral" unicode="&#x222b;" horiz-adv-x="399" 
d="M17 -100v114h60q25 0 42.5 19.5t17.5 51.5v498q0 44 15.5 78t41 58t59 36.5t69.5 12.5h60v-114h-60q-25 0 -42.5 -18.5t-17.5 -51.5v-500q0 -43 -15.5 -77.5t-41 -58t-59 -36t-69.5 -12.5h-60z" />
    <glyph glyph-name="approxequal" unicode="&#x2248;" horiz-adv-x="510" 
d="M29 479q26 -13 55 -19.5t58 -6.5q35 0 58.5 7t46.5 15.5t50.5 15.5t69.5 7q29 0 60 -6t54 -14v-112q-26 13 -55.5 20t-58.5 7q-35 0 -58.5 -7t-46.5 -15.5t-50.5 -15.5t-69.5 -7q-29 0 -59.5 5.5t-53.5 13.5v112zM29 302q26 -13 55 -19.5t58 -6.5q35 0 58.5 7t46.5 15.5
t50.5 15.5t69.5 7q29 0 60 -6t54 -14v-112q-26 13 -55.5 20t-58.5 7q-35 0 -58.5 -7t-46.5 -15.5t-50.5 -15.5t-69.5 -7q-29 0 -59.5 5.5t-53.5 13.5v112z" />
    <glyph glyph-name="notequal" unicode="&#x2260;" horiz-adv-x="510" 
d="M53 93l61 97h-85v105h152l50 78h-202v105h269l61 96h98l-61 -96h85v-105h-152l-50 -78h202v-105h-269l-62 -97h-97z" />
    <glyph glyph-name="lessequal" unicode="&#x2264;" horiz-adv-x="510" 
d="M29 300v130l452 180v-125l-334 -121l334 -119v-125zM29 0v105h452v-105h-452z" />
    <glyph glyph-name="greaterequal" unicode="&#x2265;" horiz-adv-x="510" 
d="M28 120v125l334 119l-334 121v125l452 -180v-130zM29 0v105h452v-105h-452z" />
    <glyph glyph-name="uni22B2" unicode="&#x22b2;" horiz-adv-x="587" 
d="M54 -23v618l535 -309z" />
    <glyph glyph-name="uni22B3" unicode="&#x22b3;" horiz-adv-x="587" 
d="M535 -23l-535 309l535 309v-618z" />
    <glyph glyph-name="dotmath" unicode="&#x22c5;" horiz-adv-x="208" 
d="M151 293q21 -21 21 -47t-19.5 -47t-48.5 -21t-48.5 21t-19.5 47t21 45.5t47 19.5t47 -18z" />
    <glyph glyph-name="uni2318" unicode="&#x2318;" horiz-adv-x="667" 
d="M625 154q0 -23 -9 -43.5t-24 -35.5t-35 -24t-43 -9t-43.5 9t-35.5 24t-24 35.5t-9 43.5v58h-137v-58q0 -23 -9 -43.5t-24 -35.5t-35.5 -24t-43.5 -9t-43 9t-35 24t-24 35.5t-9 43.5t9 43t24 35t35 24t43 9h58v137h-57q-23 0 -43.5 9t-35.5 24t-24 35.5t-9 43.5t9 43
t24 35t35.5 24t43.5 9t43 -9t35 -24t24 -35t9 -43v-59h137v59q0 23 9 43t24 35t35.5 24t43.5 9t43 -9t35 -24t24 -35t9 -43t-9 -43.5t-24 -35.5t-35 -24t-43 -9h-58v-137h58q23 0 43 -9t35 -24t24 -35t9 -43zM211 514q0 24 -17 41t-40 17q-25 0 -42 -17t-17 -41t17 -41.5
t42 -17.5h57v59zM572 514q0 24 -17.5 41t-40.5 17q-24 0 -41 -17t-17 -41v-59h58q23 0 40.5 17.5t17.5 41.5zM402 265v137h-137v-137h137zM211 212h-58q-24 0 -41 -17.5t-17 -40.5q0 -25 17 -42t41 -17t41 17t17 42v58zM572 154q0 23 -17 40.5t-41 17.5h-58v-58
q0 -25 17 -42t41 -17t41 17t17 42z" />
    <glyph glyph-name="filledbox" unicode="&#x25a0;" horiz-adv-x="661" 
d="M618 572v-572h-571v572h571z" />
    <glyph glyph-name="triagup" unicode="&#x25b2;" horiz-adv-x="616" 
d="M307 565l310 -536l-619 1z" />
    <glyph glyph-name="triagdn" unicode="&#x25bc;" horiz-adv-x="616" 
d="M-2 510h619l-310 -535z" />
    <glyph glyph-name="lozenge" unicode="&#x25ca;" horiz-adv-x="375" 
d="M356 334l-158 -334h-21l-158 334l158 333h21zM55 334l133 -293l132 293l-133 292z" />
    <glyph glyph-name="uni25CF" unicode="&#x25cf;" horiz-adv-x="695" 
d="M644 285q0 -61 -23.5 -115.5t-63.5 -94.5t-94 -63.5t-116 -23.5q-61 0 -115.5 23.5t-94.5 63.5t-63.5 94.5t-23.5 115.5q0 62 23.5 116t63.5 94t94.5 63.5t115.5 23.5q62 0 116 -23.5t94 -63.5t63.5 -94t23.5 -116z" />
    <glyph glyph-name="uni2605" unicode="&#x2605;" horiz-adv-x="759" 
d="M469 421h290l-235 -171l90 -275l-235 170l-234 -170l89 275l-234 171h290l89 276z" />
    <glyph glyph-name="uni2610" unicode="&#x2610;" horiz-adv-x="661" 
d="M616 572v-572h-571v572h571zM161 105h340v362h-340v-362z" />
    <glyph glyph-name="diamond" unicode="&#x2666;" horiz-adv-x="501" 
d="M250 35l-250 250l250 251l251 -251z" />
    <glyph glyph-name="uni2713" unicode="&#x2713;" horiz-adv-x="531" 
d="M202 91l-202 246l81 76l105 -124l255 463l90 -54z" />
    <glyph glyph-name="uniE000" unicode="&#xe000;" horiz-adv-x="1624" 
d="M1225 667l333 -472l-333 -326l-567 798h567zM538 667l287 -398l-287 -269l-473 667h473z" />
    <glyph glyph-name="uniF6B6" unicode="&#xf6b6;" horiz-adv-x="615" 
d="M425 342l160 -180h-160l-160 180l160 177h160zM190 342l160 -180h-160l-160 180l160 177h160z" />
    <glyph glyph-name="uniF6B7" unicode="&#xf6b7;" horiz-adv-x="615" 
d="M190 519l160 -177l-160 -180h-160l160 180l-160 177h160zM425 519l160 -177l-160 -180h-160l160 180l-160 177h160z" />
    <glyph glyph-name="uniF6B8" unicode="&#xf6b8;" horiz-adv-x="380" 
d="M190 342l160 -180h-160l-160 180l160 177h160z" />
    <glyph glyph-name="uniF6B9" unicode="&#xf6b9;" horiz-adv-x="380" 
d="M190 519l160 -177l-160 -180h-160l160 180l-160 177h160z" />
    <glyph glyph-name="uniF6BA" unicode="&#xf6ba;" horiz-adv-x="350" 
d="M40 266v150h240v-150h-240z" />
    <glyph glyph-name="uniF6BB" unicode="&#xf6bb;" horiz-adv-x="593" 
d="M30 266v150h533v-150h-533z" />
    <glyph glyph-name="uniF6BC" unicode="&#xf6bc;" horiz-adv-x="833" 
d="M30 266v150h773v-150h-773z" />
    <glyph glyph-name="uniF6C3" unicode="&#xf6c3;" horiz-adv-x="281" 
d="M226 -139q0 -50 -25 -92t-69 -73l-55 44q9 4 19.5 12t20 18t17.5 21t11 22q-2 -2 -7.5 -2.5t-11.5 -0.5q-27 0 -46 18.5t-19 50.5q0 33 23 56t55 23q34 0 60.5 -25t26.5 -72z" />
    <glyph glyph-name="uniF8FF" unicode="&#xf8ff;" horiz-adv-x="1624" 
d="M1225 667l333 -472l-333 -326l-567 798h567zM538 667l287 -398l-287 -269l-473 667h473z" />
    <glyph glyph-name="idotaccent" horiz-adv-x="280" 
d="M131 590q-37 0 -63 26t-26 63t26 63t63 26q18 0 34 -7t28 -19t19 -28.5t7 -34.5t-7 -34.5t-19 -28.5t-28 -19t-34 -7zM35 500h180v-500h-180v500z" />
    <glyph glyph-name="a.ss01" horiz-adv-x="598" 
d="M548 1h-180v20q-27 -16 -62 -25.5t-78 -9.5q-61 0 -101 12.5t-64 34t-33.5 52t-9.5 66.5t10 65.5t34 50.5t64 32t101 11q35 0 73 -4.5t66 -8.5v24q0 15 -19 30.5t-61 15.5q-51 0 -94 -14t-77 -28l-70 135q19 8 45 18t59 18.5t74 14.5t90 6q48 0 90.5 -11t74 -33t50 -55
t18.5 -77v-340zM283 121q16 0 31.5 3.5t27.5 10t19 16t7 20.5v22h-82q-45 0 -66 -5t-21 -35q0 -20 24.5 -26t59.5 -6z" />
    <glyph glyph-name="b.ss01" horiz-adv-x="610" 
d="M20 627l180 30v-174q20 15 44.5 23.5t56.5 8.5q61 0 109 -20t81.5 -55.5t51 -84t17.5 -106.5q0 -57 -17.5 -105.5t-51 -84t-81.5 -55t-109 -19.5q-32 0 -56.5 8.5t-44.5 22.5v-16h-180v627zM296 151q19 0 35 7.5t28 21t18.5 31.5t6.5 38t-6.5 37.5t-18.5 31t-28 21
t-35 7.5q-43 0 -68 -25.5t-25 -69.5q0 -45 25 -72.5t68 -27.5z" />
    <glyph glyph-name="d.ss01" horiz-adv-x="607" 
d="M557 662v-662h-180v14q-20 -14 -44 -21.5t-54 -7.5q-61 0 -109 19.5t-81.5 55t-51 84t-17.5 105.5q0 58 17.5 106.5t51 84t81.5 55.5t109 20q30 0 54 -7.5t44 -21.5v136zM284 151q43 0 68 27.5t25 72.5q0 44 -25 69.5t-68 25.5q-19 0 -35 -7.5t-28 -21t-18.5 -31
t-6.5 -37.5t6.5 -38t18.5 -31.5t28 -21t35 -7.5z" />
    <glyph glyph-name="h.ss01" horiz-adv-x="548" 
d="M20 620l180 40v-186q22 16 48 26t55 10q27 0 60.5 -9t63 -32t50 -64t21.5 -106v-299h-180v294q0 33 -19.5 46.5t-42.5 13.5q-26 0 -41 -18.5t-15 -59.5v-276h-180v620z" />
    <glyph glyph-name="i.ss01" horiz-adv-x="280" 
d="M215 564l-180 -36v172h180v-136zM35 469l180 36v-505h-180v469z" />
    <glyph glyph-name="t.ss01" horiz-adv-x="411" 
d="M361 0h-157q-32 0 -64.5 7t-59 27t-43.5 55t-17 91v444l180 36v-160h93v-160h-93v-144q0 -20 21 -27.5t50 -7.5q12 0 25 1t25 3z" />
    <glyph glyph-name="colon.alt" horiz-adv-x="281" 
d="M51 477q0 45 23.5 69t68.5 24t68 -24t23 -69t-23 -69t-68 -24t-68.5 24t-23.5 69zM51 160q0 45 23.5 69t68.5 24t68 -24t23 -69t-23 -69t-68 -24t-68.5 24t-23.5 69z" />
    <glyph glyph-name="colon.centered" horiz-adv-x="263" 
d="M30 430q0 45 23.5 69t68.5 24t68 -24t23 -69t-23 -69t-68 -24t-68.5 24t-23.5 69zM30 193q0 45 23.5 69t68.5 24t68 -24t23 -69t-23 -69t-68 -24t-68.5 24t-23.5 69z" />
    <glyph glyph-name="brevecomb-cy" 
 />
    <glyph glyph-name="thickspace" horiz-adv-x="500" 
 />
    <glyph glyph-name="accentcomb" horiz-adv-x="275" 
d="M110 776h185l-125 -144h-180z" />
    <glyph glyph-name="slashsmallcomb" 
d="M-69 -6l553 640l84 -79l-553 -641z" />
    <glyph glyph-name="lowercase-shoulder" 
d="M320 294q0 33 -19.5 46.5t-42.5 13.5q-26 0 -41 -18.5t-15 -59.5h-82q-1 -6 -1 -2t-0.5 18.5t-0.5 48.5q0 21 14 50t39 55.5t59.5 45t74.5 18.5q27 0 61 -9t63.5 -33t50 -66t20.5 -108h-180z" />
    <glyph glyph-name="lowercase-stem" 
d="M204 500h180v-500h-180v500z" />
    <glyph glyph-name="lowercase-shortstem" 
d="M320 299h180v-299h-180v299z" />
    <glyph glyph-name="lowercase-aloop" 
d="M479 249q0 -39 -8.5 -85.5t-30.5 -86t-59 -66t-94 -26.5q-61 0 -109 19.5t-81.5 55t-51 84t-17.5 105.5q0 58 17.5 106.5t51 84t81.5 55.5t109 20q57 0 94 -27t59 -67t30.5 -86.5t8.5 -85.5zM292 151q43 0 68 27.5t25 72.5q0 44 -25 69.5t-68 25.5q-19 0 -35 -7.5
t-28 -21t-18.5 -31t-6.5 -37.5t6.5 -38t18.5 -31.5t28 -21t35 -7.5z" />
    <glyph glyph-name="newGlyph" 
 />
    <glyph glyph-name="lowercase-ftop" 
d="M275 533q-42 4 -68.5 -4t-26.5 -29v-144h-180v98q0 53 19.5 101.5t55.5 85t87 57t113 16.5v-181z" />
    <glyph glyph-name="lowercase-g-descender" 
d="M388 500h180v-475q0 -52 -21.5 -96t-60.5 -75.5t-92.5 -49.5t-116.5 -18q-44 0 -86 9t-78 25t-63.5 38.5t-42.5 48.5l154 89q11 -20 45 -32t76 -12q46 0 76 20.5t30 52.5v475z" />
    <glyph glyph-name="lowercase-thook" 
d="M275 0q-24 -2 -47 -3.5t-43 -1.5q-43 0 -77 8t-58 28.5t-37 56.5t-13 92v178h180v-165q0 -24 26.5 -28t68.5 0v-165z" />
    <glyph glyph-name="lowercase-r" 
d="M308 340q-11 4 -26 4q-31 0 -55.5 -9.5t-41 -24.5t-25 -34.5t-8.5 -39.5l-32 40q6 4 11 16q4 11 7 30.5t3 53.5q0 21 10.5 44.5t31 43.5t51.5 33t71 13h14z" />
    <glyph glyph-name="lowercase-tcross" horiz-adv-x="1200" 
d="M134 500h344v-160h-344v160z" />
    <glyph glyph-name="ascender-stem" 
d="M35 700h190v-700h-190v700z" />
    <glyph glyph-name="uppercase-horiz" horiz-adv-x="782" 
d="M197 700h214v-180h-214v180z" />
    <glyph glyph-name="i-dot" horiz-adv-x="260" 
d="M126 515q-49 0 -77 26.5t-28 72.5q0 47 28 73.5t77 26.5t77 -26.5t28 -73.5q0 -46 -28 -72.5t-77 -26.5z" />
    <glyph glyph-name="wonderUnitLogo.ss02" horiz-adv-x="1624" 
 />
    </font>
</defs>
</svg>
