<?xml version="1.0" standalone="no"?>
<!DOCTYPE svg PUBLIC "-//W3C//DTD SVG 1.1//EN" "http://www.w3.org/Graphics/SVG/1.1/DTD/svg11.dtd" >
<svg xmlns="http://www.w3.org/2000/svg" xmlns:xlink="http://www.w3.org/1999/xlink" version="1.1">
<metadata>
Created by FontForge 20201107 at Mon Aug  2 03:36:05 2021
 By 
Copyright (c) 2020 by Charles Forman. All rights reserved.
</metadata>
<defs>
<font id="THICCCBOI-Light" horiz-adv-x="600" >
  <font-face 
    font-family="THICCCBOI Light"
    font-weight="300"
    font-stretch="normal"
    units-per-em="1000"
    panose-1="0 0 0 0 0 0 0 0 0 0"
    ascent="800"
    descent="-200"
    x-height="500"
    cap-height="700"
    bbox="-101 -299 1558 995"
    underline-thickness="50"
    underline-position="-125"
    unicode-range="U+000D-FB02"
  />
<missing-glyph horiz-adv-x="519" 
d="M84 -90v842h351v-842h-351zM403 722h-288v-782h288v782z" />
    <glyph glyph-name="fi" unicode="fi" horiz-adv-x="563" 
d="M438 650q-14 0 -25 10.5t-11 25.5t11 26t25 11q15 0 25.5 -11t10.5 -26t-10.5 -25.5t-25.5 -10.5zM128 454h-100v46h100v66q0 83 30.5 114t90.5 31q14 0 30.5 -1.5t33.5 -3.5v-45q-16 2 -29.5 3t-25.5 1q-43 0 -62 -21t-19 -80v-64h135v-46h-135v-454h-49v454zM413 500
h49v-500h-49v500z" />
    <glyph glyph-name="fl" unicode="fl" horiz-adv-x="574" 
d="M128 454h-100v46h100v66q0 83 30.5 114t90.5 31q14 0 30.5 -1.5t33.5 -3.5v-45q-16 2 -29.5 3t-25.5 1q-43 0 -62 -21t-19 -80v-64h135v-46h-135v-454h-49v454zM515 0q-10 -2 -20 -3.5t-21 -1.5q-13 0 -26 3t-22.5 11.5t-15.5 23t-6 37.5v630h48v-629q0 -17 8 -23t22 -6
t33 3v-45z" />
    <glyph glyph-name=".notdef" horiz-adv-x="519" 
d="M84 -90v842h351v-842h-351zM403 722h-288v-782h288v782z" />
    <glyph glyph-name=".null" horiz-adv-x="0" 
 />
    <glyph glyph-name=".null" horiz-adv-x="0" 
 />
    <glyph glyph-name="uni000D" unicode="&#xd;" horiz-adv-x="250" 
 />
    <glyph glyph-name="space" unicode=" " horiz-adv-x="259" 
 />
    <glyph glyph-name="exclam" unicode="!" horiz-adv-x="239" 
d="M103 172l-13 528h63l-12 -528h-38zM79 35q0 44 43 44q20 0 31 -11.5t11 -32.5q0 -20 -11 -31.5t-31 -11.5q-43 0 -43 43z" />
    <glyph glyph-name="quotedbl" unicode="&#x22;" horiz-adv-x="311" 
d="M69 674h61v-71l-17 -163h-27l-17 163v71zM181 674h62v-71l-18 -163h-26l-18 163v71z" />
    <glyph glyph-name="numbersign" unicode="#" horiz-adv-x="577" 
d="M236 0l64 187h-120l-62 -187h-45l63 187h-112l13 39h112l72 215h-113l11 39h115l62 187h45l-62 -187h118l62 187h45l-63 -187h112l-11 -39h-113l-73 -215h116l-12 -39h-117l-62 -187h-45zM384 441h-118l-72 -215h117z" />
    <glyph glyph-name="dollar" unicode="$" horiz-adv-x="583" 
d="M273 768h44v-92q121 -7 195 -92l-36 -38q-60 73 -160 82v-257q47 -13 86 -28.5t66.5 -38t43 -53.5t15.5 -76q0 -42 -15.5 -75t-43.5 -57t-66.5 -37.5t-84.5 -16.5v-89h-44v88q-72 3 -129.5 32t-94.5 74l36 39q74 -91 191 -97v288q-44 12 -81.5 25.5t-65.5 33t-43.5 48
t-15.5 71.5q0 38 15.5 69.5t42.5 54t64.5 36t80.5 15.5v91zM126 504q0 -26 10.5 -45t30 -33t47.5 -24.5t62 -20.5v249q-33 -1 -60.5 -11t-47.5 -26.5t-31 -39t-11 -49.5zM316 36q71 5 113 40t42 96q0 32 -11 54t-31 37.5t-48.5 27t-64.5 23.5v-278z" />
    <glyph glyph-name="percent" unicode="%" horiz-adv-x="718" 
d="M190 350q-34 0 -62.5 12t-49.5 34t-32.5 51.5t-11.5 64.5q0 36 11.5 66t32.5 52t49.5 34.5t62.5 12.5q35 0 63.5 -12.5t49.5 -34.5t32.5 -52t11.5 -66q0 -35 -11.5 -64.5t-32 -51.5t-49.5 -34t-64 -12zM128 0l426 667h44l-427 -667h-43zM190 387q50 0 81 35.5t31 89.5
q0 55 -31 91.5t-81 36.5q-24 0 -44.5 -9.5t-35.5 -27t-23.5 -41t-8.5 -50.5q0 -26 8.5 -48.5t23.5 -39.5t35.5 -27t44.5 -10zM528 -12q-34 0 -62.5 12.5t-49.5 34t-32.5 51.5t-11.5 65q0 36 11.5 66t32.5 51.5t49.5 34t62.5 12.5q35 0 63.5 -12.5t49 -34t32 -51.5t11.5 -66
q0 -35 -11.5 -65t-32 -51.5t-49 -34t-63.5 -12.5zM528 25q25 0 45.5 9.5t35.5 26.5t23 40t8 50t-8 50t-23 40.5t-35.5 27t-45.5 9.5t-45.5 -9.5t-35.5 -27t-23 -40.5t-8 -50q0 -26 8 -49t22.5 -40t35.5 -27t46 -10z" />
    <glyph glyph-name="ampersand" unicode="&#x26;" horiz-adv-x="640" 
d="M134 543q0 63 40 96t109 33q66 0 101 -32.5t35 -97.5q0 -31 -10 -56.5t-27.5 -47t-40.5 -40t-50 -35.5l164 -195q8 10 13.5 26.5t9.5 36.5t6 41t2 40h47q0 -28 -2 -50.5t-7.5 -43t-14 -41.5t-20.5 -47l113 -130h-61l-79 94q-42 -48 -100 -74.5t-112 -26.5
q-43 0 -78.5 10.5t-61.5 31.5t-40.5 53.5t-14.5 76.5q0 37 12.5 66t34 53.5t52 45.5t66.5 43q-24 30 -40.5 51.5t-26.5 40.5t-14.5 37t-4.5 41zM283 629q-49 0 -75.5 -19.5t-26.5 -67.5q0 -24 9.5 -46.5t22 -42t26 -34.5t20.5 -23q23 14 44 29t36.5 32.5t24.5 38t9 46.5
q0 45 -21.5 66t-68.5 21zM251 341q-42 -25 -70 -45.5t-45.5 -41t-25 -41.5t-7.5 -48q0 -66 39.5 -97.5t107.5 -31.5q54 0 98.5 24t81.5 69z" />
    <glyph glyph-name="quotesingle" unicode="'" horiz-adv-x="140" 
d="M59 700h61v-71l-17 -163h-26l-18 163v71z" />
    <glyph glyph-name="parenleft" unicode="(" horiz-adv-x="224" 
d="M178 -94q-66 100 -99 212t-33 230q0 119 33 230.5t99 211.5l28 -20q-27 -55 -46.5 -105t-32.5 -100t-19.5 -103t-6.5 -114q0 -60 6.5 -113t19.5 -103.5t32.5 -100t46.5 -103.5z" />
    <glyph glyph-name="parenright" unicode=")" horiz-adv-x="224" 
d="M46 790q65 -100 98.5 -211.5t33.5 -230.5q0 -118 -33.5 -230t-98.5 -212l-29 22q27 54 47 103.5t33 100t19.5 103.5t6.5 113q0 61 -6.5 114t-19.5 103t-33 100t-47 105z" />
    <glyph glyph-name="asterisk" unicode="*" horiz-adv-x="334" 
d="M142 539l-104 53l18 32l99 -64l-6 117h36l-6 -117l99 64l18 -32l-104 -53l104 -53l-18 -32l-99 64l6 -117h-36l6 117l-99 -64l-18 32z" />
    <glyph glyph-name="plus" unicode="+" horiz-adv-x="496" 
d="M269 317v-218h-42v218h-198v40h198v212h42v-212h198v-40h-198z" />
    <glyph glyph-name="comma" unicode="," horiz-adv-x="185" 
d="M50 -72l27 62q-15 2 -21 9t-6 23q0 33 32 33q15 0 24 -9t9 -26q0 -19 -5.5 -33.5t-19.5 -37.5l-22 -36z" />
    <glyph glyph-name="hyphen" unicode="-" horiz-adv-x="360" 
d="M49 220v45h240v-45h-240z" />
    <glyph glyph-name="period" unicode="." horiz-adv-x="180" 
d="M75 23q0 16 9 25t24 9q33 0 33 -34q0 -15 -8.5 -24t-24.5 -9q-15 0 -24 9t-9 24z" />
    <glyph glyph-name="slash" unicode="/" horiz-adv-x="287" 
d="M287 687l-237 -707h-50l237 707h50z" />
    <glyph glyph-name="zero" unicode="0" horiz-adv-x="606" 
d="M288 -11q-63 0 -111.5 26t-81 73.5t-49 114t-16.5 147.5t16.5 147.5t49 114t81 73.5t111.5 26q64 0 112 -26t80.5 -73.5t49 -114t16.5 -147.5t-16.5 -147.5t-49 -114t-80.5 -73.5t-112 -26zM288 40q98 0 152 80.5t54 229.5t-54 229.5t-152 80.5t-152 -80.5t-54 -229.5
t54 -229.5t152 -80.5z" />
    <glyph glyph-name="one" unicode="1" horiz-adv-x="606" 
d="M95 630l178 70h52v-651h216v-49h-506v49h238v598l-158 -60z" />
    <glyph glyph-name="two" unicode="2" horiz-adv-x="606" 
d="M52 24q5 44 20.5 89t41.5 84.5t61.5 72.5t79.5 53q39 18 74.5 34.5t63.5 36.5t44.5 48t16.5 69q0 38 -15.5 66.5t-39.5 47.5t-53.5 28.5t-57.5 9.5q-34 0 -66.5 -7.5t-58.5 -23.5t-44.5 -40t-23.5 -57l-50 6q6 43 29 75t56 53t74 31.5t84 10.5q39 0 78 -12.5t69.5 -37.5
t50 -62.5t19.5 -86.5q0 -52 -19 -87t-50.5 -60.5t-73 -45t-86.5 -40.5q-33 -16 -61 -40.5t-49.5 -55t-36 -65t-21.5 -69.5h422v-49h-478v24z" />
    <glyph glyph-name="three" unicode="3" horiz-adv-x="606" 
d="M490 530q0 -52 -27 -92.5t-74 -63.5q56 -23 89 -70t33 -110q0 -45 -17.5 -82.5t-48.5 -64.5t-73.5 -42t-92.5 -15q-40 0 -76.5 11.5t-66.5 31.5t-51 48t-30 61l54 6q19 -51 66.5 -80.5t103.5 -29.5q39 0 72.5 12t57.5 33t37.5 50t13.5 63q0 33 -13.5 61.5t-37.5 49.5
t-57.5 32.5t-72.5 11.5h-33v45h33q35 0 64.5 10t50.5 28t33 42.5t12 53.5t-12 53.5t-33 42.5t-50.5 28t-64.5 10q-48 0 -89 -23t-61 -68l-53 5q8 29 27.5 53.5t46.5 42t60 27.5t69 10q46 0 85 -13.5t67 -38t43.5 -57.5t15.5 -72z" />
    <glyph glyph-name="four" unicode="4" horiz-adv-x="606" 
d="M398 170h-377v49l256 481h57l-255 -481h319v204h52v-204h96v-49h-96v-170h-52v170z" />
    <glyph glyph-name="five" unicode="5" horiz-adv-x="606" 
d="M513 222q0 -115 -58.5 -173.5t-171.5 -58.5q-91 0 -148.5 38.5t-77.5 112.5l50 7q21 -59 66 -84.5t110 -25.5q89 0 134.5 46.5t45.5 137.5q0 72 -45.5 108t-134.5 36h-175v2l-19 -2l43 334h363v-49h-320l-31 -239h139q113 0 171.5 -47.5t58.5 -142.5z" />
    <glyph glyph-name="six" unicode="6" horiz-adv-x="606" 
d="M283 468q55 0 101.5 -18.5t80.5 -50.5t53 -75.5t19 -95.5t-19 -95.5t-53 -75.5t-80.5 -50t-101.5 -18t-102 18t-80.5 50t-52.5 75.5t-19 95.5q0 33 8 63t22 56l1 1q4 9 11 18l212 334h60l-156 -247q44 15 96 15zM283 419q-43 0 -80 -14.5t-64 -40.5t-42 -60.5t-15 -75.5
q0 -40 15 -75t42 -60t64 -39.5t80 -14.5q44 0 80.5 14.5t63.5 40t42 60t15 74.5q0 41 -15 75.5t-42 60.5t-64 40.5t-80 14.5z" />
    <glyph glyph-name="seven" unicode="7" horiz-adv-x="606" 
d="M476 651h-434v49h494v-43l-294 -657h-56z" />
    <glyph glyph-name="eight" unicode="8" horiz-adv-x="606" 
d="M288 -11q-109 0 -171 54.5t-62 150.5q0 66 31.5 112t89.5 68q-48 20 -73.5 59t-25.5 96q0 85 56 133.5t155 48.5t155 -48.5t56 -133.5q0 -57 -25.5 -96.5t-73.5 -59.5q57 -22 88.5 -67.5t31.5 -111.5q0 -96 -61.5 -150.5t-170.5 -54.5zM288 663q-75 0 -117.5 -36
t-42.5 -98t42.5 -97.5t117.5 -35.5t117.5 35.5t42.5 97.5t-42.5 98t-117.5 36zM288 351q-85 0 -134 -41.5t-49 -114.5q0 -72 49.5 -115t133.5 -43t133 43t49 115q0 73 -48.5 114.5t-133.5 41.5z" />
    <glyph glyph-name="nine" unicode="9" horiz-adv-x="606" 
d="M280 232q-55 1 -101.5 19t-80.5 50t-53 76t-19 95q0 52 19 96t53 75.5t80.5 49.5t101.5 18q56 0 102.5 -18t80 -49.5t52.5 -75.5t19 -96q0 -66 -31 -120v-1q-3 -5 -5.5 -8.5t-5.5 -8.5l-212 -334h-60l156 248q-42 -16 -96 -16zM280 281q43 0 80 14.5t64 40.5t42 61t15 75
q0 41 -15 75.5t-42 59.5t-64 39.5t-80 14.5t-80 -14.5t-64 -40t-42 -60t-15 -74.5t15 -75t42 -61t64 -40.5t80 -14.5z" />
    <glyph glyph-name="colon" unicode=":" horiz-adv-x="209" 
d="M56 445q0 21 11.5 32t31.5 11q42 0 42 -43t-42 -43q-43 0 -43 43zM56 35q0 21 11.5 32.5t31.5 11.5q42 0 42 -44q0 -43 -42 -43q-43 0 -43 43z" />
    <glyph glyph-name="semicolon" unicode=";" horiz-adv-x="217" 
d="M64 445q0 21 11.5 32t31.5 11q42 0 42 -43t-42 -43q-43 0 -43 43zM64 -94l39 87q-39 3 -39 42q0 21 11.5 32.5t31.5 11.5t32 -13t12 -33q-1 -25 -9 -45t-25 -52l-28 -50z" />
    <glyph glyph-name="less" unicode="&#x3c;" horiz-adv-x="496" 
d="M29 317v35l438 228v-47l-387 -199l387 -197v-47z" />
    <glyph glyph-name="equal" unicode="=" horiz-adv-x="496" 
d="M29 412v40h438v-40h-438zM29 216v40h438v-40h-438z" />
    <glyph glyph-name="greater" unicode="&#x3e;" horiz-adv-x="496" 
d="M29 90v47l387 197l-387 199v47l438 -228v-35z" />
    <glyph glyph-name="question" unicode="?" horiz-adv-x="465" 
d="M196 171v116q0 34 13 57.5t32.5 42.5t42.5 35.5t42.5 34.5t32.5 41t13 54q0 47 -35.5 78.5t-101.5 31.5q-63 0 -104.5 -23t-73.5 -68l-34 35q77 105 215 105q44 0 79 -12t59.5 -33t38 -49t13.5 -60q0 -37 -13.5 -64.5t-34 -49t-44.5 -39t-44.5 -35.5t-34 -38.5
t-13.5 -46.5v-113h-48zM189 26q0 33 34 33q32 0 32 -33q0 -34 -32 -34q-34 0 -34 34z" />
    <glyph glyph-name="at" unicode="@" horiz-adv-x="929" 
d="M632 164q0 -46 25.5 -68t60.5 -22q20 0 37 14t29.5 39t19.5 59t7 74q0 79 -26.5 145.5t-74 114.5t-113.5 75t-144 27t-144.5 -27t-115.5 -75.5t-77 -115t-29 -144.5q-1 -79 26 -145.5t76 -114.5t117.5 -75t149.5 -27q34 0 75.5 11.5t73.5 29.5l24 -33q-15 -11 -35.5 -20
t-43.5 -16t-47 -11t-47 -4q-90 -2 -165.5 28t-130.5 84t-85.5 129t-30.5 164q0 88 30.5 162t85 127.5t129.5 83.5t164 30q87 0 160.5 -30t126 -83t82 -127t29.5 -163q0 -50 -10 -91.5t-28 -71t-42 -46t-52 -16.5q-48 0 -85 26t-44 79q-26 -37 -67 -58.5t-92 -21.5
q-41 0 -75.5 15t-59.5 41.5t-39 63t-14 79.5q0 44 14 80.5t39 63t59.5 41.5t75.5 15q51 0 91.5 -21t66.5 -57v68h43v-285zM433 104q34 0 62.5 11.5t49.5 32t32.5 49t11.5 62.5t-11.5 63t-32.5 50t-49.5 32.5t-62.5 11.5q-32 0 -58.5 -11.5t-46 -32.5t-30 -50t-10.5 -63
t10.5 -62.5t30 -49t46 -32t58.5 -11.5z" />
    <glyph glyph-name="A" unicode="A" horiz-adv-x="656" 
d="M285 700h57l267 -700h-55l-68 179h-343l-69 -179h-56zM467 227l-153 401l-153 -401h306z" />
    <glyph glyph-name="B" unicode="B" horiz-adv-x="629" 
d="M83 0v700h272q37 0 69 -14t56 -38.5t38 -57t14 -69.5q0 -48 -22.5 -89t-59.5 -67q48 -24 77.5 -70.5t29.5 -102.5q0 -39 -14.5 -74t-40 -61t-60 -41.5t-73.5 -15.5h-286zM355 384q26 0 49 11t40.5 30t28 43.5t10.5 51.5t-10.5 50.5t-28 41t-40.5 28t-49 10.5h-220v-266
h220zM369 51q29 0 53.5 11.5t43.5 30.5t29.5 45t10.5 54q0 29 -10.5 54.5t-29.5 45t-43.5 31t-53.5 11.5h-234v-283h234z" />
    <glyph glyph-name="C" unicode="C" horiz-adv-x="790" 
d="M48 349q0 75 28.5 140.5t77.5 114.5t114.5 77.5t140.5 28.5q50 0 97 -13.5t87.5 -37.5t73.5 -58t56 -75l-45 -24q-41 70 -111.5 113t-157.5 43q-64 0 -120.5 -24t-98.5 -66t-66.5 -98.5t-24.5 -120.5t24.5 -120.5t66.5 -98.5t98.5 -66t120.5 -24q87 0 157.5 43t111.5 114
l45 -25q-23 -41 -56 -75t-73.5 -58t-87.5 -37.5t-97 -13.5q-75 0 -140.5 28.5t-114.5 77.5t-77.5 114.5t-28.5 140.5z" />
    <glyph glyph-name="D" unicode="D" horiz-adv-x="754" 
d="M83 700h236q75 0 140 -27t113.5 -74t76.5 -111t28 -139t-28 -138.5t-76.5 -110.5t-113.5 -73.5t-140 -26.5h-236v700zM135 651v-602h184q64 0 120 23t97 63t65 95t24 119t-23.5 119.5t-65 96t-97 63.5t-120.5 23h-184z" />
    <glyph glyph-name="E" unicode="E" horiz-adv-x="538" 
d="M83 700h379v-49h-328v-275h303v-48h-303v-279h332v-49h-383v700z" />
    <glyph glyph-name="F" unicode="F" horiz-adv-x="535" 
d="M83 700h380v-49h-328v-281h314v-49h-314v-321h-52v700z" />
    <glyph glyph-name="G" unicode="G" horiz-adv-x="827" 
d="M48 349q0 75 28.5 140.5t77.5 114.5t114.5 77.5t140.5 28.5q50 0 95.5 -13t85.5 -36.5t72.5 -56t56.5 -72.5l-43 -29q-20 35 -48 63.5t-62.5 48.5t-74 31.5t-82.5 11.5q-64 0 -120.5 -24t-98.5 -66t-66.5 -98.5t-24.5 -120.5t24.5 -120.5t66.5 -98.5t98.5 -66t120.5 -24
q62 0 114 18t90.5 49.5t61.5 75.5t26 96h-305v49h357v-36q0 -62 -26 -117t-72 -96.5t-109 -66t-137 -24.5q-75 0 -140.5 28.5t-114.5 77.5t-77.5 114.5t-28.5 140.5z" />
    <glyph glyph-name="H" unicode="H" horiz-adv-x="706" 
d="M83 700h52v-317h406v317h52v-700h-52v335h-406v-335h-52v700z" />
    <glyph glyph-name="I" unicode="I" horiz-adv-x="248" 
d="M83 700h52v-700h-52v700z" />
    <glyph glyph-name="J" unicode="J" horiz-adv-x="579" 
d="M423 699h52v-497q0 -50 -16.5 -89.5t-46.5 -67t-70.5 -42t-88.5 -14.5q-149 0 -213 119l41 26q32 -53 71.5 -75t101.5 -22q36 0 66.5 10t53.5 30.5t36 51.5t13 73v497z" />
    <glyph glyph-name="K" unicode="K" horiz-adv-x="613" 
d="M508 0l-298 342l-75 -75v-267h-52v700h52v-359l361 359h71l-321 -321l328 -377z" />
    <glyph glyph-name="L" unicode="L" horiz-adv-x="530" 
d="M83 700h52v-651h341v-49h-393v700z" />
    <glyph glyph-name="M" unicode="M" horiz-adv-x="823" 
d="M397 267l255 433l6 -1v1h52v-700h-52v611l-254 -430h-14l-255 432v-614h-52v700h52v-1l7 2z" />
    <glyph glyph-name="N" unicode="N" horiz-adv-x="698" 
d="M83 700h53l397 -604v604h51v-700h-48l-401 616v-616h-52v700z" />
    <glyph glyph-name="O" unicode="O" horiz-adv-x="847" 
d="M409 -12q-75 0 -140.5 28.5t-114.5 77.5t-77.5 114.5t-28.5 140.5t28.5 140.5t77.5 114.5t114.5 77.5t140.5 28.5t140.5 -28.5t114.5 -77.5t77.5 -114.5t28.5 -140.5t-28.5 -140.5t-77.5 -114.5t-114.5 -77.5t-140.5 -28.5zM409 40q64 0 120.5 24t98.5 66t66 98.5
t24 120.5t-24 120.5t-66 98.5t-98.5 66t-120.5 24t-120.5 -24t-98.5 -66t-66.5 -98.5t-24.5 -120.5t24.5 -120.5t66.5 -98.5t98.5 -66t120.5 -24z" />
    <glyph glyph-name="P" unicode="P" horiz-adv-x="594" 
d="M135 276v-276h-52v700h227q44 0 82.5 -16.5t67.5 -45.5t45.5 -67.5t16.5 -82.5t-16.5 -82.5t-45.5 -67.5t-67.5 -45.5t-82.5 -16.5h-175zM310 326q33 0 62.5 13t51.5 35t35 51.5t13 62.5t-13 62.5t-35 51.5t-51.5 35t-62.5 13h-175v-324h175z" />
    <glyph glyph-name="Q" unicode="Q" horiz-adv-x="854" 
d="M409 -12q-75 0 -140.5 28.5t-114.5 77.5t-77.5 114.5t-28.5 140.5t28.5 140.5t77.5 114.5t114.5 77.5t140.5 28.5t140.5 -28.5t114.5 -77.5t77.5 -114.5t28.5 -140.5q0 -77 -29.5 -143.5t-80.5 -115.5l72 -72l-37 -37l-75 75q-45 -32 -98.5 -50t-112.5 -18zM409 40
q48 0 92 13.5t82 39.5l-112 112l36 37l116 -116q45 42 70 99.5t25 123.5q0 64 -24 120.5t-66 98.5t-98.5 66t-120.5 24t-120.5 -24t-98.5 -66t-66.5 -98.5t-24.5 -120.5t24.5 -120.5t66.5 -98.5t98.5 -66t120.5 -24z" />
    <glyph glyph-name="R" unicode="R" horiz-adv-x="631" 
d="M134 276v-276h-51v700h259q44 0 82.5 -16.5t67.5 -45.5t45.5 -67.5t16.5 -82.5q0 -35 -10.5 -66.5t-29 -57.5t-44.5 -45.5t-57 -30.5l165 -288h-59l-160 276h-17h-208zM342 326q33 0 62.5 13t51.5 35t34.5 51.5t12.5 62.5t-12.5 62.5t-34.5 51.5t-51.5 35t-62.5 13h-208
v-324h208z" />
    <glyph glyph-name="S" unicode="S" horiz-adv-x="614" 
d="M305 -11q-103 0 -171 45.5t-93 120.5l48 26q20 -61 75 -101.5t142 -40.5q48 0 83 12.5t57.5 33.5t33.5 47t11 53q0 29 -15.5 51t-42 39.5t-62.5 31t-77 25.5q-44 14 -84.5 28t-71.5 34t-49.5 50t-18.5 76q0 44 17 79.5t47 60.5t70 38t86 13q88 0 146.5 -42.5t86.5 -105.5
l-48 -23q-22 54 -68.5 87.5t-116.5 33.5q-42 0 -73 -12t-52 -31.5t-31.5 -45t-10.5 -51.5q0 -33 14.5 -54.5t40 -36.5t59 -26.5t71.5 -23.5q47 -15 89.5 -30t75 -36t52 -52t19.5 -78q0 -44 -17.5 -80t-49 -61.5t-75.5 -39.5t-97 -14z" />
    <glyph glyph-name="T" unicode="T" horiz-adv-x="572" 
d="M245 651h-222v49h496v-49h-222v-651h-52v651z" />
    <glyph glyph-name="U" unicode="U" horiz-adv-x="679" 
d="M74 700h52v-463q0 -43 13 -79.5t37.5 -62.5t61.5 -40.5t85 -14.5q49 0 86.5 14.5t62.5 40.5t38 62.5t13 79.5v463h52v-463q0 -55 -17.5 -101t-50.5 -78.5t-79.5 -50.5t-104.5 -18t-104 18t-78 50.5t-49.5 78.5t-17.5 101v463z" />
    <glyph glyph-name="V" unicode="V" horiz-adv-x="640" 
d="M13 700h56l237 -631l237 631h55l-264 -700h-56z" />
    <glyph glyph-name="W" unicode="W" horiz-adv-x="987" 
d="M31 700h53l177 -626l189 626h57l189 -626l177 626h54l-200 -700h-61l-187 615l-188 -615h-61z" />
    <glyph glyph-name="X" unicode="X" horiz-adv-x="608" 
d="M492 0l-203 314l-203 -314h-63l232 357l-223 343h63l194 -300l194 300h62l-222 -343l231 -357h-62z" />
    <glyph glyph-name="Y" unicode="Y" horiz-adv-x="613" 
d="M266 279l-257 421h59l224 -364l223 364h59l-257 -421v-279h-51v279z" />
    <glyph glyph-name="Z" unicode="Z" horiz-adv-x="558" 
d="M425 651h-374v49h435v-43l-381 -608h389v-49h-450v43z" />
    <glyph glyph-name="bracketleft" unicode="[" horiz-adv-x="225" 
d="M208 -38v-40h-171v868h171v-40h-130v-788h130z" />
    <glyph glyph-name="backslash" unicode="\" horiz-adv-x="287" 
d="M0 687h50l237 -707h-50z" />
    <glyph glyph-name="bracketright" unicode="]" horiz-adv-x="225" 
d="M189 790v-868h-172v40h130v788h-130v40h172z" />
    <glyph glyph-name="asciicircum" unicode="^" horiz-adv-x="427" 
d="M363 333l-149 296l-149 -296h-46l175 334h39l175 -334h-45z" />
    <glyph glyph-name="underscore" unicode="_" horiz-adv-x="564" 
d="M567 -40v-41h-570v41h570z" />
    <glyph glyph-name="grave" unicode="`" horiz-adv-x="214" 
d="M59 700l155 -144h-41l-173 144h59z" />
    <glyph glyph-name="a" unicode="a" horiz-adv-x="627" 
d="M488 121q-29 -59 -82 -96t-125 -37q-54 0 -98 20.5t-75.5 55.5t-48.5 83t-17 102t17 102t48.5 83t75.5 55.5t98 20.5q72 0 125 -37t82 -96v123h49v-500h-49v121zM281 36q44 0 82 16.5t65.5 45t43.5 67.5t16 84t-16 84t-43.5 67.5t-65.5 45t-82 16.5q-43 0 -78.5 -17
t-60.5 -46t-38.5 -67.5t-13.5 -82.5t13.5 -82.5t38.5 -67.5t60.5 -46t78.5 -17z" />
    <glyph glyph-name="b" unicode="b" horiz-adv-x="635" 
d="M59 700h49v-324q29 60 82.5 97t125.5 37q54 0 98 -20.5t75.5 -55.5t48.5 -83t17 -102t-17 -102t-48.5 -83t-75.5 -55.5t-98 -20.5q-72 0 -125.5 37t-82.5 97v-122h-49v700zM315 36q44 0 79 17t60.5 46t39 67.5t13.5 82.5t-13.5 82.5t-39 67.5t-60.5 46t-79 17
q-43 0 -81 -16.5t-65.5 -45t-43.5 -67.5t-16 -84t16 -84t43.5 -67.5t65.5 -45t81 -16.5z" />
    <glyph glyph-name="c" unicode="c" horiz-adv-x="574" 
d="M513 96q-36 -48 -90.5 -77.5t-119.5 -29.5q-54 0 -102 20.5t-83 56t-55.5 83t-20.5 101.5t20.5 101t55.5 82.5t83 56t102 20.5q64 0 118.5 -28.5t90.5 -76.5l-40 -28q-30 39 -74 62t-95 23q-44 0 -82.5 -16.5t-67.5 -45.5t-45.5 -67.5t-16.5 -82.5t16.5 -82.5t45.5 -67.5
t67.5 -45.5t82.5 -16.5q52 0 96 23t73 62z" />
    <glyph glyph-name="d" unicode="d" horiz-adv-x="626" 
d="M537 0h-49v121q-29 -59 -82 -96t-125 -37q-54 0 -98 20.5t-75.5 55.5t-48.5 83t-17 102t17 102t48.5 83t75.5 55.5t98 20.5q72 0 125 -37t82 -96v323h49v-700zM281 36q44 0 82 16.5t65.5 45t43.5 67.5t16 84t-16 84t-43.5 67.5t-65.5 45t-82 16.5q-43 0 -78.5 -17
t-60.5 -46t-38.5 -67.5t-13.5 -82.5t13.5 -82.5t38.5 -67.5t60.5 -46t78.5 -17z" />
    <glyph glyph-name="e" unicode="e" horiz-adv-x="617" 
d="M302 511q57 0 102.5 -21.5t78 -58t50 -84t17.5 -99.5q0 -7 -0.5 -10t-1.5 -11h-456q2 -39 18 -74t44 -61.5t67 -42t87 -15.5q28 0 55 7t50.5 19.5t42 29t28.5 34.5l41 -24q-32 -51 -88 -81t-130 -30q-58 0 -107 19.5t-84 54.5t-54.5 82.5t-19.5 104.5q0 55 19 102.5
t53.5 83t82 55.5t105.5 20zM502 271q-10 91 -61.5 143t-139.5 52q-47 0 -85.5 -16.5t-66 -43.5t-42.5 -62t-15 -73h410z" />
    <glyph glyph-name="f" unicode="f" horiz-adv-x="344" 
d="M128 454h-100v46h100v66q0 83 30.5 114t90.5 31q14 0 30.5 -1.5t33.5 -3.5v-45q-16 2 -29.5 3t-25.5 1q-43 0 -62 -21t-19 -80v-64h135v-46h-135v-454h-49v454z" />
    <glyph glyph-name="g" unicode="g" horiz-adv-x="635" 
d="M496 121q-29 -59 -82.5 -96t-125.5 -37q-54 0 -98 20.5t-75.5 55.5t-48.5 83t-17 102t17 102t48.5 83t75.5 55.5t98 20.5q72 0 125.5 -37t82.5 -96v123h48v-476q0 -56 -19.5 -99.5t-54 -73.5t-81 -46t-99.5 -16q-88 0 -150.5 32.5t-89.5 87.5l42 24q9 -19 25.5 -36.5
t41 -31.5t57.5 -22.5t75 -8.5q44 0 81.5 13.5t65 38.5t43 60t15.5 78v97zM289 36q44 0 81.5 16.5t65.5 45t44 67.5t16 84t-16 84t-44 67.5t-65.5 45t-81.5 16.5q-43 0 -78.5 -17t-60.5 -46t-38.5 -67.5t-13.5 -82.5t13.5 -82.5t38.5 -67.5t60.5 -46t78.5 -17z" />
    <glyph glyph-name="h" unicode="h" horiz-adv-x="561" 
d="M59 700h49v-270q23 32 64 56t94 24q27 0 62.5 -8.5t67 -31.5t54 -64t22.5 -107v-299h-49v298q0 50 -16 82.5t-40 51t-52.5 25.5t-54.5 7q-20 0 -43 -5.5t-44 -19t-38.5 -36t-26.5 -57.5v-346h-49v700z" />
    <glyph glyph-name="i" unicode="i" horiz-adv-x="219" 
d="M94 650q-14 0 -25.5 10.5t-11.5 25.5t11.5 26t25.5 11q15 0 25.5 -11t10.5 -26t-10.5 -25.5t-25.5 -10.5zM69 500h49v-500h-49v500z" />
    <glyph glyph-name="j" unicode="j" horiz-adv-x="259" 
d="M135 643q-16 0 -25.5 9t-9.5 25t9.5 25.5t25.5 9.5t25.5 -9.5t9.5 -25.5t-9.5 -25t-25.5 -9zM109 500h49v-550q0 -83 -46.5 -126t-131.5 -35v46q69 -8 99 22t30 93v550z" />
    <glyph glyph-name="k" unicode="k" horiz-adv-x="512" 
d="M59 700h49v-497l275 297h68l-211 -227l220 -273h-64l-190 237l-98 -107v-130h-49v700z" />
    <glyph glyph-name="l" unicode="l" horiz-adv-x="229" 
d="M171 0q-10 -2 -20.5 -3t-21.5 -1q-13 0 -25.5 3t-22.5 11t-16 22.5t-6 37.5v630h49v-629q0 -17 7.5 -23t21.5 -6q15 0 34 3v-45z" />
    <glyph glyph-name="m" unicode="m" horiz-adv-x="925" 
d="M835 0h-48v299q0 50 -16 82t-40 51t-52.5 26t-54.5 7q-24 0 -51 -8t-49.5 -29t-37 -57t-14.5 -93v-278h-49v299q0 50 -16 82t-40 51t-52.5 26t-54.5 7q-24 0 -51 -8t-49.5 -29t-37 -57t-14.5 -93v-278h-49v500h49v-76q21 35 61.5 61t96.5 26q22 0 49 -5t54 -18.5
t50.5 -37t37.5 -59.5q6 22 21 43.5t37.5 38.5t51.5 27.5t63 10.5q27 0 62.5 -8.5t67 -31.5t53.5 -64.5t22 -107.5v-299z" />
    <glyph glyph-name="n" unicode="n" horiz-adv-x="569" 
d="M480 0h-49v299q0 50 -16 82t-40 51t-52.5 26t-54.5 7q-24 0 -52 -8t-52 -29t-40 -57t-16 -93v-278h-49v500h49v-82q22 37 65.5 65t100.5 28q27 0 62.5 -8.5t67.5 -31.5t54 -64.5t22 -107.5v-299z" />
    <glyph glyph-name="o" unicode="o" horiz-adv-x="634" 
d="M303 -11q-54 0 -102 20.5t-83 56t-55.5 83t-20.5 101.5t20.5 101t55.5 82.5t83 56t102 20.5t101 -20.5t82 -56t55.5 -82.5t20.5 -101t-20.5 -101.5t-55.5 -83t-82 -56t-101 -20.5zM302 38q44 0 82.5 16.5t67.5 45.5t45.5 67.5t16.5 82.5t-16.5 82.5t-45.5 67.5
t-67.5 45.5t-82.5 16.5t-82.5 -16.5t-67.5 -45.5t-45.5 -67.5t-16.5 -82.5t16.5 -82.5t45.5 -67.5t67.5 -45.5t82.5 -16.5z" />
    <glyph glyph-name="p" unicode="p" horiz-adv-x="626" 
d="M59 500h49v-122q29 59 82.5 96t125.5 37q54 0 97.5 -20.5t75 -55.5t48.5 -83t17 -102t-17 -102t-48.5 -83t-75 -55.5t-97.5 -20.5q-72 0 -125.5 37t-82.5 96v-322h-49v700zM315 464q-44 0 -82 -16.5t-65.5 -45.5t-43.5 -68t-16 -84t16 -84t43.5 -67.5t65.5 -45t82 -16.5
t79 17t60 46t38.5 67.5t13.5 82.5t-13.5 83t-38.5 68t-60 46t-79 17z" />
    <glyph glyph-name="q" unicode="q" horiz-adv-x="626" 
d="M537 -186l-49 -14v322q-29 -59 -82 -96t-125 -37q-54 0 -98 20.5t-75.5 55.5t-48.5 83t-17 102t17 102t48.5 83t75.5 55.5t98 20.5q72 0 125 -37t82 -96v122h49v-686zM281 464q-43 0 -78.5 -17t-60.5 -46t-38.5 -68t-13.5 -83t13.5 -82.5t38.5 -67.5t60.5 -46t78.5 -17
q44 0 82 16.5t65.5 45t43.5 67.5t16 84t-16 84t-43.5 68t-65.5 45.5t-82 16.5z" />
    <glyph glyph-name="r" unicode="r" horiz-adv-x="337" 
d="M279 452q-4 1 -8 1h-8q-28 0 -56.5 -7.5t-51.5 -26t-37 -49t-14 -77.5v-293h-49v500h49v-93q16 38 57.5 65.5t104.5 27.5h9t10 -1zM94 275v0v0z" />
    <glyph glyph-name="s" unicode="s" horiz-adv-x="495" 
d="M107 367q0 -30 23.5 -46.5t58.5 -27.5t76 -20t76 -24.5t58.5 -42t23.5 -72.5q0 -32 -14 -59t-38.5 -46t-58.5 -29.5t-75 -10.5q-76 0 -126 31t-70 81l42 22q18 -47 59 -68.5t95 -21.5q27 0 51.5 6.5t44 19.5t31 31.5t11.5 43.5q0 34 -23.5 52.5t-58.5 30t-76.5 20
t-76.5 23t-58.5 39t-23.5 67.5q0 31 13 57.5t36.5 46t55.5 30.5t71 11q62 0 107.5 -26.5t67.5 -73.5l-41 -22q-15 37 -49.5 58t-84.5 21q-60 0 -93.5 -28t-33.5 -73z" />
    <glyph glyph-name="t" unicode="t" horiz-adv-x="405" 
d="M334 0q-18 -2 -34 -3.5t-30 -1.5q-30 0 -53 7t-38 24t-22.5 44.5t-7.5 69.5v314h-126v46h126v150l48 19v-169h135v-46h-135v-313q0 -58 19.5 -79t62.5 -21q11 0 25 1t30 3v-45z" />
    <glyph glyph-name="u" unicode="u" horiz-adv-x="566" 
d="M61 500h48v-299q0 -50 16 -82t40 -51t53 -26t54 -7t53 8t52 29t39.5 57t15.5 93v278h49v-500h-49v81q-22 -36 -65 -64t-101 -28q-27 0 -62.5 8.5t-67 31.5t-53.5 64.5t-22 107.5v299z" />
    <glyph glyph-name="v" unicode="v" horiz-adv-x="531" 
d="M13 500h53l184 -448l185 448h53l-206 -500h-63z" />
    <glyph glyph-name="w" unicode="w" horiz-adv-x="785" 
d="M29 500h51l130 -433l134 433h55l138 -429l137 429h52l-162 -500h-54l-138 425l-137 -425h-52z" />
    <glyph glyph-name="x" unicode="x" horiz-adv-x="519" 
d="M214 250l-192 250h61l162 -210l161 210h62l-193 -250l193 -250h-60l-163 211l-163 -211h-60z" />
    <glyph glyph-name="y" unicode="y" horiz-adv-x="531" 
d="M246 3l-233 497h53l205 -432l165 432h52l-204 -535q-32 -78 -85 -124.5t-124 -40.5v47q30 -3 55.5 8t45.5 30t35.5 44.5t26.5 52.5z" />
    <glyph glyph-name="z" unicode="z" horiz-adv-x="523" 
d="M441 500v-32h-1l1 -1l-319 -419h329v-48h-400v32l320 421h-310v47h380z" />
    <glyph glyph-name="braceleft" unicode="{" horiz-adv-x="247" 
d="M6 373q26 0 39 21t13 50v222q0 27 9 49.5t24.5 38.5t35.5 25t41 9h62v-40h-62q-27 0 -47.5 -23.5t-20.5 -58.5v-224q0 -69 -45 -88q45 -19 45 -87v-225q0 -35 20.5 -58t47.5 -23h62v-41h-62q-21 0 -41 9t-35.5 25.5t-24.5 38.5t-9 49v222q0 30 -13 50.5t-39 20.5v38z" />
    <glyph glyph-name="bar" unicode="|" horiz-adv-x="208" 
d="M84 -80v827h40v-827h-40z" />
    <glyph glyph-name="braceright" unicode="}" horiz-adv-x="247" 
d="M241 335q-26 0 -39 -20.5t-13 -50.5v-222q0 -27 -9 -49t-24.5 -38.5t-35.5 -25.5t-41 -9h-62v41h62q27 0 47.5 23t20.5 58v225q0 68 45 87q-45 19 -45 88v224q0 35 -20.5 58.5t-47.5 23.5h-62v40h62q21 0 41 -9t35.5 -25t24.5 -38.5t9 -49.5v-222q0 -29 13 -50t39 -21
v-38z" />
    <glyph glyph-name="asciitilde" unicode="~" horiz-adv-x="499" 
d="M471 663q-4 -44 -12 -86t-23 -75t-39 -53t-59 -20q-29 0 -47.5 14.5t-30.5 36.5t-20.5 47.5t-18.5 47.5t-23.5 36.5t-36.5 14.5q-38 0 -60.5 -51.5t-31.5 -147.5l-41 6q5 52 14 94.5t25 73t39 47.5t55 17q30 0 49 -14.5t31.5 -36.5t21.5 -48t18.5 -48t22.5 -36.5
t34 -14.5q25 0 41 18t26.5 46.5t16 64t8.5 71.5z" />
    <glyph glyph-name="uni00A0" unicode="&#xa0;" horiz-adv-x="259" 
 />
    <glyph glyph-name="exclamdown" unicode="&#xa1;" horiz-adv-x="217" 
d="M67 451q0 43 43 43q20 0 31 -11.5t11 -31.5q0 -21 -11 -32.5t-31 -11.5q-43 0 -43 44zM90 317h38l12 -495h-63z" />
    <glyph glyph-name="cent" unicode="&#xa2;" horiz-adv-x="494" 
d="M55 242q0 50 14.5 93.5t41 76.5t64 54t83.5 27v72h42v-71q97 -4 158 -81l-34 -30q-46 64 -125 67v-417q78 2 125 68l34 -31q-61 -77 -158 -81v-89h-42v90q-46 6 -83.5 27t-64 54.5t-41 77t-14.5 93.5zM107 242q0 -41 10.5 -76.5t30.5 -63.5t48.5 -45.5t63.5 -22.5v414
q-38 -6 -66.5 -24t-48 -45.5t-29 -62.5t-9.5 -74z" />
    <glyph glyph-name="sterling" unicode="&#xa3;" horiz-adv-x="502" 
d="M18 267v40h130q-22 23 -40 43.5t-31 41.5t-20 43.5t-7 49.5q0 40 16.5 75t45.5 61t68.5 41t84.5 15q60 0 110 -28.5t76 -78.5l-43 -27q-7 18 -21 34t-32.5 28t-40.5 19t-46 7q-34 0 -63.5 -10.5t-51.5 -29.5t-34.5 -46t-12.5 -60q0 -30 5.5 -48.5t17.5 -36t31 -38
t45 -55.5h150v-40h-130q27 -52 6.5 -105t-73.5 -92q26 10 53 10q21 0 41.5 -7t39.5 -15.5t38 -15.5t37 -7q32 0 60.5 13.5t40.5 28.5l25 -44q-47 -47 -129 -47q-30 0 -51 7.5t-40 16.5t-38.5 16.5t-48.5 7.5q-20 0 -50 -10.5t-69 -30.5l-20 45q70 31 107 73.5t37 93.5
q0 31 -17 62h-156z" />
    <glyph glyph-name="currency" unicode="&#xa4;" horiz-adv-x="570" 
d="M285 101q-92 0 -153 58l-78 -77l-21 22l77 78q-24 32 -37 69.5t-13 81.5q0 89 51 152l-79 80l22 22l78 -80q61 57 153 57q90 0 152 -56l78 78l22 -22l-79 -79q51 -61 51 -152q0 -87 -50 -151l78 -78l-22 -22l-77 77q-63 -58 -153 -58zM285 133q44 0 78.5 16t59.5 43
t38 63.5t13 77.5t-13 77.5t-38 63.5t-59.5 42.5t-78.5 15.5q-43 0 -78 -16t-60 -43t-38.5 -63t-13.5 -77t13.5 -77.5t38.5 -63.5t60 -43t78 -16z" />
    <glyph glyph-name="yen" unicode="&#xa5;" horiz-adv-x="617" 
d="M282 0v126h-260v40h260v120h-260v39h232l-238 342h64l229 -331l227 331h65l-239 -342h234v-39h-261v-120h261v-40h-261v-126h-53z" />
    <glyph glyph-name="brokenbar" unicode="&#xa6;" horiz-adv-x="208" 
d="M124 687v-316h-40v316h40zM124 296v-316h-40v316h40z" />
    <glyph glyph-name="section" unicode="&#xa7;" horiz-adv-x="460" 
d="M404 310q0 -88 -97 -127q48 -18 72.5 -46.5t24.5 -75.5q0 -33 -13 -59.5t-37 -45t-57 -28t-73 -9.5q-67 0 -108.5 20.5t-75.5 56.5l30 34q27 -35 66 -53.5t88 -18.5q59 0 95.5 27t36.5 74q0 35 -22.5 54t-56.5 31t-73.5 21t-73.5 23.5t-56.5 39t-22.5 67.5
q0 51 34.5 83.5t89.5 45.5q-62 18 -93 46t-31 76q0 56 45 93.5t125 37.5q58 0 100.5 -18.5t71.5 -53.5l-28 -31q-49 64 -143 64q-54 0 -88.5 -25.5t-34.5 -67.5q0 -32 22.5 -49.5t56.5 -28.5t73.5 -20.5t73.5 -24.5t56.5 -41t22.5 -71zM356 308q0 44 -35.5 65.5t-92.5 35.5
q-72 -19 -100.5 -46t-28.5 -66q0 -23 14.5 -39.5t37.5 -28t52 -19.5t58 -13q95 41 95 111z" />
    <glyph glyph-name="dieresis" unicode="&#xa8;" horiz-adv-x="260" 
d="M268 601q0 -15 -11 -25.5t-25 -10.5t-25 10.5t-11 25.5q0 14 11 24.5t25 10.5t25 -10t11 -25zM64 601q0 -15 -10.5 -25.5t-25.5 -10.5q-14 0 -24.5 10.5t-10.5 25.5q0 14 10.5 24.5t24.5 10.5q15 0 25.5 -10t10.5 -25z" />
    <glyph glyph-name="copyright" unicode="&#xa9;" horiz-adv-x="778" 
d="M734 334q0 -72 -27 -134.5t-74 -109.5t-109.5 -74t-134.5 -27t-134.5 27.5t-109.5 74.5t-74 109.5t-27 133.5q0 72 27 134.5t74 109.5t109.5 74t134.5 27t134.5 -27t109.5 -73.5t74 -109.5t27 -135zM706 334q0 66 -25 123.5t-68 100.5t-100.5 68t-123.5 25
q-65 0 -123 -25t-101 -68t-68 -100.5t-25 -123.5q0 -65 25 -123t68 -101t101 -68t123 -25q66 0 123.5 25t100.5 68t68 101t25 123zM535 185q-57 -65 -145 -65q-43 0 -81 16.5t-66.5 46t-44.5 69t-16 84.5t16 84t44.5 67.5t66.5 45t81 16.5q89 0 145 -64l-22 -22
q-19 26 -53 41.5t-70 15.5t-68 -13.5t-56 -38t-38 -58.5t-14 -75q0 -40 14 -74t38 -59t56 -39t68 -14t70 16t53 42z" />
    <glyph glyph-name="ordfeminine" unicode="&#xaa;" horiz-adv-x="627" 
d="M488 121q-29 -59 -82 -96t-125 -37q-54 0 -98 20.5t-75.5 55.5t-48.5 83t-17 102t17 102t48.5 83t75.5 55.5t98 20.5q72 0 125 -37t82 -96v123h49v-500h-49v121zM281 36q44 0 82 16.5t65.5 45t43.5 67.5t16 84t-16 84t-43.5 67.5t-65.5 45t-82 16.5q-43 0 -78.5 -17
t-60.5 -46t-38.5 -67.5t-13.5 -82.5t13.5 -82.5t38.5 -67.5t60.5 -46t78.5 -17z" />
    <glyph glyph-name="guillemotleft" unicode="&#xab;" horiz-adv-x="395" 
d="M311 63l-160 180l160 177h54l-160 -177l160 -180h-54zM190 63l-160 180l160 177h54l-160 -177l160 -180h-54z" />
    <glyph glyph-name="logicalnot" unicode="&#xac;" horiz-adv-x="498" 
d="M467 216h-41v196h-397v40h438v-236z" />
    <glyph glyph-name="uni00AD" unicode="&#xad;" horiz-adv-x="300" 
d="M49 220v45h240v-45h-240z" />
    <glyph glyph-name="registered" unicode="&#xae;" horiz-adv-x="494" 
d="M459 465q0 -44 -16.5 -82.5t-45.5 -67.5t-67.5 -45.5t-82.5 -16.5t-82.5 16.5t-67.5 45.5t-45.5 67.5t-16.5 82.5t16.5 82.5t45.5 67.5t67.5 45.5t82.5 16.5q45 0 83.5 -16.5t67 -45t45 -67t16.5 -83.5zM432 465q0 39 -14.5 72.5t-39.5 58.5t-59 39.5t-72 14.5t-72 -14.5
t-59 -39.5t-39.5 -58.5t-14.5 -72.5q0 -38 14.5 -72t39.5 -59t59 -39.5t72 -14.5t72 14.5t59 39.5t39.5 59t14.5 72zM306 343l-63 96h-46v-96h-30v243h99q31 0 53 -20.5t22 -53.5q0 -18 -6.5 -31.5t-16 -22.5t-20.5 -13.5t-19 -4.5l65 -97h-38zM310 512q0 20 -14 33.5
t-30 13.5h-69v-91h69q16 0 30 13t14 31z" />
    <glyph glyph-name="macron" unicode="&#xaf;" horiz-adv-x="363" 
d="M0 582v36h363v-36h-363z" />
    <glyph glyph-name="degree" unicode="&#xb0;" horiz-adv-x="280" 
d="M255 561q0 -24 -9 -44.5t-25 -36t-36.5 -24.5t-44.5 -9t-45 9t-36.5 24.5t-24.5 36t-9 44.5t9 45t24.5 37t36.5 25t45 9t45 -9t36.5 -24.5t24.5 -36.5t9 -46zM218 561q0 16 -6.5 30.5t-17 25t-24.5 17t-30 6.5q-32 0 -54.5 -23.5t-22.5 -55.5t22.5 -54.5t54.5 -22.5
q31 0 54.5 22.5t23.5 54.5z" />
    <glyph glyph-name="plusminus" unicode="&#xb1;" horiz-adv-x="496" 
d="M269 323v-219h-42v219h-198v39h198v212h42v-212h198v-39h-198zM29 0v39h438v-39h-438z" />
    <glyph glyph-name="twosuperior" unicode="&#xb2;" horiz-adv-x="606" 
d="M52 24q5 44 20.5 89t41.5 84.5t61.5 72.5t79.5 53q39 18 74.5 34.5t63.5 36.5t44.5 48t16.5 69q0 38 -15.5 66.5t-39.5 47.5t-53.5 28.5t-57.5 9.5q-34 0 -66.5 -7.5t-58.5 -23.5t-44.5 -40t-23.5 -57l-50 6q6 43 29 75t56 53t74 31.5t84 10.5q39 0 78 -12.5t69.5 -37.5
t50 -62.5t19.5 -86.5q0 -52 -19 -87t-50.5 -60.5t-73 -45t-86.5 -40.5q-33 -16 -61 -40.5t-49.5 -55t-36 -65t-21.5 -69.5h422v-49h-478v24z" />
    <glyph glyph-name="threesuperior" unicode="&#xb3;" horiz-adv-x="606" 
d="M490 530q0 -52 -27 -92.5t-74 -63.5q56 -23 89 -70t33 -110q0 -45 -17.5 -82.5t-48.5 -64.5t-73.5 -42t-92.5 -15q-40 0 -76.5 11.5t-66.5 31.5t-51 48t-30 61l54 6q19 -51 66.5 -80.5t103.5 -29.5q39 0 72.5 12t57.5 33t37.5 50t13.5 63q0 33 -13.5 61.5t-37.5 49.5
t-57.5 32.5t-72.5 11.5h-33v45h33q35 0 64.5 10t50.5 28t33 42.5t12 53.5t-12 53.5t-33 42.5t-50.5 28t-64.5 10q-48 0 -89 -23t-61 -68l-53 5q8 29 27.5 53.5t46.5 42t60 27.5t69 10q46 0 85 -13.5t67 -38t43.5 -57.5t15.5 -72z" />
    <glyph glyph-name="acute" unicode="&#xb4;" horiz-adv-x="214" 
d="M155 700h59l-173 -144h-41z" />
    <glyph glyph-name="uni00B5" unicode="&#xb5;" horiz-adv-x="550" 
d="M130 -184h-48v667h48v-330q0 -123 120 -123q23 0 45.5 6.5t43.5 18t39 26.5t30 32v370h48v-398q0 -78 63 -70l-20 -24q-42 -4 -64.5 15t-26.5 66q-34 -39 -80 -60.5t-91 -21.5q-33 0 -61.5 13t-45.5 42v-229z" />
    <glyph glyph-name="paragraph" unicode="&#xb6;" horiz-adv-x="449" 
d="M330 -100v731h-95v-731h-36v423q-36 0 -67 13.5t-54.5 37t-37 54.5t-13.5 67t13.5 67t37 54.5t54.5 37t67 13.5h167v-767h-36z" />
    <glyph glyph-name="periodcentered" unicode="&#xb7;" horiz-adv-x="217" 
d="M71 280h76v-78h-76v78z" />
    <glyph glyph-name="cedilla" unicode="&#xb8;" horiz-adv-x="197" 
d="M96 -189q-61 0 -96 29l16 32q34 -29 80 -29q27 0 46 13t19 33q0 40 -41 40q-24 0 -41 -18l-26 16l31 84h36l-26 -68q15 12 37 12q29 0 47.5 -18t18.5 -48q0 -35 -29 -56.5t-72 -21.5z" />
    <glyph glyph-name="onesuperior" unicode="&#xb9;" horiz-adv-x="606" 
d="M95 630l178 70h52v-651h216v-49h-506v49h238v598l-158 -60z" />
    <glyph glyph-name="ordmasculine" unicode="&#xba;" horiz-adv-x="634" 
d="M303 -11q-54 0 -102 20.5t-83 56t-55.5 83t-20.5 101.5t20.5 101t55.5 82.5t83 56t102 20.5t101 -20.5t82 -56t55.5 -82.5t20.5 -101t-20.5 -101.5t-55.5 -83t-82 -56t-101 -20.5zM302 38q44 0 82.5 16.5t67.5 45.5t45.5 67.5t16.5 82.5t-16.5 82.5t-45.5 67.5
t-67.5 45.5t-82.5 16.5t-82.5 -16.5t-67.5 -45.5t-45.5 -67.5t-16.5 -82.5t16.5 -82.5t45.5 -67.5t67.5 -45.5t82.5 -16.5z" />
    <glyph glyph-name="guillemotright" unicode="&#xbb;" horiz-adv-x="395" 
d="M84 63h-54l160 180l-160 177h54l160 -177zM205 63h-54l160 180l-160 177h54l160 -177z" />
    <glyph glyph-name="questiondown" unicode="&#xbf;" horiz-adv-x="465" 
d="M284 429h-76v77h76v-77zM269 329v-76q0 -33 -13 -57t-32.5 -43.5t-42.5 -35.5t-42.5 -34.5t-32.5 -41t-13 -53.5q0 -47 35.5 -79t101.5 -32q63 0 104.5 23t73.5 68l34 -34q-76 -105 -215 -105q-43 0 -78.5 12t-60 32.5t-38 48.5t-13.5 61q0 37 13.5 64.5t34 49t44.5 39
t44.5 35.5t34 38t13.5 46v74h48z" />
    <glyph glyph-name="Agrave" unicode="&#xc0;" horiz-adv-x="656" 
d="M182 981l155 -144h-58l-160 144h63zM285 700h57l267 -700h-55l-68 179h-343l-69 -179h-56zM467 227l-153 401l-153 -401h306z" />
    <glyph glyph-name="Aacute" unicode="&#xc1;" horiz-adv-x="656" 
d="M449 979h62l-160 -144h-57zM285 700h57l267 -700h-55l-68 179h-343l-69 -179h-56zM467 227l-153 401l-153 -401h306z" />
    <glyph glyph-name="Acircumflex" unicode="&#xc2;" horiz-adv-x="656" 
d="M401 835l-87 114l-85 -114h-38l97 144h51l100 -144h-38zM285 700h57l267 -700h-55l-68 179h-343l-69 -179h-56zM467 227l-153 401l-153 -401h306z" />
    <glyph glyph-name="Atilde" unicode="&#xc3;" horiz-adv-x="656" 
d="M360 842q-27 0 -42.5 16.5t-27 36t-23.5 35.5t-33 16q-24 0 -39 -24t-15 -74h-34q0 59 24 96.5t68 37.5q27 0 42.5 -16t26.5 -35.5t23 -36t33 -16.5q25 0 40 24t15 74h34q0 -59 -24 -96.5t-68 -37.5zM285 700h57l267 -700h-55l-68 179h-343l-69 -179h-56zM467 227
l-153 401l-153 -401h306z" />
    <glyph glyph-name="Adieresis" unicode="&#xc4;" horiz-adv-x="656" 
d="M452 898q0 -14 -10.5 -25t-24.5 -11q-15 0 -25.5 11t-10.5 25t10.5 25t25.5 11q14 0 24.5 -10.5t10.5 -25.5zM248 898q0 -14 -10.5 -25t-24.5 -11q-15 0 -25.5 11t-10.5 25t10.5 25t25.5 11q14 0 24.5 -10.5t10.5 -25.5zM285 700h57l267 -700h-55l-68 179h-343l-69 -179
h-56zM467 227l-153 401l-153 -401h306z" />
    <glyph glyph-name="Aring" unicode="&#xc5;" horiz-adv-x="656" 
d="M314 805q-20 0 -37.5 7.5t-30.5 20.5t-20.5 30.5t-7.5 36.5q0 20 7.5 37t20.5 30t30.5 20.5t37.5 7.5t37 -7.5t29.5 -20.5t20 -30t7.5 -37q0 -19 -7 -36.5t-20 -30.5t-30 -20.5t-37 -7.5zM314 835q26 0 44.5 19t18.5 46q0 28 -18.5 46.5t-44.5 18.5q-28 0 -46.5 -19.5
t-18.5 -45.5t18.5 -45.5t46.5 -19.5zM285 700h57l267 -700h-55l-68 179h-343l-69 -179h-56zM467 227l-153 401l-153 -401h306z" />
    <glyph glyph-name="AE" unicode="&#xc6;" horiz-adv-x="853" 
d="M285 700h491v-49h-328v-275h303v-48h-303v-279h333v-49h-384v179h-254l-69 -179h-56zM397 227v424h-74l-162 -424h236z" />
    <glyph glyph-name="Ccedilla" unicode="&#xc7;" horiz-adv-x="790" 
d="M48 349q0 75 28.5 140.5t77.5 114.5t114.5 77.5t140.5 28.5q50 0 97 -13.5t87.5 -37.5t73.5 -58t56 -75l-45 -24q-41 70 -111.5 113t-157.5 43q-64 0 -120.5 -24t-98.5 -66t-66.5 -98.5t-24.5 -120.5t24.5 -120.5t66.5 -98.5t98.5 -66t120.5 -24q87 0 157.5 43t111.5 114
l45 -25q-45 -79 -123 -129t-174 -55l-22 -57q15 12 37 12q29 0 47.5 -18t18.5 -48q0 -35 -29 -56.5t-72 -21.5q-61 0 -96 29l16 31q34 -28 80 -28q27 0 46 13t19 33q0 40 -41 40q-24 0 -41 -18l-26 15l27 74q-72 4 -134 33.5t-108.5 78.5t-73 113t-26.5 136z" />
    <glyph glyph-name="Egrave" unicode="&#xc8;" horiz-adv-x="538" 
d="M145 980l155 -144h-58l-160 144h63zM83 700h379v-49h-328v-275h303v-48h-303v-279h332v-49h-383v700z" />
    <glyph glyph-name="Eacute" unicode="&#xc9;" horiz-adv-x="538" 
d="M412 978h62l-160 -144h-57zM83 700h379v-49h-328v-275h303v-48h-303v-279h332v-49h-383v700z" />
    <glyph glyph-name="Ecircumflex" unicode="&#xca;" horiz-adv-x="538" 
d="M364 834l-88 114l-84 -114h-38l97 144h51l100 -144h-38zM83 700h379v-49h-328v-275h303v-48h-303v-279h332v-49h-383v700z" />
    <glyph glyph-name="Edieresis" unicode="&#xcb;" horiz-adv-x="538" 
d="M415 897q0 -14 -10.5 -24.5t-25.5 -10.5q-14 0 -24.5 10.5t-10.5 24.5q0 15 10.5 25.5t24.5 10.5q15 0 25.5 -10t10.5 -26zM211 897q0 -14 -10.5 -24.5t-24.5 -10.5q-15 0 -25.5 10.5t-10.5 24.5q0 15 10.5 25.5t25.5 10.5q14 0 24.5 -10t10.5 -26zM83 700h379v-49h-328
v-275h303v-48h-303v-279h332v-49h-383v700z" />
    <glyph glyph-name="Igrave" unicode="&#xcc;" horiz-adv-x="248" 
d="M-21 981l155 -144h-58l-160 144h63zM83 700h52v-700h-52v700z" />
    <glyph glyph-name="Iacute" unicode="&#xcd;" horiz-adv-x="248" 
d="M246 979h62l-160 -144h-57zM83 700h52v-700h-52v700z" />
    <glyph glyph-name="Icircumflex" unicode="&#xce;" horiz-adv-x="248" 
d="M198 835l-87 114l-85 -114h-38l97 144h51l100 -144h-38zM83 700h52v-700h-52v700z" />
    <glyph glyph-name="Idieresis" unicode="&#xcf;" horiz-adv-x="248" 
d="M249 898q0 -14 -10.5 -25t-25.5 -11q-14 0 -24.5 11t-10.5 25t10.5 25t24.5 11q15 0 25.5 -10.5t10.5 -25.5zM45 898q0 -14 -10.5 -25t-24.5 -11q-15 0 -25.5 11t-10.5 25t10.5 25t25.5 11q14 0 24.5 -10.5t10.5 -25.5zM83 700h52v-700h-52v700z" />
    <glyph glyph-name="Eth" unicode="&#xd0;" horiz-adv-x="754" 
d="M83 324h-55v49h55v327h236q75 0 140 -27t113.5 -74t76.5 -111t28 -139t-28 -138.5t-76.5 -110.5t-113.5 -73.5t-140 -26.5h-236v324zM135 651v-278h187v-49h-187v-275h184q64 0 120 23t97 63t65 95t24 119t-23.5 119.5t-65 96t-97 63.5t-120.5 23h-184z" />
    <glyph glyph-name="Ntilde" unicode="&#xd1;" horiz-adv-x="698" 
d="M385 842q-27 0 -42.5 16.5t-26.5 36t-23 35.5t-33 16q-25 0 -40 -24t-15 -74h-34q0 59 24 96.5t68 37.5q27 0 42.5 -16t27 -35.5t23.5 -36t33 -16.5q24 0 39 24t15 74h34q0 -59 -24 -96.5t-68 -37.5zM83 700h53l397 -604v604h51v-700h-48l-401 616v-616h-52v700z" />
    <glyph glyph-name="Ograve" unicode="&#xd2;" horiz-adv-x="847" 
d="M277 991l155 -144h-57l-160 144h62zM409 -12q-75 0 -140.5 28.5t-114.5 77.5t-77.5 114.5t-28.5 140.5t28.5 140.5t77.5 114.5t114.5 77.5t140.5 28.5t140.5 -28.5t114.5 -77.5t77.5 -114.5t28.5 -140.5t-28.5 -140.5t-77.5 -114.5t-114.5 -77.5t-140.5 -28.5zM409 40
q64 0 120.5 24t98.5 66t66 98.5t24 120.5t-24 120.5t-66 98.5t-98.5 66t-120.5 24t-120.5 -24t-98.5 -66t-66.5 -98.5t-24.5 -120.5t24.5 -120.5t66.5 -98.5t98.5 -66t120.5 -24z" />
    <glyph glyph-name="Oacute" unicode="&#xd3;" horiz-adv-x="847" 
d="M544 988h63l-160 -144h-58zM409 -12q-75 0 -140.5 28.5t-114.5 77.5t-77.5 114.5t-28.5 140.5t28.5 140.5t77.5 114.5t114.5 77.5t140.5 28.5t140.5 -28.5t114.5 -77.5t77.5 -114.5t28.5 -140.5t-28.5 -140.5t-77.5 -114.5t-114.5 -77.5t-140.5 -28.5zM409 40
q64 0 120.5 24t98.5 66t66 98.5t24 120.5t-24 120.5t-66 98.5t-98.5 66t-120.5 24t-120.5 -24t-98.5 -66t-66.5 -98.5t-24.5 -120.5t24.5 -120.5t66.5 -98.5t98.5 -66t120.5 -24z" />
    <glyph glyph-name="Ocircumflex" unicode="&#xd4;" horiz-adv-x="847" 
d="M496 845l-87 114l-85 -114h-37l96 144h51l100 -144h-38zM409 -12q-75 0 -140.5 28.5t-114.5 77.5t-77.5 114.5t-28.5 140.5t28.5 140.5t77.5 114.5t114.5 77.5t140.5 28.5t140.5 -28.5t114.5 -77.5t77.5 -114.5t28.5 -140.5t-28.5 -140.5t-77.5 -114.5t-114.5 -77.5
t-140.5 -28.5zM409 40q64 0 120.5 24t98.5 66t66 98.5t24 120.5t-24 120.5t-66 98.5t-98.5 66t-120.5 24t-120.5 -24t-98.5 -66t-66.5 -98.5t-24.5 -120.5t24.5 -120.5t66.5 -98.5t98.5 -66t120.5 -24z" />
    <glyph glyph-name="Otilde" unicode="&#xd5;" horiz-adv-x="847" 
d="M455 852q-27 0 -42.5 16.5t-27 36t-23.5 35.5t-33 16q-24 0 -39 -24t-15 -74h-34q0 59 24 96.5t68 37.5q27 0 42.5 -16.5t27 -36t23 -36t32.5 -16.5q25 0 40 24t15 75h34q0 -59 -24 -96.5t-68 -37.5zM409 -12q-75 0 -140.5 28.5t-114.5 77.5t-77.5 114.5t-28.5 140.5
t28.5 140.5t77.5 114.5t114.5 77.5t140.5 28.5t140.5 -28.5t114.5 -77.5t77.5 -114.5t28.5 -140.5t-28.5 -140.5t-77.5 -114.5t-114.5 -77.5t-140.5 -28.5zM409 40q64 0 120.5 24t98.5 66t66 98.5t24 120.5t-24 120.5t-66 98.5t-98.5 66t-120.5 24t-120.5 -24t-98.5 -66
t-66.5 -98.5t-24.5 -120.5t24.5 -120.5t66.5 -98.5t98.5 -66t120.5 -24z" />
    <glyph glyph-name="Odieresis" unicode="&#xd6;" horiz-adv-x="847" 
d="M547 908q0 -15 -10.5 -25.5t-24.5 -10.5q-15 0 -25.5 10.5t-10.5 25.5q0 14 10.5 24.5t25.5 10.5q14 0 24.5 -10t10.5 -25zM344 908q0 -15 -11 -25.5t-25 -10.5t-25 10.5t-11 25.5q0 14 11 24.5t25 10.5t25 -10t11 -25zM409 -12q-75 0 -140.5 28.5t-114.5 77.5
t-77.5 114.5t-28.5 140.5t28.5 140.5t77.5 114.5t114.5 77.5t140.5 28.5t140.5 -28.5t114.5 -77.5t77.5 -114.5t28.5 -140.5t-28.5 -140.5t-77.5 -114.5t-114.5 -77.5t-140.5 -28.5zM409 40q64 0 120.5 24t98.5 66t66 98.5t24 120.5t-24 120.5t-66 98.5t-98.5 66t-120.5 24
t-120.5 -24t-98.5 -66t-66.5 -98.5t-24.5 -120.5t24.5 -120.5t66.5 -98.5t98.5 -66t120.5 -24z" />
    <glyph glyph-name="multiply" unicode="&#xd7;" horiz-adv-x="496" 
d="M428 182l-28 -28l-152 152l-152 -152l-28 28l152 152l-152 152l28 28l152 -152l152 152l28 -28l-152 -152z" />
    <glyph glyph-name="Oslash" unicode="&#xd8;" horiz-adv-x="847" 
d="M409 -12q-65 0 -122 21t-104 58l-53 -59l-28 27l52 58q-50 49 -78 115t-28 141t28.5 140.5t77.5 114.5t114.5 77.5t140.5 28.5q64 0 121 -21t104 -59l55 62l28 -26l-54 -61q50 -50 78.5 -115.5t28.5 -140.5t-28.5 -140.5t-77.5 -114.5t-114.5 -77.5t-140.5 -28.5z
M600 592q-40 31 -88.5 48.5t-102.5 17.5q-64 0 -120.5 -24t-98.5 -66t-66.5 -98.5t-24.5 -120.5t23.5 -120t65.5 -98zM409 40q64 0 120.5 24t98.5 66t66 98.5t24 120.5t-24 119.5t-66 97.5l-411 -460q40 -32 88.5 -49t103.5 -17z" />
    <glyph glyph-name="Ugrave" unicode="&#xd9;" horiz-adv-x="679" 
d="M192 981l155 -144h-58l-160 144h63zM74 700h52v-463q0 -43 13 -79.5t37.5 -62.5t61.5 -40.5t85 -14.5q49 0 86.5 14.5t62.5 40.5t38 62.5t13 79.5v463h52v-463q0 -55 -17.5 -101t-50.5 -78.5t-79.5 -50.5t-104.5 -18t-104 18t-78 50.5t-49.5 78.5t-17.5 101v463z" />
    <glyph glyph-name="Uacute" unicode="&#xda;" horiz-adv-x="679" 
d="M459 979h62l-160 -144h-57zM74 700h52v-463q0 -43 13 -79.5t37.5 -62.5t61.5 -40.5t85 -14.5q49 0 86.5 14.5t62.5 40.5t38 62.5t13 79.5v463h52v-463q0 -55 -17.5 -101t-50.5 -78.5t-79.5 -50.5t-104.5 -18t-104 18t-78 50.5t-49.5 78.5t-17.5 101v463z" />
    <glyph glyph-name="Ucircumflex" unicode="&#xdb;" horiz-adv-x="679" 
d="M411 835l-87 114l-85 -114h-38l97 144h51l100 -144h-38zM74 700h52v-463q0 -43 13 -79.5t37.5 -62.5t61.5 -40.5t85 -14.5q49 0 86.5 14.5t62.5 40.5t38 62.5t13 79.5v463h52v-463q0 -55 -17.5 -101t-50.5 -78.5t-79.5 -50.5t-104.5 -18t-104 18t-78 50.5t-49.5 78.5
t-17.5 101v463z" />
    <glyph glyph-name="Udieresis" unicode="&#xdc;" horiz-adv-x="679" 
d="M462 898q0 -14 -10.5 -25t-24.5 -11q-15 0 -25.5 11t-10.5 25t10.5 25t25.5 11q14 0 24.5 -10.5t10.5 -25.5zM258 898q0 -14 -10.5 -25t-24.5 -11q-15 0 -25.5 11t-10.5 25t10.5 25t25.5 11q14 0 24.5 -10.5t10.5 -25.5zM74 700h52v-463q0 -43 13 -79.5t37.5 -62.5
t61.5 -40.5t85 -14.5q49 0 86.5 14.5t62.5 40.5t38 62.5t13 79.5v463h52v-463q0 -55 -17.5 -101t-50.5 -78.5t-79.5 -50.5t-104.5 -18t-104 18t-78 50.5t-49.5 78.5t-17.5 101v463z" />
    <glyph glyph-name="Yacute" unicode="&#xdd;" horiz-adv-x="613" 
d="M429 979h63l-160 -144h-58zM266 280l-257 420h59l224 -364l223 364h59l-257 -420v-280h-51v280z" />
    <glyph glyph-name="Thorn" unicode="&#xde;" horiz-adv-x="594" 
d="M135 149v-149h-52v700h52v-126h175q44 0 82.5 -16.5t67.5 -45.5t45.5 -67.5t16.5 -82.5t-16.5 -83t-45.5 -68t-67.5 -45.5t-82.5 -16.5h-175zM310 200q33 0 62.5 13t51.5 35t35 51.5t13 62.5t-13 62.5t-35 51.5t-51.5 34.5t-62.5 12.5h-175v-323h175z" />
    <glyph glyph-name="germandbls" unicode="&#xdf;" horiz-adv-x="537" 
d="M193 385h60q60 1 95 36.5t35 98.5q0 60 -35 96.5t-97 36.5q-63 0 -101 -35.5t-41 -98.5v-519h-50v519q4 88 54.5 135t139.5 46q82 0 129 -49t47 -131q-1 -54 -20 -93.5t-54 -62.5q51 -23 80 -68.5t30 -105.5q1 -41 -13 -76t-39.5 -60t-62 -39.5t-80.5 -14.5h-77v49h77
q33 1 60.5 11.5t47.5 29.5t30.5 44.5t10.5 55.5q-1 32 -13.5 59t-34.5 46.5t-52 30.5t-66 11h-60v48z" />
    <glyph glyph-name="agrave" unicode="&#xe0;" horiz-adv-x="627" 
d="M175 781l155 -144h-57l-160 144h62zM488 121q-29 -59 -82 -96t-125 -37q-54 0 -98 20.5t-75.5 55.5t-48.5 83t-17 102t17 102t48.5 83t75.5 55.5t98 20.5q72 0 125 -37t82 -96v123h49v-500h-49v121zM281 36q44 0 82 16.5t65.5 45t43.5 67.5t16 84t-16 84t-43.5 67.5
t-65.5 45t-82 16.5q-43 0 -78.5 -17t-60.5 -46t-38.5 -67.5t-13.5 -82.5t13.5 -82.5t38.5 -67.5t60.5 -46t78.5 -17z" />
    <glyph glyph-name="aacute" unicode="&#xe1;" horiz-adv-x="627" 
d="M442 779h63l-160 -144h-58zM488 121q-29 -59 -82 -96t-125 -37q-54 0 -98 20.5t-75.5 55.5t-48.5 83t-17 102t17 102t48.5 83t75.5 55.5t98 20.5q72 0 125 -37t82 -96v123h49v-500h-49v121zM281 36q44 0 82 16.5t65.5 45t43.5 67.5t16 84t-16 84t-43.5 67.5t-65.5 45
t-82 16.5q-43 0 -78.5 -17t-60.5 -46t-38.5 -67.5t-13.5 -82.5t13.5 -82.5t38.5 -67.5t60.5 -46t78.5 -17z" />
    <glyph glyph-name="acircumflex" unicode="&#xe2;" horiz-adv-x="627" 
d="M394 635l-87 114l-85 -114h-37l96 144h51l100 -144h-38zM488 121q-29 -59 -82 -96t-125 -37q-54 0 -98 20.5t-75.5 55.5t-48.5 83t-17 102t17 102t48.5 83t75.5 55.5t98 20.5q72 0 125 -37t82 -96v123h49v-500h-49v121zM281 36q44 0 82 16.5t65.5 45t43.5 67.5t16 84
t-16 84t-43.5 67.5t-65.5 45t-82 16.5q-43 0 -78.5 -17t-60.5 -46t-38.5 -67.5t-13.5 -82.5t13.5 -82.5t38.5 -67.5t60.5 -46t78.5 -17z" />
    <glyph glyph-name="atilde" unicode="&#xe3;" horiz-adv-x="627" 
d="M353 642q-27 0 -42.5 16.5t-27 36t-23.5 35.5t-33 16q-24 0 -39 -24t-15 -74h-34q0 59 24 96.5t68 37.5q27 0 42.5 -16t27 -35.5t23 -36t32.5 -16.5q25 0 40 24t15 74h34q0 -59 -24 -96.5t-68 -37.5zM488 121q-29 -59 -82 -96t-125 -37q-54 0 -98 20.5t-75.5 55.5
t-48.5 83t-17 102t17 102t48.5 83t75.5 55.5t98 20.5q72 0 125 -37t82 -96v123h49v-500h-49v121zM281 36q44 0 82 16.5t65.5 45t43.5 67.5t16 84t-16 84t-43.5 67.5t-65.5 45t-82 16.5q-43 0 -78.5 -17t-60.5 -46t-38.5 -67.5t-13.5 -82.5t13.5 -82.5t38.5 -67.5t60.5 -46
t78.5 -17z" />
    <glyph glyph-name="adieresis" unicode="&#xe4;" horiz-adv-x="627" 
d="M445 698q0 -14 -10.5 -25t-24.5 -11q-15 0 -25.5 11t-10.5 25t10.5 25t25.5 11q14 0 24.5 -10.5t10.5 -25.5zM242 698q0 -14 -11 -25t-25 -11t-25 11t-11 25t11 25t25 11t25 -10.5t11 -25.5zM488 121q-29 -59 -82 -96t-125 -37q-54 0 -98 20.5t-75.5 55.5t-48.5 83
t-17 102t17 102t48.5 83t75.5 55.5t98 20.5q72 0 125 -37t82 -96v123h49v-500h-49v121zM281 36q44 0 82 16.5t65.5 45t43.5 67.5t16 84t-16 84t-43.5 67.5t-65.5 45t-82 16.5q-43 0 -78.5 -17t-60.5 -46t-38.5 -67.5t-13.5 -82.5t13.5 -82.5t38.5 -67.5t60.5 -46t78.5 -17z
" />
    <glyph glyph-name="aring" unicode="&#xe5;" horiz-adv-x="627" 
d="M307 605q-20 0 -37.5 7.5t-30.5 20.5t-20.5 30.5t-7.5 36.5q0 20 7.5 37t20.5 30t30.5 20.5t37.5 7.5t37 -7.5t29.5 -20.5t20 -30t7.5 -37q0 -19 -7 -36.5t-20 -30.5t-30 -20.5t-37 -7.5zM307 635q26 0 44.5 19t18.5 46q0 28 -18.5 46.5t-44.5 18.5q-28 0 -46.5 -19.5
t-18.5 -45.5t18.5 -45.5t46.5 -19.5zM488 121q-29 -59 -82 -96t-125 -37q-54 0 -98 20.5t-75.5 55.5t-48.5 83t-17 102t17 102t48.5 83t75.5 55.5t98 20.5q72 0 125 -37t82 -96v123h49v-500h-49v121zM281 36q44 0 82 16.5t65.5 45t43.5 67.5t16 84t-16 84t-43.5 67.5
t-65.5 45t-82 16.5q-43 0 -78.5 -17t-60.5 -46t-38.5 -67.5t-13.5 -82.5t13.5 -82.5t38.5 -67.5t60.5 -46t78.5 -17z" />
    <glyph glyph-name="ae" unicode="&#xe6;" horiz-adv-x="970" 
d="M684 511q57 0 98 -21.5t68 -58t40 -84t13 -99.5q0 -7 -0.5 -10t-1.5 -11h-401q2 -39 14 -74t35.5 -61.5t58 -42t82.5 -15.5q57 0 93 26.5t57 63.5l39 -24q-31 -51 -74 -81t-117 -30q-85 0 -139 39.5t-77 106.5q-26 -64 -79.5 -105.5t-129.5 -41.5q-54 0 -95 20.5
t-69 55.5t-42.5 83t-14.5 102t14.5 102t42.5 83t69 55.5t95 20.5q75 0 129 -41t80 -105q23 66 75.5 106.5t136.5 40.5zM858 271q-5 45 -16.5 81t-32.5 61.5t-51.5 39t-74.5 13.5q-47 0 -81.5 -16.5t-57 -43.5t-33.5 -62t-11 -73h358zM264 36q44 0 78.5 16.5t59.5 45t38 67.5
t13 84t-13 84t-38 67.5t-59.5 45t-78.5 16.5q-43 0 -76 -17t-54.5 -46t-32.5 -67.5t-11 -82.5t11 -82.5t32.5 -67.5t54.5 -46t76 -17z" />
    <glyph glyph-name="ccedilla" unicode="&#xe7;" horiz-adv-x="574" 
d="M513 96q-33 -45 -83 -73.5t-110 -32.5l-22 -57q16 11 37 11q29 0 47.5 -17.5t18.5 -48.5q0 -34 -29 -55.5t-72 -21.5q-62 0 -96 28l16 32q32 -28 80 -28q27 0 46 12.5t19 33.5q0 39 -41 39q-24 0 -41 -18l-26 16l27 74q-51 4 -95 25.5t-77 56.5t-51.5 80.5t-18.5 97.5
q0 54 20.5 101t55.5 82.5t83 56t102 20.5q64 0 118.5 -28.5t90.5 -76.5l-40 -28q-30 39 -74 62t-95 23q-44 0 -82.5 -16.5t-67.5 -45.5t-45.5 -67.5t-16.5 -82.5t16.5 -82.5t45.5 -67.5t67.5 -45.5t82.5 -16.5q52 0 96 23t73 62z" />
    <glyph glyph-name="egrave" unicode="&#xe8;" horiz-adv-x="617" 
d="M173 792l155 -144h-58l-160 144h63zM302 511q57 0 102.5 -21.5t78 -58t50 -84t17.5 -99.5q0 -7 -0.5 -10t-1.5 -11h-456q2 -39 18 -74t44 -61.5t67 -42t87 -15.5q28 0 55 7t50.5 19.5t42 29t28.5 34.5l41 -24q-32 -51 -88 -81t-130 -30q-58 0 -107 19.5t-84 54.5
t-54.5 82.5t-19.5 104.5q0 55 19 102.5t53.5 83t82 55.5t105.5 20zM502 271q-10 91 -61.5 143t-139.5 52q-47 0 -85.5 -16.5t-66 -43.5t-42.5 -62t-15 -73h410z" />
    <glyph glyph-name="eacute" unicode="&#xe9;" horiz-adv-x="617" 
d="M440 790h62l-160 -144h-57zM302 511q57 0 102.5 -21.5t78 -58t50 -84t17.5 -99.5q0 -7 -0.5 -10t-1.5 -11h-456q2 -39 18 -74t44 -61.5t67 -42t87 -15.5q28 0 55 7t50.5 19.5t42 29t28.5 34.5l41 -24q-32 -51 -88 -81t-130 -30q-58 0 -107 19.5t-84 54.5t-54.5 82.5
t-19.5 104.5q0 55 19 102.5t53.5 83t82 55.5t105.5 20zM502 271q-10 91 -61.5 143t-139.5 52q-47 0 -85.5 -16.5t-66 -43.5t-42.5 -62t-15 -73h410z" />
    <glyph glyph-name="ecircumflex" unicode="&#xea;" horiz-adv-x="617" 
d="M392 646l-87 114l-85 -114h-38l97 144h51l100 -144h-38zM302 511q57 0 102.5 -21.5t78 -58t50 -84t17.5 -99.5q0 -7 -0.5 -10t-1.5 -11h-456q2 -39 18 -74t44 -61.5t67 -42t87 -15.5q28 0 55 7t50.5 19.5t42 29t28.5 34.5l41 -24q-32 -51 -88 -81t-130 -30
q-58 0 -107 19.5t-84 54.5t-54.5 82.5t-19.5 104.5q0 55 19 102.5t53.5 83t82 55.5t105.5 20zM502 271q-10 91 -61.5 143t-139.5 52q-47 0 -85.5 -16.5t-66 -43.5t-42.5 -62t-15 -73h410z" />
    <glyph glyph-name="edieresis" unicode="&#xeb;" horiz-adv-x="617" 
d="M443 709q0 -14 -10.5 -24.5t-24.5 -10.5q-15 0 -25.5 10.5t-10.5 24.5q0 15 10.5 25.5t25.5 10.5q14 0 24.5 -10t10.5 -26zM239 709q0 -14 -10.5 -24.5t-24.5 -10.5q-15 0 -25.5 10.5t-10.5 24.5q0 15 10.5 25.5t25.5 10.5q14 0 24.5 -10t10.5 -26zM302 511
q57 0 102.5 -21.5t78 -58t50 -84t17.5 -99.5q0 -7 -0.5 -10t-1.5 -11h-456q2 -39 18 -74t44 -61.5t67 -42t87 -15.5q28 0 55 7t50.5 19.5t42 29t28.5 34.5l41 -24q-32 -51 -88 -81t-130 -30q-58 0 -107 19.5t-84 54.5t-54.5 82.5t-19.5 104.5q0 55 19 102.5t53.5 83t82 55.5
t105.5 20zM502 271q-10 91 -61.5 143t-139.5 52q-47 0 -85.5 -16.5t-66 -43.5t-42.5 -62t-15 -73h410z" />
    <glyph glyph-name="igrave" unicode="&#xec;" horiz-adv-x="219" 
d="M-39 781l155 -144h-57l-160 144h62zM69 500h49v-500h-49v500z" />
    <glyph glyph-name="iacute" unicode="&#xed;" horiz-adv-x="219" 
d="M228 779h63l-160 -144h-58zM69 500h49v-500h-49v500z" />
    <glyph glyph-name="icircumflex" unicode="&#xee;" horiz-adv-x="219" 
d="M181 635l-88 114l-85 -114h-37l97 144h51l99 -144h-37zM69 500h49v-500h-49v500z" />
    <glyph glyph-name="idieresis" unicode="&#xef;" horiz-adv-x="219" 
d="M232 698q0 -14 -11 -25t-25 -11t-25 11t-11 25t11 25t25 11t25 -10.5t11 -25.5zM28 698q0 -14 -10.5 -25t-25.5 -11q-14 0 -25 11t-11 25t11 25t25 11q15 0 25.5 -10.5t10.5 -25.5zM69 500h49v-500h-49v500z" />
    <glyph glyph-name="eth" unicode="&#xf0;" horiz-adv-x="652" 
d="M327 700q23 -14 43.5 -30.5t37.5 -33.5l72 38l16 -27l-66 -35q31 -36 55.5 -79t41.5 -90.5t26 -96.5t9 -96q0 -55 -20.5 -102.5t-56 -82.5t-82.5 -55.5t-100 -20.5q-54 0 -102 20.5t-83 56t-55.5 83t-20.5 101.5t20.5 101t55.5 82.5t83 56t102 20.5q55 0 103 -21.5
t83 -57.5q-13 38 -35 79t-58 83l-69 -37l-18 27l65 34q-20 21 -44 42t-53 41h50zM302 38q44 0 82.5 16.5t67.5 45.5t45.5 67.5t16.5 82.5t-16.5 82.5t-45.5 67.5t-67.5 45.5t-82.5 16.5t-82.5 -16.5t-67.5 -45.5t-45.5 -67.5t-16.5 -82.5t16.5 -82.5t45.5 -67.5t67.5 -45.5
t82.5 -16.5z" />
    <glyph glyph-name="ntilde" unicode="&#xf1;" horiz-adv-x="569" 
d="M322 642q-28 0 -43 16.5t-26.5 36t-23.5 35.5t-33 16q-24 0 -39.5 -24t-15.5 -74h-34q0 59 24 96.5t68 37.5q28 0 43 -16t26.5 -35.5t23.5 -36t33 -16.5q24 0 39.5 24t15.5 74h33q0 -59 -24 -96.5t-67 -37.5zM480 0h-49v299q0 50 -16 82t-40 51t-52.5 26t-54.5 7
q-24 0 -52 -8t-52 -29t-40 -57t-16 -93v-278h-49v500h49v-81q22 36 65.5 64t100.5 28q27 0 62.5 -8.5t67.5 -31.5t54 -64.5t22 -107.5v-299z" />
    <glyph glyph-name="ograve" unicode="&#xf2;" horiz-adv-x="634" 
d="M171 791l155 -144h-57l-160 144h62zM303 -11q-54 0 -102 20.5t-83 56t-55.5 83t-20.5 101.5t20.5 101t55.5 82.5t83 56t102 20.5t101 -20.5t82 -56t55.5 -82.5t20.5 -101t-20.5 -101.5t-55.5 -83t-82 -56t-101 -20.5zM302 38q44 0 82.5 16.5t67.5 45.5t45.5 67.5
t16.5 82.5t-16.5 82.5t-45.5 67.5t-67.5 45.5t-82.5 16.5t-82.5 -16.5t-67.5 -45.5t-45.5 -67.5t-16.5 -82.5t16.5 -82.5t45.5 -67.5t67.5 -45.5t82.5 -16.5z" />
    <glyph glyph-name="oacute" unicode="&#xf3;" horiz-adv-x="634" 
d="M438 788h63l-160 -144h-58zM303 -11q-54 0 -102 20.5t-83 56t-55.5 83t-20.5 101.5t20.5 101t55.5 82.5t83 56t102 20.5t101 -20.5t82 -56t55.5 -82.5t20.5 -101t-20.5 -101.5t-55.5 -83t-82 -56t-101 -20.5zM302 38q44 0 82.5 16.5t67.5 45.5t45.5 67.5t16.5 82.5
t-16.5 82.5t-45.5 67.5t-67.5 45.5t-82.5 16.5t-82.5 -16.5t-67.5 -45.5t-45.5 -67.5t-16.5 -82.5t16.5 -82.5t45.5 -67.5t67.5 -45.5t82.5 -16.5z" />
    <glyph glyph-name="ocircumflex" unicode="&#xf4;" horiz-adv-x="634" 
d="M390 644l-87 115l-85 -115h-37l96 144h51l100 -144h-38zM303 -11q-54 0 -102 20.5t-83 56t-55.5 83t-20.5 101.5t20.5 101t55.5 82.5t83 56t102 20.5t101 -20.5t82 -56t55.5 -82.5t20.5 -101t-20.5 -101.5t-55.5 -83t-82 -56t-101 -20.5zM302 38q44 0 82.5 16.5
t67.5 45.5t45.5 67.5t16.5 82.5t-16.5 82.5t-45.5 67.5t-67.5 45.5t-82.5 16.5t-82.5 -16.5t-67.5 -45.5t-45.5 -67.5t-16.5 -82.5t16.5 -82.5t45.5 -67.5t67.5 -45.5t82.5 -16.5z" />
    <glyph glyph-name="otilde" unicode="&#xf5;" horiz-adv-x="634" 
d="M349 651q-27 0 -42.5 16.5t-27 36t-23.5 36t-33 16.5q-24 0 -39 -24t-15 -75h-34q0 59 24 96.5t68 37.5q27 0 42.5 -16t27 -35.5t23 -36t32.5 -16.5q25 0 40 24t15 74h34q0 -59 -24 -96.5t-68 -37.5zM303 -11q-54 0 -102 20.5t-83 56t-55.5 83t-20.5 101.5t20.5 101
t55.5 82.5t83 56t102 20.5t101 -20.5t82 -56t55.5 -82.5t20.5 -101t-20.5 -101.5t-55.5 -83t-82 -56t-101 -20.5zM302 38q44 0 82.5 16.5t67.5 45.5t45.5 67.5t16.5 82.5t-16.5 82.5t-45.5 67.5t-67.5 45.5t-82.5 16.5t-82.5 -16.5t-67.5 -45.5t-45.5 -67.5t-16.5 -82.5
t16.5 -82.5t45.5 -67.5t67.5 -45.5t82.5 -16.5z" />
    <glyph glyph-name="odieresis" unicode="&#xf6;" horiz-adv-x="634" 
d="M441 708q0 -15 -10.5 -25.5t-24.5 -10.5q-15 0 -25.5 10.5t-10.5 25.5q0 14 10.5 24.5t25.5 10.5q14 0 24.5 -10t10.5 -25zM238 708q0 -15 -11 -25.5t-25 -10.5t-25 10.5t-11 25.5q0 14 11 24.5t25 10.5t25 -10t11 -25zM303 -11q-54 0 -102 20.5t-83 56t-55.5 83
t-20.5 101.5t20.5 101t55.5 82.5t83 56t102 20.5t101 -20.5t82 -56t55.5 -82.5t20.5 -101t-20.5 -101.5t-55.5 -83t-82 -56t-101 -20.5zM302 38q44 0 82.5 16.5t67.5 45.5t45.5 67.5t16.5 82.5t-16.5 82.5t-45.5 67.5t-67.5 45.5t-82.5 16.5t-82.5 -16.5t-67.5 -45.5
t-45.5 -67.5t-16.5 -82.5t16.5 -82.5t45.5 -67.5t67.5 -45.5t82.5 -16.5z" />
    <glyph glyph-name="divide" unicode="&#xf7;" horiz-adv-x="511" 
d="M294 532q0 -17 -11.5 -28t-26.5 -11t-26.5 11t-11.5 28q0 15 10.5 26.5t27.5 11.5t27.5 -11.5t10.5 -26.5zM482 357v-40h-453v40h453zM294 138q0 -15 -10.5 -27t-27.5 -12t-27.5 12t-10.5 27t10.5 26.5t27.5 11.5t27.5 -10.5t10.5 -27.5z" />
    <glyph glyph-name="oslash" unicode="&#xf8;" horiz-adv-x="634" 
d="M303 -11q-46 0 -86.5 14.5t-73.5 40.5l-120 -135l-28 27l119 133q-34 35 -53 81.5t-19 99.5q0 54 20.5 101t55.5 82.5t83 56t102 20.5q45 0 84.5 -14t72.5 -40l122 137l28 -26l-121 -136q34 -35 53.5 -81.5t19.5 -99.5q0 -54 -20.5 -101.5t-55.5 -83t-82 -56t-101 -20.5z
M428 420q-26 20 -58.5 31t-67.5 11q-44 0 -82.5 -16.5t-67.5 -45.5t-45.5 -67.5t-16.5 -82.5q0 -42 15 -79t42 -65zM302 38q44 0 82.5 16.5t67.5 45.5t45.5 67.5t16.5 82.5q0 42 -15.5 79t-42.5 66l-281 -315q26 -20 58.5 -31t68.5 -11z" />
    <glyph glyph-name="ugrave" unicode="&#xf9;" horiz-adv-x="566" 
d="M145 781l155 -144h-57l-160 144h62zM61 500h48v-299q0 -50 16 -82t40 -51t53 -26t54 -7t53 8t52 29t39.5 57t15.5 93v278h49v-500h-49v81q-22 -36 -65 -64t-101 -28q-27 0 -62.5 8.5t-67 31.5t-53.5 64.5t-22 107.5v299z" />
    <glyph glyph-name="uacute" unicode="&#xfa;" horiz-adv-x="566" 
d="M412 779h63l-160 -144h-58zM61 500h48v-299q0 -50 16 -82t40 -51t53 -26t54 -7t53 8t52 29t39.5 57t15.5 93v278h49v-500h-49v81q-22 -36 -65 -64t-101 -28q-27 0 -62.5 8.5t-67 31.5t-53.5 64.5t-22 107.5v299z" />
    <glyph glyph-name="ucircumflex" unicode="&#xfb;" horiz-adv-x="566" 
d="M364 635l-87 114l-85 -114h-37l96 144h51l100 -144h-38zM61 500h48v-299q0 -50 16 -82t40 -51t53 -26t54 -7t53 8t52 29t39.5 57t15.5 93v278h49v-500h-49v81q-22 -36 -65 -64t-101 -28q-27 0 -62.5 8.5t-67 31.5t-53.5 64.5t-22 107.5v299z" />
    <glyph glyph-name="udieresis" unicode="&#xfc;" horiz-adv-x="566" 
d="M415 698q0 -14 -10.5 -25t-24.5 -11q-15 0 -25.5 11t-10.5 25t10.5 25t25.5 11q14 0 24.5 -10.5t10.5 -25.5zM212 698q0 -14 -11 -25t-25 -11t-25 11t-11 25t11 25t25 11t25 -10.5t11 -25.5zM61 500h48v-299q0 -50 16 -82t40 -51t53 -26t54 -7t53 8t52 29t39.5 57
t15.5 93v278h49v-500h-49v81q-22 -36 -65 -64t-101 -28q-27 0 -62.5 8.5t-67 31.5t-53.5 64.5t-22 107.5v299z" />
    <glyph glyph-name="yacute" unicode="&#xfd;" horiz-adv-x="531" 
d="M401 779h62l-160 -144h-57zM246 3l-233 497h53l205 -432l165 432h52l-204 -535q-32 -78 -85 -124.5t-124 -40.5v47q30 -3 55.5 8t45.5 30t35.5 44.5t26.5 52.5z" />
    <glyph glyph-name="thorn" unicode="&#xfe;" horiz-adv-x="626" 
d="M59 700h49v-322q29 59 82.5 96t125.5 37q54 0 97.5 -20.5t75 -55.5t48.5 -83t17 -102t-17 -102t-48.5 -83t-75 -55.5t-97.5 -20.5q-72 0 -125.5 37t-82.5 96v-322h-49v900zM315 464q-44 0 -82 -16.5t-65.5 -45.5t-43.5 -68t-16 -84t16 -84t43.5 -67.5t65.5 -45t82 -16.5
t79 17t60 46t38.5 67.5t13.5 82.5t-13.5 83t-38.5 68t-60 46t-79 17z" />
    <glyph glyph-name="ydieresis" unicode="&#xff;" horiz-adv-x="531" 
d="M404 698q0 -14 -10.5 -25t-25.5 -11q-14 0 -24.5 11t-10.5 25t10.5 25t24.5 11q15 0 25.5 -10.5t10.5 -25.5zM200 698q0 -14 -10.5 -25t-24.5 -11q-15 0 -25.5 11t-10.5 25t10.5 25t25.5 11q14 0 24.5 -10.5t10.5 -25.5zM246 3l-233 497h53l205 -432l165 432h52
l-204 -535q-32 -78 -85 -124.5t-124 -40.5v47q30 -3 55.5 8t45.5 30t35.5 44.5t26.5 52.5z" />
    <glyph glyph-name="Amacron" unicode="&#x100;" horiz-adv-x="656" 
d="M128 862v36h363v-36h-363zM285 700h57l267 -700h-55l-68 179h-343l-69 -179h-56zM467 227l-153 401l-153 -401h306z" />
    <glyph glyph-name="amacron" unicode="&#x101;" horiz-adv-x="627" 
d="M121 662v36h363v-36h-363zM488 121q-29 -59 -82 -96t-125 -37q-54 0 -98 20.5t-75.5 55.5t-48.5 83t-17 102t17 102t48.5 83t75.5 55.5t98 20.5q72 0 125 -37t82 -96v123h49v-500h-49v121zM281 36q44 0 82 16.5t65.5 45t43.5 67.5t16 84t-16 84t-43.5 67.5t-65.5 45
t-82 16.5q-43 0 -78.5 -17t-60.5 -46t-38.5 -67.5t-13.5 -82.5t13.5 -82.5t38.5 -67.5t60.5 -46t78.5 -17z" />
    <glyph glyph-name="Abreve" unicode="&#x102;" horiz-adv-x="656" 
d="M489 928q-65 -88 -175 -88q-108 0 -176 88l28 24q55 -76 148 -76t148 76zM285 700h57l267 -700h-55l-68 179h-343l-69 -179h-56zM467 227l-153 401l-153 -401h306z" />
    <glyph glyph-name="abreve" unicode="&#x103;" horiz-adv-x="627" 
d="M482 728q-64 -88 -175 -88q-108 0 -176 88l28 24q55 -76 148 -76t148 76zM488 121q-29 -59 -82 -96t-125 -37q-54 0 -98 20.5t-75.5 55.5t-48.5 83t-17 102t17 102t48.5 83t75.5 55.5t98 20.5q72 0 125 -37t82 -96v123h49v-500h-49v121zM281 36q44 0 82 16.5t65.5 45
t43.5 67.5t16 84t-16 84t-43.5 67.5t-65.5 45t-82 16.5q-43 0 -78.5 -17t-60.5 -46t-38.5 -67.5t-13.5 -82.5t13.5 -82.5t38.5 -67.5t60.5 -46t78.5 -17z" />
    <glyph glyph-name="Aogonek" unicode="&#x104;" horiz-adv-x="656" 
d="M124 -124q-24 -62 -85 -62q-37 0 -61 21t-24 64q0 31 18 59.5t48 48.5l265 693h57l267 -700h-55l-68 179h-343l-69 -179h-5q-80 -39 -80 -100q0 -54 50 -54q39 0 55 45zM467 227l-153 401l-153 -401h306z" />
    <glyph glyph-name="aogonek" unicode="&#x105;" horiz-adv-x="627" 
d="M488 121q-29 -59 -82 -96t-125 -37q-54 0 -98 20.5t-75.5 55.5t-48.5 83t-17 102t17 102t48.5 83t75.5 55.5t98 20.5q72 0 125 -37t82 -96v123h49v-500h-1q-80 -39 -80 -100q0 -54 49 -54q40 0 56 45l30 -15q-24 -62 -86 -62q-36 0 -60 21t-24 64q0 32 18 60.5t49 48.5
v113zM281 36q44 0 82 16.5t65.5 45t43.5 67.5t16 84t-16 84t-43.5 67.5t-65.5 45t-82 16.5q-43 0 -78.5 -17t-60.5 -46t-38.5 -67.5t-13.5 -82.5t13.5 -82.5t38.5 -67.5t60.5 -46t78.5 -17z" />
    <glyph glyph-name="Cacute" unicode="&#x106;" horiz-adv-x="790" 
d="M544 988h63l-160 -144h-58zM48 349q0 75 28.5 140.5t77.5 114.5t114.5 77.5t140.5 28.5q50 0 97 -13.5t87.5 -37.5t73.5 -58t56 -75l-45 -24q-41 70 -111.5 113t-157.5 43q-64 0 -120.5 -24t-98.5 -66t-66.5 -98.5t-24.5 -120.5t24.5 -120.5t66.5 -98.5t98.5 -66
t120.5 -24q87 0 157.5 43t111.5 114l45 -25q-23 -41 -56 -75t-73.5 -58t-87.5 -37.5t-97 -13.5q-75 0 -140.5 28.5t-114.5 77.5t-77.5 114.5t-28.5 140.5z" />
    <glyph glyph-name="cacute" unicode="&#x107;" horiz-adv-x="574" 
d="M438 788h63l-160 -144h-58zM513 96q-36 -48 -90.5 -77.5t-119.5 -29.5q-54 0 -102 20.5t-83 56t-55.5 83t-20.5 101.5t20.5 101t55.5 82.5t83 56t102 20.5q64 0 118.5 -28.5t90.5 -76.5l-40 -28q-30 39 -74 62t-95 23q-44 0 -82.5 -16.5t-67.5 -45.5t-45.5 -67.5
t-16.5 -82.5t16.5 -82.5t45.5 -67.5t67.5 -45.5t82.5 -16.5q52 0 96 23t73 62z" />
    <glyph glyph-name="Cdotaccent" unicode="&#x10a;" horiz-adv-x="790" 
d="M406 859q-15 0 -26 11t-11 26t11 25.5t26 10.5t25.5 -10.5t10.5 -25.5t-10.5 -26t-25.5 -11zM48 349q0 75 28.5 140.5t77.5 114.5t114.5 77.5t140.5 28.5q50 0 97 -13.5t87.5 -37.5t73.5 -58t56 -75l-45 -24q-41 70 -111.5 113t-157.5 43q-64 0 -120.5 -24t-98.5 -66
t-66.5 -98.5t-24.5 -120.5t24.5 -120.5t66.5 -98.5t98.5 -66t120.5 -24q87 0 157.5 43t111.5 114l45 -25q-23 -41 -56 -75t-73.5 -58t-87.5 -37.5t-97 -13.5q-75 0 -140.5 28.5t-114.5 77.5t-77.5 114.5t-28.5 140.5z" />
    <glyph glyph-name="cdotaccent" unicode="&#x10b;" horiz-adv-x="574" 
d="M300 659q-15 0 -26 11t-11 26t11 25.5t26 10.5t25.5 -10.5t10.5 -25.5t-10.5 -26t-25.5 -11zM513 96q-36 -48 -90.5 -77.5t-119.5 -29.5q-54 0 -102 20.5t-83 56t-55.5 83t-20.5 101.5t20.5 101t55.5 82.5t83 56t102 20.5q64 0 118.5 -28.5t90.5 -76.5l-40 -28
q-30 39 -74 62t-95 23q-44 0 -82.5 -16.5t-67.5 -45.5t-45.5 -67.5t-16.5 -82.5t16.5 -82.5t45.5 -67.5t67.5 -45.5t82.5 -16.5q52 0 96 23t73 62z" />
    <glyph glyph-name="Ccaron" unicode="&#x10c;" horiz-adv-x="790" 
d="M383 836l-100 144h38l87 -114l85 114h37l-96 -144h-51zM48 349q0 75 28.5 140.5t77.5 114.5t114.5 77.5t140.5 28.5q50 0 97 -13.5t87.5 -37.5t73.5 -58t56 -75l-45 -24q-41 70 -111.5 113t-157.5 43q-64 0 -120.5 -24t-98.5 -66t-66.5 -98.5t-24.5 -120.5t24.5 -120.5
t66.5 -98.5t98.5 -66t120.5 -24q87 0 157.5 43t111.5 114l45 -25q-23 -41 -56 -75t-73.5 -58t-87.5 -37.5t-97 -13.5q-75 0 -140.5 28.5t-114.5 77.5t-77.5 114.5t-28.5 140.5z" />
    <glyph glyph-name="ccaron" unicode="&#x10d;" horiz-adv-x="574" 
d="M277 636l-100 144h38l87 -114l85 114h37l-96 -144h-51zM513 96q-36 -48 -90.5 -77.5t-119.5 -29.5q-54 0 -102 20.5t-83 56t-55.5 83t-20.5 101.5t20.5 101t55.5 82.5t83 56t102 20.5q64 0 118.5 -28.5t90.5 -76.5l-40 -28q-30 39 -74 62t-95 23q-44 0 -82.5 -16.5
t-67.5 -45.5t-45.5 -67.5t-16.5 -82.5t16.5 -82.5t45.5 -67.5t67.5 -45.5t82.5 -16.5q52 0 96 23t73 62z" />
    <glyph glyph-name="Dcaron" unicode="&#x10e;" horiz-adv-x="754" 
d="M294 826l-100 144h37l88 -114l85 114h37l-96 -144h-51zM83 700h236q75 0 140 -27t113.5 -74t76.5 -111t28 -139t-28 -138.5t-76.5 -110.5t-113.5 -73.5t-140 -26.5h-236v700zM135 651v-602h184q64 0 120 23t97 63t65 95t24 119t-23.5 119.5t-65 96t-97 63.5t-120.5 23
h-184z" />
    <glyph glyph-name="dcaron" unicode="&#x10f;" horiz-adv-x="626" 
d="M287 714l-100 144h38l87 -115l85 115h38l-97 -144h-51zM537 0h-49v121q-29 -59 -82 -96t-125 -37q-54 0 -98 20.5t-75.5 55.5t-48.5 83t-17 102t17 102t48.5 83t75.5 55.5t98 20.5q72 0 125 -37t82 -96v323h49v-700zM281 36q44 0 82 16.5t65.5 45t43.5 67.5t16 84t-16 84
t-43.5 67.5t-65.5 45t-82 16.5q-43 0 -78.5 -17t-60.5 -46t-38.5 -67.5t-13.5 -82.5t13.5 -82.5t38.5 -67.5t60.5 -46t78.5 -17z" />
    <glyph glyph-name="Dcroat" unicode="&#x110;" horiz-adv-x="754" 
d="M83 324h-55v49h55v327h236q75 0 140 -27t113.5 -74t76.5 -111t28 -139t-28 -138.5t-76.5 -110.5t-113.5 -73.5t-140 -26.5h-236v324zM135 651v-278h187v-49h-187v-275h184q64 0 120 23t97 63t65 95t24 119t-23.5 119.5t-65 96t-97 63.5t-120.5 23h-184z" />
    <glyph glyph-name="dcroat" unicode="&#x111;" horiz-adv-x="626" 
d="M537 594h118v-48h-118v-546h-49v121q-29 -59 -82 -96t-125 -37q-54 0 -98 20.5t-75.5 55.5t-48.5 83t-17 102t17 102t48.5 83t75.5 55.5t98 20.5q72 0 125 -37t82 -96v169h-127v48h127v106h49v-106zM281 36q44 0 82 16.5t65.5 45t43.5 67.5t16 84t-16 84t-43.5 67.5
t-65.5 45t-82 16.5q-43 0 -78.5 -17t-60.5 -46t-38.5 -67.5t-13.5 -82.5t13.5 -82.5t38.5 -67.5t60.5 -46t78.5 -17z" />
    <glyph glyph-name="Emacron" unicode="&#x112;" horiz-adv-x="538" 
d="M91 862v35h363v-35h-363zM83 700h379v-49h-328v-275h303v-48h-303v-279h332v-49h-383v700z" />
    <glyph glyph-name="emacron" unicode="&#x113;" horiz-adv-x="617" 
d="M119 674v35h363v-35h-363zM302 511q57 0 102.5 -21.5t78 -58t50 -84t17.5 -99.5q0 -7 -0.5 -10t-1.5 -11h-456q2 -39 18 -74t44 -61.5t67 -42t87 -15.5q28 0 55 7t50.5 19.5t42 29t28.5 34.5l41 -24q-32 -51 -88 -81t-130 -30q-58 0 -107 19.5t-84 54.5t-54.5 82.5
t-19.5 104.5q0 55 19 102.5t53.5 83t82 55.5t105.5 20zM502 271q-10 91 -61.5 143t-139.5 52q-47 0 -85.5 -16.5t-66 -43.5t-42.5 -62t-15 -73h410z" />
    <glyph glyph-name="Edotaccent" unicode="&#x116;" horiz-adv-x="538" 
d="M273 849q-14 0 -25 10.5t-11 25.5q0 16 11 26.5t25 10.5q15 0 26 -10.5t11 -26.5q0 -15 -11 -25.5t-26 -10.5zM83 700h379v-49h-328v-275h303v-48h-303v-279h332v-49h-383v700z" />
    <glyph glyph-name="edotaccent" unicode="&#x117;" horiz-adv-x="617" 
d="M302 661q-15 0 -26 10.5t-11 25.5q0 16 11 26.5t26 10.5t25.5 -10.5t10.5 -26.5q0 -15 -10.5 -25.5t-25.5 -10.5zM302 511q57 0 102.5 -21.5t78 -58t50 -84t17.5 -99.5q0 -7 -0.5 -10t-1.5 -11h-456q2 -39 18 -74t44 -61.5t67 -42t87 -15.5q28 0 55 7t50.5 19.5t42 29
t28.5 34.5l41 -24q-32 -51 -88 -81t-130 -30q-58 0 -107 19.5t-84 54.5t-54.5 82.5t-19.5 104.5q0 55 19 102.5t53.5 83t82 55.5t105.5 20zM502 271q-10 91 -61.5 143t-139.5 52q-47 0 -85.5 -16.5t-66 -43.5t-42.5 -62t-15 -73h410z" />
    <glyph glyph-name="Eogonek" unicode="&#x118;" horiz-adv-x="538" 
d="M170 -124q-24 -62 -85 -62q-37 0 -61 21t-24 64q0 35 22.5 66.5t60.5 51.5v683h379v-49h-328v-275h303v-48h-303v-279h332v-49h-351q-79 -38 -79 -100q0 -54 49 -54q39 0 55 45z" />
    <glyph glyph-name="eogonek" unicode="&#x119;" horiz-adv-x="617" 
d="M302 511q57 0 102.5 -21.5t78 -58t50 -84t17.5 -99.5q0 -7 -0.5 -10t-1.5 -11h-456q2 -39 18 -74t44 -61.5t67 -42t87 -15.5q28 0 55 7t50.5 19.5t42 29t28.5 34.5l41 -24q-29 -47 -78.5 -76.5t-115.5 -34.5q-69 -37 -69 -93q0 -54 50 -54q40 0 55 44l30 -15
q-24 -62 -85 -62q-37 0 -61 21t-24 65q0 26 13.5 50.5t36.5 44.5q-52 5 -95.5 26.5t-74.5 55.5t-48 79.5t-17 98.5q0 55 19 102.5t53.5 83t82 55.5t105.5 20zM502 271q-10 91 -61.5 143t-139.5 52q-47 0 -85.5 -16.5t-66 -43.5t-42.5 -62t-15 -73h410z" />
    <glyph glyph-name="Ecaron" unicode="&#x11a;" horiz-adv-x="538" 
d="M250 825l-99 144h37l88 -114l84 114h38l-97 -144h-51zM83 700h379v-49h-328v-275h303v-48h-303v-279h332v-49h-383v700z" />
    <glyph glyph-name="ecaron" unicode="&#x11b;" horiz-adv-x="617" 
d="M279 637l-100 144h37l88 -114l85 114h37l-96 -144h-51zM302 511q57 0 102.5 -21.5t78 -58t50 -84t17.5 -99.5q0 -7 -0.5 -10t-1.5 -11h-456q2 -39 18 -74t44 -61.5t67 -42t87 -15.5q28 0 55 7t50.5 19.5t42 29t28.5 34.5l41 -24q-32 -51 -88 -81t-130 -30
q-58 0 -107 19.5t-84 54.5t-54.5 82.5t-19.5 104.5q0 55 19 102.5t53.5 83t82 55.5t105.5 20zM502 271q-10 91 -61.5 143t-139.5 52q-47 0 -85.5 -16.5t-66 -43.5t-42.5 -62t-15 -73h410z" />
    <glyph glyph-name="Gbreve" unicode="&#x11e;" horiz-adv-x="827" 
d="M584 938q-63 -88 -175 -88q-109 0 -176 88l28 24q55 -76 148 -76t148 76zM48 349q0 75 28.5 140.5t77.5 114.5t114.5 77.5t140.5 28.5q50 0 95.5 -13t85.5 -36.5t72.5 -56t56.5 -72.5l-43 -29q-20 35 -48 63.5t-62.5 48.5t-74 31.5t-82.5 11.5q-64 0 -120.5 -24
t-98.5 -66t-66.5 -98.5t-24.5 -120.5t24.5 -120.5t66.5 -98.5t98.5 -66t120.5 -24q62 0 114 18t90.5 49.5t61.5 75.5t26 96h-305v49h357v-36q0 -62 -26 -117t-72 -96.5t-109 -66t-137 -24.5q-75 0 -140.5 28.5t-114.5 77.5t-77.5 114.5t-28.5 140.5z" />
    <glyph glyph-name="gbreve" unicode="&#x11f;" horiz-adv-x="635" 
d="M488 728q-65 -88 -175 -88q-109 0 -176 88l28 24q55 -76 148 -76t148 76zM496 121q-29 -59 -82.5 -96t-125.5 -37q-54 0 -98 20.5t-75.5 55.5t-48.5 83t-17 102t17 102t48.5 83t75.5 55.5t98 20.5q72 0 125.5 -37t82.5 -96v123h48v-476q0 -56 -19.5 -99.5t-54 -73.5
t-81 -46t-99.5 -16q-88 0 -150.5 32.5t-89.5 87.5l42 24q9 -19 25.5 -36.5t41 -31.5t57.5 -22.5t75 -8.5q44 0 81.5 13.5t65 38.5t43 60t15.5 78v97zM289 36q44 0 81.5 16.5t65.5 45t44 67.5t16 84t-16 84t-44 67.5t-65.5 45t-81.5 16.5q-43 0 -78.5 -17t-60.5 -46
t-38.5 -67.5t-13.5 -82.5t13.5 -82.5t38.5 -67.5t60.5 -46t78.5 -17z" />
    <glyph glyph-name="Gdotaccent" unicode="&#x120;" horiz-adv-x="827" 
d="M406 859q-15 0 -26 11t-11 26t11 25.5t26 10.5t25.5 -10.5t10.5 -25.5t-10.5 -26t-25.5 -11zM48 349q0 75 28.5 140.5t77.5 114.5t114.5 77.5t140.5 28.5q50 0 95.5 -13t85.5 -36.5t72.5 -56t56.5 -72.5l-43 -29q-20 35 -48 63.5t-62.5 48.5t-74 31.5t-82.5 11.5
q-64 0 -120.5 -24t-98.5 -66t-66.5 -98.5t-24.5 -120.5t24.5 -120.5t66.5 -98.5t98.5 -66t120.5 -24q62 0 114 18t90.5 49.5t61.5 75.5t26 96h-305v49h357v-36q0 -62 -26 -117t-72 -96.5t-109 -66t-137 -24.5q-75 0 -140.5 28.5t-114.5 77.5t-77.5 114.5t-28.5 140.5z" />
    <glyph glyph-name="gdotaccent" unicode="&#x121;" horiz-adv-x="635" 
d="M309 650q-14 0 -25 10.5t-11 25.5t11 26t25 11q15 0 26 -11t11 -26t-11 -25.5t-26 -10.5zM496 121q-29 -59 -82.5 -96t-125.5 -37q-54 0 -98 20.5t-75.5 55.5t-48.5 83t-17 102t17 102t48.5 83t75.5 55.5t98 20.5q72 0 125.5 -37t82.5 -96v123h48v-476q0 -56 -19.5 -99.5
t-54 -73.5t-81 -46t-99.5 -16q-88 0 -150.5 32.5t-89.5 87.5l42 24q9 -19 25.5 -36.5t41 -31.5t57.5 -22.5t75 -8.5q44 0 81.5 13.5t65 38.5t43 60t15.5 78v97zM289 36q44 0 81.5 16.5t65.5 45t44 67.5t16 84t-16 84t-44 67.5t-65.5 45t-81.5 16.5q-43 0 -78.5 -17
t-60.5 -46t-38.5 -67.5t-13.5 -82.5t13.5 -82.5t38.5 -67.5t60.5 -46t78.5 -17z" />
    <glyph glyph-name="uni0122" unicode="&#x122;" horiz-adv-x="827" 
d="M48 349q0 75 28.5 140.5t77.5 114.5t114.5 77.5t140.5 28.5q50 0 95.5 -13t85.5 -36.5t72.5 -56t56.5 -72.5l-43 -29q-20 35 -48 63.5t-62.5 48.5t-74 31.5t-82.5 11.5q-64 0 -120.5 -24t-98.5 -66t-66.5 -98.5t-24.5 -120.5t24.5 -120.5t66.5 -98.5t98.5 -66t120.5 -24
q62 0 114 18t90.5 49.5t61.5 75.5t26 96h-305v49h357v-36q0 -62 -26 -117t-72 -96.5t-109 -66t-137 -24.5q-75 0 -140.5 28.5t-114.5 77.5t-77.5 114.5t-28.5 140.5zM374 -114h76v-78l-59 -107l-25 21l39 86h-31v78z" />
    <glyph glyph-name="uni0123" unicode="&#x123;" horiz-adv-x="635" 
d="M172 621h-77v77l59 107l25 -20l-39 -87h32v-77zM496 121q-29 -59 -82.5 -96t-125.5 -37q-54 0 -98 20.5t-75.5 55.5t-48.5 83t-17 102t17 102t48.5 83t75.5 55.5t98 20.5q72 0 125.5 -37t82.5 -96v123h48v-476q0 -56 -19.5 -99.5t-54 -73.5t-81 -46t-99.5 -16
q-88 0 -150.5 32.5t-89.5 87.5l42 24q9 -19 25.5 -36.5t41 -31.5t57.5 -22.5t75 -8.5q44 0 81.5 13.5t65 38.5t43 60t15.5 78v97zM289 36q44 0 81.5 16.5t65.5 45t44 67.5t16 84t-16 84t-44 67.5t-65.5 45t-81.5 16.5q-43 0 -78.5 -17t-60.5 -46t-38.5 -67.5t-13.5 -82.5
t13.5 -82.5t38.5 -67.5t60.5 -46t78.5 -17z" />
    <glyph glyph-name="Hbar" unicode="&#x126;" horiz-adv-x="706" 
d="M83 502h-55v46h55v152h52v-152h406v152h52v-152h48v-46h-48v-502h-52v335h-406v-335h-52v502zM541 383v119h-406v-119h406z" />
    <glyph glyph-name="hbar" unicode="&#x127;" horiz-adv-x="561" 
d="M59 554h-117v49h117v97h49v-97h129v-49h-129v-124q23 32 64 56t94 24q27 0 62.5 -8t67.5 -31.5t54 -64.5t22 -107v-299h-49v298q0 50 -16 82.5t-40 51t-52.5 25.5t-54.5 7q-20 0 -43 -5.5t-44 -19t-38.5 -36t-26.5 -57.5v-346h-49v554z" />
    <glyph glyph-name="Imacron" unicode="&#x12a;" horiz-adv-x="248" 
d="M-75 862v36h363v-36h-363zM83 700h52v-700h-52v700z" />
    <glyph glyph-name="imacron" unicode="&#x12b;" horiz-adv-x="219" 
d="M-93 662v36h363v-36h-363zM69 500h49v-500h-49v500z" />
    <glyph glyph-name="Iogonek" unicode="&#x12e;" horiz-adv-x="248" 
d="M170 -124q-24 -62 -85 -62q-37 0 -61 21t-24 64q0 35 22.5 66.5t60.5 51.5v683h52v-700h-20q-79 -38 -79 -100q0 -54 49 -54q39 0 55 45z" />
    <glyph glyph-name="iogonek" unicode="&#x12f;" horiz-adv-x="219" 
d="M90 650q-14 0 -25.5 10.5t-11.5 25.5t11.5 26t25.5 11q15 0 25.5 -11t10.5 -26t-10.5 -25.5t-25.5 -10.5zM170 -124q-24 -62 -85 -62q-37 0 -61 21t-24 64q0 32 18.5 61t50.5 49v491h49v-500h-3q-79 -38 -79 -100q0 -54 49 -54q39 0 55 45z" />
    <glyph glyph-name="Idotaccent" unicode="&#x130;" horiz-adv-x="248" 
d="M107 850q-14 0 -25 10.5t-11 25.5t11 26t25 11q15 0 26 -11t11 -26t-11 -25.5t-26 -10.5zM83 700h52v-700h-52v700z" />
    <glyph glyph-name="dotlessi" unicode="&#x131;" horiz-adv-x="219" 
d="M69 500h49v-500h-49v500z" />
    <glyph glyph-name="uni0136" unicode="&#x136;" horiz-adv-x="613" 
d="M508 0l-298 342l-75 -75v-267h-52v700h52v-359l361 359h71l-321 -321l328 -377zM273 -102h76v-77l-59 -107l-24 20l39 87h-32v77z" />
    <glyph glyph-name="uni0137" unicode="&#x137;" horiz-adv-x="512" 
d="M59 700h49v-497l275 297h68l-211 -227l220 -273h-64l-189 237l-99 -107v-130h-49v700zM71 -102h76v-78l-58 -107l-25 21l39 86h-32v78z" />
    <glyph glyph-name="Lacute" unicode="&#x139;" horiz-adv-x="530" 
d="M245 979h62l-160 -144h-57zM83 700h52v-651h341v-49h-393v700z" />
    <glyph glyph-name="lacute" unicode="&#x13a;" horiz-adv-x="229" 
d="M221 979h62l-160 -144h-57zM171 0q-10 -2 -20.5 -3.5t-21.5 -1.5q-13 0 -25.5 3t-22.5 11.5t-16 23t-6 37.5v630h49v-629q0 -17 7.5 -23t21.5 -6q15 0 34 3v-45z" />
    <glyph glyph-name="uni013B" unicode="&#x13b;" horiz-adv-x="530" 
d="M83 700h52v-651h341v-49h-393v700zM258 -102h77v-77l-59 -107l-25 20l39 87h-32v77z" />
    <glyph glyph-name="uni013C" unicode="&#x13c;" horiz-adv-x="229" 
d="M171 0q-10 -2 -20.5 -3.5t-21.5 -1.5q-13 0 -25.5 3t-22.5 11.5t-16 23t-6 37.5v630h49v-629q0 -17 7.5 -23t21.5 -6q15 0 34 3v-45zM83 -102h76v-77l-59 -107l-25 20l39 87h-31v77z" />
    <glyph glyph-name="Lcaron" unicode="&#x13d;" horiz-adv-x="530" 
d="M84 826l-100 144h37l88 -114l85 114h37l-96 -144h-51zM83 700h52v-651h341v-49h-393v700z" />
    <glyph glyph-name="lcaron" unicode="&#x13e;" horiz-adv-x="229" 
d="M59 826l-100 144h38l88 -114l84 114h38l-97 -144h-51zM171 0q-10 -2 -20.5 -3.5t-21.5 -1.5q-13 0 -25.5 3t-22.5 11.5t-16 23t-6 37.5v630h49v-629q0 -17 7.5 -23t21.5 -6q15 0 34 3v-45z" />
    <glyph glyph-name="Lslash" unicode="&#x141;" horiz-adv-x="530" 
d="M83 265l-74 -83l-38 35l112 125v358h52v-301l111 124l38 -34l-149 -166v-274h341v-49h-393v265z" />
    <glyph glyph-name="lslash" unicode="&#x142;" horiz-adv-x="229" 
d="M171 0q-10 -2 -20.5 -3.5t-21.5 -1.5q-13 0 -25.5 3t-22.5 11.5t-16 23t-6 37.5v247l-96 -108l-38 35l134 150v306h49v-252l92 103l38 -35l-130 -145v-300q0 -17 7.5 -23t21.5 -6q15 0 34 3v-45z" />
    <glyph glyph-name="Nacute" unicode="&#x143;" horiz-adv-x="698" 
d="M474 979h63l-160 -144h-58zM83 700h53l397 -604v604h51v-700h-48l-401 616v-616h-52v700z" />
    <glyph glyph-name="nacute" unicode="&#x144;" horiz-adv-x="569" 
d="M411 779h62l-160 -144h-57zM480 0h-49v299q0 50 -16 82t-40 51t-52.5 26t-54.5 7q-24 0 -52 -8t-52 -29t-40 -57t-16 -93v-278h-49v500h49v-81q22 36 65.5 64t100.5 28q27 0 62.5 -8.5t67.5 -31.5t54 -64.5t22 -107.5v-299z" />
    <glyph glyph-name="uni0145" unicode="&#x145;" horiz-adv-x="698" 
d="M83 700h53l397 -604v604h51v-700h-48l-401 616v-616h-52v700zM309 -102h76v-77l-59 -107l-25 20l39 87h-31v77z" />
    <glyph glyph-name="uni0146" unicode="&#x146;" horiz-adv-x="569" 
d="M480 0h-49v299q0 50 -16 82t-40 51t-52.5 26t-54.5 7q-24 0 -52 -8t-52 -29t-40 -57t-16 -93v-278h-49v500h49v-81q22 36 65.5 64t100.5 28q27 0 62.5 -8.5t67.5 -31.5t54 -64.5t22 -107.5v-299zM233 -102h76v-77l-59 -107l-25 20l39 87h-31v77z" />
    <glyph glyph-name="Ncaron" unicode="&#x147;" horiz-adv-x="698" 
d="M313 826l-100 144h38l87 -114l85 114h38l-97 -144h-51zM83 700h53l397 -604v604h51v-700h-48l-401 616v-616h-52v700z" />
    <glyph glyph-name="ncaron" unicode="&#x148;" horiz-adv-x="569" 
d="M249 626l-100 144h38l88 -114l84 114h38l-97 -144h-51zM480 0h-49v299q0 50 -16 82t-40 51t-52.5 26t-54.5 7q-24 0 -52 -8t-52 -29t-40 -57t-16 -93v-278h-49v500h49v-81q22 36 65.5 64t100.5 28q27 0 62.5 -8.5t67.5 -31.5t54 -64.5t22 -107.5v-299z" />
    <glyph glyph-name="Eng" unicode="&#x14a;" horiz-adv-x="698" 
d="M535 2l-400 614v-616h-52v700h53l397 -604v604h51v-700v0v-23q0 -83 -46.5 -126t-131.5 -35v46q69 -8 99 22t30 93v25z" />
    <glyph glyph-name="eng" unicode="&#x14b;" horiz-adv-x="569" 
d="M431 299q0 50 -16 82t-40 51t-52.5 26t-54.5 7q-24 0 -52 -8t-52 -29t-40 -57t-16 -93v-278h-49v500h49v-82q22 37 65.5 65t100.5 28q27 0 62.5 -8.5t67.5 -31.5t54 -64.5t22 -107.5v-347q0 -84 -46.5 -127t-131.5 -35v47q69 -8 99 22t30 93v347z" />
    <glyph glyph-name="Omacron" unicode="&#x14c;" horiz-adv-x="847" 
d="M223 872v36h363v-36h-363zM409 -12q-75 0 -140.5 28.5t-114.5 77.5t-77.5 114.5t-28.5 140.5t28.5 140.5t77.5 114.5t114.5 77.5t140.5 28.5t140.5 -28.5t114.5 -77.5t77.5 -114.5t28.5 -140.5t-28.5 -140.5t-77.5 -114.5t-114.5 -77.5t-140.5 -28.5zM409 40
q64 0 120.5 24t98.5 66t66 98.5t24 120.5t-24 120.5t-66 98.5t-98.5 66t-120.5 24t-120.5 -24t-98.5 -66t-66.5 -98.5t-24.5 -120.5t24.5 -120.5t66.5 -98.5t98.5 -66t120.5 -24z" />
    <glyph glyph-name="omacron" unicode="&#x14d;" horiz-adv-x="634" 
d="M117 672v36h363v-36h-363zM303 -11q-54 0 -102 20.5t-83 56t-55.5 83t-20.5 101.5t20.5 101t55.5 82.5t83 56t102 20.5t101 -20.5t82 -56t55.5 -82.5t20.5 -101t-20.5 -101.5t-55.5 -83t-82 -56t-101 -20.5zM302 38q44 0 82.5 16.5t67.5 45.5t45.5 67.5t16.5 82.5
t-16.5 82.5t-45.5 67.5t-67.5 45.5t-82.5 16.5t-82.5 -16.5t-67.5 -45.5t-45.5 -67.5t-16.5 -82.5t16.5 -82.5t45.5 -67.5t67.5 -45.5t82.5 -16.5z" />
    <glyph glyph-name="Ohungarumlaut" unicode="&#x150;" horiz-adv-x="847" 
d="M409 989h53l-115 -144h-35zM548 989h52l-115 -144h-35zM409 -12q-75 0 -140.5 28.5t-114.5 77.5t-77.5 114.5t-28.5 140.5t28.5 140.5t77.5 114.5t114.5 77.5t140.5 28.5t140.5 -28.5t114.5 -77.5t77.5 -114.5t28.5 -140.5t-28.5 -140.5t-77.5 -114.5t-114.5 -77.5
t-140.5 -28.5zM409 40q64 0 120.5 24t98.5 66t66 98.5t24 120.5t-24 120.5t-66 98.5t-98.5 66t-120.5 24t-120.5 -24t-98.5 -66t-66.5 -98.5t-24.5 -120.5t24.5 -120.5t66.5 -98.5t98.5 -66t120.5 -24z" />
    <glyph glyph-name="ohungarumlaut" unicode="&#x151;" horiz-adv-x="634" 
d="M303 789h53l-115 -144h-35zM442 789h52l-115 -144h-35zM303 -11q-54 0 -102 20.5t-83 56t-55.5 83t-20.5 101.5t20.5 101t55.5 82.5t83 56t102 20.5t101 -20.5t82 -56t55.5 -82.5t20.5 -101t-20.5 -101.5t-55.5 -83t-82 -56t-101 -20.5zM302 38q44 0 82.5 16.5t67.5 45.5
t45.5 67.5t16.5 82.5t-16.5 82.5t-45.5 67.5t-67.5 45.5t-82.5 16.5t-82.5 -16.5t-67.5 -45.5t-45.5 -67.5t-16.5 -82.5t16.5 -82.5t45.5 -67.5t67.5 -45.5t82.5 -16.5z" />
    <glyph glyph-name="OE" unicode="&#x152;" horiz-adv-x="1117" 
d="M379 -12q-75 0 -136 28.5t-104.5 77.5t-67 114.5t-23.5 140.5t23.5 140.5t67 114.5t104.5 77.5t136 28.5q96 0 168 -46t114 -121v157h380v-49h-328v-275h303v-48h-303v-279h332v-49h-384v154q-42 -75 -114 -120.5t-168 -45.5zM379 40q64 0 115.5 24t88 66t56 98.5
t19.5 120.5t-19.5 120.5t-56 98.5t-88 66t-115.5 24t-116 -24t-88.5 -66t-56 -98.5t-19.5 -120.5t19.5 -120.5t56 -98.5t88.5 -66t116 -24z" />
    <glyph glyph-name="oe" unicode="&#x153;" horiz-adv-x="1001" 
d="M714 511q57 0 98 -21.5t68 -58t40 -84t13 -99.5q0 -7 -0.5 -10t-0.5 -11h-401q2 -39 14 -74t35 -61.5t58 -42t82 -15.5q57 0 93 26.5t57 63.5l39 -24q-16 -25 -33.5 -46t-40 -35t-51 -22t-65.5 -8q-85 0 -139.5 40t-77.5 107q-14 -32 -36 -59.5t-50 -47t-61.5 -30.5
t-71.5 -11q-54 0 -98.5 20.5t-76 55.5t-49 83t-17.5 102t17.5 102t49 83t76 55.5t98.5 20.5q38 0 71.5 -11t61.5 -30.5t50 -46.5t36 -59q23 67 75.5 107.5t136.5 40.5zM888 271q-5 45 -16.5 81t-32 61.5t-51 39t-74.5 13.5q-47 0 -81.5 -16.5t-57 -43.5t-34 -62t-11.5 -73
h358zM283 36q44 0 80.5 16.5t63.5 45t42 67.5t15 84t-15 84t-42 67.5t-63.5 45t-80.5 16.5q-43 0 -79 -17t-61 -46t-39 -67.5t-14 -82.5t14 -82.5t39 -67.5t61 -46t79 -17z" />
    <glyph glyph-name="Racute" unicode="&#x154;" horiz-adv-x="631" 
d="M427 979h62l-160 -144h-57zM134 276v-276h-51v700h259q44 0 82.5 -16.5t67.5 -45.5t45.5 -67.5t16.5 -82.5q0 -35 -10.5 -66.5t-29 -57.5t-44.5 -45.5t-57 -30.5l165 -288h-59l-160 276h-17h-208zM342 326q33 0 62.5 13t51.5 35t34.5 51.5t12.5 62.5t-12.5 62.5
t-34.5 51.5t-51.5 35t-62.5 13h-208v-324h208z" />
    <glyph glyph-name="racute" unicode="&#x155;" horiz-adv-x="337" 
d="M301 779h63l-160 -144h-58zM279 452q-4 1 -8 1h-8q-28 0 -56.5 -7.5t-51.5 -26t-37 -49t-14 -77.5v-293h-49v500h49v-93q16 38 57.5 65.5t104.5 27.5h9t10 -1zM94 275v0v0z" />
    <glyph glyph-name="uni0156" unicode="&#x156;" horiz-adv-x="631" 
d="M134 276v-276h-51v700h259q44 0 82.5 -16.5t67.5 -45.5t45.5 -67.5t16.5 -82.5q0 -35 -10.5 -66.5t-29 -57.5t-44.5 -45.5t-57 -30.5l165 -288h-59l-160 276h-17h-208zM342 326q33 0 62.5 13t51.5 35t34.5 51.5t12.5 62.5t-12.5 62.5t-34.5 51.5t-51.5 35t-62.5 13h-208
v-324h208zM281 -102h76v-77l-59 -107l-24 20l39 87h-32v77z" />
    <glyph glyph-name="uni0157" unicode="&#x157;" horiz-adv-x="337" 
d="M279 452q-4 1 -8 1h-8q-28 0 -56.5 -7.5t-51.5 -26t-37 -49t-14 -77.5v-293h-49v500h49v-93q16 38 57.5 65.5t104.5 27.5h9t10 -1zM94 275v0v0zM46 -102h76v-77l-59 -107l-24 20l39 87h-32v77z" />
    <glyph glyph-name="Rcaron" unicode="&#x158;" horiz-adv-x="631" 
d="M265 826l-99 144h37l88 -114l85 114h37l-97 -144h-51zM134 276v-276h-51v700h259q44 0 82.5 -16.5t67.5 -45.5t45.5 -67.5t16.5 -82.5q0 -35 -10.5 -66.5t-29 -57.5t-44.5 -45.5t-57 -30.5l165 -288h-59l-160 276h-17h-208zM342 326q33 0 62.5 13t51.5 35t34.5 51.5
t12.5 62.5t-12.5 62.5t-34.5 51.5t-51.5 35t-62.5 13h-208v-324h208z" />
    <glyph glyph-name="rcaron" unicode="&#x159;" horiz-adv-x="337" 
d="M140 626l-100 144h38l88 -114l84 114h38l-97 -144h-51zM279 452q-4 1 -8 1h-8q-28 0 -56.5 -7.5t-51.5 -26t-37 -49t-14 -77.5v-293h-49v500h49v-93q16 38 57.5 65.5t104.5 27.5h9t10 -1zM94 275v0v0z" />
    <glyph glyph-name="Sacute" unicode="&#x15a;" horiz-adv-x="614" 
d="M425 990h63l-160 -144h-58zM305 -11q-103 0 -171 45.5t-93 120.5l48 26q20 -61 75 -101.5t142 -40.5q48 0 83 12.5t57.5 33.5t33.5 47t11 53q0 29 -15.5 51t-42 39.5t-62.5 31t-77 25.5q-44 14 -84.5 28t-71.5 34t-49.5 50t-18.5 76q0 44 17 79.5t47 60.5t70 38t86 13
q88 0 146.5 -42.5t86.5 -105.5l-48 -23q-22 54 -68.5 87.5t-116.5 33.5q-42 0 -73 -12t-52 -31.5t-31.5 -45t-10.5 -51.5q0 -33 14.5 -54.5t40 -36.5t59 -26.5t71.5 -23.5q47 -15 89.5 -30t75 -36t52 -52t19.5 -78q0 -44 -17.5 -80t-49 -61.5t-75.5 -39.5t-97 -14z" />
    <glyph glyph-name="sacute" unicode="&#x15b;" horiz-adv-x="495" 
d="M369 790h63l-160 -144h-58zM107 367q0 -30 23.5 -46.5t58.5 -27.5t76 -20t76 -24.5t58.5 -42t23.5 -72.5q0 -32 -14 -59t-38.5 -46t-58.5 -29.5t-75 -10.5q-76 0 -126 31t-70 81l42 22q18 -47 59 -68.5t95 -21.5q27 0 51.5 6.5t44 19.5t31 31.5t11.5 43.5
q0 34 -23.5 52.5t-58.5 30t-76.5 20t-76.5 23t-58.5 39t-23.5 67.5q0 31 13 57.5t36.5 46t55.5 30.5t71 11q62 0 107.5 -26.5t67.5 -73.5l-41 -22q-15 37 -49.5 58t-84.5 21q-60 0 -93.5 -28t-33.5 -73z" />
    <glyph glyph-name="Scedilla" unicode="&#x15e;" horiz-adv-x="614" 
d="M303 -200q-62 0 -97 29l17 31q31 -28 79 -28q28 0 47 12.5t19 33.5q0 40 -41 40q-26 0 -41 -18l-27 15l27 74q-95 5 -158 49.5t-87 116.5l48 26q20 -61 75 -101.5t142 -40.5q48 0 83 12.5t57.5 33.5t33.5 47t11 53q0 29 -15.5 51t-42 39.5t-62.5 31t-77 25.5
q-44 14 -84.5 28t-71.5 34t-49.5 50t-18.5 76q0 44 17 79.5t47 60.5t70 38t86 13q88 0 146.5 -42.5t86.5 -105.5l-48 -23q-22 54 -68.5 87.5t-116.5 33.5q-42 0 -73 -12t-52 -31.5t-31.5 -45t-10.5 -51.5q0 -33 14.5 -54.5t40 -36.5t59 -26.5t71.5 -23.5q47 -15 89.5 -30
t75 -36t52 -52t19.5 -78q0 -42 -16 -77t-45 -60.5t-70 -40.5t-91 -17l-22 -57q15 12 38 12q29 0 47 -18t18 -48q0 -35 -28.5 -56.5t-71.5 -21.5z" />
    <glyph glyph-name="scedilla" unicode="&#x15f;" horiz-adv-x="495" 
d="M107 367q0 -30 23.5 -46.5t58.5 -27.5t76 -20t76 -24.5t58.5 -42t23.5 -72.5q0 -31 -12.5 -56.5t-35 -44.5t-53.5 -30.5t-68 -13.5l-22 -57q15 12 38 12q29 0 47 -18t18 -48q0 -35 -28.5 -56.5t-71.5 -21.5q-62 0 -97 29l16 31q32 -28 80 -28q28 0 47 12.5t19 33.5
q0 40 -42 40q-25 0 -40 -18l-27 15l27 74q-69 5 -113.5 35t-63.5 77l42 22q18 -47 59 -68.5t95 -21.5q27 0 51.5 6.5t44 19.5t31 31.5t11.5 43.5q0 34 -23.5 52.5t-58.5 30t-76.5 20t-76.5 23t-58.5 39t-23.5 67.5q0 31 13 57.5t36.5 46t55.5 30.5t71 11q62 0 107.5 -26.5
t67.5 -73.5l-41 -22q-15 37 -49.5 58t-84.5 21q-60 0 -93.5 -28t-33.5 -73z" />
    <glyph glyph-name="Scaron" unicode="&#x160;" horiz-adv-x="614" 
d="M264 837l-100 144h38l87 -114l85 114h37l-96 -144h-51zM305 -11q-103 0 -171 45.5t-93 120.5l48 26q20 -61 75 -101.5t142 -40.5q48 0 83 12.5t57.5 33.5t33.5 47t11 53q0 29 -15.5 51t-42 39.5t-62.5 31t-77 25.5q-44 14 -84.5 28t-71.5 34t-49.5 50t-18.5 76
q0 44 17 79.5t47 60.5t70 38t86 13q88 0 146.5 -42.5t86.5 -105.5l-48 -23q-22 54 -68.5 87.5t-116.5 33.5q-42 0 -73 -12t-52 -31.5t-31.5 -45t-10.5 -51.5q0 -33 14.5 -54.5t40 -36.5t59 -26.5t71.5 -23.5q47 -15 89.5 -30t75 -36t52 -52t19.5 -78q0 -44 -17.5 -80
t-49 -61.5t-75.5 -39.5t-97 -14z" />
    <glyph glyph-name="scaron" unicode="&#x161;" horiz-adv-x="495" 
d="M208 637l-100 144h38l88 -114l84 114h38l-97 -144h-51zM107 367q0 -30 23.5 -46.5t58.5 -27.5t76 -20t76 -24.5t58.5 -42t23.5 -72.5q0 -32 -14 -59t-38.5 -46t-58.5 -29.5t-75 -10.5q-76 0 -126 31t-70 81l42 22q18 -47 59 -68.5t95 -21.5q27 0 51.5 6.5t44 19.5
t31 31.5t11.5 43.5q0 34 -23.5 52.5t-58.5 30t-76.5 20t-76.5 23t-58.5 39t-23.5 67.5q0 31 13 57.5t36.5 46t55.5 30.5t71 11q62 0 107.5 -26.5t67.5 -73.5l-41 -22q-15 37 -49.5 58t-84.5 21q-60 0 -93.5 -28t-33.5 -73z" />
    <glyph glyph-name="uni0162" unicode="&#x162;" horiz-adv-x="572" 
d="M245 651h-222v49h496v-49h-222v-651h-12l-21 -57q15 12 37 12q29 0 47.5 -18t18.5 -48q0 -35 -29 -56.5t-72 -21.5q-61 0 -96 29l16 32q34 -29 79 -29q28 0 47 13t19 33q0 40 -41 40q-26 0 -41 -18l-27 16l27 73h-4v651z" />
    <glyph glyph-name="uni0163" unicode="&#x163;" horiz-adv-x="405" 
d="M334 0q-18 -2 -34 -3.5t-31 -1.5l-19 -52q15 12 37 12q29 0 47.5 -18t18.5 -48q0 -35 -29 -56.5t-72 -21.5q-61 0 -96 29l16 32q34 -29 80 -29q27 0 46 13t19 33q0 40 -41 40q-24 0 -41 -18l-26 16l26 71q-44 8 -65 39.5t-21 102.5v314h-126v46h126v150l48 19v-169h135
v-46h-135v-313q0 -58 19.5 -79t62.5 -21q11 0 25 1t30 3v-45z" />
    <glyph glyph-name="Tcaron" unicode="&#x164;" horiz-adv-x="572" 
d="M247 826l-100 144h38l87 -114l85 114h38l-97 -144h-51zM245 651h-222v49h496v-49h-222v-651h-52v651z" />
    <glyph glyph-name="tcaron" unicode="&#x165;" horiz-adv-x="405" 
d="M146 772l-99 144h37l88 -114l84 114h38l-97 -144h-51zM334 0q-18 -2 -34 -3.5t-30 -1.5q-30 0 -53 7t-38 24t-22.5 44.5t-7.5 69.5v314h-126v46h126v150l48 19v-169h135v-46h-135v-313q0 -58 19.5 -79t62.5 -21q11 0 25 1t30 3v-45z" />
    <glyph glyph-name="Tbar" unicode="&#x166;" horiz-adv-x="572" 
d="M245 301h-125v48h125v302h-222v49h496v-49h-222v-302h117v-48h-117v-301h-52v301z" />
    <glyph glyph-name="tbar" unicode="&#x167;" horiz-adv-x="405" 
d="M334 0q-18 -2 -34 -3.5t-30 -1.5q-30 0 -53 7t-38 24t-22.5 44.5t-7.5 69.5v170h-122v48h122v96h-126v46h126v150l48 19v-169h135v-46h-135v-96h124v-48h-124v-169q0 -58 19.5 -79t62.5 -21q11 0 25 1t30 3v-45z" />
    <glyph glyph-name="Umacron" unicode="&#x16a;" horiz-adv-x="679" 
d="M138 862v36h363v-36h-363zM74 700h52v-463q0 -43 13 -79.5t37.5 -62.5t61.5 -40.5t85 -14.5q49 0 86.5 14.5t62.5 40.5t38 62.5t13 79.5v463h52v-463q0 -55 -17.5 -101t-50.5 -78.5t-79.5 -50.5t-104.5 -18t-104 18t-78 50.5t-49.5 78.5t-17.5 101v463z" />
    <glyph glyph-name="umacron" unicode="&#x16b;" horiz-adv-x="566" 
d="M91 662v36h363v-36h-363zM61 500h48v-299q0 -50 16 -82t40 -51t53 -26t54 -7t53 8t52 29t39.5 57t15.5 93v278h49v-500h-49v81q-22 -36 -65 -64t-101 -28q-27 0 -62.5 8.5t-67 31.5t-53.5 64.5t-22 107.5v299z" />
    <glyph glyph-name="Uring" unicode="&#x16e;" horiz-adv-x="679" 
d="M324 805q-20 0 -37.5 7.5t-30.5 20.5t-20.5 30.5t-7.5 36.5q0 20 7.5 37t20.5 30t30.5 20.5t37.5 7.5t37 -7.5t29.5 -20.5t20 -30t7.5 -37q0 -19 -7 -36.5t-20 -30.5t-30 -20.5t-37 -7.5zM324 835q26 0 44.5 19t18.5 46q0 28 -18.5 46.5t-44.5 18.5q-28 0 -46.5 -19.5
t-18.5 -45.5t18.5 -45.5t46.5 -19.5zM74 700h52v-463q0 -43 13 -79.5t37.5 -62.5t61.5 -40.5t85 -14.5q49 0 86.5 14.5t62.5 40.5t38 62.5t13 79.5v463h52v-463q0 -55 -17.5 -101t-50.5 -78.5t-79.5 -50.5t-104.5 -18t-104 18t-78 50.5t-49.5 78.5t-17.5 101v463z" />
    <glyph glyph-name="uring" unicode="&#x16f;" horiz-adv-x="566" 
d="M277 605q-20 0 -37.5 7.5t-30.5 20.5t-20.5 30.5t-7.5 36.5q0 20 7.5 37t20.5 30t30.5 20.5t37.5 7.5t37 -7.5t29.5 -20.5t20 -30t7.5 -37q0 -19 -7 -36.5t-20 -30.5t-30 -20.5t-37 -7.5zM277 635q26 0 44.5 19t18.5 46q0 28 -18.5 46.5t-44.5 18.5q-28 0 -46.5 -19.5
t-18.5 -45.5t18.5 -45.5t46.5 -19.5zM61 500h48v-299q0 -50 16 -82t40 -51t53 -26t54 -7t53 8t52 29t39.5 57t15.5 93v278h49v-500h-49v81q-22 -36 -65 -64t-101 -28q-27 0 -62.5 8.5t-67 31.5t-53.5 64.5t-22 107.5v299z" />
    <glyph glyph-name="Uhungarumlaut" unicode="&#x170;" horiz-adv-x="679" 
d="M324 979h53l-115 -144h-35zM463 979h52l-115 -144h-35zM74 700h52v-463q0 -43 13 -79.5t37.5 -62.5t61.5 -40.5t85 -14.5q49 0 86.5 14.5t62.5 40.5t38 62.5t13 79.5v463h52v-463q0 -55 -17.5 -101t-50.5 -78.5t-79.5 -50.5t-104.5 -18t-104 18t-78 50.5t-49.5 78.5
t-17.5 101v463z" />
    <glyph glyph-name="uhungarumlaut" unicode="&#x171;" horiz-adv-x="566" 
d="M277 779h53l-115 -144h-35zM416 779h52l-115 -144h-35zM61 500h48v-299q0 -50 16 -82t40 -51t53 -26t54 -7t53 8t52 29t39.5 57t15.5 93v278h49v-500h-49v81q-22 -36 -65 -64t-101 -28q-27 0 -62.5 8.5t-67 31.5t-53.5 64.5t-22 107.5v299z" />
    <glyph glyph-name="Uogonek" unicode="&#x172;" horiz-adv-x="679" 
d="M74 700h52v-463q0 -43 13 -79.5t37.5 -62.5t61.5 -40.5t85 -14.5q49 0 86.5 14.5t62.5 40.5t38 62.5t13 79.5v463h52v-463q0 -52 -15.5 -96t-45 -76t-71 -51.5t-93.5 -23.5q-68 -37 -68 -94q0 -54 49 -54q41 0 55 44l30 -15q-23 -61 -85 -61q-36 0 -60 21t-24 64
q0 26 13 50.5t36 44.5q-52 4 -93 23.5t-69.5 52t-44 76t-15.5 95.5v463z" />
    <glyph glyph-name="uogonek" unicode="&#x173;" horiz-adv-x="566" 
d="M61 500h48v-299q0 -50 16 -82t40 -51t53 -26t54 -7t53 8t52 29t39.5 57t15.5 93v278h49v-500h-49v81q-19 -32 -54.5 -57.5t-83.5 -32.5q-63 -35 -63 -91q0 -54 49 -54q39 0 55 45l30 -15q-24 -62 -85 -62q-36 0 -60.5 21t-24.5 64q0 26 12 49t34 43q-28 3 -59.5 14
t-58.5 35t-44.5 63t-17.5 98v299z" />
    <glyph glyph-name="Wcircumflex" unicode="&#x174;" horiz-adv-x="987" 
d="M568 835l-88 114l-84 -114h-38l97 144h51l100 -144h-38zM31 700h53l177 -626l189 626h57l189 -626l177 626h54l-200 -700h-61l-187 615l-188 -615h-61z" />
    <glyph glyph-name="wcircumflex" unicode="&#x175;" horiz-adv-x="785" 
d="M459 635l-88 114l-85 -114h-37l97 144h51l99 -144h-37zM29 500h51l130 -433l134 433h55l138 -429l137 429h52l-162 -500h-54l-138 425l-137 -425h-52z" />
    <glyph glyph-name="Ycircumflex" unicode="&#x176;" horiz-adv-x="613" 
d="M382 835l-88 114l-84 -114h-38l97 144h51l99 -144h-37zM266 280l-257 420h59l224 -364l223 364h59l-257 -420v-280h-51v280z" />
    <glyph glyph-name="ycircumflex" unicode="&#x177;" horiz-adv-x="531" 
d="M353 635l-87 114l-85 -114h-38l97 144h51l100 -144h-38zM246 3l-233 497h53l205 -432l165 432h52l-204 -535q-32 -78 -85 -124.5t-124 -40.5v47q30 -3 55.5 8t45.5 30t35.5 44.5t26.5 52.5z" />
    <glyph glyph-name="Ydieresis" unicode="&#x178;" horiz-adv-x="613" 
d="M433 898q0 -14 -11 -25t-25 -11t-25 11t-11 25t11 25t25 11t25 -10.5t11 -25.5zM229 898q0 -14 -10.5 -25t-25.5 -11q-14 0 -24.5 11t-10.5 25t10.5 25t24.5 11q15 0 25.5 -10.5t10.5 -25.5zM266 280l-257 420h59l224 -364l223 364h59l-257 -420v-280h-51v280z" />
    <glyph glyph-name="Zacute" unicode="&#x179;" horiz-adv-x="558" 
d="M406 979h62l-160 -144h-57zM425 651h-374v49h435v-43l-381 -608h389v-49h-450v43z" />
    <glyph glyph-name="zacute" unicode="&#x17a;" horiz-adv-x="523" 
d="M398 779h63l-160 -144h-58zM441 500v-32h-1l1 -1l-319 -419h329v-48h-400v32l320 421h-310v47h380z" />
    <glyph glyph-name="Zdotaccent" unicode="&#x17b;" horiz-adv-x="558" 
d="M267 850q-14 0 -25 10.5t-11 25.5t11 26t25 11q15 0 26 -11t11 -26t-11 -25.5t-26 -10.5zM425 651h-374v49h435v-43l-381 -608h389v-49h-450v43z" />
    <glyph glyph-name="zdotaccent" unicode="&#x17c;" horiz-adv-x="523" 
d="M260 650q-14 0 -25.5 10.5t-11.5 25.5t11.5 26t25.5 11q15 0 25.5 -11t10.5 -26t-10.5 -25.5t-25.5 -10.5zM441 500v-32h-1l1 -1l-319 -419h329v-48h-400v32l320 421h-310v47h380z" />
    <glyph glyph-name="Zcaron" unicode="&#x17d;" horiz-adv-x="558" 
d="M244 826l-100 144h38l88 -114l84 114h38l-97 -144h-51zM425 651h-374v49h435v-43l-381 -608h389v-49h-450v43z" />
    <glyph glyph-name="zcaron" unicode="&#x17e;" horiz-adv-x="523" 
d="M237 626l-100 144h38l87 -114l85 114h38l-97 -144h-51zM441 500v-32h-1l1 -1l-319 -419h329v-48h-400v32l320 421h-310v47h380z" />
    <glyph glyph-name="florin" unicode="&#x192;" horiz-adv-x="420" 
d="M181 262l-93 -423h-54l94 423h-75v45h84l50 224q15 68 58.5 107t103.5 39q52 0 83 -32l-29 -40q-19 24 -51 24q-42 0 -71.5 -27.5t-40.5 -76.5l-49 -218h153v-45h-163z" />
    <glyph glyph-name="uni0218" unicode="&#x218;" horiz-adv-x="614" 
d="M305 -11q-103 0 -171 45.5t-93 120.5l48 26q20 -61 75 -101.5t142 -40.5q48 0 83 12.5t57.5 33.5t33.5 47t11 53q0 29 -15.5 51t-42 39.5t-62.5 31t-77 25.5q-44 14 -84.5 28t-71.5 34t-49.5 50t-18.5 76q0 44 17 79.5t47 60.5t70 38t86 13q88 0 146.5 -42.5t86.5 -105.5
l-48 -23q-22 54 -68.5 87.5t-116.5 33.5q-42 0 -73 -12t-52 -31.5t-31.5 -45t-10.5 -51.5q0 -33 14.5 -54.5t40 -36.5t59 -26.5t71.5 -23.5q47 -15 89.5 -30t75 -36t52 -52t19.5 -78q0 -44 -17.5 -80t-49 -61.5t-75.5 -39.5t-97 -14zM270 -113h76v-78l-58 -107l-25 21l39 86
h-32v78z" />
    <glyph glyph-name="uni0219" unicode="&#x219;" horiz-adv-x="495" 
d="M107 367q0 -30 23.5 -46.5t58.5 -27.5t76 -20t76 -24.5t58.5 -42t23.5 -72.5q0 -32 -14 -59t-38.5 -46t-58.5 -29.5t-75 -10.5q-76 0 -126 31t-70 81l42 22q18 -47 59 -68.5t95 -21.5q27 0 51.5 6.5t44 19.5t31 31.5t11.5 43.5q0 34 -23.5 52.5t-58.5 30t-76.5 20
t-76.5 23t-58.5 39t-23.5 67.5q0 31 13 57.5t36.5 46t55.5 30.5t71 11q62 0 107.5 -26.5t67.5 -73.5l-41 -22q-15 37 -49.5 58t-84.5 21q-60 0 -93.5 -28t-33.5 -73zM202 -113h76v-78l-58 -107l-25 21l39 86h-32v78z" />
    <glyph glyph-name="uni021A" unicode="&#x21a;" horiz-adv-x="572" 
d="M245 651h-222v49h496v-49h-222v-651h-52v651zM233 -102h77v-77l-59 -107l-25 20l39 87h-32v77z" />
    <glyph glyph-name="uni021B" unicode="&#x21b;" horiz-adv-x="405" 
d="M334 0q-18 -2 -34 -3.5t-30 -1.5q-30 0 -53 7t-38 24t-22.5 44.5t-7.5 69.5v314h-126v46h126v150l48 19v-169h135v-46h-135v-313q0 -58 19.5 -79t62.5 -21q11 0 25 1t30 3v-45zM220 -102h76v-77l-59 -107l-25 20l39 87h-31v77z" />
    <glyph glyph-name="uni02BC" unicode="&#x2bc;" 
 />
    <glyph glyph-name="circumflex" unicode="&#x2c6;" horiz-adv-x="248" 
d="M210 556l-88 114l-84 -114h-38l97 144h51l100 -144h-38z" />
    <glyph glyph-name="caron" unicode="&#x2c7;" horiz-adv-x="248" 
d="M100 626l-100 144h38l87 -114l85 114h38l-97 -144h-51z" />
    <glyph glyph-name="breve" unicode="&#x2d8;" horiz-adv-x="351" 
d="M351 633q-64 -88 -175 -88q-109 0 -176 88l28 24q55 -77 148 -77q94 0 148 77z" />
    <glyph glyph-name="dotaccent" unicode="&#x2d9;" horiz-adv-x="80" 
d="M40 562q-14 0 -25 10.5t-11 25.5t11 26t25 11q15 0 26 -11t11 -26t-11 -25.5t-26 -10.5z" />
    <glyph glyph-name="ring" unicode="&#x2da;" horiz-adv-x="190" 
d="M95 552q-19 0 -36.5 7.5t-30.5 20.5t-20.5 30.5t-7.5 36.5q0 20 7.5 37t20.5 30t30.5 20.5t36.5 7.5q20 0 37.5 -7.5t30 -20.5t20 -30t7.5 -37q0 -19 -7 -36.5t-20 -30.5t-30.5 -20.5t-37.5 -7.5zM95 582q26 0 45 18.5t19 46.5q0 27 -19 46t-45 19q-27 0 -45.5 -19.5
t-18.5 -45.5t18.5 -45.5t45.5 -19.5z" />
    <glyph glyph-name="ogonek" unicode="&#x2db;" horiz-adv-x="170" 
d="M115 0q-79 -38 -79 -100q0 -54 49 -54q39 0 55 45l30 -15q-24 -62 -85 -62q-37 0 -61 21t-24 64q0 36 24 68.5t64 52.5z" />
    <glyph glyph-name="tilde" unicode="&#x2dc;" horiz-adv-x="306" 
d="M214 554q-27 0 -42.5 16.5t-27 36t-23 35.5t-32.5 16q-25 0 -40 -24t-15 -74h-34q0 59 24 96.5t68 37.5q27 0 42.5 -16t27 -35.5t23.5 -36t33 -16.5q24 0 39 24t15 74h34q0 -59 -24 -96.5t-68 -37.5z" />
    <glyph glyph-name="hungarumlaut" unicode="&#x2dd;" horiz-adv-x="289" 
d="M98 700h52l-115 -144h-35zM236 700h53l-115 -144h-35z" />
    <glyph glyph-name="gravecomb" unicode="&#x300;" horiz-adv-x="214" 
d="M61 780l155 -144h-57l-160 144h62z" />
    <glyph glyph-name="acutecomb" unicode="&#x301;" horiz-adv-x="214" 
d="M154 779h62l-160 -144h-57z" />
    <glyph glyph-name="uni0302" unicode="&#x302;" horiz-adv-x="248" 
d="M210 635l-88 114l-84 -114h-38l97 144h51l100 -144h-38z" />
    <glyph glyph-name="tildecomb" unicode="&#x303;" horiz-adv-x="306" 
d="M214 642q-27 0 -42.5 16.5t-27 36t-23 35.5t-32.5 16q-25 0 -40 -24t-15 -74h-34q0 59 24 96.5t68 37.5q27 0 42.5 -16t27 -35.5t23.5 -36t33 -16.5q24 0 39 24t15 74h34q0 -59 -24 -96.5t-68 -37.5z" />
    <glyph glyph-name="uni0304" unicode="&#x304;" horiz-adv-x="363" 
d="M0 662v36h363v-36h-363z" />
    <glyph glyph-name="uni0306" unicode="&#x306;" horiz-adv-x="351" 
d="M351 728q-65 -88 -175 -88q-108 0 -176 88l28 24q55 -76 148 -76t148 76z" />
    <glyph glyph-name="uni0307" unicode="&#x307;" horiz-adv-x="80" 
d="M40 650q-14 0 -25 10.5t-11 25.5t11 26t25 11q15 0 26 -11t11 -26t-11 -25.5t-26 -10.5z" />
    <glyph glyph-name="uni0308" unicode="&#x308;" horiz-adv-x="260" 
d="M268 698q0 -14 -11 -25t-25 -11t-25 11t-11 25t11 25t25 11t25 -10.5t11 -25.5zM64 698q0 -14 -10.5 -25t-25.5 -11q-14 0 -24.5 11t-10.5 25t10.5 25t24.5 11q15 0 25.5 -10.5t10.5 -25.5z" />
    <glyph glyph-name="uni030A" unicode="&#x30a;" horiz-adv-x="190" 
d="M95 605q-19 0 -36.5 7.5t-30.5 20.5t-20.5 30.5t-7.5 36.5q0 20 7.5 37t20.5 30t30.5 20.5t36.5 7.5q20 0 37.5 -7.5t30 -20.5t20 -30t7.5 -37q0 -19 -7 -36.5t-20 -30.5t-30.5 -20.5t-37.5 -7.5zM95 635q26 0 45 19t19 46q0 28 -19 46.5t-45 18.5q-27 0 -45.5 -19.5
t-18.5 -45.5t18.5 -45.5t45.5 -19.5z" />
    <glyph glyph-name="uni030B" unicode="&#x30b;" horiz-adv-x="289" 
d="M98 779h52l-115 -144h-35zM236 779h53l-115 -144h-35z" />
    <glyph glyph-name="uni030C" unicode="&#x30c;" horiz-adv-x="248" 
d="M100 626l-100 144h38l87 -114l85 114h38l-97 -144h-51z" />
    <glyph glyph-name="uni0312" unicode="&#x312;" 
d="M172 621h-77v77l59 107l25 -20l-39 -87h32v-77z" />
    <glyph glyph-name="uni0326" unicode="&#x326;" horiz-adv-x="217" 
d="M71 -102h76v-78l-58 -107l-25 21l39 86h-32v78z" />
    <glyph glyph-name="uni0327" unicode="&#x327;" horiz-adv-x="197" 
d="M96 -189q-61 0 -96 29l16 32q34 -29 80 -29q27 0 46 13t19 33q0 40 -41 40q-24 0 -41 -18l-26 16l31 84h36l-26 -68q15 12 37 12q29 0 47.5 -18t18.5 -48q0 -35 -29 -56.5t-72 -21.5z" />
    <glyph glyph-name="uni0328" unicode="&#x328;" horiz-adv-x="170" 
d="M115 0q-79 -38 -79 -100q0 -54 49 -54q39 0 55 45l30 -15q-24 -62 -85 -62q-37 0 -61 21t-24 64q0 36 24 68.5t64 52.5z" />
    <glyph glyph-name="uni0335" unicode="&#x335;" 
d="M15 302v48h294v-48h-294z" />
    <glyph glyph-name="uni0337" unicode="&#x337;" 
d="M170 160l275 307l38 -34l-275 -307z" />
    <glyph glyph-name="uni0338" unicode="&#x338;" 
d="M-37 -71l588 657l28 -26l-588 -658z" />
    <glyph glyph-name="tonos" unicode="&#x384;" horiz-adv-x="229" 
d="M194 765l-52 -190h-37l21 190h68z" />
    <glyph glyph-name="uni03BC" unicode="&#x3bc;" horiz-adv-x="550" 
d="M130 -184h-48v667h48v-330q0 -123 120 -123q23 0 45.5 6.5t43.5 18t39 26.5t30 32v370h48v-398q0 -78 63 -70l-20 -24q-42 -4 -64.5 15t-26.5 66q-34 -39 -80 -60.5t-91 -21.5q-33 0 -61.5 13t-45.5 42v-229z" />
    <glyph glyph-name="pi" unicode="&#x3c0;" horiz-adv-x="674" 
d="M619 454h-108v-312q0 -59 19 -80t62 -21q11 0 25 1.5t30 3.5v-46q-18 -2 -34 -3.5t-30 -1.5q-30 0 -53 7t-38 24t-22.5 44.5t-7.5 69.5v314h-280v-454h-48v454h-105v46h590v-46z" />
    <glyph glyph-name="Wgrave" unicode="&#x1e80;" horiz-adv-x="987" 
d="M349 981l155 -144h-58l-160 144h63zM31 700h53l177 -626l189 626h57l189 -626l177 626h54l-200 -700h-61l-187 615l-188 -615h-61z" />
    <glyph glyph-name="wgrave" unicode="&#x1e81;" horiz-adv-x="785" 
d="M239 781l155 -144h-57l-160 144h62zM29 500h51l130 -433l134 433h55l138 -429l137 429h52l-162 -500h-54l-138 425l-137 -425h-52z" />
    <glyph glyph-name="Wacute" unicode="&#x1e82;" horiz-adv-x="987" 
d="M616 979h62l-160 -144h-57zM31 700h53l177 -626l189 626h57l189 -626l177 626h54l-200 -700h-61l-187 615l-188 -615h-61z" />
    <glyph glyph-name="wacute" unicode="&#x1e83;" horiz-adv-x="785" 
d="M506 779h63l-160 -144h-58zM29 500h51l130 -433l134 433h55l138 -429l137 429h52l-162 -500h-54l-138 425l-137 -425h-52z" />
    <glyph glyph-name="Wdieresis" unicode="&#x1e84;" horiz-adv-x="987" 
d="M619 898q0 -14 -10.5 -25t-25.5 -11q-14 0 -24.5 11t-10.5 25t10.5 25t24.5 11q15 0 25.5 -10.5t10.5 -25.5zM415 898q0 -14 -10.5 -25t-25.5 -11q-14 0 -24.5 11t-10.5 25t10.5 25t24.5 11q15 0 25.5 -10.5t10.5 -25.5zM31 700h53l177 -626l189 626h57l189 -626l177 626
h54l-200 -700h-61l-187 615l-188 -615h-61z" />
    <glyph glyph-name="wdieresis" unicode="&#x1e85;" horiz-adv-x="785" 
d="M510 698q0 -14 -11 -25t-25 -11t-25 11t-11 25t11 25t25 11t25 -10.5t11 -25.5zM306 698q0 -14 -10.5 -25t-25.5 -11q-14 0 -24.5 11t-10.5 25t10.5 25t24.5 11q15 0 25.5 -10.5t10.5 -25.5zM29 500h51l130 -433l134 433h55l138 -429l137 429h52l-162 -500h-54l-138 425
l-137 -425h-52z" />
    <glyph glyph-name="Germandbls" unicode="&#x1e9e;" horiz-adv-x="615" 
d="M280 385v0l192 132q-14 143 -181 143q-150 0 -158 -141v-519h-50v519q5 94 58 142t153 47q111 0 169.5 -50.5t60.5 -150.5l-172 -127q91 -12 140.5 -58t50.5 -120q3 -94 -57.5 -147.5t-172.5 -54.5h-90v49h90q84 0 130.5 40.5t45.5 112.5q-2 63 -57 99t-152 36v48z" />
    <glyph glyph-name="Ygrave" unicode="&#x1ef2;" horiz-adv-x="613" 
d="M162 981l155 -144h-57l-160 144h62zM266 280l-257 420h59l224 -364l223 364h59l-257 -420v-280h-51v280z" />
    <glyph glyph-name="ygrave" unicode="&#x1ef3;" horiz-adv-x="531" 
d="M134 781l155 -144h-58l-160 144h63zM246 3l-233 497h53l205 -432l165 432h52l-204 -535q-32 -78 -85 -124.5t-124 -40.5v47q30 -3 55.5 8t45.5 30t35.5 44.5t26.5 52.5z" />
    <glyph glyph-name="uni2009" unicode="&#x2009;" horiz-adv-x="121" 
 />
    <glyph glyph-name="endash" unicode="&#x2013;" horiz-adv-x="593" 
d="M30 220v45h533v-45h-533z" />
    <glyph glyph-name="emdash" unicode="&#x2014;" horiz-adv-x="833" 
d="M30 220v45h773v-45h-773z" />
    <glyph glyph-name="quoteleft" unicode="&#x2018;" horiz-adv-x="207" 
d="M146 647l-39 -87q38 -3 38 -42q0 -44 -43 -44q-20 0 -32 13t-12 33q1 25 9 45t25 52l29 50z" />
    <glyph glyph-name="quoteright" unicode="&#x2019;" horiz-adv-x="207" 
d="M61 503l39 87q-38 3 -38 42q0 43 43 43q20 0 32 -12.5t12 -33.5q-1 -24 -9 -44t-26 -52l-28 -50z" />
    <glyph glyph-name="quotesinglbase" unicode="&#x201a;" horiz-adv-x="207" 
d="M61 -94l39 87q-38 3 -38 42q0 44 43 44q20 0 32 -13t12 -33q-1 -25 -9 -45t-26 -52l-28 -50z" />
    <glyph glyph-name="quotereversed" unicode="&#x201b;" horiz-adv-x="207" 
d="M146 503l-25 -20l-29 50q-17 32 -25 52t-9 44q0 21 12 33.5t32 12.5q43 0 43 -43q0 -39 -38 -42z" />
    <glyph glyph-name="quotedblleft" unicode="&#x201c;" horiz-adv-x="318" 
d="M264 651l-39 -86q38 -3 38 -43q0 -43 -43 -43q-20 0 -32 12.5t-12 33.5q1 24 9 44t25 52l29 51zM147 651l-39 -86q38 -3 38 -43q0 -43 -43 -43q-20 0 -32 12.5t-12 33.5q1 24 9 44t26 52l28 51z" />
    <glyph glyph-name="quotedblright" unicode="&#x201d;" horiz-adv-x="322" 
d="M175 503l39 87q-39 3 -39 42q0 21 11.5 32t31.5 11t32.5 -12.5t11.5 -33.5q-1 -24 -9 -44t-25 -52l-28 -50zM54 503l39 87q-39 3 -39 42q0 43 43 43q20 0 32 -12.5t12 -33.5q-1 -24 -9 -44t-25 -52l-29 -50z" />
    <glyph glyph-name="quotedblbase" unicode="&#x201e;" horiz-adv-x="356" 
d="M200 -89l39 86q-38 3 -38 43q0 43 43 43q20 0 32 -12.5t12 -33.5q-1 -24 -9 -44t-25 -52l-29 -51zM79 -89l39 86q-39 3 -39 43q0 21 11.5 32t31.5 11t32.5 -12.5t12.5 -33.5q-1 -24 -9 -44t-26 -52l-28 -51z" />
    <glyph glyph-name="dagger" unicode="&#x2020;" horiz-adv-x="256" 
d="M232 570v-34l-89 4l4 -213h-38l4 213l-89 -4v34l89 -3l-4 110h38l-4 -110z" />
    <glyph glyph-name="daggerdbl" unicode="&#x2021;" horiz-adv-x="256" 
d="M143 567l89 3v-34l-89 4v-222l89 4v-34l-89 3l4 -111h-38l4 111l-89 -3v34l89 -4v222l-89 -4v34l89 -3l-4 110h38z" />
    <glyph glyph-name="bullet" unicode="&#x2022;" horiz-adv-x="358" 
d="M282 242q0 -21 -8 -39t-22 -32t-32.5 -22t-39.5 -8t-39.5 8t-32.5 22t-22 32t-8 39t8 39.5t22 32.5t32.5 22t39.5 8t39.5 -8t32.5 -22t22 -32.5t8 -39.5z" />
    <glyph glyph-name="ellipsis" unicode="&#x2026;" horiz-adv-x="652" 
d="M65 35q0 21 11.5 32.5t31.5 11.5q42 0 42 -44q0 -43 -42 -43q-43 0 -43 43zM283 35q0 44 43 44q42 0 42 -44q0 -43 -42 -43q-43 0 -43 43zM500 35q0 21 11.5 32.5t31.5 11.5q42 0 42 -44q0 -43 -42 -43q-43 0 -43 43z" />
    <glyph glyph-name="perthousand" unicode="&#x2030;" horiz-adv-x="1065" 
d="M347 512q0 -35 -11.5 -64.5t-32.5 -51.5t-49.5 -34t-63.5 -12q-34 0 -62.5 12t-49.5 34t-32.5 51.5t-11.5 64.5q0 36 11.5 66t32.5 52t49.5 34.5t62.5 12.5q35 0 63.5 -12.5t49.5 -34.5t32.5 -52t11.5 -66zM171 0h-43l426 667h44zM302 512q0 56 -31 93t-81 37
q-24 0 -44.5 -10t-35.5 -27.5t-23.5 -41t-8.5 -51.5q0 -26 8.5 -49t23.5 -40.5t35.5 -27.5t44.5 -10q25 0 45.5 9.5t35.5 27t23 40.5t8 50zM684 151q0 -35 -11.5 -65t-32 -51.5t-49 -34t-63.5 -12.5q-34 0 -62.5 12.5t-49.5 34t-32.5 51.5t-11.5 65q0 36 11.5 66t32.5 51.5
t49.5 34t62.5 12.5q35 0 63.5 -12.5t49 -34t32 -51.5t11.5 -66zM1031 151q0 -35 -11.5 -65t-32.5 -51.5t-49.5 -34t-63.5 -12.5q-34 0 -62.5 12.5t-49.5 34t-32.5 51.5t-11.5 65q0 36 11.5 66t32.5 51.5t49.5 34t62.5 12.5q35 0 63.5 -12.5t49.5 -34t32.5 -51.5t11.5 -66z
M640 151q0 55 -31 92t-81 37t-81 -37t-31 -92q0 -27 8 -50.5t23 -40.5t35.5 -27t45.5 -10t45.5 10t35.5 27t23 40.5t8 50.5zM987 151q0 27 -8 51t-23 41t-36 27t-46 10q-50 0 -81 -37t-31 -92q0 -27 8 -50.5t23 -40.5t35.5 -27t45.5 -10t46 10t36 27t23 40.5t8 50.5z" />
    <glyph glyph-name="guilsinglleft" unicode="&#x2039;" horiz-adv-x="274" 
d="M190 63l-160 180l160 177h54l-160 -177l160 -180h-54z" />
    <glyph glyph-name="guilsinglright" unicode="&#x203a;" horiz-adv-x="274" 
d="M84 63h-54l160 180l-160 177h54l160 -177z" />
    <glyph glyph-name="fraction" unicode="&#x2044;" horiz-adv-x="459" 
d="M0 0l405 700h54l-406 -700h-53z" />
    <glyph glyph-name="colonmonetary" unicode="&#x20a1;" horiz-adv-x="673" 
d="M398 -12q-5 0 -13.5 0.5t-19.5 1.5l-29 -90h-31l31 94q-23 4 -46 11t-45 18l-41 -123h-31l46 138q-72 45 -113 121.5t-41 173.5q0 75 25.5 138.5t70.5 109.5t106 71.5t131 25.5q6 0 15 -0.5t21 -1.5l31 92h31l-33 -97q46 -9 90 -34l44 131h31l-50 -147q26 -18 52 -48
l-25 -22q-9 11 -18.5 20t-19.5 17l-191 -569q5 -1 22 -1q63 0 117 26t90 71l26 -21q-94 -106 -233 -106zM100 333q0 -85 34.5 -153.5t95.5 -110.5l194 578q-4 1 -10.5 1h-15.5q-63 0 -117.5 -23t-94.5 -65t-63 -100t-23 -127zM256 53q38 -22 90 -31l196 584q-42 27 -88 36z
" />
    <glyph glyph-name="franc" unicode="&#x20a3;" horiz-adv-x="552" 
d="M95 667h420v-48h-367v-253h360v-48h-360v-131h226v-36h-226v-151h-53v151h-84v36h84v480z" />
    <glyph glyph-name="lira" unicode="&#x20a4;" horiz-adv-x="502" 
d="M355 362v-37h-167q20 -21 31 -41t16 -38h120v-36h-119q-1 -46 -21 -79t-57 -61q26 10 53 10q21 0 41.5 -7t39.5 -15.5t38 -15.5t37 -7q32 0 60.5 13.5t40.5 28.5l25 -44q-47 -47 -129 -47q-30 0 -51 7.5t-40 16.5t-38.5 16.5t-48.5 7.5q-20 0 -50 -10.5t-69 -30.5l-20 45
q70 31 106.5 76t36.5 96h-172v36h165q-10 33 -53 79h-112v37h82q-50 56 -50 123q0 40 16.5 75t45.5 61t68.5 41t84.5 15q60 0 110 -28.5t76 -78.5l-43 -27q-7 18 -21 34t-32.5 28t-40.5 19t-46 7q-34 0 -63.5 -10.5t-51.5 -29.5t-34.5 -46t-12.5 -60q0 -63 54 -123h195z" />
    <glyph glyph-name="peseta" unicode="&#x20a7;" horiz-adv-x="621" 
d="M541 449q-3 -38 -18.5 -70.5t-41 -56t-61 -37t-78.5 -13.5h-194v-272h-53v449h-84v39h84v179h247q44 0 79 -13.5t61 -37.5t41 -57t18 -71h76v-39h-76zM148 488h336q-5 60 -44 95.5t-102 35.5h-190v-131zM338 320q62 0 101.5 35.5t44.5 93.5h-336v-129h190z" />
    <glyph glyph-name="uni20A8" unicode="&#x20a8;" horiz-adv-x="992" 
d="M475 0l-189 278h-149v-278h-53v667h246q44 0 81 -13.5t64 -39t42 -61.5t15 -80t-14.5 -79t-40 -59.5t-59.5 -38t-73 -14.5l195 -282h-65zM326 327q33 0 61 10.5t47.5 30t30.5 46.5t11 59t-11 59t-30.5 46.5t-47.5 30t-61 10.5h-189v-292h189zM758 -12q-114 0 -185 77
l30 34q56 -71 156 -71q61 0 96 28.5t35 72.5q0 36 -22.5 55t-56.5 31t-74 21t-74 23t-56.5 38t-22.5 66q0 28 12 52t34 42t53.5 28t71.5 10q111 0 171 -72l-27 -32q-47 64 -144 64q-57 0 -90 -25t-33 -66q0 -31 22.5 -48t56.5 -28t74 -20.5t74 -25t56.5 -42t22.5 -70.5
q0 -62 -46 -102t-134 -40z" />
    <glyph glyph-name="uni20AA" unicode="&#x20aa;" horiz-adv-x="809" 
d="M279 0v394h49v-349h180q88 0 129 41t41 125v339h49v-341q0 -103 -54 -156t-165 -53h-229zM310 550q112 0 166 -53t54 -156v-186h-49v184q0 84 -41.5 125.5t-129.5 41.5h-179v-506h-49v550h228z" />
    <glyph glyph-name="Euro" unicode="&#x20ac;" horiz-adv-x="689" 
d="M417 -12q-60 0 -113.5 18t-96.5 51.5t-73 80.5t-44 105h-54v39h47q-3 21 -3 51q0 20 3 54h-47v38h54q14 57 45 104t73.5 80t96 51t112.5 18q78 0 137.5 -30.5t103.5 -85.5l-44 -29q-33 45 -85 71t-112 26q-48 0 -91.5 -14.5t-78 -41.5t-60 -65t-37.5 -84h327v-38h-337
q-2 -12 -3 -25.5t-1 -28.5q0 -9 1 -22t3 -29h337v-39h-327q12 -47 37 -85t60 -65t78.5 -41.5t91.5 -14.5q60 0 112 26t85 71l45 -29q-45 -55 -104.5 -86t-137.5 -31z" />
    <glyph glyph-name="uni2113" unicode="&#x2113;" horiz-adv-x="450" 
d="M130 299v-203q0 -67 51 -67q33 0 54 24l20 -35q-31 -30 -81 -30q-92 0 -92 104v423q0 34 12.5 63.5t35.5 51.5t54.5 34.5t68.5 12.5q35 0 64 -8.5t50.5 -24.5t33.5 -37t12 -47q0 -42 -29 -74.5t-78 -66.5zM130 352l156 105q41 27 60.5 50t19.5 52q0 18 -9.5 32.5t-25 25
t-36 16t-42.5 5.5q-26 0 -48.5 -9t-39 -25t-26 -39t-9.5 -52v-161z" />
    <glyph glyph-name="uni2116" unicode="&#x2116;" horiz-adv-x="1103" 
d="M900 350q-35 0 -64 13t-50 35t-32.5 52.5t-11.5 64.5q0 35 11.5 65.5t32.5 52.5t50 34.5t64 12.5q36 0 65 -12.5t49.5 -34.5t32 -52.5t11.5 -65.5q0 -34 -11.5 -64.5t-32 -52.5t-49.5 -35t-65 -13zM614 667v-667h-52l-425 580v-580h-53v667h54l423 -572v572h53zM900 385
q54 0 85 37.5t31 92.5t-31 92t-85 37t-84.5 -37t-30.5 -92t30.5 -92.5t84.5 -37.5z" />
    <glyph glyph-name="uni2117" unicode="&#x2117;" horiz-adv-x="778" 
d="M734 334q0 -71 -27 -133.5t-74 -109.5t-109.5 -74.5t-134.5 -27.5t-134.5 27.5t-109.5 74.5t-74 109.5t-27 133.5t27 133.5t74 109.5t109.5 74.5t134.5 27.5q73 0 136 -27.5t109.5 -74.5t73 -109.5t26.5 -133.5zM706 334q0 65 -25 123t-68 101t-101 68t-123 25t-123 -25
t-101 -68t-68 -101t-25 -123t25 -123t68 -101t101 -68t123 -25q66 0 123.5 25t100.5 68t68 100.5t25 123.5zM547 421q0 -26 -9.5 -47t-26.5 -35.5t-40 -22.5t-49 -8h-112v-177h-33v405h145q53 0 89 -30.5t36 -84.5zM514 421q0 39 -25 61.5t-67 22.5h-112v-166h112
q42 0 67 22t25 60z" />
    <glyph glyph-name="uni2120" unicode="&#x2120;" horiz-adv-x="476" 
d="M188 506q0 -31 -22.5 -49t-64.5 -18q-54 0 -86 36l18 21q29 -32 66 -32q56 0 56 39q0 19 -21.5 30t-46.5 15t-46.5 19t-21.5 42q0 28 22.5 46t57.5 18q55 0 82 -32l-18 -19q-22 27 -63 27q-21 0 -34.5 -10t-13.5 -26q0 -17 21 -26.5t47 -14.5t47 -21t21 -45zM439 667
v-220h-28v182l-75 -182h-8l-75 182v-182h-28v220h43l64 -160l64 160h43z" />
    <glyph glyph-name="trademark" unicode="&#x2122;" horiz-adv-x="356" 
d="M291 667v-124h-16v106l-42 -66h-4l-43 66v-106h-15v124h24l36 -57l36 57h24zM150 667v-15h-34v-109h-16v109h-35v15h85z" />
    <glyph glyph-name="uni2126" unicode="&#x2126;" horiz-adv-x="764" 
d="M78 48h142q-79 47 -120 119t-41 172q0 74 23.5 136t66 107t102 70.5t131.5 25.5t131.5 -25.5t102 -70.5t66 -107t23.5 -136q0 -197 -160 -291h142v-48h-225v48q38 9 72 33t59.5 61t40.5 85t15 106q0 64 -18.5 118t-53 93.5t-84 62t-111.5 22.5t-111.5 -22.5t-84 -62
t-53 -93.5t-18.5 -118q0 -58 15 -106t41 -85t60 -61t72 -33v-48h-225v48z" />
    <glyph glyph-name="estimated" unicode="&#x212e;" horiz-adv-x="842" 
d="M811 324h-632q-5 0 -5 -5v-190q0 -14 9 -23q97 -103 240 -103q151 0 250 115h57q-54 -63 -134.5 -99.5t-174.5 -36.5q-81 0 -152 27.5t-124 75.5t-83.5 112t-30.5 136t30.5 136t83.5 112t124 75.5t152 27.5t152 -27.5t124 -75.5t83.5 -112t30.5 -136v-9zM668 540
q0 14 -10 24q-97 99 -235 99q-140 0 -239 -102q-10 -10 -10 -24v-188q0 -6 5 -6h485q4 0 4 6v191z" />
    <glyph glyph-name="arrowleft" unicode="&#x2190;" horiz-adv-x="582" 
d="M269 211l12 -130l-281 205l281 204l-12 -129h269v-150h-269z" />
    <glyph glyph-name="arrowup" unicode="&#x2191;" horiz-adv-x="582" 
d="M216 286l-130 -12l205 281l204 -281l-129 12v-269h-150v269z" />
    <glyph glyph-name="arrowright" unicode="&#x2192;" horiz-adv-x="582" 
d="M303 81l12 130h-268v150h268l-12 129l281 -204z" />
    <glyph glyph-name="arrowdown" unicode="&#x2193;" horiz-adv-x="582" 
d="M366 286l130 12l-205 -281l-204 281l129 -12v269h150v-269z" />
    <glyph glyph-name="partialdiff" unicode="&#x2202;" horiz-adv-x="571" 
d="M285 -12q-51 0 -93.5 19.5t-73 53t-47 79.5t-16.5 99t16.5 98.5t46 79t70.5 52.5t90 19q97 0 155 -83q-15 33 -41 66t-60 64t-75 59t-88 50l34 35q66 -33 123 -77.5t99 -100t66.5 -120t24.5 -136.5q0 -55 -16.5 -102.5t-46.5 -81.5t-72.5 -53.5t-95.5 -19.5zM285 32
q42 0 75 16t56.5 44t35.5 66t12 81t-12 80.5t-35.5 65.5t-56.5 44t-75 16q-41 0 -74 -16t-56 -44t-35.5 -65.5t-12.5 -80.5t12.5 -81t35.5 -66t56 -44t74 -16z" />
    <glyph glyph-name="uni2206" unicode="&#x2206;" horiz-adv-x="645" 
d="M16 0l274 667h65l274 -667h-613zM323 610l-229 -562h458z" />
    <glyph glyph-name="product" unicode="&#x220f;" horiz-adv-x="668" 
d="M467 -90v709h-267v-709h-53v709h-111v48h596v-48h-112v-709h-53z" />
    <glyph glyph-name="summation" unicode="&#x2211;" horiz-adv-x="571" 
d="M60 667h452v-48h-387l243 -320l-246 -341h390v-48h-453v48l245 340l-244 321v48z" />
    <glyph glyph-name="minus" unicode="&#x2212;" horiz-adv-x="496" 
d="M467 317h-438v39h438v-39z" />
    <glyph glyph-name="radical" unicode="&#x221a;" horiz-adv-x="747" 
d="M711 667l-273 -667h-44l-140 340l-166 -68l-15 37l203 82l141 -338l253 614h41z" />
    <glyph glyph-name="infinity" unicode="&#x221e;" horiz-adv-x="639" 
d="M177 176q-36 0 -63.5 13t-46.5 35t-28.5 51t-9.5 60q0 32 9.5 61t28 50.5t46.5 34.5t64 13q48 0 84 -32t58 -82q22 50 58.5 82t84.5 32q37 0 64.5 -13t46 -34.5t28 -50.5t9.5 -61q0 -31 -9.5 -60t-28 -51t-46.5 -35t-64 -13q-48 0 -84.5 32t-58.5 82q-22 -50 -58 -82
t-84 -32zM460 216q51 0 79.5 33t28.5 86q0 54 -28.5 87t-79.5 33q-75 0 -122 -120q47 -119 122 -119zM180 216q74 0 121 119q-47 120 -121 120q-52 0 -80.5 -33t-28.5 -87q0 -53 29 -86t80 -33z" />
    <glyph glyph-name="integral" unicode="&#x222b;" horiz-adv-x="335" 
d="M17 -100v40h62q27 0 47.5 23.5t20.5 58.5v624q0 27 9 49t24 38.5t35 25.5t41 9h62v-40h-62q-27 0 -47 -23.5t-20 -58.5v-624q0 -27 -9 -49.5t-24.5 -38.5t-35.5 -25t-41 -9h-62z" />
    <glyph glyph-name="approxequal" unicode="&#x2248;" horiz-adv-x="496" 
d="M29 454q47 -35 110 -35q33 0 57.5 9.5t48 21.5t50 21.5t62.5 9.5q61 0 110 -29v-46q-47 35 -110 35q-33 0 -58 -9.5t-49 -21t-50 -21t-61 -9.5q-63 0 -110 28v46zM29 262q47 -35 110 -35q33 0 57.5 9.5t48 21.5t50 21.5t62.5 9.5q61 0 110 -29v-46q-45 35 -110 35
q-33 0 -58 -9.5t-49 -21t-50 -21t-61 -9.5q-63 0 -110 28v46z" />
    <glyph glyph-name="notequal" unicode="&#x2260;" horiz-adv-x="496" 
d="M73 93l79 123h-123v40h148l100 156h-248v40h273l77 122h45l-79 -122h122v-40h-146l-101 -156h247v-40h-272l-78 -123h-44z" />
    <glyph glyph-name="lessequal" unicode="&#x2264;" horiz-adv-x="496" 
d="M29 321v35l438 228v-47l-387 -199l387 -197v-47zM29 0v39h438v-39h-438z" />
    <glyph glyph-name="greaterequal" unicode="&#x2265;" horiz-adv-x="496" 
d="M29 94v47l387 197l-387 199v47l438 -228v-35zM28 0v39h438v-39h-438z" />
    <glyph glyph-name="uni22B2" unicode="&#x22b2;" horiz-adv-x="587" 
d="M54 -23v618l535 -309z" />
    <glyph glyph-name="uni22B3" unicode="&#x22b3;" horiz-adv-x="587" 
d="M535 -23l-535 309l535 309v-618z" />
    <glyph glyph-name="dotmath" unicode="&#x22c5;" horiz-adv-x="208" 
d="M130 271q11 -11 11 -26q0 -14 -10 -25.5t-27 -11.5q-16 0 -26.5 11.5t-10.5 25.5t11.5 25t25.5 11q15 0 26 -10z" />
    <glyph glyph-name="uni2318" unicode="&#x2318;" horiz-adv-x="667" 
d="M625 154q0 -23 -9 -43.5t-24 -35.5t-35 -24t-43 -9t-43.5 9t-35.5 24t-24 35.5t-9 43.5v58h-137v-58q0 -23 -9 -43.5t-24 -35.5t-35.5 -24t-43.5 -9t-43 9t-35 24t-24 35.5t-9 43.5t9 43t24 35t35 24t43 9h58v137h-57q-23 0 -43.5 9t-35.5 24t-24 35.5t-9 43.5t9 43
t24 35t35.5 24t43.5 9t43 -9t35 -24t24 -35t9 -43v-59h137v59q0 23 9 43t24 35t35.5 24t43.5 9t43 -9t35 -24t24 -35t9 -43t-9 -43.5t-24 -35.5t-35 -24t-43 -9h-58v-137h58q23 0 43 -9t35 -24t24 -35t9 -43zM211 514q0 24 -17 41t-40 17q-25 0 -42 -17t-17 -41t17 -41.5
t42 -17.5h57v59zM572 514q0 24 -17.5 41t-40.5 17q-24 0 -41 -17t-17 -41v-59h58q23 0 40.5 17.5t17.5 41.5zM402 265v137h-137v-137h137zM211 212h-58q-24 0 -41 -17.5t-17 -40.5q0 -25 17 -42t41 -17t41 17t17 42v58zM572 154q0 23 -17 40.5t-41 17.5h-58v-58
q0 -25 17 -42t41 -17t41 17t17 42z" />
    <glyph glyph-name="filledbox" unicode="&#x25a0;" horiz-adv-x="661" 
d="M618 572v-572h-571v572h571z" />
    <glyph glyph-name="triagup" unicode="&#x25b2;" horiz-adv-x="616" 
d="M307 565l310 -536l-619 1z" />
    <glyph glyph-name="triagdn" unicode="&#x25bc;" horiz-adv-x="616" 
d="M-2 510h619l-310 -535z" />
    <glyph glyph-name="lozenge" unicode="&#x25ca;" horiz-adv-x="375" 
d="M356 334l-158 -334h-21l-158 334l158 333h21zM55 334l133 -293l132 293l-133 292z" />
    <glyph glyph-name="uni25CF" unicode="&#x25cf;" horiz-adv-x="695" 
d="M644 285q0 -61 -23.5 -115.5t-63.5 -94.5t-94 -63.5t-116 -23.5q-61 0 -115.5 23.5t-94.5 63.5t-63.5 94.5t-23.5 115.5q0 62 23.5 116t63.5 94t94.5 63.5t115.5 23.5q62 0 116 -23t94.5 -63.5t63.5 -94.5t23 -116z" />
    <glyph glyph-name="uni2605" unicode="&#x2605;" horiz-adv-x="759" 
d="M469 421h290l-235 -171l90 -275l-235 170l-234 -170l89 275l-234 171h290l89 276z" />
    <glyph glyph-name="uni2610" unicode="&#x2610;" horiz-adv-x="661" 
d="M616 572v-572h-571v572h571zM87 39h487v494h-487v-494z" />
    <glyph glyph-name="diamond" unicode="&#x2666;" horiz-adv-x="501" 
d="M250 35l-250 250l250 251l251 -251z" />
    <glyph glyph-name="uni2713" unicode="&#x2713;" horiz-adv-x="531" 
d="M202 91l-202 246l32 30l165 -204l299 558l35 -23z" />
    <glyph glyph-name="uniE000" unicode="&#xe000;" horiz-adv-x="1624" 
d="M1225 667l333 -472l-333 -326l-567 798h567zM538 667l287 -398l-287 -269l-473 667h473z" />
    <glyph glyph-name="uniF6B6" unicode="&#xf6b6;" horiz-adv-x="395" 
d="M205 342l160 -180h-54l-160 180l160 177h54zM84 342l160 -180h-54l-160 180l160 177h54z" />
    <glyph glyph-name="uniF6B7" unicode="&#xf6b7;" horiz-adv-x="395" 
d="M84 519l160 -177l-160 -180h-54l160 180l-160 177h54zM205 519l160 -177l-160 -180h-54l160 180l-160 177h54z" />
    <glyph glyph-name="uniF6B8" unicode="&#xf6b8;" horiz-adv-x="274" 
d="M84 342l160 -180h-54l-160 180l160 177h54z" />
    <glyph glyph-name="uniF6B9" unicode="&#xf6b9;" horiz-adv-x="274" 
d="M84 519l160 -177l-160 -180h-54l160 180l-160 177h54z" />
    <glyph glyph-name="uniF6BA" unicode="&#xf6ba;" horiz-adv-x="368" 
d="M49 319v45h240v-45h-240z" />
    <glyph glyph-name="uniF6BB" unicode="&#xf6bb;" horiz-adv-x="593" 
d="M30 319v45h533v-45h-533z" />
    <glyph glyph-name="uniF6BC" unicode="&#xf6bc;" horiz-adv-x="833" 
d="M30 319v45h773v-45h-773z" />
    <glyph glyph-name="uniF6C3" unicode="&#xf6c3;" horiz-adv-x="217" 
d="M153 -137q0 -38 -19 -72.5t-47 -54.5l-27 21q23 17 38.5 42t16.5 48q-4 -1 -9 -1q-16 0 -26 10t-10 27q0 16 10.5 27t27.5 11q18 0 31.5 -15.5t13.5 -42.5z" />
    <glyph glyph-name="uniF8FF" unicode="&#xf8ff;" horiz-adv-x="1624" 
d="M1225 667l333 -472l-333 -326l-567 798h567zM538 667l287 -398l-287 -269l-473 667h473z" />
    <glyph glyph-name="idotaccent" horiz-adv-x="219" 
d="M90 650q-14 0 -25.5 10.5t-11.5 25.5t11.5 26t25.5 11q15 0 25.5 -11t10.5 -26t-10.5 -25.5t-25.5 -10.5zM69 500h49v-500h-49v500z" />
    <glyph glyph-name="a.ss01" horiz-adv-x="549" 
d="M460 0h-49v53q-24 -30 -65 -47t-97 -17q-100 -2 -153.5 38.5t-53.5 112.5q-2 66 45.5 104.5t138.5 38.5q69 0 117 6t68 17v33q0 59 -42.5 93t-118.5 34q-45 0 -87.5 -23.5t-71.5 -61.5l-28 30q15 23 36 41t46 31.5t53 20.5t56 7q94 0 150 -44.5t56 -124.5v-342zM256 32
q72 0 113.5 31.5t41.5 87.5v116q-20 -11 -64.5 -18t-106.5 -7q-149 0 -149 -102q0 -54 42.5 -81t122.5 -27z" />
    <glyph glyph-name="b.ss01" horiz-adv-x="642" 
d="M59 656l49 12v-292q29 60 82.5 97t125.5 37q54 0 98 -20.5t75.5 -55.5t48.5 -83t17 -102t-17 -102t-48.5 -83t-75.5 -55.5t-98 -20.5q-72 0 -125.5 37t-82.5 97v-122h-49v656zM315 36q44 0 79 17t60.5 46t39 67.5t13.5 82.5t-13.5 82.5t-39 67.5t-60.5 46t-79 17
q-43 0 -81 -16.5t-65.5 -45t-43.5 -67.5t-16 -84t16 -84t43.5 -67.5t65.5 -45t81 -16.5z" />
    <glyph glyph-name="d.ss01" horiz-adv-x="626" 
d="M537 669v-669h-49v121q-29 -59 -82 -96t-125 -37q-54 0 -98 20.5t-75.5 55.5t-48.5 83t-17 102t17 102t48.5 83t75.5 55.5t98 20.5q72 0 125 -37t82 -96v278zM281 36q44 0 82 16.5t65.5 45t43.5 67.5t16 84t-16 84t-43.5 67.5t-65.5 45t-82 16.5q-43 0 -78.5 -17
t-60.5 -46t-38.5 -67.5t-13.5 -82.5t13.5 -82.5t38.5 -67.5t60.5 -46t78.5 -17z" />
    <glyph glyph-name="h.ss01" horiz-adv-x="561" 
d="M59 655l49 14v-239q23 32 64 56t94 24q27 0 62.5 -8.5t67 -31.5t54 -64t22.5 -107v-299h-49v298q0 50 -16 82.5t-40 51t-52.5 25.5t-54.5 7q-20 0 -43 -5.5t-44 -19t-38.5 -36t-26.5 -57.5v-346h-49v655z" />
    <glyph glyph-name="i.ss01" horiz-adv-x="194" 
d="M106 636l-49 -10v74h49v-64zM57 491l49 10v-501h-49v491z" />
    <glyph glyph-name="t.ss01" horiz-adv-x="324" 
d="M253 0q-20 -3 -43 -4t-39 0q-52 2 -81.5 33.5t-30.5 110.5v513l49 16v-169h135v-46h-135v-312q0 -59 20.5 -80t63.5 -21q12 0 25.5 1t30.5 3z" />
    <glyph glyph-name="colon.alt" horiz-adv-x="217" 
d="M64 510q0 21 11.5 32t31.5 11q42 0 42 -43t-42 -43q-43 0 -43 43zM64 101q0 20 11.5 31.5t31.5 11.5q42 0 42 -43q0 -44 -42 -44q-43 0 -43 44z" />
    <glyph glyph-name="colon.centered" horiz-adv-x="209" 
d="M56 466q0 21 11.5 32t31.5 11q42 0 42 -43t-42 -43q-43 0 -43 43zM56 169q0 21 11.5 32.5t31.5 11.5q42 0 42 -44q0 -43 -42 -43q-43 0 -43 43z" />
    <glyph glyph-name="brevecomb-cy" 
 />
    <glyph glyph-name="thickspace" horiz-adv-x="500" 
 />
    <glyph glyph-name="accentcomb" horiz-adv-x="214" 
d="M154 779h62l-160 -144h-57z" />
    <glyph glyph-name="slashsmallcomb" 
d="M-48 -94l623 710l28 -26l-623 -711z" />
    <glyph glyph-name="lowercase-shoulder" 
d="M451 298q0 50 -16 82.5t-40 51t-52.5 25.5t-53.5 7t-53 -8t-52 -29t-39.5 -57t-15.5 -92l-17 -2q-1 -1 -1 7t-0.5 25t-0.5 51q0 24 13.5 50.5t38.5 49t59 37t74 14.5q27 0 62.5 -8.5t67 -31.5t53.5 -64.5t22 -107.5h-49z" />
    <glyph glyph-name="lowercase-stem" 
d="M270 500h48v-500h-48v500z" />
    <glyph glyph-name="lowercase-shortstem" 
d="M451 299h49v-299h-49v299z" />
    <glyph glyph-name="lowercase-aloop" 
d="M495 249q0 -52 -17 -99.5t-48 -83.5t-75 -57t-97 -21q-54 0 -98 20.5t-75.5 55.5t-48.5 83t-17 102t17 102t48.5 83t75.5 55.5t98 20.5q53 0 97 -21t75 -57t48 -83.5t17 -99.5zM259 36q44 0 81.5 16.5t65.5 45t44 67.5t16 84t-16 84t-44 67.5t-65.5 45t-81.5 16.5
q-43 0 -78.5 -17t-60.5 -46t-38.5 -67.5t-13.5 -82.5t13.5 -82.5t38.5 -67.5t60.5 -46t78.5 -17z" />
    <glyph glyph-name="newGlyph" 
 />
    <glyph glyph-name="lowercase-ftop" 
d="M272 664q-78 5 -119 -30t-41 -110v-42h-49v36q0 47 13.5 84.5t40 63t65.5 37.5t90 8v-47z" />
    <glyph glyph-name="lowercase-g-descender" 
d="M522 500h49v-476q0 -56 -20 -99.5t-54.5 -73.5t-81 -46t-99.5 -16q-88 0 -150 32.5t-90 87.5l42 24q9 -19 25.5 -36.5t41 -31.5t57.5 -22.5t75 -8.5q44 0 81.5 13.5t65 38.5t43 60t15.5 78v476z" />
    <glyph glyph-name="lowercase-thook" 
d="M250 0q-18 -2 -34 -3.5t-30 -1.5q-30 0 -53 7t-38 24t-22.5 44.5t-7.5 69.5v46h49v-45q0 -58 19 -79t62 -21q11 0 25 1t30 3v-45z" />
    <glyph glyph-name="lowercase-r" 
d="M305 463q-5 1 -16 1q-28 0 -56.5 -9t-51.5 -29t-37 -52t-14 -79l-10 -19q0 1 1 10v77q0 26 11.5 52t33.5 47.5t54 35t72 13.5h9.5t9.5 -1z" />
    <glyph glyph-name="lowercase-tcross" horiz-adv-x="1200" 
d="M169 500h309v-46h-309v46z" />
    <glyph glyph-name="ascender-stem" 
d="M109 700h51v-700h-51v700z" />
    <glyph glyph-name="uppercase-horiz" horiz-adv-x="817" 
d="M197 700h214v-49h-214v49z" />
    <glyph glyph-name="i-dot" horiz-adv-x="558" 
d="M272 639q-16 0 -25.5 9.5t-9.5 25.5q0 15 9.5 24.5t25.5 9.5t25.5 -9.5t9.5 -24.5q0 -16 -9.5 -25.5t-25.5 -9.5z" />
    <glyph glyph-name="wonderUnitLogo.ss02" horiz-adv-x="1624" 
 />
    </font>
</defs>
</svg>
