<?xml version="1.0" standalone="no"?>
<!DOCTYPE svg PUBLIC "-//W3C//DTD SVG 1.1//EN" "http://www.w3.org/Graphics/SVG/1.1/DTD/svg11.dtd" >
<svg xmlns="http://www.w3.org/2000/svg" xmlns:xlink="http://www.w3.org/1999/xlink" version="1.1">
<metadata>
Created by FontForge 20201107 at Mon Aug  2 03:36:17 2021
 By 
Copyright (c) 2020 by Charles Forman. All rights reserved.
</metadata>
<defs>
<font id="THICCCBOI-Black" horiz-adv-x="600" >
  <font-face 
    font-family="THICCCBOI Black"
    font-weight="900"
    font-stretch="normal"
    units-per-em="1000"
    panose-1="0 0 0 0 0 0 0 0 0 0"
    ascent="800"
    descent="-200"
    x-height="500"
    cap-height="700"
    bbox="-142 -392 1558 1010"
    underline-thickness="50"
    underline-position="-125"
    unicode-range="U+000D-FB02"
  />
<missing-glyph horiz-adv-x="468" 
d="M58 -90v842h351v-842h-351zM377 722h-288v-782h288v782z" />
    <glyph glyph-name="fi" unicode="fi" horiz-adv-x="659" 
d="M510 599q-34 0 -57.5 23.5t-23.5 57.5t23.5 58t57.5 24q33 0 57 -24t24 -58t-24 -57.5t-57 -23.5zM87 356h-74v144h74v35q0 54 12 89t35 55t55.5 28t73.5 8q40 0 86 -6v-147q-23 2 -42 2.5t-32 -3.5t-20 -12.5t-7 -24.5v-24h100v-144h-100v-356h-161v356zM428 500h161
v-500h-161v500z" />
    <glyph glyph-name="fl" unicode="fl" horiz-adv-x="691" 
d="M87 356h-74v144h74v35q0 54 12 89t35 55t55.5 28t73.5 8q40 0 86 -6v-147q-23 2 -42 2.5t-32 -3.5t-20 -12.5t-7 -24.5v-24h100v-144h-100v-356h-161v356zM639 0q-23 -3 -43.5 -5t-38.5 -2q-34 0 -61 8t-45.5 27.5t-28 52.5t-9.5 83v536h162v-524q0 -22 14 -27.5t50 -0.5
v-148z" />
    <glyph glyph-name=".notdef" horiz-adv-x="468" 
d="M58 -90v842h351v-842h-351zM377 722h-288v-782h288v782z" />
    <glyph glyph-name=".null" horiz-adv-x="0" 
 />
    <glyph glyph-name=".null" horiz-adv-x="0" 
 />
    <glyph glyph-name="uni000D" unicode="&#xd;" horiz-adv-x="250" 
 />
    <glyph glyph-name="space" unicode=" " horiz-adv-x="256" 
 />
    <glyph glyph-name="exclam" unicode="!" horiz-adv-x="274" 
d="M66 237l-25 463h193l-24 -463h-144zM52 74q0 42 22 64t63 22q42 0 63 -22t21 -64q0 -86 -84 -86q-41 0 -63 22t-22 64z" />
    <glyph glyph-name="quotedbl" unicode="&#x22;" horiz-adv-x="439" 
d="M61 674h137v-128l-40 -198h-57l-40 198v128zM241 674h137v-128l-40 -198h-58l-39 198v128z" />
    <glyph glyph-name="numbersign" unicode="#" horiz-adv-x="636" 
d="M248 0l55 162h-85l-54 -162h-115l54 162h-89l32 99h91l47 144h-91l31 98h94l54 164h115l-54 -164h84l54 164h115l-55 -164h91l-29 -98h-95l-48 -144h95l-31 -99h-97l-54 -162h-115zM383 405h-84l-47 -144h83z" />
    <glyph glyph-name="dollar" unicode="$" horiz-adv-x="628" 
d="M264 768h116v-95q60 -8 112 -30t95 -59l-97 -128q-26 21 -56.5 36t-62.5 22v-92q41 -9 82.5 -22.5t74.5 -37t54 -59t21 -89.5q0 -96 -59 -153t-164 -69v-92h-116v91q-80 8 -139 34.5t-103 68.5l96 134q30 -30 70.5 -52t90.5 -30v105q-41 8 -83 21t-75.5 36.5t-55 60.5
t-21.5 94q0 38 14.5 73.5t42 64t68.5 48t95 25.5v94zM228 481q0 -15 14 -23.5t37 -16.5v83q-26 -2 -38.5 -14t-12.5 -29zM371 145q23 4 36 15.5t13 30.5q0 17 -13 25.5t-36 16.5v-88z" />
    <glyph glyph-name="percent" unicode="%" horiz-adv-x="775" 
d="M197 342q-40 0 -72.5 13t-55 35.5t-35 53t-12.5 65.5t12.5 66t35 53.5t55 35.5t72.5 13t72.5 -13t56 -35.5t36 -53.5t12.5 -66t-12.5 -65.5t-35.5 -53t-55.5 -35.5t-73.5 -13zM131 0l426 667h90l-427 -667h-89zM197 438q28 0 47 18t19 53q0 37 -19 54.5t-47 17.5
q-27 0 -45.5 -17.5t-18.5 -54.5q0 -35 18.5 -53t45.5 -18zM577 -12q-40 0 -72.5 13t-55 35.5t-35 52.5t-12.5 65q0 36 12.5 66.5t35 53.5t55 36t72.5 13t72.5 -13t55.5 -36t35.5 -53.5t12.5 -66.5q0 -35 -12.5 -65t-35.5 -52.5t-55.5 -35.5t-72.5 -13zM577 84q28 0 47 17.5
t19 52.5q0 37 -19 55t-47 18t-46.5 -18t-18.5 -55q0 -35 18.5 -52.5t46.5 -17.5z" />
    <glyph glyph-name="ampersand" unicode="&#x26;" horiz-adv-x="655" 
d="M94 525q0 39 16 68.5t44 49t65.5 29.5t79.5 10q87 0 140.5 -40.5t53.5 -117.5q0 -26 -6 -47t-19.5 -40t-34 -38t-49.5 -41l68 -70q2 8 3 14t1 20h153q0 -48 -8.5 -85t-25.5 -69l169 -168h-201l-63 64q-32 -22 -64.5 -35.5t-62 -20.5t-52.5 -9.5t-36 -2.5q-52 0 -98 12
t-80.5 36.5t-54.5 61.5t-20 86q0 33 11 61t30.5 52t46 44.5t57.5 36.5q-32 38 -47.5 71t-15.5 68zM299 558q-29 0 -40.5 -8.5t-11.5 -28.5t11.5 -35.5t26.5 -32.5q21 15 38 30t17 41q0 34 -41 34zM256 290q-48 -27 -66 -48t-18 -50t26 -46t67 -17q22 0 48.5 8.5t56.5 35.5z
" />
    <glyph glyph-name="quotesingle" unicode="'" horiz-adv-x="209" 
d="M52 700h137v-128l-40 -198h-57l-40 198v128z" />
    <glyph glyph-name="parenleft" unicode="(" horiz-adv-x="329" 
d="M209 -94q-39 37 -70.5 88.5t-54 110t-34.5 121t-12 122.5t12 122.5t34.5 121t54 110t70.5 88.5l102 -77q-27 -46 -45.5 -89t-30.5 -87.5t-17.5 -90.5t-5.5 -98q0 -51 5.5 -97.5t17.5 -90.5t30.5 -87t45.5 -88z" />
    <glyph glyph-name="parenright" unicode=")" horiz-adv-x="329" 
d="M121 790q39 -37 70 -88.5t53.5 -110t34.5 -121t12 -122.5t-12 -122.5t-34.5 -121t-53.5 -110t-70 -88.5l-102 79q27 45 45.5 88t30.5 87t17.5 90.5t5.5 97.5q0 52 -5.5 98t-17.5 90.5t-30.5 87.5t-45.5 89z" />
    <glyph glyph-name="asterisk" unicode="*" horiz-adv-x="359" 
d="M114 514l-94 49l37 64l89 -57l-4 107h75l-5 -107l89 57l38 -64l-95 -49l95 -49l-38 -64l-89 57l5 -107h-75l4 107l-89 -57l-37 64z" />
    <glyph glyph-name="plus" unicode="+" horiz-adv-x="508" 
d="M307 290v-197h-106v197h-172v95h172v189h106v-189h172v-95h-172z" />
    <glyph glyph-name="comma" unicode="," horiz-adv-x="254" 
d="M48 -97l38 87q-18 6 -28.5 11.5t-16 14.5t-7 22t-1.5 34q0 41 21.5 62.5t61.5 21.5q41 0 63.5 -22.5t22.5 -63.5q0 -23 -2.5 -40.5t-8 -32t-14.5 -28.5t-22 -30l-60 -75z" />
    <glyph glyph-name="hyphen" unicode="-" horiz-adv-x="360" 
d="M41 175v135h240v-135h-240z" />
    <glyph glyph-name="period" unicode="." horiz-adv-x="252" 
d="M54 72q0 41 22 62.5t62 21.5q41 0 62 -21.5t21 -62.5t-21 -63t-62 -22q-40 0 -62 22t-22 63z" />
    <glyph glyph-name="slash" unicode="/" horiz-adv-x="403" 
d="M403 687l-237 -707h-166l237 707h166z" />
    <glyph glyph-name="zero" unicode="0" horiz-adv-x="644" 
d="M307 -14q-67 0 -122 26.5t-94 74.5t-60.5 115t-21.5 148t21.5 148t60.5 115t94 74.5t122 26.5t122 -26.5t94 -74.5t60.5 -115t21.5 -148t-21.5 -148t-60.5 -115t-94 -74.5t-122 -26.5zM307 157q27 0 50 10t40.5 32.5t27.5 59.5t10 91t-10 91t-27.5 59.5t-40.5 32.5
t-50 10t-50 -10t-40.5 -32.5t-27.5 -59.5t-10 -91t10 -91t27.5 -59.5t40.5 -32.5t50 -10z" />
    <glyph glyph-name="one" unicode="1" horiz-adv-x="644" 
d="M50 579l177 121h170v-539h178v-161h-535v161h187v351l-85 -64z" />
    <glyph glyph-name="two" unicode="2" horiz-adv-x="644" 
d="M38 34q2 38 12.5 87t35 97t66 90.5t106.5 67.5q30 12 59 23.5t52 23.5t37.5 26t14.5 32q0 20 -9.5 35.5t-24.5 25.5t-32 15t-32 5q-25 0 -48.5 -4.5t-42 -15t-31 -26.5t-16.5 -40l-160 17q8 53 34.5 94t67 69.5t91 43t105.5 14.5q49 0 95.5 -15.5t83 -44t59 -70
t22.5 -94.5q0 -52 -19.5 -90t-54.5 -66.5t-83 -50.5t-105 -43q-29 -11 -48 -31t-31 -47h339v-161h-543v33z" />
    <glyph glyph-name="three" unicode="3" horiz-adv-x="644" 
d="M562 499q0 -38 -15 -70.5t-43 -58.5q36 -29 56 -68.5t20 -86.5q0 -49 -21.5 -90.5t-58.5 -72t-87.5 -47.5t-107.5 -17q-58 0 -108 16.5t-87 46.5t-58 71t-20 90l176 12q4 -34 31 -56t66 -22q46 0 76 21.5t30 55.5t-30 55.5t-76 21.5h-39l1 135h38q40 0 66 18t26 46
q0 29 -26.5 47.5t-68.5 18.5q-30 0 -55.5 -13t-36.5 -36l-167 10q4 41 25.5 75t56 59.5t80 39.5t97.5 14q57 0 104.5 -16t82 -44.5t54 -68t19.5 -86.5z" />
    <glyph glyph-name="four" unicode="4" horiz-adv-x="644" 
d="M351 119h-325v161l200 420h189l-201 -420h137v133h170v-133h64v-161h-64v-119h-170v119z" />
    <glyph glyph-name="five" unicode="5" horiz-adv-x="644" 
d="M580 229q0 -56 -18 -101t-52.5 -76t-83 -47.5t-110.5 -16.5q-134 0 -209 57.5t-74 160.5l159 18q5 -37 37.5 -57.5t86.5 -20.5q50 0 78 22t28 61q0 35 -28 54.5t-78 19.5h-120v0h-133l50 397h439v-161h-297l-12 -94h73q62 0 110.5 -15t83 -43t52.5 -68t18 -90z" />
    <glyph glyph-name="six" unicode="6" horiz-adv-x="644" 
d="M70 370q2 2 3 4t3 4l200 322h196l-131 -208q52 -6 95 -27t74 -54t48.5 -76.5t17.5 -94.5q0 -55 -20.5 -101.5t-56.5 -80.5t-85.5 -53t-108.5 -19q-58 0 -107.5 19t-85.5 53t-56 80.5t-20 101.5q0 72 34 129v1zM305 328q-38 0 -66 -25t-28 -63q0 -19 8 -35.5t21 -28
t30 -18t35 -6.5q21 0 38.5 7t30 19t20 28t7.5 34t-7.5 34t-20.5 28t-30.5 19t-37.5 7z" />
    <glyph glyph-name="seven" unicode="7" horiz-adv-x="644" 
d="M364 539h-319v161h524v-120l-259 -580h-186z" />
    <glyph glyph-name="eight" unicode="8" horiz-adv-x="644" 
d="M307 -14q-129 0 -202 59t-73 164q0 53 19.5 90t56.5 61q-30 22 -46 55t-16 81q0 103 69.5 160.5t191.5 57.5t191.5 -57.5t69.5 -160.5q0 -48 -16 -81t-46 -55q37 -24 56.5 -61t19.5 -90q0 -52 -19 -93.5t-54.5 -70t-86.5 -44t-115 -15.5zM307 564q-45 0 -70.5 -18
t-25.5 -50q0 -30 25.5 -48t70.5 -18t70.5 18t25.5 48q0 32 -25.5 50t-70.5 18zM307 294q-50 0 -82.5 -18t-32.5 -56t32.5 -58.5t82.5 -20.5t82.5 20.5t32.5 58.5t-32.5 56t-82.5 18z" />
    <glyph glyph-name="nine" unicode="9" horiz-adv-x="644" 
d="M269 208q-52 6 -95 27t-74 54t-48 76.5t-17 94.5q0 56 20 102.5t56 80t85.5 52.5t108.5 19t108 -19t85 -52.5t56 -80t20 -102.5q0 -41 -11 -76.5t-31 -64.5l-198 -319h-195zM305 372q19 0 36.5 6.5t30.5 18.5t20.5 28t7.5 35q0 20 -8 36.5t-21.5 28t-30.5 18t-35 6.5
q-41 0 -68.5 -26t-27.5 -63q0 -18 7.5 -34t20.5 -28t30.5 -19t37.5 -7z" />
    <glyph glyph-name="colon" unicode=":" horiz-adv-x="255" 
d="M34 404q0 42 21.5 64t63.5 22q41 0 62.5 -22t21.5 -64t-21.5 -64t-62.5 -22q-42 0 -63.5 22t-21.5 64zM34 74q0 42 21.5 64t63.5 22q41 0 62.5 -22t21.5 -64t-21.5 -64t-62.5 -22q-85 0 -85 86z" />
    <glyph glyph-name="semicolon" unicode=";" horiz-adv-x="272" 
d="M53 404q0 42 22 64t63 22t62.5 -22t21.5 -64t-21.5 -64t-62.5 -22q-42 0 -63.5 22t-21.5 64zM68 -100l39 90q-18 6 -28.5 12t-16.5 15t-7.5 22.5t-1.5 34.5q0 42 22 64t63 22t64 -23t23 -65q0 -24 -2.5 -41.5t-8 -32.5t-14.5 -29.5t-23 -31.5l-61 -77z" />
    <glyph glyph-name="less" unicode="&#x3c;" horiz-adv-x="508" 
d="M29 277v116l450 187v-114l-342 -132l342 -130v-114z" />
    <glyph glyph-name="equal" unicode="=" horiz-adv-x="508" 
d="M29 379v95h450v-95h-450zM29 194v95h450v-95h-450z" />
    <glyph glyph-name="greater" unicode="&#x3e;" horiz-adv-x="508" 
d="M29 90v114l342 130l-342 132v114l450 -187v-116z" />
    <glyph glyph-name="question" unicode="?" horiz-adv-x="452" 
d="M145 232v115q0 42 17.5 68.5t38.5 44.5t38.5 31.5t17.5 29.5q0 14 -12 24t-41 10q-26 0 -52.5 -13t-47.5 -36l-101 115q43 48 102 70.5t119 22.5q100 0 158 -43t58 -117q0 -53 -21.5 -85t-48 -54t-48 -41t-21.5 -46v-96h-156zM138 72q0 42 21.5 63.5t61.5 21.5
q83 0 83 -85q0 -41 -21 -62.5t-62 -21.5q-40 0 -61.5 21.5t-21.5 62.5z" />
    <glyph glyph-name="at" unicode="@" horiz-adv-x="891" 
d="M621 188q0 -17 13 -26t27 -9q19 0 35.5 30.5t16.5 78.5q0 64 -20.5 115.5t-58 88t-91 56t-119.5 19.5q-61 0 -113 -21t-90 -58t-59.5 -88t-22.5 -112t21.5 -112t62.5 -88.5t96 -58.5t122 -21q27 0 57.5 7.5t49.5 18.5l66 -108q-29 -22 -77.5 -36t-95.5 -15
q-94 -2 -174 28.5t-138 85.5t-90.5 131.5t-32.5 167.5q0 88 31.5 162t87 127.5t132 83.5t167.5 30q93 0 168 -28t127.5 -80.5t81 -127t28.5 -167.5q0 -53 -13 -93t-35 -66.5t-49.5 -40t-57.5 -13.5q-51 0 -89 11.5t-61 30.5q-47 -29 -108 -29q-45 0 -83 15t-65 41.5
t-42.5 63.5t-15.5 80t15.5 79.5t42.5 63t65 41.5t83 15q64 0 114 -33h91v-240zM424 197q28 0 46 18.5t18 46.5t-18 45.5t-46 17.5q-29 0 -47 -17.5t-18 -45.5t18 -46.5t47 -18.5z" />
    <glyph glyph-name="A" unicode="A" horiz-adv-x="731" 
d="M259 700h182l257 -700h-182l-45 122h-241l-45 -122h-182zM412 284l-62 168l-61 -168h123z" />
    <glyph glyph-name="B" unicode="B" horiz-adv-x="638" 
d="M42 0v700h316q41 0 77.5 -16.5t63.5 -45t42.5 -66t15.5 -78.5q0 -32 -9.5 -62t-26.5 -56q30 -29 47 -69t17 -86t-17 -86t-45.5 -70t-67 -47.5t-81.5 -17.5h-332zM358 438q15 0 29.5 13t14.5 36q0 25 -14.5 38.5t-29.5 13.5h-146v-103zM374 162q20 0 35 18.5t15 41.5
q0 24 -15 42.5t-35 18.5h-162v-121h162z" />
    <glyph glyph-name="C" unicode="C" horiz-adv-x="757" 
d="M33 347q0 75 28.5 140.5t77.5 114.5t114.5 77.5t140.5 28.5q51 0 98.5 -13.5t88.5 -38.5t74 -60t56 -77l-150 -80q-24 44 -68.5 71.5t-98.5 27.5q-39 0 -74 -15t-61 -41t-41 -61t-15 -74t15 -74t41 -60.5t61 -40.5t74 -15q55 0 100 28t68 75l151 -82q-23 -43 -56.5 -78
t-74.5 -60.5t-89 -39.5t-99 -14q-75 0 -140.5 28.5t-114.5 77.5t-77.5 114.5t-28.5 140.5z" />
    <glyph glyph-name="D" unicode="D" horiz-adv-x="763" 
d="M42 700h298q75 0 140.5 -27t114 -74.5t77 -112t28.5 -139.5t-28.5 -138.5t-77 -110t-114 -72.5t-140.5 -26h-298v700zM212 539v-378h128q39 0 74 14.5t60.5 40t40.5 60t15 73.5t-15 74t-40.5 60.5t-60.5 40.5t-74 15h-128z" />
    <glyph glyph-name="E" unicode="E" horiz-adv-x="535" 
d="M38 700h438v-161h-268v-101h244v-161h-244v-116h274v-161h-444v700z" />
    <glyph glyph-name="F" unicode="F" horiz-adv-x="534" 
d="M42 700h439v-161h-269v-112h259v-162h-259v-265h-170v700z" />
    <glyph glyph-name="G" unicode="G" horiz-adv-x="812" 
d="M33 347q0 75 28.5 140.5t77.5 114.5t114.5 77.5t140.5 28.5q88 0 162.5 -38.5t123.5 -104.5l-133 -105q-26 35 -66 56.5t-87 21.5q-39 0 -74 -15t-61 -41t-41 -61t-15 -74t15 -74t41 -60.5t61 -40.5t74 -15q47 0 85.5 19.5t63.5 52.5h-180v162h387v-69
q0 -69 -28.5 -130.5t-77.5 -107t-113.5 -72t-136.5 -26.5q-75 0 -140.5 28.5t-114.5 77.5t-77.5 114.5t-28.5 140.5z" />
    <glyph glyph-name="H" unicode="H" horiz-adv-x="735" 
d="M42 700h170v-261h281v261h170v-700h-170v278h-281v-278h-170v700z" />
    <glyph glyph-name="I" unicode="I" horiz-adv-x="284" 
d="M42 700h170v-700h-170v700z" />
    <glyph glyph-name="J" unicode="J" horiz-adv-x="570" 
d="M333 700h170v-470q0 -51 -18.5 -95.5t-52 -77.5t-81.5 -52t-107 -19q-83 0 -141.5 34t-92.5 100l140 79q19 -32 40.5 -46.5t60.5 -14.5q43 0 62.5 22.5t19.5 69.5v470z" />
    <glyph glyph-name="K" unicode="K" horiz-adv-x="706" 
d="M463 0l-187 246l-64 -80v-166h-170v700h170v-263l214 263h216l-256 -318l289 -382h-212z" />
    <glyph glyph-name="L" unicode="L" horiz-adv-x="527" 
d="M42 700h170v-539h272v-161h-442v700z" />
    <glyph glyph-name="M" unicode="M" horiz-adv-x="822" 
d="M396 393l183 307l1 -1v1h170v-700h-170v387l-163 -272h-42l-163 273v-388h-170v700h170h1z" />
    <glyph glyph-name="N" unicode="N" horiz-adv-x="683" 
d="M42 700h170l228 -357v357h171v-700h-143l-256 401v-401h-170v700z" />
    <glyph glyph-name="O" unicode="O" horiz-adv-x="817" 
d="M394 -14q-75 0 -140.5 28.5t-114.5 77.5t-77.5 114.5t-28.5 140.5t28.5 140.5t77.5 114.5t114.5 77.5t140.5 28.5t140.5 -28.5t114.5 -77.5t77.5 -114.5t28.5 -140.5t-28.5 -140.5t-77.5 -114.5t-114.5 -77.5t-140.5 -28.5zM394 157q39 0 74 15t60.5 40.5t40.5 60.5
t15 74t-15 74t-40.5 61t-60.5 41t-74 15t-74 -15t-61 -41t-41 -61t-15 -74t15 -74t41 -60.5t61 -40.5t74 -15z" />
    <glyph glyph-name="P" unicode="P" horiz-adv-x="601" 
d="M212 225v-225h-170v700h268q50 0 93 -18.5t75.5 -50.5t51 -75t18.5 -93q0 -49 -18.5 -92.5t-51 -75.5t-75.5 -51t-93 -19h-98zM310 387q32 0 54 22t22 54t-22 54t-54 22h-98v-152h98z" />
    <glyph glyph-name="Q" unicode="Q" horiz-adv-x="840" 
d="M394 -14q-75 0 -140.5 28.5t-114.5 77.5t-77.5 114.5t-28.5 140.5t28.5 140.5t77.5 114.5t114.5 77.5t140.5 28.5t140.5 -28.5t114.5 -77.5t77.5 -114.5t28.5 -140.5q0 -57 -16.5 -107.5t-46.5 -94.5l75 -75l-120 -120l-81 80q-38 -21 -81.5 -32.5t-90.5 -11.5zM394 157
q23 0 42 4l-62 62l120 120l74 -73q16 37 16 77q0 39 -15 74t-40.5 61t-60.5 41t-74 15t-74 -15t-61 -41t-41 -61t-15 -74t15 -74t41 -60.5t61 -40.5t74 -15z" />
    <glyph glyph-name="R" unicode="R" horiz-adv-x="657" 
d="M38 700h295q50 0 93 -18.5t75.5 -50.5t51 -75t18.5 -93q0 -63 -29.5 -115t-78.5 -84l148 -264h-196l-125 225h-82v-225h-170v700zM333 387q32 0 54.5 22t22.5 54t-22.5 54t-54.5 22h-125v-152h125z" />
    <glyph glyph-name="S" unicode="S" horiz-adv-x="664" 
d="M329 -14q-62 0 -112.5 12.5t-90 35t-67.5 54.5t-45 70l165 84q22 -46 58 -67.5t96 -21.5q23 0 43 5.5t34 13.5t22 18t8 19q0 15 -8 24.5t-26 17.5t-48 16t-75 19t-87.5 28t-75 42.5t-52.5 61.5t-20 86t22 89t58.5 66t84 41t98.5 14q97 0 170.5 -41t115.5 -116l-168 -85
q-21 40 -49.5 56.5t-68.5 16.5q-36 0 -61 -13t-25 -32q0 -13 6 -21.5t21.5 -15.5t42.5 -14.5t69 -18.5q46 -12 91.5 -29t82 -42.5t59 -63t22.5 -91.5q0 -50 -22.5 -90t-61.5 -68.5t-92 -44t-114 -15.5z" />
    <glyph glyph-name="T" unicode="T" horiz-adv-x="569" 
d="M184 539h-176v161h524v-161h-178v-539h-170v539z" />
    <glyph glyph-name="U" unicode="U" horiz-adv-x="658" 
d="M36 700h171v-464q0 -20 9.5 -35t25 -25t34.5 -15t38 -5q22 0 41.5 5t34.5 15t23.5 25t8.5 35v464h170v-464q0 -56 -22 -102t-59.5 -79t-88 -51t-108.5 -18t-108.5 18t-88 51t-59.5 79t-22 102v464z" />
    <glyph glyph-name="V" unicode="V" horiz-adv-x="682" 
d="M2 700h179l149 -450l150 450h179l-232 -700h-193z" />
    <glyph glyph-name="W" unicode="W" horiz-adv-x="1024" 
d="M4 700h176l108 -422l121 422h176l120 -422l109 422h176l-190 -700h-181l-122 407l-122 -407h-181z" />
    <glyph glyph-name="X" unicode="X" horiz-adv-x="743" 
d="M497 0l-141 219l-141 -219h-203l225 348l-228 352h203l144 -223l144 223h204l-228 -352l225 -348h-204z" />
    <glyph glyph-name="Y" unicode="Y" horiz-adv-x="703" 
d="M251 236l-250 464h193l143 -263l142 263h193l-250 -464v-236h-171v236z" />
    <glyph glyph-name="Z" unicode="Z" horiz-adv-x="567" 
d="M295 539h-258v161h472v-124l-259 -415h260v-161h-474v124z" />
    <glyph glyph-name="bracketleft" unicode="[" horiz-adv-x="304" 
d="M286 26v-104h-234v868h234v-103h-121v-661h121z" />
    <glyph glyph-name="backslash" unicode="\" horiz-adv-x="403" 
d="M0 687h166l237 -707h-166z" />
    <glyph glyph-name="bracketright" unicode="]" horiz-adv-x="304" 
d="M252 790v-868h-234v104h121v661h-121v103h234z" />
    <glyph glyph-name="asciicircum" unicode="^" horiz-adv-x="447" 
d="M313 333l-90 227l-89 -227h-115l148 334h116l145 -334h-115z" />
    <glyph glyph-name="underscore" unicode="_" horiz-adv-x="564" 
d="M567 -40v-104h-570v104h570z" />
    <glyph glyph-name="grave" unicode="`" horiz-adv-x="266" 
d="M141 700l125 -144h-108l-158 144h141z" />
    <glyph glyph-name="a" unicode="a" horiz-adv-x="612" 
d="M394 26q-22 -19 -50.5 -30t-64.5 -11q-60 0 -107.5 20t-80.5 55t-50.5 83.5t-17.5 105.5t17.5 106t50.5 84t80.5 55t107.5 20q36 0 64.5 -11t50.5 -30v27h161v-500h-161v26zM284 135q49 0 79 32.5t30 83.5t-30 81.5t-79 30.5q-23 0 -42 -9t-32.5 -24.5t-21 -36.5
t-7.5 -44q0 -24 7.5 -44.5t21 -36t32.5 -24.5t42 -9z" />
    <glyph glyph-name="b" unicode="b" horiz-adv-x="614" 
d="M26 700h161v-228q22 20 50.5 31t65.5 11q60 0 107.5 -20t80.5 -55t50.5 -84t17.5 -106t-17.5 -105.5t-50.5 -83.5t-80.5 -55t-107.5 -20q-37 0 -65.5 11.5t-50.5 31.5v-28h-161v700zM299 135q23 0 41.5 9t32.5 24.5t21.5 36t7.5 44.5q0 23 -7.5 44t-21.5 36.5t-32.5 24.5
t-41.5 9q-50 0 -79.5 -30.5t-29.5 -81.5t29.5 -83.5t79.5 -32.5z" />
    <glyph glyph-name="c" unicode="c" horiz-adv-x="542" 
d="M504 98q-36 -52 -92.5 -82.5t-123.5 -30.5q-55 0 -103 20.5t-84 56.5t-57 84t-21 103t21 103t57 84t84 56.5t103 20.5q66 0 122.5 -30t92.5 -81l-134 -89q-36 39 -81 39q-21 0 -40 -8t-33.5 -22t-22.5 -33t-8 -40t8 -40t22.5 -33t33.5 -22t40 -8q25 0 44.5 11t36.5 29z
" />
    <glyph glyph-name="d" unicode="d" horiz-adv-x="610" 
d="M554 0h-161v25q-22 -18 -50 -29t-64 -11q-60 0 -107.5 20t-80.5 55t-50.5 83.5t-17.5 105.5t17.5 106t50.5 84t80.5 55t107.5 20q36 0 64 -10.5t50 -29.5v226h161v-700zM284 135q49 0 79 32.5t30 83.5t-30 81.5t-79 30.5q-23 0 -42 -9t-32.5 -24.5t-21 -36.5t-7.5 -44
q0 -24 7.5 -44.5t21 -36t32.5 -24.5t42 -9z" />
    <glyph glyph-name="e" unicode="e" horiz-adv-x="594" 
d="M288 514q55 0 101.5 -20.5t80 -56t52.5 -83.5t19 -104q0 -15 -1 -29t-4 -27h-352q17 -37 47.5 -54t69.5 -17q26 0 51.5 10t41.5 30l122 -72q-36 -51 -91 -78t-127 -27q-63 0 -114 20.5t-86.5 56t-55 83.5t-19.5 104t19.5 104t54.5 83.5t83.5 56t107.5 20.5zM390 317
q-6 29 -36 43.5t-68 14.5q-20 0 -38.5 -4.5t-33 -12t-23.5 -18.5t-10 -23h209z" />
    <glyph glyph-name="f" unicode="f" horiz-adv-x="388" 
d="M87 356h-74v144h74v35q0 54 12 89t35 55t55.5 28t73.5 8q40 0 86 -6v-147q-23 2 -42 2.5t-32 -3.5t-20 -12.5t-7 -24.5v-24h100v-144h-100v-356h-161v356z" />
    <glyph glyph-name="g" unicode="g" horiz-adv-x="640" 
d="M415 25q-22 -18 -50.5 -29t-63.5 -11q-60 0 -107.5 20t-80.5 55t-50.5 83.5t-17.5 105.5t17.5 106t50.5 84t80.5 55t107.5 20q35 0 63.5 -10.5t50.5 -29.5v26h161v-475q0 -53 -21.5 -97t-59.5 -75.5t-90.5 -49t-114.5 -17.5q-44 0 -85.5 9t-76.5 25t-62 38.5t-42 48.5
l138 80q12 -22 48 -37t84 -15q52 0 86.5 25t34.5 65zM305 135q50 0 80 32.5t30 83.5t-30 81.5t-80 30.5q-22 0 -41 -9t-32.5 -24.5t-21 -36.5t-7.5 -44q0 -24 7.5 -44.5t21 -36t32.5 -24.5t41 -9z" />
    <glyph glyph-name="h" unicode="h" horiz-adv-x="550" 
d="M26 700h161v-231q23 18 51 29.5t60 11.5q27 0 60.5 -9t63.5 -32t50.5 -64t21.5 -106v-299h-161v295q0 21 -7 35.5t-17.5 23t-24 12.5t-27.5 4q-26 0 -45.5 -17t-24.5 -56v-297h-161v700z" />
    <glyph glyph-name="i" unicode="i" horiz-adv-x="271" 
d="M122 599q-33 0 -57 23.5t-24 57.5t24 58t57 24t57 -24t24 -58t-24 -57.5t-57 -23.5zM40 500h161v-500h-161v500z" />
    <glyph glyph-name="j" unicode="j" horiz-adv-x="298" 
d="M147 552q-45 0 -70 24t-25 66t25 66.5t70 24.5t70 -24.5t25 -66.5t-25 -66t-70 -24zM67 500h161v-507q0 -51 -18.5 -91.5t-51.5 -67.5t-78.5 -39.5t-99.5 -8.5v156q45 -3 66 6.5t21 44.5v507z" />
    <glyph glyph-name="k" unicode="k" horiz-adv-x="596" 
d="M26 700h161v-366l145 166h224l-200 -219l207 -281h-200l-117 160l-59 -64v-96h-161v700z" />
    <glyph glyph-name="l" unicode="l" horiz-adv-x="303" 
d="M252 0q-23 -3 -43.5 -5t-39.5 -2q-34 0 -60.5 8t-45 27.5t-28 52.5t-9.5 83v536h161v-524q0 -22 14 -27.5t51 -0.5v-148z" />
    <glyph glyph-name="m" unicode="m" horiz-adv-x="857" 
d="M802 0h-162v299q0 21 -7 35.5t-17.5 23.5t-24 12.5t-27.5 3.5q-29 0 -49.5 -21t-20.5 -72v-281h-161v299q0 21 -7 35.5t-17.5 23.5t-24 12.5t-27.5 3.5q-29 0 -49.5 -21t-20.5 -72v-281h-161v500h161v-27q23 18 51 29.5t60 11.5q18 0 39 -3.5t42.5 -12.5t42 -24t36.5 -38
q25 32 62.5 55t84.5 23q27 0 61 -9t64.5 -32.5t51 -65.5t20.5 -108v-299z" />
    <glyph glyph-name="n" unicode="n" horiz-adv-x="551" 
d="M495 0h-161v299q0 21 -7 35.5t-17.5 23.5t-24 12.5t-27.5 3.5q-29 0 -50 -21t-21 -72v-281h-161v500h161v-28q23 19 51.5 30.5t60.5 11.5q27 0 61 -9t64 -32.5t50.5 -65.5t20.5 -108v-299z" />
    <glyph glyph-name="o" unicode="o" horiz-adv-x="605" 
d="M288 -15q-55 0 -103 20.5t-84 56.5t-57 84t-21 103t21 103t57 84t84 56.5t103 20.5q54 0 102 -20.5t84 -56.5t57 -84t21 -103t-21 -103t-57 -84t-84 -56.5t-102 -20.5zM287 146q21 0 40 8t33.5 22t22.5 33t8 40t-8 40t-22.5 33t-33.5 22t-40 8t-40 -8t-33 -22t-22 -33
t-8 -40t8 -40t22 -33t33 -22t40 -8z" />
    <glyph glyph-name="p" unicode="p" horiz-adv-x="610" 
d="M26 500h161v-26q22 18 50 29t64 11q60 0 107.5 -20t80.5 -55t50.5 -83.5t17.5 -105.5t-17.5 -106t-50.5 -84t-80.5 -55t-107.5 -20q-36 0 -64 10.5t-50 29.5v-225h-161v700zM296 365q-49 0 -79 -33t-30 -84t30 -81.5t79 -30.5q23 0 41.5 9t32.5 24.5t21.5 36.5t7.5 44
q0 24 -7.5 44.5t-21.5 36.5t-32.5 25t-41.5 9z" />
    <glyph glyph-name="q" unicode="q" horiz-adv-x="610" 
d="M554 -164l-161 -36v225q-22 -19 -50 -29.5t-64 -10.5q-60 0 -107.5 20t-80.5 55t-50.5 84t-17.5 106t17.5 105.5t50.5 83.5t80.5 55t107.5 20q36 0 64 -11t50 -29v26h161v-664zM284 365q-23 0 -42 -9t-32.5 -25t-21 -36.5t-7.5 -44.5q0 -23 7.5 -44t21 -36.5t32.5 -24.5
t42 -9q49 0 79 30.5t30 81.5t-30 84t-79 33z" />
    <glyph glyph-name="r" unicode="r" horiz-adv-x="393" 
d="M345 347q-11 4 -25 4q-31 0 -55.5 -9t-42 -24.5t-27 -36.5t-9.5 -45v-236h-161v500h161v-89q17 35 55.5 62t99.5 27h14z" />
    <glyph glyph-name="s" unicode="s" horiz-adv-x="531" 
d="M200 356q0 -15 20.5 -21.5t51.5 -12.5t67 -14t67 -26t51.5 -49t20.5 -82q0 -42 -19.5 -73t-51.5 -51.5t-73.5 -30.5t-85.5 -10q-81 0 -140 29.5t-89 88.5l131 68q12 -32 37 -45t61 -13q13 0 26.5 2t24 6.5t17 11t6.5 16.5q0 16 -21 24t-52.5 15t-68.5 16t-68.5 26
t-52.5 45.5t-21 74.5q0 39 17.5 69.5t47 51.5t68 31.5t80.5 10.5q66 0 121 -27t87 -79l-131 -65q-12 22 -29.5 33t-47.5 11q-23 0 -37 -8t-14 -23z" />
    <glyph glyph-name="t" unicode="t" horiz-adv-x="402" 
d="M349 0q-24 -2 -45.5 -3.5t-41.5 -1.5q-41 0 -73.5 7.5t-55.5 28t-35 55t-12 88.5v182h-78v144h78v109l162 54v-163h99v-144h-99v-170q0 -16 7 -24.5t20 -12.5t32 -3.5t42 2.5v-148z" />
    <glyph glyph-name="u" unicode="u" horiz-adv-x="559" 
d="M34 500h162v-299q0 -21 7 -35.5t17.5 -23.5t24.5 -12.5t27 -3.5q29 0 50 21t21 72v281h161v-500h-161v28q-23 -19 -51.5 -30.5t-60.5 -11.5q-27 0 -61 9t-64.5 32.5t-51 65.5t-20.5 108v299z" />
    <glyph glyph-name="v" unicode="v" horiz-adv-x="583" 
d="M2 500h170l105 -294l104 294h170l-176 -500h-196z" />
    <glyph glyph-name="w" unicode="w" horiz-adv-x="818" 
d="M4 500h169l69 -232l66 232h170l67 -234l70 234h169l-162 -500h-157l-72 231l-72 -231h-156z" />
    <glyph glyph-name="x" unicode="x" horiz-adv-x="588" 
d="M180 249l-177 251h197l79 -112l79 112h197l-177 -251l177 -249l-198 -1l-78 110l-78 -110l-198 1z" />
    <glyph glyph-name="y" unicode="y" horiz-adv-x="578" 
d="M176 500l116 -257l86 257h169l-161 -484q-43 -115 -118 -169.5t-181 -46.5v156q50 -6 80 14.5t47 53.5l-212 476h174z" />
    <glyph glyph-name="z" unicode="z" horiz-adv-x="478" 
d="M414 500v-104l-170 -244l180 1v-153h-400v104l175 244h-165v152h380z" />
    <glyph glyph-name="braceleft" unicode="{" horiz-adv-x="307" 
d="M3 399q26 0 39 18t13 47v150q0 41 14.5 73.5t38.5 55.5t55.5 35t65.5 12h60v-104h-60q-26 0 -43.5 -19t-17.5 -52v-169q0 -32 -10.5 -55.5t-35.5 -34.5q25 -11 35.5 -35t10.5 -56v-167q0 -33 17.5 -53t43.5 -20h60v-103h-60q-34 0 -65.5 12t-55.5 34.5t-38.5 55
t-14.5 73.5v151q0 28 -13 46.5t-39 18.5v86z" />
    <glyph glyph-name="bar" unicode="|" horiz-adv-x="220" 
d="M58 -80v827h104v-827h-104z" />
    <glyph glyph-name="braceright" unicode="}" horiz-adv-x="306" 
d="M304 313q-26 0 -39 -18.5t-13 -46.5v-151q0 -41 -14.5 -73.5t-38.5 -55t-55.5 -34.5t-66.5 -12h-60v103h60q26 0 43.5 20t17.5 53v167q0 32 11 56t35 35q-24 11 -35 34.5t-11 55.5v169q0 33 -17.5 52t-43.5 19h-60v104h60q35 0 66.5 -12t55.5 -35t38.5 -55.5t14.5 -73.5
v-150q0 -29 13 -47t39 -18v-86z" />
    <glyph glyph-name="asciitilde" unicode="~" horiz-adv-x="515" 
d="M490 654q-3 -44 -11 -88.5t-25 -80t-45.5 -58t-73.5 -22.5q-33 0 -54 12.5t-34 31t-20 40t-13 40t-13 31t-19 12.5q-13 0 -21.5 -16t-14 -41t-9 -54t-5.5 -56l-107 12q4 45 12 90t25.5 80.5t46 57.5t73.5 22q33 0 54 -12.5t34 -31t20 -40.5t13 -40.5t13 -31t19 -12.5
q14 0 22.5 16.5t14 42t8.5 55t5 54.5z" />
    <glyph glyph-name="uni00A0" unicode="&#xa0;" horiz-adv-x="256" 
 />
    <glyph glyph-name="exclamdown" unicode="&#xa1;" horiz-adv-x="271" 
d="M53 406q0 42 22 63.5t63 21.5q84 0 84 -85q0 -86 -84 -86q-41 0 -63 22t-22 64zM64 252h145l23 -430h-193z" />
    <glyph glyph-name="cent" unicode="&#xa2;" horiz-adv-x="501" 
d="M22 242q0 50 15.5 91.5t43.5 74t67 53.5t85 29v75h114v-76q53 -10 88 -34t53 -50l-104 -97q-18 24 -45 34v-200q27 10 45 34l104 -98q-18 -26 -53 -50t-88 -34v-94h-114v93q-46 8 -85 29t-67 53t-43.5 74.5t-15.5 92.5zM188 242q0 -38 16.5 -64t44.5 -37v202
q-29 -11 -45 -37.5t-16 -63.5z" />
    <glyph glyph-name="sterling" unicode="&#xa3;" horiz-adv-x="570" 
d="M25 270v99h51q-15 23 -24 46t-9 49q0 52 23.5 91.5t60.5 66.5t82.5 41t88.5 14q93 0 155 -30t97 -97l-144 -82q-11 32 -34.5 48t-51.5 16q-35 0 -57 -21t-22 -51q0 -27 9 -46t24 -45h136v-99h-112q2 -28 -12.5 -56.5t-40.5 -44.5q11 4 23 5t21 1q20 0 35 -4.5t28.5 -9.5
t27 -9.5t29.5 -4.5q30 0 49.5 10.5t30.5 24.5l69 -143q-20 -22 -57.5 -36.5t-97.5 -14.5q-32 0 -57.5 6.5t-47 15t-40.5 15t-38 6.5q-26 0 -55 -10.5t-59 -27.5l-60 120q36 18 65 44.5t29 61.5q0 13 -3 25.5t-8 25.5h-104z" />
    <glyph glyph-name="currency" unicode="&#xa4;" horiz-adv-x="529" 
d="M264 112q-39 0 -75.5 13t-65.5 39l-60 -60l-27 28l59 59q-24 31 -37 67.5t-13 74.5q0 39 13 75.5t37 66.5l-60 60l28 27l60 -59q29 26 65.5 38.5t75.5 12.5t76 -13t66 -38l59 59l28 -27l-59 -60q24 -30 37 -66.5t13 -75.5q0 -38 -13 -74.5t-37 -67.5l59 -59l-28 -28
l-59 60q-29 -26 -66 -39t-76 -13zM264 158q37 0 68.5 14t55 37.5t37 55.5t13.5 68t-13.5 68t-37 56t-55 37.5t-68.5 13.5q-36 0 -67.5 -13.5t-55 -37.5t-37 -56t-13.5 -68t13.5 -68t37 -55.5t55 -37.5t67.5 -14z" />
    <glyph glyph-name="yen" unicode="&#xa5;" horiz-adv-x="657" 
d="M239 0v110h-214v95h214v63h-214v96h154l-192 303h204l139 -240l137 240h203l-191 -303h156v-96h-215v-63h215v-95h-215v-110h-181z" />
    <glyph glyph-name="brokenbar" unicode="&#xa6;" horiz-adv-x="220" 
d="M162 687v-316h-104v316h104zM162 296v-316h-104v316h104z" />
    <glyph glyph-name="section" unicode="&#xa7;" horiz-adv-x="494" 
d="M465 332q0 -40 -20.5 -74t-57.5 -54q33 -15 55.5 -44t22.5 -78q0 -39 -17 -69t-46.5 -51t-70 -32t-88.5 -11q-76 0 -132.5 24t-94.5 56l63 100q14 -13 32.5 -25.5t40 -22.5t45 -16t46.5 -6q31 0 49.5 9t18.5 29t-20.5 29.5t-51.5 16.5t-67.5 15.5t-67.5 25.5t-51.5 45.5
t-20.5 76.5q0 24 8.5 44t21 35.5t28 26t28.5 16.5q-45 20 -65.5 53.5t-20.5 75.5q0 33 16 60.5t44 47.5t66 31t83 11q78 0 126 -20t77 -46l-59 -94q-26 22 -62 36t-74 14q-63 0 -63 -37q0 -17 20.5 -25t51.5 -14.5t67.5 -14.5t67.5 -24.5t51.5 -44.5t20.5 -75zM306 299
q0 26 -17.5 40t-46.5 20q-32 -6 -44 -21.5t-12 -35.5q0 -15 7 -25t18.5 -17t25.5 -11.5t27 -6.5q23 10 32.5 24t9.5 33z" />
    <glyph glyph-name="dieresis" unicode="&#xa8;" horiz-adv-x="310" 
d="M344 616q0 -35 -23.5 -58.5t-58.5 -23.5q-34 0 -57.5 23.5t-23.5 58.5q0 34 23.5 57.5t57.5 23.5q35 0 58.5 -23.5t23.5 -57.5zM129 616q0 -35 -23.5 -58.5t-57.5 -23.5q-35 0 -58.5 23.5t-23.5 58.5q0 34 23.5 57.5t58.5 23.5q34 0 57.5 -23.5t23.5 -57.5z" />
    <glyph glyph-name="copyright" unicode="&#xa9;" horiz-adv-x="778" 
d="M734 334q0 -71 -27 -134t-74 -110t-109.5 -74t-134.5 -27q-71 0 -134 27t-110 74t-74 110t-27 134q0 72 27 134.5t74 109.5t110 74t134 27q72 0 134.5 -27t109.5 -74t74 -109.5t27 -134.5zM694 334q0 63 -24 118.5t-65.5 97t-97 65.5t-118.5 24t-118.5 -24t-97 -65.5
t-65.5 -97t-24 -118.5t24 -118.5t65.5 -97t97 -65.5t118.5 -24t118.5 24t97 65.5t65.5 97t24 118.5zM547 194q-27 -32 -65.5 -51t-85.5 -19q-43 0 -81 16t-66 44t-44.5 66.5t-16.5 84.5t16.5 84.5t44.5 66t66 43t81 15.5q47 0 85 -18t64 -50l-35 -34q-19 26 -49 41.5
t-65 15.5q-32 0 -60.5 -12t-49.5 -34t-33.5 -52t-12.5 -66t12.5 -66t33.5 -52.5t49.5 -35t60.5 -12.5q36 0 65.5 16.5t49.5 42.5z" />
    <glyph glyph-name="ordfeminine" unicode="&#xaa;" horiz-adv-x="612" 
d="M394 26q-22 -19 -50.5 -30t-64.5 -11q-60 0 -107.5 20t-80.5 55t-50.5 83.5t-17.5 105.5t17.5 106t50.5 84t80.5 55t107.5 20q36 0 64.5 -11t50.5 -30v27h161v-500h-161v26zM284 135q49 0 79 32.5t30 83.5t-30 81.5t-79 30.5q-23 0 -42 -9t-32.5 -24.5t-21 -36.5
t-7.5 -44q0 -24 7.5 -44.5t21 -36t32.5 -24.5t42 -9z" />
    <glyph glyph-name="guillemotleft" unicode="&#xab;" horiz-adv-x="584" 
d="M409 63l-160 180l160 177h145l-160 -177l160 -180h-145zM190 63l-160 180l160 177h145l-160 -177l160 -180h-145z" />
    <glyph glyph-name="logicalnot" unicode="&#xac;" horiz-adv-x="523" 
d="M479 194h-98v185h-352v95h450v-280z" />
    <glyph glyph-name="uni00AD" unicode="&#xad;" horiz-adv-x="300" 
d="M41 175v135h240v-135h-240z" />
    <glyph glyph-name="registered" unicode="&#xae;" horiz-adv-x="494" 
d="M459 465q0 -44 -16.5 -82.5t-45 -67.5t-67.5 -45.5t-83 -16.5t-82.5 16.5t-67.5 45.5t-45.5 67.5t-16.5 82.5t16.5 83t45.5 67.5t67.5 45t82.5 16.5t83 -16.5t67.5 -45t45 -67.5t16.5 -83zM425 465q0 38 -14 70.5t-38 56.5t-56.5 37.5t-69.5 13.5t-69.5 -13.5
t-56.5 -37.5t-38 -56.5t-14 -70.5q0 -37 14 -69.5t38 -56.5t56.5 -38t69.5 -14t69.5 14t56.5 38t38 56.5t14 69.5zM304 343l-63 96h-40v-96h-36v243h99q31 0 56 -20t25 -54q0 -20 -7.5 -33.5t-18 -22t-20.5 -12.5t-16 -4l65 -97h-44zM308 512q0 20 -14 32t-30 12h-63v-85h63
q16 0 30 11t14 30z" />
    <glyph glyph-name="macron" unicode="&#xaf;" horiz-adv-x="363" 
d="M0 590v88h363v-88h-363z" />
    <glyph glyph-name="degree" unicode="&#xb0;" horiz-adv-x="324" 
d="M306 533q0 -30 -11.5 -56t-31 -45.5t-46 -30.5t-56.5 -11t-56 11t-45.5 30.5t-30.5 45.5t-11 56t11 56t30.5 45.5t45.5 31t56 11.5t56.5 -11.5t46 -31t31 -45.5t11.5 -56zM223 533q0 25 -18 43.5t-44 18.5q-25 0 -42 -18.5t-17 -43.5q0 -26 17 -43t42 -17q26 0 44 17
t18 43z" />
    <glyph glyph-name="plusminus" unicode="&#xb1;" horiz-adv-x="508" 
d="M307 327v-196h-106v196h-172v96h172v189h106v-189h172v-96h-172zM29 0v96h450v-96h-450z" />
    <glyph glyph-name="twosuperior" unicode="&#xb2;" horiz-adv-x="644" 
d="M38 34q2 38 12.5 87t35 97t66 90.5t106.5 67.5q30 12 59 23.5t52 23.5t37.5 26t14.5 32q0 20 -9.5 35.5t-24.5 25.5t-32 15t-32 5q-25 0 -48.5 -4.5t-42 -15t-31 -26.5t-16.5 -40l-160 17q8 53 34.5 94t67 69.5t91 43t105.5 14.5q49 0 95.5 -15.5t83 -44t59 -70
t22.5 -94.5q0 -52 -19.5 -90t-54.5 -66.5t-83 -50.5t-105 -43q-29 -11 -48 -31t-31 -47h339v-161h-543v33z" />
    <glyph glyph-name="threesuperior" unicode="&#xb3;" horiz-adv-x="644" 
d="M562 499q0 -38 -15 -70.5t-43 -58.5q36 -29 56 -68.5t20 -86.5q0 -49 -21.5 -90.5t-58.5 -72t-87.5 -47.5t-107.5 -17q-58 0 -108 16.5t-87 46.5t-58 71t-20 90l176 12q4 -34 31 -56t66 -22q46 0 76 21.5t30 55.5t-30 55.5t-76 21.5h-39l1 135h38q40 0 66 18t26 46
q0 29 -26.5 47.5t-68.5 18.5q-30 0 -55.5 -13t-36.5 -36l-167 10q4 41 25.5 75t56 59.5t80 39.5t97.5 14q57 0 104.5 -16t82 -44.5t54 -68t19.5 -86.5z" />
    <glyph glyph-name="acute" unicode="&#xb4;" horiz-adv-x="266" 
d="M125 700h141l-157 -144h-109z" />
    <glyph glyph-name="uni00B5" unicode="&#xb5;" horiz-adv-x="598" 
d="M216 -184h-161v667h161v-277q0 -41 20 -58.5t57 -17.5q32 0 53 14.5t35 30.5v308h161v-401q0 -45 9 -80l-157 -3q-6 11 -9.5 25t-3.5 33q-26 -29 -69 -48t-96 -13v-180z" />
    <glyph glyph-name="paragraph" unicode="&#xb6;" horiz-adv-x="449" 
d="M345 -100v693h-72v-693h-74v423q-36 0 -67 13.5t-54.5 37t-37 54.5t-13.5 67t13.5 67t37 54.5t54.5 37t67 13.5h219v-767h-73z" />
    <glyph glyph-name="periodcentered" unicode="&#xb7;" horiz-adv-x="274" 
d="M54 331h168v-171h-168v171z" />
    <glyph glyph-name="cedilla" unicode="&#xb8;" horiz-adv-x="231" 
d="M116 -198q-38 0 -68.5 9.5t-47.5 23.5l29 59q19 -14 40 -22t42 -8q18 0 32 7t14 21q0 20 -24 20q-18 0 -28 -13l-55 31l31 81h73l-25 -59q15 9 35 9q27 0 47 -20t20 -52q0 -21 -9 -37t-25 -27t-36.5 -17t-44.5 -6z" />
    <glyph glyph-name="onesuperior" unicode="&#xb9;" horiz-adv-x="644" 
d="M50 579l177 121h170v-539h178v-161h-535v161h187v351l-85 -64z" />
    <glyph glyph-name="ordmasculine" unicode="&#xba;" horiz-adv-x="605" 
d="M288 -15q-55 0 -103 20.5t-84 56.5t-57 84t-21 103t21 103t57 84t84 56.5t103 20.5q54 0 102 -20.5t84 -56.5t57 -84t21 -103t-21 -103t-57 -84t-84 -56.5t-102 -20.5zM287 146q21 0 40 8t33.5 22t22.5 33t8 40t-8 40t-22.5 33t-33.5 22t-40 8t-40 -8t-33 -22t-22 -33
t-8 -40t8 -40t22 -33t33 -22t40 -8z" />
    <glyph glyph-name="guillemotright" unicode="&#xbb;" horiz-adv-x="584" 
d="M175 63h-145l160 180l-160 177h145l160 -177zM394 63h-145l160 180l-160 177h145l160 -177z" />
    <glyph glyph-name="questiondown" unicode="&#xbf;" horiz-adv-x="452" 
d="M314 336h-168v170h168v-170zM308 277v-81q0 -42 -17.5 -68.5t-39 -44.5t-39 -31.5t-17.5 -30.5q0 -14 12 -23.5t41 -9.5q26 0 53 13t47 36l101 -116q-43 -48 -102 -70.5t-119 -22.5q-49 0 -89 11.5t-68.5 32.5t-43.5 50.5t-15 65.5t10.5 61t26 44.5t33.5 33.5t33.5 27.5
t26 28t10.5 32.5v62h156z" />
    <glyph glyph-name="Agrave" unicode="&#xc0;" horiz-adv-x="731" 
d="M289 986l125 -144h-162l-130 144h167zM259 700h182l257 -700h-182l-45 122h-241l-45 -122h-182zM412 284l-61 168l-62 -168h123z" />
    <glyph glyph-name="Aacute" unicode="&#xc1;" horiz-adv-x="731" 
d="M424 976h168l-130 -144h-163zM259 700h182l257 -700h-182l-45 122h-241l-45 -122h-182zM412 284l-61 168l-62 -168h123z" />
    <glyph glyph-name="Acircumflex" unicode="&#xc2;" horiz-adv-x="731" 
d="M421 827l-68 79l-64 -79h-95l89 144h141l92 -144h-95zM259 700h182l257 -700h-182l-45 122h-241l-45 -122h-182zM412 284l-61 168l-62 -168h123z" />
    <glyph glyph-name="Atilde" unicode="&#xc3;" horiz-adv-x="731" 
d="M402 840q-24 0 -40 8t-28 18t-22 18t-22 8t-20.5 -11.5t-8.5 -34.5h-81q0 134 115 134q24 0 40 -8t28 -17.5t22 -17.5t22 -8t20 11t8 34h81q0 -68 -29 -101t-85 -33zM259 700h182l257 -700h-182l-45 122h-241l-45 -122h-182zM412 284l-61 168l-62 -168h123z" />
    <glyph glyph-name="Adieresis" unicode="&#xc4;" horiz-adv-x="731" 
d="M544 898q0 -35 -24 -58t-58 -23t-58 23t-24 58t24 58t58 23t58 -23t24 -58zM329 898q0 -35 -23.5 -58t-58.5 -23q-34 0 -57.5 23t-23.5 58t23.5 58t57.5 23q35 0 58.5 -23t23.5 -58zM259 700h182l257 -700h-182l-45 122h-241l-45 -122h-182zM412 284l-61 168l-62 -168
h123z" />
    <glyph glyph-name="Aring" unicode="&#xc5;" horiz-adv-x="731" 
d="M353 790q-22 0 -42 9t-35 24t-24 35t-9 42q0 23 9 43t24 35t35 23.5t42 8.5t41.5 -8.5t34 -23.5t23 -35t8.5 -43q0 -22 -8.5 -42t-23 -35t-34 -24t-41.5 -9zM353 861q16 0 27 11.5t11 27.5q0 17 -11 28t-27 11q-17 0 -28.5 -11.5t-11.5 -27.5t11.5 -27.5t28.5 -11.5z
M259 700h182l257 -700h-182l-45 122h-241l-45 -122h-182zM412 284l-61 168l-62 -168h123z" />
    <glyph glyph-name="AE" unicode="&#xc6;" horiz-adv-x="928" 
d="M259 700h610v-161h-268v-101h244v-161h-244v-116h274v-161h-445v122h-200l-45 -122h-182zM430 284v255h-48l-93 -255h141z" />
    <glyph glyph-name="Ccedilla" unicode="&#xc7;" horiz-adv-x="757" 
d="M33 347q0 75 28.5 140.5t77.5 114.5t114.5 77.5t140.5 28.5q51 0 98.5 -13.5t88.5 -38.5t74 -60t56 -77l-150 -80q-24 44 -68.5 71.5t-98.5 27.5q-39 0 -74 -15t-61 -41t-41 -61t-15 -74t15 -74t41 -60.5t61 -40.5t74 -15q55 0 100 28t68 75l151 -82q-21 -39 -50.5 -72
t-66 -57.5t-78.5 -40.5t-88 -20l-22 -50q15 9 35 9q27 0 47 -20t20 -52q0 -21 -9 -37t-25 -27t-36.5 -17t-44.5 -6q-38 0 -68.5 9.5t-47.5 23.5l29 59q19 -14 40 -21.5t43 -7.5q17 0 31 6.5t14 20.5q0 20 -24 20q-17 0 -28 -13l-54 32l26 71q-68 7 -127 38t-102.5 79
t-68.5 110t-25 132z" />
    <glyph glyph-name="Egrave" unicode="&#xc8;" horiz-adv-x="535" 
d="M202 982l125 -144h-162l-130 144h167zM38 700h438v-161h-268v-101h244v-161h-244v-116h274v-161h-444v700z" />
    <glyph glyph-name="Eacute" unicode="&#xc9;" horiz-adv-x="535" 
d="M337 972h168l-130 -144h-163zM38 700h438v-161h-268v-101h244v-161h-244v-116h274v-161h-444v700z" />
    <glyph glyph-name="Ecircumflex" unicode="&#xca;" horiz-adv-x="535" 
d="M334 823l-67 79l-65 -79h-95l89 144h141l92 -144h-95zM38 700h438v-161h-268v-101h244v-161h-244v-116h274v-161h-444v700z" />
    <glyph glyph-name="Edieresis" unicode="&#xcb;" horiz-adv-x="535" 
d="M457 894q0 -35 -24 -58.5t-58 -23.5t-58 23.5t-24 58.5q0 34 24 57.5t58 23.5t58 -23.5t24 -57.5zM242 894q0 -35 -23.5 -58.5t-57.5 -23.5q-35 0 -58.5 23.5t-23.5 58.5q0 34 23.5 57.5t58.5 23.5q34 0 57.5 -23.5t23.5 -57.5zM38 700h438v-161h-268v-101h244v-161h-244
v-116h274v-161h-444v700z" />
    <glyph glyph-name="Igrave" unicode="&#xcc;" horiz-adv-x="284" 
d="M67 986l125 -144h-162l-130 144h167zM42 700h170v-700h-170v700z" />
    <glyph glyph-name="Iacute" unicode="&#xcd;" horiz-adv-x="284" 
d="M202 976h168l-130 -144h-163zM42 700h170v-700h-170v700z" />
    <glyph glyph-name="Icircumflex" unicode="&#xce;" horiz-adv-x="284" 
d="M199 827l-67 79l-65 -79h-95l89 144h141l92 -144h-95zM42 700h170v-700h-170v700z" />
    <glyph glyph-name="Idieresis" unicode="&#xcf;" horiz-adv-x="284" 
d="M322 898q0 -35 -24 -58t-58 -23t-58 23t-24 58t24 58t58 23t58 -23t24 -58zM107 898q0 -35 -23.5 -58t-58.5 -23q-34 0 -57.5 23t-23.5 58t23.5 58t57.5 23q35 0 58.5 -23t23.5 -58zM42 700h170v-700h-170v700z" />
    <glyph glyph-name="Eth" unicode="&#xd0;" horiz-adv-x="763" 
d="M42 272h-71v158h71v270h298q75 0 140.5 -27t114 -74.5t77 -112t28.5 -139.5t-28.5 -138.5t-77 -110t-114 -72.5t-140.5 -26h-298v272zM212 539v-109h139v-158h-139v-111h128q39 0 74 14.5t60.5 40t40.5 60t15 73.5t-15 74t-40.5 60.5t-60.5 40.5t-74 15h-128z" />
    <glyph glyph-name="Ntilde" unicode="&#xd1;" horiz-adv-x="683" 
d="M382 840q-24 0 -40 8t-28.5 18l-22.5 18t-22 8q-11 0 -19.5 -11.5t-8.5 -34.5h-81q0 68 29 101t85 33q24 0 40 -8t28 -17.5t22 -17.5t22 -8t20.5 11t8.5 34h81q0 -68 -29 -101t-85 -33zM42 700h170l228 -356v356h171v-700h-143l-256 401v-401h-170v700z" />
    <glyph glyph-name="Ograve" unicode="&#xd2;" horiz-adv-x="817" 
d="M331 994l125 -144h-162l-130 144h167zM394 -14q-75 0 -140.5 28.5t-114.5 77.5t-77.5 114.5t-28.5 140.5t28.5 140.5t77.5 114.5t114.5 77.5t140.5 28.5t140.5 -28.5t114.5 -77.5t77.5 -114.5t28.5 -140.5t-28.5 -140.5t-77.5 -114.5t-114.5 -77.5t-140.5 -28.5zM394 157
q39 0 74 15t60.5 40.5t40.5 60.5t15 74t-15 74t-40.5 61t-60.5 41t-74 15t-74 -15t-61 -41t-41 -61t-15 -74t15 -74t41 -60.5t61 -40.5t74 -15z" />
    <glyph glyph-name="Oacute" unicode="&#xd3;" horiz-adv-x="817" 
d="M466 985h168l-130 -144h-163zM394 -14q-75 0 -140.5 28.5t-114.5 77.5t-77.5 114.5t-28.5 140.5t28.5 140.5t77.5 114.5t114.5 77.5t140.5 28.5t140.5 -28.5t114.5 -77.5t77.5 -114.5t28.5 -140.5t-28.5 -140.5t-77.5 -114.5t-114.5 -77.5t-140.5 -28.5zM394 157
q39 0 74 15t60.5 40.5t40.5 60.5t15 74t-15 74t-40.5 61t-60.5 41t-74 15t-74 -15t-61 -41t-41 -61t-15 -74t15 -74t41 -60.5t61 -40.5t74 -15z" />
    <glyph glyph-name="Ocircumflex" unicode="&#xd4;" horiz-adv-x="817" 
d="M463 836l-68 78l-64 -78h-95l89 144h141l92 -144h-95zM394 -14q-75 0 -140.5 28.5t-114.5 77.5t-77.5 114.5t-28.5 140.5t28.5 140.5t77.5 114.5t114.5 77.5t140.5 28.5t140.5 -28.5t114.5 -77.5t77.5 -114.5t28.5 -140.5t-28.5 -140.5t-77.5 -114.5t-114.5 -77.5
t-140.5 -28.5zM394 157q39 0 74 15t60.5 40.5t40.5 60.5t15 74t-15 74t-40.5 61t-60.5 41t-74 15t-74 -15t-61 -41t-41 -61t-15 -74t15 -74t41 -60.5t61 -40.5t74 -15z" />
    <glyph glyph-name="Otilde" unicode="&#xd5;" horiz-adv-x="817" 
d="M444 849q-24 0 -40 8t-28 17.5t-22 17.5t-22 8t-20.5 -11t-8.5 -34h-81q0 68 29 101t85 33q24 0 40.5 -8t28.5 -18t22 -18t22 -8q11 0 19.5 11.5t8.5 34.5h81q0 -68 -29 -101t-85 -33zM394 -14q-75 0 -140.5 28.5t-114.5 77.5t-77.5 114.5t-28.5 140.5t28.5 140.5
t77.5 114.5t114.5 77.5t140.5 28.5t140.5 -28.5t114.5 -77.5t77.5 -114.5t28.5 -140.5t-28.5 -140.5t-77.5 -114.5t-114.5 -77.5t-140.5 -28.5zM394 157q39 0 74 15t60.5 40.5t40.5 60.5t15 74t-15 74t-40.5 61t-60.5 41t-74 15t-74 -15t-61 -41t-41 -61t-15 -74t15 -74
t41 -60.5t61 -40.5t74 -15z" />
    <glyph glyph-name="Odieresis" unicode="&#xd6;" horiz-adv-x="817" 
d="M586 906q0 -34 -24 -57.5t-59 -23.5q-33 0 -57 23.5t-24 57.5q0 35 24 58.5t57 23.5q35 0 59 -23.5t24 -58.5zM371 906q0 -34 -23.5 -57.5t-58.5 -23.5q-34 0 -57.5 23.5t-23.5 57.5q0 35 23.5 58.5t57.5 23.5q35 0 58.5 -23.5t23.5 -58.5zM394 -14q-75 0 -140.5 28.5
t-114.5 77.5t-77.5 114.5t-28.5 140.5t28.5 140.5t77.5 114.5t114.5 77.5t140.5 28.5t140.5 -28.5t114.5 -77.5t77.5 -114.5t28.5 -140.5t-28.5 -140.5t-77.5 -114.5t-114.5 -77.5t-140.5 -28.5zM394 157q39 0 74 15t60.5 40.5t40.5 60.5t15 74t-15 74t-40.5 61t-60.5 41
t-74 15t-74 -15t-61 -41t-41 -61t-15 -74t15 -74t41 -60.5t61 -40.5t74 -15z" />
    <glyph glyph-name="multiply" unicode="&#xd7;" horiz-adv-x="508" 
d="M458 197l-67 -67l-137 137l-136 -137l-68 67l137 137l-137 137l68 67l136 -137l137 137l67 -67l-136 -137z" />
    <glyph glyph-name="Oslash" unicode="&#xd8;" horiz-adv-x="817" 
d="M394 -14q-56 0 -106 15.5t-93 44.5l-62 -69l-76 73l60 66q-40 47 -62 106t-22 125q0 75 28.5 140.5t77.5 114.5t114.5 77.5t140.5 28.5q56 0 106.5 -16t94.5 -45l61 67l76 -71l-60 -66q39 -48 61 -106t22 -124q0 -75 -28.5 -140.5t-77.5 -114.5t-114.5 -77.5
t-140.5 -28.5zM479 518q-40 20 -85 20q-39 0 -74 -15t-61 -41t-41 -61t-15 -74q0 -28 8 -54t22 -48zM394 157q39 0 74 15t60.5 40.5t40.5 60.5t15 74q0 55 -28 100l-245 -272q38 -18 83 -18z" />
    <glyph glyph-name="Ugrave" unicode="&#xd9;" horiz-adv-x="658" 
d="M251 986l125 -144h-162l-130 144h167zM36 700h171v-464q0 -20 9.5 -35t25 -25t34.5 -15t38 -5q22 0 41.5 5t34.5 15t23.5 25t8.5 35v464h170v-464q0 -56 -22 -102t-59.5 -79t-88 -51t-108.5 -18t-108.5 18t-88 51t-59.5 79t-22 102v464z" />
    <glyph glyph-name="Uacute" unicode="&#xda;" horiz-adv-x="658" 
d="M386 976h168l-130 -144h-163zM36 700h171v-464q0 -20 9.5 -35t25 -25t34.5 -15t38 -5q22 0 41.5 5t34.5 15t23.5 25t8.5 35v464h170v-464q0 -56 -22 -102t-59.5 -79t-88 -51t-108.5 -18t-108.5 18t-88 51t-59.5 79t-22 102v464z" />
    <glyph glyph-name="Ucircumflex" unicode="&#xdb;" horiz-adv-x="658" 
d="M383 827l-68 79l-64 -79h-95l89 144h141l92 -144h-95zM36 700h171v-464q0 -20 9.5 -35t25 -25t34.5 -15t38 -5q22 0 41.5 5t34.5 15t23.5 25t8.5 35v464h170v-464q0 -56 -22 -102t-59.5 -79t-88 -51t-108.5 -18t-108.5 18t-88 51t-59.5 79t-22 102v464z" />
    <glyph glyph-name="Udieresis" unicode="&#xdc;" horiz-adv-x="658" 
d="M506 898q0 -35 -24 -58t-58 -23t-58 23t-24 58t24 58t58 23t58 -23t24 -58zM291 898q0 -35 -23.5 -58t-58.5 -23q-34 0 -57.5 23t-23.5 58t23.5 58t57.5 23q35 0 58.5 -23t23.5 -58zM36 700h171v-464q0 -20 9.5 -35t25 -25t34.5 -15t38 -5q22 0 41.5 5t34.5 15t23.5 25
t8.5 35v464h170v-464q0 -56 -22 -102t-59.5 -79t-88 -51t-108.5 -18t-108.5 18t-88 51t-59.5 79t-22 102v464z" />
    <glyph glyph-name="Yacute" unicode="&#xdd;" horiz-adv-x="703" 
d="M414 976h167l-130 -144h-162zM251 236l-250 464h193l143 -263l142 263h193l-250 -464v-236h-171v236z" />
    <glyph glyph-name="Thorn" unicode="&#xde;" horiz-adv-x="601" 
d="M212 122v-122h-170v700h170v-104h98q50 0 93 -18.5t75.5 -50.5t51 -75t18.5 -93q0 -49 -18.5 -92t-51 -75.5t-75.5 -51t-93 -18.5h-98zM310 283q32 0 54 22.5t22 53.5q0 32 -22 54t-54 22h-98v-152h98z" />
    <glyph glyph-name="germandbls" unicode="&#xdf;" horiz-adv-x="567" 
d="M240 430h40q24 0 38 15.5t14 41.5t-17.5 43.5t-46.5 17.5q-32 0 -52 -18t-20 -47v-483h-170v483q4 114 65 166t189 51q43 0 79 -16t62 -44t40.5 -67t14.5 -86q0 -33 -7.5 -62t-21.5 -54q31 -28 48.5 -67t18.5 -87q2 -50 -13 -90t-44 -68t-71.5 -43.5t-96.5 -15.5h-49v161
h49q39 1 60 15.5t21 40.5q-1 29 -24.5 44.5t-65.5 15.5h-40v153z" />
    <glyph glyph-name="agrave" unicode="&#xe0;" horiz-adv-x="612" 
d="M247 786l125 -144h-162l-130 144h167zM394 26q-22 -19 -50.5 -30t-64.5 -11q-60 0 -107.5 20t-80.5 55t-50.5 83.5t-17.5 105.5t17.5 106t50.5 84t80.5 55t107.5 20q36 0 64.5 -11t50.5 -30v27h161v-500h-161v26zM284 135q49 0 79 32.5t30 83.5t-30 81.5t-79 30.5
q-23 0 -42 -9t-32.5 -24.5t-21 -36.5t-7.5 -44q0 -24 7.5 -44.5t21 -36t32.5 -24.5t42 -9z" />
    <glyph glyph-name="aacute" unicode="&#xe1;" horiz-adv-x="612" 
d="M382 776h168l-130 -144h-163zM394 26q-22 -19 -50.5 -30t-64.5 -11q-60 0 -107.5 20t-80.5 55t-50.5 83.5t-17.5 105.5t17.5 106t50.5 84t80.5 55t107.5 20q36 0 64.5 -11t50.5 -30v27h161v-500h-161v26zM284 135q49 0 79 32.5t30 83.5t-30 81.5t-79 30.5q-23 0 -42 -9
t-32.5 -24.5t-21 -36.5t-7.5 -44q0 -24 7.5 -44.5t21 -36t32.5 -24.5t42 -9z" />
    <glyph glyph-name="acircumflex" unicode="&#xe2;" horiz-adv-x="612" 
d="M379 627l-68 79l-64 -79h-95l89 144h141l92 -144h-95zM394 26q-22 -19 -50.5 -30t-64.5 -11q-60 0 -107.5 20t-80.5 55t-50.5 83.5t-17.5 105.5t17.5 106t50.5 84t80.5 55t107.5 20q36 0 64.5 -11t50.5 -30v27h161v-500h-161v26zM284 135q49 0 79 32.5t30 83.5t-30 81.5
t-79 30.5q-23 0 -42 -9t-32.5 -24.5t-21 -36.5t-7.5 -44q0 -24 7.5 -44.5t21 -36t32.5 -24.5t42 -9z" />
    <glyph glyph-name="atilde" unicode="&#xe3;" horiz-adv-x="612" 
d="M360 640q-24 0 -40 8t-28 18t-22 18t-22 8t-20.5 -11.5t-8.5 -34.5h-81q0 68 29 101t85 33q24 0 40.5 -8t28.5 -17.5t22 -17.5t22 -8q11 0 19.5 11t8.5 34h81q0 -68 -29 -101t-85 -33zM394 26q-22 -19 -50.5 -30t-64.5 -11q-60 0 -107.5 20t-80.5 55t-50.5 83.5
t-17.5 105.5t17.5 106t50.5 84t80.5 55t107.5 20q36 0 64.5 -11t50.5 -30v27h161v-500h-161v26zM284 135q49 0 79 32.5t30 83.5t-30 81.5t-79 30.5q-23 0 -42 -9t-32.5 -24.5t-21 -36.5t-7.5 -44q0 -24 7.5 -44.5t21 -36t32.5 -24.5t42 -9z" />
    <glyph glyph-name="adieresis" unicode="&#xe4;" horiz-adv-x="612" 
d="M502 698q0 -35 -24 -58t-59 -23q-33 0 -57 23t-24 58t24 58t57 23q35 0 59 -23t24 -58zM287 698q0 -35 -23.5 -58t-58.5 -23q-34 0 -57.5 23t-23.5 58t23.5 58t57.5 23q35 0 58.5 -23t23.5 -58zM394 26q-22 -19 -50.5 -30t-64.5 -11q-60 0 -107.5 20t-80.5 55t-50.5 83.5
t-17.5 105.5t17.5 106t50.5 84t80.5 55t107.5 20q36 0 64.5 -11t50.5 -30v27h161v-500h-161v26zM284 135q49 0 79 32.5t30 83.5t-30 81.5t-79 30.5q-23 0 -42 -9t-32.5 -24.5t-21 -36.5t-7.5 -44q0 -24 7.5 -44.5t21 -36t32.5 -24.5t42 -9z" />
    <glyph glyph-name="aring" unicode="&#xe5;" horiz-adv-x="612" 
d="M310 590q-22 0 -42 9t-35 24t-23.5 35t-8.5 42q0 23 8.5 43t23.5 35t35 23.5t42 8.5q23 0 42.5 -8.5t34 -23.5t23 -35t8.5 -43q0 -22 -8.5 -42t-23 -35t-34 -24t-42.5 -9zM310 661q17 0 28 11.5t11 27.5q0 17 -11 28t-28 11q-16 0 -27.5 -11.5t-11.5 -27.5t11.5 -27.5
t27.5 -11.5zM394 26q-22 -19 -50.5 -30t-64.5 -11q-60 0 -107.5 20t-80.5 55t-50.5 83.5t-17.5 105.5t17.5 106t50.5 84t80.5 55t107.5 20q36 0 64.5 -11t50.5 -30v27h161v-500h-161v26zM284 135q49 0 79 32.5t30 83.5t-30 81.5t-79 30.5q-23 0 -42 -9t-32.5 -24.5
t-21 -36.5t-7.5 -44q0 -24 7.5 -44.5t21 -36t32.5 -24.5t42 -9z" />
    <glyph glyph-name="ae" unicode="&#xe6;" horiz-adv-x="911" 
d="M627 514q55 0 98 -20.5t72.5 -56t45 -83.5t15.5 -104q0 -15 -1 -29t-4 -27h-327q17 -37 45.5 -54t67.5 -17q26 0 49.5 10t40.5 30l113 -72q-36 -51 -84.5 -78t-120.5 -27q-67 0 -115 22.5t-78 61.5q-29 -37 -71 -61t-96 -24q-60 0 -107 20t-80 55t-50 83.5t-17 105.5
t17 106t50 84t80 55t107 20q54 0 96 -23.5t71 -60.5q29 39 74.5 61.5t108.5 22.5zM724 317q-6 29 -34 43.5t-66 14.5q-40 0 -69.5 -16.5t-31.5 -41.5h201zM281 135q50 0 78.5 32.5t28.5 83.5t-28.5 81.5t-78.5 30.5q-22 0 -40.5 -9t-32 -24.5t-20.5 -36.5t-7 -44
q0 -24 7 -44.5t20.5 -36t32 -24.5t40.5 -9z" />
    <glyph glyph-name="ccedilla" unicode="&#xe7;" horiz-adv-x="542" 
d="M504 98q-32 -45 -78 -74t-102 -37l-22 -51q14 10 35 10q27 0 47 -20t20 -52q0 -21 -9 -37.5t-25 -27.5t-36.5 -17t-44.5 -6q-38 0 -68.5 10t-47.5 24l29 59q19 -14 40 -22t43 -8q17 0 31 6.5t14 20.5q0 21 -24 21q-9 0 -16 -4t-12 -9l-54 31l26 72q-48 7 -89.5 30t-72 58
t-48 79.5t-17.5 94.5q0 55 21 103t57 84t84 56.5t103 20.5q66 0 122.5 -30t92.5 -81l-134 -89q-36 39 -81 39q-21 0 -40 -8t-33.5 -22t-22.5 -33t-8 -40t8 -40t22.5 -33t33.5 -22t40 -8q25 0 44.5 11t36.5 29z" />
    <glyph glyph-name="egrave" unicode="&#xe8;" horiz-adv-x="594" 
d="M226 800l125 -144h-162l-130 144h167zM288 514q55 0 101.5 -20.5t80 -56t52.5 -83.5t19 -104q0 -15 -1 -29t-4 -27h-352q17 -37 47.5 -54t69.5 -17q26 0 51.5 10t41.5 30l122 -72q-36 -51 -91 -78t-127 -27q-63 0 -114 20.5t-86.5 56t-55 83.5t-19.5 104t19.5 104
t54.5 83.5t83.5 56t107.5 20.5zM390 317q-6 29 -36 43.5t-68 14.5q-20 0 -38.5 -4.5t-33 -12t-23.5 -18.5t-10 -23h209z" />
    <glyph glyph-name="eacute" unicode="&#xe9;" horiz-adv-x="594" 
d="M361 790h168l-130 -144h-163zM288 514q55 0 101.5 -20.5t80 -56t52.5 -83.5t19 -104q0 -15 -1 -29t-4 -27h-352q17 -37 47.5 -54t69.5 -17q26 0 51.5 10t41.5 30l122 -72q-36 -51 -91 -78t-127 -27q-63 0 -114 20.5t-86.5 56t-55 83.5t-19.5 104t19.5 104t54.5 83.5
t83.5 56t107.5 20.5zM390 317q-6 29 -36 43.5t-68 14.5q-20 0 -38.5 -4.5t-33 -12t-23.5 -18.5t-10 -23h209z" />
    <glyph glyph-name="ecircumflex" unicode="&#xea;" horiz-adv-x="594" 
d="M358 641l-68 79l-64 -79h-95l89 144h141l92 -144h-95zM288 514q55 0 101.5 -20.5t80 -56t52.5 -83.5t19 -104q0 -15 -1 -29t-4 -27h-352q17 -37 47.5 -54t69.5 -17q26 0 51.5 10t41.5 30l122 -72q-36 -51 -91 -78t-127 -27q-63 0 -114 20.5t-86.5 56t-55 83.5t-19.5 104
t19.5 104t54.5 83.5t83.5 56t107.5 20.5zM390 317q-6 29 -36 43.5t-68 14.5q-20 0 -38.5 -4.5t-33 -12t-23.5 -18.5t-10 -23h209z" />
    <glyph glyph-name="edieresis" unicode="&#xeb;" horiz-adv-x="594" 
d="M481 712q0 -35 -24 -58.5t-58 -23.5t-58 23.5t-24 58.5q0 34 24 57.5t58 23.5t58 -23.5t24 -57.5zM266 712q0 -35 -23.5 -58.5t-58.5 -23.5q-34 0 -57.5 23.5t-23.5 58.5q0 34 23.5 57.5t57.5 23.5q35 0 58.5 -23.5t23.5 -57.5zM288 514q55 0 101.5 -20.5t80 -56
t52.5 -83.5t19 -104q0 -15 -1 -29t-4 -27h-352q17 -37 47.5 -54t69.5 -17q26 0 51.5 10t41.5 30l122 -72q-36 -51 -91 -78t-127 -27q-63 0 -114 20.5t-86.5 56t-55 83.5t-19.5 104t19.5 104t54.5 83.5t83.5 56t107.5 20.5zM390 317q-6 29 -36 43.5t-68 14.5
q-20 0 -38.5 -4.5t-33 -12t-23.5 -18.5t-10 -23h209z" />
    <glyph glyph-name="igrave" unicode="&#xec;" horiz-adv-x="271" 
d="M59 786l125 -144h-163l-130 144h168zM40 500h161v-500h-161v500z" />
    <glyph glyph-name="iacute" unicode="&#xed;" horiz-adv-x="271" 
d="M194 776h167l-130 -144h-162zM40 500h161v-500h-161v500z" />
    <glyph glyph-name="icircumflex" unicode="&#xee;" horiz-adv-x="271" 
d="M190 627l-67 79l-64 -79h-96l90 144h141l92 -144h-96zM40 500h161v-500h-161v500z" />
    <glyph glyph-name="idieresis" unicode="&#xef;" horiz-adv-x="271" 
d="M313 698q0 -35 -23.5 -58t-58.5 -23q-34 0 -57.5 23t-23.5 58t23.5 58t57.5 23q35 0 58.5 -23t23.5 -58zM98 698q0 -35 -23 -58t-58 -23t-58.5 23t-23.5 58t23.5 58t58.5 23t58 -23t23 -58zM40 500h161v-500h-161v500z" />
    <glyph glyph-name="eth" unicode="&#xf0;" horiz-adv-x="607" 
d="M317 700q11 -11 21 -22t19 -22l87 37l37 -58l-78 -33q32 -39 59 -79t47 -83t31 -89.5t12 -98.5q0 -55 -20.5 -103.5t-56.5 -85t-84 -57.5t-103 -21t-103 20.5t-84 56.5t-57 84t-21 103t21 103t57 84t84 56.5t103 20.5q33 0 61 -7q-7 14 -15 28.5t-18 29.5l-94 -41l-36 58
l88 39q-16 19 -34.5 39t-40.5 41h118zM287 146q21 0 40 8t33.5 22t22.5 33t8 40t-8 40t-22.5 33t-33.5 22t-40 8t-40 -8t-33 -22t-22 -33t-8 -40t8 -40t22 -33t33 -22t40 -8z" />
    <glyph glyph-name="ntilde" unicode="&#xf1;" horiz-adv-x="551" 
d="M319 640q-24 0 -40 8t-28 18t-22 18t-22 8t-20 -11.5t-8 -34.5h-81q0 68 29 101t85 33q24 0 40 -8t28 -17.5t22 -17.5t22 -8t20.5 11t8.5 34h81q0 -134 -115 -134zM495 0h-161v299q0 21 -7 35.5t-17.5 23.5t-24 12.5t-27.5 3.5q-29 0 -50 -21t-21 -72v-281h-161v500h161
v-28q23 19 51.5 30.5t60.5 11.5q27 0 61 -9t64 -32.5t50.5 -65.5t20.5 -108v-299z" />
    <glyph glyph-name="ograve" unicode="&#xf2;" horiz-adv-x="605" 
d="M225 800l125 -144h-162l-130 144h167zM288 -15q-55 0 -103 20.5t-84 56.5t-57 84t-21 103t21 103t57 84t84 56.5t103 20.5q54 0 102 -20.5t84 -56.5t57 -84t21 -103t-21 -103t-57 -84t-84 -56.5t-102 -20.5zM287 146q21 0 40 8t33.5 22t22.5 33t8 40t-8 40t-22.5 33
t-33.5 22t-40 8t-40 -8t-33 -22t-22 -33t-8 -40t8 -40t22 -33t33 -22t40 -8z" />
    <glyph glyph-name="oacute" unicode="&#xf3;" horiz-adv-x="605" 
d="M360 790h168l-130 -144h-163zM288 -15q-55 0 -103 20.5t-84 56.5t-57 84t-21 103t21 103t57 84t84 56.5t103 20.5q54 0 102 -20.5t84 -56.5t57 -84t21 -103t-21 -103t-57 -84t-84 -56.5t-102 -20.5zM287 146q21 0 40 8t33.5 22t22.5 33t8 40t-8 40t-22.5 33t-33.5 22
t-40 8t-40 -8t-33 -22t-22 -33t-8 -40t8 -40t22 -33t33 -22t40 -8z" />
    <glyph glyph-name="ocircumflex" unicode="&#xf4;" horiz-adv-x="605" 
d="M357 641l-68 79l-64 -79h-95l89 144h141l92 -144h-95zM288 -15q-55 0 -103 20.5t-84 56.5t-57 84t-21 103t21 103t57 84t84 56.5t103 20.5q54 0 102 -20.5t84 -56.5t57 -84t21 -103t-21 -103t-57 -84t-84 -56.5t-102 -20.5zM287 146q21 0 40 8t33.5 22t22.5 33t8 40
t-8 40t-22.5 33t-33.5 22t-40 8t-40 -8t-33 -22t-22 -33t-8 -40t8 -40t22 -33t33 -22t40 -8z" />
    <glyph glyph-name="otilde" unicode="&#xf5;" horiz-adv-x="605" 
d="M338 654q-24 0 -40 8t-28 17.5t-22 17.5t-22 8t-20.5 -11t-8.5 -34h-81q0 68 29 101t85 33q24 0 40.5 -8t28.5 -18t22 -18t22 -8q11 0 19.5 11.5t8.5 34.5h81q0 -68 -29 -101t-85 -33zM288 -15q-55 0 -103 20.5t-84 56.5t-57 84t-21 103t21 103t57 84t84 56.5t103 20.5
q54 0 102 -20.5t84 -56.5t57 -84t21 -103t-21 -103t-57 -84t-84 -56.5t-102 -20.5zM287 146q21 0 40 8t33.5 22t22.5 33t8 40t-8 40t-22.5 33t-33.5 22t-40 8t-40 -8t-33 -22t-22 -33t-8 -40t8 -40t22 -33t33 -22t40 -8z" />
    <glyph glyph-name="odieresis" unicode="&#xf6;" horiz-adv-x="605" 
d="M480 711q0 -34 -24 -57.5t-59 -23.5q-33 0 -57 23.5t-24 57.5q0 35 24 58.5t57 23.5q35 0 59 -23.5t24 -58.5zM265 711q0 -34 -23.5 -57.5t-58.5 -23.5q-34 0 -57.5 23.5t-23.5 57.5q0 35 23.5 58.5t57.5 23.5q35 0 58.5 -23.5t23.5 -58.5zM288 -15q-55 0 -103 20.5
t-84 56.5t-57 84t-21 103t21 103t57 84t84 56.5t103 20.5q54 0 102 -20.5t84 -56.5t57 -84t21 -103t-21 -103t-57 -84t-84 -56.5t-102 -20.5zM287 146q21 0 40 8t33.5 22t22.5 33t8 40t-8 40t-22.5 33t-33.5 22t-40 8t-40 -8t-33 -22t-22 -33t-8 -40t8 -40t22 -33t33 -22
t40 -8z" />
    <glyph glyph-name="divide" unicode="&#xf7;" horiz-adv-x="511" 
d="M326 509q0 -29 -21 -50.5t-50 -21.5t-49.5 21.5t-20.5 50.5t20.5 49.5t49.5 20.5t50 -20.5t21 -49.5zM482 385v-95h-453v95h453zM326 165q0 -29 -21 -49.5t-50 -20.5t-49.5 20.5t-20.5 49.5t20.5 50t49.5 21t50 -20.5t21 -50.5z" />
    <glyph glyph-name="oslash" unicode="&#xf8;" horiz-adv-x="605" 
d="M288 -15q-37 0 -71 9.5t-63 26.5l-128 -142l-76 72l126 140q-25 33 -39 73t-14 85q0 55 21 103t57 84t84 56.5t103 20.5q73 0 135 -37l126 140l76 -71l-125 -139q25 -33 38.5 -72.5t13.5 -84.5q0 -55 -21 -103t-57 -84t-84 -56.5t-102 -20.5zM309 350q-5 1 -10.5 1.5
t-11.5 0.5q-21 0 -40 -8t-33 -22t-22 -33t-8 -40q0 -15 5 -32zM287 146q21 0 40 8t33.5 22t22.5 33t8 40q0 15 -5 30l-118 -131q5 -1 9.5 -1.5t9.5 -0.5z" />
    <glyph glyph-name="ugrave" unicode="&#xf9;" horiz-adv-x="559" 
d="M211 786l125 -144h-162l-130 144h167zM34 500h162v-299q0 -21 7 -35.5t17.5 -23.5t24.5 -12.5t27 -3.5q29 0 50 21t21 72v281h161v-500h-161v28q-23 -19 -51.5 -30.5t-60.5 -11.5q-27 0 -61 9t-64.5 32.5t-51 65.5t-20.5 108v299z" />
    <glyph glyph-name="uacute" unicode="&#xfa;" horiz-adv-x="559" 
d="M346 776h168l-130 -144h-163zM34 500h162v-299q0 -21 7 -35.5t17.5 -23.5t24.5 -12.5t27 -3.5q29 0 50 21t21 72v281h161v-500h-161v28q-23 -19 -51.5 -30.5t-60.5 -11.5q-27 0 -61 9t-64.5 32.5t-51 65.5t-20.5 108v299z" />
    <glyph glyph-name="ucircumflex" unicode="&#xfb;" horiz-adv-x="559" 
d="M343 627l-68 79l-64 -79h-95l89 144h141l92 -144h-95zM34 500h162v-299q0 -21 7 -35.5t17.5 -23.5t24.5 -12.5t27 -3.5q29 0 50 21t21 72v281h161v-500h-161v28q-23 -19 -51.5 -30.5t-60.5 -11.5q-27 0 -61 9t-64.5 32.5t-51 65.5t-20.5 108v299z" />
    <glyph glyph-name="udieresis" unicode="&#xfc;" horiz-adv-x="559" 
d="M466 698q0 -35 -24 -58t-59 -23q-33 0 -57 23t-24 58t24 58t57 23q35 0 59 -23t24 -58zM251 698q0 -35 -23.5 -58t-58.5 -23q-34 0 -57.5 23t-23.5 58t23.5 58t57.5 23q35 0 58.5 -23t23.5 -58zM34 500h162v-299q0 -21 7 -35.5t17.5 -23.5t24.5 -12.5t27 -3.5q29 0 50 21
t21 72v281h161v-500h-161v28q-23 -19 -51.5 -30.5t-60.5 -11.5q-27 0 -61 9t-64.5 32.5t-51 65.5t-20.5 108v299z" />
    <glyph glyph-name="yacute" unicode="&#xfd;" horiz-adv-x="578" 
d="M357 776h168l-130 -144h-163zM176 500l116 -257l86 257h169l-161 -484q-43 -115 -118 -169.5t-181 -46.5v156q50 -6 80 14.5t47 53.5l-212 476h174z" />
    <glyph glyph-name="thorn" unicode="&#xfe;" horiz-adv-x="610" 
d="M26 700h161v-226q22 18 50 29t64 11q60 0 107.5 -20t80.5 -55t50.5 -83.5t17.5 -105.5t-17.5 -106t-50.5 -84t-80.5 -55t-107.5 -20q-36 0 -64 10.5t-50 29.5v-225h-161v900zM296 365q-49 0 -79 -33t-30 -84t30 -81.5t79 -30.5q23 0 41.5 9t32.5 24.5t21.5 36.5t7.5 44
q0 24 -7.5 44.5t-21.5 36.5t-32.5 25t-41.5 9z" />
    <glyph glyph-name="ydieresis" unicode="&#xff;" horiz-adv-x="578" 
d="M477 698q0 -35 -24 -58t-58 -23t-58 23t-24 58t24 58t58 23t58 -23t24 -58zM262 698q0 -35 -23.5 -58t-58.5 -23q-34 0 -57.5 23t-23.5 58t23.5 58t57.5 23q35 0 58.5 -23t23.5 -58zM176 500l116 -257l86 257h169l-161 -484q-43 -115 -118 -169.5t-181 -46.5v156
q50 -6 80 14.5t47 53.5l-212 476h174z" />
    <glyph glyph-name="Amacron" unicode="&#x100;" horiz-adv-x="731" 
d="M164 810v88h363v-88h-363zM259 700h182l257 -700h-182l-45 122h-241l-45 -122h-182zM412 284l-61 168l-62 -168h123z" />
    <glyph glyph-name="amacron" unicode="&#x101;" horiz-adv-x="612" 
d="M122 610v88h363v-88h-363zM394 26q-22 -19 -50.5 -30t-64.5 -11q-60 0 -107.5 20t-80.5 55t-50.5 83.5t-17.5 105.5t17.5 106t50.5 84t80.5 55t107.5 20q36 0 64.5 -11t50.5 -30v27h161v-500h-161v26zM284 135q49 0 79 32.5t30 83.5t-30 81.5t-79 30.5q-23 0 -42 -9
t-32.5 -24.5t-21 -36.5t-7.5 -44q0 -24 7.5 -44.5t21 -36t32.5 -24.5t42 -9z" />
    <glyph glyph-name="Abreve" unicode="&#x102;" horiz-adv-x="731" 
d="M525 910q-30 -42 -75.5 -65t-99.5 -23t-99 23t-77 65l69 57q18 -26 45 -41.5t62 -15.5q67 0 107 57zM259 700h182l257 -700h-182l-45 122h-241l-45 -122h-182zM412 284l-61 168l-62 -168h123z" />
    <glyph glyph-name="abreve" unicode="&#x103;" horiz-adv-x="612" 
d="M483 710q-30 -42 -75.5 -65t-99.5 -23t-99.5 23t-76.5 65l69 57q18 -26 45 -41.5t62 -15.5q67 0 107 57zM394 26q-22 -19 -50.5 -30t-64.5 -11q-60 0 -107.5 20t-80.5 55t-50.5 83.5t-17.5 105.5t17.5 106t50.5 84t80.5 55t107.5 20q36 0 64.5 -11t50.5 -30v27h161v-500
h-161v26zM284 135q49 0 79 32.5t30 83.5t-30 81.5t-79 30.5q-23 0 -42 -9t-32.5 -24.5t-21 -36.5t-7.5 -44q0 -24 7.5 -44.5t21 -36t32.5 -24.5t42 -9z" />
    <glyph glyph-name="Aogonek" unicode="&#x104;" horiz-adv-x="731" 
d="M259 700h182l257 -700h-182l-45 122h-241l-45 -122h-38q-36 -19 -50.5 -40.5t-14.5 -44.5q0 -22 10.5 -29.5t21.5 -7.5q14 0 23 8.5t14 21.5l61 -39q-16 -26 -40 -40t-58 -14q-21 0 -40.5 5t-34 16.5t-23.5 29t-9 42.5q0 53 41 92h-45zM412 284l-61 168l-62 -168h123z
" />
    <glyph glyph-name="aogonek" unicode="&#x105;" horiz-adv-x="612" 
d="M394 26q-22 -19 -50.5 -30t-64.5 -11q-60 0 -107.5 20t-80.5 55t-50.5 83.5t-17.5 105.5t17.5 106t50.5 84t80.5 55t107.5 20q36 0 64.5 -11t50.5 -30v27h161v-500h-26q-36 -19 -50.5 -40.5t-14.5 -44.5q0 -22 10.5 -29.5t21.5 -7.5q14 0 23.5 8.5t14.5 21.5l60 -39
q-16 -26 -40 -40t-58 -14q-21 0 -40.5 5t-34 16.5t-23.5 29t-9 42.5q0 53 41 92h-36v26zM284 135q49 0 79 32.5t30 83.5t-30 81.5t-79 30.5q-23 0 -42 -9t-32.5 -24.5t-21 -36.5t-7.5 -44q0 -24 7.5 -44.5t21 -36t32.5 -24.5t42 -9z" />
    <glyph glyph-name="Cacute" unicode="&#x106;" horiz-adv-x="757" 
d="M466 985h168l-130 -144h-163zM33 347q0 75 28.5 140.5t77.5 114.5t114.5 77.5t140.5 28.5q51 0 98.5 -13.5t88.5 -38.5t74 -60t56 -77l-150 -80q-24 44 -68.5 71.5t-98.5 27.5q-39 0 -74 -15t-61 -41t-41 -61t-15 -74t15 -74t41 -60.5t61 -40.5t74 -15q55 0 100 28t68 75
l151 -82q-23 -43 -56.5 -78t-74.5 -60.5t-89 -39.5t-99 -14q-75 0 -140.5 28.5t-114.5 77.5t-77.5 114.5t-28.5 140.5z" />
    <glyph glyph-name="cacute" unicode="&#x107;" horiz-adv-x="542" 
d="M360 790h168l-130 -144h-163zM504 98q-36 -52 -92.5 -82.5t-123.5 -30.5q-55 0 -103 20.5t-84 56.5t-57 84t-21 103t21 103t57 84t84 56.5t103 20.5q66 0 122.5 -30t92.5 -81l-134 -89q-36 39 -81 39q-21 0 -40 -8t-33.5 -22t-22.5 -33t-8 -40t8 -40t22.5 -33t33.5 -22
t40 -8q25 0 44.5 11t36.5 29z" />
    <glyph glyph-name="Cdotaccent" unicode="&#x10a;" horiz-adv-x="757" 
d="M397 807q-33 0 -57 23.5t-24 57.5t24 58t57 24t57 -24t24 -58t-24 -57.5t-57 -23.5zM33 347q0 75 28.5 140.5t77.5 114.5t114.5 77.5t140.5 28.5q51 0 98.5 -13.5t88.5 -38.5t74 -60t56 -77l-150 -80q-24 44 -68.5 71.5t-98.5 27.5q-39 0 -74 -15t-61 -41t-41 -61
t-15 -74t15 -74t41 -60.5t61 -40.5t74 -15q55 0 100 28t68 75l151 -82q-23 -43 -56.5 -78t-74.5 -60.5t-89 -39.5t-99 -14q-75 0 -140.5 28.5t-114.5 77.5t-77.5 114.5t-28.5 140.5z" />
    <glyph glyph-name="cdotaccent" unicode="&#x10b;" horiz-adv-x="542" 
d="M291 612q-33 0 -57 24t-24 57q0 34 24 58t57 24t57 -24t24 -58q0 -33 -24 -57t-57 -24zM504 98q-36 -52 -92.5 -82.5t-123.5 -30.5q-55 0 -103 20.5t-84 56.5t-57 84t-21 103t21 103t57 84t84 56.5t103 20.5q66 0 122.5 -30t92.5 -81l-134 -89q-36 39 -81 39
q-21 0 -40 -8t-33.5 -22t-22.5 -33t-8 -40t8 -40t22.5 -33t33.5 -22t40 -8q25 0 44.5 11t36.5 29z" />
    <glyph glyph-name="Ccaron" unicode="&#x10c;" horiz-adv-x="757" 
d="M320 834l-92 144h96l67 -79l64 79h96l-90 -144h-141zM33 347q0 75 28.5 140.5t77.5 114.5t114.5 77.5t140.5 28.5q51 0 98.5 -13.5t88.5 -38.5t74 -60t56 -77l-150 -80q-24 44 -68.5 71.5t-98.5 27.5q-39 0 -74 -15t-61 -41t-41 -61t-15 -74t15 -74t41 -60.5t61 -40.5
t74 -15q55 0 100 28t68 75l151 -82q-23 -43 -56.5 -78t-74.5 -60.5t-89 -39.5t-99 -14q-75 0 -140.5 28.5t-114.5 77.5t-77.5 114.5t-28.5 140.5z" />
    <glyph glyph-name="ccaron" unicode="&#x10d;" horiz-adv-x="542" 
d="M214 639l-92 144h96l67 -78l64 78h96l-90 -144h-141zM504 98q-36 -52 -92.5 -82.5t-123.5 -30.5q-55 0 -103 20.5t-84 56.5t-57 84t-21 103t21 103t57 84t84 56.5t103 20.5q66 0 122.5 -30t92.5 -81l-134 -89q-36 39 -81 39q-21 0 -40 -8t-33.5 -22t-22.5 -33t-8 -40
t8 -40t22.5 -33t33.5 -22t40 -8q25 0 44.5 11t36.5 29z" />
    <glyph glyph-name="Dcaron" unicode="&#x10e;" horiz-adv-x="763" 
d="M267 826l-93 144h96l67 -79l64 79h96l-89 -144h-141zM42 700h298q75 0 140.5 -27t114 -74.5t77 -112t28.5 -139.5t-28.5 -138.5t-77 -110t-114 -72.5t-140.5 -26h-298v700zM212 539v-378h128q39 0 74 14.5t60.5 40t40.5 60t15 73.5t-15 74t-40.5 60.5t-60.5 40.5t-74 15
h-128z" />
    <glyph glyph-name="dcaron" unicode="&#x10f;" horiz-adv-x="610" 
d="M226 735l-92 144h95l68 -79l64 79h95l-89 -144h-141zM554 0h-161v25q-22 -18 -50 -29t-64 -11q-60 0 -107.5 20t-80.5 55t-50.5 83.5t-17.5 105.5t17.5 106t50.5 84t80.5 55t107.5 20q36 0 64 -10.5t50 -29.5v226h161v-700zM284 135q49 0 79 32.5t30 83.5t-30 81.5
t-79 30.5q-23 0 -42 -9t-32.5 -24.5t-21 -36.5t-7.5 -44q0 -24 7.5 -44.5t21 -36t32.5 -24.5t42 -9z" />
    <glyph glyph-name="Dcroat" unicode="&#x110;" horiz-adv-x="763" 
d="M42 272h-71v158h71v270h298q75 0 140.5 -27t114 -74.5t77 -112t28.5 -139.5t-28.5 -138.5t-77 -110t-114 -72.5t-140.5 -26h-298v272zM212 539v-109h139v-158h-139v-111h128q39 0 74 14.5t60.5 40t40.5 60t15 73.5t-15 74t-40.5 60.5t-60.5 40.5t-74 15h-128z" />
    <glyph glyph-name="dcroat" unicode="&#x111;" horiz-adv-x="610" 
d="M554 651h108v-158h-108v-493h-161v25q-22 -18 -50 -29t-64 -11q-60 0 -107.5 20t-80.5 55t-50.5 83.5t-17.5 105.5q0 58 18 107t52 84.5t81.5 55t107.5 18.5v137h111v49h161v-49zM393 493h-27q17 -10 27 -19v19zM284 135q49 0 79 32.5t30 83.5t-30 81.5t-79 30.5
q-23 0 -42 -9t-32.5 -24.5t-21 -36.5t-7.5 -44q0 -24 7.5 -44.5t21 -36t32.5 -24.5t42 -9z" />
    <glyph glyph-name="Emacron" unicode="&#x112;" horiz-adv-x="535" 
d="M77 805v89h363v-89h-363zM38 700h438v-161h-268v-101h244v-161h-244v-116h274v-161h-444v700z" />
    <glyph glyph-name="emacron" unicode="&#x113;" horiz-adv-x="594" 
d="M101 623v89h363v-89h-363zM288 514q55 0 101.5 -20.5t80 -56t52.5 -83.5t19 -104q0 -15 -1 -29t-4 -27h-352q17 -37 47.5 -54t69.5 -17q26 0 51.5 10t41.5 30l122 -72q-36 -51 -91 -78t-127 -27q-63 0 -114 20.5t-86.5 56t-55 83.5t-19.5 104t19.5 104t54.5 83.5t83.5 56
t107.5 20.5zM390 317q-6 29 -36 43.5t-68 14.5q-20 0 -38.5 -4.5t-33 -12t-23.5 -18.5t-10 -23h209z" />
    <glyph glyph-name="Edotaccent" unicode="&#x116;" horiz-adv-x="535" 
d="M269 794q-34 0 -58 24t-24 58t24 57.5t58 23.5q33 0 56.5 -23.5t23.5 -57.5t-23.5 -58t-56.5 -24zM38 700h438v-161h-268v-101h244v-161h-244v-116h274v-161h-444v700z" />
    <glyph glyph-name="edotaccent" unicode="&#x117;" horiz-adv-x="594" 
d="M293 612q-34 0 -58 24t-24 58t24 57.5t58 23.5q33 0 56.5 -23.5t23.5 -57.5t-23.5 -58t-56.5 -24zM288 514q55 0 101.5 -20.5t80 -56t52.5 -83.5t19 -104q0 -15 -1 -29t-4 -27h-352q17 -37 47.5 -54t69.5 -17q26 0 51.5 10t41.5 30l122 -72q-36 -51 -91 -78t-127 -27
q-63 0 -114 20.5t-86.5 56t-55 83.5t-19.5 104t19.5 104t54.5 83.5t83.5 56t107.5 20.5zM390 317q-6 29 -36 43.5t-68 14.5q-20 0 -38.5 -4.5t-33 -12t-23.5 -18.5t-10 -23h209z" />
    <glyph glyph-name="Eogonek" unicode="&#x118;" horiz-adv-x="535" 
d="M38 700h438v-161h-268v-101h244v-161h-244v-116h274v-161h-340q-38 -19 -52.5 -41t-14.5 -45q0 -22 10 -29.5t21 -7.5q15 0 24 8.5t14 21.5l61 -39q-16 -26 -40 -40t-59 -14q-21 0 -40 5t-33.5 16.5t-23.5 29t-9 42.5q0 54 41 93h-3v700z" />
    <glyph glyph-name="eogonek" unicode="&#x119;" horiz-adv-x="594" 
d="M288 514q55 0 101.5 -20.5t80 -56t52.5 -83.5t19 -104q0 -15 -1 -29t-4 -27h-352q17 -37 47.5 -54t69.5 -17q26 0 51.5 10t41.5 30l122 -72q-61 -87 -172 -102q-34 -18 -47.5 -39t-13.5 -44q0 -21 10.5 -29t21.5 -8q14 0 23 9t14 22l61 -39q-16 -26 -40 -40.5t-58 -14.5
q-21 0 -40.5 5.5t-34 16.5t-23.5 29t-9 42q0 50 39 91q-52 8 -93.5 31t-70.5 57t-44.5 78t-15.5 94q0 56 19.5 104t54.5 83.5t83.5 56t107.5 20.5zM390 317q-6 29 -36 43.5t-68 14.5q-20 0 -38.5 -4.5t-33 -12t-23.5 -18.5t-10 -23h209z" />
    <glyph glyph-name="Ecaron" unicode="&#x11a;" horiz-adv-x="535" 
d="M192 822l-92 144h95l67 -79l65 79h95l-89 -144h-141zM38 700h438v-161h-268v-101h244v-161h-244v-116h274v-161h-444v700z" />
    <glyph glyph-name="ecaron" unicode="&#x11b;" horiz-adv-x="594" 
d="M216 640l-93 144h96l67 -79l64 79h96l-89 -144h-141zM288 514q55 0 101.5 -20.5t80 -56t52.5 -83.5t19 -104q0 -15 -1 -29t-4 -27h-352q17 -37 47.5 -54t69.5 -17q26 0 51.5 10t41.5 30l122 -72q-36 -51 -91 -78t-127 -27q-63 0 -114 20.5t-86.5 56t-55 83.5t-19.5 104
t19.5 104t54.5 83.5t83.5 56t107.5 20.5zM390 317q-6 29 -36 43.5t-68 14.5q-20 0 -38.5 -4.5t-33 -12t-23.5 -18.5t-10 -23h209z" />
    <glyph glyph-name="Gbreve" unicode="&#x11e;" horiz-adv-x="812" 
d="M567 918q-30 -41 -75.5 -64.5t-99.5 -23.5t-99.5 23.5t-76.5 64.5l69 57q18 -26 45 -41t62 -15q67 0 107 56zM33 347q0 75 28.5 140.5t77.5 114.5t114.5 77.5t140.5 28.5q88 0 162.5 -38.5t123.5 -104.5l-133 -105q-26 35 -66 56.5t-87 21.5q-39 0 -74 -15t-61 -41
t-41 -61t-15 -74t15 -74t41 -60.5t61 -40.5t74 -15q47 0 85.5 19.5t63.5 52.5h-180v162h387v-69q0 -69 -28.5 -130.5t-77.5 -107t-113.5 -72t-136.5 -26.5q-75 0 -140.5 28.5t-114.5 77.5t-77.5 114.5t-28.5 140.5z" />
    <glyph glyph-name="gbreve" unicode="&#x11f;" horiz-adv-x="640" 
d="M499 710q-30 -42 -75.5 -65t-99.5 -23t-99 23t-77 65l69 57q18 -26 45 -41.5t62 -15.5q67 0 107 57zM415 25q-22 -18 -50.5 -29t-63.5 -11q-60 0 -107.5 20t-80.5 55t-50.5 83.5t-17.5 105.5t17.5 106t50.5 84t80.5 55t107.5 20q35 0 63.5 -10.5t50.5 -29.5v26h161v-475
q0 -53 -21.5 -97t-59.5 -75.5t-90.5 -49t-114.5 -17.5q-44 0 -85.5 9t-76.5 25t-62 38.5t-42 48.5l138 80q12 -22 48 -37t84 -15q52 0 86.5 25t34.5 65zM305 135q50 0 80 32.5t30 83.5t-30 81.5t-80 30.5q-22 0 -41 -9t-32.5 -24.5t-21 -36.5t-7.5 -44q0 -24 7.5 -44.5
t21 -36t32.5 -24.5t41 -9z" />
    <glyph glyph-name="Gdotaccent" unicode="&#x120;" horiz-adv-x="812" 
d="M397 807q-33 0 -57 23.5t-24 57.5t24 58t57 24t57 -24t24 -58t-24 -57.5t-57 -23.5zM33 347q0 75 28.5 140.5t77.5 114.5t114.5 77.5t140.5 28.5q88 0 162.5 -38.5t123.5 -104.5l-133 -105q-26 35 -66 56.5t-87 21.5q-39 0 -74 -15t-61 -41t-41 -61t-15 -74t15 -74
t41 -60.5t61 -40.5t74 -15q47 0 85.5 19.5t63.5 52.5h-180v162h387v-69q0 -69 -28.5 -130.5t-77.5 -107t-113.5 -72t-136.5 -26.5q-75 0 -140.5 28.5t-114.5 77.5t-77.5 114.5t-28.5 140.5z" />
    <glyph glyph-name="gdotaccent" unicode="&#x121;" horiz-adv-x="640" 
d="M330 599q-34 0 -58 23.5t-24 57.5t24 58t58 24q33 0 56.5 -24t23.5 -58t-23.5 -57.5t-56.5 -23.5zM415 25q-22 -18 -50.5 -29t-63.5 -11q-60 0 -107.5 20t-80.5 55t-50.5 83.5t-17.5 105.5t17.5 106t50.5 84t80.5 55t107.5 20q35 0 63.5 -10.5t50.5 -29.5v26h161v-475
q0 -53 -21.5 -97t-59.5 -75.5t-90.5 -49t-114.5 -17.5q-44 0 -85.5 9t-76.5 25t-62 38.5t-42 48.5l138 80q12 -22 48 -37t84 -15q52 0 86.5 25t34.5 65zM305 135q50 0 80 32.5t30 83.5t-30 81.5t-80 30.5q-22 0 -41 -9t-32.5 -24.5t-21 -36.5t-7.5 -44q0 -24 7.5 -44.5
t21 -36t32.5 -24.5t41 -9z" />
    <glyph glyph-name="uni0122" unicode="&#x122;" horiz-adv-x="812" 
d="M33 347q0 75 28.5 140.5t77.5 114.5t114.5 77.5t140.5 28.5q88 0 162.5 -38.5t123.5 -104.5l-133 -105q-26 35 -66 56.5t-87 21.5q-39 0 -74 -15t-61 -41t-41 -61t-15 -74t15 -74t41 -60.5t61 -40.5t74 -15q47 0 85.5 19.5t63.5 52.5h-180v162h387v-69
q0 -69 -28.5 -130.5t-77.5 -107t-113.5 -72t-136.5 -26.5q-75 0 -140.5 28.5t-114.5 77.5t-77.5 114.5t-28.5 140.5zM305 -91h167v-170l-104 -131l-47 40l39 91h-55v170z" />
    <glyph glyph-name="uni0123" unicode="&#x123;" horiz-adv-x="640" 
d="M223 558h-167v171l104 130l47 -40l-39 -90h55v-171zM415 25q-22 -18 -50.5 -29t-63.5 -11q-60 0 -107.5 20t-80.5 55t-50.5 83.5t-17.5 105.5t17.5 106t50.5 84t80.5 55t107.5 20q35 0 63.5 -10.5t50.5 -29.5v26h161v-475q0 -53 -21.5 -97t-59.5 -75.5t-90.5 -49
t-114.5 -17.5q-44 0 -85.5 9t-76.5 25t-62 38.5t-42 48.5l138 80q12 -22 48 -37t84 -15q52 0 86.5 25t34.5 65zM305 135q50 0 80 32.5t30 83.5t-30 81.5t-80 30.5q-22 0 -41 -9t-32.5 -24.5t-21 -36.5t-7.5 -44q0 -24 7.5 -44.5t21 -36t32.5 -24.5t41 -9z" />
    <glyph glyph-name="Hbar" unicode="&#x126;" horiz-adv-x="735" 
d="M42 506h-41v109h41v85h170v-85h281v85h170v-85h50v-109h-50v-506h-170v278h-281v-278h-170v506zM493 439v67h-281v-67h281z" />
    <glyph glyph-name="hbar" unicode="&#x127;" horiz-adv-x="550" 
d="M26 478h-93v158h93v64h161v-64h125v-127q27 -2 59 -12.5t59 -34t45 -63.5t19 -100v-299h-161v295q0 21 -7 35.5t-17.5 23t-24 12.5t-27.5 4q-26 0 -45.5 -17t-24.5 -56v-297h-161v478zM187 469l12 9h-12v-9z" />
    <glyph glyph-name="Imacron" unicode="&#x12a;" horiz-adv-x="284" 
d="M-58 810v88h363v-88h-363zM42 700h170v-700h-170v700z" />
    <glyph glyph-name="imacron" unicode="&#x12b;" horiz-adv-x="271" 
d="M-66 610v88h363v-88h-363zM40 500h161v-500h-161v500z" />
    <glyph glyph-name="Iogonek" unicode="&#x12e;" horiz-adv-x="284" 
d="M205 -132q-16 -26 -40 -40t-59 -14q-21 0 -40 5t-33.5 16.5t-23.5 29t-9 42.5q0 53 42 93v700h170v-700h-70q-38 -19 -52.5 -41t-14.5 -45q0 -22 10 -29.5t21 -7.5q15 0 24 8.5t14 21.5z" />
    <glyph glyph-name="iogonek" unicode="&#x12f;" horiz-adv-x="271" 
d="M125 599q-34 0 -57.5 23.5t-23.5 57.5t23.5 58t57.5 24q33 0 57 -24t24 -58t-24 -57.5t-57 -23.5zM40 500h161v-500h-59q-38 -19 -52.5 -41t-14.5 -45q0 -22 10 -29.5t21 -7.5q15 0 24 8.5t14 21.5l61 -39q-16 -26 -40 -40t-59 -14q-21 0 -40 5t-33.5 16.5t-23.5 29
t-9 42.5q0 54 41 93h-1v500z" />
    <glyph glyph-name="Idotaccent" unicode="&#x130;" horiz-adv-x="284" 
d="M134 799q-34 0 -58 23.5t-24 57.5t24 58t58 24q33 0 56.5 -24t23.5 -58t-23.5 -57.5t-56.5 -23.5zM42 700h170v-700h-170v700z" />
    <glyph glyph-name="dotlessi" unicode="&#x131;" horiz-adv-x="271" 
d="M40 500h161v-500h-161v500z" />
    <glyph glyph-name="uni0136" unicode="&#x136;" horiz-adv-x="706" 
d="M463 0l-187 246l-64 -80v-166h-170v700h170v-263l214 263h216l-256 -318l289 -382h-212zM247 -77h168v-171l-104 -130l-48 40l39 90h-55v171z" />
    <glyph glyph-name="uni0137" unicode="&#x137;" horiz-adv-x="596" 
d="M26 700h161v-366l145 166h224l-200 -219l207 -281h-200l-117 160l-59 -64v-96h-161v700zM52 -80h168v-170l-104 -130l-48 39l39 91h-55v170z" />
    <glyph glyph-name="Lacute" unicode="&#x139;" horiz-adv-x="527" 
d="M196 976h168l-130 -144h-163zM42 700h170v-539h272v-161h-442v700z" />
    <glyph glyph-name="lacute" unicode="&#x13a;" horiz-adv-x="303" 
d="M182 976h168l-130 -144h-163zM252 0q-23 -3 -43.5 -5t-39.5 -2q-34 0 -60.5 8t-45 27.5t-28 52.5t-9.5 83v536h161v-524q0 -22 14 -27.5t51 -0.5v-148z" />
    <glyph glyph-name="uni013B" unicode="&#x13b;" horiz-adv-x="527" 
d="M42 700h170v-539h272v-161h-442v700zM182 -77h168v-171l-105 -130l-47 40l39 90h-55v171z" />
    <glyph glyph-name="uni013C" unicode="&#x13c;" horiz-adv-x="303" 
d="M252 0q-23 -3 -43.5 -5t-39.5 -2q-34 0 -60.5 8t-45 27.5t-28 52.5t-9.5 83v536h161v-524q0 -22 14 -27.5t51 -0.5v-148zM50 -77h167v-171l-104 -130l-47 40l39 90h-55v171z" />
    <glyph glyph-name="Lcaron" unicode="&#x13d;" horiz-adv-x="527" 
d="M51 826l-93 144h96l67 -79l64 79h96l-89 -144h-141zM42 700h170v-539h272v-161h-442v700z" />
    <glyph glyph-name="lcaron" unicode="&#x13e;" horiz-adv-x="303" 
d="M37 826l-93 144h96l67 -79l65 79h95l-89 -144h-141zM252 0q-23 -3 -43.5 -5t-39.5 -2q-34 0 -60.5 8t-45 27.5t-28 52.5t-9.5 83v536h161v-524q0 -22 14 -27.5t51 -0.5v-148z" />
    <glyph glyph-name="Lslash" unicode="&#x141;" horiz-adv-x="527" 
d="M42 203l-48 -39l-109 110l157 127v299h170v-161l65 53l109 -110l-174 -141v-180h272v-161h-442v203z" />
    <glyph glyph-name="lslash" unicode="&#x142;" horiz-adv-x="303" 
d="M252 0q-23 -3 -43.5 -5t-39.5 -2q-34 0 -60.5 8t-45 27.5t-28 52.5t-9.5 83v59l-59 -47l-109 109l168 136v279h161v-148l63 51l109 -109l-172 -140v-178q0 -22 14 -27.5t51 -0.5v-148z" />
    <glyph glyph-name="Nacute" unicode="&#x143;" horiz-adv-x="683" 
d="M404 976h167l-130 -144h-162zM42 700h170l228 -356v356h171v-700h-143l-256 401v-401h-170v700z" />
    <glyph glyph-name="nacute" unicode="&#x144;" horiz-adv-x="551" 
d="M342 776h167l-130 -144h-162zM495 0h-161v299q0 21 -7 35.5t-17.5 23.5t-24 12.5t-27.5 3.5q-29 0 -50 -21t-21 -72v-281h-161v500h161v-28q23 19 51.5 30.5t60.5 11.5q27 0 61 -9t64 -32.5t50.5 -65.5t20.5 -108v-299z" />
    <glyph glyph-name="uni0145" unicode="&#x145;" horiz-adv-x="683" 
d="M42 700h170l228 -356v356h171v-700h-143l-256 401v-401h-170v700zM252 -77h167v-171l-104 -130l-47 40l39 90h-55v171z" />
    <glyph glyph-name="uni0146" unicode="&#x146;" horiz-adv-x="551" 
d="M495 0h-161v299q0 21 -7 35.5t-17.5 23.5t-24 12.5t-27.5 3.5q-29 0 -50 -21t-21 -72v-281h-161v500h161v-28q23 19 51.5 30.5t60.5 11.5q27 0 61 -9t64 -32.5t50.5 -65.5t20.5 -108v-299zM176 -77h167v-171l-104 -130l-47 40l39 90h-55v171z" />
    <glyph glyph-name="Ncaron" unicode="&#x147;" horiz-adv-x="683" 
d="M258 826l-92 144h95l68 -79l64 79h95l-89 -144h-141zM42 700h170l228 -356v356h171v-700h-143l-256 401v-401h-170v700z" />
    <glyph glyph-name="ncaron" unicode="&#x148;" horiz-adv-x="551" 
d="M196 626l-92 144h95l67 -79l65 79h95l-89 -144h-141zM495 0h-161v299q0 21 -7 35.5t-17.5 23.5t-24 12.5t-27.5 3.5q-29 0 -50 -21t-21 -72v-281h-161v500h161v-28q23 19 51.5 30.5t60.5 11.5q27 0 61 -9t64 -32.5t50.5 -65.5t20.5 -108v-299z" />
    <glyph glyph-name="Eng" unicode="&#x14a;" horiz-adv-x="683" 
d="M449 30l-237 371v-401h-170v700h170l228 -357v357h171v-700v-3q0 -51 -19 -91.5t-52 -67.5t-78.5 -39.5t-99.5 -8.5v156q45 -3 66 6.5t21 44.5v33z" />
    <glyph glyph-name="eng" unicode="&#x14b;" horiz-adv-x="551" 
d="M334 299q0 21 -7 35.5t-17.5 23.5t-24 12.5t-27.5 3.5q-29 0 -50 -21t-21 -72v-281h-161v500h161v-28q23 19 51.5 30.5t60.5 11.5q27 0 61 -9t64 -32.5t50.5 -65.5t20.5 -108v-306q0 -51 -18.5 -91t-51.5 -67t-78.5 -39.5t-99.5 -8.5v155q45 -3 66 6.5t21 44.5v306z" />
    <glyph glyph-name="Omacron" unicode="&#x14c;" horiz-adv-x="817" 
d="M206 818v88h363v-88h-363zM394 -14q-75 0 -140.5 28.5t-114.5 77.5t-77.5 114.5t-28.5 140.5t28.5 140.5t77.5 114.5t114.5 77.5t140.5 28.5t140.5 -28.5t114.5 -77.5t77.5 -114.5t28.5 -140.5t-28.5 -140.5t-77.5 -114.5t-114.5 -77.5t-140.5 -28.5zM394 157q39 0 74 15
t60.5 40.5t40.5 60.5t15 74t-15 74t-40.5 61t-60.5 41t-74 15t-74 -15t-61 -41t-41 -61t-15 -74t15 -74t41 -60.5t61 -40.5t74 -15z" />
    <glyph glyph-name="omacron" unicode="&#x14d;" horiz-adv-x="605" 
d="M100 623v88h363v-88h-363zM288 -15q-55 0 -103 20.5t-84 56.5t-57 84t-21 103t21 103t57 84t84 56.5t103 20.5q54 0 102 -20.5t84 -56.5t57 -84t21 -103t-21 -103t-57 -84t-84 -56.5t-102 -20.5zM287 146q21 0 40 8t33.5 22t22.5 33t8 40t-8 40t-22.5 33t-33.5 22t-40 8
t-40 -8t-33 -22t-22 -33t-8 -40t8 -40t22 -33t33 -22t40 -8z" />
    <glyph glyph-name="Ohungarumlaut" unicode="&#x150;" horiz-adv-x="817" 
d="M338 988h123l-115 -144h-91zM491 988h124l-115 -144h-91zM394 -14q-75 0 -140.5 28.5t-114.5 77.5t-77.5 114.5t-28.5 140.5t28.5 140.5t77.5 114.5t114.5 77.5t140.5 28.5t140.5 -28.5t114.5 -77.5t77.5 -114.5t28.5 -140.5t-28.5 -140.5t-77.5 -114.5t-114.5 -77.5
t-140.5 -28.5zM394 157q39 0 74 15t60.5 40.5t40.5 60.5t15 74t-15 74t-40.5 61t-60.5 41t-74 15t-74 -15t-61 -41t-41 -61t-15 -74t15 -74t41 -60.5t61 -40.5t74 -15z" />
    <glyph glyph-name="ohungarumlaut" unicode="&#x151;" horiz-adv-x="605" 
d="M232 793h123l-115 -144h-91zM385 793h124l-115 -144h-91zM288 -15q-55 0 -103 20.5t-84 56.5t-57 84t-21 103t21 103t57 84t84 56.5t103 20.5q54 0 102 -20.5t84 -56.5t57 -84t21 -103t-21 -103t-57 -84t-84 -56.5t-102 -20.5zM287 146q21 0 40 8t33.5 22t22.5 33t8 40
t-8 40t-22.5 33t-33.5 22t-40 8t-40 -8t-33 -22t-22 -33t-8 -40t8 -40t22 -33t33 -22t40 -8z" />
    <glyph glyph-name="OE" unicode="&#x152;" horiz-adv-x="1022" 
d="M364 -14q-75 0 -136 28.5t-104.5 77.5t-67 114.5t-23.5 140.5t23.5 140.5t67 114.5t104.5 77.5t136 28.5q45 0 85.5 -10.5t75.5 -30.5v33h439v-161h-269v-101h244v-161h-244v-116h274v-161h-444v28q-35 -20 -75.5 -31t-85.5 -11zM364 157q39 0 69 15t50.5 40.5t30.5 60.5
t10 74t-10 74t-30.5 61t-50.5 41t-69 15t-69.5 -15t-50.5 -41t-30.5 -61t-10.5 -74t10.5 -74t30.5 -60.5t50.5 -40.5t69.5 -15z" />
    <glyph glyph-name="oe" unicode="&#x153;" horiz-adv-x="932" 
d="M648 514q55 0 98 -20.5t73 -56t45.5 -83.5t15.5 -104q0 -28 -5 -56h-328q17 -37 46 -54t68 -17q26 0 49.5 10t39.5 30l114 -72q-36 -51 -85 -78t-121 -27q-66 0 -113.5 22t-77.5 60q-32 -36 -76 -59.5t-98 -23.5q-60 0 -109.5 20t-85 55t-55.5 83.5t-20 105.5t20 106
t55.5 84t85 55t109.5 20q54 0 98 -23t76 -60q29 38 74 60.5t107 22.5zM746 317q-6 29 -34.5 43.5t-66.5 14.5q-40 0 -69.5 -16.5t-30.5 -41.5h201zM292 135q25 0 46.5 8.5t37 24t24.5 37t9 46.5q0 51 -33.5 81.5t-83.5 30.5q-22 0 -42.5 -9t-35.5 -24.5t-24 -36.5t-9 -44
q0 -24 9 -44.5t24 -36t35.5 -24.5t42.5 -9z" />
    <glyph glyph-name="Racute" unicode="&#x154;" horiz-adv-x="657" 
d="M359 976h168l-130 -144h-163zM38 700h295q50 0 93 -18.5t75.5 -50.5t51 -75t18.5 -93q0 -63 -29.5 -115t-78.5 -84l148 -264h-196l-125 225h-82v-225h-170v700zM333 387q32 0 54.5 22t22.5 54t-22.5 54t-54.5 22h-125v-152h125z" />
    <glyph glyph-name="racute" unicode="&#x155;" horiz-adv-x="393" 
d="M268 776h167l-130 -144h-162zM345 347q-11 4 -25 4q-31 0 -55.5 -9t-42 -24.5t-27 -36.5t-9.5 -45v-236h-161v500h161v-89q17 35 55.5 62t99.5 27h14z" />
    <glyph glyph-name="uni0156" unicode="&#x156;" horiz-adv-x="657" 
d="M38 700h295q50 0 93 -18.5t75.5 -50.5t51 -75t18.5 -93q0 -63 -29.5 -115t-78.5 -84l148 -264h-196l-125 225h-82v-225h-170v700zM333 387q32 0 54.5 22t22.5 54t-22.5 54t-54.5 22h-125v-152h125zM219 -77h168v-171l-104 -130l-48 40l39 90h-55v171z" />
    <glyph glyph-name="uni0157" unicode="&#x157;" horiz-adv-x="393" 
d="M345 347q-11 4 -25 4q-31 0 -55.5 -9t-42 -24.5t-27 -36.5t-9.5 -45v-236h-161v500h161v-89q17 35 55.5 62t99.5 27h14zM20 -77h168v-171l-104 -130l-48 40l39 90h-55v171z" />
    <glyph glyph-name="Rcaron" unicode="&#x158;" horiz-adv-x="657" 
d="M214 826l-93 144h96l67 -79l65 79h95l-89 -144h-141zM38 700h295q50 0 93 -18.5t75.5 -50.5t51 -75t18.5 -93q0 -63 -29.5 -115t-78.5 -84l148 -264h-196l-125 225h-82v-225h-170v700zM333 387q32 0 54.5 22t22.5 54t-22.5 54t-54.5 22h-125v-152h125z" />
    <glyph glyph-name="rcaron" unicode="&#x159;" horiz-adv-x="393" 
d="M122 626l-92 144h95l68 -79l64 79h95l-89 -144h-141zM345 347q-11 4 -25 4q-31 0 -55.5 -9t-42 -24.5t-27 -36.5t-9.5 -45v-236h-161v500h161v-89q17 35 55.5 62t99.5 27h14z" />
    <glyph glyph-name="Sacute" unicode="&#x15a;" horiz-adv-x="664" 
d="M383 990h168l-130 -144h-163zM329 -14q-62 0 -112.5 12.5t-90 35t-67.5 54.5t-45 70l165 84q22 -46 58 -67.5t96 -21.5q23 0 43 5.5t34 13.5t22 18t8 19q0 15 -8 24.5t-26 17.5t-48 16t-75 19t-87.5 28t-75 42.5t-52.5 61.5t-20 86t22 89t58.5 66t84 41t98.5 14
q97 0 170.5 -41t115.5 -116l-168 -85q-21 40 -49.5 56.5t-68.5 16.5q-36 0 -61 -13t-25 -32q0 -13 6 -21.5t21.5 -15.5t42.5 -14.5t69 -18.5q46 -12 91.5 -29t82 -42.5t59 -63t22.5 -91.5q0 -50 -22.5 -90t-61.5 -68.5t-92 -44t-114 -15.5z" />
    <glyph glyph-name="sacute" unicode="&#x15b;" horiz-adv-x="531" 
d="M324 790h167l-130 -144h-162zM200 356q0 -15 20.5 -21.5t51.5 -12.5t67 -14t67 -26t51.5 -49t20.5 -82q0 -42 -19.5 -73t-51.5 -51.5t-73.5 -30.5t-85.5 -10q-81 0 -140 29.5t-89 88.5l131 68q12 -32 37 -45t61 -13q13 0 26.5 2t24 6.5t17 11t6.5 16.5q0 16 -21 24
t-52.5 15t-68.5 16t-68.5 26t-52.5 45.5t-21 74.5q0 39 17.5 69.5t47 51.5t68 31.5t80.5 10.5q66 0 121 -27t87 -79l-131 -65q-12 22 -29.5 33t-47.5 11q-23 0 -37 -8t-14 -23z" />
    <glyph glyph-name="Scedilla" unicode="&#x15e;" horiz-adv-x="664" 
d="M330 -212q-38 0 -68 9.5t-47 23.5l29 60q39 -30 82 -30q17 0 31 6.5t14 20.5q0 20 -23 20q-18 0 -29 -13l-54 32l26 71q-108 7 -177.5 53t-99.5 117l165 84q22 -46 58 -67.5t96 -21.5q23 0 43 5.5t34 13.5t22 18t8 19q0 15 -8 24.5t-26 17.5t-48 16t-75 19t-87.5 28
t-75 42.5t-52.5 61.5t-20 86t22 89t58.5 66t84 41t98.5 14q97 0 170.5 -41t115.5 -116l-168 -85q-21 40 -49.5 56.5t-68.5 16.5q-36 0 -61 -13t-25 -32q0 -13 6 -21.5t21.5 -15.5t42.5 -14.5t69 -18.5q46 -12 91.5 -29t82 -42.5t59 -63t22.5 -91.5q0 -46 -19.5 -84
t-53.5 -66t-80.5 -45t-100.5 -21l-21 -50q15 9 34 9q28 0 48 -20t20 -52q0 -21 -9.5 -37t-25 -27t-36.5 -17t-45 -6z" />
    <glyph glyph-name="scedilla" unicode="&#x15f;" horiz-adv-x="531" 
d="M200 356q0 -15 20.5 -21.5t51.5 -12.5t67 -14t67 -26t51.5 -49t20.5 -82q0 -37 -16 -66t-42.5 -49t-61.5 -32t-74 -16l-21 -50q15 9 34 9q28 0 48 -20t20 -52q0 -21 -9 -37t-25 -27t-36.5 -17t-44.5 -6q-39 0 -69 9.5t-47 23.5l29 60q39 -30 82 -30q17 0 31.5 6.5
t14.5 20.5q0 20 -24 20q-18 0 -28 -13l-55 32l27 71q-67 6 -116 35t-76 81l131 68q12 -32 37 -45t61 -13q13 0 26.5 2t24 6.5t17 11t6.5 16.5q0 16 -21 24t-52.5 15t-68.5 16t-68.5 26t-52.5 45.5t-21 74.5q0 39 17.5 69.5t47 51.5t68 31.5t80.5 10.5q66 0 121 -27t87 -79
l-131 -65q-12 22 -29.5 33t-47.5 11q-23 0 -37 -8t-14 -23z" />
    <glyph glyph-name="Scaron" unicode="&#x160;" horiz-adv-x="664" 
d="M237 840l-92 144h96l67 -79l64 79h96l-90 -144h-141zM329 -14q-62 0 -112.5 12.5t-90 35t-67.5 54.5t-45 70l165 84q22 -46 58 -67.5t96 -21.5q23 0 43 5.5t34 13.5t22 18t8 19q0 15 -8 24.5t-26 17.5t-48 16t-75 19t-87.5 28t-75 42.5t-52.5 61.5t-20 86t22 89t58.5 66
t84 41t98.5 14q97 0 170.5 -41t115.5 -116l-168 -85q-21 40 -49.5 56.5t-68.5 16.5q-36 0 -61 -13t-25 -32q0 -13 6 -21.5t21.5 -15.5t42.5 -14.5t69 -18.5q46 -12 91.5 -29t82 -42.5t59 -63t22.5 -91.5q0 -50 -22.5 -90t-61.5 -68.5t-92 -44t-114 -15.5z" />
    <glyph glyph-name="scaron" unicode="&#x161;" horiz-adv-x="531" 
d="M178 640l-92 144h95l68 -79l64 79h95l-89 -144h-141zM200 356q0 -15 20.5 -21.5t51.5 -12.5t67 -14t67 -26t51.5 -49t20.5 -82q0 -42 -19.5 -73t-51.5 -51.5t-73.5 -30.5t-85.5 -10q-81 0 -140 29.5t-89 88.5l131 68q12 -32 37 -45t61 -13q13 0 26.5 2t24 6.5t17 11
t6.5 16.5q0 16 -21 24t-52.5 15t-68.5 16t-68.5 26t-52.5 45.5t-21 74.5q0 39 17.5 69.5t47 51.5t68 31.5t80.5 10.5q66 0 121 -27t87 -79l-131 -65q-12 22 -29.5 33t-47.5 11q-23 0 -37 -8t-14 -23z" />
    <glyph glyph-name="uni0162" unicode="&#x162;" horiz-adv-x="569" 
d="M184 539h-176v161h524v-161h-178v-539h-48l-21 -48q15 9 35 9q27 0 47.5 -20t20.5 -52q0 -21 -9.5 -37t-25 -27t-36.5 -17t-45 -6q-38 0 -68.5 9.5t-47.5 23.5l29 59q20 -14 40.5 -22t42.5 -8q17 0 31 7t14 21q0 20 -24 20q-17 0 -28 -13l-54 31l26 70h-49v539z" />
    <glyph glyph-name="uni0163" unicode="&#x163;" horiz-adv-x="402" 
d="M349 0q-23 -2 -43 -3.5t-39 -1.5l-19 -43q15 9 35 9q27 0 47 -20t20 -52q0 -21 -9 -37t-25 -27t-36.5 -17t-44.5 -6q-38 0 -68.5 9.5t-47.5 23.5l29 59q19 -14 40 -22t43 -8q17 0 31 7t14 21q0 20 -24 20q-17 0 -28 -13l-54 31l26 71q-52 11 -81 50t-29 123v182h-78v144
h78v109l162 54v-163h99v-144h-99v-170q0 -16 7 -24.5t20 -12.5t32 -3.5t42 2.5v-148z" />
    <glyph glyph-name="Tcaron" unicode="&#x164;" horiz-adv-x="569" 
d="M198 826l-92 144h95l68 -79l64 79h95l-89 -144h-141zM184 539h-176v161h524v-161h-178v-539h-170v539z" />
    <glyph glyph-name="tcaron" unicode="&#x165;" horiz-adv-x="402" 
d="M100 761l-92 144h95l67 -79l65 79h95l-89 -144h-141zM349 0q-24 -2 -45.5 -3.5t-41.5 -1.5q-41 0 -73.5 7.5t-55.5 28t-35 55t-12 88.5v182h-78v144h78v109l162 54v-163h99v-144h-99v-170q0 -16 7 -24.5t20 -12.5t32 -3.5t42 2.5v-148z" />
    <glyph glyph-name="Tbar" unicode="&#x166;" horiz-adv-x="569" 
d="M184 235h-107v158h107v146h-176v161h524v-161h-178v-146h103v-158h-103v-235h-170v235z" />
    <glyph glyph-name="tbar" unicode="&#x167;" horiz-adv-x="402" 
d="M349 0q-24 -2 -45.5 -3.5t-41.5 -1.5q-41 0 -73.5 7.5t-55.5 28t-35 55t-12 88.5v37h-102v157h24v132h78v109l162 54v-163h99v-132h17v-157h-116v-25q0 -16 7 -24.5t20 -12.5t32 -3.5t42 2.5v-148z" />
    <glyph glyph-name="Umacron" unicode="&#x16a;" horiz-adv-x="658" 
d="M126 810v88h363v-88h-363zM36 700h171v-464q0 -20 9.5 -35t25 -25t34.5 -15t38 -5q22 0 41.5 5t34.5 15t23.5 25t8.5 35v464h170v-464q0 -56 -22 -102t-59.5 -79t-88 -51t-108.5 -18t-108.5 18t-88 51t-59.5 79t-22 102v464z" />
    <glyph glyph-name="umacron" unicode="&#x16b;" horiz-adv-x="559" 
d="M86 610v88h363v-88h-363zM34 500h162v-299q0 -21 7 -35.5t17.5 -23.5t24.5 -12.5t27 -3.5q29 0 50 21t21 72v281h161v-500h-161v28q-23 -19 -51.5 -30.5t-60.5 -11.5q-27 0 -61 9t-64.5 32.5t-51 65.5t-20.5 108v299z" />
    <glyph glyph-name="Uring" unicode="&#x16e;" horiz-adv-x="658" 
d="M315 790q-22 0 -42 9t-35 24t-24 35t-9 42q0 23 9 43t24 35t35 23.5t42 8.5t41.5 -8.5t34 -23.5t23 -35t8.5 -43q0 -22 -8.5 -42t-23 -35t-34 -24t-41.5 -9zM315 861q16 0 27 11.5t11 27.5q0 17 -11 28t-27 11q-17 0 -28.5 -11.5t-11.5 -27.5t11.5 -27.5t28.5 -11.5z
M36 700h171v-464q0 -20 9.5 -35t25 -25t34.5 -15t38 -5q22 0 41.5 5t34.5 15t23.5 25t8.5 35v464h170v-464q0 -56 -22 -102t-59.5 -79t-88 -51t-108.5 -18t-108.5 18t-88 51t-59.5 79t-22 102v464z" />
    <glyph glyph-name="uring" unicode="&#x16f;" horiz-adv-x="559" 
d="M274 590q-22 0 -42 9t-35 24t-23.5 35t-8.5 42q0 23 8.5 43t23.5 35t35 23.5t42 8.5q23 0 42.5 -8.5t34 -23.5t23 -35t8.5 -43q0 -22 -8.5 -42t-23 -35t-34 -24t-42.5 -9zM274 661q17 0 28 11.5t11 27.5q0 17 -11 28t-28 11q-16 0 -27.5 -11.5t-11.5 -27.5t11.5 -27.5
t27.5 -11.5zM34 500h162v-299q0 -21 7 -35.5t17.5 -23.5t24.5 -12.5t27 -3.5q29 0 50 21t21 72v281h161v-500h-161v28q-23 -19 -51.5 -30.5t-60.5 -11.5q-27 0 -61 9t-64.5 32.5t-51 65.5t-20.5 108v299z" />
    <glyph glyph-name="Uhungarumlaut" unicode="&#x170;" horiz-adv-x="658" 
d="M258 980h123l-115 -144h-90zM412 980h123l-115 -144h-91zM36 700h171v-464q0 -20 9.5 -35t25 -25t34.5 -15t38 -5q22 0 41.5 5t34.5 15t23.5 25t8.5 35v464h170v-464q0 -56 -22 -102t-59.5 -79t-88 -51t-108.5 -18t-108.5 18t-88 51t-59.5 79t-22 102v464z" />
    <glyph glyph-name="uhungarumlaut" unicode="&#x171;" horiz-adv-x="559" 
d="M218 780h123l-115 -144h-91zM371 780h124l-115 -144h-91zM34 500h162v-299q0 -21 7 -35.5t17.5 -23.5t24.5 -12.5t27 -3.5q29 0 50 21t21 72v281h161v-500h-161v28q-23 -19 -51.5 -30.5t-60.5 -11.5q-27 0 -61 9t-64.5 32.5t-51 65.5t-20.5 108v299z" />
    <glyph glyph-name="Uogonek" unicode="&#x172;" horiz-adv-x="658" 
d="M36 700h171v-464q0 -20 9.5 -35t25 -25t34.5 -15t38 -5q22 0 41.5 5t34.5 15t23.5 25t8.5 35v464h170v-464q0 -51 -18 -93.5t-49.5 -74.5t-74 -52.5t-92.5 -26.5q-32 -18 -45 -38.5t-13 -42.5q0 -21 10.5 -29t21.5 -8q14 0 23.5 8.5t14.5 21.5l61 -39q-16 -26 -40.5 -40
t-58.5 -14q-21 0 -40 5t-34 16.5t-23.5 29t-8.5 42.5q0 52 37 89q-49 7 -90.5 28t-72 52.5t-47.5 73.5t-17 92v464z" />
    <glyph glyph-name="uogonek" unicode="&#x173;" horiz-adv-x="559" 
d="M34 500h162v-299q0 -21 7 -35.5t17.5 -23.5t24.5 -12.5t27 -3.5q29 0 50 21t21 72v281h161v-500h-161v28q-16 -13 -33.5 -22.5t-37.5 -14.5q-27 -17 -38.5 -36.5t-11.5 -39.5q0 -22 10.5 -29.5t21.5 -7.5q15 0 24 8.5t14 21.5l61 -39q-16 -26 -40 -40t-59 -14
q-21 0 -40 5t-33.5 16.5t-23.5 29t-9 42.5q0 46 33 84q-26 6 -52 20t-47 38.5t-34.5 61.5t-13.5 89v299z" />
    <glyph glyph-name="Wcircumflex" unicode="&#x174;" horiz-adv-x="1024" 
d="M567 827l-67 79l-65 -79h-95l89 144h141l93 -144h-96zM4 700h176l109 -422l120 422h176l120 -422l109 422h176l-190 -700h-181l-122 407l-122 -407h-181z" />
    <glyph glyph-name="wcircumflex" unicode="&#x175;" horiz-adv-x="818" 
d="M456 627l-67 79l-64 -79h-96l90 144h141l92 -144h-96zM4 500h169l69 -232l66 232h170l67 -234l70 234h169l-162 -500h-157l-72 231l-72 -231h-156z" />
    <glyph glyph-name="Ycircumflex" unicode="&#x176;" horiz-adv-x="703" 
d="M410 827l-67 79l-64 -79h-96l89 144h141l93 -144h-96zM251 236l-250 464h193l143 -263l142 263h193l-250 -464v-236h-171v236z" />
    <glyph glyph-name="ycircumflex" unicode="&#x177;" horiz-adv-x="578" 
d="M354 627l-67 79l-65 -79h-95l89 144h141l92 -144h-95zM176 500l116 -257l86 257h169l-161 -484q-43 -115 -118 -169.5t-181 -46.5v156q50 -6 80 14.5t47 53.5l-212 476h174z" />
    <glyph glyph-name="Ydieresis" unicode="&#x178;" horiz-adv-x="703" 
d="M533 898q0 -35 -23.5 -58t-58.5 -23q-34 0 -57.5 23t-23.5 58t23.5 58t57.5 23q35 0 58.5 -23t23.5 -58zM318 898q0 -35 -23.5 -58t-57.5 -23q-35 0 -58.5 23t-23.5 58t23.5 58t58.5 23q34 0 57.5 -23t23.5 -58zM251 236l-250 464h193l143 -263l142 263h193l-250 -464
v-236h-171v236z" />
    <glyph glyph-name="Zacute" unicode="&#x179;" horiz-adv-x="567" 
d="M343 976h167l-130 -144h-162zM296 539h-259v161h472v-124l-259 -415h260v-161h-474v124z" />
    <glyph glyph-name="zacute" unicode="&#x17a;" horiz-adv-x="478" 
d="M303 776h167l-130 -144h-162zM414 500v-104l-170 -243h180v-153h-400v104l175 244h-165v152h380z" />
    <glyph glyph-name="Zdotaccent" unicode="&#x17b;" horiz-adv-x="567" 
d="M274 799q-34 0 -58 23.5t-24 57.5t24 58t58 24q33 0 57 -24t24 -58t-24 -57.5t-57 -23.5zM296 539h-259v161h472v-124l-259 -415h260v-161h-474v124z" />
    <glyph glyph-name="zdotaccent" unicode="&#x17c;" horiz-adv-x="478" 
d="M234 599q-33 0 -57 23.5t-24 57.5t24 58t57 24t57 -24t24 -58t-24 -57.5t-57 -23.5zM414 500v-104l-170 -243h180v-153h-400v104l175 244h-165v152h380z" />
    <glyph glyph-name="Zcaron" unicode="&#x17d;" horiz-adv-x="567" 
d="M197 826l-92 144h95l67 -79l65 79h95l-89 -144h-141zM296 539h-259v161h472v-124l-259 -415h260v-161h-474v124z" />
    <glyph glyph-name="zcaron" unicode="&#x17e;" horiz-adv-x="478" 
d="M157 626l-92 144h95l68 -79l64 79h96l-90 -144h-141zM414 500v-104l-170 -243h180v-153h-400v104l175 244h-165v152h380z" />
    <glyph glyph-name="florin" unicode="&#x192;" horiz-adv-x="469" 
d="M268 229l-87 -390h-185l87 390h-45v140h75l31 141q8 37 28 67.5t48.5 52.5t63.5 34.5t74 12.5t73 -10.5t59 -36.5l-65 -131q-15 20 -44 20q-20 0 -37 -12.5t-23 -38.5l-23 -99h97v-140h-127z" />
    <glyph glyph-name="uni0218" unicode="&#x218;" horiz-adv-x="664" 
d="M329 -14q-62 0 -112.5 12.5t-90 35t-67.5 54.5t-45 70l165 84q22 -46 58 -67.5t96 -21.5q23 0 43 5.5t34 13.5t22 18t8 19q0 15 -8 24.5t-26 17.5t-48 16t-75 19t-87.5 28t-75 42.5t-52.5 61.5t-20 86t22 89t58.5 66t84 41t98.5 14q97 0 170.5 -41t115.5 -116l-168 -85
q-21 40 -49.5 56.5t-68.5 16.5q-36 0 -61 -13t-25 -32q0 -13 6 -21.5t21.5 -15.5t42.5 -14.5t69 -18.5q46 -12 91.5 -29t82 -42.5t59 -63t22.5 -91.5q0 -50 -22.5 -90t-61.5 -68.5t-92 -44t-114 -15.5zM240 -91h168v-170l-105 -130l-47 39l39 91h-55v170z" />
    <glyph glyph-name="uni0219" unicode="&#x219;" horiz-adv-x="531" 
d="M200 356q0 -15 20.5 -21.5t51.5 -12.5t67 -14t67 -26t51.5 -49t20.5 -82q0 -42 -19.5 -73t-51.5 -51.5t-73.5 -30.5t-85.5 -10q-81 0 -140 29.5t-89 88.5l131 68q12 -32 37 -45t61 -13q13 0 26.5 2t24 6.5t17 11t6.5 16.5q0 16 -21 24t-52.5 15t-68.5 16t-68.5 26
t-52.5 45.5t-21 74.5q0 39 17.5 69.5t47 51.5t68 31.5t80.5 10.5q66 0 121 -27t87 -79l-131 -65q-12 22 -29.5 33t-47.5 11q-23 0 -37 -8t-14 -23zM159 -91h168v-170l-104 -130l-48 39l39 91h-55v170z" />
    <glyph glyph-name="uni021A" unicode="&#x21a;" horiz-adv-x="569" 
d="M184 539h-176v161h524v-161h-178v-539h-170v539zM182 -77h167v-171l-104 -130l-47 40l39 90h-55v171z" />
    <glyph glyph-name="uni021B" unicode="&#x21b;" horiz-adv-x="402" 
d="M349 0q-24 -2 -45.5 -3.5t-41.5 -1.5q-41 0 -73.5 7.5t-55.5 28t-35 55t-12 88.5v182h-78v144h78v109l162 54v-163h99v-144h-99v-170q0 -16 7 -24.5t20 -12.5t32 -3.5t42 2.5v-148zM145 -77h167v-171l-104 -130l-47 40l39 90h-55v171z" />
    <glyph glyph-name="uni02BC" unicode="&#x2bc;" 
 />
    <glyph glyph-name="circumflex" unicode="&#x2c6;" horiz-adv-x="323" 
d="M227 556l-67 79l-65 -79h-95l89 144h141l93 -144h-96z" />
    <glyph glyph-name="caron" unicode="&#x2c7;" horiz-adv-x="323" 
d="M92 626l-92 144h95l68 -79l64 79h96l-90 -144h-141z" />
    <glyph glyph-name="breve" unicode="&#x2d8;" horiz-adv-x="351" 
d="M351 636q-30 -41 -75.5 -64.5t-99.5 -23.5t-99 23.5t-77 64.5l69 57q18 -26 45 -41t62 -15q67 0 107 56z" />
    <glyph glyph-name="dotaccent" unicode="&#x2d9;" horiz-adv-x="215" 
d="M108 535q-34 0 -58 23.5t-24 57.5t24 58t58 24q33 0 56.5 -24t23.5 -58t-23.5 -57.5t-56.5 -23.5z" />
    <glyph glyph-name="ring" unicode="&#x2da;" horiz-adv-x="217" 
d="M110 543q-22 0 -42 8.5t-35 23.5t-24 35t-9 42q0 23 9 43t24 35t35 23.5t42 8.5t41.5 -8.5t34 -23.5t23 -35t8.5 -43q0 -22 -8.5 -42t-22.5 -35t-33.5 -23.5t-42.5 -8.5zM110 613q16 0 27 11.5t11 27.5q0 17 -11 28t-27 11q-17 0 -28.5 -11.5t-11.5 -27.5t11.5 -27.5
t28.5 -11.5z" />
    <glyph glyph-name="ogonek" unicode="&#x2db;" horiz-adv-x="205" 
d="M142 0q-38 -19 -52.5 -41t-14.5 -45q0 -22 10 -29.5t21 -7.5q15 0 24 8.5t14 21.5l61 -39q-16 -26 -40 -40t-59 -14q-21 0 -40 5t-33.5 16.5t-23.5 29t-9 42.5q0 40 23 72t66 56z" />
    <glyph glyph-name="tilde" unicode="&#x2dc;" horiz-adv-x="336" 
d="M222 554q-24 0 -40 8t-28 18t-22 18t-22 8t-20.5 -11.5t-8.5 -34.5h-81q0 68 29 101t85 33q24 0 40 -8t28.5 -18l22.5 -18t22 -8q11 0 19.5 11.5t8.5 34.5h81q0 -68 -29 -101t-85 -33z" />
    <glyph glyph-name="hungarumlaut" unicode="&#x2dd;" horiz-adv-x="359" 
d="M83 700h123l-115 -144h-91zM236 700h123l-115 -144h-90z" />
    <glyph glyph-name="gravecomb" unicode="&#x300;" horiz-adv-x="266" 
d="M159 777l125 -144h-163l-130 144h168z" />
    <glyph glyph-name="acutecomb" unicode="&#x301;" horiz-adv-x="266" 
d="M116 776h168l-130 -144h-163z" />
    <glyph glyph-name="uni0302" unicode="&#x302;" horiz-adv-x="323" 
d="M227 627l-67 79l-65 -79h-95l89 144h141l93 -144h-96z" />
    <glyph glyph-name="tildecomb" unicode="&#x303;" horiz-adv-x="336" 
d="M222 640q-24 0 -40 8t-28 18t-22 18t-22 8t-20.5 -11.5t-8.5 -34.5h-81q0 68 29 101t85 33q24 0 40 -8t28.5 -17.5t22.5 -17.5t22 -8q11 0 19.5 11t8.5 34h81q0 -68 -29 -101t-85 -33z" />
    <glyph glyph-name="uni0304" unicode="&#x304;" horiz-adv-x="363" 
d="M0 610v88h363v-88h-363z" />
    <glyph glyph-name="uni0306" unicode="&#x306;" horiz-adv-x="351" 
d="M351 710q-30 -42 -75.5 -65t-99.5 -23t-99 23t-77 65l69 57q18 -26 45 -41.5t62 -15.5q67 0 107 57z" />
    <glyph glyph-name="uni0307" unicode="&#x307;" horiz-adv-x="215" 
d="M108 599q-34 0 -58 23.5t-24 57.5t24 58t58 24q33 0 56.5 -24t23.5 -58t-23.5 -57.5t-56.5 -23.5z" />
    <glyph glyph-name="uni0308" unicode="&#x308;" horiz-adv-x="310" 
d="M344 698q0 -35 -23.5 -58t-58.5 -23q-34 0 -57.5 23t-23.5 58t23.5 58t57.5 23q35 0 58.5 -23t23.5 -58zM129 698q0 -35 -23.5 -58t-57.5 -23q-35 0 -58.5 23t-23.5 58t23.5 58t58.5 23q34 0 57.5 -23t23.5 -58z" />
    <glyph glyph-name="uni030A" unicode="&#x30a;" horiz-adv-x="217" 
d="M110 590q-22 0 -42 9t-35 24t-24 35t-9 42q0 23 9 43t24 35t35 23.5t42 8.5t41.5 -8.5t34 -23.5t23 -35t8.5 -43q0 -22 -8.5 -42t-22.5 -35t-33.5 -24t-42.5 -9zM110 661q16 0 27 11.5t11 27.5q0 17 -11 28t-27 11q-17 0 -28.5 -11.5t-11.5 -27.5t11.5 -27.5t28.5 -11.5z
" />
    <glyph glyph-name="uni030B" unicode="&#x30b;" horiz-adv-x="359" 
d="M83 780h123l-115 -144h-91zM236 780h123l-115 -144h-90z" />
    <glyph glyph-name="uni030C" unicode="&#x30c;" horiz-adv-x="323" 
d="M92 626l-92 144h95l68 -79l64 79h96l-90 -144h-141z" />
    <glyph glyph-name="uni0312" unicode="&#x312;" 
d="M223 558h-167v171l104 130l47 -40l-39 -90h55v-171z" />
    <glyph glyph-name="uni0326" unicode="&#x326;" horiz-adv-x="272" 
d="M52 -80h168v-170l-104 -130l-48 39l39 91h-55v170z" />
    <glyph glyph-name="uni0327" unicode="&#x327;" horiz-adv-x="231" 
d="M116 -198q-38 0 -68.5 9.5t-47.5 23.5l29 59q19 -14 40 -22t42 -8q18 0 32 7t14 21q0 20 -24 20q-18 0 -28 -13l-55 31l31 81h73l-25 -59q15 9 35 9q27 0 47 -20t20 -52q0 -21 -9 -37t-25 -27t-36.5 -17t-44.5 -6z" />
    <glyph glyph-name="uni0328" unicode="&#x328;" horiz-adv-x="205" 
d="M142 0q-38 -19 -52.5 -41t-14.5 -45q0 -22 10 -29.5t21 -7.5q15 0 24 8.5t14 21.5l61 -39q-16 -26 -40 -40t-59 -14q-21 0 -40 5t-33.5 16.5t-23.5 29t-9 42.5q0 40 23 72t66 56z" />
    <glyph glyph-name="uni0335" unicode="&#x335;" 
d="M-2 253v158h380v-158h-380z" />
    <glyph glyph-name="uni0337" unicode="&#x337;" 
d="M55 216l392 318l109 -110l-392 -318z" />
    <glyph glyph-name="uni0338" unicode="&#x338;" 
d="M-88 -32l598 665l76 -71l-598 -666z" />
    <glyph glyph-name="tonos" unicode="&#x384;" horiz-adv-x="547" 
d="M395 765l-88 -190h-121l42 190h167z" />
    <glyph glyph-name="uni03BC" unicode="&#x3bc;" horiz-adv-x="598" 
d="M216 -184h-161v667h161v-277q0 -41 20 -58.5t57 -17.5q32 0 53 14.5t35 30.5v308h161v-401q0 -45 9 -80l-157 -3q-6 11 -9.5 25t-3.5 33q-26 -29 -69 -48t-96 -13v-180z" />
    <glyph glyph-name="pi" unicode="&#x3c0;" horiz-adv-x="681" 
d="M646 356h-78v-168q0 -31 27 -36.5t73 -0.5v-148q-46 -6 -86 -6q-41 0 -73.5 8t-55.5 28t-35 55t-12 89v179h-138v-356h-161v356h-86v144h625v-144z" />
    <glyph glyph-name="Wgrave" unicode="&#x1e80;" horiz-adv-x="1024" 
d="M436 986l125 -144h-163l-130 144h168zM4 700h176l109 -422l120 422h176l120 -422l109 422h176l-190 -700h-181l-122 407l-122 -407h-181z" />
    <glyph glyph-name="wgrave" unicode="&#x1e81;" horiz-adv-x="818" 
d="M325 786l125 -144h-163l-130 144h168zM4 500h169l69 -232l66 232h170l67 -234l70 234h169l-162 -500h-157l-72 231l-72 -231h-156z" />
    <glyph glyph-name="Wacute" unicode="&#x1e82;" horiz-adv-x="1024" 
d="M571 976h167l-130 -144h-162zM4 700h176l109 -422l120 422h176l120 -422l109 422h176l-190 -700h-181l-122 407l-122 -407h-181z" />
    <glyph glyph-name="wacute" unicode="&#x1e83;" horiz-adv-x="818" 
d="M460 776h167l-130 -144h-162zM4 500h169l69 -232l66 232h170l67 -234l70 234h169l-162 -500h-157l-72 231l-72 -231h-156z" />
    <glyph glyph-name="Wdieresis" unicode="&#x1e84;" horiz-adv-x="1024" 
d="M690 898q0 -35 -23.5 -58t-58.5 -23q-34 0 -57.5 23t-23.5 58t23.5 58t57.5 23q35 0 58.5 -23t23.5 -58zM475 898q0 -35 -23.5 -58t-57.5 -23q-35 0 -58.5 23t-23.5 58t23.5 58t58.5 23q34 0 57.5 -23t23.5 -58zM4 700h176l109 -422l120 422h176l120 -422l109 422h176
l-190 -700h-181l-122 407l-122 -407h-181z" />
    <glyph glyph-name="wdieresis" unicode="&#x1e85;" horiz-adv-x="818" 
d="M579 698q0 -35 -23.5 -58t-58.5 -23q-34 0 -57.5 23t-23.5 58t23.5 58t57.5 23q35 0 58.5 -23t23.5 -58zM364 698q0 -35 -23 -58t-58 -23t-58 23t-23 58t23 58t58 23t58 -23t23 -58zM4 500h169l69 -232l66 232h170l67 -234l70 234h169l-162 -500h-157l-72 231l-72 -231
h-156z" />
    <glyph glyph-name="Germandbls" unicode="&#x1e9e;" horiz-adv-x="663" 
d="M300 430h1l78 66q-14 53 -84 53q-39 0 -60.5 -17t-22.5 -49v-483h-170v483q2 54 21.5 96.5t54 71.5t83 44.5t109.5 15.5q54 0 99.5 -13.5t79 -39t55 -62.5t28.5 -83l-116 -102q152 -44 154 -192q5 -107 -68 -162.5t-220 -56.5h-61v161h61q59 1 89.5 15.5t30.5 42.5
q-1 29 -37 43.5t-105 14.5v153z" />
    <glyph glyph-name="Ygrave" unicode="&#x1ef2;" horiz-adv-x="703" 
d="M279 986l125 -144h-163l-130 144h168zM251 236l-250 464h193l143 -263l142 263h193l-250 -464v-236h-171v236z" />
    <glyph glyph-name="ygrave" unicode="&#x1ef3;" horiz-adv-x="578" 
d="M222 786l125 -144h-162l-130 144h167zM176 500l116 -257l86 257h169l-161 -484q-43 -115 -118 -169.5t-181 -46.5v156q50 -6 80 14.5t47 53.5l-212 476h174z" />
    <glyph glyph-name="uni2009" unicode="&#x2009;" horiz-adv-x="532" 
 />
    <glyph glyph-name="endash" unicode="&#x2013;" horiz-adv-x="593" 
d="M30 175v135h533v-135h-533z" />
    <glyph glyph-name="emdash" unicode="&#x2014;" horiz-adv-x="833" 
d="M30 175v135h773v-135h-773z" />
    <glyph glyph-name="quoteleft" unicode="&#x2018;" horiz-adv-x="270" 
d="M203 628l-39 -90q18 -6 28.5 -11.5t16.5 -14.5t7.5 -22.5t1.5 -34.5q0 -42 -22 -64t-63 -22t-64.5 23t-22.5 65q0 24 2.5 41t8 32t14.5 29.5t23 31.5l61 77z" />
    <glyph glyph-name="quoteright" unicode="&#x2019;" horiz-adv-x="270" 
d="M68 418l39 91q-18 5 -28.5 11t-16.5 15t-7.5 22.5t-1.5 34.5q0 42 21.5 64t63.5 22q41 0 64 -23t22 -65q0 -24 -2.5 -41.5t-8 -32.5t-14 -29.5t-22.5 -31.5l-62 -77z" />
    <glyph glyph-name="quotesinglbase" unicode="&#x201a;" horiz-adv-x="270" 
d="M68 -100l39 90q-18 6 -28.5 12t-16.5 15t-7.5 22.5t-1.5 34.5q0 42 21.5 64t63.5 22q41 0 63.5 -23t22.5 -65q0 -24 -2.5 -41.5t-8 -32.5t-14 -29.5t-22.5 -31.5l-62 -77z" />
    <glyph glyph-name="quotereversed" unicode="&#x201b;" horiz-adv-x="270" 
d="M203 418l-48 -40l-61 77q-14 17 -23 31.5t-14.5 29.5t-8 32.5t-2.5 41.5q-1 42 22.5 65t64.5 23t63 -22t22 -64q0 -21 -1.5 -34.5t-7.5 -22.5t-16.5 -15t-28.5 -11z" />
    <glyph glyph-name="quotedblleft" unicode="&#x201c;" horiz-adv-x="498" 
d="M417 629l-39 -91q18 -5 29 -11t17 -15t7.5 -22.5t1.5 -34.5q0 -42 -22 -64t-63 -22q-42 0 -65 23t-22 65q0 24 2.5 41.5t8 32.5t14.5 29.5t23 31.5l61 77zM211 629l-39 -91q18 -5 29 -11t17 -15t7.5 -22.5t1.5 -34.5q0 -42 -22 -64t-63 -22q-42 0 -65 23t-22 65
q0 24 2.5 41.5t8 32.5t14.5 29.5t23 31.5l61 77z" />
    <glyph glyph-name="quotedblright" unicode="&#x201d;" horiz-adv-x="499" 
d="M282 418l39 91q-18 5 -28.5 11t-16.5 15t-7.5 22.5t-1.5 34.5q0 42 21.5 64t63.5 22q41 0 64.5 -23t22.5 -65q0 -24 -2.5 -41.5t-8 -32.5t-14.5 -29.5t-23 -31.5l-62 -77zM75 418l39 91q-18 5 -28.5 11t-16.5 15t-7.5 22.5t-1.5 34.5q0 42 22 64t63 22t64.5 -23t22.5 -65
q0 -24 -2.5 -41.5t-8 -32.5t-14.5 -29.5t-23 -31.5l-61 -77z" />
    <glyph glyph-name="quotedblbase" unicode="&#x201e;" horiz-adv-x="503" 
d="M286 -97l39 91q-18 6 -29 12t-17 15t-7.5 22t-1.5 34q0 42 22 64t63 22q42 0 65 -23t22 -65q0 -24 -2.5 -41.5t-8 -32.5t-14 -29.5t-22.5 -31.5l-62 -77zM79 -97l39 91q-18 6 -28.5 12t-16.5 15t-7.5 22t-1.5 34q0 42 21.5 64t63.5 22q41 0 64 -23t23 -65
q0 -24 -2.5 -41.5t-8 -32.5t-14.5 -29.5t-23 -31.5l-62 -77z" />
    <glyph glyph-name="dagger" unicode="&#x2020;" horiz-adv-x="286" 
d="M268 591v-75l-89 4l4 -193h-81l5 193l-89 -4v75l89 -3l-5 89h81l-4 -89z" />
    <glyph glyph-name="daggerdbl" unicode="&#x2021;" horiz-adv-x="286" 
d="M179 588l89 3v-75l-89 4v-181l89 4v-75l-89 3l4 -91h-81l4 91l-88 -3v75l88 -4v181l-88 -4v75l88 -3l-4 89h81z" />
    <glyph glyph-name="bullet" unicode="&#x2022;" horiz-adv-x="358" 
d="M306 242q0 -26 -10 -48.5t-27 -39.5t-40 -27t-49 -10t-49 10t-40 27t-27 39.5t-10 48.5t10 49t27 40t40 27t49 10t49 -10t40 -27t27 -40t10 -49z" />
    <glyph glyph-name="ellipsis" unicode="&#x2026;" horiz-adv-x="818" 
d="M62 74q0 42 21.5 64t63.5 22q41 0 62.5 -22t21.5 -64t-21.5 -64t-62.5 -22q-85 0 -85 86zM324 74q0 42 22 64t63 22q42 0 63 -22t21 -64q0 -86 -84 -86q-41 0 -63 22t-22 64zM587 74q0 42 21.5 64t63.5 22q41 0 62.5 -22t21.5 -64t-21.5 -64t-62.5 -22q-85 0 -85 86z" />
    <glyph glyph-name="perthousand" unicode="&#x2030;" horiz-adv-x="1146" 
d="M374 509q0 -35 -12.5 -65.5t-36 -53t-56 -35.5t-72.5 -13t-72.5 13t-55 35.5t-35 53t-12.5 65.5t12.5 66t35 53.5t55 35.5t72.5 13t72.5 -13t56 -35.5t36 -53.5t12.5 -66zM220 0h-89l426 667h90zM263 509q0 42 -19 62t-47 20q-27 0 -45.5 -20t-18.5 -62t18.5 -61.5
t45.5 -19.5q28 0 47 19.5t19 61.5zM753 154q0 -35 -12.5 -65t-35.5 -52.5t-55.5 -35.5t-72.5 -13t-72.5 13t-55 35.5t-35 52.5t-12.5 65q0 36 12.5 66.5t35 53.5t55 36t72.5 13t72.5 -13t55.5 -36t35.5 -53.5t12.5 -66.5zM1124 154q0 -35 -12.5 -65t-35.5 -52.5t-55 -35.5
t-72 -13t-72.5 13t-55 35.5t-35 52.5t-12.5 65q0 36 12.5 66.5t35 53.5t55 36t72.5 13t72 -13t55 -36t35.5 -53.5t12.5 -66.5zM643 154q0 43 -19 63t-47 20t-46.5 -20t-18.5 -63q0 -41 18.5 -60.5t46.5 -19.5t47 19.5t19 60.5zM1014 154q0 43 -18.5 63t-46.5 20t-46.5 -20
t-18.5 -63q0 -41 18.5 -60.5t46.5 -19.5t46.5 19.5t18.5 60.5z" />
    <glyph glyph-name="guilsinglleft" unicode="&#x2039;" horiz-adv-x="365" 
d="M190 63l-160 180l160 177h145l-160 -177l160 -180h-145z" />
    <glyph glyph-name="guilsinglright" unicode="&#x203a;" horiz-adv-x="365" 
d="M175 63h-145l160 180l-160 177h145l160 -177z" />
    <glyph glyph-name="fraction" unicode="&#x2044;" horiz-adv-x="494" 
d="M0 0l401 700h93l-401 -700h-93z" />
    <glyph glyph-name="colonmonetary" unicode="&#x20a1;" horiz-adv-x="706" 
d="M398 -12q-5 0 -13.5 0.5t-19.5 1.5l-29 -90h-31l31 94q-23 4 -46 11t-45 18l-41 -123h-31l46 138q-72 45 -113 121.5t-41 173.5q0 75 25.5 138.5t70.5 109.5t106 71.5t131 25.5q6 0 15 -0.5t21 -1.5l31 92h31l-33 -97q46 -9 90 -34l44 131h31l-50 -147q26 -18 52 -48
l-25 -22q-9 11 -18.5 20t-19.5 17l-191 -569q5 -1 22 -1q63 0 117 26t90 71l26 -21q-94 -106 -233 -106zM100 333q0 -85 34.5 -153.5t95.5 -110.5l194 578q-4 1 -10.5 1h-15.5q-63 0 -117.5 -23t-94.5 -65t-63 -100t-23 -127zM256 53q38 -22 90 -31l196 584q-42 27 -88 36z
" />
    <glyph glyph-name="franc" unicode="&#x20a3;" horiz-adv-x="592" 
d="M66 667h494v-158h-313v-92h306v-158h-306v-80h124v-88h-124v-91h-181v91h-58v88h58v488z" />
    <glyph glyph-name="lira" unicode="&#x20a4;" horiz-adv-x="570" 
d="M410 414v-77h-125q5 -10 8 -20t5 -21h112v-77h-126q-12 -32 -39 -50q11 4 23 5t21 1q20 0 35 -4.5t28.5 -9.5t27 -9.5t29.5 -4.5q30 0 49.5 10.5t30.5 24.5l69 -143q-20 -22 -57.5 -36.5t-97.5 -14.5q-32 0 -57.5 6.5t-47 15t-40.5 15t-38 6.5q-26 0 -55 -10.5t-59 -27.5
l-60 120q18 9 34.5 20t29.5 24.5t21 29t8 32.5h-114v77h93q-5 10 -11 20t-14 21h-68v77h30q-12 24 -12 50q0 52 23.5 91.5t60.5 66.5t82.5 41t88.5 14q93 0 155 -30t97 -97l-144 -82q-11 32 -34.5 48t-51.5 16q-35 0 -57 -21t-22 -51q0 -23 12 -46h157z" />
    <glyph glyph-name="peseta" unicode="&#x20a7;" horiz-adv-x="702" 
d="M637 373q-6 -43 -24 -81t-47 -65.5t-69.5 -43.5t-90.5 -16h-159v-167h-181v373h-58v88h58v206h340q50 0 90.5 -16t69.5 -43.5t47 -65t24 -81.5h61v-88h-61zM247 461h201q-8 23 -25 35.5t-40 12.5h-136v-48zM383 325q49 0 66 48h-202v-48h136z" />
    <glyph glyph-name="uni20A8" unicode="&#x20a8;" horiz-adv-x="1106" 
d="M429 0l-106 220h-84v-220h-181v667h341q56 0 99.5 -17.5t73.5 -48t45.5 -71t15.5 -87.5q0 -43 -11.5 -76.5t-30.5 -58.5t-41.5 -41t-45.5 -24l131 -243h-206zM371 378q32 0 55 16.5t23 49.5q0 32 -23 48.5t-55 16.5h-132v-131h132zM863 -12q-33 0 -65.5 5.5t-62.5 15
t-56 23.5t-45 30l66 109q14 -12 35 -23t44 -20t47 -14t45 -5q33 0 46.5 9t13.5 23q0 15 -20.5 21.5t-51.5 12t-67 13t-67 24t-51.5 46t-20.5 78.5q0 32 13.5 61t40 51t65.5 34.5t90 12.5q60 0 111.5 -17t92.5 -46l-61 -105q-23 20 -61 36t-81 16q-25 0 -40.5 -8.5
t-15.5 -22.5q0 -13 20.5 -19t51.5 -11.5t67 -13.5t67 -25.5t51.5 -48t20.5 -79.5q0 -35 -15 -65t-43.5 -51.5t-69.5 -34t-94 -12.5z" />
    <glyph glyph-name="uni20AA" unicode="&#x20aa;" horiz-adv-x="860" 
d="M254 0v364h151v-226h160q28 0 45.5 6.5t27.5 19t13.5 31t3.5 43.5v312h151v-327q0 -51 -11 -92.5t-39 -70.5t-74 -44.5t-117 -15.5h-311zM366 550q70 0 116.5 -15.5t74 -44.5t38.5 -70.5t11 -92.5v-142h-151v127q0 25 -3.5 44t-13 31.5t-27 19t-45.5 6.5h-160v-413h-151
v550h311z" />
    <glyph glyph-name="Euro" unicode="&#x20ac;" horiz-adv-x="717" 
d="M411 -12q-62 0 -117.5 16.5t-100.5 47t-78 73.5t-50 97h-50v87h34q-1 6 -1 11.5v12.5v12.5t2 14.5h-35v87h51q18 53 50.5 95.5t77.5 72.5t100 46.5t117 16.5t109.5 -16t83.5 -42t60.5 -59t40.5 -66l-155 -73q-16 40 -53.5 68.5t-85.5 28.5q-45 0 -81.5 -19.5t-57.5 -52.5
h199v-87h-238q-1 -7 -1 -13v-14v-12t1 -12h238v-87h-202q23 -35 59 -54.5t83 -19.5q48 0 85.5 28.5t53.5 68.5l155 -73q-16 -33 -40.5 -65.5t-60.5 -59t-83.5 -43t-109.5 -16.5z" />
    <glyph glyph-name="uni2113" unicode="&#x2113;" horiz-adv-x="558" 
d="M217 220v-57q0 -21 10.5 -34.5t30.5 -13.5q23 0 39 11l30 -106q-18 -17 -49.5 -24.5t-66.5 -7.5q-71 0 -113.5 34t-42.5 111v343q0 44 18.5 80.5t52.5 63.5t80.5 42t102.5 15q45 0 86.5 -11t73.5 -31.5t51 -49.5t19 -64q0 -30 -14.5 -57t-38.5 -52t-54.5 -48t-63.5 -44z
M217 367l98 64q38 26 55 42.5t17 38.5q0 26 -25 40.5t-57 14.5q-42 0 -65 -24.5t-23 -67.5v-108z" />
    <glyph glyph-name="uni2116" unicode="&#x2116;" horiz-adv-x="1148" 
d="M945 350q-42 0 -75 13.5t-56.5 36t-35.5 52.5t-12 63t12 63t35.5 52.5t56.5 36t75 13.5t75.5 -13.5t56.5 -36t35 -52.5t12 -63t-12 -63t-35 -52.5t-56.5 -36t-75.5 -13.5zM684 667v-667h-173l-272 373v-373h-181v667h186l260 -353v353h180zM945 441q29 0 45.5 18.5
t16.5 55.5t-16.5 54.5t-45.5 17.5t-45 -17.5t-16 -54.5t16 -55.5t45 -18.5z" />
    <glyph glyph-name="uni2117" unicode="&#x2117;" horiz-adv-x="778" 
d="M734 334q0 -71 -27 -134t-74 -110t-110 -74t-134 -27t-134 27t-110 74t-74 110t-27 134t27 134t74 110t110 74t134 27q72 0 134.5 -27t109.5 -74t74 -110t27 -134zM694 334q0 63 -24 118.5t-65.5 97t-97 65.5t-118.5 24t-118.5 -24t-97 -65.5t-65.5 -97t-24 -118.5
t24 -118.5t65.5 -97t97 -65.5t118.5 -24t118.5 24t97 65.5t65.5 97t24 118.5zM558 414q0 -27 -10.5 -49t-27.5 -37.5t-40 -24.5t-49 -9h-112v-163h-51v405h163q25 0 48 -8.5t40.5 -24.5t28 -38.5t10.5 -50.5zM505 414q0 34 -22.5 55t-51.5 21h-112v-150h112q14 0 27.5 5.5
t24 15.5t16.5 23.5t6 29.5z" />
    <glyph glyph-name="uni2120" unicode="&#x2120;" horiz-adv-x="476" 
d="M188 506q0 -31 -22.5 -49t-64.5 -18q-54 0 -86 36l18 21q29 -32 66 -32q56 0 56 39q0 19 -21.5 30t-46.5 15t-46.5 19t-21.5 42q0 28 22.5 46t57.5 18q55 0 82 -32l-18 -19q-22 27 -63 27q-21 0 -34.5 -10t-13.5 -26q0 -17 21 -26.5t47 -14.5t47 -21t21 -45zM439 667
v-220h-28v182l-75 -182h-8l-75 182v-182h-28v220h43l64 -160l64 160h43z" />
    <glyph glyph-name="trademark" unicode="&#x2122;" horiz-adv-x="356" 
d="M291 667v-124h-16v106l-42 -66h-4l-43 66v-106h-15v124h24l36 -57l36 57h24zM150 667v-15h-34v-109h-16v109h-35v15h85z" />
    <glyph glyph-name="uni2126" unicode="&#x2126;" horiz-adv-x="766" 
d="M41 158h109q-54 38 -90 93.5t-36 125.5q0 71 27.5 127t76 94.5t114 59t141.5 20.5q77 0 142.5 -20.5t113.5 -59t75.5 -94.5t27.5 -127q0 -70 -36 -125.5t-90 -93.5h109v-158h-288v158q31 9 54 27.5t38 42.5t22 51.5t7 55.5q0 30 -9 62t-29.5 59t-54 44.5t-82.5 17.5
t-82.5 -17.5t-54 -44.5t-29.5 -59t-9 -62q0 -28 7 -55.5t22 -51.5t38 -42.5t54 -27.5v-158h-288v158z" />
    <glyph glyph-name="estimated" unicode="&#x212e;" horiz-adv-x="842" 
d="M811 324h-632q-5 0 -5 -5v-190q0 -14 9 -23q97 -103 240 -103q151 0 250 115h57q-54 -63 -134.5 -99.5t-174.5 -36.5q-81 0 -152 27.5t-124 75.5t-83.5 112t-30.5 136t30.5 136t83.5 112t124 75.5t152 27.5t152 -27.5t124 -75.5t83.5 -112t30.5 -136v-9zM668 540
q0 14 -10 24q-97 99 -235 99q-140 0 -239 -102q-10 -10 -10 -24v-188q0 -6 5 -6h485q4 0 4 6v191z" />
    <glyph glyph-name="arrowleft" unicode="&#x2190;" horiz-adv-x="582" 
d="M269 211l12 -130l-281 205l281 204l-12 -129h269v-150h-269z" />
    <glyph glyph-name="arrowup" unicode="&#x2191;" horiz-adv-x="582" 
d="M216 286l-130 -12l205 281l204 -281l-129 12v-269h-150v269z" />
    <glyph glyph-name="arrowright" unicode="&#x2192;" horiz-adv-x="582" 
d="M303 81l12 130h-268v150h268l-12 129l281 -204z" />
    <glyph glyph-name="arrowdown" unicode="&#x2193;" horiz-adv-x="582" 
d="M366 286l130 12l-205 -281l-204 281l129 -12v269h150v-269z" />
    <glyph glyph-name="partialdiff" unicode="&#x2202;" horiz-adv-x="576" 
d="M288 -12q-63 0 -112 18.5t-83.5 50t-52.5 73.5t-18 88q0 47 16 88.5t44.5 73t67 50t83.5 18.5q107 0 153 -76q-25 68 -71.5 125.5t-129.5 102.5l130 86q44 -28 87 -72t76.5 -99.5t54.5 -120t21 -133.5q0 -63 -18 -113.5t-52.5 -86t-83.5 -54.5t-112 -19zM288 131
q48 0 74 23.5t26 63.5q0 41 -26 64.5t-74 23.5t-74 -23.5t-26 -64.5q0 -40 26 -63.5t74 -23.5z" />
    <glyph glyph-name="uni2206" unicode="&#x2206;" horiz-adv-x="701" 
d="M-13 0l250 667h227l250 -667h-727zM350 489l-109 -331h219z" />
    <glyph glyph-name="product" unicode="&#x220f;" horiz-adv-x="839" 
d="M537 -90v599h-234v-599h-181v599h-101v158h798v-158h-101v-599h-181z" />
    <glyph glyph-name="summation" unicode="&#x2211;" horiz-adv-x="592" 
d="M40 667h513v-158h-287l181 -213l-189 -228h295v-158h-514v158l185 227l-184 215v157z" />
    <glyph glyph-name="minus" unicode="&#x2212;" horiz-adv-x="508" 
d="M479 287h-450v96h450v-96z" />
    <glyph glyph-name="radical" unicode="&#x221a;" horiz-adv-x="654" 
d="M634 667l-244 -667h-101l-101 286l-115 -38l-29 92l214 68l84 -249l175 508h117z" />
    <glyph glyph-name="infinity" unicode="&#x221e;" horiz-adv-x="712" 
d="M204 151q-47 0 -80 16.5t-54 42.5t-31 59t-10 67t10 67t31 59.5t54 42.5t80 16q50 0 90 -26.5t62 -68.5q22 42 62 68.5t90 26.5q48 0 81 -16.5t54 -43t30.5 -59.5t9.5 -67t-9.5 -67t-30.5 -59t-54.5 -42t-80.5 -16q-50 0 -90 26t-62 68q-22 -42 -62 -68t-90 -26zM494 246
q36 0 61 23.5t25 65.5t-25 66.5t-61 24.5q-32 0 -56 -24.5t-38 -66.5q14 -42 38 -65.5t56 -23.5zM219 245q32 0 56 24.5t38 66.5q-14 42 -38 66t-56 24q-36 0 -61.5 -24t-25.5 -66t25.5 -66.5t61.5 -24.5z" />
    <glyph glyph-name="integral" unicode="&#x222b;" horiz-adv-x="390" 
d="M17 -100v104h60q26 0 43.5 20t17.5 52v516q0 41 14.5 74t38.5 55.5t56 34.5t66 12h60v-103h-60q-26 0 -43.5 -19.5t-17.5 -52.5v-518q0 -41 -14.5 -73.5t-38.5 -55t-55.5 -34.5t-66.5 -12h-60z" />
    <glyph glyph-name="approxequal" unicode="&#x2248;" horiz-adv-x="508" 
d="M29 475q26 -13 55 -20t58 -7q35 0 58.5 7.5t46.5 16.5t50 16.5t69 7.5q29 0 59.5 -6.5t53.5 -15.5v-102q-26 14 -55 21t-58 7q-35 0 -59 -7.5t-47 -16t-50 -16t-68 -7.5q-29 0 -59.5 5.5t-53.5 14.5v102zM29 296q26 -14 55 -20.5t58 -6.5q35 0 58.5 7.5t46.5 16t50 16
t69 7.5q29 0 59.5 -6t53.5 -15v-102q-26 14 -55 21t-58 7q-35 0 -59 -7.5t-47 -16.5t-50 -16.5t-68 -7.5q-29 0 -59.5 6t-53.5 15v102z" />
    <glyph glyph-name="notequal" unicode="&#x2260;" horiz-adv-x="508" 
d="M56 93l63 101h-90v95h151l58 90h-209v95h270l63 100h90l-63 -100h90v-95h-151l-57 -90h208v-95h-269l-65 -101h-89z" />
    <glyph glyph-name="lessequal" unicode="&#x2264;" horiz-adv-x="508" 
d="M29 303v116l450 187v-114l-342 -132l342 -130v-114zM29 0v96h450v-96h-450z" />
    <glyph glyph-name="greaterequal" unicode="&#x2265;" horiz-adv-x="508" 
d="M28 116v114l342 130l-342 132v114l450 -187v-116zM29 0v96h450v-96h-450z" />
    <glyph glyph-name="uni22B2" unicode="&#x22b2;" horiz-adv-x="587" 
d="M54 -23v618l535 -309z" />
    <glyph glyph-name="uni22B3" unicode="&#x22b3;" horiz-adv-x="587" 
d="M535 -23l-535 309l535 309v-618z" />
    <glyph glyph-name="dotmath" unicode="&#x22c5;" horiz-adv-x="208" 
d="M148 290q20 -20 20 -44q0 -25 -18 -44.5t-46 -19.5q-27 0 -45.5 19.5t-18.5 44.5t19.5 43t44.5 18q14 0 24 -4.5t20 -12.5z" />
    <glyph glyph-name="uni2318" unicode="&#x2318;" horiz-adv-x="667" 
d="M625 154q0 -23 -9 -43.5t-24 -35.5t-35 -24t-43 -9t-43.5 9t-35.5 24t-24 35.5t-9 43.5v58h-137v-58q0 -23 -9 -43.5t-24 -35.5t-35.5 -24t-43.5 -9t-43 9t-35 24t-24 35.5t-9 43.5t9 43t24 35t35 24t43 9h58v137h-57q-23 0 -43.5 9t-35.5 24t-24 35.5t-9 43.5t9 43
t24 35t35.5 24t43.5 9t43 -9t35 -24t24 -35t9 -43v-59h137v59q0 23 9 43t24 35t35.5 24t43.5 9t43 -9t35 -24t24 -35t9 -43t-9 -43.5t-24 -35.5t-35 -24t-43 -9h-58v-137h58q23 0 43 -9t35 -24t24 -35t9 -43zM211 514q0 24 -17 41t-40 17q-25 0 -42 -17t-17 -41t17 -41.5
t42 -17.5h57v59zM572 514q0 24 -17.5 41t-40.5 17q-24 0 -41 -17t-17 -41v-59h58q23 0 40.5 17.5t17.5 41.5zM402 265v137h-137v-137h137zM211 212h-58q-24 0 -41 -17.5t-17 -40.5q0 -25 17 -42t41 -17t41 17t17 42v58zM572 154q0 23 -17 40.5t-41 17.5h-58v-58
q0 -25 17 -42t41 -17t41 17t17 42z" />
    <glyph glyph-name="filledbox" unicode="&#x25a0;" horiz-adv-x="661" 
d="M618 572v-572h-571v572h571z" />
    <glyph glyph-name="triagup" unicode="&#x25b2;" horiz-adv-x="616" 
d="M307 565l310 -536l-619 1z" />
    <glyph glyph-name="triagdn" unicode="&#x25bc;" horiz-adv-x="616" 
d="M-2 510h619l-310 -535z" />
    <glyph glyph-name="lozenge" unicode="&#x25ca;" horiz-adv-x="375" 
d="M356 334l-158 -334h-21l-158 334l158 333h21zM55 334l133 -293l132 293l-133 292z" />
    <glyph glyph-name="uni25CF" unicode="&#x25cf;" horiz-adv-x="695" 
d="M644 285q0 -61 -23.5 -115.5t-63.5 -94.5t-94 -63.5t-116 -23.5q-61 0 -115.5 23.5t-94.5 63.5t-63.5 94.5t-23.5 115.5q0 62 23.5 116t63.5 94t94.5 63.5t115.5 23.5q62 0 116 -23.5t94 -63.5t63.5 -94t23.5 -116z" />
    <glyph glyph-name="uni2605" unicode="&#x2605;" horiz-adv-x="759" 
d="M469 421h290l-235 -171l90 -275l-235 170l-234 -170l89 275l-234 171h290l89 276z" />
    <glyph glyph-name="uni2610" unicode="&#x2610;" horiz-adv-x="661" 
d="M616 572v-572h-571v572h571zM150 96h361v380h-361v-380z" />
    <glyph glyph-name="diamond" unicode="&#x2666;" horiz-adv-x="501" 
d="M250 35l-250 250l250 251l251 -251z" />
    <glyph glyph-name="uni2713" unicode="&#x2713;" horiz-adv-x="531" 
d="M202 91l-202 246l74 69l114 -135l261 477l82 -50z" />
    <glyph glyph-name="uniE000" unicode="&#xe000;" horiz-adv-x="1624" 
d="M1225 667l333 -472l-333 -326l-567 798h567zM538 667l287 -398l-287 -269l-473 667h473z" />
    <glyph glyph-name="uniF6B6" unicode="&#xf6b6;" horiz-adv-x="584" 
d="M394 342l160 -180h-145l-160 180l160 177h145zM175 342l160 -180h-145l-160 180l160 177h145z" />
    <glyph glyph-name="uniF6B7" unicode="&#xf6b7;" horiz-adv-x="584" 
d="M175 519l160 -177l-160 -180h-145l160 180l-160 177h145zM394 519l160 -177l-160 -180h-145l160 180l-160 177h145z" />
    <glyph glyph-name="uniF6B8" unicode="&#xf6b8;" horiz-adv-x="365" 
d="M175 342l160 -180h-145l-160 180l160 177h145z" />
    <glyph glyph-name="uniF6B9" unicode="&#xf6b9;" horiz-adv-x="365" 
d="M175 519l160 -177l-160 -180h-145l160 180l-160 177h145z" />
    <glyph glyph-name="uniF6BA" unicode="&#xf6ba;" horiz-adv-x="353" 
d="M41 274v135h240v-135h-240z" />
    <glyph glyph-name="uniF6BB" unicode="&#xf6bb;" horiz-adv-x="593" 
d="M30 274v135h533v-135h-533z" />
    <glyph glyph-name="uniF6BC" unicode="&#xf6bc;" horiz-adv-x="833" 
d="M30 274v135h773v-135h-773z" />
    <glyph glyph-name="uniF6C3" unicode="&#xf6c3;" horiz-adv-x="272" 
d="M216 -139q0 -48 -24 -89t-66 -70l-51 40q19 10 39.5 32t26.5 44q-2 -2 -7.5 -2.5t-10.5 -0.5q-26 0 -43.5 17.5t-17.5 47.5t21.5 51.5t51.5 21.5q32 0 56.5 -23.5t24.5 -68.5z" />
    <glyph glyph-name="uniF8FF" unicode="&#xf8ff;" horiz-adv-x="1624" 
d="M1225 667l333 -472l-333 -326l-567 798h567zM538 667l287 -398l-287 -269l-473 667h473z" />
    <glyph glyph-name="idotaccent" horiz-adv-x="271" 
d="M125 599q-34 0 -57.5 23.5t-23.5 57.5t23.5 58t57.5 24q33 0 57 -24t24 -58t-24 -57.5t-57 -23.5zM40 500h161v-500h-161v500z" />
    <glyph glyph-name="a.ss01" horiz-adv-x="591" 
d="M535 1h-161v23q-27 -17 -62.5 -27.5t-80.5 -10.5q-59 0 -99 12t-64 33.5t-34.5 51.5t-10.5 66t10.5 65t34.5 49.5t63.5 31.5t97.5 11q40 0 79.5 -2.5t65.5 -4.5v25q0 21 -22.5 39t-68.5 18q-50 0 -93.5 -15.5t-76.5 -32.5l-64 120q19 10 44 21t57 20.5t71 15.5t85 6
q48 0 90 -11t73 -33t48.5 -54.5t17.5 -76.5v-340zM279 108q38 0 66.5 16.5t28.5 43.5v37q-9 -2 -34.5 -3.5t-60.5 -1.5q-48 0 -71.5 -8t-23.5 -41q0 -24 27 -33.5t68 -9.5z" />
    <glyph glyph-name="b.ss01" horiz-adv-x="615" 
d="M26 631l161 28v-187q22 20 50.5 31t65.5 11q60 0 107.5 -20t80.5 -55t50.5 -84t17.5 -106t-17.5 -105.5t-50.5 -83.5t-80.5 -55t-107.5 -20q-37 0 -65.5 11.5t-50.5 31.5v-28h-161v631zM299 135q23 0 41.5 9t32.5 24.5t21.5 36t7.5 44.5q0 23 -7.5 44t-21.5 36.5
t-32.5 24.5t-41.5 9q-50 0 -79.5 -30.5t-29.5 -81.5t29.5 -83.5t79.5 -32.5z" />
    <glyph glyph-name="d.ss01" horiz-adv-x="610" 
d="M554 663v-663h-161v25q-22 -18 -50 -29t-64 -11q-60 0 -107.5 20t-80.5 55t-50.5 83.5t-17.5 105.5t17.5 106t50.5 84t80.5 55t107.5 20q36 0 64 -10.5t50 -29.5v153zM284 135q49 0 79 32.5t30 83.5t-30 81.5t-79 30.5q-23 0 -42 -9t-32.5 -24.5t-21 -36.5t-7.5 -44
q0 -24 7.5 -44.5t21 -36t32.5 -24.5t42 -9z" />
    <glyph glyph-name="h.ss01" horiz-adv-x="550" 
d="M26 625l161 36v-192q23 18 51 29.5t60 11.5q27 0 60.5 -9t63.5 -32t50.5 -64t21.5 -106v-299h-161v295q0 21 -7 35.5t-17.5 23t-24 12.5t-27.5 4q-26 0 -45.5 -17t-24.5 -56v-297h-161v625z" />
    <glyph glyph-name="i.ss01" horiz-adv-x="268" 
d="M199 574l-161 -32v158h161v-126zM38 472l161 32v-504h-161v472z" />
    <glyph glyph-name="t.ss01" horiz-adv-x="399" 
d="M346 0q-10 0 -30.5 -0.5t-43 -0.5h-43h-30.5q-31 0 -62 7.5t-55.5 27t-40 53t-15.5 87.5v454l161 33v-161h99v-144h-99v-168q0 -25 21.5 -34.5t52.5 -9.5q12 0 24.5 1t25.5 3z" />
    <glyph glyph-name="colon.alt" horiz-adv-x="272" 
d="M53 482q0 42 22 64t63 22t62.5 -22t21.5 -64t-21.5 -64t-62.5 -22q-85 0 -85 86zM53 152q0 42 22 63.5t63 21.5t62.5 -21.5t21.5 -63.5t-21.5 -64t-62.5 -22q-85 0 -85 86z" />
    <glyph glyph-name="colon.centered" horiz-adv-x="255" 
d="M34 435q0 86 85 86q41 0 62.5 -22t21.5 -64t-21.5 -64t-62.5 -22q-42 0 -63.5 22t-21.5 64zM34 190q0 42 21.5 64t63.5 22q41 0 62.5 -22t21.5 -64t-21.5 -64t-62.5 -22q-85 0 -85 86z" />
    <glyph glyph-name="brevecomb-cy" 
 />
    <glyph glyph-name="thickspace" horiz-adv-x="500" 
 />
    <glyph glyph-name="accentcomb" horiz-adv-x="266" 
d="M116 776h168l-130 -144h-163z" />
    <glyph glyph-name="slashsmallcomb" 
d="M-66 -19l563 650l76 -71l-563 -651z" />
    <glyph glyph-name="lowercase-shoulder" 
d="M339 295q0 21 -7 35.5t-18 23t-24.5 12.5t-27.5 4q-29 0 -49.5 -21.5t-20.5 -72.5h-73q-1 -5 -1 0t-0.5 19.5t-0.5 48.5q0 21 14 49.5t39 54.5t59.5 44t74.5 18q27 0 61 -9t64 -32.5t50.5 -65.5t20.5 -108h-161z" />
    <glyph glyph-name="lowercase-stem" 
d="M213 500h162v-500h-162v500z" />
    <glyph glyph-name="lowercase-shortstem" 
d="M339 299h161v-299h-161v299z" />
    <glyph glyph-name="lowercase-aloop" 
d="M481 249q0 -41 -10 -87.5t-33 -85.5t-61 -65t-94 -26q-60 0 -107.5 20t-80.5 55t-50.5 83.5t-17.5 105.5t17.5 106t50.5 84t80.5 55t107.5 20q56 0 94 -26t61 -65.5t33 -86t10 -87.5zM287 135q50 0 80 32.5t30 83.5t-30 81.5t-80 30.5q-22 0 -41 -9t-32.5 -24.5
t-21 -36.5t-7.5 -44q0 -24 7.5 -44.5t21 -36t32.5 -24.5t41 -9z" />
    <glyph glyph-name="newGlyph" 
 />
    <glyph glyph-name="lowercase-ftop" 
d="M275 552q-48 4 -76.5 -8t-28.5 -41v-129h-161v89q0 52 19 99t53.5 82t83.5 54.5t110 15.5v-162z" />
    <glyph glyph-name="lowercase-g-descender" 
d="M407 500h161v-475q0 -53 -21.5 -97t-59.5 -75.5t-90 -49t-114 -17.5q-44 0 -85.5 9t-76.5 25t-62 38.5t-42 48.5l138 80q11 -22 47.5 -37t84.5 -15q52 0 86 25t34 65v475z" />
    <glyph glyph-name="lowercase-thook" 
d="M271 0q-23 -2 -44.5 -3.5t-41.5 -1.5q-41 0 -73.5 7.5t-55.5 28t-35 55t-12 88.5v159h162v-147q0 -16 7 -24.5t20 -12.5t31.5 -3.5t41.5 2.5v-148z" />
    <glyph glyph-name="lowercase-r" 
d="M308 358q-12 3 -25 3q-31 0 -56 -9.5t-42 -25t-26.5 -37t-9.5 -45.5l-29 32q5 3 9 15q4 10 6.5 29.5t2.5 53.5q0 21 10.5 45t31.5 44.5t52 33.5t71 13h15z" />
    <glyph glyph-name="lowercase-tcross" horiz-adv-x="1200" 
d="M139 500h339v-144h-339v144z" />
    <glyph glyph-name="ascender-stem" 
d="M46 700h170v-700h-170v700z" />
    <glyph glyph-name="uppercase-horiz" horiz-adv-x="787" 
d="M197 700h214v-161h-214v161z" />
    <glyph glyph-name="i-dot" horiz-adv-x="303" 
d="M147 533q-45 0 -70 24t-25 66t25 66t70 24t70 -24t25 -66t-25 -66t-70 -24z" />
    <glyph glyph-name="wonderUnitLogo.ss02" horiz-adv-x="1624" 
 />
    </font>
</defs>
</svg>
