<svg width="50" height="51" viewBox="0 0 50 51" fill="none" xmlns="http://www.w3.org/2000/svg">
<path fill-rule="evenodd" clip-rule="evenodd" d="M11.953 0.987305H18.6451V7.26019C18.6451 9.22031 20.9298 10.3015 22.4456 9.05877L25.0006 6.96413L27.5555 9.05877C29.0713 10.3015 31.356 9.22021 31.356 7.26019V0.987305H38.0483C38.9274 0.987305 39.6467 1.70664 39.6467 2.58579V24.7181C39.6467 25.5972 38.9274 26.3166 38.0483 26.3166H11.953C11.0738 26.3166 10.3545 25.5972 10.3545 24.7181V2.58579C10.3545 1.70664 11.0738 0.987305 11.953 0.987305ZM18.5901 42.5356L18.9385 39.8694C19.1145 38.5224 18.9223 37.1802 17.958 36.2234L10.4933 28.8172C9.31887 27.6521 7.39872 27.6597 6.23364 28.8341C5.8217 29.2459 5.59528 29.8136 5.59761 30.3948C5.59984 30.9599 5.81664 31.5244 6.24741 31.9518L10.2349 35.908C10.5511 36.2225 10.5525 36.7337 10.238 37.0498C9.92363 37.366 9.41229 37.3674 9.0962 37.0529L5.10864 33.0967C4.3634 32.3574 3.9883 31.38 3.98445 30.4011C3.9806 29.4223 4.34842 28.4416 5.0887 27.6954C5.41249 27.369 5.78243 27.1137 6.17818 26.9295L6.17797 17.2045C6.17797 15.7071 4.95257 14.4818 3.4552 14.482C1.95752 14.4822 0.732422 15.7072 0.732422 17.2045L0.732624 33.9864C0.732624 35.3444 1.25297 36.4802 2.17736 37.4745L6.23708 41.8414C7.26967 42.9521 7.72281 44.1144 7.77646 45.4331L18.5901 42.5356ZM19.7764 43.8943C20.0951 43.8089 20.4255 43.9998 20.5109 44.3183L21.1577 46.7325C21.2431 47.051 21.0524 47.3815 20.7337 47.4669L7.6714 50.9669C7.35267 51.0523 7.0222 50.8614 6.93688 50.5429L6.29002 48.1287C6.20469 47.8102 6.39538 47.4798 6.71411 47.3943L19.7764 43.8943ZM31.4111 42.5356L42.2248 45.4331C42.2784 44.1144 42.7316 42.9521 43.7641 41.8414L47.8239 37.4745C48.7483 36.4802 49.2686 35.3443 49.2686 33.9864L49.2688 17.2045C49.2688 15.7071 48.0436 14.4822 46.546 14.482C45.0487 14.4818 43.8233 15.7072 43.8233 17.2045L43.8231 26.9295C44.2189 27.1137 44.5887 27.369 44.9126 27.6954C45.6529 28.4416 46.0206 29.4223 46.0168 30.4011C46.0129 31.38 45.6378 32.3574 44.8926 33.0967L40.905 37.0529C40.5888 37.3674 40.0776 37.366 39.7632 37.0498C39.4488 36.7336 39.4502 36.2224 39.7664 35.908L43.7538 31.9518C44.1846 31.5245 44.4014 30.9599 44.4036 30.3948C44.4058 29.8136 44.1794 29.246 43.7676 28.8341C42.6025 27.6597 40.6824 27.6521 39.508 28.8172L32.0432 36.2234C31.0789 37.1802 30.8866 38.5224 31.0627 39.8694L31.4111 42.5356ZM30.2248 43.8943L43.287 47.3943C43.6057 47.4798 43.7964 47.8102 43.7111 48.1287L43.0642 50.5429C42.9789 50.8614 42.6486 51.0523 42.3297 50.9669L29.2675 47.4669C28.9487 47.3815 28.7581 47.051 28.8434 46.7325L29.4902 44.3183C29.5756 43.9998 29.906 43.8089 30.2248 43.8943ZM20.2645 0.987305V7.26019C20.2645 7.85745 20.9569 8.18519 21.4189 7.80644L24.5527 5.23721C24.8157 5.02152 25.1854 5.02152 25.4484 5.23721L28.5822 7.80644C29.0441 8.18509 29.7366 7.85745 29.7366 7.26019V0.987305H20.2645ZM15.555 17.5409C15.3323 17.5409 15.1501 17.723 15.1501 17.9457V21.116C15.1501 21.3386 15.3323 21.5208 15.555 21.5208H21.7795C22.0022 21.5208 22.1844 21.3386 22.1844 21.116V17.9457C22.1844 17.723 22.0022 17.5409 21.7795 17.5409H15.555Z" fill="#161B20"/>
</svg>
