<svg width="49" height="37" viewBox="0 0 49 37" fill="none" xmlns="http://www.w3.org/2000/svg">
<path d="M47.2177 6.25632L37.3043 0.84483C37.136 0.751839 36.9469 0.703081 36.7547 0.703127H30.6271C30.3223 0.703127 30.0301 0.824175 29.8146 1.03964C29.5992 1.25511 29.4781 1.54735 29.4781 1.85206C29.4781 3.1725 28.9536 4.43886 28.0199 5.37255C27.0862 6.30624 25.8198 6.83079 24.4994 6.83079C23.179 6.83079 21.9126 6.30624 20.9789 5.37255C20.0452 4.43886 19.5207 3.1725 19.5207 1.85206C19.5207 1.54735 19.3996 1.25511 19.1842 1.03964C18.9687 0.824175 18.6765 0.703127 18.3717 0.703127H12.2441C12.0512 0.702757 11.8614 0.751524 11.6926 0.84483L1.7811 6.25632C1.16445 6.58176 0.701803 7.13819 0.49438 7.80389C0.286957 8.46958 0.351646 9.19033 0.674294 9.80845L4.36621 16.8572C4.60222 17.302 4.9557 17.6736 5.38819 17.9316C5.82068 18.1895 6.31563 18.3239 6.81919 18.3201H11.0951V34.0223C11.0951 34.7333 11.3776 35.4152 11.8803 35.9179C12.3831 36.4207 13.065 36.7031 13.776 36.7031H35.2228C35.9338 36.7031 36.6157 36.4207 37.1185 35.9179C37.6212 35.4152 37.9037 34.7333 37.9037 34.0223V18.3201H42.1815C42.6851 18.3239 43.18 18.1895 43.6125 17.9316C44.045 17.6736 44.3985 17.302 44.6345 16.8572L48.3264 9.80845C48.6489 9.1901 48.7133 8.46917 48.5055 7.80344C48.2977 7.13772 47.8347 6.58143 47.2177 6.25632ZM6.81344 16.0223C6.72938 16.0252 6.64612 16.0051 6.57258 15.9643C6.49904 15.9235 6.438 15.8634 6.396 15.7906L2.70983 8.74568C2.68905 8.70348 2.67702 8.65752 2.67448 8.61055C2.67194 8.56359 2.67893 8.51659 2.69503 8.4724C2.71114 8.42821 2.73602 8.38773 2.76818 8.35341C2.80034 8.31909 2.83911 8.29164 2.88217 8.2727L11.0951 3.78802V16.0223H6.81344ZM35.6058 34.0223C35.6058 34.1238 35.5654 34.2213 35.4936 34.2931C35.4218 34.3649 35.3244 34.4053 35.2228 34.4053H13.776C13.6744 34.4053 13.577 34.3649 13.5052 34.2931C13.4334 34.2213 13.393 34.1238 13.393 34.0223V3.001H17.3147C17.5938 4.70421 18.4692 6.25278 19.7845 7.37019C21.0999 8.48759 22.7696 9.10106 24.4956 9.10106C26.2215 9.10106 27.8912 8.48759 29.2066 7.37019C30.522 6.25278 31.3974 4.70421 31.6764 3.001H35.6058V34.0223ZM46.2909 8.74568L42.599 15.7925C42.557 15.8654 42.4959 15.9254 42.4224 15.9662C42.3488 16.0071 42.2656 16.0271 42.1815 16.0242H37.9037V3.78802L46.1185 8.26887C46.1617 8.28817 46.2006 8.31602 46.2327 8.35074C46.2649 8.38545 46.2897 8.42632 46.3056 8.47088C46.3215 8.51543 46.3283 8.56275 46.3254 8.60998C46.3225 8.65721 46.3102 8.70337 46.289 8.74568H46.2909Z" fill="white"/>
</svg>
