<svg width="39" height="37" viewBox="0 0 39 37" fill="none" xmlns="http://www.w3.org/2000/svg">
<path d="M17.0288 28.5847C17.0288 28.8655 16.9172 29.1349 16.7186 29.3335C16.52 29.532 16.2507 29.6436 15.9698 29.6436H11.0282C10.7473 29.6436 10.478 29.532 10.2794 29.3335C10.0808 29.1349 9.96926 28.8655 9.96926 28.5847C9.96926 28.3038 10.0808 28.0345 10.2794 27.8359C10.478 27.6373 10.7473 27.5258 11.0282 27.5258H15.9698C16.2507 27.5258 16.52 27.6373 16.7186 27.8359C16.9172 28.0345 17.0288 28.3038 17.0288 28.5847ZM27.971 27.5258H23.0294C22.7485 27.5258 22.4792 27.6373 22.2806 27.8359C22.082 28.0345 21.9704 28.3038 21.9704 28.5847C21.9704 28.8655 22.082 29.1349 22.2806 29.3335C22.4792 29.532 22.7485 29.6436 23.0294 29.6436H27.971C28.2519 29.6436 28.5212 29.532 28.7198 29.3335C28.9184 29.1349 29.03 28.8655 29.03 28.5847C29.03 28.3038 28.9184 28.0345 28.7198 27.8359C28.5212 27.6373 28.2519 27.5258 27.971 27.5258ZM38.9133 35.6442C38.9133 35.925 38.8017 36.1944 38.6031 36.393C38.4045 36.5916 38.1352 36.7031 37.8544 36.7031H1.14486C0.86402 36.7031 0.594677 36.5916 0.39609 36.393C0.197503 36.1944 0.0859375 35.925 0.0859375 35.6442C0.0859375 35.3634 0.197503 35.094 0.39609 34.8954C0.594677 34.6968 0.86402 34.5853 1.14486 34.5853H2.90974V13.0537C2.90974 12.8571 2.96451 12.6643 3.06789 12.497C3.17128 12.3298 3.31921 12.1946 3.4951 12.1066C3.671 12.0187 3.86791 11.9814 4.06377 11.9991C4.25963 12.0168 4.4467 12.0886 4.60403 12.2066L14.205 19.4073V13.0537C14.205 12.8571 14.2597 12.6643 14.3631 12.497C14.4665 12.3298 14.6144 12.1946 14.7903 12.1066C14.9662 12.0187 15.1631 11.9814 15.359 11.9991C15.5549 12.0168 15.7419 12.0886 15.8993 12.2066L23.2059 17.6918L25.3237 2.82098C25.411 2.23388 25.7058 1.69748 26.1545 1.30897C26.6032 0.920455 27.1763 0.705526 27.7698 0.703125H30.9678C31.5613 0.705526 32.1344 0.920455 32.5831 1.30897C33.0319 1.69748 33.3266 2.23388 33.4139 2.82098L36.0612 21.3752C36.0612 21.3752 36.0718 21.4793 36.0718 21.5252V34.5853H37.8367C37.9772 34.5829 38.1168 34.6086 38.2474 34.6608C38.3779 34.7129 38.4967 34.7905 38.5969 34.8891C38.6971 34.9877 38.7767 35.1052 38.831 35.2348C38.8853 35.3645 38.9133 35.5036 38.9133 35.6442ZM25.1472 19.1408L26.9121 20.4662H33.8092L31.3243 3.12101C31.3123 3.0362 31.2699 2.95864 31.2049 2.90279C31.14 2.84694 31.057 2.81661 30.9713 2.81745H27.784C27.6983 2.81661 27.6153 2.84694 27.5503 2.90279C27.4854 2.95864 27.443 3.0362 27.431 3.12101L25.1472 19.1408ZM5.0276 34.5853H33.9716V22.5841H26.5591C26.33 22.5841 26.1071 22.5098 25.9238 22.3723L23.3823 20.4662L16.3228 15.1716V21.5252C16.3228 21.7218 16.2681 21.9146 16.1647 22.0819C16.0613 22.2492 15.9134 22.3844 15.7375 22.4723C15.5616 22.5602 15.3647 22.5975 15.1688 22.5798C14.9729 22.5622 14.7859 22.4903 14.6285 22.3723L5.0276 15.1716V34.5853Z" fill="#67B34D"/>
</svg>
