<svg width="41" height="37" viewBox="0 0 41 37" fill="none" xmlns="http://www.w3.org/2000/svg">
<path d="M1.0099 11.771C0.982286 11.8701 0.968117 11.9725 0.967774 12.0755V15.1393C0.967281 16.3015 1.24519 17.447 1.77824 18.4797C2.31128 19.5125 3.08396 20.4026 4.0316 21.0755V35.0542C4.0316 35.3589 4.15265 35.6511 4.36812 35.8666C4.58359 36.0821 4.87582 36.2031 5.18054 36.2031H35.8188C36.1236 36.2031 36.4158 36.0821 36.6313 35.8666C36.8467 35.6511 36.9678 35.3589 36.9678 35.0542V21.0755C37.9154 20.4026 38.6881 19.5125 39.2211 18.4797C39.7542 17.447 40.0321 16.3015 40.0316 15.1393V12.0755C40.0317 11.9692 40.0169 11.8635 39.9876 11.7614L37.2416 2.14674C37.0798 1.58882 36.7419 1.09816 36.2785 0.747898C35.815 0.397639 35.2508 0.206551 34.6699 0.203125H6.32948C5.74857 0.206551 5.18433 0.397639 4.72088 0.747898C4.25744 1.09816 3.91961 1.58882 3.75777 2.14674L1.0099 11.771ZM5.96756 2.771C5.9915 2.69345 6.03945 2.62552 6.1045 2.57699C6.16954 2.52846 6.24833 2.50185 6.32948 2.501H34.6699C34.753 2.50112 34.8338 2.52827 34.9002 2.57836C34.9665 2.62845 35.0147 2.69875 35.0376 2.77866L37.3603 10.9265H3.64863L5.96756 2.771ZM15.521 13.2244H25.4784V15.1393C25.4784 16.4597 24.9539 17.7261 24.0202 18.6598C23.0865 19.5935 21.8201 20.118 20.4997 20.118C19.1792 20.118 17.9129 19.5935 16.9792 18.6598C16.0455 17.7261 15.521 16.4597 15.521 15.1393V13.2244ZM3.26565 13.2244H13.2231V15.1393C13.2241 15.9985 13.0027 16.8434 12.5804 17.5917C12.1582 18.34 11.5494 18.9662 10.8135 19.4096C10.0775 19.853 9.23927 20.0983 8.38037 20.1218C7.52148 20.1453 6.67113 19.9461 5.91203 19.5436C5.81773 19.4631 5.71103 19.3984 5.59607 19.3521C4.8831 18.9042 4.29536 18.2828 3.8878 17.5461C3.48024 16.8093 3.26618 15.9813 3.26565 15.1393V13.2244ZM34.6699 33.9053H6.32948V22.1593C7.82585 22.5664 9.41315 22.4849 10.8599 21.9265C12.3067 21.3681 13.5372 20.3621 14.372 19.0553C15.0287 20.0852 15.9344 20.9331 17.0054 21.5204C18.0764 22.1078 19.2782 22.4157 20.4997 22.4157C21.7212 22.4157 22.923 22.1078 23.994 21.5204C25.065 20.9331 25.9707 20.0852 26.6273 19.0553C27.4622 20.3621 28.6927 21.3681 30.1395 21.9265C31.5862 22.4849 33.1735 22.5664 34.6699 22.1593V33.9053ZM35.4033 19.3521C35.2883 19.3984 35.1816 19.4631 35.0873 19.5436C34.3282 19.9461 33.4779 20.1453 32.619 20.1218C31.7601 20.0983 30.9219 19.853 30.1859 19.4096C29.4499 18.9662 28.8412 18.34 28.419 17.5917C27.9967 16.8434 27.7753 15.9985 27.7763 15.1393V13.2244H37.7337V15.1393C37.7332 15.9813 37.5191 16.8093 37.1116 17.5461C36.704 18.2828 36.1163 18.9042 35.4033 19.3521Z" fill="white"/>
</svg>
