<svg width="50" height="51" viewBox="0 0 50 51" fill="none" xmlns="http://www.w3.org/2000/svg">
<path d="M31.0459 48.8096C30.8799 48.7119 30.7041 48.6143 30.5381 48.5166L29.5127 48.9561C27.501 49.8154 25.167 49.0342 24.0732 47.1396L22.3154 44.0928C21.2217 42.1982 21.7197 39.7861 23.4678 38.4678L24.3564 37.8037C24.3564 37.7061 24.3564 37.6084 24.3564 37.5107C24.3564 37.4131 24.3564 37.3154 24.3564 37.2178L23.4678 36.5537C21.7197 35.2354 21.2314 32.8232 22.3154 30.9287L24.0732 27.8818C24.6006 26.9736 25.4307 26.29 26.417 25.958C23.9854 24.8447 21.3389 24.2686 18.6631 24.2783C8.36035 24.2686 0.000976562 32.6279 0.000976562 42.9307V48.3408C0.000976562 49.8057 1.18262 50.9873 2.64746 50.9873H31.4463C31.3096 50.6455 31.2217 50.2842 31.1729 49.9131L31.0459 48.8096Z" fill="black"/>
<path d="M18.6631 21.4756C24.3208 21.4756 28.9072 16.8891 28.9072 11.2314C28.9072 5.57376 24.3208 0.987305 18.6631 0.987305C13.0054 0.987305 8.41895 5.57376 8.41895 11.2314C8.41895 16.8891 13.0054 21.4756 18.6631 21.4756Z" fill="black"/>
<path d="M49.3658 40.6553L47.2662 39.083C47.4322 38.0479 47.4322 36.9834 47.2662 35.9482L49.3658 34.376C50.0103 33.8975 50.1861 33.0088 49.7857 32.3057L48.0279 29.2588C47.6275 28.5654 46.7681 28.2725 46.0259 28.5947L43.6138 29.6201C42.7935 28.9561 41.8755 28.4287 40.899 28.0479L40.5865 25.4404C40.4888 24.6396 39.815 24.0439 39.0044 24.0439H35.479C34.6783 24.0439 33.9947 24.6494 33.897 25.4404L33.5845 28.0479C32.5982 28.4287 31.69 28.9561 30.8697 29.6201L28.4576 28.5947C27.7154 28.2822 26.856 28.5654 26.4556 29.2588L24.6978 32.3057C24.2974 32.999 24.4732 33.8877 25.1177 34.376L27.2173 35.9482C27.0513 36.9834 27.0513 38.0479 27.2173 39.083L25.1177 40.6553C24.4732 41.1436 24.2974 42.0322 24.6978 42.7256L26.4556 45.7725C26.856 46.4658 27.7154 46.7588 28.4576 46.4463L30.8697 45.4111C31.69 46.0752 32.6079 46.6025 33.5845 46.9834L33.897 49.5908C33.9947 50.3916 34.6685 50.9873 35.479 50.9873H39.0044C39.8052 50.9873 40.4888 50.3818 40.5865 49.5908L40.899 46.9834C41.8755 46.6025 42.7935 46.0752 43.6138 45.4111L46.0259 46.4365C46.7681 46.749 47.6275 46.4658 48.0279 45.7627L49.7857 42.7158C50.1861 42.0322 50.0103 41.1436 49.3658 40.6553ZM37.2369 41.3193C35.1372 41.3193 33.4283 39.6104 33.4283 37.5107C33.4283 35.4111 35.1372 33.7021 37.2369 33.7021C39.3365 33.7021 41.0454 35.4111 41.0454 37.5107C41.0454 39.6104 39.3365 41.3193 37.2369 41.3193Z" fill="black"/>
</svg>
