<svg width="50" height="51" viewBox="0 0 50 51" fill="none" xmlns="http://www.w3.org/2000/svg">
<path d="M46.5912 41.8965H38.6368C33.6242 41.8965 29.546 37.8183 29.546 32.8057C29.546 27.7932 33.6242 23.715 38.6368 23.715H46.5912C47.2193 23.715 47.7276 23.2068 47.7276 22.5786V19.1696C47.7276 16.7867 45.8792 14.8488 43.544 14.6608L37.0178 3.26187C36.413 2.20763 35.4364 1.45412 34.2679 1.14124C33.1048 0.830482 31.8887 0.99369 30.8477 1.59954L8.47563 14.6242H4.54639C2.03958 14.6242 0.000976562 16.6627 0.000976562 19.1696V46.4419C0.000976562 48.9487 2.03947 50.9873 4.54639 50.9873H43.1822C45.689 50.9873 47.7276 48.9488 47.7276 46.4419V43.0329C47.7276 42.4047 47.2193 41.8965 46.5912 41.8965ZM38.4271 10.2994L40.9031 14.6242H30.9987L38.4271 10.2994ZM12.9926 14.6242L31.9918 3.56368C32.5056 3.26294 33.1059 3.18304 33.6797 3.33623C34.2601 3.49155 34.7439 3.86665 35.0447 4.39154L35.047 4.39569L17.4788 14.6242H12.9926Z" fill="#161B20"/>
<path d="M46.5909 25.9878H38.6364C34.8767 25.9878 31.8184 29.0461 31.8184 32.8059C31.8184 36.5656 34.8767 39.6239 38.6364 39.6239H46.5909C48.4708 39.6239 49.9999 38.0948 49.9999 36.2149V29.3968C49.9999 27.517 48.4708 25.9878 46.5909 25.9878ZM38.6364 35.0785C37.3836 35.0785 36.3638 34.0587 36.3638 32.8059C36.3638 31.553 37.3836 30.5332 38.6364 30.5332C39.8893 30.5332 40.9091 31.553 40.9091 32.8059C40.9092 34.0587 39.8894 35.0785 38.6364 35.0785Z" fill="#161B20"/>
</svg>
