<svg width="24" height="25" viewBox="0 0 24 25" fill="none" xmlns="http://www.w3.org/2000/svg">
<path d="M12 0.703613C9.62663 0.703613 7.30655 1.4074 5.33316 2.72598C3.35977 4.04455 1.8217 5.9187 0.913451 8.11141C0.00519941 10.3041 -0.232441 12.7169 0.230582 15.0447C0.693605 17.3725 1.83649 19.5107 3.51472 21.1889C5.19295 22.8671 7.33115 24.01 9.65892 24.473C11.9867 24.9361 14.3995 24.6984 16.5922 23.7902C18.7849 22.8819 20.6591 21.3438 21.9776 19.3705C23.2962 17.3971 24 15.077 24 12.7036C23.9966 9.52205 22.7313 6.47175 20.4816 4.22204C18.2319 1.97233 15.1816 0.706973 12 0.703613ZM17.2685 10.5875L10.8069 17.049C10.7212 17.1348 10.6194 17.2029 10.5073 17.2494C10.3953 17.2958 10.2752 17.3197 10.1538 17.3197C10.0325 17.3197 9.91243 17.2958 9.80037 17.2494C9.68831 17.2029 9.5865 17.1348 9.50077 17.049L6.73154 14.2798C6.55834 14.1066 6.46103 13.8716 6.46103 13.6267C6.46103 13.3817 6.55834 13.1468 6.73154 12.9736C6.90475 12.8004 7.13967 12.7031 7.38462 12.7031C7.62957 12.7031 7.86449 12.8004 8.0377 12.9736L10.1538 15.0909L15.9623 9.2813C16.0481 9.19554 16.1499 9.12751 16.2619 9.08109C16.374 9.03468 16.4941 9.01079 16.6154 9.01079C16.7367 9.01079 16.8568 9.03468 16.9688 9.08109C17.0809 9.12751 17.1827 9.19554 17.2685 9.2813C17.3542 9.36707 17.4223 9.46888 17.4687 9.58094C17.5151 9.69299 17.539 9.81309 17.539 9.93438C17.539 10.0557 17.5151 10.1758 17.4687 10.2878C17.4223 10.3999 17.3542 10.5017 17.2685 10.5875Z" fill="#67B24D"/>
</svg>
