<svg width="126" height="77" viewBox="0 0 126 77" fill="none" xmlns="http://www.w3.org/2000/svg">
<path d="M64.1577 30.5531C64.4682 31.7561 64.635 33.091 64.635 34.5618C64.635 38.8149 63.4243 43.1108 61.4995 46.8284C52.7603 63.5306 26.1276 70.3062 26.1276 64.4115C26.1276 64.3689 26.1276 64.2796 26.1703 64.233L26.2557 63.8333C26.2557 62.9912 25.5882 62.1491 24.75 62.1491C23.9971 62.1491 23.9544 62.9912 23.9544 63.5229C23.9544 64.6289 24.5404 65.6921 25.3359 66.4023C34.3584 74.5361 55.6786 60.8142 61.5034 51.8306C64.5574 47.135 66.8121 41.5547 66.8121 35.7531C66.8121 33.7779 66.5676 32.0083 66.1174 30.4173L65.8303 30.4367L64.8058 30.5065L64.1577 30.5531ZM15.8595 27.8871C24.6064 22.7026 35.7515 19.9046 44.4403 19.9046C44.743 19.9046 45.0495 19.9085 45.3561 19.9124L45.391 19.7843L45.4492 19.5554L45.5074 19.3226L45.5656 19.0936L45.6239 18.8608L45.6821 18.6318L45.7403 18.4028L45.7985 18.17L45.8567 17.941L45.8877 17.8246C44.937 17.7664 43.9862 17.7393 43.051 17.7393C34.2226 17.7393 22.9028 20.8011 14.3188 25.8575C14.9669 26.4125 15.4908 27.1032 15.8595 27.8871ZM2.50622 45.4586C2.50622 41.9156 4.13609 38.4618 6.30924 35.8463C7.87313 33.9137 9.76687 32.1403 11.8896 30.5376L11.7188 30.0447C11.5985 29.6916 11.3773 29.4005 11.0979 29.2026C10.8146 29.0008 10.4654 28.8844 10.0928 28.8844H9.83672C9.37105 29.2492 8.91702 29.6179 8.48239 29.9982C4.4737 33.4985 0.499939 38.5045 0.499939 44.306C0.499939 50.1502 3.55011 54.7565 8.61045 56.9297C9.65433 57.3721 11.5364 58.0822 12.5842 58.0822C12.9179 58.0822 13.1275 57.861 13.1275 57.5506C13.1275 56.9297 12.5415 56.4873 12.0409 56.3554C11.9982 56.3554 11.9167 56.3127 11.8741 56.3127L11.5403 56.2234C11.4976 56.2234 11.4549 56.2234 11.3735 56.1807C10.4964 56.0022 9.61553 55.7383 8.82388 55.3386C4.72206 53.5613 2.50622 50.1541 2.50622 45.4586Z" fill="white"/>
<path d="M70.1104 48.8989C72.7463 48.8989 74.8467 50.4228 74.8467 51.8231C74.8467 52.1526 74.6408 52.3585 74.2701 52.3585C72.9934 52.3585 73.6523 50.7935 71.0988 50.7935C68.0099 50.7935 64.8386 55.2003 64.8386 58.8658C65.9507 58.8658 69.9456 54.2119 71.3048 52.4821C71.4283 52.3173 71.5931 52.2761 71.799 52.2761C72.458 52.2761 73.4876 53.141 73.2405 53.8824C72.7463 55.2827 72.252 56.6006 72.252 58.1245C72.252 58.3304 72.3344 58.4128 72.4991 58.4128C74.8467 58.454 79.7066 53.8824 82.0542 51.4524C82.1365 51.3701 82.2189 51.3289 82.3013 51.3289C82.7131 51.3289 83.2486 51.7407 83.2486 52.1526C83.2486 52.2349 83.2074 52.3173 83.1662 52.3997C81.3952 54.7884 76.2882 60.2661 73.1169 60.2661C71.4283 60.2661 70.4811 59.0717 70.2339 57.4655C69.1219 58.7423 67.3098 60.9663 65.5388 60.9663C63.6855 60.9663 62.697 59.2777 62.697 57.5891C62.697 54.0059 66.239 48.8989 70.1104 48.8989Z" fill="white"/>
<path d="M88.7265 51.2468C89.6737 49.6406 89.9208 48.9404 90.621 47.0459L96.3458 31.2719C96.4693 31.0248 96.7164 30.9424 96.9636 30.9424C97.6225 30.9424 98.5286 31.6837 98.5286 32.3427C96.9636 36.8319 93.6687 45.6868 91.074 53.4296C89.1383 59.1956 87.3262 64.5909 87.3262 67.3092C87.3262 68.174 87.2438 69.945 87.738 70.6452C88.0263 71.057 88.5617 71.1806 88.5617 71.7984C88.5617 72.1278 88.3558 72.2926 88.0675 72.2926C87.5321 72.2926 86.9143 71.7572 86.5848 71.3865C85.3493 69.8626 85.1433 67.5151 85.2669 65.6205C85.4728 62.4493 86.626 58.5366 87.8204 55.3654C85.7199 58.5778 83.2488 60.9254 81.1895 60.9254C79.5009 60.9254 78.5536 59.4427 78.5536 57.8777C78.5536 54.624 82.0132 48.9404 85.7199 48.9404C86.9143 48.9404 88.2734 49.8465 88.7265 51.2468ZM86.173 54.9123C85.967 54.7064 85.8023 54.4593 85.8023 54.2122C85.8023 53.8003 87.1202 52.5648 87.1202 51.4116C87.1202 50.9997 86.9967 50.7526 86.5436 50.7526C83.9078 50.7526 80.6541 56.1891 80.6541 58.9073C80.6541 58.9897 80.6953 59.0309 80.7777 59.0309C82.7134 59.0309 85.1433 56.2714 86.173 54.9123Z" fill="white"/>
<path d="M101.896 51.2468C102.843 49.6406 103.09 48.9404 103.791 47.0459L109.515 31.2719C109.639 31.0248 109.886 30.9424 110.133 30.9424C110.792 30.9424 111.698 31.6837 111.698 32.3427C110.133 36.8319 106.838 45.6868 104.244 53.4296C102.308 59.1956 100.496 64.5909 100.496 67.3092C100.496 68.174 100.413 69.945 100.908 70.6452C101.196 71.057 101.731 71.1806 101.731 71.7984C101.731 72.1278 101.525 72.2926 101.237 72.2926C100.702 72.2926 100.084 71.7572 99.7544 71.3865C98.5189 69.8627 98.313 67.5151 98.4365 65.6205C98.6424 62.4493 99.7956 58.5366 100.99 55.3654C98.8896 58.5778 96.4184 60.9254 94.3592 60.9254C92.6705 60.9254 91.7233 59.4427 91.7233 57.8777C91.7233 54.624 95.1829 48.9404 98.8896 48.9404C100.084 48.9404 101.443 49.8465 101.896 51.2468ZM99.3426 54.9123C99.1367 54.7064 98.9719 54.4593 98.9719 54.2122C98.9719 53.8003 100.29 52.5648 100.29 51.4116C100.29 50.9997 100.166 50.7526 99.7133 50.7526C97.0774 50.7526 93.8237 56.1891 93.8237 58.9073C93.8237 58.9897 93.8649 59.0309 93.9473 59.0309C95.883 59.0309 98.313 56.2714 99.3426 54.9123Z" fill="white"/>
<path d="M117.341 53.0174C115.282 55.6945 112.028 59.1541 110.216 59.1541C109.516 59.1541 108.239 58.2068 108.239 56.8477C108.239 55.7769 109.927 51.5348 110.628 49.4755C110.751 49.146 110.875 49.0224 111.245 49.0224C111.904 49.0224 112.728 49.7226 112.728 50.4227C112.728 51.37 110.751 55.5297 110.751 56.477C110.751 56.5182 110.751 56.5594 110.833 56.5594C111.698 56.5594 115.405 53.3469 118.741 48.4047C118.865 48.2399 119.071 48.1987 119.318 48.1987C119.935 48.1987 120.965 48.8989 120.8 49.599C120.265 52.029 119.153 56.0652 117.629 60.3073C119.359 60.3484 121.089 60.8427 122.159 62.2842C122.283 62.4901 122.53 62.9019 122.53 63.1491C122.53 63.3962 122.365 63.5609 122.077 63.5609C120.883 63.5609 121.665 61.9547 118.37 61.9547C117.917 61.9547 117.464 61.9959 116.97 62.0782C114.128 69.5328 110.092 76.9874 105.932 76.9874C104.12 76.9874 102.39 75.6282 102.39 73.6925C102.39 67.8854 108.939 62.0782 114.911 60.6367C116.023 57.589 116.888 54.7884 117.341 53.0174ZM114.005 62.9431C109.186 65.0436 104.532 69.9858 104.532 74.5162C104.532 74.8869 104.656 75.0105 105.068 75.0105C108.239 75.0105 111.534 68.9562 114.005 62.9431Z" fill="white"/>
<path d="M20.5592 36.0598C20.5592 36.0598 23.0738 30.5765 28.1807 28.481C28.1807 28.481 27.5249 29.4822 27.4473 30.6114L27.1951 29.7228C27.1989 29.7228 24.4126 30.9258 20.5592 36.0598Z" fill="white"/>
<path d="M20.5592 36.0598C20.5592 36.0598 23.0738 30.5765 28.1807 28.481C28.1807 28.481 27.5249 29.4822 27.4473 30.6114L27.1951 29.7228C27.1989 29.7228 24.4126 30.9258 20.5592 36.0598Z" fill="white"/>
<path d="M52.877 42.0278L56.1134 41.6592L54.6737 43.6383L55.0928 42.4004L52.877 42.0278Z" fill="white"/>
<path d="M52.877 42.0278L56.1134 41.6592L54.6737 43.6383L55.0928 42.4004L52.877 42.0278Z" fill="white"/>
<path d="M26.7443 54.4653C26.7443 54.7136 26.9461 54.9193 27.1984 54.9193C27.4467 54.9193 27.6524 54.7175 27.6524 54.4653C27.6524 54.2169 27.4506 54.0112 27.1984 54.0112C26.95 54.0112 26.7443 54.213 26.7443 54.4653Z" fill="white"/>
<path d="M28.1071 38.3511C28.1496 38.2814 28.1924 38.2126 28.2354 38.1446L26.675 41.7798L23.3446 41.1236L22.7103 40.676C23.5308 39.1641 24.4551 38.1285 25.3097 37.4155L28.1071 38.3511ZM28.476 42.1347L27.1671 41.8767L33.9445 36.7034C36.5241 34.7343 38.5754 34.2489 39.9881 34.3984C41.3348 34.5409 42.4945 35.298 43.3358 36.7376L43.3358 36.7377C44.0487 37.9575 44.0035 39.4756 43.5719 40.989C43.3651 41.714 43.0938 42.3463 42.8722 42.798C42.7627 43.0213 42.6686 43.1939 42.6059 43.3041C42.5747 43.3591 42.5515 43.3981 42.5386 43.4196L42.5279 43.4372L42.5277 43.4375L42.5271 43.4384L41.7011 44.7405L28.476 42.1347ZM32.4276 34.7162L31.7834 34.4396C31.7834 34.4396 31.7834 34.4396 31.7835 34.4396C31.9751 34.5219 32.189 34.6137 32.4276 34.7162Z" stroke="white" stroke-width="5"/>
<path d="M36.5582 54.4651C36.5582 56.1959 37.963 57.6007 39.6937 57.6007C41.4245 57.6007 42.8293 56.1959 42.8293 54.4651C42.8293 52.7344 41.4245 51.3296 39.6937 51.3296C37.963 51.3296 36.5582 52.7305 36.5582 54.4651Z" fill="white"/>
<path d="M24.0622 54.4651C24.0622 56.1959 25.4669 57.6007 27.1977 57.6007C28.9285 57.6007 30.3332 56.1959 30.3332 54.4651C30.3332 52.7344 28.9285 51.3296 27.1977 51.3296C25.4669 51.3296 24.0622 52.7305 24.0622 54.4651Z" fill="white"/>
<path d="M35.0875 55.1326C35.0875 56.8634 36.4923 58.2682 38.223 58.2682C39.9538 58.2682 41.3586 56.8634 41.3586 55.1326C41.3586 53.4019 39.9538 51.9971 38.223 51.9971C36.4884 51.9971 35.0875 53.398 35.0875 55.1326Z" stroke="white" stroke-width="3.3119" stroke-miterlimit="10" stroke-linecap="round"/>
<path d="M22.5914 55.1326C22.5914 56.8634 23.9962 58.2682 25.727 58.2682C27.4577 58.2682 28.8625 56.8634 28.8625 55.1326C28.8625 53.4019 27.4577 51.9971 25.727 51.9971C23.9923 51.9971 22.5914 53.398 22.5914 55.1326Z" stroke="white" stroke-width="3.3119" stroke-miterlimit="10" stroke-linecap="round"/>
<path d="M25.2733 55.8482C25.2733 56.4982 25.7933 57.0182 26.4433 57.0182C27.0933 57.0182 27.6133 56.4982 27.6133 55.8482C27.6133 55.2082 27.0933 54.6782 26.4433 54.6782C25.7933 54.6782 25.2733 55.1982 25.2733 55.8482Z" stroke="white" stroke-width="1.1039" stroke-miterlimit="10" stroke-linecap="round"/>
<path d="M57.6133 55.8482C57.6133 56.4982 58.1333 57.0182 58.7833 57.0182C59.4233 57.0182 59.9533 56.4982 59.9533 55.8482C59.9533 55.2082 59.4333 54.6782 58.7833 54.6782C58.1333 54.6782 57.6133 55.1982 57.6133 55.8482Z" stroke="white" stroke-width="1.1039" stroke-miterlimit="10" stroke-linecap="round"/>
<path d="M42.1189 50.9377H24.2525C22.5257 50.9377 20.985 49.8394 20.4262 48.2057L13.9223 29.2915C13.3596 27.6578 11.8229 26.5596 10.096 26.5596H5.36553" stroke="white" stroke-width="2" stroke-miterlimit="10" stroke-linecap="round"/>
<path fill-rule="evenodd" clip-rule="evenodd" d="M108.872 0.951172L47.0114 13.4046L42.4064 31.2949L124.633 25.7936L108.872 0.951172Z" fill="#01D700"/>
<path d="M108.64 1.5007L47.4126 13.8254L43.0551 30.755L123.772 25.3577L108.64 1.5007ZM46.9124 12.9192L109.11 0.396484C114.577 9.0074 120.038 17.6183 125.5 26.2292C97.5876 28.096 69.6702 29.9628 41.7578 31.8295C43.377 25.5459 44.9912 19.2623 46.6104 12.9786L46.9124 12.9192Z" fill="white"/>
<path d="M91.1652 22.6543C91.5415 20.2676 91.9079 17.9502 92.2694 15.7071C92.616 13.5334 92.9527 11.419 93.2894 9.36903C93.3736 9.35417 93.4627 9.33437 93.5618 9.31951C95.9188 11.4537 98.4738 13.776 101.252 16.2964C102.098 14.702 102.945 13.1174 103.792 11.5527C104.634 10.0028 105.456 8.46783 106.278 6.94767C106.377 6.92787 106.491 6.90806 106.604 6.8833C107.803 8.87882 109.075 10.9833 110.402 13.2016C111.809 15.5487 113.294 18.0295 114.889 20.6538C113.116 20.8024 111.368 20.9361 109.699 21.0846C108.491 18.8118 107.402 16.6579 106.327 14.598C105.01 17.1035 103.708 19.6586 102.386 22.2532C102.272 22.2631 102.163 22.2681 102.064 22.278C99.7761 20.0151 97.637 17.8958 95.6365 15.9201C95.379 17.9948 95.1265 20.1339 94.874 22.3324C93.6212 22.4463 92.3882 22.5553 91.1652 22.6543ZM73.0521 24.2982C73.6017 22.2037 74.1315 20.1686 74.6613 18.1929C75.1763 16.2667 75.6764 14.395 76.1666 12.5678C76.236 12.5579 76.3102 12.543 76.3796 12.5282C77.8353 14.4841 79.405 16.5836 81.0935 18.8465C81.9056 17.465 82.7028 16.0884 83.5 14.7366C84.2923 13.3947 85.0994 12.0627 85.8867 10.7456C85.9759 10.7307 86.06 10.7159 86.1442 10.701C86.7137 12.4836 87.3276 14.3553 87.9714 16.2964C88.6497 18.3464 89.3578 20.4904 90.1204 22.7434C88.8577 22.8573 87.6495 22.9663 86.4562 23.0702C85.9115 21.1143 85.4114 19.2377 84.9212 17.4353C83.6832 19.5942 82.4305 21.7878 81.1628 24.016C81.0836 24.0259 81.0044 24.0309 80.9301 24.0358C79.5783 22.0601 78.3057 20.1884 77.1025 18.4305C76.6668 20.2528 76.2261 22.1195 75.7755 24.0358C74.8545 24.1249 73.9334 24.2141 73.0521 24.2982ZM61.6088 20.2528C61.7227 19.5199 61.9554 18.8267 62.2971 18.1632C62.6387 17.5046 63.0794 16.8955 63.6241 16.3261C64.1391 15.7913 64.7135 15.3407 65.3572 14.9842C66.0009 14.6277 66.6545 14.3801 67.3527 14.2464C68.0509 14.1177 68.7045 14.1078 69.3334 14.2365C69.9672 14.3652 70.5366 14.6277 71.0219 15.0189C71.517 15.415 71.8934 15.925 72.1211 16.544C72.3539 17.1679 72.443 17.8908 72.3885 18.693C72.344 19.3763 72.1954 20.0398 71.9478 20.6786C71.6953 21.3223 71.3487 21.9314 70.8981 22.5008C70.2593 23.3079 69.5166 23.9615 68.655 24.4617C67.7984 24.9568 66.9318 25.249 66.0504 25.3282C65.3077 25.3975 64.6293 25.3133 64.0004 25.0757C63.4013 24.8528 62.8962 24.4864 62.4803 24.0012C62.0643 23.5109 61.7821 22.9464 61.6286 22.3027C61.4949 21.6788 61.49 20.9905 61.6088 20.2528ZM64.0103 19.9012C63.8816 20.7875 64.045 21.5105 64.4808 22.0651C64.9214 22.6246 65.5454 22.8722 66.3376 22.7781C67.1546 22.684 67.8825 22.278 68.5114 21.5699C69.1403 20.8569 69.4968 20.025 69.5859 19.0941C69.675 18.1731 69.4671 17.4551 68.9719 16.945C68.4965 16.4499 67.8677 16.2667 67.0853 16.4004C66.3228 16.5341 65.6493 16.9302 65.065 17.5888C64.4857 18.2473 64.1391 19.0198 64.0103 19.9012ZM60.7423 18.6435C60.4105 18.2869 60.0738 18.0443 59.7074 17.9106C59.3409 17.7769 58.9547 17.7571 58.5289 17.8314C57.7911 17.9601 57.1573 18.3315 56.5977 18.9356C56.0382 19.5447 55.6619 20.2726 55.4886 21.1292C55.3103 21.9957 55.3846 22.684 55.7262 23.1742C56.0778 23.6793 56.6373 23.8922 57.4048 23.8031C57.8604 23.7486 58.3457 23.5852 58.8557 23.3129C59.3607 23.0405 59.8807 22.6543 60.4303 22.1591C60.2322 23.0752 60.0292 24.0061 59.8262 24.9519C59.3607 25.2985 58.8755 25.5807 58.3704 25.7887C57.8653 25.9967 57.3603 26.1254 56.8503 26.17C56.3155 26.2195 55.8302 26.17 55.3846 26.0214C54.9488 25.8778 54.5725 25.6451 54.2556 25.3183C53.8198 24.8677 53.5426 24.3082 53.4138 23.6298C53.29 22.9712 53.2999 22.2384 53.4831 21.4362C53.6366 20.7529 53.8793 20.1092 54.216 19.4902C54.5477 18.8811 54.9538 18.3167 55.439 17.8116C55.9342 17.2966 56.4591 16.8807 57.0384 16.5489C57.6178 16.2122 58.207 15.9894 58.8111 15.8705C59.2964 15.7765 59.7569 15.7567 60.1728 15.8062C60.6036 15.8606 61.0096 15.9943 61.3711 16.2023C61.1582 17.0144 60.9502 17.8264 60.7423 18.6435ZM51.9184 24.1943C51.7104 24.8182 51.4975 25.4421 51.2945 26.0709C50.9083 26.2987 50.5369 26.4819 50.1903 26.6057C49.8437 26.7295 49.507 26.8087 49.1901 26.8384C48.3928 26.9078 47.8333 26.6849 47.5065 26.1601C47.1896 25.655 47.1599 24.9618 47.3926 24.1002C47.6303 23.2089 48.0809 22.4315 48.7345 21.7581C49.398 21.0797 50.0962 20.6835 50.834 20.5647C51.4728 20.4607 51.9531 20.5994 52.265 20.9806C52.5869 21.3768 52.6612 21.9363 52.4928 22.684C52.4681 22.7979 52.4185 22.9861 52.3443 23.2485C52.3393 23.2634 52.3344 23.2733 52.3344 23.2832C52.2551 23.3822 52.1858 23.4713 52.1115 23.5704C50.9875 23.7486 49.8932 23.9219 48.8236 24.0903C48.7494 24.4716 48.8038 24.7687 48.9771 24.9865C49.1504 25.2044 49.4277 25.2935 49.7991 25.2539C50.0615 25.2242 50.3636 25.1252 50.7251 24.9469C51.0865 24.7637 51.4876 24.5112 51.9184 24.1943ZM49.0762 23.2287C49.7496 23.1148 50.4329 22.996 51.1361 22.8821C51.141 22.8524 51.1559 22.8227 51.1608 22.7929C51.24 22.4958 51.2054 22.2582 51.0766 22.0948C50.9479 21.9314 50.7449 21.867 50.4775 21.9066C50.1952 21.9512 49.9229 22.0849 49.6753 22.3176C49.4277 22.5503 49.2247 22.8524 49.0762 23.2287Z" fill="white"/>
</svg>
