<svg width="301" height="201" viewBox="0 0 301 201" fill="none" xmlns="http://www.w3.org/2000/svg">
<path d="M98.021 27.8104C97.1634 28.0208 96.3946 28.404 95.7382 28.9124C95.5082 29.0904 95.2574 29.238 94.9902 29.3472L92.015 17.2212C91.7958 16.3284 90.895 15.7824 90.0022 16.0016L77.385 19.0972L77.7362 20.5292C77.8174 20.86 77.9634 21.1708 78.1626 21.4472C78.5634 22.0028 78.8678 22.6412 79.0414 23.3472C79.7854 26.3796 77.8666 29.4416 74.777 30.0704C72.0546 30.6244 69.2774 28.9964 68.429 26.3512C68.1302 25.4188 68.0958 24.4768 68.2734 23.5928C68.3526 23.198 68.3546 22.792 68.2586 22.4008L68.0122 21.3968L55.2194 24.4924C54.1234 24.7612 53.4526 25.868 53.7218 26.964L56.4686 38.2128L55.597 38.4268C55.4982 38.4512 55.397 38.4728 55.295 38.4904C54.023 37.9676 52.5802 37.8276 51.1422 38.1804C47.5354 39.0652 45.329 42.7064 46.2138 46.3136C47.0986 49.9208 50.7398 52.1268 54.3466 51.242C55.5262 50.9524 56.5546 50.3668 57.3758 49.5852C57.5402 49.5052 57.7118 49.4412 57.8906 49.3976L59.009 49.1232L62.0886 61.6748C62.3574 62.7708 63.4642 63.4416 64.5602 63.1728L99.4734 54.6068C100.366 54.3876 100.912 53.4864 100.693 52.594L97.5574 39.8144C97.7858 39.8156 98.0146 39.8416 98.2398 39.89C99.4354 40.1476 100.73 40.056 101.985 39.5108C104.476 38.4288 105.971 35.7596 105.611 33.0516C105.116 29.3252 101.548 26.9452 98.021 27.8104Z" fill="#EBEBEB"/>
<path d="M253.486 94.8536C253.991 95.088 254.52 95.2024 255.044 95.2108C255.227 95.214 255.408 95.24 255.583 95.2916L252.268 102.429C252.024 102.954 252.252 103.578 252.777 103.822L260.204 107.272L260.595 106.429C260.686 106.234 260.736 106.024 260.747 105.809C260.769 105.378 260.871 104.944 261.064 104.528C261.893 102.744 264.044 101.994 265.811 102.902C267.369 103.702 268.093 105.597 267.468 107.233C267.248 107.809 266.893 108.286 266.458 108.651C266.263 108.814 266.102 109.013 265.995 109.243L265.721 109.834L273.234 113.353C273.879 113.652 274.645 113.372 274.944 112.727L278.026 106.111L278.539 106.35C278.598 106.376 278.656 106.406 278.713 106.437C279.132 107.196 279.787 107.833 280.634 108.226C282.756 109.212 285.277 108.291 286.263 106.168C287.249 104.045 286.328 101.525 284.205 100.538C283.51 100.216 282.774 100.099 282.062 100.16C281.95 100.134 281.84 100.098 281.735 100.049L281.076 99.7436L284.508 92.356C284.808 91.7108 284.528 90.9448 283.882 90.6452L263.332 81.0996C262.807 80.8556 262.183 81.0836 261.939 81.6092L258.445 89.1312C258.333 89.0408 258.231 88.9376 258.14 88.8252C257.653 88.2272 256.98 87.762 256.148 87.536C254.496 87.0868 252.708 87.8104 251.819 89.284C250.593 91.3124 251.41 93.8892 253.486 94.8536Z" fill="#EBEBEB"/>
<path d="M266.056 174.774C266.384 174.487 266.634 174.144 266.806 173.772C266.867 173.641 266.943 173.519 267.036 173.411L271.099 178.052C271.398 178.394 271.918 178.429 272.259 178.13L277.089 173.902L276.609 173.354C276.498 173.227 276.363 173.124 276.213 173.048C275.911 172.896 275.632 172.685 275.395 172.414C274.379 171.254 274.524 169.474 275.736 168.496C276.804 167.633 278.392 167.716 279.366 168.683C279.71 169.024 279.939 169.429 280.062 169.857C280.117 170.048 280.208 170.227 280.34 170.377L280.676 170.761L285.583 166.493C286.002 166.126 286.045 165.488 285.678 165.068L281.914 160.76L282.248 160.468C282.286 160.434 282.325 160.402 282.366 160.371C283.042 160.311 283.707 160.044 284.258 159.562C285.638 158.354 285.778 156.255 284.569 154.874C283.36 153.493 281.262 153.354 279.881 154.562C279.429 154.958 279.111 155.448 278.929 155.978C278.875 156.05 278.814 156.118 278.746 156.178L278.318 156.552L274.112 151.748C273.745 151.328 273.107 151.286 272.687 151.653L259.323 163.352C258.981 163.651 258.946 164.171 259.246 164.512L263.528 169.404C263.428 169.456 263.321 169.496 263.212 169.526C262.628 169.685 262.082 170.02 261.655 170.545C260.809 171.586 260.76 173.097 261.534 174.203C262.6 175.724 264.706 175.956 266.056 174.774Z" fill="#F5F5F5"/>
<path d="M218.413 36.4596C217.742 36.2736 217.065 36.2404 216.418 36.3368C216.191 36.3704 215.961 36.3752 215.736 36.3472L218.368 26.8624C218.562 26.1644 218.153 25.4412 217.455 25.2472L207.586 22.5084L207.275 23.6284C207.203 23.8872 207.183 24.1572 207.214 24.424C207.275 24.9604 207.239 25.5168 207.085 26.0692C206.427 28.4412 203.927 29.806 201.56 29.0468C199.475 28.3776 198.193 26.1868 198.63 24.0408C198.784 23.2844 199.124 22.6236 199.587 22.084C199.794 21.8432 199.952 21.5648 200.037 21.2588L200.255 20.4736L190.265 17.6672C189.408 17.4292 188.52 17.9316 188.282 18.7888L185.831 27.5824L185.15 27.3932C185.073 27.3716 184.995 27.348 184.918 27.3204C184.245 26.4704 183.307 25.8176 182.182 25.5052C179.361 24.7224 176.439 26.3748 175.656 29.1956C174.873 32.0168 176.525 34.9384 179.347 35.7216C180.27 35.9776 181.203 35.9716 182.069 35.7512C182.213 35.7596 182.355 35.782 182.495 35.8208L183.37 36.0636L180.645 45.8812C180.407 46.7388 180.909 47.6264 181.767 47.8644L209.076 55.4432C209.774 55.6368 210.497 55.228 210.691 54.53L213.465 44.534C213.621 44.6228 213.769 44.7288 213.905 44.8492C214.628 45.4876 215.553 45.924 216.626 46.0332C218.756 46.25 220.814 44.992 221.611 42.9912C222.707 40.2384 221.172 37.2256 218.413 36.4596Z" fill="#F5F5F5"/>
<path d="M14.0885 138.612C14.7013 138.84 15.3317 138.926 15.9453 138.888C16.1601 138.875 16.3753 138.889 16.5845 138.933L13.3577 147.597C13.1201 148.234 13.4445 148.944 14.0825 149.182L23.0969 152.539L23.4777 151.516C23.5657 151.28 23.6057 151.029 23.5989 150.777C23.5849 150.27 23.6641 149.752 23.8521 149.248C24.6589 147.081 27.1089 146.005 29.2625 146.906C31.1601 147.7 32.1829 149.853 31.6009 151.826C31.3957 152.522 31.0245 153.113 30.5477 153.58C30.3349 153.789 30.1645 154.037 30.0605 154.316L29.7933 155.034L38.9157 158.464C39.6989 158.756 40.5701 158.357 40.8621 157.574L43.8633 149.542L44.4861 149.774C44.5569 149.801 44.6277 149.829 44.6973 149.861C45.2585 150.711 46.0837 151.397 47.1113 151.78C49.6881 152.74 52.5553 151.429 53.5153 148.852C54.4749 146.275 53.1641 143.408 50.5873 142.448C49.7445 142.134 48.8709 142.065 48.0429 142.202C47.9089 142.182 47.7769 142.15 47.6493 142.102L46.8501 141.805L50.1901 132.837C50.4817 132.054 50.0833 131.183 49.3001 130.891L24.3557 121.6C23.7177 121.363 23.0085 121.687 22.7709 122.325L19.3701 131.456C19.2309 131.36 19.1017 131.249 18.9837 131.126C18.3589 130.47 17.5281 129.987 16.5325 129.798C14.5569 129.424 12.5297 130.436 11.6229 132.244C10.3749 134.731 11.5685 137.674 14.0885 138.612Z" fill="#F5F5F5"/>
<path d="M144.487 119.228C146.714 119.074 148.641 119.678 150.501 120.545C151.333 120.933 152.312 121.214 153.23 121.214L155.667 121.158L155.695 94.0745C155.695 91.5165 153.609 89.4433 151.035 89.4433L125.29 89.5385V88.9833C125.29 87.8953 125.569 86.8333 126.045 85.8537C127.294 83.2869 127.807 80.3025 127.269 77.1545C126.201 70.9073 120.983 66.0329 114.645 65.3433C105.923 64.3945 98.545 71.1577 98.545 79.6337C98.545 81.6941 98.9862 83.6501 99.7738 85.4205C100.181 86.3369 100.417 87.3185 100.417 88.3205L100.57 89.5381H99.0102H69.5422C66.9686 89.5381 64.8822 91.6117 64.8822 94.1693V120.651H62.6694C61.6398 120.651 60.635 120.387 59.7082 119.936C57.2794 118.754 54.3034 118.27 51.3246 118.779C45.4134 119.789 40.8006 124.726 40.1486 130.724C39.251 138.976 45.6506 145.958 53.6706 145.958C55.6202 145.958 57.471 145.54 59.1462 144.795C60.0134 144.41 60.9422 144.186 61.8906 144.186H64.7302L64.787 176.578C64.787 178.661 66.4858 180.35 68.5818 180.35H151.627C153.723 180.35 155.365 177.718 155.365 175.636V146.194H152.004C151.227 146.194 150.459 146.348 149.739 146.637C148.291 147.219 146.712 147.545 145.054 147.545C137.935 147.545 132.197 141.668 132.483 134.529C132.735 128.239 138.169 119.667 144.487 119.228Z" fill="#E0E0E0"/>
<path d="M144.488 119.228C144.488 119.228 144.414 119.24 144.268 119.257C144.122 119.276 143.902 119.292 143.617 119.356C143.046 119.463 142.198 119.695 141.181 120.222C139.155 121.256 136.496 123.618 134.494 127.561C133.521 129.523 132.642 131.886 132.526 134.59C132.49 135.937 132.664 137.351 133.098 138.752C133.533 140.151 134.241 141.533 135.23 142.773C136.218 144.011 137.484 145.108 138.973 145.928C140.46 146.749 142.172 147.286 143.976 147.433C145.779 147.607 147.676 147.354 149.471 146.677C150.355 146.289 151.357 146.09 152.351 146.133C153.342 146.132 154.347 146.132 155.365 146.131H155.429V146.196C155.432 150.852 155.434 155.802 155.437 161.026C155.438 163.638 155.439 166.318 155.44 169.064C155.441 170.436 155.442 171.826 155.442 173.231C155.442 173.934 155.442 174.641 155.443 175.352C155.45 175.704 155.428 176.074 155.37 176.43C155.299 176.786 155.21 177.14 155.072 177.477C154.812 178.156 154.428 178.796 153.915 179.329C153.413 179.866 152.744 180.286 151.992 180.402C151.61 180.445 151.248 180.427 150.878 180.431C150.508 180.431 150.138 180.432 149.768 180.432C149.026 180.432 148.28 180.432 147.53 180.432C144.532 180.434 141.474 180.434 138.358 180.436C132.126 180.437 125.664 180.439 118.992 180.441C105.648 180.444 91.4672 180.446 76.6196 180.449C74.7636 180.45 72.8972 180.45 71.0208 180.45C70.0784 180.441 69.1512 180.47 68.1892 180.431C67.2244 180.336 66.3012 179.865 65.6584 179.133C65.0064 178.409 64.6612 177.421 64.6852 176.449C64.6836 175.496 64.6816 174.541 64.68 173.583C64.6764 171.668 64.6728 169.743 64.6692 167.809C64.6552 160.073 64.6408 152.192 64.626 144.187L64.7292 144.29C64.1408 144.29 63.5504 144.29 62.958 144.29C62.3656 144.3 61.768 144.264 61.1888 144.331C60.606 144.4 60.0316 144.55 59.4816 144.767C58.938 144.998 58.372 145.244 57.7932 145.42C55.478 146.169 52.9316 146.26 50.5204 145.687C48.12 145.092 45.8252 143.884 44.0604 142.083C43.142 141.22 42.4128 140.175 41.7612 139.096C41.48 138.53 41.1544 137.984 40.9512 137.381C40.8424 137.084 40.7084 136.795 40.6196 136.49L40.3696 135.572C39.642 132.554 39.914 129.3 41.2124 126.499C42.4904 123.692 44.7368 121.365 47.4492 119.976C48.8036 119.275 50.2768 118.828 51.7752 118.606C53.2764 118.402 54.8056 118.438 56.2868 118.712C57.0272 118.85 57.7556 119.047 58.4616 119.302C58.8144 119.43 59.1632 119.569 59.5028 119.729C59.8468 119.887 60.1688 120.046 60.518 120.165C61.8984 120.71 63.4076 120.511 64.8808 120.548L64.778 120.651C64.7784 114.924 64.7788 109.267 64.7792 103.689C64.7796 100.9 64.78 98.1309 64.78 95.3825C64.7936 94.6985 64.736 94.0081 64.862 93.3117C64.9832 92.6225 65.2708 91.9665 65.6824 91.4053C66.4972 90.2737 67.8236 89.5337 69.2072 89.4553C80.0324 89.4513 90.508 89.4477 100.568 89.4441L100.474 89.5501C100.422 89.1325 100.372 88.7321 100.322 88.3325L100.322 88.3265V88.3205C100.322 87.5761 100.188 86.8353 99.9504 86.1337C99.834 85.7809 99.68 85.4469 99.5324 85.0973C99.3892 84.7493 99.2608 84.3957 99.144 84.0389C98.6816 82.6105 98.4512 81.1185 98.4512 79.6373L98.5112 78.5297C98.5252 78.3457 98.5228 78.1605 98.5496 77.9781L98.6392 77.4333C98.7072 77.0721 98.7392 76.7037 98.8372 76.3505L99.1304 75.2925C99.1724 75.1141 99.2364 74.9433 99.3072 74.7749L99.508 74.2665C99.64 73.9269 99.768 73.5865 99.9496 73.2713L100.454 72.3093L101.052 71.4065C101.889 70.2397 102.85 69.1561 103.987 68.3021L104.401 67.9677L104.844 67.6757C105.142 67.4853 105.433 67.2837 105.735 67.1037C106.366 66.7909 106.972 66.4285 107.637 66.2049C108.928 65.6593 110.306 65.3901 111.671 65.2385C112.358 65.2089 113.044 65.1365 113.726 65.2061C114.066 65.2289 114.408 65.2349 114.746 65.2717C115.082 65.3229 115.418 65.3737 115.753 65.4245C118.413 65.9457 120.884 67.1829 122.817 68.9565C124.75 70.7233 126.196 72.9661 126.917 75.3929C127.675 77.8085 127.737 80.3741 127.212 82.7481C126.947 83.9349 126.52 85.0765 125.995 86.1381C125.756 86.6749 125.576 87.2349 125.472 87.8065C125.359 88.3789 125.358 88.9549 125.362 89.5385L125.288 89.4645C132.27 89.4421 138.812 89.4209 144.874 89.4017C146.389 89.3969 147.874 89.3925 149.329 89.3877C149.693 89.3865 150.055 89.3853 150.414 89.3845C150.774 89.3809 151.132 89.3801 151.494 89.4061C152.212 89.4749 152.903 89.7161 153.504 90.0837C154.719 90.8117 155.522 92.0937 155.7 93.4269C155.784 94.0989 155.736 94.7541 155.748 95.4033C155.746 96.0521 155.745 96.6933 155.744 97.3261C155.724 107.45 155.707 115.498 155.696 121.159V121.189L155.666 121.19C154.684 121.203 153.771 121.248 152.917 121.231C152.062 121.169 151.299 120.925 150.637 120.634C149.331 120.014 148.198 119.63 147.272 119.44C146.346 119.248 145.641 119.218 145.178 119.215C144.946 119.213 144.773 119.22 144.658 119.225C144.545 119.228 144.488 119.228 144.488 119.228C144.488 119.228 144.714 119.201 145.18 119.198C145.644 119.196 146.35 119.22 147.28 119.408C148.209 119.593 149.35 119.975 150.658 120.59C151.316 120.877 152.076 121.117 152.922 121.176C153.768 121.19 154.686 121.143 155.666 121.127L155.636 121.158C155.637 115.497 155.638 107.448 155.638 97.3245C155.638 96.6917 155.638 96.0509 155.639 95.4017C155.627 94.7549 155.672 94.0897 155.59 93.4413C155.414 92.1413 154.63 90.8921 153.444 90.1841C152.857 89.8265 152.184 89.5925 151.484 89.5261C151.135 89.5017 150.777 89.5025 150.417 89.5065C150.057 89.5081 149.695 89.5097 149.332 89.5113C147.877 89.5177 146.392 89.5237 144.876 89.5305C138.814 89.5561 132.273 89.5833 125.291 89.6125L125.217 89.6129L125.216 89.5385C125.211 88.9613 125.212 88.3625 125.327 87.7797C125.433 87.1957 125.616 86.6241 125.859 86.0769C126.384 85.0109 126.801 83.8921 127.063 82.7145C127.582 80.3673 127.518 77.8273 126.766 75.4401C126.052 73.0413 124.62 70.8249 122.708 69.0793C120.796 67.3269 118.351 66.1061 115.723 65.5925C115.392 65.5425 115.06 65.4925 114.728 65.4421C114.394 65.4061 114.056 65.4005 113.72 65.3781C113.045 65.3089 112.368 65.3817 111.689 65.4109C110.34 65.5617 108.979 65.8277 107.704 66.3681C107.047 66.5889 106.449 66.9481 105.826 67.2569C105.527 67.4345 105.24 67.6345 104.946 67.8225L104.508 68.1113L104.1 68.4421C102.976 69.2861 102.028 70.3573 101.202 71.5101L100.612 72.4017L100.114 73.3521C99.9348 73.6633 99.8088 73.9997 99.6788 74.3349L99.4808 74.8369C99.4112 75.0033 99.348 75.1717 99.3068 75.3477L99.018 76.3925C98.9216 76.7413 98.8904 77.1053 98.8232 77.4617L98.7348 77.9997C98.7084 78.1797 98.7108 78.3625 98.6972 78.5441L98.6384 79.6377C98.6392 81.1001 98.8672 82.5725 99.324 83.9821C99.4392 84.3341 99.566 84.6829 99.7076 85.0265C99.8512 85.3661 100.011 85.7133 100.13 86.0741C100.374 86.7933 100.512 87.5541 100.512 88.3209L100.512 88.3093C100.562 88.7089 100.612 89.1093 100.664 89.5269L100.677 89.6329H100.57C90.5148 89.6397 80.0436 89.6469 69.2232 89.6545C67.8972 89.7297 66.6272 90.4397 65.8468 91.5237C65.4524 92.0613 65.1772 92.6889 65.0616 93.3489C64.9412 94.0037 64.996 94.6961 64.9832 95.3833C64.9836 98.1317 64.9836 100.901 64.984 103.69C64.9844 109.268 64.9848 114.924 64.9856 120.652V120.755H64.8824C64.1444 120.755 63.4052 120.755 62.6648 120.755C61.9112 120.754 61.16 120.612 60.4508 120.36C60.096 120.24 59.75 120.069 59.418 119.916C59.084 119.76 58.7404 119.622 58.3928 119.496C57.6972 119.245 56.9796 119.052 56.2504 118.916C54.7912 118.646 53.284 118.61 51.8048 118.812C50.3288 119.031 48.8796 119.47 47.5456 120.161C44.8752 121.529 42.6612 123.822 41.4032 126.586C40.1248 129.343 39.8572 132.55 40.5736 135.523L40.82 136.427C40.9072 136.727 41.0392 137.012 41.1468 137.304C41.3464 137.898 41.6676 138.436 41.9444 138.993C42.5864 140.056 43.304 141.086 44.2088 141.935C45.9464 143.709 48.2064 144.899 50.57 145.484C52.9444 146.049 55.4528 145.96 57.732 145.223C58.3076 145.046 58.8472 144.812 59.4076 144.574C59.9728 144.351 60.5648 144.196 61.1668 144.126C61.7736 144.056 62.3688 144.093 62.96 144.083C63.5524 144.083 64.1428 144.083 64.7312 144.083H64.8344V144.186C64.848 152.192 64.8612 160.073 64.874 167.808C64.8772 169.742 64.8804 171.667 64.8836 173.583C64.8852 174.54 64.8868 175.496 64.8884 176.449C64.8664 177.384 65.1924 178.309 65.8108 179C66.4204 179.694 67.296 180.141 68.2112 180.232C69.1336 180.269 70.0896 180.242 71.0232 180.251C72.8996 180.251 74.766 180.251 76.622 180.252C91.4696 180.254 105.651 180.257 118.994 180.26C125.666 180.262 132.129 180.264 138.361 180.266C141.477 180.267 144.535 180.268 147.533 180.269C148.282 180.269 149.028 180.269 149.77 180.27C150.141 180.27 150.511 180.27 150.88 180.27C151.247 180.266 151.623 180.283 151.972 180.244C152.678 180.134 153.317 179.739 153.802 179.219C154.299 178.705 154.674 178.082 154.928 177.42C155.062 177.092 155.148 176.748 155.218 176.403C155.274 176.054 155.296 175.71 155.289 175.352C155.289 174.641 155.289 173.934 155.29 173.232C155.29 171.826 155.291 170.437 155.291 169.064C155.292 166.318 155.294 163.638 155.295 161.026C155.298 155.802 155.3 150.852 155.302 146.196L155.367 146.26C154.349 146.26 153.344 146.259 152.353 146.259C151.362 146.218 150.402 146.407 149.516 146.792C147.703 147.474 145.787 147.726 143.969 147.548C142.148 147.397 140.422 146.853 138.923 146.024C137.422 145.194 136.148 144.086 135.154 142.837C134.159 141.585 133.448 140.191 133.012 138.78C132.576 137.368 132.404 135.944 132.442 134.587C132.565 131.865 133.453 129.497 134.434 127.53C136.452 123.579 139.127 121.218 141.166 120.19C142.189 119.667 143.042 119.44 143.615 119.338C143.901 119.278 144.122 119.265 144.268 119.249C144.414 119.233 144.488 119.228 144.488 119.228Z" fill="#263238"/>
<path d="M253.277 120.337C251.264 120.337 249.353 120.768 247.623 121.538C247.017 121.807 246.381 121.998 245.73 122.094V93.6252C245.73 91.5296 244.032 89.8304 241.936 89.8304H212.314V93.192C212.314 93.9688 212.468 94.7364 212.759 95.4564C213.345 96.9044 213.672 98.4836 213.672 100.142C213.672 107.261 207.759 112.999 200.576 112.713C194.247 112.461 188.981 107.347 188.54 101.028C188.384 98.8012 188.821 96.696 189.694 94.8348C190.084 94.0032 190.309 93.106 190.309 92.1872V89.8304L160.298 89.7352C157.724 89.7352 155.638 91.8216 155.638 94.3952L155.61 120.798H153.564C153.332 120.798 153.096 120.792 152.86 120.774C150.328 118.926 147.208 117.832 143.832 117.832C135.364 117.832 128.5 124.697 128.5 133.165C128.5 141.633 135.364 148.497 143.832 148.497C146.602 148.497 149.198 147.759 151.44 146.474C151.847 146.386 152.263 146.338 152.682 146.338H155.308V175.806C155.308 178.38 157.394 180.466 159.968 180.466H241.936C244.031 180.466 245.73 178.768 245.73 176.672V146.668C246.236 146.794 246.728 146.976 247.2 147.206C249.708 148.426 252.624 148.927 255.699 148.401C261.803 147.358 266.566 142.26 267.239 136.068C268.166 127.546 261.558 120.337 253.277 120.337Z" fill="#F5F5F5"/>
<path d="M253.277 120.337C253.277 120.337 253.577 120.347 254.168 120.376C254.463 120.392 254.832 120.394 255.264 120.481C255.481 120.516 255.715 120.554 255.967 120.594C256.221 120.624 256.485 120.695 256.763 120.776C257.043 120.852 257.34 120.934 257.653 121.02C257.961 121.123 258.276 121.259 258.611 121.387C258.778 121.454 258.951 121.517 259.123 121.592C259.291 121.679 259.461 121.768 259.636 121.858C259.981 122.047 260.361 122.208 260.708 122.461C262.157 123.357 263.683 124.687 264.932 126.546C266.164 128.395 267.175 130.779 267.318 133.528C267.333 133.87 267.363 134.217 267.365 134.566C267.346 134.916 267.327 135.27 267.308 135.627C267.294 135.806 267.297 135.986 267.27 136.166C267.243 136.344 267.216 136.524 267.189 136.705C267.161 136.886 267.133 137.068 267.105 137.25C267.062 137.43 267.019 137.61 266.977 137.792C266.633 139.244 266.039 140.701 265.179 142.065C264.318 143.427 263.2 144.704 261.828 145.759C260.455 146.809 258.841 147.645 257.065 148.147C256.625 148.282 256.163 148.352 255.708 148.459C255.246 148.532 254.778 148.598 254.304 148.628C253.357 148.7 252.388 148.675 251.419 148.544C250.449 148.419 249.482 148.177 248.536 147.838C247.579 147.516 246.711 146.956 245.715 146.731L245.795 146.668C245.797 151.276 245.8 156.168 245.803 161.324C245.804 163.902 245.805 166.545 245.806 169.252C245.807 170.606 245.807 171.975 245.808 173.36C245.808 174.052 245.808 174.748 245.809 175.448C245.809 175.798 245.809 176.15 245.809 176.502C245.813 176.676 245.799 176.858 245.791 177.037C245.764 177.215 245.75 177.396 245.7 177.57C245.383 178.986 244.184 180.176 242.725 180.466C242.363 180.535 241.986 180.554 241.626 180.547C241.263 180.547 240.899 180.547 240.533 180.547C239.803 180.548 239.069 180.548 238.332 180.548C235.381 180.549 232.373 180.55 229.309 180.551C223.18 180.552 216.828 180.554 210.274 180.556C197.165 180.558 183.245 180.561 168.675 180.564C166.854 180.564 165.023 180.564 163.181 180.565C162.261 180.565 161.338 180.565 160.412 180.565C159.954 180.571 159.473 180.558 159.008 180.469C158.545 180.366 158.097 180.202 157.677 179.978C156.847 179.515 156.151 178.808 155.723 177.953C155.498 177.53 155.359 177.066 155.277 176.596C155.187 176.122 155.211 175.64 155.207 175.175C155.207 173.296 155.206 171.408 155.206 169.51C155.206 161.921 155.205 154.19 155.204 146.338L155.307 146.441C154.701 146.441 154.065 146.441 153.414 146.441C153.09 146.443 152.755 146.435 152.433 146.447C152.108 146.462 151.782 146.506 151.461 146.575L151.491 146.564C149.61 147.638 147.471 148.336 145.253 148.534C143.039 148.722 140.754 148.452 138.619 147.679C136.485 146.911 134.499 145.666 132.874 144.033C131.261 142.39 130.005 140.379 129.245 138.183C128.716 136.608 128.415 134.956 128.401 133.298C128.407 131.642 128.651 129.994 129.145 128.421C129.642 126.848 130.428 125.381 131.387 124.057C131.855 123.382 132.419 122.788 132.978 122.193L133.884 121.369C134.19 121.1 134.531 120.874 134.853 120.624C136.181 119.683 137.643 118.938 139.187 118.442C140.738 117.97 142.349 117.747 143.959 117.731C147.18 117.744 150.359 118.811 152.92 120.691L152.867 120.672C153.773 120.717 154.699 120.685 155.609 120.695L155.506 120.798C155.513 115.157 155.519 109.588 155.526 104.098C155.529 101.353 155.533 98.6276 155.536 95.9236L155.537 94.9104C155.533 94.5752 155.538 94.2348 155.565 93.8896C155.639 93.2056 155.864 92.5404 156.217 91.9536C156.916 90.774 158.141 89.9264 159.487 89.71C160.164 89.5956 160.831 89.6504 161.491 89.6404C162.153 89.6424 162.815 89.6448 163.474 89.6468C164.793 89.6512 166.107 89.6556 167.415 89.66C170.031 89.6688 172.624 89.6776 175.193 89.686C180.331 89.7032 185.372 89.7204 190.308 89.7372L190.401 89.7376V89.8308C190.401 90.5376 190.401 91.2424 190.401 91.9448C190.421 92.6508 190.322 93.3712 190.103 94.0432C189.998 94.38 189.855 94.7088 189.71 95.0224C189.565 95.336 189.439 95.6576 189.321 95.9804C189.092 96.6296 188.91 97.294 188.793 97.968C188.3 100.665 188.768 103.471 190.001 105.829C190.617 107.009 191.403 108.094 192.344 109.012C193.284 109.93 194.356 110.698 195.509 111.286C197.81 112.494 200.457 112.848 202.939 112.493C205.426 112.125 207.744 110.994 209.533 109.344C210.412 108.51 211.219 107.594 211.81 106.55C212.417 105.523 212.905 104.426 213.178 103.282C213.79 101.01 213.71 98.6088 213.03 96.448C212.876 95.9024 212.622 95.3952 212.467 94.84C212.311 94.29 212.234 93.7196 212.237 93.154C212.237 92.0352 212.238 90.9276 212.239 89.8312V89.7568H212.313C220.103 89.7604 227.345 89.764 233.992 89.7672C235.654 89.768 237.278 89.7692 238.865 89.77C239.658 89.7704 240.441 89.7708 241.215 89.7716C241.602 89.774 241.986 89.762 242.375 89.7992C242.761 89.8424 243.135 89.9516 243.487 90.1008C244.187 90.4124 244.783 90.928 245.181 91.5588C245.587 92.1872 245.783 92.9264 245.785 93.6508C245.784 95.0816 245.783 96.4732 245.782 97.824C245.77 108.63 245.761 116.853 245.755 122.094L245.726 122.069C247.06 121.896 248.064 121.246 249.014 120.986C249.951 120.686 250.75 120.54 251.385 120.453C252.021 120.37 252.495 120.347 252.809 120.34C253.124 120.333 253.277 120.337 253.277 120.337C253.277 120.337 253.124 120.341 252.811 120.352C252.498 120.364 252.024 120.391 251.39 120.478C250.757 120.569 249.96 120.72 249.027 121.023C248.084 121.284 247.08 121.939 245.734 122.119L245.705 122.123V122.094C245.699 116.852 245.69 108.63 245.678 97.824C245.677 96.4728 245.676 95.0816 245.675 93.6508C245.672 92.9456 245.481 92.2292 245.086 91.6196C244.699 91.008 244.12 90.508 243.44 90.2068C243.098 90.0628 242.736 89.9568 242.361 89.9156C241.989 89.88 241.602 89.8916 241.215 89.8904C240.441 89.8908 239.658 89.8912 238.865 89.892C237.278 89.8928 235.654 89.894 233.992 89.8948C227.345 89.898 220.103 89.9016 212.313 89.9052L212.387 89.8308C212.388 90.9272 212.388 92.0348 212.389 93.1536C212.387 93.7068 212.462 94.2612 212.614 94.798C212.763 95.332 213.02 95.8484 213.178 96.4016C213.867 98.5892 213.951 101.02 213.333 103.322C213.057 104.481 212.564 105.592 211.95 106.633C211.352 107.69 210.535 108.619 209.644 109.465C207.833 111.137 205.485 112.286 202.964 112.66C200.45 113.022 197.763 112.664 195.43 111.44C194.261 110.845 193.174 110.068 192.221 109.137C191.265 108.207 190.467 107.107 189.843 105.911C188.591 103.52 188.115 100.672 188.613 97.9348C188.732 97.2508 188.916 96.5764 189.148 95.9176C189.268 95.5896 189.395 95.2632 189.542 94.9452C189.689 94.6276 189.824 94.316 189.928 93.986C190.14 93.3292 190.235 92.6428 190.215 91.944C190.215 91.2416 190.215 90.5368 190.215 89.83L190.308 89.9232C185.372 89.9084 180.331 89.8936 175.193 89.8784C172.625 89.8708 170.032 89.8628 167.416 89.8552C166.108 89.8512 164.794 89.8472 163.475 89.8432C162.815 89.8412 162.154 89.8392 161.491 89.8372C160.829 89.8468 160.159 89.7948 159.521 89.9048C158.232 90.1124 157.058 90.9252 156.388 92.056C156.05 92.618 155.835 93.2552 155.764 93.9104C155.738 94.2368 155.733 94.5708 155.737 94.9104L155.736 95.9236C155.733 98.6276 155.731 101.353 155.728 104.098C155.723 109.588 155.717 115.157 155.711 120.798V120.901L155.609 120.9C154.693 120.89 153.788 120.923 152.853 120.876L152.824 120.875L152.799 120.857C150.272 119.002 147.136 117.95 143.957 117.937C142.369 117.954 140.78 118.174 139.249 118.639C137.727 119.129 136.285 119.864 134.975 120.792C134.657 121.039 134.32 121.261 134.019 121.528L133.125 122.34C132.574 122.927 132.017 123.514 131.556 124.18C130.61 125.486 129.834 126.932 129.344 128.484C128.857 130.036 128.616 131.662 128.611 133.296C128.625 134.932 128.921 136.561 129.443 138.115C130.193 140.281 131.432 142.264 133.023 143.886C134.627 145.498 136.586 146.725 138.69 147.483C140.795 148.246 143.05 148.512 145.235 148.327C147.423 148.132 149.533 147.444 151.389 146.384L151.403 146.376L151.419 146.372C151.75 146.301 152.087 146.256 152.424 146.24C152.765 146.228 153.087 146.237 153.415 146.234C154.066 146.234 154.702 146.234 155.309 146.234H155.412V146.337C155.411 154.19 155.411 161.921 155.41 169.51C155.41 171.407 155.409 173.296 155.409 175.175C155.414 175.647 155.391 176.112 155.477 176.562C155.555 177.012 155.688 177.457 155.903 177.861C156.313 178.681 156.981 179.358 157.775 179.802C158.177 180.016 158.606 180.174 159.049 180.272C159.498 180.357 159.947 180.37 160.413 180.365C161.339 180.365 162.262 180.365 163.183 180.365C165.024 180.366 166.855 180.366 168.676 180.366C183.245 180.369 197.166 180.372 210.275 180.374C216.829 180.376 223.181 180.378 229.31 180.38C232.374 180.381 235.383 180.382 238.333 180.382C239.071 180.383 239.805 180.383 240.535 180.383C240.9 180.383 241.264 180.384 241.627 180.384C241.994 180.39 242.343 180.372 242.693 180.306C244.091 180.031 245.242 178.889 245.547 177.532C245.631 177.194 245.656 176.852 245.653 176.5C245.653 176.148 245.653 175.797 245.653 175.447C245.653 174.747 245.653 174.05 245.654 173.358C245.654 171.973 245.655 170.604 245.655 169.25C245.657 166.543 245.658 163.9 245.659 161.322C245.661 156.166 245.664 151.274 245.666 146.666V146.585L245.747 146.604C246.768 146.838 247.639 147.402 248.579 147.718C249.516 148.055 250.475 148.296 251.436 148.421C252.397 148.552 253.357 148.578 254.296 148.508C254.767 148.478 255.23 148.414 255.689 148.342C256.14 148.237 256.597 148.168 257.035 148.034C258.796 147.539 260.398 146.712 261.763 145.672C263.125 144.626 264.237 143.361 265.094 142.01C265.95 140.657 266.543 139.211 266.886 137.77C266.929 137.589 266.972 137.41 267.015 137.231C267.043 137.05 267.071 136.87 267.099 136.69C267.126 136.51 267.153 136.332 267.181 136.154C267.208 135.976 267.205 135.796 267.219 135.619C267.239 135.264 267.259 134.912 267.279 134.565C267.277 134.217 267.247 133.873 267.234 133.533C267.096 130.799 266.097 128.427 264.875 126.584C263.637 124.731 262.121 123.403 260.681 122.505C260.336 122.252 259.958 122.09 259.615 121.901C259.441 121.81 259.271 121.721 259.105 121.634C258.934 121.558 258.761 121.495 258.595 121.428C258.261 121.299 257.948 121.162 257.642 121.057C257.33 120.97 257.034 120.888 256.755 120.81C256.477 120.728 256.215 120.656 255.962 120.625C255.711 120.583 255.477 120.544 255.261 120.508C254.831 120.418 254.462 120.413 254.167 120.394C253.577 120.36 253.277 120.337 253.277 120.337Z" fill="#263238"/>
<path d="M153.391 125.59C153.391 125.59 154.736 124.896 155.924 125.156C157.112 125.417 161.425 128.229 161.425 128.229L164.901 127.58L166.949 137.394L153.391 143.028V125.59Z" fill="#AE7461"/>
<path d="M143.361 129.011C143.361 129.011 146.467 128.619 147.592 128.056C148.717 127.494 151.4 125.114 151.962 125.157C152.525 125.2 154.559 125.59 154.559 125.59L153.736 128.056C153.736 128.056 157.804 130.523 159.015 131.432C160.227 132.34 164.035 136.408 164.208 137.403C164.381 138.398 164.078 139.567 163.602 139.956C163.126 140.346 161.395 139.567 161.395 139.567C161.395 139.567 161.655 140.476 161.006 141.341C160.357 142.206 158.842 141.903 158.842 141.903C158.842 141.903 158.713 143.331 158.02 143.591C157.327 143.85 155.77 143.072 155.77 143.072C155.77 143.072 155.3 144.283 154.734 144.413C154.169 144.543 152.567 143.591 152.567 143.591C152.567 143.591 145.644 138.615 144.086 137.879C142.528 137.144 142.052 137.1 142.052 137.1L143.361 129.011Z" fill="#FFBE9D"/>
<path d="M155.77 143.072C155.739 143.071 155.719 142.95 155.646 142.768C155.574 142.586 155.452 142.341 155.298 142.077C154.99 141.549 154.713 141.127 154.763 141.09C154.805 141.058 155.159 141.426 155.479 141.973C155.637 142.246 155.747 142.518 155.788 142.727C155.83 142.938 155.796 143.074 155.77 143.072Z" fill="#EB996E"/>
<path d="M158.648 142.23C158.591 142.26 158.253 141.638 157.775 140.923C157.302 140.203 156.795 139.722 156.831 139.677C156.864 139.629 157.459 140.064 157.948 140.806C158.438 141.541 158.694 142.208 158.648 142.23Z" fill="#EB996E"/>
<path d="M161.425 139.733C161.364 139.748 161.171 138.999 160.692 138.192C160.222 137.379 159.663 136.845 159.706 136.799C159.736 136.756 160.381 137.24 160.872 138.086C161.37 138.928 161.477 139.728 161.425 139.733Z" fill="#EB996E"/>
<path d="M159.398 134.332C159.452 134.32 159.601 134.836 159.629 135.492C159.66 136.148 159.557 136.675 159.502 136.668C159.442 136.662 159.451 136.14 159.421 135.501C159.394 134.862 159.34 134.343 159.398 134.332Z" fill="#EB996E"/>
<path d="M149.322 130.436C149.322 130.436 150.404 126.974 150.793 126.542C151.183 126.109 154.801 125.156 154.801 125.156L155.923 128.056L155.12 128.906L153.389 128.792C153.39 128.792 152.308 131.648 149.322 130.436Z" fill="#AE7461"/>
<path d="M142.683 137.282C142.683 137.282 142.188 137.662 142.683 138.571C143.178 139.48 144.519 138.831 144.952 138.571C144.952 138.571 144.303 140.086 145.125 140.562C145.947 141.038 146.943 140.908 146.943 140.908C146.943 140.908 146.9 141.817 148.068 142.422C149.236 143.028 149.539 142.422 149.539 142.422C149.539 142.422 149.669 143.937 151.01 144.067C152.352 144.196 152.824 143.736 152.824 143.736L152.222 142.841C152.222 142.841 153.001 141.254 152.395 140.562C151.789 139.869 150.794 139.956 150.794 139.956C150.794 139.956 151.059 138.55 150.287 138.158C148.853 137.431 148.241 138.788 148.241 138.788C148.241 138.788 148.154 137.247 147.029 137.282C145.904 137.317 145.298 138.009 145.298 138.009L142.683 137.282Z" fill="#AE7461"/>
<path d="M148.241 138.788C148.292 138.813 148.08 139.34 147.725 139.942C147.372 140.544 147.014 140.986 146.967 140.954C146.919 140.921 147.197 140.432 147.546 139.836C147.896 139.241 148.189 138.762 148.241 138.788Z" fill="#6F4439"/>
<path d="M150.822 140.151C150.872 140.174 150.651 140.737 150.232 141.348C149.814 141.961 149.37 142.37 149.33 142.332C149.286 142.292 149.652 141.829 150.06 141.23C150.47 140.634 150.768 140.124 150.822 140.151Z" fill="#6F4439"/>
<path d="M124.018 156.481H117.454L115.773 180.35H122.355C123.475 176.715 126.275 157.771 126.275 157.771L124.018 156.481Z" fill="#263238"/>
<path d="M86.8425 156.481C86.8425 156.481 82.6417 166.332 83.0617 170.319C83.4817 174.306 85.8409 180.35 85.8409 180.35H118.351C118.351 180.35 119.258 177.02 119.959 172.095C120.659 167.169 122.549 156.481 122.549 156.481H86.8425Z" fill="#263238"/>
<path d="M129.804 61.4144C128.706 60.0288 127.348 58.6944 127.068 56.9492C126.809 55.3444 127.511 53.5872 126.791 52.13C125.906 50.3368 123.361 49.9864 122.258 48.3188C121.723 47.5112 121.596 46.488 121.069 45.676C120.17 44.292 118.325 43.8464 116.678 43.9412C115.03 44.036 113.423 44.548 111.774 44.5824C109.51 44.63 107.218 43.7808 105.02 44.3228C102.595 44.9208 101.03 46.9648 99.376 48.9364L97.2332 51.212C96.794 51.598 96.332 51.9504 95.8292 52.242C94.9496 52.752 93.9552 53.0852 93.188 53.7524C91.5464 55.18 91.5372 58.08 93.17 59.518C91.406 59.9876 90.0716 61.7404 90.088 63.5656C90.0972 64.57 90.4672 65.5296 90.7204 66.5012C90.974 67.4728 91.1028 68.5472 90.6584 69.4476C90.2136 70.348 89.0072 70.9216 88.1572 70.3864C88.4028 71.6996 89.2768 72.8804 90.4612 73.498C89.9672 73.9592 89.292 74.2208 88.616 74.2132C90.2384 78.5984 95.1076 81.0964 99.7764 81.344C104.446 81.5916 109 80.034 113.416 78.4972L126.147 75.8268C127.263 75.6264 127.787 74.3064 127.825 73.1728C127.862 72.0392 127.632 70.8472 128.086 69.808C128.71 68.3836 130.433 67.6936 131.082 66.2804C131.819 64.674 130.901 62.8 129.804 61.4144Z" fill="#263238"/>
<path d="M99.5072 71.4737C98.7312 68.5889 97.9676 65.6833 97.6996 62.7081C97.4316 59.7329 97.6796 56.6585 98.8632 53.9157C99.0428 53.5001 100.532 50.7249 100.98 50.7925C101.3 50.8409 100.336 53.4513 100.484 53.7389C101.899 56.4849 102.156 59.7129 101.75 62.7749C101.344 65.8369 100.561 68.5701 99.5072 71.4737Z" fill="#263238"/>
<path d="M99.799 60.0757C99.9414 52.5849 104.419 46.4241 111.903 46.7737L112.593 46.8461C119.535 47.5781 124.753 53.5153 124.581 60.4929C124.422 66.9849 124.163 74.1557 123.756 77.6049C122.914 84.7449 115.646 85.1029 115.646 85.1029C115.63 85.1021 115.45 96.8973 115.45 96.8973L98.4326 85.1057L99.799 60.0757Z" fill="#FFBE9D"/>
<path d="M115.646 85.1033C115.646 85.1033 111.111 84.8925 106.627 81.3701C106.627 81.3701 108.303 87.4125 115.505 87.5209L115.646 85.1033Z" fill="#EB996E"/>
<path d="M122.104 66.0337C122.067 66.5749 121.577 66.9893 121.011 66.9601C120.446 66.9309 120.018 66.4697 120.056 65.9285C120.094 65.3873 120.583 64.9725 121.148 65.0013C121.714 65.0305 122.142 65.4929 122.104 66.0337Z" fill="#263238"/>
<path d="M122.74 63.2993C122.6 63.4189 121.887 62.7649 120.788 62.6521C119.692 62.5237 118.826 63.0037 118.721 62.8565C118.668 62.7909 118.823 62.5641 119.201 62.3453C119.573 62.1273 120.189 61.9417 120.873 62.0169C121.557 62.0929 122.106 62.4053 122.41 62.6981C122.72 62.9933 122.809 63.2461 122.74 63.2993Z" fill="#263238"/>
<path d="M112.161 66.0337C112.123 66.5749 111.634 66.9893 111.068 66.9601C110.503 66.9309 110.075 66.4701 110.113 65.9285C110.151 65.3877 110.64 64.9725 111.205 65.0017C111.771 65.0305 112.199 65.4929 112.161 66.0337Z" fill="#263238"/>
<path d="M111.932 62.6092C111.791 62.7288 111.076 62.0748 109.978 61.962C108.882 61.8336 108.016 62.3136 107.911 62.1664C107.859 62.1008 108.012 61.874 108.392 61.6556C108.764 61.4372 109.38 61.252 110.064 61.3268C110.748 61.4028 111.296 61.7156 111.6 62.008C111.91 62.3036 112 62.5564 111.932 62.6092Z" fill="#263238"/>
<path d="M114.983 71.4669C114.985 71.4041 115.68 71.3577 116.802 71.3329C117.085 71.3337 117.357 71.3057 117.424 71.1193C117.512 70.9237 117.426 70.6089 117.325 70.2681C117.132 69.5613 116.931 68.8209 116.72 68.0445C115.889 64.8817 115.318 62.2929 115.446 62.2601C115.574 62.2277 116.351 64.7653 117.183 67.9285C117.381 68.7081 117.571 69.4505 117.751 70.1613C117.823 70.4913 117.968 70.8721 117.781 71.2777C117.683 71.4793 117.461 71.6097 117.276 71.6393C117.091 71.6753 116.933 71.6617 116.793 71.6553C115.672 71.5977 114.981 71.5301 114.983 71.4669Z" fill="#263238"/>
<path d="M111.669 71.8861C111.849 71.8945 111.726 73.0873 112.657 74.0413C113.587 74.9977 114.872 74.9977 114.864 75.1657C114.873 75.2421 114.556 75.3677 114.018 75.3257C113.49 75.2881 112.739 75.0381 112.169 74.4545C111.601 73.8697 111.407 73.1489 111.417 72.6553C111.425 72.1521 111.589 71.8705 111.669 71.8861Z" fill="#263238"/>
<path d="M112.341 58.1445C112.201 58.4321 111.119 58.1744 109.814 58.194C108.509 58.1872 107.429 58.4548 107.286 58.1692C107.223 58.0328 107.435 57.7712 107.885 57.526C108.332 57.2812 109.025 57.0769 109.809 57.0721C110.591 57.0693 111.287 57.2664 111.736 57.5068C112.189 57.748 112.403 58.0077 112.341 58.1445Z" fill="#263238"/>
<path d="M122.671 59.5993C122.452 59.8285 121.722 59.4897 120.813 59.3813C119.908 59.2413 119.115 59.3721 118.965 59.0921C118.9 58.9573 119.048 58.7201 119.41 58.5193C119.766 58.3189 120.342 58.1853 120.965 58.2701C121.588 58.3557 122.106 58.6389 122.396 58.9281C122.691 59.2185 122.769 59.4865 122.671 59.5993Z" fill="#263238"/>
<path d="M99.8253 65.4312C99.7089 65.3656 95.0661 63.4604 94.7069 68.3648C94.3481 73.2688 99.3457 72.618 99.3645 72.478C99.3829 72.3376 99.8253 65.4312 99.8253 65.4312Z" fill="#FFBE9D"/>
<path d="M98.0021 70.5101C97.9817 70.4929 97.9121 70.5633 97.7629 70.6193C97.6173 70.6733 97.3717 70.7001 97.1233 70.5857C96.6189 70.3577 96.2429 69.5033 96.2837 68.6173C96.3041 68.1701 96.4285 67.7521 96.6125 67.4117C96.7885 67.0641 97.0389 66.8301 97.3033 66.8029C97.5673 66.7621 97.7405 66.9317 97.7905 67.0741C97.8461 67.2161 97.8077 67.3117 97.8333 67.3221C97.8461 67.3357 97.9445 67.2477 97.9201 67.0421C97.9069 66.9433 97.8577 66.8233 97.7497 66.7205C97.6389 66.6165 97.4693 66.5545 97.2865 66.5609C96.9065 66.5593 96.5405 66.8821 96.3385 67.2557C96.1153 67.6297 95.9649 68.0989 95.9421 68.6013C95.9013 69.5917 96.3393 70.5537 97.0333 70.8105C97.3717 70.9257 97.6669 70.8429 97.8241 70.7381C97.9849 70.6281 98.0185 70.5205 98.0021 70.5101Z" fill="#EB996E"/>
<path d="M121.93 52.1593C122.753 51.7725 120.535 49.0469 118.64 48.0357C115.777 46.5077 111.325 45.3937 108.556 45.9897C105.222 46.7073 102.396 48.1617 100.561 51.0361C98.7246 53.9105 97.8834 57.3433 97.7598 60.7513C97.7222 61.7913 97.7602 62.8805 98.2582 63.7941C98.8738 64.9233 100.145 65.6913 99.991 67.1841C99.9346 67.7297 100.055 68.2921 100.405 68.7149C101.241 69.7281 102.397 68.9013 102.96 68.0337C104.162 66.1809 104.43 63.8941 104.667 61.6981C104.835 60.1373 105.001 58.5429 104.657 57.0113C104.469 56.1781 104.133 55.3805 103.992 54.5377C103.851 53.6949 103.937 52.7549 104.497 52.1105C104.589 52.0057 104.736 51.8757 104.922 51.7329C106.39 50.6041 108.359 50.3649 110.061 51.0933C112.762 52.2489 117.387 54.0125 118.68 53.1541C120.54 51.9189 121.021 51.0665 121.021 51.0665L121.93 52.1593Z" fill="#263238"/>
<path d="M108.855 45.3405C111.609 44.6121 114.676 44.8573 117.116 46.3289C118.411 47.1101 119.55 48.2989 119.865 49.7781C120.18 51.2573 119.444 53.0053 118.01 53.4845L117.91 53.5389C115.771 54.1089 114.428 53.7409 112.387 52.8841C110.67 52.1629 109.178 50.9785 107.457 50.2657C105.628 49.5081 103.569 49.3153 101.631 49.7201C103.645 47.7053 106.1 46.0685 108.855 45.3405Z" fill="#263238"/>
<path d="M110.096 44.4884C110.098 44.4752 110.275 44.4896 110.595 44.538C110.912 44.5976 111.371 44.6976 111.916 44.8976C112.459 45.0968 113.087 45.3976 113.723 45.8292C114.357 46.2588 115.007 46.8232 115.523 47.5532C116.045 48.2852 116.329 49.1004 116.514 49.8416C116.696 50.5872 116.775 51.2736 116.816 51.8488C116.857 52.4244 116.858 52.8912 116.852 53.2128C116.845 53.5348 116.829 53.7124 116.816 53.7124C116.801 53.7124 116.789 53.5348 116.771 53.2144C116.752 52.894 116.728 52.4308 116.669 51.8616C116.61 51.2932 116.516 50.6176 116.328 49.8888C116.137 49.1644 115.853 48.3744 115.353 47.6736C114.855 46.9704 114.227 46.4156 113.613 45.9876C112.998 45.5576 112.39 45.2488 111.862 45.0352C110.802 44.6112 110.088 44.5284 110.096 44.4884Z" fill="#455A64"/>
<path d="M114.611 44.216C114.616 44.2024 114.765 44.2444 115.035 44.3332C115.167 44.384 115.341 44.4196 115.519 44.5144C115.707 44.6096 115.912 44.7132 116.133 44.8252C117.006 45.336 118.084 46.3624 118.677 47.8172C118.839 48.1736 118.935 48.5428 119.037 48.896C119.105 49.2576 119.182 49.6044 119.197 49.9428C119.241 50.2784 119.216 50.6008 119.216 50.9004C119.179 51.198 119.167 51.4792 119.104 51.7268C119.045 51.9756 119.002 52.202 118.922 52.3896C118.849 52.5788 118.801 52.7464 118.725 52.8688C118.59 53.12 118.51 53.2536 118.497 53.2468C118.455 53.2268 118.793 52.686 118.959 51.7004C119.012 51.4576 119.015 51.182 119.044 50.8924C119.035 50.6 119.054 50.2868 119.006 49.9608C118.987 49.632 118.906 49.2956 118.839 48.9448C118.736 48.6024 118.642 48.244 118.485 47.8984C117.909 46.4876 116.888 45.4832 116.055 44.9508C115.844 44.8316 115.649 44.7212 115.469 44.62C115.299 44.5168 115.132 44.4708 115.006 44.4092C114.749 44.2984 114.607 44.23 114.611 44.216Z" fill="#455A64"/>
<path d="M117.811 95.7129C117.811 96.3861 121.185 111.203 122.476 114.843C123.767 118.482 127.856 154.981 127.318 157.58C126.78 160.18 125.381 160.076 125.381 160.076C125.381 160.076 92.3479 157.996 88.7971 158.308C85.2463 158.62 83.7399 158.516 82.8791 154.461C82.0183 150.405 82.9047 129.328 82.1515 124.233C81.3983 119.138 81.3919 116.668 81.1007 109.098C80.8483 102.537 82.3411 97.2745 85.4615 93.4765C88.5819 89.6785 95.4891 85.8381 95.4891 85.8381L97.9391 82.2649L115.277 91.4349L115.673 89.3477L116.725 92.5969L117.811 95.7129Z" fill="#455A64"/>
<g opacity="0.3">
<path d="M125.264 140.875C124.975 140.139 124.039 139.953 123.253 139.866C115.907 139.051 108.26 137.218 102.895 132.134C100.795 130.145 99.1402 127.742 97.545 125.33C94.0582 120.058 90.7802 114.651 87.5034 109.246L84.959 110.208C86.5198 117.84 88.0558 123.366 90.597 129.622C93.1414 135.885 95.1122 141.947 101.554 143.996C105.718 145.32 113.626 144.305 117.982 143.964C119.801 143.822 121.632 143.646 123.379 143.118C123.907 142.959 124.441 142.758 124.839 142.376C125.237 141.993 125.465 141.388 125.264 140.875Z" fill="black"/>
</g>
<path d="M84.0627 108.213C84.2527 108.552 98.9539 139.95 105.518 141.242C112.081 142.533 132.48 142.834 136.461 142.081C140.442 141.328 144.338 140.627 144.338 140.627C144.338 140.627 147.22 133.78 144.589 127.946L139.11 128.119C139.11 128.119 123.874 127.298 121.722 126.709C119.57 126.12 117.711 124.102 115.774 124.21L104.184 97.2377C104.184 97.2377 96.6523 90.2436 91.2723 92.3956C85.8919 94.548 82.4863 105.409 84.0627 108.213Z" fill="#455A64"/>
<path d="M139.532 141.715C139.518 141.711 139.558 141.523 139.64 141.188C139.727 140.854 139.836 140.365 139.95 139.759C140.067 139.154 140.168 138.426 140.24 137.615C140.304 136.803 140.333 135.908 140.298 134.969C140.216 133.089 139.882 131.41 139.552 130.223C139.388 129.629 139.24 129.151 139.126 128.825C139.015 128.497 138.96 128.313 138.974 128.308C138.987 128.303 139.067 128.477 139.202 128.797C139.34 129.115 139.51 129.589 139.694 130.182C140.062 131.367 140.424 133.061 140.506 134.961C140.542 135.909 140.506 136.815 140.432 137.633C140.348 138.451 140.231 139.183 140.094 139.789C139.961 140.395 139.83 140.881 139.719 141.21C139.611 141.54 139.545 141.72 139.532 141.715Z" fill="#263238"/>
<path d="M104.184 97.2382C104.184 97.2382 104.262 97.399 104.403 97.7162C104.545 98.039 104.751 98.5102 105.021 99.1254C105.561 100.369 106.353 102.191 107.366 104.525C109.388 109.209 112.296 115.946 115.85 124.177L115.77 124.128C116.685 124.085 117.544 124.483 118.339 124.915C119.139 125.355 119.913 125.868 120.763 126.256C121.602 126.682 122.555 126.781 123.52 126.897C124.485 127.012 125.471 127.096 126.469 127.183C130.467 127.513 134.704 127.774 139.115 128.02H139.107C140.83 127.965 142.694 127.905 144.586 127.845L144.655 127.843L144.682 127.905C145.527 129.839 145.881 132.015 145.779 134.193C145.685 136.373 145.239 138.567 144.434 140.667L144.414 140.719L144.356 140.729C143.253 140.933 142.066 141.152 140.872 141.373C139.593 141.609 138.322 141.844 137.059 142.077C135.794 142.323 134.504 142.418 133.241 142.47C130.706 142.586 128.209 142.595 125.755 142.583C123.301 142.569 120.89 142.512 118.531 142.425C116.172 142.341 113.863 142.219 111.614 142.047C110.489 141.967 109.38 141.859 108.286 141.739C107.193 141.595 106.12 141.497 105.065 141.204C104.55 141.012 104.093 140.717 103.669 140.399C103.244 140.079 102.855 139.725 102.484 139.359C101.741 138.629 101.077 137.85 100.45 137.065C97.9641 133.906 96.0157 130.705 94.2741 127.775C90.8281 121.887 88.3409 116.956 86.6333 113.548C85.7841 111.841 85.1413 110.507 84.7097 109.601C84.2785 108.694 84.0625 108.213 84.0625 108.213C84.0625 108.213 84.1277 108.328 84.2421 108.558C84.3581 108.793 84.5269 109.135 84.7473 109.582C85.1973 110.485 85.8569 111.808 86.7057 113.511C88.4349 116.907 90.9417 121.827 94.4009 127.7C96.1485 130.621 98.1033 133.815 100.585 136.957C101.21 137.737 101.872 138.511 102.609 139.232C102.976 139.593 103.361 139.942 103.778 140.254C104.194 140.566 104.639 140.851 105.127 141.031C106.127 141.308 107.227 141.413 108.308 141.552C109.398 141.67 110.505 141.777 111.628 141.855C113.874 142.024 116.18 142.144 118.538 142.225C120.895 142.311 123.303 142.366 125.755 142.378C128.207 142.389 130.703 142.378 133.231 142.262C134.498 142.209 135.762 142.117 137.02 141.872C138.283 141.639 139.555 141.403 140.834 141.167C142.028 140.947 143.215 140.728 144.319 140.524L144.242 140.586C145.033 138.522 145.48 136.336 145.572 134.184C145.674 132.03 145.324 129.888 144.496 127.987L144.592 128.047C142.701 128.106 140.836 128.164 139.113 128.218H139.108L139.105 128.218C134.691 127.968 130.455 127.703 126.454 127.366C125.454 127.278 124.468 127.192 123.499 127.075C123.014 127.02 122.535 126.958 122.058 126.867C121.575 126.795 121.122 126.607 120.69 126.414C119.824 126.017 119.048 125.5 118.257 125.062C117.471 124.632 116.637 124.251 115.779 124.291L115.721 124.293L115.698 124.241C112.172 115.998 109.287 109.251 107.281 104.561C106.285 102.219 105.508 100.391 104.977 99.143C104.717 98.5238 104.517 98.0494 104.381 97.7246C104.247 97.4054 104.184 97.2382 104.184 97.2382Z" fill="#263238"/>
<path d="M102.649 95.1205C102.635 95.1333 102.444 94.9313 102.078 94.5925C101.714 94.2525 101.153 93.7933 100.397 93.3245C99.6421 92.8545 98.6753 92.3993 97.5425 92.0889C96.4121 91.7769 95.1109 91.6313 93.7633 91.7577C92.4169 91.9001 91.1701 92.3005 90.1237 92.8305C89.0745 93.3593 88.2169 93.9969 87.5705 94.6069C86.9221 95.2157 86.4629 95.7769 86.1733 96.1825C85.8817 96.5873 85.7349 96.8225 85.7185 96.8129C85.7125 96.8093 85.7429 96.7469 85.8073 96.6317C85.8753 96.5185 85.9617 96.3421 86.1065 96.1365C86.3781 95.7137 86.8245 95.1317 87.4689 94.5005C88.1113 93.8685 88.9733 93.2073 90.0365 92.6597C91.0969 92.1109 92.3673 91.6961 93.7425 91.5509C95.1189 91.4213 96.4461 91.5765 97.5937 91.9041C98.7441 92.2305 99.7201 92.7077 100.475 93.2001C101.232 93.6913 101.784 94.1733 102.134 94.5341C102.317 94.7069 102.437 94.8633 102.525 94.9605C102.611 95.0609 102.654 95.1157 102.649 95.1205Z" fill="#263238"/>
<path d="M115.729 124.233C115.783 124.253 115.451 125.273 114.987 126.511C114.524 127.749 114.105 128.736 114.051 128.716C113.997 128.696 114.329 127.676 114.792 126.438C115.256 125.201 115.675 124.213 115.729 124.233Z" fill="#263238"/>
<path d="M142.359 129.405C142.359 129.394 142.416 129.378 142.511 129.412C142.605 129.445 142.725 129.541 142.805 129.7C142.881 129.851 142.935 130.101 142.791 130.323C142.655 130.529 142.396 130.687 142.095 130.645C141.789 130.587 141.61 130.322 141.571 130.086C141.529 129.839 141.631 129.614 141.771 129.495C141.914 129.371 142.073 129.358 142.165 129.366C142.261 129.375 142.308 129.401 142.306 129.413C142.313 129.453 142.073 129.399 141.873 129.601C141.781 129.701 141.719 129.874 141.76 130.049C141.796 130.224 141.94 130.408 142.13 130.439C142.322 130.471 142.532 130.358 142.631 130.217C142.737 130.077 142.718 129.893 142.671 129.759C142.567 129.472 142.351 129.432 142.359 129.405Z" fill="#263238"/>
<path d="M115.691 92.4789C115.687 92.4869 115.55 92.4157 115.297 92.2745C115.024 92.1189 114.659 91.9101 114.203 91.6493L114.279 91.6157C114.063 92.7089 113.854 94.3177 113.487 96.2457L113.463 96.3737L113.351 96.3033C111.741 95.2889 109.81 94.1293 107.75 92.8841C106.214 91.9645 104.778 91.0361 103.455 90.2341C102.125 89.4385 100.911 88.7497 99.8878 88.1761C98.8794 87.6153 98.0558 87.1569 97.4602 86.8257C97.1894 86.6733 96.971 86.5505 96.8018 86.4553C96.6522 86.3689 96.575 86.3209 96.5782 86.3145C96.5814 86.3081 96.665 86.3437 96.8214 86.4181C96.9954 86.5045 97.2202 86.6157 97.4986 86.7541C98.0838 87.0513 98.9262 87.4897 99.959 88.0469C100.992 88.6045 102.215 89.2809 103.553 90.0689C104.879 90.8809 106.332 91.7709 107.858 92.7057C109.917 93.9505 111.845 95.1205 113.447 96.1513L113.311 96.2089C113.694 94.2957 113.931 92.6853 114.178 91.5945L114.195 91.5229L114.255 91.5609C114.701 91.8389 115.058 92.0617 115.324 92.2281C115.569 92.3841 115.696 92.4709 115.691 92.4789Z" fill="#263238"/>
<g opacity="0.3">
<path d="M99.0146 87.6093C102.031 89.8565 105.047 92.1036 108.062 94.3508C110.053 95.834 112.091 97.3425 114.455 98.1013C114.411 96.0053 114.368 93.9092 114.324 91.8136L113.398 96.2273L99.0146 87.6093Z" fill="black"/>
</g>
<path d="M192.184 56.1152C190.609 56.326 188.967 55.1976 188.599 53.6516C188.231 52.1056 189.189 50.3592 190.69 49.8376C189.689 48.8504 189.411 47.2052 190.032 45.944C190.654 44.6828 192.128 43.9008 193.521 44.0936C193.551 42.7056 194.355 41.36 195.561 40.6736C196.768 39.9876 198.335 39.9856 199.544 40.6688C201.051 39.3248 203.522 39.2276 205.13 40.4488C206.473 40.1736 207.957 40.8632 208.613 42.0668C209.269 43.2704 209.044 44.8912 208.085 45.8708" fill="#263238"/>
<path d="M191.721 56.5792C192.152 49.4212 198.007 43.7952 205.176 43.6496L205.889 43.6352C213.579 43.9276 217.627 50.622 217.122 58.3016L217.58 85.6996L198.892 92.4076L198.729 82.5408C198.729 82.5408 191.322 81.5432 191.08 74.162C190.963 70.5968 191.32 63.2364 191.721 56.5792Z" fill="#AE7461"/>
<path d="M198.668 82.5308C198.668 82.5308 203.388 82.7184 208.284 79.5024C208.284 79.5024 206.117 84.862 198.737 84.3472L198.668 82.5308Z" fill="#6F4439"/>
<path d="M193.795 63.2549C193.787 63.8121 194.251 64.2784 194.833 64.298C195.414 64.3172 195.893 63.8825 195.901 63.3253C195.909 62.7681 195.445 62.3009 194.864 62.2813C194.282 62.2621 193.803 62.6977 193.795 63.2549Z" fill="#263238"/>
<path d="M193.382 60.1588C193.516 60.2936 194.302 59.686 195.437 59.666C196.57 59.6296 197.414 60.1964 197.534 60.0552C197.594 59.9924 197.456 59.7468 197.088 59.4904C196.725 59.2348 196.112 58.9916 195.404 59.0088C194.698 59.0272 194.109 59.2996 193.772 59.5728C193.429 59.8476 193.316 60.0988 193.382 60.1588Z" fill="#263238"/>
<path d="M204.132 63.2549C204.124 63.8121 204.589 64.2785 205.17 64.2977C205.751 64.3173 206.23 63.8825 206.238 63.3249C206.246 62.7681 205.781 62.3009 205.2 62.2813C204.619 62.2617 204.14 62.6977 204.132 63.2549Z" fill="#263238"/>
<path d="M204.538 60.1432C204.672 60.278 205.459 59.6708 206.593 59.6508C207.726 59.6144 208.571 60.1812 208.691 60.0396C208.75 59.9768 208.613 59.7316 208.244 59.4748C207.882 59.2192 207.268 58.976 206.561 58.9932C205.855 59.0116 205.265 59.284 204.929 59.5572C204.587 59.832 204.473 60.0832 204.538 60.1432Z" fill="#263238"/>
<path d="M200.592 68.6416C200.596 68.5768 199.888 68.4692 198.743 68.3464C198.452 68.3224 198.177 68.2704 198.124 68.0736C198.052 67.8656 198.167 67.5512 198.3 67.2108C198.558 66.5044 198.828 65.7636 199.112 64.9872C200.238 61.822 201.046 59.222 200.919 59.1776C200.791 59.1336 199.775 61.6632 198.649 64.8284C198.378 65.6088 198.119 66.3528 197.873 67.0644C197.77 67.396 197.589 67.7732 197.746 68.2044C197.828 68.4192 198.044 68.5724 198.231 68.6184C198.418 68.6712 198.581 68.6712 198.724 68.6768C199.876 68.7152 200.589 68.7056 200.592 68.6416Z" fill="#263238"/>
<path d="M204.116 56.2884C204.271 56.5728 205.237 56.2412 206.434 56.1784C207.629 56.0884 208.642 56.2932 208.745 55.992C208.79 55.8488 208.572 55.5948 208.136 55.3732C207.703 55.1516 207.049 54.9868 206.332 55.032C205.615 55.0788 204.997 55.3248 204.609 55.5992C204.217 55.8732 204.046 56.1524 204.116 56.2884Z" fill="#263238"/>
<path d="M193.162 56.1456C193.407 56.3984 194.337 56.1116 195.463 56.0764C196.588 56.008 197.547 56.2072 197.76 55.9332C197.854 55.8004 197.699 55.5452 197.277 55.31C196.862 55.0752 196.171 54.8904 195.397 54.926C194.624 54.9624 193.958 55.2096 193.572 55.4812C193.179 55.754 193.054 56.022 193.162 56.1456Z" fill="#263238"/>
<path d="M192.362 53.1788C192.362 53.1788 194.215 48.5156 196.423 47.3912C199.095 46.03 200.318 48.9688 202.875 48.1976C205.432 47.4264 207.983 46.1204 210.652 48.0552C213.574 50.1728 212.257 51.7272 212.501 54.9996C213.492 68.266 215.994 71.9724 216.557 65.7028C216.618 65.016 218.509 64.432 218.732 61.5308C219.022 57.7684 219.073 53.2064 218.181 50.5588C217.428 48.3272 216.116 46.8016 213.785 45.1376C210.105 42.5108 205.125 42.5544 201.75 42.9632C198.376 43.372 191.936 47.3956 192.362 53.1788Z" fill="#263238"/>
<path d="M216.083 65.5113C216.106 64.3709 217.07 63.4513 218.207 63.5361C219.587 63.6389 221.135 64.3897 221.102 67.2369C221.044 72.2877 215.985 71.1873 215.978 71.0421C215.973 70.9437 216.04 67.6245 216.083 65.5113Z" fill="#AE7461"/>
<path d="M217.099 69.1544C217.121 69.1388 217.186 69.2172 217.334 69.2868C217.478 69.3548 217.727 69.4036 217.991 69.308C218.527 69.1184 218.986 68.2764 219.021 67.3664C219.039 66.9072 218.948 66.4684 218.789 66.104C218.639 65.7328 218.404 65.472 218.135 65.4212C217.869 65.356 217.677 65.5148 217.613 65.6564C217.544 65.7968 217.575 65.898 217.548 65.9064C217.534 65.9188 217.441 65.8204 217.484 65.6124C217.506 65.5124 217.567 65.394 217.686 65.2984C217.809 65.2012 217.987 65.1528 218.174 65.1756C218.563 65.2068 218.91 65.5692 219.084 65.9692C219.28 66.3712 219.393 66.8644 219.373 67.3804C219.329 68.398 218.797 69.3444 218.064 69.5468C217.708 69.6352 217.413 69.5248 217.261 69.404C217.106 69.2764 217.081 69.1632 217.099 69.1544Z" fill="#6F4439"/>
<path d="M215.784 55.7336C215.138 56.1944 214.455 56.67 213.666 56.7644C212.878 56.8588 211.966 56.4236 211.816 55.6436C211.75 55.2936 211.827 54.884 211.59 54.6172C211.308 54.2988 210.802 54.4108 210.38 54.464C208.915 54.6496 207.391 53.642 206.988 52.222C206.626 52.79 205.752 52.7836 205.178 52.43C204.604 52.0764 204.227 51.4864 203.773 50.9876C203.32 50.4892 202.688 50.0476 202.023 50.156C201.651 50.2164 201.306 50.446 200.93 50.4204C200.266 50.3748 199.926 49.6056 199.813 48.9496C199.699 48.2936 199.606 47.5276 199.037 47.1816C198.51 46.8608 197.84 47.066 197.231 47.1684C196.623 47.2708 195.832 47.1436 195.664 46.55C195.575 46.2388 195.703 45.9068 195.871 45.63C196.632 44.3768 198.334 43.792 199.704 44.314C200.164 42.636 201.698 41.3064 203.424 41.0888C205.15 40.8708 206.966 41.7784 207.828 43.2896C208.875 42.3 210.417 41.862 211.828 42.154C213.239 42.4456 214.481 43.4588 215.05 44.7828C216.271 44.4348 217.68 44.8812 218.478 45.8688C219.276 46.8564 219.418 48.328 218.821 49.4492C219.739 49.9492 220.534 50.8348 220.574 51.8792C220.614 52.9236 219.618 53.9852 218.604 53.7308C219.028 54.536 218.719 55.6468 217.94 56.1172C217.161 56.5876 216.034 56.3444 215.519 55.5948" fill="#263238"/>
<path d="M199.361 45.8068C199.357 45.8072 199.358 45.8384 199.364 45.8992C199.372 45.9596 199.378 46.0512 199.402 46.168C199.453 46.4 199.554 46.7432 199.788 47.1332C200.024 47.5168 200.386 47.9584 200.932 48.3036C201.466 48.6532 202.195 48.9124 203.011 48.8512L202.923 48.7412C202.775 49.176 202.829 49.6932 203.053 50.1328C203.266 50.58 203.594 50.9736 203.942 51.3564C204.12 51.54 204.275 51.7572 204.519 51.924C204.756 52.0844 205.037 52.1744 205.325 52.2044C205.896 52.2656 206.534 52.0764 206.938 51.5892L206.748 51.5392C206.896 52.54 207.488 53.5324 208.407 54.126C208.894 54.4632 209.492 54.6628 210.075 54.6352C210.66 54.6176 211.199 54.4352 211.701 54.2436L211.565 54.1868C211.849 54.8088 212.277 55.3356 212.792 55.7204C213.296 56.1048 213.964 56.3228 214.56 56.1632C215.746 55.8868 216.516 54.88 216.656 53.9436L216.543 53.9992C217.141 54.3092 217.776 54.3272 218.283 54.2188C218.797 54.114 219.197 53.8816 219.482 53.6548C219.767 53.4236 219.933 53.1888 220.033 53.0264C220.124 52.858 220.162 52.7652 220.156 52.7628C220.13 52.7424 219.996 53.15 219.43 53.588C219.146 53.7972 218.754 54.01 218.26 54.0988C217.772 54.1924 217.17 54.1612 216.618 53.8636L216.522 53.812L216.504 53.9192C216.362 54.7928 215.62 55.7328 214.52 55.9764C213.979 56.1148 213.393 55.9196 212.914 55.556C212.434 55.1928 212.026 54.6852 211.762 54.1004L211.72 54.0076L211.626 54.0436C211.131 54.2308 210.61 54.402 210.07 54.4168C209.53 54.4396 208.994 54.2616 208.53 53.9424C207.661 53.3808 207.106 52.4524 206.961 51.5048L206.924 51.2668L206.771 51.4548C206.431 51.8716 205.859 52.0516 205.346 51.9976C205.089 51.972 204.839 51.8932 204.632 51.7548C204.43 51.6224 204.268 51.408 204.088 51.2228C203.742 50.8468 203.422 50.468 203.22 50.052C203.006 49.6412 202.958 49.1864 203.084 48.7928L203.123 48.6716L202.996 48.6828C202.227 48.7504 201.526 48.5164 201.004 48.1892C200.472 47.8668 200.11 47.4484 199.869 47.0824C199.392 46.3296 199.396 45.7944 199.361 45.8068Z" fill="#455A64"/>
<path d="M204.504 69.032C204.323 69.0532 204.532 70.2436 203.662 71.2684C202.796 72.2956 201.504 72.386 201.524 72.554C201.52 72.6316 201.847 72.7352 202.385 72.6552C202.914 72.5804 203.651 72.2756 204.182 71.6492C204.712 71.0212 204.857 70.2828 204.811 69.7876C204.769 69.282 204.584 69.0108 204.504 69.032Z" fill="#263238"/>
<path d="M163.257 126.475C163.897 126.219 185.036 123.679 185.036 123.679L193.614 116.418L192.809 137.439L165.817 140.041L163.257 126.475Z" fill="#67B24D"/>
<path opacity="0.3" d="M189.821 119.628C189.564 119.756 187.445 121.639 187.445 121.639L188.091 137.826L189.821 119.628Z" fill="black"/>
<path d="M225.838 157.696H190.132C190.132 157.696 192.022 167.771 192.722 172.414C193.422 177.056 194.445 180.35 194.445 180.35H226.784C226.784 180.35 229.198 174.498 229.619 170.74C230.038 166.981 225.838 157.696 225.838 157.696Z" fill="#263238"/>
<path d="M187.471 158.912C187.471 158.912 186.473 170.396 187.471 180.35H199.839V171.179L187.471 158.912Z" fill="#263238"/>
<path d="M194.343 102.618L198.191 94.1916L198.669 88.9868C198.669 88.9868 206.048 84.3492 209.548 82.5988C213.048 80.8484 217.764 79.264 217.764 79.264V84.1748L194.343 102.618Z" fill="#EBEBEB"/>
<path d="M226.506 145.655C226.506 145.655 228.596 117.568 228.737 115.48C228.737 115.48 229.972 100.473 227.307 94.7584C224.642 89.044 218.679 84.0212 218.679 84.0212L218.13 81.0212L206.483 88.362L201.099 93.0448C201.099 93.0448 198.043 96.2712 196.019 99.3656C194.491 101.48 192.792 104.2 192.036 107.621C191.759 108.872 188.555 123.823 188.459 134.246C188.459 134.246 187.967 143.338 187.442 148.488C186.792 154.862 185.801 169.394 186.016 178.004L223.758 176.851C233.084 175.428 231.444 174.501 231.444 174.501L226.506 145.655Z" fill="#67B24D"/>
<path d="M217.764 84.1757C217.764 84.1757 217.676 84.2209 217.502 84.2949C217.318 84.3717 217.062 84.4789 216.732 84.6169C216.403 84.7753 216.003 84.9845 215.533 85.2285C215.082 85.5077 214.545 85.7961 213.988 86.1929C211.724 87.7121 208.736 90.2869 205.695 93.8573L205.674 93.8825L205.643 93.8881C204.493 94.0993 203.279 94.3229 202.021 94.5541L202.099 94.4637C202.043 96.1461 201.983 97.9117 201.921 99.7389L201.92 99.7801L201.889 99.8097C200.075 101.527 198.233 103.47 196.565 105.646C195.888 106.538 195.264 107.454 194.739 108.405L194.542 108.761L194.391 109.132C194.288 109.378 194.19 109.625 194.118 109.886C193.956 110.397 193.797 110.904 193.665 111.417C193.107 113.457 192.646 115.448 192.214 117.344C191.354 121.14 190.639 124.571 190.045 127.454C188.861 133.22 188.193 136.799 188.193 136.799C188.193 136.799 188.202 136.57 188.274 136.142C188.34 135.714 188.45 135.084 188.594 134.274C188.886 132.653 189.328 130.312 189.901 127.424C190.476 124.537 191.177 121.102 192.027 117.302C192.454 115.402 192.911 113.41 193.469 111.363C193.6 110.849 193.76 110.337 193.922 109.821C193.994 109.562 194.095 109.306 194.201 109.05L194.358 108.666L194.557 108.306C195.089 107.341 195.718 106.417 196.399 105.52C198.079 103.33 199.925 101.386 201.752 99.6609L201.719 99.7317C201.785 97.9045 201.849 96.1389 201.909 94.4569L201.912 94.3801L201.987 94.3665C203.245 94.1397 204.461 93.9201 205.611 93.7129L205.558 93.7437C208.627 90.1681 211.638 87.6081 213.93 86.1061C214.493 85.7145 215.038 85.4309 215.495 85.1581C215.971 84.9201 216.376 84.7177 216.71 84.5669C217.045 84.4393 217.306 84.3397 217.493 84.2689C217.67 84.2029 217.764 84.1757 217.764 84.1757Z" fill="#263238"/>
<path d="M205.093 106.37L205.546 143.848L199.839 180.35H214.885C214.885 180.35 221.723 152.635 223.315 146.81C224.862 141.155 227.178 112.687 227.384 111.29C227.464 110.742 229.096 100.91 224.294 96.2725" fill="#67B24D"/>
<path d="M224.294 96.2728C224.294 96.2728 224.402 96.376 224.608 96.5856C224.813 96.7956 225.1 97.1268 225.43 97.596C226.088 98.5308 226.863 100.076 227.31 102.214C227.76 104.347 227.918 107.04 227.596 110.122C227.37 111.657 227.256 113.298 227.09 115.048C226.931 116.795 226.764 118.642 226.587 120.582C226.228 124.461 225.823 128.71 225.334 133.27C225.083 135.55 224.822 137.908 224.5 140.331C224.172 142.75 223.853 145.259 223.175 147.761C220.662 157.772 217.895 168.791 214.986 180.376L214.966 180.455H214.885C214.373 180.455 213.818 180.455 213.262 180.455C208.696 180.454 204.212 180.454 199.839 180.454H199.719L199.738 180.335C201.849 166.872 203.798 154.445 205.462 143.836L205.461 143.85C205.339 132.501 205.238 123.132 205.168 116.596C205.138 113.333 205.116 110.778 205.1 109.034C205.095 108.167 205.091 107.502 205.088 107.049C205.087 106.601 205.093 106.37 205.093 106.37C205.093 106.37 205.105 106.601 205.114 107.049C205.123 107.502 205.135 108.166 205.151 109.033C205.177 110.778 205.216 113.332 205.265 116.595C205.353 123.131 205.478 132.499 205.631 143.848V143.855L205.63 143.862C203.976 154.474 202.038 166.902 199.94 180.367L199.838 180.248C204.211 180.248 208.695 180.247 213.261 180.247C213.817 180.247 214.372 180.247 214.884 180.247L214.783 180.326C217.698 168.741 220.471 157.723 222.99 147.711C223.666 145.225 223.987 142.727 224.319 140.308C224.644 137.887 224.908 135.53 225.162 133.252C225.659 128.694 226.073 124.446 226.441 120.568C226.622 118.629 226.795 116.782 226.958 115.036C227.129 113.294 227.25 111.634 227.48 110.11C227.812 107.04 227.666 104.356 227.23 102.231C226.797 100.099 226.039 98.558 225.395 97.6196C225.072 97.1488 224.791 96.8144 224.592 96.6C224.392 96.3864 224.294 96.2728 224.294 96.2728Z" fill="#263238"/>
<path d="M213.05 147.536C213.042 147.562 212.595 147.441 211.888 147.2C211.18 146.958 210.214 146.59 209.172 146.128C208.129 145.664 207.208 145.195 206.554 144.832C205.901 144.47 205.512 144.219 205.525 144.196C205.54 144.169 205.954 144.374 206.622 144.702C207.291 145.03 208.218 145.476 209.256 145.938C210.294 146.398 211.247 146.786 211.939 147.062C212.631 147.338 213.06 147.508 213.05 147.536Z" fill="#263238"/>
<path d="M187.293 150.021C187.29 150.02 187.288 149.987 187.29 149.922C187.292 149.845 187.296 149.751 187.3 149.635C187.314 149.366 187.334 148.998 187.359 148.533C187.421 147.558 187.509 146.178 187.617 144.481C187.848 141.061 188.177 136.336 188.638 131.126C189.1 125.913 189.632 121.205 190.066 117.804C190.284 116.104 190.469 114.729 190.608 113.78C190.677 113.32 190.732 112.955 190.772 112.689C190.791 112.574 190.806 112.482 190.819 112.406C190.831 112.342 190.839 112.31 190.842 112.31C190.846 112.31 190.845 112.344 190.84 112.408C190.833 112.485 190.824 112.579 190.813 112.694C190.783 112.962 190.741 113.328 190.689 113.791C190.574 114.761 190.412 116.134 190.213 117.822C189.816 121.226 189.308 125.934 188.846 131.144C188.386 136.353 188.033 141.075 187.764 144.492C187.629 146.187 187.518 147.565 187.44 148.539C187.399 149.003 187.366 149.37 187.342 149.638C187.33 149.754 187.32 149.847 187.312 149.924C187.303 149.988 187.297 150.021 187.293 150.021Z" fill="#263238"/>
<path d="M217.764 91.5444C217.699 91.5664 217.33 90.1044 216.349 88.5588C215.381 87.0036 214.224 86.0376 214.272 85.9884C214.288 85.9696 214.596 86.1848 215.035 86.6052C215.473 87.0244 216.03 87.6612 216.525 88.4476C217.019 89.2348 217.352 90.0124 217.539 90.5892C217.728 91.1668 217.788 91.5384 217.764 91.5444Z" fill="#263238"/>
<path d="M191.215 138.109C191.225 138.106 191.263 138.201 191.251 138.381C191.238 138.557 191.16 138.826 190.925 139.06C190.704 139.296 190.266 139.464 189.839 139.306C189.63 139.235 189.431 139.099 189.282 138.907C189.131 138.717 189.049 138.456 189.056 138.204C189.06 137.882 189.16 137.573 189.346 137.332C189.439 137.213 189.559 137.113 189.696 137.055C189.84 137.002 189.945 136.977 190.064 136.939L190.079 136.934L190.092 136.934C190.364 136.941 190.629 137 190.817 137.143C191.009 137.281 191.105 137.47 191.153 137.62C191.246 137.927 191.228 138.107 191.215 138.109C191.19 138.114 191.168 137.933 191.053 137.659C190.994 137.525 190.897 137.37 190.732 137.266C190.57 137.157 190.341 137.115 190.091 137.117L190.119 137.112C190.01 137.151 189.872 137.192 189.773 137.232C189.672 137.278 189.579 137.356 189.504 137.456C189.354 137.655 189.267 137.929 189.264 138.206C189.242 138.645 189.554 139 189.903 139.126C190.257 139.265 190.613 139.146 190.823 138.952C191.043 138.762 191.135 138.528 191.171 138.37C191.206 138.207 191.197 138.111 191.215 138.109Z" fill="#263238"/>
<path d="M190.655 151.361C190.665 151.358 190.703 151.453 190.692 151.633C190.679 151.809 190.601 152.078 190.365 152.312C190.145 152.547 189.706 152.716 189.28 152.558C189.071 152.487 188.871 152.351 188.722 152.159C188.572 151.969 188.489 151.708 188.497 151.456C188.501 151.134 188.6 150.825 188.786 150.584C188.879 150.465 189 150.365 189.137 150.307C189.281 150.254 189.385 150.229 189.505 150.191L189.519 150.186L189.533 150.186C189.805 150.193 190.069 150.252 190.258 150.395C190.45 150.533 190.545 150.722 190.594 150.872C190.686 151.179 190.668 151.359 190.655 151.361C190.63 151.366 190.608 151.185 190.494 150.911C190.434 150.777 190.338 150.622 190.173 150.518C190.011 150.409 189.781 150.367 189.532 150.369L189.559 150.364C189.451 150.403 189.313 150.444 189.214 150.484C189.112 150.53 189.019 150.608 188.945 150.708C188.795 150.907 188.707 151.181 188.704 151.458C188.683 151.897 188.994 152.252 189.344 152.378C189.697 152.517 190.053 152.398 190.264 152.204C190.483 152.014 190.575 151.78 190.611 151.622C190.647 151.459 190.638 151.363 190.655 151.361Z" fill="#263238"/>
<path d="M222.601 94.0549C222.58 94.0905 222.083 93.7725 221.205 93.4361C220.768 93.2641 220.229 93.1093 219.622 92.9853C219.012 92.8737 218.333 92.8009 217.617 92.8061C216.902 92.8205 216.225 92.9125 215.618 93.0405C215.015 93.1813 214.48 93.3509 214.048 93.5349C213.18 93.8957 212.692 94.2269 212.67 94.1921C212.662 94.1801 212.78 94.0925 213.001 93.9433C213.11 93.8665 213.247 93.7781 213.415 93.6913C213.583 93.6025 213.768 93.4901 213.989 93.4001C214.421 93.1957 214.961 93.0077 215.575 92.8537C216.191 92.7121 216.883 92.6125 217.615 92.5981C218.346 92.5925 219.04 92.6733 219.66 92.7977C220.278 92.9345 220.822 93.1077 221.26 93.3001C221.484 93.3841 221.672 93.4909 221.842 93.5753C222.013 93.6573 222.152 93.7421 222.263 93.8161C222.488 93.9581 222.608 94.0425 222.601 94.0549Z" fill="#263238"/>
<g opacity="0.3">
<path d="M189.644 129.112C191.274 126.74 191.872 124.504 192.742 121.761C194.036 117.685 194.398 113.08 196.428 109.316C197.624 107.1 199.03 104.826 201.109 103.404C203.137 102.018 203.438 100.256 203.398 95.49C204.847 95.5044 206.38 94.3868 206.562 94.1912C207.549 93.13 208.264 91.4452 208.339 90.86C207.322 91.9656 205.627 93.8 205.627 93.8C205.627 93.8 201.951 94.4832 202.005 94.4596C201.914 96.2932 201.911 97.9012 201.821 99.7348C201.821 99.7348 194.768 107.218 194.219 108.722C193.67 110.227 189.644 129.112 189.644 129.112Z" fill="black"/>
</g>
<g opacity="0.3">
<path d="M215.829 175.829C224.767 158.912 227.545 136.668 227.013 115.48C227.013 115.48 224.448 141.234 223.583 145.654C222.724 150.044 215.829 175.829 215.829 175.829Z" fill="black"/>
</g>
<path d="M217.194 81.4529C217.197 81.4589 217.128 81.5117 216.993 81.6061C216.839 81.7109 216.641 81.8449 216.398 82.0101C215.853 82.3681 215.103 82.8609 214.186 83.4637C212.288 84.6865 209.704 86.3517 206.849 88.1917C205.744 88.8965 204.679 89.5753 203.683 90.2105L203.69 90.2053C203.344 90.4729 203.007 90.7341 202.679 90.9877C202.343 91.2341 202.055 91.4849 201.776 91.7589C201.222 92.2941 200.729 92.8145 200.285 93.2868L200.205 93.3721L200.159 93.2661C199.68 92.1585 199.288 91.2529 199.005 90.5981C198.88 90.298 198.779 90.0557 198.701 89.8677C198.634 89.6997 198.602 89.6097 198.608 89.6069C198.615 89.6037 198.661 89.6877 198.741 89.8497C198.829 90.0333 198.942 90.2701 199.082 90.5637C199.381 91.2117 199.794 92.1077 200.299 93.2041L200.173 93.1837C200.61 92.7029 201.098 92.1753 201.651 91.6301C201.92 91.3581 202.236 91.0801 202.566 90.8349C202.891 90.5801 203.225 90.3177 203.568 90.0485L203.572 90.0457L203.576 90.0433C204.57 89.4057 205.633 88.7237 206.737 88.0157C209.605 86.1953 212.201 84.5481 214.108 83.3381C215.04 82.7585 215.802 82.2849 216.355 81.9409C216.607 81.7889 216.811 81.6661 216.971 81.5701C217.114 81.4873 217.19 81.4469 217.194 81.4529Z" fill="#263238"/>
<path d="M29.1043 64.0632C29.0567 64.09 27.3563 61.1404 25.3071 57.4756C23.2571 53.81 21.6347 50.8176 21.6827 50.7908C21.7303 50.764 23.4303 53.7132 25.4803 57.3788C27.5291 61.0436 29.1519 64.0368 29.1043 64.0632Z" fill="#263238"/>
<path d="M34.8496 51.3416C34.9044 51.3448 34.8236 53.6036 34.6696 56.3864C34.5156 59.1704 34.3464 61.424 34.2916 61.4208C34.2368 61.418 34.3176 59.1592 34.4716 56.3756C34.6256 53.5928 34.7948 51.3388 34.8496 51.3416Z" fill="#263238"/>
<path d="M24.9964 67.1909C24.9788 67.2429 23.062 66.6417 20.7152 65.8485C18.3676 65.0549 16.4796 64.3701 16.4972 64.3181C16.5148 64.2661 18.4312 64.8673 20.7788 65.6609C23.1252 66.4541 25.014 67.1393 24.9964 67.1909Z" fill="#263238"/>
<path d="M53.7404 72.8652C50.2052 64.7956 40.7976 61.1196 32.728 64.6548C24.6584 68.19 20.9824 77.5976 24.5172 85.6672C27.0768 91.5096 32.7144 95.0464 38.6944 95.2136C39.4528 96.9452 40.3092 98.8996 40.3092 98.8996L53.1156 93.2896C53.1156 93.2896 52.2868 91.1868 51.5064 89.3276C55.1488 84.8388 56.2196 78.5244 53.7404 72.8652Z" fill="#67B24D"/>
<path d="M51.1965 94.126C51.1965 94.126 51.1601 94.0692 51.0933 93.9556C51.0257 93.8392 50.9281 93.6704 50.8005 93.45C50.5453 93.0044 50.1741 92.344 49.7081 91.4868C48.7809 89.7708 47.4753 87.2644 46.0441 84.082C45.6853 83.2872 45.3197 82.4492 44.9497 81.572C44.7673 81.132 44.5813 80.6836 44.3917 80.2264C44.2077 79.7704 44.0013 79.2956 43.9581 78.7704C43.9365 78.5096 43.9689 78.2376 44.0721 77.988C44.1745 77.7416 44.3605 77.5072 44.6277 77.4048C44.8957 77.2996 45.1989 77.36 45.4401 77.4952C45.6821 77.6348 45.8865 77.8408 46.0193 78.0908C46.2921 78.598 46.2333 79.2256 45.9921 79.7396C45.7493 80.2608 45.3241 80.6948 44.8129 80.9808C44.3009 81.2668 43.6965 81.4028 43.0969 81.3532C42.4949 81.3072 41.9133 81.0584 41.4273 80.6884C40.9401 80.3176 40.5385 79.8236 40.2765 79.2556C40.1473 78.9724 40.0429 78.6696 40.0141 78.3508C39.9841 78.0376 40.0173 77.69 40.2233 77.418C40.3245 77.2844 40.4701 77.1832 40.6293 77.1304C40.7893 77.08 40.9601 77.0688 41.1233 77.0948C41.4525 77.14 41.7529 77.3184 41.9821 77.5496C42.2153 77.7808 42.3929 78.058 42.5465 78.3436C42.6985 78.6304 42.8329 78.9252 42.9561 79.2272C43.1997 79.8308 43.3829 80.4708 43.4385 81.134C43.4945 81.7924 43.4193 82.488 43.1081 83.0948C42.9565 83.3972 42.7581 83.6776 42.5113 83.91C42.2637 84.14 41.9681 84.3216 41.6437 84.4204C41.3185 84.518 40.9713 84.52 40.6437 84.4556C40.3145 84.39 40.0073 84.248 39.7305 84.0712C39.1757 83.714 38.7241 83.2352 38.3237 82.736C38.1225 82.486 37.9341 82.2284 37.7537 81.9676C37.5737 81.7076 37.3905 81.446 37.2553 81.1544C37.1205 80.8668 37.0385 80.5348 37.0997 80.2116C37.1285 80.052 37.1881 79.8944 37.2909 79.7628C37.3925 79.63 37.5461 79.5364 37.7105 79.5068C37.8761 79.474 38.0453 79.5064 38.1921 79.57C38.3401 79.6328 38.4725 79.722 38.5929 79.822C38.8341 80.0212 39.0265 80.27 39.1941 80.5216C39.8685 81.5268 40.2801 82.7192 40.1785 83.892C40.1253 84.4752 39.9245 85.0368 39.6013 85.5076C39.2797 85.9776 38.8189 86.356 38.2825 86.5228C37.7457 86.6984 37.1613 86.6176 36.6753 86.3896C36.1849 86.1652 35.7693 85.7936 35.5169 85.3336C35.3885 85.1052 35.3017 84.8568 35.2669 84.5992C35.2385 84.344 35.2589 84.0712 35.4021 83.8448C35.4745 83.7332 35.5845 83.6456 35.7101 83.602C35.8365 83.558 35.9761 83.5636 36.0977 83.6036C36.3445 83.6856 36.5305 83.8628 36.6881 84.0436C37.0113 84.4108 37.1873 84.8556 37.3981 85.2564C37.6021 85.6644 37.8021 86.0636 37.9973 86.4536C39.5533 89.5752 40.7665 92.1248 41.5725 93.9012C41.9765 94.7888 42.2769 95.4844 42.4785 95.9568C42.5761 96.192 42.6505 96.372 42.7021 96.4964C42.7517 96.6184 42.7745 96.682 42.7745 96.682C42.7745 96.682 42.7445 96.6216 42.6913 96.5012C42.6373 96.378 42.5593 96.1992 42.4573 95.966C42.2489 95.4968 41.9421 94.8048 41.5317 93.92C40.7133 92.15 39.4893 89.6068 37.9241 86.4904C37.7277 86.1012 37.5269 85.7024 37.3217 85.2952C37.1085 84.892 36.9329 84.4536 36.6205 84.1024C36.4689 83.9284 36.2877 83.7616 36.0701 83.6908C35.8561 83.6128 35.6013 83.698 35.4793 83.8964C35.3545 84.0924 35.3321 84.3484 35.3601 84.5888C35.3933 84.8304 35.4769 85.0708 35.6005 85.288C35.8429 85.728 36.2441 86.0856 36.7165 86.3008C37.1853 86.5192 37.7433 86.5944 38.2521 86.4268C38.7629 86.2668 39.2053 85.9044 39.5157 85.4496C39.8273 84.994 40.0221 84.4484 40.0729 83.8832C40.1705 82.7428 39.7677 81.5724 39.1029 80.584C38.9361 80.3344 38.7525 80.0984 38.5221 79.9084C38.2981 79.724 38.0141 79.5624 37.7317 79.6176C37.4429 79.6612 37.2565 79.9436 37.2109 80.2324C37.1553 80.5264 37.2293 80.8312 37.3585 81.1084C37.4877 81.3872 37.6673 81.6448 37.8477 81.904C38.0273 82.1632 38.2145 82.4188 38.4137 82.666C38.8097 83.1596 39.2553 83.63 39.7929 83.9756C40.0609 84.1468 40.3553 84.282 40.6677 84.3444C40.9789 84.4056 41.3061 84.4036 41.6113 84.3116C42.2273 84.1256 42.7193 83.628 43.0053 83.0452C43.3049 82.4612 43.3785 81.79 43.3241 81.1452C43.2697 80.4976 43.0905 79.8676 42.8501 79.2716C42.5993 78.6836 42.3417 78.0772 41.9025 77.632C41.6841 77.4116 41.4093 77.2508 41.1077 77.2084C40.8109 77.1592 40.4905 77.2496 40.3137 77.488C40.1341 77.7236 40.0977 78.0436 40.1269 78.3412C40.1533 78.6436 40.2533 78.9348 40.3789 79.2104C40.6321 79.7612 41.0225 80.242 41.4949 80.602C41.9665 80.9616 42.5277 81.2016 43.1069 81.2464C43.6845 81.2948 44.2681 81.1644 44.7621 80.8892C45.2553 80.6144 45.6657 80.196 45.8985 79.6968C46.1313 79.2052 46.1829 78.6088 45.9309 78.14C45.8081 77.9068 45.6153 77.7128 45.3921 77.5836C45.1685 77.4584 44.8977 77.4064 44.6641 77.498C44.4297 77.5868 44.2589 77.7964 44.1629 78.0264C44.0661 78.2596 44.0341 78.5148 44.0545 78.7644C44.0941 79.2676 44.2945 79.736 44.4785 80.1932C44.6669 80.6504 44.8517 81.0992 45.0329 81.5392C45.4001 82.4168 45.7633 83.2548 46.1193 84.0504C47.5397 87.2348 48.8333 89.7452 49.7481 91.4672C50.2077 92.3272 50.5725 92.9908 50.8213 93.44C50.9445 93.6628 51.0389 93.8332 51.1041 93.9512C51.1665 94.0652 51.1965 94.126 51.1965 94.126Z" fill="white"/>
<path d="M39.9575 94.0932C39.9579 94.0972 39.8903 94.1032 39.7619 94.1112C39.6335 94.1164 39.4439 94.1356 39.1991 94.134C38.7099 94.1456 37.9999 94.1232 37.1307 94.0116C36.2619 93.9016 35.2363 93.682 34.1415 93.3004C33.0467 92.9208 31.8887 92.366 30.7735 91.6248C29.6635 90.8752 28.7099 90.0148 27.9423 89.1468C27.1727 88.2788 26.5795 87.414 26.1475 86.6524C25.7139 85.8912 25.4231 85.2428 25.2479 84.7864C25.1535 84.5608 25.0991 84.378 25.0551 84.2572C25.0135 84.1352 24.9939 84.0708 24.9975 84.0696C25.0011 84.0684 25.0287 84.1304 25.0771 84.2492C25.1283 84.3672 25.1891 84.5468 25.2895 84.7692C25.4771 85.2192 25.7779 85.8596 26.2183 86.6112C26.6571 87.3632 27.2535 88.218 28.0219 89.0756C28.7887 89.934 29.7371 90.7848 30.8383 91.5288C31.9447 92.264 33.0923 92.8172 34.1775 93.2C35.2631 93.5844 36.2803 93.8108 37.1427 93.9308C38.0055 94.052 38.7119 94.0868 39.1995 94.0892C39.4435 94.0972 39.6327 94.0856 39.7615 94.088C39.8895 94.0876 39.9571 94.0892 39.9575 94.0932Z" fill="#263238"/>
<path d="M24.3969 81.012C24.4281 81.0068 24.5165 81.3664 24.5941 81.8156C24.6717 82.2648 24.7089 82.6332 24.6777 82.6388C24.6465 82.6444 24.5581 82.2844 24.4805 81.8352C24.4029 81.386 24.3653 81.0176 24.3969 81.012Z" fill="#263238"/>
<path d="M53.611 76.968C53.607 76.9684 53.5922 76.912 53.567 76.8036C53.541 76.6844 53.5066 76.5268 53.4634 76.3296C53.4414 76.2256 53.4174 76.1112 53.3914 75.9868C53.361 75.8624 53.3186 75.7296 53.2786 75.5856C53.1926 75.2996 53.1154 74.9672 52.9754 74.6176C52.911 74.4408 52.8434 74.2556 52.7734 74.0632C52.7018 73.8712 52.6058 73.6796 52.5182 73.4768C52.3506 73.0672 52.1178 72.6556 51.8854 72.2168C51.387 71.358 50.7662 70.4548 50.0106 69.5916C49.2438 68.738 48.421 68.0136 47.6274 67.4164C47.2194 67.1332 46.8386 66.8532 46.4518 66.6376C46.261 66.5268 46.0822 66.4084 45.9002 66.3144C45.7174 66.222 45.5418 66.1328 45.3738 66.0476C45.0434 65.8668 44.7226 65.7508 44.449 65.6312C44.311 65.5744 44.1842 65.5164 44.0642 65.4716C43.9438 65.4308 43.8334 65.3932 43.7326 65.3592C43.5418 65.2928 43.3894 65.24 43.2742 65.1996C43.1698 65.162 43.1154 65.1404 43.1162 65.1364C43.1174 65.1324 43.1738 65.1468 43.2806 65.1772C43.3978 65.212 43.5526 65.2584 43.7466 65.3164C43.8486 65.3476 43.961 65.3824 44.0826 65.4196C44.2042 65.4616 44.3326 65.5168 44.4722 65.5712C44.7498 65.6856 45.0742 65.7972 45.409 65.974C45.579 66.0576 45.7566 66.1448 45.9418 66.2356C46.1262 66.3284 46.307 66.4452 46.5002 66.5552C46.8914 66.7684 47.277 67.0476 47.6898 67.3304C48.4926 67.9272 49.3238 68.6548 50.0966 69.5148C50.8582 70.3844 51.481 71.2964 51.9778 72.1644C52.2094 72.608 52.4402 73.0236 52.6054 73.4376C52.6914 73.6428 52.7858 73.836 52.8558 74.0304C52.9238 74.2248 52.9894 74.412 53.0522 74.5908C53.1882 74.944 53.2602 75.2796 53.3406 75.5688C53.3778 75.7144 53.4174 75.8484 53.4446 75.974C53.4674 76.0996 53.4882 76.2148 53.507 76.32C53.5414 76.5192 53.569 76.6788 53.5898 76.7992C53.6078 76.9096 53.615 76.9676 53.611 76.968Z" fill="#263238"/>
<g opacity="0.2">
<path d="M33.9621 69.0197C33.4393 68.5161 32.5645 68.3673 31.6529 68.4793C30.3489 68.6397 29.1813 69.3533 28.3641 70.3817C25.9597 73.4081 25.0565 76.1813 25.5125 80.2001C25.6669 81.5613 26.3509 83.6217 27.4537 84.5385C28.0081 84.9993 28.7193 85.2517 29.4341 85.1577C31.2933 84.9133 31.9005 82.7361 31.7405 80.9809C31.5913 79.3453 31.0565 77.6581 31.5829 76.1021C32.0169 74.8201 33.0945 73.8797 33.8417 72.7517C34.5889 71.6237 34.9369 69.9581 33.9621 69.0197Z" fill="white"/>
</g>
<g opacity="0.2">
<path d="M39.5706 65.8821C38.623 65.1833 37.1002 65.3893 36.4678 66.0909C35.9602 66.6881 35.727 67.5213 35.8946 68.2869C36.0966 69.2097 36.9038 69.9765 37.8402 70.1021C38.7766 70.2277 39.7714 69.6841 40.1458 68.8165C40.5198 67.9493 40.331 66.4429 39.5706 65.8821Z" fill="white"/>
</g>
<path d="M47.1338 104.763C47.1338 104.763 47.8074 104.873 48.295 105.138C48.5482 105.275 48.853 105.279 49.117 105.163L51.6934 104.033C51.9822 103.906 52.1922 103.645 52.2478 103.335C52.313 102.971 52.5062 102.491 52.8278 102.263L47.1338 104.763Z" fill="#263238"/>
<path d="M41.1963 98.8133C41.2191 98.8649 43.5831 102.627 44.4875 104.065C44.8587 104.655 45.4951 105.046 46.1927 105.055C46.4471 105.059 46.7203 105.016 46.9963 104.894C48.1003 104.41 52.6311 102.421 52.6311 102.421C52.6311 102.421 54.1035 101.774 53.9247 100.46C53.7363 99.0757 52.2787 93.9485 52.2787 93.9485L41.1963 98.8133Z" fill="#E0E0E0"/>
<path d="M54.0462 99.7629L44.245 104.107C44.091 104.175 43.911 104.106 43.8426 103.952L43.829 103.921C43.7606 103.767 43.8302 103.587 43.9842 103.519L53.7854 99.1749C53.9394 99.1065 54.1194 99.1761 54.1878 99.3301L54.2014 99.3605C54.2698 99.5145 54.2002 99.6945 54.0462 99.7629Z" fill="#E0E0E0"/>
<path d="M54.0461 99.7629C54.0385 99.7569 54.1369 99.7349 54.1965 99.5913C54.2237 99.5209 54.2245 99.4217 54.1673 99.3241C54.1209 99.2281 53.9953 99.1453 53.8565 99.1741C53.3205 99.4013 52.5361 99.7673 51.5701 100.197C49.6285 101.062 46.9569 102.252 44.0057 103.566C43.9281 103.6 43.8717 103.674 43.8581 103.756C43.8517 103.798 43.8545 103.84 43.8685 103.879C43.8845 103.921 43.9037 103.964 43.9297 103.993C43.9837 104.056 44.0697 104.089 44.1517 104.079C44.2261 104.069 44.3241 104.011 44.4121 103.976C44.7721 103.817 45.1269 103.66 45.4757 103.506C46.1729 103.198 46.8457 102.9 47.4869 102.618C48.7681 102.054 49.9229 101.547 50.8949 101.119C51.8617 100.698 52.6461 100.357 53.1961 100.117C53.4637 100.003 53.6737 99.9137 53.8237 99.8497C53.8917 99.8221 53.9457 99.7997 53.9881 99.7825C54.0257 99.7677 54.0453 99.7609 54.0461 99.7629C54.0469 99.7645 54.0289 99.7745 53.9929 99.7921C53.9517 99.8117 53.8989 99.8373 53.8329 99.8689C53.6845 99.9373 53.4769 100.033 53.2129 100.154C52.6661 100.401 51.8861 100.753 50.9249 101.186C49.9553 101.62 48.8037 102.134 47.5257 102.705C46.8853 102.99 46.2133 103.289 45.5169 103.599C45.1685 103.754 44.8137 103.911 44.4541 104.071L44.3189 104.131C44.2773 104.15 44.2229 104.176 44.1641 104.182C44.0485 104.197 43.9277 104.151 43.8509 104.062C43.8113 104.015 43.7897 103.965 43.7701 103.914C43.7505 103.858 43.7465 103.798 43.7557 103.74C43.7741 103.624 43.8549 103.519 43.9637 103.472C46.9197 102.168 49.5957 100.988 51.5405 100.13C52.5145 99.7081 53.2905 99.3561 53.8493 99.1349C54.0089 99.1057 54.1473 99.2033 54.1953 99.3109C54.2525 99.4141 54.2493 99.5269 54.2165 99.5997C54.1449 99.7493 54.0405 99.7629 54.0461 99.7629Z" fill="#263238"/>
<path d="M53.6968 98.4032L43.4804 102.931C43.3264 103 43.1464 102.93 43.078 102.776L43.0644 102.746C42.996 102.592 43.0656 102.412 43.2196 102.343L53.436 97.8152C53.59 97.7468 53.77 97.8164 53.8384 97.9704L53.852 98.0008C53.9204 98.1552 53.8508 98.3352 53.6968 98.4032Z" fill="#E0E0E0"/>
<path d="M53.6972 98.4033C53.6888 98.3973 53.7932 98.3745 53.8508 98.2233C53.878 98.1489 53.8712 98.0469 53.8096 97.9473C53.7548 97.8505 53.6156 97.7761 53.4756 97.8221C52.908 98.0773 52.098 98.4417 51.1 98.8909C49.0832 99.7889 46.3076 101.025 43.242 102.39C43.1616 102.426 43.1032 102.504 43.0932 102.59C43.0872 102.633 43.0936 102.677 43.11 102.717C43.1296 102.767 43.1476 102.8 43.1792 102.832C43.24 102.893 43.3332 102.919 43.4164 102.898C43.4964 102.872 43.6004 102.819 43.6908 102.781C44.0648 102.616 44.4336 102.453 44.7956 102.292C45.52 101.972 46.2188 101.664 46.8848 101.37C48.216 100.784 49.4152 100.257 50.4248 99.8129C51.4292 99.3753 52.244 99.0205 52.8152 98.7717C53.0932 98.6529 53.3116 98.5597 53.4672 98.4933C53.538 98.4645 53.594 98.4413 53.638 98.4233C53.6764 98.4089 53.6964 98.4017 53.6972 98.4033C53.698 98.4049 53.6792 98.4153 53.642 98.4337C53.5992 98.4541 53.5444 98.4801 53.4756 98.5133C53.322 98.5841 53.1064 98.6829 52.8316 98.8093C52.264 99.0653 51.4536 99.4305 50.4548 99.8809C49.4476 100.331 48.2516 100.865 46.9236 101.458C46.2584 101.754 45.5604 102.064 44.8368 102.386C44.4748 102.547 44.1064 102.71 43.7328 102.876C43.6344 102.917 43.5564 102.961 43.4408 102.999C43.3232 103.028 43.1924 102.992 43.1064 102.906C43.0628 102.865 43.032 102.804 43.014 102.757C42.9912 102.7 42.982 102.638 42.9904 102.578C43.004 102.456 43.0872 102.345 43.2 102.296C46.2708 100.941 49.0504 99.7153 51.0704 98.8241C52.08 98.3829 52.8924 98.0253 53.4636 97.7841C53.6252 97.7349 53.7792 97.8237 53.8364 97.9321C53.8984 98.0377 53.9036 98.1537 53.8704 98.2309C53.8016 98.3893 53.6912 98.4033 53.6972 98.4033Z" fill="#263238"/>
<path d="M53.2741 97.0777L42.7929 101.723C42.6389 101.791 42.4589 101.722 42.3905 101.568L42.3769 101.537C42.3085 101.383 42.3781 101.203 42.5321 101.135L53.0133 96.4897C53.1673 96.4213 53.3473 96.4909 53.4157 96.6449L53.4293 96.6753C53.4977 96.8293 53.4281 97.0093 53.2741 97.0777Z" fill="#E0E0E0"/>
<path d="M53.2738 97.0776C53.265 97.0716 53.373 97.0484 53.429 96.8924C53.4562 96.8156 53.4446 96.7112 53.3794 96.6116C53.3198 96.5148 53.1718 96.4456 53.0318 96.504C52.451 96.7656 51.621 97.1392 50.5986 97.6C48.5342 98.5192 45.6922 99.7848 42.5534 101.182C42.4714 101.218 42.4118 101.3 42.4038 101.388C42.399 101.433 42.407 101.477 42.425 101.518C42.4462 101.568 42.4654 101.601 42.4998 101.632C42.565 101.692 42.6626 101.712 42.7458 101.685C42.8334 101.65 42.9358 101.602 43.0294 101.561C43.4122 101.392 43.7898 101.225 44.1606 101.061C44.9022 100.733 45.6178 100.417 46.2994 100.116C47.6622 99.5164 48.8902 98.9764 49.9238 98.522C50.9522 98.074 51.7866 97.71 52.371 97.4556C52.6558 97.334 52.8794 97.2384 53.0386 97.1704C53.111 97.1404 53.1686 97.1168 53.213 97.0988C53.2526 97.0832 53.2734 97.076 53.2738 97.0776C53.2742 97.0792 53.2554 97.0896 53.217 97.1084C53.1734 97.1292 53.1174 97.156 53.0466 97.1896C52.8894 97.2616 52.6686 97.3632 52.387 97.4928C51.8062 97.7544 50.9762 98.1284 49.9534 98.5896C48.9226 99.05 47.6978 99.5968 46.3382 100.204C45.6574 100.507 44.9426 100.825 44.2018 101.154C43.8314 101.318 43.4542 101.486 43.0714 101.656C42.973 101.699 42.8854 101.741 42.7774 101.784C42.6594 101.822 42.5226 101.794 42.4306 101.709C42.3842 101.67 42.3494 101.608 42.3302 101.56C42.3054 101.504 42.2942 101.44 42.3006 101.378C42.3114 101.252 42.3958 101.137 42.5114 101.087C45.655 99.7 48.5014 98.4444 50.569 97.5324C51.5978 97.0844 52.4326 96.7208 53.017 96.466C53.1786 96.4028 53.3422 96.4856 53.4054 96.5944C53.4718 96.7004 53.4818 96.8192 53.449 96.8988C53.3814 97.0632 53.267 97.0772 53.2738 97.0776Z" fill="#263238"/>
<path d="M52.9298 95.7161L42.0234 100.55C41.8694 100.618 41.6894 100.549 41.621 100.395L41.6074 100.364C41.539 100.21 41.6086 100.03 41.7626 99.9617L52.6686 95.1281C52.8226 95.0597 53.0026 95.1293 53.071 95.2833L53.0846 95.3137C53.1534 95.4677 53.0838 95.6481 52.9298 95.7161Z" fill="#E0E0E0"/>
<path d="M52.9298 95.7161C52.9202 95.7097 53.0342 95.6861 53.0878 95.5221C53.1142 95.4421 53.095 95.3325 53.0242 95.2333C52.9546 95.1373 52.7966 95.0789 52.655 95.1561C52.0526 95.4273 51.1914 95.8153 50.1302 96.2933C47.989 97.2465 45.041 98.5593 41.7846 100.009C41.699 100.046 41.6394 100.133 41.6342 100.225C41.629 100.313 41.6774 100.418 41.7458 100.472C41.8186 100.528 41.921 100.54 42.0046 100.501C42.1046 100.457 42.2042 100.413 42.3034 100.369C42.7006 100.193 43.0922 100.02 43.4766 99.8497C44.2458 99.5097 44.9882 99.1821 45.6954 98.8697C47.109 98.2477 48.383 97.6873 49.4546 97.2157C50.5218 96.7505 51.387 96.3729 51.9926 96.1089C52.2882 95.9825 52.5202 95.8833 52.6846 95.8129C52.7598 95.7817 52.8198 95.7573 52.8658 95.7385C52.9078 95.7221 52.929 95.7145 52.9298 95.7161C52.9306 95.7177 52.9106 95.7285 52.871 95.7481C52.8262 95.7693 52.7678 95.7973 52.6942 95.8321C52.5318 95.9065 52.3022 96.0117 52.0098 96.1461C51.4074 96.4173 50.5466 96.8053 49.485 97.2833C48.4154 97.7609 47.145 98.3281 45.7346 98.9577C45.0282 99.2717 44.287 99.6017 43.5182 99.9433C43.1338 100.114 42.7426 100.288 42.3454 100.464C42.2462 100.508 42.1466 100.552 42.0466 100.596C41.9306 100.649 41.7846 100.634 41.6826 100.554C41.6322 100.515 41.5906 100.459 41.5682 100.403C41.5426 100.351 41.525 100.282 41.5302 100.219C41.537 100.089 41.6218 99.9661 41.7422 99.9141C45.0034 98.4753 47.9558 97.1725 50.1002 96.2265C51.1674 95.7613 52.033 95.3837 52.6382 95.1197C52.7954 95.0377 52.9762 95.1065 53.0486 95.2153C53.1226 95.3233 53.139 95.4441 53.1074 95.5285C53.0794 95.6141 53.0262 95.6621 52.9898 95.6869C52.9526 95.7117 52.9298 95.7161 52.9298 95.7161Z" fill="#263238"/>
<path d="M38.251 95.9624C38.297 96.0668 39.611 98.4296 40.2862 99.642C40.5342 100.087 40.9718 100.394 41.475 100.475L42.213 100.595L53.1078 95.812L53.5134 95.1964C53.797 94.766 53.8658 94.2284 53.699 93.7408L52.3442 89.7756L38.251 95.9624Z" fill="#67B24D"/>
<g opacity="0.3">
<path d="M44.5996 103.921C45.7532 103.698 46.808 103.259 47.958 102.748C48.8864 102.336 49.8096 101.961 50.81 101.497C51.5432 101.157 52.2076 100.821 52.9312 100.465C53.2976 100.285 53.6648 100.011 53.7068 99.9033L44.5996 103.921Z" fill="black"/>
</g>
<g opacity="0.3">
<path d="M43.6523 102.82C44.8879 102.56 46.0243 102.086 47.2639 101.535C48.2647 101.091 49.2591 100.685 50.3383 100.186C51.1291 99.8213 51.8467 99.4617 52.6279 99.0809C53.0235 98.8881 53.4227 98.6001 53.4707 98.4893L43.6523 102.82Z" fill="black"/>
</g>
<g opacity="0.3">
<path d="M43.0996 101.562C44.3352 101.303 45.4716 100.828 46.7112 100.277C47.712 99.8329 48.7064 99.4269 49.7856 98.9285C50.5764 98.5633 51.294 98.2037 52.0752 97.8229C52.4708 97.6301 52.87 97.3421 52.918 97.2313L43.0996 101.562Z" fill="black"/>
</g>
<g opacity="0.3">
<path d="M42.5469 100.303C43.7825 100.044 44.9189 99.5689 46.1585 99.0189C47.1593 98.5745 48.1537 98.1689 49.2329 97.6701C50.0237 97.3049 50.7413 96.9453 51.5225 96.5645C51.9181 96.3717 52.3173 96.0837 52.3653 95.9729L42.5469 100.303Z" fill="black"/>
</g>
<path opacity="0.3" d="M38.251 95.9624C38.297 96.0668 39.611 98.4296 40.2862 99.642C40.5342 100.087 40.9718 100.394 41.475 100.475L42.213 100.595L53.1078 95.812L53.5134 95.1964C53.797 94.766 53.8658 94.2284 53.699 93.7408L52.3442 89.7756L38.251 95.9624Z" fill="black"/>
<path d="M53.6623 94.3825C53.6739 94.4089 50.7691 95.7093 47.1751 97.2873C43.5799 98.8657 40.6571 100.123 40.6455 100.097C40.6339 100.07 43.5383 98.7705 47.1335 97.1921C50.7271 95.6141 53.6507 94.3561 53.6623 94.3825Z" fill="#263238"/>
<path d="M52.2351 89.7373C52.2491 89.7661 49.1003 91.1913 45.2035 92.9201C41.3051 94.6497 38.1347 96.0281 38.1211 95.9997C38.1071 95.9709 41.2551 94.5461 45.1535 92.8165C49.0503 91.0877 52.2211 89.7085 52.2351 89.7373Z" fill="#263238"/>
<path d="M180.302 62.9848L175.305 62.4016C173.291 64.4464 170.706 65.9776 167.715 66.7128C159.112 68.8268 150.425 63.5672 148.311 54.9648C146.197 46.3624 151.457 37.6752 160.059 35.5612C168.661 33.4472 177.348 38.7068 179.463 47.3092C180.345 50.9012 179.939 54.506 178.543 57.6428L178.549 57.6356L180.302 62.9848Z" fill="white"/>
<path d="M180.302 62.9848C180.302 62.9848 180.257 62.8628 180.178 62.6312C180.097 62.3936 179.982 62.0528 179.831 61.606C179.527 60.7028 179.081 59.3764 178.502 57.6512L178.588 57.6668L178.583 57.674C178.565 57.6956 178.534 57.6992 178.512 57.682C178.494 57.6676 178.489 57.6428 178.498 57.6224C179.335 55.706 180.07 53.0144 179.796 49.828C179.728 49.0356 179.602 48.2168 179.397 47.3872C179.153 46.5688 178.929 45.7116 178.545 44.8836C177.83 43.2128 176.783 41.5576 175.377 40.1012C173.975 38.6448 172.217 37.3904 170.195 36.5212C168.177 35.65 165.894 35.1688 163.542 35.2176C158.843 35.2712 153.886 37.6852 150.911 41.9264C149.406 44.0828 148.401 46.5524 148.106 49.0684C147.782 51.578 148.068 54.094 148.843 56.3624C149.611 58.6384 150.915 60.6344 152.471 62.2368C154.033 63.8416 155.868 65.0468 157.759 65.8384C159.653 66.6336 161.599 67.0148 163.435 67.0712C163.665 67.074 163.893 67.0772 164.119 67.08C164.345 67.0868 164.57 67.0868 164.791 67.0588C165.235 67.0196 165.671 66.9812 166.1 66.9432C166.944 66.7748 167.769 66.6556 168.531 66.4096C171.606 65.4848 173.829 63.8216 175.272 62.368C175.282 62.3572 175.297 62.3524 175.311 62.354C176.922 62.5548 178.163 62.7096 179.009 62.8152C179.427 62.8688 179.746 62.9096 179.97 62.938C180.187 62.9664 180.302 62.9848 180.302 62.9848C180.302 62.9848 180.2 62.9776 179.988 62.9556C179.767 62.9324 179.451 62.8988 179.038 62.8552C178.182 62.7624 176.928 62.626 175.299 62.4488L175.339 62.4348C173.902 63.9104 171.672 65.6028 168.573 66.5516C167.805 66.8032 166.973 66.928 166.121 67.1012C165.688 67.1412 165.248 67.182 164.8 67.2236C164.576 67.2524 164.349 67.254 164.121 67.2476C163.892 67.2456 163.661 67.2436 163.429 67.2416C161.574 67.1916 159.603 66.8124 157.685 66.0132C155.769 65.2176 153.909 64.002 152.324 62.3796C150.744 60.7596 149.42 58.7388 148.638 56.4328C147.849 54.1352 147.557 51.5844 147.884 49.0388C148.183 46.4872 149.199 43.982 150.726 41.7952C150.898 41.5164 151.111 41.2692 151.318 41.0184L151.938 40.2676L152.622 39.5812C152.847 39.3504 153.074 39.122 153.329 38.9268C153.577 38.7228 153.824 38.5192 154.07 38.316C154.311 38.1056 154.593 37.9512 154.851 37.7672C155.117 37.5944 155.371 37.4036 155.646 37.2476C155.924 37.0984 156.202 36.9492 156.478 36.8008C158.707 35.6436 161.153 35.0344 163.537 35.0004C165.921 34.954 168.234 35.4452 170.276 36.3316C172.323 37.2164 174.099 38.4908 175.514 39.9684C176.933 41.446 177.987 43.124 178.703 44.8156C179.088 45.6536 179.311 46.5208 179.554 47.3484C179.758 48.1872 179.882 49.0148 179.946 49.8148C180.207 53.0332 179.449 55.7416 178.589 57.6624L178.504 57.6108L178.51 57.604C178.527 57.5824 178.558 57.5788 178.58 57.5956C178.588 57.602 178.593 57.6108 178.596 57.6196C179.155 59.3684 179.585 60.7124 179.877 61.628C180.017 62.0716 180.124 62.41 180.199 62.646C180.271 62.874 180.302 62.9848 180.302 62.9848Z" fill="#263238"/>
<path d="M156.499 51.5084L158.418 49.3856L162.491 52.654L168.539 45.708L170.517 47.6344L162.398 56.566L156.499 51.5084Z" fill="#263238"/>
<path d="M136.288 64.372C137.013 64.2816 138.077 64.1488 139.458 63.9764C139.47 63.9752 139.483 63.9792 139.492 63.9884C140.729 65.2348 142.635 66.6608 145.272 67.4536C145.925 67.6644 146.632 67.7668 147.356 67.9112C147.724 67.9436 148.098 67.9768 148.478 68.01C148.668 68.034 148.86 68.0344 149.054 68.0284C149.248 68.026 149.444 68.0236 149.641 68.0208C151.215 67.9724 152.884 67.6456 154.507 66.9636C154.924 66.7892 155.337 66.5908 155.744 66.3696C155.62 66.3216 155.494 66.2764 155.37 66.2244C153.492 65.4448 151.669 64.2532 150.115 62.6628C148.567 61.0752 147.269 59.0944 146.503 56.834C145.729 54.582 145.443 52.0816 145.764 49.5868C146.056 47.0856 147.053 44.6304 148.549 42.4868C148.718 42.2136 148.926 41.9712 149.129 41.7252L149.737 40.9896L149.998 40.7276C149.848 40.7204 149.698 40.7104 149.549 40.7084C147.532 40.6664 145.575 41.0792 143.844 41.826C142.111 42.5716 140.604 43.6472 139.402 44.8956C138.196 46.1444 137.298 47.5636 136.686 48.996C136.356 49.7056 136.164 50.4408 135.955 51.1424C135.779 51.854 135.67 52.556 135.613 53.2352C135.378 55.9676 136.008 58.2752 136.726 59.9184C136.734 59.9356 136.729 59.9564 136.714 59.9688C136.221 61.4352 135.842 62.5644 135.583 63.334C135.454 63.7172 135.354 64.0092 135.285 64.2128C135.218 64.4112 135.179 64.516 135.179 64.516C135.179 64.516 135.278 64.5004 135.464 64.4764C135.655 64.4528 135.929 64.418 136.288 64.372Z" fill="#F5F5F5"/>
<path d="M136.287 64.372C136.287 64.372 136.194 64.392 136.009 64.4196C135.816 64.4476 135.541 64.488 135.182 64.54L135.144 64.5456L135.156 64.5088C135.465 63.5732 135.979 62.0204 136.663 59.9532L136.679 59.9296C136.671 59.926 136.682 59.9552 136.67 59.9272L136.642 59.8624L136.586 59.7312C136.55 59.6428 136.514 59.5536 136.477 59.4632C136.403 59.2828 136.336 59.0952 136.267 58.9044C136.132 58.5216 136.012 58.1168 135.905 57.6936C135.693 56.8468 135.542 55.9196 135.504 54.9296C135.462 53.9404 135.527 52.8892 135.728 51.8096C135.821 51.2664 135.99 50.7268 136.154 50.1812C136.314 49.6304 136.545 49.0832 136.795 48.5436C137.797 46.3744 139.489 44.2876 141.798 42.808C144.09 41.3232 146.994 40.4592 150.002 40.6264L150.229 40.6392L150.069 40.8004C149.988 40.882 149.898 40.972 149.808 41.0624L149.814 41.0552C147.979 43.1224 146.576 45.7416 146.016 48.6232C145.268 52.5732 146.063 56.6392 147.99 59.7688C149.904 62.9236 152.803 65.1536 155.774 66.2868L155.969 66.3608L155.785 66.4484C155.057 66.7944 154.357 67.1592 153.622 67.3892C152.894 67.6324 152.165 67.8092 151.447 67.9268C150.015 68.1648 148.612 68.1352 147.348 67.9836L147.342 67.9828L147.34 67.9824C146.879 67.8892 146.424 67.8128 145.984 67.7144C145.541 67.6208 145.123 67.478 144.72 67.344C143.916 67.06 143.182 66.7248 142.527 66.3572C141.216 65.6204 140.218 64.782 139.479 64.0336C139.473 63.9952 139.389 64.0332 139.329 64.0316C139.266 64.0392 139.204 64.0464 139.142 64.0536C139.019 64.068 138.9 64.0824 138.784 64.096C138.554 64.1232 138.338 64.1484 138.137 64.172C137.738 64.218 137.4 64.2568 137.123 64.2888C136.855 64.3176 136.648 64.3404 136.5 64.3564C136.36 64.37 136.287 64.372 136.287 64.372C136.287 64.372 136.358 64.356 136.498 64.3352C136.645 64.3144 136.852 64.2852 137.119 64.2476C137.395 64.2104 137.733 64.1648 138.131 64.1116C138.331 64.0852 138.547 64.0568 138.777 64.026C138.893 64.0108 139.012 63.9952 139.134 63.9792C139.196 63.9712 139.258 63.9628 139.321 63.9548L139.417 63.9424C139.438 63.9416 139.437 63.9356 139.477 63.9384C139.492 63.9412 139.508 63.9488 139.519 63.9604L139.536 63.9776C140.279 64.7124 141.278 65.536 142.583 66.2568C143.888 66.9796 145.495 67.5716 147.369 67.84L147.361 67.8388C148.003 67.8932 148.656 67.9668 149.333 67.9476C150.014 67.9432 150.71 67.882 151.421 67.766C152.13 67.6472 152.85 67.47 153.568 67.2272C154.292 66.998 154.983 66.6348 155.7 66.2916L155.71 66.4532C152.702 65.316 149.762 63.0656 147.819 59.8732C145.861 56.7028 145.054 52.5868 145.812 48.5844C146.381 45.658 147.802 43.0128 149.657 40.9256L149.662 40.9196L149.663 40.9184C149.753 40.828 149.843 40.738 149.924 40.6564L149.992 40.83C147.028 40.6624 144.165 41.5088 141.901 42.968C139.62 44.4224 137.946 46.4756 136.948 48.6152C136.696 49.154 136.47 49.6828 136.309 50.2296C136.142 50.7768 135.974 51.3048 135.88 51.8392C135.677 52.9056 135.607 53.946 135.643 54.9248C135.676 55.9048 135.82 56.824 136.024 57.6648C136.128 58.0848 136.244 58.4868 136.375 58.8676C136.442 59.0576 136.507 59.244 136.578 59.4236C136.614 59.5136 136.65 59.6024 136.685 59.6904L136.74 59.8208L136.767 59.8856C136.78 59.8968 136.793 59.9836 136.746 60.0108L136.762 59.9872C136.055 62.058 135.529 63.6108 135.198 64.5256L135.173 64.4944C135.534 64.452 135.81 64.4192 136.005 64.3964C136.192 64.376 136.287 64.372 136.287 64.372Z" fill="#263238"/>
<path d="M270.704 66.7872H265.727C264.744 66.7872 263.947 65.9904 263.947 65.0072V37.8016C263.947 36.8184 264.744 36.0216 265.727 36.0216H270.704C271.687 36.0216 272.484 36.8184 272.484 37.8016V65.0072C272.484 65.99 271.687 66.7872 270.704 66.7872Z" fill="#455A64"/>
<path d="M243.898 68.0932H239.044C238.028 68.0932 237.203 67.2688 237.203 66.252V55.968C237.203 54.9512 238.028 54.1268 239.044 54.1268H243.898C244.915 54.1268 245.74 54.9512 245.74 55.968V66.252C245.74 67.2688 244.916 68.0932 243.898 68.0932Z" fill="#455A64"/>
<path d="M256.964 68.0932H252.362C251.276 68.0932 250.395 67.2124 250.395 66.1256V48.4992C250.395 47.4128 251.275 46.5316 252.362 46.5316H256.964C258.05 46.5316 258.931 47.4124 258.931 48.4992V66.1256C258.931 67.2124 258.05 68.0932 256.964 68.0932Z" fill="#455A64"/>
<path d="M269.328 25.8552C269.335 25.8616 269.265 25.9544 269.123 26.1264C268.959 26.3196 268.75 26.5668 268.489 26.8744C267.903 27.5464 267.09 28.4784 266.08 29.636C263.981 32.002 261.07 35.2836 257.708 39.0732L257.615 39.1784L257.497 39.1012C255.851 38.0264 254.084 36.872 252.259 35.6796L252.481 35.6472C252.419 35.7216 252.35 35.802 252.282 35.8828C247.966 40.9452 244.061 45.5268 241.204 48.878L241.131 48.964L241.041 48.8976C239.305 47.608 237.889 46.5572 236.876 45.8044C236.41 45.4492 236.037 45.1648 235.754 44.9496C235.499 44.7512 235.369 44.6424 235.376 44.6328C235.383 44.6232 235.527 44.7136 235.794 44.894C236.086 45.0964 236.472 45.3632 236.954 45.6972C237.983 46.4284 239.42 47.4496 241.183 48.7028L241.021 48.7224C243.857 45.3548 247.737 40.7504 252.023 35.6632C252.091 35.5824 252.159 35.502 252.222 35.4276L252.319 35.3128L252.445 35.3952C254.268 36.5916 256.033 37.7496 257.676 38.8276L257.465 38.8552C260.862 35.098 263.805 31.8444 265.926 29.4984C266.966 28.368 267.803 27.4572 268.407 26.8008C268.683 26.5084 268.907 26.2728 269.081 26.0888C269.236 25.9288 269.321 25.8488 269.328 25.8552Z" fill="#263238"/>
<path d="M269.599 32.3504C269.552 32.3504 269.511 31.602 269.48 30.3876C269.449 29.1728 269.43 27.492 269.429 25.6264L269.626 25.794C269.573 25.8028 269.515 25.8124 269.457 25.822C267.577 26.132 265.873 26.394 264.636 26.5672C263.4 26.74 262.632 26.824 262.624 26.7776C262.616 26.7312 263.371 26.5636 264.597 26.33C265.824 26.0964 267.522 25.7968 269.401 25.4868C269.459 25.4772 269.517 25.4676 269.571 25.4588L269.769 25.426V25.6264C269.768 27.492 269.748 29.1732 269.718 30.3876C269.687 31.602 269.645 32.3504 269.599 32.3504Z" fill="#263238"/>
</svg>
