<svg width="50" height="51" viewBox="0 0 50 51" fill="none" xmlns="http://www.w3.org/2000/svg">
<path d="M49.9911 17.6538H0V19.7371C0 20.8422 0.438987 21.902 1.22039 22.6834C2.00179 23.4648 3.0616 23.9038 4.16667 23.9038H10.4167C11.5217 23.9038 12.5815 23.4648 13.3629 22.6834C14.1443 21.902 14.5833 20.8422 14.5833 19.7371C14.5833 20.8422 15.0223 21.902 15.8037 22.6834C16.5851 23.4648 17.6449 23.9038 18.75 23.9038H31.25C32.3551 23.9038 33.4149 23.4648 34.1963 22.6834C34.9777 21.902 35.4167 20.8422 35.4167 19.7371C35.4167 20.8422 35.8557 21.902 36.6371 22.6834C37.4185 23.4648 38.4783 23.9038 39.5833 23.9038H45.8333C46.9384 23.9038 47.9982 23.4648 48.7796 22.6834C49.561 21.902 50 20.8422 50 19.7371V17.6538H49.9911Z" fill="#161B20"/>
<path d="M49.4882 15.5706L45.7533 2.49772C45.6288 2.06253 45.366 1.67971 45.0046 1.40719C44.6432 1.13468 44.2028 0.987279 43.7502 0.987305L34.208 0.987305L37.1247 15.5706H49.4882Z" fill="#161B20"/>
<path d="M15.7919 0.987305H6.24974C5.79709 0.987279 5.35675 1.13468 4.99534 1.40719C4.63392 1.67971 4.37109 2.06253 4.24661 2.49772L0.511719 15.5706H12.8753L15.7919 0.987305Z" fill="#161B20"/>
<path d="M29.9584 0.987305H20.0407L17.124 15.5706H32.8751L29.9584 0.987305Z" fill="#161B20"/>
<path d="M39.583 25.9874C38.0447 25.9887 36.5604 25.4204 35.4163 24.3921C34.2723 25.4204 32.788 25.9887 31.2497 25.9874H18.7497C17.2114 25.9887 15.7271 25.4204 14.583 24.3921C13.4389 25.4204 11.9546 25.9887 10.4163 25.9874H4.16634C3.45616 25.9859 2.75149 25.8626 2.08301 25.6228V48.9041C2.08301 49.4566 2.3025 49.9865 2.6932 50.3772C3.0839 50.7679 3.61381 50.9874 4.16634 50.9874H8.33301V32.2374C8.33301 31.6849 8.5525 31.155 8.9432 30.7643C9.3339 30.3736 9.86381 30.1541 10.4163 30.1541H20.833C21.3855 30.1541 21.9154 30.3736 22.3061 30.7643C22.6968 31.155 22.9163 31.6849 22.9163 32.2374V50.9874H45.833C46.3855 50.9874 46.9155 50.7679 47.3062 50.3772C47.6969 49.9865 47.9163 49.4566 47.9163 48.9041V25.6228C47.2479 25.8626 46.5432 25.9859 45.833 25.9874H39.583ZM41.6663 38.4874C41.6663 39.0399 41.4469 39.5698 41.0562 39.9605C40.6655 40.3512 40.1355 40.5707 39.583 40.5707H29.1663C28.6138 40.5707 28.0839 40.3512 27.6932 39.9605C27.3025 39.5698 27.083 39.0399 27.083 38.4874V32.2374C27.083 31.6849 27.3025 31.155 27.6932 30.7643C28.0839 30.3736 28.6138 30.1541 29.1663 30.1541H39.583C40.1355 30.1541 40.6655 30.3736 41.0562 30.7643C41.4469 31.155 41.6663 31.6849 41.6663 32.2374V38.4874Z" fill="#161B20"/>
</svg>
