<svg width="50" height="51" viewBox="0 0 50 51" fill="none" xmlns="http://www.w3.org/2000/svg">
<path d="M22.9167 29.6331C22.9167 28.7726 22.2125 28.0706 21.3542 28.0706H13.5417V34.3206C13.5417 35.4706 12.6083 36.4039 11.4583 36.4039C10.3083 36.4039 9.375 35.4706 9.375 34.3206V28.0706H1.5625C0.702083 28.0706 0 28.7726 0 29.6331V49.4247C0 50.2851 0.702083 50.9872 1.5625 50.9872H21.3542C22.2125 50.9872 22.9167 50.2851 22.9167 49.4247V29.6331Z" fill="#161B20"/>
<path d="M49.9997 29.6333C49.9997 28.7729 49.2955 28.0708 48.4372 28.0708H40.6247V34.3208C40.6247 35.4708 39.6913 36.4041 38.5413 36.4041C37.3913 36.4041 36.458 35.4708 36.458 34.3208V28.0708H28.6455C27.7851 28.0708 27.083 28.7729 27.083 29.6333V49.425C27.083 50.2854 27.7851 50.9875 28.6455 50.9875H48.4372C49.2955 50.9875 49.9997 50.2854 49.9997 49.425V29.6333Z" fill="#161B20"/>
<path d="M36.4587 2.5498C36.4587 1.69147 35.7545 0.987305 34.8962 0.987305H27.0837V7.2373C27.0837 8.3873 26.1503 9.32063 25.0003 9.32063C23.8503 9.32063 22.917 8.3873 22.917 7.2373V0.987305H15.1045C14.2441 0.987305 13.542 1.69147 13.542 2.5498V22.3415C13.542 23.2019 14.2441 23.904 15.1045 23.904H34.8962C35.7545 23.904 36.4587 23.2019 36.4587 22.3415V2.5498Z" fill="#161B20"/>
</svg>
