<svg width="16" height="17" viewBox="0 0 16 17" fill="none" xmlns="http://www.w3.org/2000/svg">
<path d="M8 0.987793C5.82667 0.987793 5.55533 0.997793 4.702 1.03579C3.85 1.07579 3.27 1.20979 2.76 1.40779C2.234 1.61179 1.78733 1.88579 1.34267 2.33046C0.898 2.77513 0.623333 3.22113 0.42 3.74779C0.222 4.25779 0.0873333 4.83779 0.048 5.68979C0.008 6.54313 0 6.81446 0 8.98779C0 11.1611 0.01 11.4325 0.048 12.2858C0.088 13.1371 0.222 13.7178 0.42 14.2278C0.620861 14.7617 0.935731 15.2454 1.34267 15.6451C1.74218 16.0523 2.22593 16.3673 2.76 16.5678C3.27067 16.7651 3.85067 16.9005 4.702 16.9398C5.55533 16.9798 5.82667 16.9878 8 16.9878C10.1733 16.9878 10.4447 16.9778 11.298 16.9398C12.1493 16.8998 12.73 16.7651 13.24 16.5678C13.7738 16.3667 14.2574 16.0518 14.6573 15.6451C15.0647 15.2457 15.3796 14.7619 15.58 14.2278C15.7773 13.7178 15.9127 13.1371 15.952 12.2858C15.992 11.4325 16 11.1611 16 8.98779C16 6.81446 15.99 6.54313 15.952 5.68979C15.912 4.83846 15.7773 4.25713 15.58 3.74779C15.379 3.21394 15.0642 2.73028 14.6573 2.33046C14.2581 1.92289 13.7743 1.60792 13.24 1.40779C12.73 1.20979 12.1493 1.07513 11.298 1.03579C10.4447 0.995793 10.1733 0.987793 8 0.987793ZM8 2.42779C10.1353 2.42779 10.39 2.43846 11.2333 2.47513C12.0133 2.51179 12.4367 2.64113 12.718 2.75179C13.0927 2.89646 13.358 3.06979 13.6393 3.34913C13.9187 3.62913 14.092 3.89513 14.2367 4.26979C14.346 4.55113 14.4767 4.97446 14.512 5.75446C14.55 6.59846 14.5587 6.85179 14.5587 8.98779C14.5587 11.1238 14.5487 11.3778 14.5093 12.2211C14.4687 13.0011 14.3387 13.4245 14.2287 13.7058C14.0985 14.053 13.894 14.3674 13.6293 14.6271C13.3708 14.892 13.0565 15.096 12.7093 15.2245C12.4293 15.3338 11.9993 15.4645 11.2193 15.4998C10.37 15.5378 10.12 15.5465 7.98 15.5465C5.83933 15.5465 5.58933 15.5365 4.74067 15.4971C3.96 15.4565 3.53 15.3265 3.25 15.2165C2.9026 15.0879 2.58845 14.8831 2.33067 14.6171C2.06305 14.3603 1.85781 14.0456 1.73067 13.6971C1.62067 13.4171 1.49133 12.9871 1.45067 12.2071C1.42067 11.3671 1.41 11.1078 1.41 8.97779C1.41 6.84713 1.42067 6.58713 1.45067 5.73713C1.49133 4.95713 1.62067 4.52779 1.73067 4.24779C1.87067 3.86779 2.05 3.60779 2.33067 3.32713C2.61 3.04779 2.87067 2.86779 3.25 2.72846C3.53 2.61779 3.95067 2.48779 4.73067 2.44779C5.58067 2.41779 5.83067 2.40779 7.97 2.40779L8 2.42779V2.42779ZM8 4.87979C7.46053 4.87979 6.92634 4.98605 6.42794 5.1925C5.92953 5.39894 5.47667 5.70154 5.09521 6.083C4.71374 6.46446 4.41115 6.91732 4.2047 7.41573C3.99826 7.91414 3.892 8.44832 3.892 8.98779C3.892 9.52726 3.99826 10.0615 4.2047 10.5599C4.41115 11.0583 4.71374 11.5111 5.09521 11.8926C5.47667 12.2741 5.92953 12.5766 6.42794 12.7831C6.92634 12.9895 7.46053 13.0958 8 13.0958C9.08951 13.0958 10.1344 12.663 10.9048 11.8926C11.6752 11.1222 12.108 10.0773 12.108 8.98779C12.108 7.89828 11.6752 6.8534 10.9048 6.083C10.1344 5.3126 9.08951 4.87979 8 4.87979V4.87979ZM8 11.6545C6.52667 11.6545 5.33333 10.4611 5.33333 8.98779C5.33333 7.51446 6.52667 6.32113 8 6.32113C9.47333 6.32113 10.6667 7.51446 10.6667 8.98779C10.6667 10.4611 9.47333 11.6545 8 11.6545ZM13.2307 4.71779C13.2214 4.96621 13.1162 5.20137 12.9372 5.37384C12.7582 5.54631 12.5193 5.64268 12.2707 5.64268C12.0221 5.64268 11.7832 5.54631 11.6041 5.37384C11.4251 5.20137 11.3199 4.96621 11.3107 4.71779C11.3107 4.46319 11.4118 4.21901 11.5918 4.03897C11.7719 3.85894 12.0161 3.75779 12.2707 3.75779C12.5253 3.75779 12.7695 3.85894 12.9495 4.03897C13.1295 4.21901 13.2307 4.46319 13.2307 4.71779V4.71779Z" fill="#F3F5FF"/>
</svg>
