<svg width="76" height="51" viewBox="0 0 76 51" fill="none" xmlns="http://www.w3.org/2000/svg">
<path d="M4.25199 0.487305C2.19583 0.487305 0.494141 2.17682 0.494141 4.23299V39.2379C0.494141 41.294 2.19583 42.9835 4.25199 42.9835H32.9987V30.4866H2.99694V4.23299C2.99694 3.51874 3.53776 2.98769 4.25199 2.98769H51.7611C52.4753 2.98769 53.0064 3.51874 53.0064 4.23299V5.47828H55.5067V4.23299C55.5067 2.17682 53.8173 0.487305 51.7611 0.487305H4.25199ZM39.2545 7.97867C37.1983 7.97867 35.499 9.68034 35.499 11.7365V46.7413C35.499 48.7974 37.1983 50.487 39.2545 50.487H56.7984C56.0004 49.438 55.5067 48.1487 55.5067 46.7413V40.488H37.9994V12.9842H63.0102V20.4852H65.5106V11.7365C65.5106 9.6803 63.8113 7.97867 61.7552 7.97867H39.2545ZM6.73282 10.4619C6.56781 10.4638 6.40481 10.4983 6.25323 10.5636C6.10164 10.6288 5.96447 10.7234 5.84961 10.8419C5.73475 10.9603 5.64449 11.1004 5.58402 11.254C5.52355 11.4075 5.49408 11.5715 5.49729 11.7365V14.2368C5.49355 14.4034 5.52312 14.569 5.58427 14.7239C5.64542 14.8789 5.73691 15.02 5.85337 15.1391C5.96983 15.2582 6.10891 15.3529 6.26245 15.4175C6.41599 15.4822 6.58089 15.5153 6.74747 15.5153C6.91405 15.5153 7.07895 15.4822 7.23249 15.4175C7.38603 15.3529 7.52511 15.2582 7.64157 15.1391C7.75803 15.02 7.84952 14.8789 7.91066 14.7239C7.97181 14.569 8.00138 14.4034 7.99764 14.2368V11.7365C8.00091 11.569 7.9705 11.4027 7.90821 11.2472C7.84593 11.0917 7.75304 10.9504 7.63507 10.8315C7.51709 10.7126 7.37644 10.6185 7.22145 10.555C7.06645 10.4916 6.90029 10.4599 6.73282 10.4619ZM6.73282 17.9654C6.56781 17.9673 6.40481 18.0018 6.25323 18.067C6.10164 18.1322 5.96447 18.2268 5.84961 18.3453C5.73475 18.4638 5.64449 18.6039 5.58402 18.7574C5.52355 18.911 5.49408 19.0749 5.49729 19.2399V26.7313C5.49355 26.8978 5.52312 27.0634 5.58427 27.2184C5.64542 27.3733 5.73691 27.5144 5.85337 27.6335C5.96983 27.7526 6.10891 27.8474 6.26245 27.912C6.41599 27.9766 6.58089 28.0099 6.74747 28.0099C6.91405 28.0099 7.07895 27.9766 7.23249 27.912C7.38603 27.8474 7.52511 27.7526 7.64157 27.6335C7.75803 27.5144 7.84952 27.3733 7.91066 27.2184C7.97181 27.0634 8.00138 26.8978 7.99764 26.7313V19.2399C8.00091 19.0725 7.9705 18.9061 7.90821 18.7507C7.84593 18.5952 7.75304 18.4538 7.63507 18.3349C7.51709 18.2161 7.37644 18.122 7.22145 18.0585C7.06645 17.995 6.90029 17.9634 6.73282 17.9654ZM41.7377 17.9654C41.5727 17.9673 41.4097 18.0018 41.2581 18.067C41.1065 18.1322 40.9694 18.2268 40.8545 18.3453C40.7397 18.4638 40.6494 18.6039 40.5889 18.7574C40.5285 18.911 40.499 19.0749 40.5022 19.2399V21.7403C40.4986 21.9068 40.5283 22.0723 40.5895 22.2271C40.6507 22.382 40.7422 22.523 40.8586 22.642C40.9751 22.761 41.1141 22.8555 41.2676 22.92C41.4211 22.9846 41.5859 23.0179 41.7524 23.0179C41.9189 23.0179 42.0837 22.9846 42.2372 22.92C42.3906 22.8555 42.5297 22.761 42.6461 22.642C42.7626 22.523 42.8541 22.382 42.9153 22.2271C42.9765 22.0723 43.0061 21.9068 43.0025 21.7403V19.2399C43.0058 19.0725 42.9754 18.9061 42.9131 18.7507C42.8508 18.5952 42.7579 18.4538 42.64 18.3349C42.522 18.2161 42.3813 18.122 42.2263 18.0585C42.0714 17.995 41.9052 17.9634 41.7377 17.9654ZM61.7552 22.9856C59.699 22.9856 58.0071 24.6751 58.0071 26.7313V46.7413C58.0071 48.7975 59.699 50.487 61.7552 50.487H71.759C73.8152 50.487 75.5047 48.7975 75.5047 46.7413V26.7313C75.5047 24.6751 73.8152 22.9856 71.759 22.9856H61.7552ZM41.7377 25.4688C41.4066 25.4727 41.0905 25.608 40.8589 25.8446C40.6273 26.0813 40.499 26.4002 40.5022 26.7313V34.2348C40.4986 34.4012 40.5283 34.5667 40.5895 34.7216C40.6507 34.8764 40.7422 35.0174 40.8586 35.1364C40.9751 35.2554 41.1141 35.3499 41.2676 35.4145C41.4211 35.479 41.5859 35.5122 41.7524 35.5122C41.9189 35.5122 42.0837 35.479 42.2372 35.4145C42.3906 35.3499 42.5297 35.2554 42.6461 35.1364C42.7626 35.0174 42.8541 34.8764 42.9153 34.7216C42.9765 34.5667 43.0061 34.4012 43.0025 34.2348V26.7313C43.0042 26.5649 42.9725 26.3997 42.9095 26.2456C42.8465 26.0916 42.7534 25.9517 42.6356 25.8341C42.5177 25.7165 42.3776 25.6237 42.2235 25.561C42.0693 25.4983 41.9042 25.4669 41.7377 25.4688ZM60.5099 27.9887H73.0043V45.4839H60.5099V27.9887ZM26.6917 35.4899H29.2531C30.9203 35.4899 30.9203 37.9926 29.2531 37.9926H26.7503C25.083 38.0724 24.9644 35.5699 26.6917 35.4899ZM49.2608 42.9835H51.7611C52.0879 42.9907 52.399 43.1255 52.6276 43.3592C52.8562 43.5928 52.9842 43.9068 52.9842 44.2337C52.9842 44.5606 52.8562 44.8745 52.6276 45.1081C52.399 45.3418 52.0879 45.4768 51.7611 45.4839H49.2608C48.9339 45.4768 48.6229 45.3418 48.3943 45.1081C48.1657 44.8745 48.0377 44.5606 48.0377 44.2337C48.0377 43.9068 48.1657 43.5928 48.3943 43.3592C48.6229 43.1255 48.9339 42.9907 49.2608 42.9835ZM20.9023 45.4839C20.4624 46.2652 19.8032 47.1139 18.7877 47.9866H16.7464C16.5799 47.983 16.4144 48.0127 16.2596 48.0739C16.1047 48.1351 15.9636 48.2266 15.8446 48.3431C15.7256 48.4595 15.631 48.5985 15.5665 48.752C15.5019 48.9055 15.4687 49.0703 15.4687 49.2368C15.4687 49.4033 15.5019 49.5683 15.5665 49.7218C15.631 49.8752 15.7256 50.0142 15.8446 50.1307C15.9636 50.2471 16.1047 50.3386 16.2596 50.3998C16.4144 50.461 16.5799 50.4906 16.7464 50.487H34.2928C33.4942 49.4387 32.9987 48.1503 32.9987 46.7413V45.4839H20.9023Z" fill="#161B20"/>
</svg>
