<svg width="19" height="24" viewBox="0 0 19 24" fill="none" xmlns="http://www.w3.org/2000/svg">
<path d="M9.66699 5.44229C8.85789 5.44229 8.06695 5.68222 7.39421 6.13174C6.72146 6.58125 6.19712 7.22016 5.88748 7.96768C5.57785 8.7152 5.49684 9.53774 5.65469 10.3313C5.81254 11.1249 6.20216 11.8538 6.77428 12.4259C7.34641 12.998 8.07534 13.3877 8.8689 13.5455C9.66245 13.7034 10.485 13.6223 11.2325 13.3127C11.98 13.0031 12.6189 12.4787 13.0685 11.806C13.518 11.1332 13.7579 10.3423 13.7579 9.5332C13.7579 8.44823 13.3269 7.40769 12.5597 6.64049C11.7925 5.8733 10.752 5.44229 9.66699 5.44229ZM9.66699 11.9877C9.18153 11.9877 8.70697 11.8438 8.30332 11.5741C7.89967 11.3044 7.58507 10.921 7.39929 10.4725C7.21351 10.024 7.1649 9.53048 7.25961 9.05435C7.35432 8.57821 7.58809 8.14085 7.93137 7.79758C8.27464 7.4543 8.712 7.22053 9.18813 7.12582C9.66427 7.03111 10.1578 7.07972 10.6063 7.2655C11.0548 7.45128 11.4382 7.76588 11.7079 8.16953C11.9776 8.57318 12.1215 9.04774 12.1215 9.5332C12.1215 10.1842 11.8629 10.8085 11.4026 11.2688C10.9423 11.7291 10.318 11.9877 9.66699 11.9877ZM9.66699 0.533203C7.28087 0.53591 4.99326 1.48499 3.30602 3.17223C1.61878 4.85947 0.669699 7.14709 0.666992 9.5332C0.666992 12.7446 2.15097 16.1482 4.96245 19.377C6.22574 20.8359 7.64757 22.1497 9.20165 23.294C9.33922 23.3904 9.50312 23.4421 9.67108 23.4421C9.83905 23.4421 10.0029 23.3904 10.1405 23.294C11.6917 22.1492 13.1108 20.8355 14.3715 19.377C17.1789 16.1482 18.667 12.7446 18.667 9.5332C18.6643 7.14709 17.7152 4.85947 16.028 3.17223C14.3407 1.48499 12.0531 0.53591 9.66699 0.533203ZM9.66699 21.6014C7.97642 20.2718 2.30336 15.3883 2.30336 9.5332C2.30336 7.58025 3.07917 5.70728 4.46011 4.32633C5.84106 2.94538 7.71403 2.16957 9.66699 2.16957C11.62 2.16957 13.4929 2.94538 14.8739 4.32633C16.2548 5.70728 17.0306 7.58025 17.0306 9.5332C17.0306 15.3863 11.3576 20.2718 9.66699 21.6014Z" fill="white"/>
</svg>
