<svg width="85" height="85" viewBox="0 0 85 85" fill="none" xmlns="http://www.w3.org/2000/svg">
<rect x="0.5" y="0.203125" width="84" height="84" rx="42" fill="#67B34D"/>
<path d="M23.0099 35.771C22.9823 35.8701 22.9681 35.9725 22.9678 36.0755V39.1393C22.9673 40.3015 23.2452 41.447 23.7782 42.4797C24.3113 43.5125 25.084 44.4026 26.0316 45.0755V59.0542C26.0316 59.3589 26.1527 59.6511 26.3681 59.8666C26.5836 60.0821 26.8758 60.2031 27.1805 60.2031H57.8188C58.1236 60.2031 58.4158 60.0821 58.6313 59.8666C58.8467 59.6511 58.9678 59.3589 58.9678 59.0542V45.0755C59.9154 44.4026 60.6881 43.5125 61.2211 42.4797C61.7542 41.447 62.0321 40.3015 62.0316 39.1393V36.0755C62.0317 35.9692 62.0169 35.8635 61.9876 35.7614L59.2416 26.1467C59.0798 25.5888 58.7419 25.0982 58.2785 24.7479C57.815 24.3976 57.2508 24.2066 56.6699 24.2031H28.3295C27.7486 24.2066 27.1843 24.3976 26.7209 24.7479C26.2574 25.0982 25.9196 25.5888 25.7578 26.1467L23.0099 35.771ZM27.9676 26.771C27.9915 26.6935 28.0394 26.6255 28.1045 26.577C28.1695 26.5285 28.2483 26.5019 28.3295 26.501H56.6699C56.753 26.5011 56.8338 26.5283 56.9002 26.5784C56.9665 26.6284 57.0147 26.6988 57.0376 26.7787L59.3603 34.9265H25.6486L27.9676 26.771ZM37.521 37.2244H47.4784V39.1393C47.4784 40.4597 46.9539 41.7261 46.0202 42.6598C45.0865 43.5935 43.8201 44.118 42.4997 44.118C41.1792 44.118 39.9129 43.5935 38.9792 42.6598C38.0455 41.7261 37.521 40.4597 37.521 39.1393V37.2244ZM25.2656 37.2244H35.2231V39.1393C35.2241 39.9985 35.0027 40.8434 34.5804 41.5917C34.1582 42.34 33.5494 42.9662 32.8135 43.4096C32.0775 43.853 31.2393 44.0983 30.3804 44.1218C29.5215 44.1453 28.6711 43.9461 27.912 43.5436C27.8177 43.4631 27.711 43.3984 27.5961 43.3521C26.8831 42.9042 26.2954 42.2828 25.8878 41.5461C25.4802 40.8093 25.2662 39.9813 25.2656 39.1393V37.2244ZM56.6699 57.9053H28.3295V46.1593C29.8258 46.5664 31.4132 46.4849 32.8599 45.9265C34.3067 45.3681 35.5372 44.3621 36.372 43.0553C37.0287 44.0852 37.9344 44.9331 39.0054 45.5204C40.0764 46.1078 41.2782 46.4157 42.4997 46.4157C43.7212 46.4157 44.923 46.1078 45.994 45.5204C47.065 44.9331 47.9707 44.0852 48.6273 43.0553C49.4622 44.3621 50.6927 45.3681 52.1395 45.9265C53.5862 46.4849 55.1735 46.5664 56.6699 46.1593V57.9053ZM57.4033 43.3521C57.2883 43.3984 57.1816 43.4631 57.0873 43.5436C56.3282 43.9461 55.4779 44.1453 54.619 44.1218C53.7601 44.0983 52.9219 43.853 52.1859 43.4096C51.4499 42.9662 50.8412 42.34 50.419 41.5917C49.9967 40.8434 49.7753 39.9985 49.7763 39.1393V37.2244H59.7337V39.1393C59.7332 39.9813 59.5191 40.8093 59.1116 41.5461C58.704 42.2828 58.1163 42.9042 57.4033 43.3521Z" fill="white"/>
</svg>
