<svg width="85" height="85" viewBox="0 0 85 85" fill="none" xmlns="http://www.w3.org/2000/svg">
<rect x="0.5" y="0.703125" width="84" height="84" rx="42" fill="#132547"/>
<path d="M65.2177 30.2563L55.3043 24.8448C55.136 24.7518 54.9469 24.7031 54.7547 24.7031H48.6271C48.3223 24.7031 48.0301 24.8242 47.8146 25.0396C47.5992 25.2551 47.4781 25.5473 47.4781 25.8521C47.4781 27.1725 46.9536 28.4389 46.0199 29.3726C45.0862 30.3062 43.8198 30.8308 42.4994 30.8308C41.179 30.8308 39.9126 30.3062 38.9789 29.3726C38.0452 28.4389 37.5207 27.1725 37.5207 25.8521C37.5207 25.5473 37.3996 25.2551 37.1842 25.0396C36.9687 24.8242 36.6765 24.7031 36.3717 24.7031H30.2441C30.0512 24.7028 29.8614 24.7515 29.6926 24.8448L19.7811 30.2563C19.1645 30.5818 18.7018 31.1382 18.4944 31.8039C18.287 32.4696 18.3516 33.1903 18.6743 33.8084L22.3662 40.8572C22.6022 41.302 22.9557 41.6736 23.3882 41.9316C23.8207 42.1895 24.3156 42.3239 24.8192 42.3201H29.0951V58.0223C29.0951 58.7333 29.3776 59.4152 29.8803 59.9179C30.3831 60.4207 31.065 60.7031 31.776 60.7031H53.2228C53.9338 60.7031 54.6157 60.4207 55.1185 59.9179C55.6212 59.4152 55.9037 58.7333 55.9037 58.0223V42.3201H60.1815C60.6851 42.3239 61.18 42.1895 61.6125 41.9316C62.045 41.6736 62.3985 41.302 62.6345 40.8572L66.3264 33.8084C66.6489 33.1901 66.7133 32.4692 66.5055 31.8034C66.2977 31.1377 65.8347 30.5814 65.2177 30.2563ZM24.8134 40.0223C24.7294 40.0252 24.6461 40.0051 24.5726 39.9643C24.499 39.9235 24.438 39.8634 24.396 39.7906L20.7098 32.7457C20.689 32.7035 20.677 32.6575 20.6745 32.6106C20.6719 32.5636 20.6789 32.5166 20.695 32.4724C20.7111 32.4282 20.736 32.3877 20.7682 32.3534C20.8003 32.3191 20.8391 32.2916 20.8822 32.2727L29.0951 27.788V40.0223H24.8134ZM53.6058 58.0223C53.6058 58.1238 53.5654 58.2213 53.4936 58.2931C53.4218 58.3649 53.3244 58.4053 53.2228 58.4053H31.776C31.6744 58.4053 31.577 58.3649 31.5052 58.2931C31.4334 58.2213 31.393 58.1238 31.393 58.0223V27.001H35.3147C35.5938 28.7042 36.4692 30.2528 37.7845 31.3702C39.0999 32.4876 40.7696 33.1011 42.4956 33.1011C44.2215 33.1011 45.8912 32.4876 47.2066 31.3702C48.522 30.2528 49.3974 28.7042 49.6764 27.001H53.6058V58.0223ZM64.2909 32.7457L60.599 39.7925C60.557 39.8654 60.4959 39.9254 60.4224 39.9662C60.3488 40.0071 60.2656 40.0271 60.1815 40.0242H55.9037V27.788L64.1185 32.2689C64.1617 32.2882 64.2006 32.316 64.2327 32.3507C64.2649 32.3855 64.2897 32.4263 64.3056 32.4709C64.3215 32.5154 64.3283 32.5628 64.3254 32.61C64.3225 32.6572 64.3102 32.7034 64.289 32.7457H64.2909Z" fill="white"/>
</svg>
