<svg width="85" height="85" viewBox="0 0 85 85" fill="none" xmlns="http://www.w3.org/2000/svg">
<rect x="0.5" y="0.703125" width="84" height="84" rx="42" fill="white"/>
<path d="M40.0288 52.5847C40.0288 52.8655 39.9172 53.1349 39.7186 53.3335C39.52 53.532 39.2507 53.6436 38.9698 53.6436H34.0282C33.7473 53.6436 33.478 53.532 33.2794 53.3335C33.0808 53.1349 32.9693 52.8655 32.9693 52.5847C32.9693 52.3038 33.0808 52.0345 33.2794 51.8359C33.478 51.6373 33.7473 51.5258 34.0282 51.5258H38.9698C39.2507 51.5258 39.52 51.6373 39.7186 51.8359C39.9172 52.0345 40.0288 52.3038 40.0288 52.5847ZM50.971 51.5258H46.0294C45.7485 51.5258 45.4792 51.6373 45.2806 51.8359C45.082 52.0345 44.9704 52.3038 44.9704 52.5847C44.9704 52.8655 45.082 53.1349 45.2806 53.3335C45.4792 53.532 45.7485 53.6436 46.0294 53.6436H50.971C51.2519 53.6436 51.5212 53.532 51.7198 53.3335C51.9184 53.1349 52.03 52.8655 52.03 52.5847C52.03 52.3038 51.9184 52.0345 51.7198 51.8359C51.5212 51.6373 51.2519 51.5258 50.971 51.5258ZM61.9133 59.6442C61.9133 59.925 61.8017 60.1944 61.6031 60.393C61.4045 60.5916 61.1352 60.7031 60.8544 60.7031H24.1449C23.864 60.7031 23.5947 60.5916 23.3961 60.393C23.1975 60.1944 23.0859 59.925 23.0859 59.6442C23.0859 59.3634 23.1975 59.094 23.3961 58.8954C23.5947 58.6968 23.864 58.5853 24.1449 58.5853H25.9097V37.0537C25.9097 36.8571 25.9645 36.6643 26.0679 36.497C26.1713 36.3298 26.3192 36.1946 26.4951 36.1066C26.671 36.0187 26.8679 35.9814 27.0638 35.9991C27.2596 36.0168 27.4467 36.0886 27.604 36.2066L37.205 43.4073V37.0537C37.205 36.8571 37.2597 36.6643 37.3631 36.497C37.4665 36.3298 37.6144 36.1946 37.7903 36.1066C37.9662 36.0187 38.1631 35.9814 38.359 35.9991C38.5549 36.0168 38.7419 36.0886 38.8993 36.2066L46.2059 41.6918L48.3237 26.821C48.411 26.2339 48.7058 25.6975 49.1545 25.309C49.6032 24.9205 50.1763 24.7055 50.7698 24.7031H53.9678C54.5613 24.7055 55.1344 24.9205 55.5831 25.309C56.0319 25.6975 56.3266 26.2339 56.4139 26.821L59.0612 45.3752C59.0612 45.3752 59.0718 45.4793 59.0718 45.5252V58.5853H60.8367C60.9772 58.5829 61.1168 58.6086 61.2474 58.6608C61.3779 58.7129 61.4967 58.7905 61.5969 58.8891C61.6971 58.9877 61.7767 59.1052 61.831 59.2348C61.8853 59.3645 61.9133 59.5036 61.9133 59.6442ZM48.1472 43.1408L49.9121 44.4662H56.8092L54.3243 27.121C54.3123 27.0362 54.2699 26.9586 54.2049 26.9028C54.14 26.8469 54.057 26.8166 53.9713 26.8174H50.784C50.6983 26.8166 50.6153 26.8469 50.5503 26.9028C50.4854 26.9586 50.443 27.0362 50.431 27.121L48.1472 43.1408ZM28.0276 58.5853H56.9716V46.5841H49.5591C49.33 46.5841 49.1071 46.5098 48.9238 46.3723L46.3823 44.4662L39.3228 39.1716V45.5252C39.3228 45.7218 39.2681 45.9146 39.1647 46.0819C39.0613 46.2492 38.9134 46.3844 38.7375 46.4723C38.5616 46.5602 38.3647 46.5975 38.1688 46.5798C37.9729 46.5622 37.7859 46.4903 37.6285 46.3723L28.0276 39.1716V58.5853Z" fill="#67B34D"/>
</svg>
