<svg width="25" height="26" viewBox="0 0 25 26" fill="none" xmlns="http://www.w3.org/2000/svg">
<path d="M23.1985 7.8433L19.5811 7.90019C20.3849 9.24371 20.7229 10.8149 20.5426 12.3701C20.3623 13.9253 19.6738 15.3776 18.584 16.5016C17.6526 17.4819 16.4349 18.4157 15.0883 19.2803C15.004 19.3334 14.9043 19.3567 14.8051 19.3464C14.706 19.336 14.6133 19.2927 14.5417 19.2233L10.6101 15.4135C10.5246 15.3306 10.4233 15.2657 10.3122 15.2227C10.2012 15.1797 10.0826 15.1595 9.96355 15.1632C9.8445 15.167 9.72742 15.1946 9.61926 15.2445C9.5111 15.2943 9.41407 15.3654 9.33392 15.4535C9.17984 15.632 9.10063 15.863 9.11282 16.0985C9.12501 16.3339 9.22766 16.5556 9.39935 16.7171L12.7712 19.9846C12.8216 20.0333 12.8597 20.0932 12.8825 20.1595C12.9053 20.2258 12.9121 20.2965 12.9024 20.3659C12.8926 20.4353 12.8666 20.5014 12.8264 20.5588C12.7863 20.6162 12.7331 20.6633 12.6713 20.6963C8.29554 23.0565 3.57114 24.6588 2.88349 24.8852C2.55534 25.0444 2.18616 25.0989 1.82603 25.0411C1.46589 24.9834 1.13223 24.8163 0.870306 24.5624C0.608377 24.3086 0.430854 23.9804 0.361813 23.6222C0.292773 23.2641 0.335556 22.8934 0.484361 22.5604C0.772447 21.5879 3.54855 12.4807 7.45732 7.63189C7.49617 7.58391 7.54459 7.54455 7.59949 7.51631C7.6544 7.48808 7.71458 7.4716 7.7762 7.46791C7.83783 7.46422 7.89955 7.47341 7.95743 7.4949C8.0153 7.51638 8.06807 7.54969 8.11236 7.59269L12.8576 12.1921C12.9454 12.2771 13.0497 12.3431 13.1641 12.3859C13.2785 12.4288 13.4006 12.4476 13.5226 12.4412C13.6446 12.4348 13.764 12.4033 13.8733 12.3487C13.9826 12.2941 14.0794 12.2176 14.1578 12.1239C14.3011 11.9453 14.3718 11.7193 14.3559 11.4909C14.3399 11.2626 14.2385 11.0486 14.0718 10.8917L9.40442 6.36886C9.35683 6.32294 9.32009 6.26698 9.29687 6.20505C9.27366 6.14313 9.26455 6.07681 9.27023 6.01092C9.2759 5.94503 9.2962 5.88123 9.32966 5.82419C9.36311 5.76714 9.40888 5.71828 9.46362 5.68117C10.5545 4.93618 11.8314 4.50978 13.151 4.44977C14.4706 4.38976 15.7809 4.69851 16.9349 5.34142L16.878 1.71956C16.8758 1.59762 16.8987 1.47653 16.9453 1.36383C16.9919 1.25113 17.0612 1.14923 17.1489 1.06446C17.2366 0.979691 17.3408 0.913874 17.455 0.871102C17.5692 0.82833 17.691 0.809518 17.8128 0.815836C18.0421 0.832159 18.2568 0.9348 18.4135 1.10308C18.5701 1.27136 18.6572 1.49276 18.6572 1.72269L18.7068 4.87904L21.5871 1.90554C21.6684 1.82166 21.7654 1.75461 21.8726 1.70823C21.9798 1.66184 22.0951 1.63702 22.2119 1.63518C22.3287 1.63335 22.4447 1.65453 22.5533 1.69752C22.6619 1.74052 22.7609 1.80448 22.8448 1.88576C22.9287 1.96704 22.9957 2.06405 23.0421 2.17124C23.0885 2.27843 23.1133 2.39371 23.1152 2.51049C23.117 2.62727 23.0958 2.74328 23.0528 2.85187C23.0098 2.96047 22.9459 3.05954 22.8646 3.14341L19.9831 6.11583L23.1395 6.06619C23.3693 6.0589 23.5933 6.13898 23.7664 6.29029C23.9396 6.44161 24.0489 6.65292 24.0724 6.88164C24.0824 7.00309 24.0673 7.12529 24.0281 7.24066C23.9888 7.35603 23.9263 7.46211 23.8444 7.55229C23.7624 7.64247 23.6628 7.71484 23.5517 7.76491C23.4406 7.81497 23.3204 7.84165 23.1985 7.8433Z" fill="white"/>
</svg>
