<svg width="30" height="26" viewBox="0 0 30 26" fill="none" xmlns="http://www.w3.org/2000/svg">
<path d="M29.8798 13.7841C29.8935 14.6622 29.5904 15.5158 29.026 16.1885C28.4616 16.8613 27.6737 17.3081 26.8066 17.4472L26.8892 22.7018C26.8979 23.2552 26.6864 23.7894 26.3013 24.1869C25.9161 24.5844 25.3888 24.8126 24.8353 24.8213L6.05506 25.1167C5.50163 25.1254 4.96742 24.9139 4.56993 24.5287C4.17244 24.1435 3.94425 23.6162 3.93555 23.0628L3.85291 17.8082C3.15854 17.7191 2.5044 17.4323 1.9684 16.982C1.43241 16.5316 1.03713 15.9367 0.829655 15.2681C0.622177 14.5995 0.611237 13.8853 0.798139 13.2107C0.985041 12.536 1.36191 11.9293 1.88386 11.4628C2.40582 10.9962 3.05086 10.6895 3.74218 10.5792C4.4335 10.4689 5.14196 10.5596 5.7832 10.8405C6.42444 11.1214 6.97144 11.5807 7.35904 12.1636C7.74665 12.7466 7.95854 13.4287 7.96948 14.1287L8.04331 18.8237C8.04766 19.1005 8.16176 19.3641 8.3605 19.5567C8.55925 19.7493 8.82636 19.855 9.10307 19.8507C9.37978 19.8463 9.64343 19.7322 9.83602 19.5335C10.0286 19.3348 10.1344 19.0676 10.13 18.7909L10.0808 15.6609L20.5143 15.4968L20.5635 18.6269C20.5679 18.9036 20.682 19.1672 20.8807 19.3598C21.0794 19.5524 21.3465 19.6581 21.6233 19.6538C21.9 19.6494 22.1636 19.5353 22.3562 19.3366C22.5488 19.1379 22.6546 18.8708 22.6502 18.594L22.5764 13.899C22.5611 12.9305 22.9313 11.9956 23.6053 11.3C24.2794 10.6044 25.2022 10.205 26.1707 10.1898C27.1392 10.1746 28.074 10.5447 28.7696 11.2188C29.4652 11.8928 29.8646 12.8156 29.8798 13.7841ZM4.22751 8.44768C5.65847 8.42721 7.04559 8.94137 8.11748 9.88958C9.18938 10.8378 9.86893 12.1518 10.0232 13.5746L20.5062 13.4097C20.6157 11.9828 21.2536 10.6481 22.2951 9.66662C23.3367 8.68518 24.707 8.12765 26.1378 8.10312C26.2762 8.10094 26.408 8.04389 26.5043 7.94452C26.6006 7.84515 26.6535 7.7116 26.6513 7.57324L26.6267 6.00821C26.6049 4.62465 26.0345 3.30639 25.0407 2.34345C24.047 1.3805 22.7115 0.851749 21.3279 0.873507L8.80773 1.0704C7.42416 1.09216 6.10591 1.66264 5.14296 2.65636C4.18002 3.65007 3.65127 4.98562 3.67302 6.36918L3.69764 7.93421C3.69981 8.07256 3.75686 8.20439 3.85623 8.30068C3.9556 8.39698 4.08916 8.44985 4.22751 8.44768Z" fill="white"/>
</svg>
