<svg width="14" height="25" viewBox="0 0 14 25" fill="none" xmlns="http://www.w3.org/2000/svg">
<path d="M11.5686 1.32527L11.6472 6.32727C11.6507 6.55004 11.4719 6.73278 11.2492 6.73353C10.2734 6.73692 7.83191 6.77697 6.85866 6.80352C6.63598 6.80962 6.45143 6.63271 6.44793 6.40999L6.38429 2.36341C6.3762 1.84898 6.69547 1.3869 7.1788 1.21328L9.9634 0.212879C10.7352 -0.0647398 11.5556 0.501177 11.5686 1.32527ZM9.37155 20.6096L9.28428 15.0603C9.26691 13.9559 8.3575 13.0746 7.25309 13.092L2.15375 13.1722C1.04935 13.1896 0.168093 14.099 0.185461 15.2034L0.272728 20.7527C0.276202 20.9735 0.458095 21.1498 0.678966 21.1463L8.97789 21.0158C9.19881 21.0123 9.37502 20.8305 9.37155 20.6096ZM0.297887 22.3525L0.309679 23.1024C0.320101 23.765 0.865729 24.2938 1.52839 24.2833L8.22752 24.178C8.89019 24.1676 9.41892 23.6219 9.4085 22.9593L9.39671 22.2094C9.39323 21.9885 9.21134 21.8122 8.99047 21.8157L0.691545 21.9462C0.470674 21.9497 0.294412 22.1315 0.297887 22.3525ZM11.4161 7.5259L6.71667 7.5998C6.054 7.61022 5.52527 8.15585 5.53569 8.81851L5.54365 9.32475C5.54714 9.54647 5.73044 9.72296 5.95213 9.71787C7.19483 9.68943 10.9634 9.61551 12.2389 9.62836C12.4638 9.63062 12.6464 9.44743 12.6429 9.22261L12.6348 8.70687C12.6244 8.04421 12.0787 7.51548 11.4161 7.5259ZM12.2616 10.4129L5.7624 10.5151C5.09973 10.5256 4.571 11.0712 4.58142 11.7339L4.58457 11.9338C4.58804 12.1547 4.76993 12.331 4.9908 12.3275L7.24051 12.2921C8.78671 12.2678 10.0599 13.5015 10.0842 15.0477C10.2191 23.6286 10.2549 23.1669 10.1056 23.6127C10.0175 23.8756 10.2127 24.1468 10.4898 24.1424L11.877 24.1206C12.9815 24.1032 13.8627 23.1938 13.8453 22.0894L13.6834 11.7907C13.6712 11.0176 13.0347 10.4008 12.2616 10.4129Z" fill="white"/>
</svg>
