<svg width="33" height="25" viewBox="0 0 33 25" fill="none" xmlns="http://www.w3.org/2000/svg">
<path d="M31.027 3.74747L24.5023 0.322138C24.3545 0.24334 24.1892 0.202952 24.0217 0.204682L20.0222 0.267578C19.757 0.271748 19.5043 0.381092 19.3198 0.571554C19.1352 0.762016 19.0339 1.01799 19.038 1.28318C19.0505 2.07873 18.7465 2.84667 18.1928 3.41805C17.6391 3.98944 16.8811 4.31747 16.0856 4.32998C15.29 4.34249 14.5221 4.03846 13.9507 3.48476C13.3793 2.93107 13.0513 2.17307 13.0388 1.37752C13.0346 1.11234 12.9253 0.859673 12.7348 0.675109C12.5443 0.490544 12.2884 0.3892 12.0232 0.39337L8.02367 0.456266C7.85574 0.459602 7.69136 0.505181 7.54569 0.588798L1.13321 4.21758C0.675974 4.46849 0.336899 4.89048 0.190332 5.39102C0.0437649 5.89156 0.101669 6.42979 0.351348 6.8877L2.83215 11.4505C3.01247 11.7785 3.27932 12.0508 3.60364 12.2377C3.92796 12.4246 4.29733 12.5189 4.67154 12.5105L7.21248 12.4705L7.36972 22.4693C7.37806 22.9996 7.59675 23.505 7.97767 23.8741C8.3586 24.2432 8.87056 24.4459 9.40092 24.4376L23.3992 24.2174C23.9296 24.2091 24.4349 23.9904 24.804 23.6095C25.1731 23.2286 25.3758 22.7166 25.3675 22.1862L25.2103 12.1875L27.7524 12.1475C28.1267 12.1442 28.493 12.0383 28.8112 11.8413C29.1295 11.6443 29.3877 11.3637 29.5576 11.0302L31.8937 6.39167C32.1288 5.92598 32.1695 5.38608 32.007 4.89038C31.8446 4.39468 31.4921 3.98366 31.027 3.74747ZM4.6401 10.5107C4.62164 10.5119 4.60337 10.5064 4.5886 10.4953L2.12069 5.95727L7.06601 3.15666L7.18103 10.4708L4.6401 10.5107ZM27.7707 10.1295C27.7639 10.1358 27.7559 10.1407 27.7471 10.1438C27.7383 10.147 27.729 10.1483 27.7197 10.1478L25.1788 10.1877L25.0638 2.87363L30.096 5.51733L27.7707 10.1295Z" fill="white"/>
</svg>
