<svg width="8" height="13" viewBox="0 0 8 13" fill="none" xmlns="http://www.w3.org/2000/svg">
<path d="M7.06711 6.6924L1.69939 12.2316C1.62432 12.3092 1.52792 12.3627 1.42241 12.3855C1.3169 12.4082 1.20701 12.3991 1.10666 12.3594C1.00631 12.3197 0.920005 12.251 0.858676 12.1622C0.797346 12.0734 0.763749 11.9684 0.762137 11.8605L0.590614 0.953492C0.588832 0.845572 0.619111 0.739549 0.677617 0.648845C0.736123 0.558142 0.820226 0.486837 0.919279 0.443958C1.01833 0.401079 1.12788 0.388553 1.23405 0.407966C1.34023 0.42738 1.43826 0.477859 1.51573 0.553015L7.05497 5.92073C7.10647 5.97058 7.14764 6.0301 7.17613 6.09587C7.20461 6.16164 7.21985 6.23239 7.22098 6.30405C7.22211 6.37572 7.2091 6.44691 7.1827 6.51354C7.15629 6.58018 7.11701 6.64096 7.06711 6.6924Z" fill="white"/>
</svg>
