<svg width="19" height="19" viewBox="0 0 19 19" fill="none" xmlns="http://www.w3.org/2000/svg">
<path d="M17.8952 13.3212L13.5567 11.377C13.3601 11.2927 13.1457 11.2589 12.9327 11.2784C12.7197 11.298 12.515 11.3704 12.3371 11.489C12.319 11.5006 12.3018 11.5135 12.2857 11.5276L10.0181 13.4562C9.99461 13.469 9.96842 13.4762 9.94164 13.4772C9.91486 13.4781 9.88822 13.4728 9.86384 13.4617C8.40634 12.7582 6.8965 11.2576 6.19025 9.82028C6.17849 9.79627 6.17238 9.76988 6.17238 9.74314C6.17238 9.7164 6.17849 9.69001 6.19025 9.66599L8.12531 7.37C8.1392 7.35301 8.15208 7.33522 8.16389 7.31673C8.28088 7.1381 8.35155 6.93316 8.3695 6.72039C8.38746 6.50761 8.35215 6.29372 8.26675 6.09801L6.33628 1.76685C6.22664 1.51117 6.03705 1.29795 5.79594 1.15919C5.55484 1.02042 5.27523 0.96359 4.99909 0.99723C3.79895 1.15501 2.69732 1.74438 1.90006 2.65522C1.10281 3.56605 0.664487 4.73601 0.667003 5.94648C0.667003 13.1375 6.5172 18.9877 13.7083 18.9877C14.9187 18.9901 16.0885 18.5517 16.9993 17.7544C17.9101 16.9572 18.4995 15.8557 18.6575 14.6556C18.6911 14.3808 18.635 14.1024 18.4977 13.862C18.3603 13.6216 18.149 13.4319 17.8952 13.3212ZM13.7083 17.8857C7.12518 17.8857 1.76908 12.5296 1.76908 5.94648C1.76601 5.00414 2.10614 4.09291 2.72591 3.38305C3.34568 2.6732 4.2027 2.21327 5.13685 2.08921H5.15797C5.19498 2.0899 5.23092 2.10175 5.26107 2.12322C5.29123 2.14469 5.31419 2.17477 5.32696 2.20952L7.26478 6.53609C7.27583 6.56014 7.28155 6.5863 7.28155 6.61278C7.28155 6.63925 7.27583 6.66541 7.26478 6.68946L5.32604 8.99097C5.31157 9.0074 5.29837 9.0249 5.28655 9.04332C5.16523 9.22852 5.09379 9.44191 5.07915 9.66282C5.06451 9.88373 5.10716 10.1047 5.20297 10.3043C6.01759 11.9721 7.69826 13.6399 9.38444 14.4545C9.5852 14.5498 9.80723 14.5914 10.0289 14.5753C10.2505 14.5592 10.4642 14.486 10.6491 14.3627C10.6665 14.3507 10.684 14.3379 10.7005 14.3241L12.9671 12.3955C12.9895 12.3834 13.0142 12.3764 13.0396 12.3748C13.0649 12.3732 13.0903 12.3771 13.1141 12.3863L17.4535 14.3305C17.4889 14.3456 17.5187 14.3715 17.5387 14.4045C17.5586 14.4374 17.5677 14.4758 17.5646 14.5142C17.4412 15.4488 16.9817 16.3064 16.272 16.9269C15.5623 17.5474 14.6509 17.8882 13.7083 17.8857Z" fill="white"/>
</svg>
