<svg width="58" height="65" viewBox="0 0 58 65" fill="none" xmlns="http://www.w3.org/2000/svg">
<path d="M17.7213 27.0724C17.3292 26.6804 17.3292 26.0448 17.7213 25.6527L21.9574 21.4166C22.3494 21.0245 22.9851 21.0245 23.3771 21.4166C23.7691 21.8086 23.7691 22.4442 23.3771 22.8363L19.141 27.0724C18.9449 27.2685 18.6881 27.3665 18.431 27.3665C18.174 27.3665 17.9173 27.2685 17.7213 27.0724ZM19.8767 13.7577C20.5565 11.22 22.0169 9.22592 24.1001 7.99107C25.9876 6.87229 28.2149 6.47737 30.5736 6.83352C31.7028 5.52174 33.0184 4.3805 34.5053 3.43227C36.4074 2.21938 38.5667 1.34156 40.9229 0.809841C40.9789 0.792272 41.036 0.7801 41.0937 0.77257C43.6695 0.211866 46.477 0.0615254 49.441 0.339618C49.9214 0.38467 50.3018 0.76504 50.3469 1.24543C50.6249 4.20995 50.4745 7.01774 49.9136 9.59386C49.9061 9.65096 49.8942 9.70744 49.8769 9.7629C49.3453 12.1194 48.4673 14.2788 47.2542 16.1813C46.3085 17.6642 45.1708 18.9766 43.8634 20.1039C44.2163 22.444 43.8177 24.727 42.717 26.59C41.483 28.6787 39.4867 30.143 36.9439 30.8246C36.8568 30.8479 36.7694 30.8591 36.6834 30.8591C36.2409 30.8591 35.8358 30.5643 35.7148 30.1168L34.2024 24.5207L32.4665 25.3175C32.1875 25.4455 31.8938 25.508 31.6037 25.508C31.0736 25.508 30.5553 25.3 30.1589 24.9035L25.7981 20.5429C25.1847 19.9295 25.0222 19.0238 25.3841 18.2353L26.181 16.4993L20.5849 14.9868C20.0502 14.8422 19.7335 14.2925 19.8767 13.7577ZM28.4812 15.2823V15.2826C28.4774 15.2978 28.4778 15.3053 28.4779 15.3064C28.4782 15.3064 28.4817 15.3133 28.4932 15.3249L35.3618 22.1934C35.3734 22.2048 35.3802 22.2084 35.3814 22.2091C35.3815 22.2089 35.3891 22.2092 35.4044 22.2054C37.9543 21.565 40.1688 20.4947 42.015 19.0515C42.0956 18.9579 42.1932 18.8785 42.3051 18.8192C45.0259 16.587 46.9062 13.5146 47.8272 9.78976L40.8967 2.85952C37.1677 3.78165 34.0926 5.66517 31.8597 8.39089C31.8005 8.50308 31.721 8.60096 31.6272 8.68178C30.1879 10.5259 29.1204 12.737 28.4812 15.2823ZM40.7574 14.2755C43.1407 14.2755 45.0794 12.3366 45.0794 9.9534C45.0794 7.57016 43.1405 5.63129 40.7574 5.63129C38.3742 5.63129 36.4353 7.57016 36.4353 9.9534C36.4353 12.3366 38.3742 14.2755 40.7574 14.2755ZM24.324 33.2593C24.5808 33.2593 24.8378 33.1612 25.0339 32.9652L29.27 28.7291C29.6621 28.337 29.6621 27.7014 29.27 27.3094C28.878 26.9173 28.2424 26.9173 27.8503 27.3094L23.6142 31.5455C23.2221 31.9376 23.2221 32.5732 23.6142 32.9652C23.8101 33.1612 24.0669 33.2593 24.324 33.2593ZM26.3236 24.3629C25.9315 23.9709 25.2959 23.9709 24.9039 24.3629L18.5455 30.7213C18.1535 31.1133 18.1535 31.7489 18.5455 32.141C18.7415 32.337 18.9984 32.435 19.2554 32.435C19.5124 32.435 19.7693 32.337 19.9653 32.141L26.3237 25.7826C26.7156 25.3907 26.7156 24.7549 26.3236 24.3629ZM57.576 38.4527C57.4737 38.7596 57.2298 38.9986 56.9207 39.0943C55.3716 39.5742 53.903 40.0484 52.5134 40.5136V54.4475C52.5134 54.8615 52.2591 55.2331 51.8732 55.3832L29.3641 64.1353C29.247 64.1809 29.1237 64.2036 29.0003 64.2036C28.877 64.2036 28.7535 64.1809 28.6365 64.1353L6.12744 55.3832C5.74142 55.2331 5.4873 54.8615 5.4873 54.4475V40.5136C4.09771 40.0486 2.62906 39.5743 1.07998 39.0943C0.770887 38.9986 0.526928 38.7596 0.424526 38.4527C0.322249 38.1457 0.374203 37.8083 0.564074 37.5462L5.67817 30.4884C5.79137 30.332 5.94736 30.2116 6.12731 30.1417L14.5205 26.8782C15.0373 26.6771 15.6192 26.9333 15.82 27.45C16.0209 27.9668 15.7649 28.5486 15.2482 28.7495L9.26125 31.0774L29.0003 38.7525L48.7392 31.0775L43.9485 29.2147C43.4317 29.0138 43.1757 28.432 43.3766 27.9152C43.5775 27.3983 44.1593 27.1422 44.6761 27.3434L51.8732 30.1419C52.0532 30.2119 52.2092 30.3322 52.3224 30.4885L57.4365 37.5463C57.6263 37.8084 57.6783 38.1458 57.576 38.4527ZM27.9964 42.9261L24.6992 47.4765C24.4026 47.8859 23.848 48.0106 23.4046 47.7683C23.3421 47.7341 17.9814 44.8358 7.49532 41.1977V53.7606L27.9964 61.7322V42.9261ZM50.5055 41.1977C40.0194 44.8359 34.6587 47.7343 34.5959 47.7684C34.1527 48.0106 33.5982 47.8856 33.3016 47.4765L30.0043 42.9261V61.7322L50.5055 53.7607V41.1977Z" fill="#242525"/>
</svg>
