<svg width="64" height="65" viewBox="0 0 64 65" fill="none" xmlns="http://www.w3.org/2000/svg">
<path d="M38.7716 9.35987C39.6489 8.57449 40.8216 8.11249 42.103 8.16324C44.5419 8.25974 46.5271 10.2484 46.6192 12.6875C46.7207 15.3724 44.5742 17.5809 41.912 17.5809C40.7052 17.5809 39.605 17.1266 38.7715 16.3805V25.432H47.823C47.0376 26.3092 46.5756 27.482 46.6264 28.7634C46.7229 31.2022 48.7115 33.1875 51.1506 33.2796C53.8355 33.3811 56.0439 31.2346 56.0439 28.5724C56.0439 27.3656 55.5896 26.2654 54.8434 25.4319H63.9996V3.34411C63.9999 1.60961 62.5937 0.203613 60.8594 0.203613H38.7716V9.35987Z" fill="#242525"/>
<path d="M33.0829 42.3067C33.0323 41.0253 33.4943 39.8526 34.2795 38.9753H25.228V48.0268C24.3508 47.2415 23.178 46.7795 21.8967 46.8302C19.4578 46.9267 17.4725 48.9153 17.3804 51.3545C17.2789 54.0393 19.4254 56.2477 22.0877 56.2477C23.2944 56.2477 24.3947 55.7935 25.2282 55.0473V64.2036H47.3159C49.0503 64.2036 50.4564 62.7976 50.4564 61.0631V38.9753H41.3002C42.0463 39.8088 42.5005 40.9091 42.5005 42.1158C42.5005 44.7781 40.292 46.9245 37.6073 46.8231C35.168 46.7308 33.1793 44.7457 33.0829 42.3067Z" fill="#242525"/>
<path d="M28.3686 21.7031C27.1619 21.7031 26.0616 22.1573 25.2281 22.9036V13.7473H3.1405C1.406 13.7473 0 15.1533 0 16.8877V35.2254H4.2275C4.5335 30.9652 8.04738 27.5428 12.3421 27.3806C12.4508 27.3764 12.5586 27.3744 12.6665 27.3744C17.1268 27.3744 20.7919 30.8437 21.1054 35.2254H25.2283V29.9239C26.1055 30.7093 27.2783 31.1713 28.5596 31.1206C30.9985 31.0241 32.9838 29.0354 33.0759 26.5963C33.1774 23.9116 31.0309 21.7031 28.3686 21.7031Z" fill="#242525"/>
<path d="M15.9928 57.4051C14.3834 55.7337 13.5454 53.5345 13.6333 51.2127C13.7955 46.9181 17.218 43.4042 21.4783 43.0982V38.9753H16.1766C16.9228 38.1418 17.3771 37.0416 17.3771 35.8348C17.3771 33.1726 15.1686 31.0262 12.4839 31.1276C10.0448 31.2198 8.05613 33.205 7.95963 35.6438C7.909 36.9252 8.371 38.098 9.15625 38.9752H0V61.063C0 62.7976 1.406 64.2036 3.1405 64.2036H21.4784V59.9755C19.4098 59.8239 17.4379 58.906 15.9928 57.4051Z" fill="#242525"/>
</svg>
