<svg width="36" height="41" viewBox="0 0 36 41" fill="none" xmlns="http://www.w3.org/2000/svg">
<path d="M26.6958 0.203613H9.30446C7.38348 0.203613 5.82617 1.76093 5.82617 3.68191H30.1741C30.1741 1.76084 28.6168 0.203613 26.6958 0.203613Z" fill="white"/>
<path d="M9.30438 40.2036H26.6957C28.6167 40.2036 30.174 38.6463 30.174 36.7253H5.82617C5.82617 38.6464 7.3834 40.2036 9.30438 40.2036ZM17.1305 37.5949H18.8696C19.3498 37.5949 19.7392 37.9843 19.7392 38.4645C19.7392 38.9448 19.3498 39.3341 18.8696 39.3341H17.1305C16.6502 39.3341 16.2609 38.9448 16.2609 38.4645C16.261 37.9843 16.6502 37.5949 17.1305 37.5949Z" fill="white"/>
<path d="M21.4781 26.4645C21.4301 26.9447 21.0019 27.2951 20.5216 27.2471C20.0414 27.1991 19.691 26.7708 19.739 26.2906H16.2607C16.2607 27.2732 14.7911 27.6297 14.5216 26.2906H12.8955L13.4521 30.7427C13.5051 31.1818 13.8793 31.5112 14.3217 31.508H21.6782C22.1204 31.5112 22.4947 31.1819 22.5478 30.7427L23.1043 26.2906C21.252 26.2906 21.4781 26.221 21.4781 26.4645Z" fill="white"/>
<path d="M28.4348 17.995C26.4543 19.7665 23.4588 19.7665 21.4783 17.995C19.4978 19.7665 16.5023 19.7665 14.5218 17.995C12.5413 19.7665 9.54577 19.7665 7.56528 17.995C7.06384 18.4571 6.4715 18.8095 5.82617 19.0298V34.9863H30.1741V19.0298C29.5322 18.8017 28.9414 18.4501 28.4348 17.995ZM24.9565 26.2907C24.8087 26.2907 24.913 25.8037 24.2695 30.9602C24.1062 32.2741 22.9847 33.2573 21.6608 33.2472H14.3217C12.9978 33.2573 11.8763 32.274 11.713 30.9602L11.1478 26.2907C10.6676 26.3194 10.2549 25.9535 10.2261 25.4732C10.1973 24.993 10.5632 24.5803 11.0435 24.5515H14.1566L13.6522 22.1167C13.5562 21.6364 13.8676 21.1692 14.3478 21.0732C14.8281 20.9771 15.2953 21.2886 15.3913 21.7688L15.9478 24.5514H20.087L20.6087 21.7689C20.7047 21.2886 21.1719 20.9771 21.6522 21.0733C22.1324 21.1693 22.4439 21.6365 22.3478 22.1167L21.8434 24.5516H24.9565C25.4367 24.5516 25.8261 24.9409 25.8261 25.4211C25.8261 25.9013 25.4367 26.2907 24.9565 26.2907Z" fill="white"/>
<path d="M6.75621 13.7949L10.1041 5.42102H5.8258L0.608398 14.1167C7.68661 14.1166 6.56487 14.2471 6.75621 13.7949Z" fill="white"/>
<path d="M8.50391 14.1166C14.2343 14.1166 13.6343 14.1949 13.6691 13.9427L15.3909 5.42102H11.8243L8.50391 14.1166Z" fill="white"/>
<path d="M19.1895 5.41968L17.1228 5.42098L15.3906 14.1166H20.608L19.1895 5.41968Z" fill="white"/>
<path d="M22.3474 14.1166H27.4953L24.1423 5.41968H20.8877L22.3474 14.1166Z" fill="white"/>
<path d="M29.3042 14.1166H35.3912L30.1738 5.4209H25.8955C29.5737 14.621 29.3042 13.8732 29.3042 14.1166Z" fill="white"/>
<path d="M21.0086 15.8558H14.9912C15.9551 17.5175 18.0836 18.0832 19.7452 17.1193C20.2691 16.8153 20.7046 16.3798 21.0086 15.8558Z" fill="white"/>
<path d="M14.0516 15.8558H8.03418C8.99809 17.5175 11.1265 18.0832 12.7882 17.1193C13.3121 16.8153 13.7476 16.3798 14.0516 15.8558Z" fill="white"/>
<path d="M7.0955 15.8558H1.07812C2.04204 17.5175 4.17049 18.0832 5.83215 17.1193C6.35609 16.8153 6.79158 16.3798 7.0955 15.8558Z" fill="white"/>
<path d="M27.9646 15.8558H21.9473C22.9112 17.5175 25.0396 18.0832 26.7013 17.1193C27.2252 16.8153 27.6607 16.3798 27.9646 15.8558Z" fill="white"/>
<path d="M34.9217 15.8558H28.9043C29.8682 17.5175 31.9967 18.0832 33.6583 17.1193C34.1823 16.8153 34.6178 16.3798 34.9217 15.8558Z" fill="white"/>
</svg>
