<svg width="40" height="41" viewBox="0 0 40 41" fill="none" xmlns="http://www.w3.org/2000/svg">
<path fill-rule="evenodd" clip-rule="evenodd" d="M8.457 20.5657H31.543C32.4697 20.5657 33.2998 21.3691 33.2079 22.3095L31.8608 36.0935H8.13917L6.79208 22.3095C6.70025 21.3691 7.53033 20.5657 8.457 20.5657ZM0.416667 37.2602H39.5833C39.8128 37.2602 40 37.4474 40 37.6769V39.7869C40 40.0164 39.8128 40.2036 39.5833 40.2036H0.416667C0.187167 40.2036 0 40.0164 0 39.7869V37.6768C0 37.4474 0.187167 37.2602 0.416667 37.2602ZM35.0536 33.1801C35.0536 31.1166 34.6381 29.1502 33.8866 27.3598L33.0331 36.0935H33.5509C34.5021 35.2741 35.0536 34.3034 35.0536 33.1801ZM6.44883 36.0935H6.967L6.1135 27.3601C5.362 29.1504 4.94642 31.1169 4.94642 33.1802C4.94642 34.3034 5.4975 35.2742 6.44883 36.0935ZM13.9377 19.399C15.7927 18.5818 17.8434 18.1271 20.0005 18.1271C22.1576 18.1271 24.2083 18.5818 26.0632 19.399H13.9377ZM13.0429 7.16011C13.0429 11.0029 16.1578 14.1176 20.0005 14.1176C23.8433 14.1176 26.958 11.0029 26.958 7.16011C26.958 3.31853 23.8432 0.203613 20.0005 0.203613C16.1578 0.203613 13.0429 3.31853 13.0429 7.16011ZM24.9641 29.7933C25.1569 29.7933 25.3131 29.637 25.3131 29.4443V28.3817C25.3131 28.189 25.1569 28.0327 24.9641 28.0327C23.9178 28.0327 23.3928 26.7651 24.1327 26.0253C24.2689 25.889 24.2689 25.6679 24.1327 25.5317L23.3813 24.7803C23.245 24.644 23.0239 24.644 22.8877 24.7803C22.1478 25.5201 20.8803 24.9951 20.8803 23.9489C20.8803 23.756 20.7241 23.5999 20.5313 23.5999H19.4688C19.2761 23.5999 19.1198 23.756 19.1198 23.9489C19.1198 24.9952 17.8522 25.5201 17.1123 24.7803C16.9761 24.644 16.755 24.644 16.6188 24.7803L15.8673 25.5317C15.7311 25.6679 15.7311 25.889 15.8673 26.0253C16.6071 26.7651 16.0822 28.0327 15.0359 28.0327C14.8431 28.0327 14.6869 28.189 14.6869 28.3817V29.4443C14.6869 29.6369 14.8431 29.7933 15.0359 29.7933C16.0822 29.7933 16.6072 31.0609 15.8673 31.8007C15.7311 31.9369 15.7311 32.158 15.8673 32.2943L16.6188 33.0457C16.755 33.1819 16.9761 33.1819 17.1123 33.0457C17.8531 32.3049 19.1198 32.8296 19.1198 33.8772C19.1198 34.07 19.2761 34.2262 19.4688 34.2262H20.5313C20.724 34.2262 20.8803 34.07 20.8803 33.8772C20.8803 32.8309 22.1479 32.306 22.8877 33.0457C23.024 33.1819 23.245 33.1819 23.3813 33.0457L24.1327 32.2943C24.2689 32.158 24.2689 31.9369 24.1327 31.8007C23.3928 31.0609 23.9178 29.7933 24.9641 29.7933ZM20 26.36C18.5901 26.36 17.4471 27.503 17.4471 28.9129C17.4471 30.3229 18.5901 31.4659 20 31.4659C21.4099 31.4659 22.5529 30.3229 22.5529 28.9129C22.5529 27.503 21.4099 26.36 20 26.36ZM27.5674 32.4879L30.7299 29.3254C30.9577 29.0976 30.9577 28.7283 30.7299 28.5004L27.5674 25.3379C27.3397 25.1102 26.9703 25.1102 26.7426 25.3379C26.5148 25.5657 26.5148 25.935 26.7426 26.1629L29.4927 28.9129L26.7426 31.6629C26.5148 31.8907 26.5148 32.26 26.7426 32.4879C26.9703 32.7156 27.3397 32.7156 27.5674 32.4879ZM13.2574 31.663L10.5073 28.913L13.2574 26.1629C13.4852 25.9352 13.4852 25.5659 13.2574 25.338C13.0297 25.1103 12.6603 25.1103 12.4325 25.338L9.27 28.5005C9.04225 28.7283 9.04225 29.0976 9.27 29.3254L12.4325 32.4879C12.6603 32.7157 13.0296 32.7157 13.2574 32.4879C13.4853 32.2601 13.4853 31.8908 13.2574 31.663Z" fill="white"/>
</svg>
