<svg width="42" height="65" viewBox="0 0 42 65" fill="none" xmlns="http://www.w3.org/2000/svg">
<path d="M32.919 0.203613L30.3944 4.39377H11.6063L9.08162 0.203613H32.919ZM41.3288 4.02154V60.3857C41.3288 62.4911 39.6162 64.2036 37.5109 64.2036H4.48981C2.38443 64.2036 0.671875 62.4911 0.671875 60.3857V4.02154C0.671875 1.91616 2.38443 0.203613 4.48981 0.203613H6.50397L10.0379 6.0666C10.238 6.39911 10.5956 6.60067 10.9825 6.60067H31.0182C31.4051 6.60067 31.7626 6.39911 31.9627 6.0666L35.4967 0.203613H37.5109C39.6162 0.203613 41.3288 1.91616 41.3288 4.02154ZM25.5318 60.1238C25.5318 59.5147 25.0375 59.0203 24.4284 59.0203H17.5723C16.9632 59.0203 16.4688 59.5147 16.4688 60.1238C16.4688 60.7329 16.9632 61.2272 17.5723 61.2272H24.4284C25.0375 61.2272 25.5318 60.7329 25.5318 60.1238ZM38.1685 32.2036C38.1685 22.7375 30.4664 15.0354 21.0003 15.0354C11.5342 15.0354 3.83215 22.7375 3.83215 32.2036C3.83215 41.6697 11.5342 49.3718 21.0003 49.3718C30.4664 49.3718 38.1685 41.6697 38.1685 32.2036ZM21.0003 17.2423C12.751 17.2423 6.03905 23.9542 6.03905 32.2036C6.03905 37.5355 8.84328 42.2229 13.0526 44.8741V33.4807C13.0526 33.2835 13.1055 33.0981 13.1953 32.9378C13.1967 32.9363 13.1967 32.9348 13.1982 32.9334L18.8714 22.9832C19.379 22.0916 20.1558 21.5796 21.0003 21.5796C21.8448 21.5796 22.6217 22.0916 23.1293 22.9832L28.8024 32.9334C28.8039 32.9348 28.8039 32.9363 28.8054 32.9378C28.8951 33.0981 28.9481 33.2835 28.9481 33.4807V44.8741C33.1574 42.2229 35.9616 37.5355 35.9616 32.2036C35.9616 23.9542 29.2497 17.2423 21.0003 17.2423ZM15.2595 34.5841V46.0188C16.7057 46.622 18.2653 47.0045 19.8969 47.1237V34.5841H15.2595ZM21.2122 24.0763C21.1224 23.916 21.0445 23.8395 21.0003 23.8056C20.9562 23.8395 20.8797 23.916 20.7885 24.0763L16.0554 32.3772H25.9453L21.2122 24.0763ZM22.1038 34.5841V47.1237C23.7354 47.0045 25.295 46.622 26.7412 46.0188V34.5841H22.1038Z" fill="#242525"/>
</svg>
