<svg width="50" height="65" viewBox="0 0 50 65" fill="none" xmlns="http://www.w3.org/2000/svg">
<path fill-rule="evenodd" clip-rule="evenodd" d="M13.7037 4.10099H23.1279C23.4674 4.10099 23.7441 3.92492 23.8881 3.61888L25.4895 0.203613H11.3435L12.9449 3.61888C13.0875 3.92492 13.3656 4.10099 13.7037 4.10099ZM28.2158 56.9287H0.572266V61.0385C0.572266 62.7838 1.99203 64.2036 3.7374 64.2036H33.0956C34.841 64.2036 36.2607 62.7838 36.2607 61.0385V60.01H34.9025C34.3295 60.01 33.867 59.5614 33.8502 58.9885L33.7915 57.0419C33.0425 56.8183 32.32 56.5179 31.6325 56.1475L30.2141 57.4821C29.7977 57.8747 29.1535 57.8664 28.7469 57.4611L28.2158 56.9287ZM13.6478 60.8624C13.6478 60.3985 14.0237 60.024 14.4863 60.024H22.3453C22.8079 60.024 23.1838 60.3985 23.1838 60.8624C23.1838 61.3249 22.8079 61.7009 22.3453 61.7009H14.4863C14.0237 61.7009 13.6478 61.3249 13.6478 60.8624ZM35.5075 33.673H38.6908L38.7467 35.4757C38.7621 35.9494 39.0807 36.3462 39.5391 36.4636C40.446 36.6942 41.3138 37.0547 42.1173 37.5326C42.5253 37.7744 43.0312 37.7199 43.3777 37.3943L44.6913 36.159L46.9439 38.4102L45.7072 39.7252C45.383 40.0703 45.3271 40.5776 45.5703 40.9856C46.0482 41.7906 46.4073 42.6583 46.6379 43.5639C46.7553 44.0236 47.1535 44.3422 47.6273 44.3562L49.4285 44.4121V47.5968L47.6273 47.6527C47.1535 47.6667 46.7553 47.9853 46.6379 48.4464C46.4073 49.3519 46.0482 50.2197 45.5689 51.0246C45.3271 51.4327 45.383 51.9385 45.7086 52.2837L46.9439 53.5987L44.6913 55.8499L43.3777 54.6146C43.0326 54.2904 42.5267 54.2345 42.1173 54.4762C41.3124 54.9556 40.4432 55.3147 39.5363 55.5453C39.0765 55.664 38.7579 56.0609 38.7439 56.5346L38.6908 58.3359H35.5075L35.453 56.5346C35.4391 56.0609 35.1204 55.6626 34.6607 55.5453C33.7538 55.3147 32.8846 54.9542 32.0783 54.4748C31.6702 54.2331 31.163 54.2876 30.8178 54.6132L29.5056 55.8499L27.2544 53.5987L28.4911 52.2865C28.8167 51.9413 28.8726 51.4341 28.6295 51.026C28.1502 50.2197 27.7896 49.3491 27.5591 48.4436C27.4417 47.9825 27.0434 47.6653 26.5697 47.6499L24.7684 47.5968V44.4135L26.5697 44.359C27.0448 44.345 27.4417 44.0264 27.5591 43.5653C27.7896 42.6583 28.1502 41.7892 28.6295 40.9828C28.8712 40.5748 28.8167 40.0675 28.4911 39.7224L27.2544 38.4102L29.5056 36.1604L30.8164 37.3957C31.1616 37.7213 31.6688 37.7786 32.0783 37.5354C32.8832 37.0561 33.7524 36.697 34.6579 36.465C35.1176 36.3476 35.4363 35.9508 35.4516 35.477L35.5075 33.673ZM30.4908 44.2332C29.514 47.8777 31.6842 51.6367 35.3287 52.6121C35.9184 52.77 36.5165 52.8483 37.1104 52.8483C38.2954 52.8483 39.465 52.538 40.52 51.9288C42.1019 51.0149 43.2338 49.5406 43.7075 47.7743C44.6829 44.1312 42.5127 40.3722 38.8697 39.3954C35.2266 38.42 31.4676 40.5888 30.4908 44.2332ZM23.1279 5.77788C24.1144 5.77788 24.9878 5.22311 25.4056 4.33017L27.3411 0.203613H33.0956C34.841 0.203613 36.2607 1.62338 36.2607 3.36875V31.9961H34.9025C34.3309 31.9961 33.867 32.4447 33.8488 33.0176L33.7887 34.9656C33.0411 35.1892 32.32 35.4882 31.6325 35.8599L30.2141 34.5254C29.7977 34.1327 29.1521 34.1425 28.7469 34.5478L25.6418 37.6528C25.2366 38.0581 25.2268 38.7037 25.6195 39.1201L26.9554 40.5385C26.5837 41.226 26.2832 41.9485 26.0596 42.6975L24.113 42.7562C23.5401 42.7743 23.0915 43.2369 23.0915 43.8098V48.2019C23.0915 48.7748 23.5401 49.2373 24.1144 49.2541L26.0596 49.3128C26.2832 50.0604 26.5837 50.7829 26.9554 51.4718L25.6195 52.8902C25.2268 53.3066 25.2366 53.9522 25.6418 54.3575L26.5389 55.2546H0.572266V3.36875C0.572266 1.62338 1.99203 0.203613 3.7374 0.203613H9.49054L11.426 4.33017C11.8452 5.22311 12.7172 5.77788 13.7037 5.77788H23.1279ZM16.5447 34.4653C16.4496 34.9181 16.7417 35.3625 17.1945 35.4575C17.2518 35.4701 17.3091 35.4757 17.3663 35.4757C17.7548 35.4757 18.1042 35.2046 18.1866 34.8091L21.9904 16.5617C22.084 16.1075 21.7933 15.6646 21.3406 15.5695C20.8864 15.4745 20.442 15.7652 20.3484 16.2193L16.5447 34.4653ZM6.26252 24.9126C6.10182 25.0705 6.00959 25.2857 6.00959 25.5121C6.00959 25.7385 6.10182 25.9551 6.26252 26.113L11.4637 31.1912C11.6272 31.3505 11.8382 31.4288 12.0492 31.4288C12.2672 31.4288 12.4852 31.3449 12.6501 31.1758C12.9729 30.8446 12.9673 30.3136 12.6361 29.9908L8.04841 25.5135L12.6361 21.0362C12.9673 20.7134 12.9729 20.1824 12.6501 19.8512C12.3259 19.52 11.7949 19.513 11.4637 19.8372L6.26252 24.9126ZM24.1969 29.9908C23.8657 30.315 23.8587 30.846 24.1829 31.1758C24.3464 31.3435 24.5644 31.4288 24.7824 31.4288C24.9934 31.4288 25.2044 31.3491 25.3679 31.1912L30.5691 26.113C30.7312 25.9551 30.822 25.7385 30.822 25.5121C30.822 25.2857 30.7312 25.0705 30.5691 24.9126L25.3679 19.8358C25.0367 19.5116 24.5057 19.5186 24.1829 19.8498C23.8587 20.181 23.8657 20.712 24.1969 21.0348L28.7832 25.5121L24.1969 29.9908Z" fill="#242525"/>
</svg>
