<svg width="64" height="65" viewBox="0 0 64 65" fill="none" xmlns="http://www.w3.org/2000/svg">
<rect y="0.203613" width="64" height="64" rx="32" fill="#67B24D"/>
<path d="M48 14.8703V13.5369C48 12.8036 47.4 12.2036 46.6667 12.2036H17.3333C16.6 12.2036 16 12.8036 16 13.5369V14.8703H48Z" fill="white"/>
<path d="M48 16.2036H16L12 22.8703C12 25.0703 13.8 26.8703 16 26.8703C18.2 26.8703 20 25.0703 20 22.8703C20 25.0703 21.8 26.8703 24 26.8703C26.2 26.8703 28 25.0703 28 22.8703C28 25.0703 29.8 26.8703 32 26.8703C34.2 26.8703 36 25.0703 36 22.8703C36 25.0703 37.8 26.8703 40 26.8703C42.2 26.8703 44 25.0703 44 22.8703C44 25.0703 45.8 26.8703 48 26.8703C50.2 26.8703 52 25.0703 52 22.8703L48 16.2036Z" fill="white"/>
<path d="M43.8662 36.2702L47.8662 37.2702C48.1995 37.3369 48.4662 37.2036 48.5995 36.9369L48.6662 36.8702C48.8662 36.4702 48.6662 36.0036 48.1995 35.9369L44.1995 34.9369C43.8662 34.8702 43.5995 35.0036 43.4662 35.2702L43.3995 35.4036C43.1995 35.7369 43.3995 36.2036 43.8662 36.2702Z" fill="white"/>
<path d="M36 40.8702V46.2036C36 44.2702 36.9333 42.4036 38.1333 40.8702H36Z" fill="white"/>
<path d="M42 36.937C42.1333 36.8703 42.2 36.737 42.3333 36.6703C42.2667 36.6037 42.2667 36.537 42.2 36.4703C41.9333 35.937 41.9333 35.2703 42.2 34.737L42.2667 34.6037C42.4667 34.2037 42.8 33.8703 43.2 33.6703C43.2 32.937 43.2667 32.2037 43.4 31.4703H36V39.4703H39.2667C40.2 38.4703 41.2 37.6037 42 36.937Z" fill="white"/>
<path d="M44.5997 28.3369C44.8664 28.0036 45.1997 27.7369 45.6664 27.6036C45.0664 27.2702 44.4664 26.8702 44.0664 26.3369C43.0664 27.4702 41.6664 28.1369 40.0664 28.1369C38.4664 28.1369 37.0664 27.4036 36.0664 26.3369C35.0664 27.4702 33.6664 28.1369 32.0664 28.1369C30.4664 28.1369 29.0664 27.4036 28.0664 26.3369C27.0664 27.4702 25.6664 28.1369 24.0664 28.1369C22.4664 28.1369 21.0664 27.4036 20.0664 26.3369C19.0664 27.4702 17.6664 28.1369 16.0664 28.1369V50.1369H34.7331V30.2036H43.7331C43.9331 29.4702 44.2664 28.8036 44.5997 28.3369ZM31.9997 39.5369H18.6664V30.2036H31.9997V39.5369Z" fill="white"/>
<path d="M44.5341 34.2036L48.5341 35.5369C48.5341 35.5369 49.3341 33.7369 50.4675 32.6702C50.8675 32.2702 50.6008 31.5369 50.0008 31.5369H49.8675C49.4675 31.5369 49.2008 31.2702 49.2008 30.8702V30.8036C49.2008 30.2702 48.6008 29.9369 48.1341 30.2702L48.0008 30.3369C47.6008 30.6036 47.0675 30.4036 47.0008 29.9369L46.8675 29.3369C46.7341 28.8036 46.0008 28.6702 45.6675 29.0702C45.0008 30.0036 44.3341 32.1369 44.5341 34.2036Z" fill="white"/>
<path d="M45.334 48.2035C45.734 48.2035 46.0007 47.9368 46.0007 47.5368V46.8702C46.0007 46.4702 45.734 46.2035 45.334 46.2035V48.2035Z" fill="white"/>
<path d="M43.334 43.5369V44.2036C43.334 44.6036 43.6007 44.8702 44.0007 44.8702V42.8702C43.6007 42.8702 43.334 43.1369 43.334 43.5369Z" fill="white"/>
<path d="M47.334 38.8702C46.934 38.2702 47.334 37.5369 47.334 37.5369L44.0007 36.8702C43.334 37.8036 37.334 41.8036 37.334 46.2036C37.334 48.7369 38.2007 50.3369 38.934 51.2036C39.4673 51.8036 40.2007 52.2036 41.0007 52.2036H48.6007C49.6007 52.2036 50.534 51.6702 50.934 50.8036C51.4673 49.8036 52.0007 48.2702 52.0007 46.2036C52.0007 42.2702 47.734 39.4702 47.334 38.8702ZM47.334 44.2036H46.0007V43.5369C46.0007 43.1369 45.734 42.8702 45.334 42.8702V44.8702C46.4673 44.8702 47.334 45.7369 47.334 46.8702V47.5369C47.334 48.6702 46.4673 49.5369 45.334 49.5369V50.8702H44.0007V49.5369C42.8673 49.5369 42.0007 48.6702 42.0007 47.5369V46.8702H43.334V47.5369C43.334 47.9369 43.6007 48.2036 44.0007 48.2036V46.2036C42.8673 46.2036 42.0007 45.3369 42.0007 44.2036V43.5369C42.0007 42.4036 42.8673 41.5369 44.0007 41.5369V40.2036H45.334V41.5369C46.4673 41.5369 47.334 42.4036 47.334 43.5369V44.2036Z" fill="white"/>
</svg>
