<svg width="64" height="65" viewBox="0 0 64 65" fill="none" xmlns="http://www.w3.org/2000/svg">
<rect y="0.203613" width="64" height="64" rx="32" fill="#67B24D"/>
<path d="M40.6958 12.2036H23.3045C21.3835 12.2036 19.8262 13.7609 19.8262 15.6819H44.1741C44.1741 13.7608 42.6168 12.2036 40.6958 12.2036Z" fill="white"/>
<path d="M23.3044 52.2036H40.6957C42.6167 52.2036 44.174 50.6463 44.174 48.7253H19.8262C19.8262 50.6464 21.3834 52.2036 23.3044 52.2036ZM31.1305 49.5949H32.8696C33.3498 49.5949 33.7392 49.9843 33.7392 50.4645C33.7392 50.9448 33.3498 51.3341 32.8696 51.3341H31.1305C30.6502 51.3341 30.2609 50.9448 30.2609 50.4645C30.261 49.9843 30.6502 49.5949 31.1305 49.5949Z" fill="white"/>
<path d="M35.4781 38.4645C35.4301 38.9447 35.0019 39.2951 34.5216 39.2471C34.0414 39.1991 33.691 38.7708 33.739 38.2906H30.2607C30.2607 39.2732 28.7911 39.6297 28.5216 38.2906H26.8955L27.4521 42.7427C27.5051 43.1818 27.8793 43.5112 28.3217 43.508H35.6782C36.1204 43.5112 36.4947 43.1819 36.5478 42.7427L37.1043 38.2906C35.252 38.2906 35.4781 38.221 35.4781 38.4645Z" fill="white"/>
<path d="M42.4348 29.995C40.4543 31.7665 37.4588 31.7665 35.4783 29.995C33.4978 31.7665 30.5023 31.7665 28.5218 29.995C26.5413 31.7665 23.5458 31.7665 21.5653 29.995C21.0638 30.4571 20.4715 30.8095 19.8262 31.0298V46.9863H44.1741V31.0298C43.5322 30.8017 42.9414 30.4501 42.4348 29.995ZM38.9565 38.2907C38.8087 38.2907 38.913 37.8037 38.2695 42.9602C38.1062 44.2741 36.9847 45.2573 35.6608 45.2472H28.3217C26.9978 45.2573 25.8763 44.274 25.713 42.9602L25.1478 38.2907C24.6676 38.3194 24.2549 37.9535 24.2261 37.4732C24.1973 36.993 24.5632 36.5803 25.0435 36.5515H28.1566L27.6522 34.1167C27.5562 33.6364 27.8676 33.1692 28.3478 33.0732C28.8281 32.9771 29.2953 33.2886 29.3913 33.7688L29.9478 36.5514H34.087L34.6087 33.7689C34.7047 33.2886 35.1719 32.9771 35.6522 33.0733C36.1324 33.1693 36.4439 33.6365 36.3478 34.1167L35.8434 36.5516H38.9565C39.4367 36.5516 39.8261 36.9409 39.8261 37.4211C39.8261 37.9013 39.4367 38.2907 38.9565 38.2907Z" fill="white"/>
<path d="M20.7562 25.7949L24.1041 17.421H19.8258L14.6084 26.1167C21.6866 26.1166 20.5649 26.2471 20.7562 25.7949Z" fill="white"/>
<path d="M22.5039 26.1166C28.2343 26.1166 27.6343 26.1949 27.6691 25.9427L29.3909 17.421H25.8243L22.5039 26.1166Z" fill="white"/>
<path d="M33.1895 17.4197L31.1228 17.421L29.3906 26.1166H34.608L33.1895 17.4197Z" fill="white"/>
<path d="M36.3474 26.1166H41.4953L38.1423 17.4197H34.8877L36.3474 26.1166Z" fill="white"/>
<path d="M43.3042 26.1166H49.3912L44.1738 17.4209H39.8955C43.5737 26.621 43.3042 25.8732 43.3042 26.1166Z" fill="white"/>
<path d="M35.0086 27.8558H28.9912C29.9551 29.5175 32.0836 30.0832 33.7452 29.1193C34.2691 28.8153 34.7046 28.3798 35.0086 27.8558Z" fill="white"/>
<path d="M28.0516 27.8558H22.0342C22.9981 29.5175 25.1265 30.0832 26.7882 29.1193C27.3121 28.8153 27.7476 28.3798 28.0516 27.8558Z" fill="white"/>
<path d="M21.0955 27.8558H15.0781C16.042 29.5175 18.1705 30.0832 19.8322 29.1193C20.3561 28.8153 20.7916 28.3798 21.0955 27.8558Z" fill="white"/>
<path d="M41.9646 27.8558H35.9473C36.9112 29.5175 39.0396 30.0832 40.7013 29.1193C41.2252 28.8153 41.6607 28.3798 41.9646 27.8558Z" fill="white"/>
<path d="M48.9217 27.8558H42.9043C43.8682 29.5175 45.9967 30.0832 47.6583 29.1193C48.1823 28.8153 48.6178 28.3798 48.9217 27.8558Z" fill="white"/>
</svg>
