<svg width="40" height="41" viewBox="0 0 40 41" fill="none" xmlns="http://www.w3.org/2000/svg">
<path d="M36 2.87028V1.53695C36 0.803613 35.4 0.203613 34.6667 0.203613H5.33333C4.6 0.203613 4 0.803613 4 1.53695V2.87028H36Z" fill="white"/>
<path d="M36 4.20361H4L0 10.8703C0 13.0703 1.8 14.8703 4 14.8703C6.2 14.8703 8 13.0703 8 10.8703C8 13.0703 9.8 14.8703 12 14.8703C14.2 14.8703 16 13.0703 16 10.8703C16 13.0703 17.8 14.8703 20 14.8703C22.2 14.8703 24 13.0703 24 10.8703C24 13.0703 25.8 14.8703 28 14.8703C30.2 14.8703 32 13.0703 32 10.8703C32 13.0703 33.8 14.8703 36 14.8703C38.2 14.8703 40 13.0703 40 10.8703L36 4.20361Z" fill="white"/>
<path d="M31.8662 24.2702L35.8662 25.2702C36.1995 25.3369 36.4662 25.2036 36.5995 24.9369L36.6662 24.8702C36.8662 24.4702 36.6662 24.0036 36.1995 23.9369L32.1995 22.9369C31.8662 22.8702 31.5995 23.0036 31.4662 23.2702L31.3995 23.4036C31.1995 23.7369 31.3995 24.2036 31.8662 24.2702Z" fill="white"/>
<path d="M24 28.8702V34.2036C24 32.2702 24.9333 30.4036 26.1333 28.8702H24Z" fill="white"/>
<path d="M30 24.937C30.1333 24.8703 30.2 24.737 30.3333 24.6703C30.2667 24.6037 30.2667 24.537 30.2 24.4703C29.9333 23.937 29.9333 23.2703 30.2 22.737L30.2667 22.6037C30.4667 22.2037 30.8 21.8703 31.2 21.6703C31.2 20.937 31.2667 20.2037 31.4 19.4703H24V27.4703H27.2667C28.2 26.4703 29.2 25.6037 30 24.937Z" fill="white"/>
<path d="M32.5997 16.3369C32.8664 16.0036 33.1997 15.7369 33.6664 15.6036C33.0664 15.2702 32.4664 14.8702 32.0664 14.3369C31.0664 15.4702 29.6664 16.1369 28.0664 16.1369C26.4664 16.1369 25.0664 15.4036 24.0664 14.3369C23.0664 15.4702 21.6664 16.1369 20.0664 16.1369C18.4664 16.1369 17.0664 15.4036 16.0664 14.3369C15.0664 15.4702 13.6664 16.1369 12.0664 16.1369C10.4664 16.1369 9.06641 15.4036 8.06641 14.3369C7.06641 15.4702 5.66641 16.1369 4.06641 16.1369V38.1369H22.7331V18.2036H31.7331C31.9331 17.4702 32.2664 16.8036 32.5997 16.3369ZM19.9997 27.5369H6.66641V18.2036H19.9997V27.5369Z" fill="white"/>
<path d="M32.5341 22.2036L36.5341 23.5369C36.5341 23.5369 37.3341 21.7369 38.4675 20.6702C38.8675 20.2702 38.6008 19.5369 38.0008 19.5369H37.8675C37.4675 19.5369 37.2008 19.2702 37.2008 18.8702V18.8036C37.2008 18.2702 36.6008 17.9369 36.1341 18.2702L36.0008 18.3369C35.6008 18.6036 35.0675 18.4036 35.0008 17.9369L34.8675 17.3369C34.7341 16.8036 34.0008 16.6702 33.6675 17.0702C33.0008 18.0036 32.3341 20.1369 32.5341 22.2036Z" fill="white"/>
<path d="M33.334 36.2035C33.734 36.2035 34.0007 35.9368 34.0007 35.5368V34.8702C34.0007 34.4702 33.734 34.2035 33.334 34.2035V36.2035Z" fill="white"/>
<path d="M31.334 31.5369V32.2036C31.334 32.6036 31.6007 32.8702 32.0007 32.8702V30.8702C31.6007 30.8702 31.334 31.1369 31.334 31.5369Z" fill="white"/>
<path d="M35.334 26.8702C34.934 26.2702 35.334 25.5369 35.334 25.5369L32.0007 24.8702C31.334 25.8036 25.334 29.8036 25.334 34.2036C25.334 36.7369 26.2007 38.3369 26.934 39.2036C27.4673 39.8036 28.2007 40.2036 29.0007 40.2036H36.6007C37.6007 40.2036 38.534 39.6702 38.934 38.8036C39.4673 37.8036 40.0007 36.2702 40.0007 34.2036C40.0007 30.2702 35.734 27.4702 35.334 26.8702ZM35.334 32.2036H34.0007V31.5369C34.0007 31.1369 33.734 30.8702 33.334 30.8702V32.8702C34.4673 32.8702 35.334 33.7369 35.334 34.8702V35.5369C35.334 36.6702 34.4673 37.5369 33.334 37.5369V38.8702H32.0007V37.5369C30.8673 37.5369 30.0007 36.6702 30.0007 35.5369V34.8702H31.334V35.5369C31.334 35.9369 31.6007 36.2036 32.0007 36.2036V34.2036C30.8673 34.2036 30.0007 33.3369 30.0007 32.2036V31.5369C30.0007 30.4036 30.8673 29.5369 32.0007 29.5369V28.2036H33.334V29.5369C34.4673 29.5369 35.334 30.4036 35.334 31.5369V32.2036Z" fill="white"/>
</svg>
