<svg width="64" height="65" viewBox="0 0 64 65" fill="none" xmlns="http://www.w3.org/2000/svg">
<rect y="0.203613" width="64" height="64" rx="32" fill="#67B24D"/>
<path fill-rule="evenodd" clip-rule="evenodd" d="M20.457 32.5657H43.543C44.4697 32.5657 45.2998 33.3691 45.2079 34.3095L43.8608 48.0935H20.1392L18.7921 34.3095C18.7003 33.3691 19.5303 32.5657 20.457 32.5657ZM12.4167 49.2602H51.5833C51.8128 49.2602 52 49.4474 52 49.6769V51.7869C52 52.0164 51.8128 52.2036 51.5833 52.2036H12.4167C12.1872 52.2036 12 52.0164 12 51.7869V49.6768C12 49.4474 12.1872 49.2602 12.4167 49.2602ZM47.0536 45.1801C47.0536 43.1166 46.6381 41.1502 45.8866 39.3598L45.0331 48.0935H45.5509C46.5021 47.2741 47.0536 46.3034 47.0536 45.1801ZM18.4488 48.0935H18.967L18.1135 39.3601C17.362 41.1504 16.9464 43.1169 16.9464 45.1802C16.9464 46.3034 17.4975 47.2742 18.4488 48.0935ZM25.9377 31.399C27.7927 30.5818 29.8434 30.1271 32.0005 30.1271C34.1576 30.1271 36.2083 30.5818 38.0632 31.399H25.9377ZM25.0429 19.1601C25.0429 23.0029 28.1578 26.1176 32.0005 26.1176C35.8433 26.1176 38.958 23.0029 38.958 19.1601C38.958 15.3185 35.8432 12.2036 32.0005 12.2036C28.1578 12.2036 25.0429 15.3185 25.0429 19.1601ZM36.9641 41.7933C37.1569 41.7933 37.3131 41.637 37.3131 41.4443V40.3817C37.3131 40.189 37.1569 40.0327 36.9641 40.0327C35.9178 40.0327 35.3928 38.7651 36.1327 38.0253C36.2689 37.889 36.2689 37.6679 36.1327 37.5317L35.3813 36.7803C35.245 36.644 35.0239 36.644 34.8877 36.7803C34.1478 37.5201 32.8803 36.9951 32.8803 35.9489C32.8803 35.756 32.7241 35.5999 32.5313 35.5999H31.4688C31.2761 35.5999 31.1198 35.756 31.1198 35.9489C31.1198 36.9952 29.8522 37.5201 29.1123 36.7803C28.9761 36.644 28.755 36.644 28.6188 36.7803L27.8673 37.5317C27.7311 37.6679 27.7311 37.889 27.8673 38.0253C28.6071 38.7651 28.0822 40.0327 27.0359 40.0327C26.8431 40.0327 26.6869 40.189 26.6869 40.3817V41.4443C26.6869 41.6369 26.8431 41.7933 27.0359 41.7933C28.0822 41.7933 28.6072 43.0609 27.8673 43.8007C27.7311 43.9369 27.7311 44.158 27.8673 44.2943L28.6188 45.0457C28.755 45.1819 28.9761 45.1819 29.1123 45.0457C29.8531 44.3049 31.1198 44.8296 31.1198 45.8772C31.1198 46.07 31.2761 46.2262 31.4688 46.2262H32.5313C32.724 46.2262 32.8803 46.07 32.8803 45.8772C32.8803 44.8309 34.1479 44.306 34.8877 45.0457C35.024 45.1819 35.245 45.1819 35.3813 45.0457L36.1327 44.2943C36.2689 44.158 36.2689 43.9369 36.1327 43.8007C35.3928 43.0609 35.9178 41.7933 36.9641 41.7933ZM32 38.36C30.5901 38.36 29.4471 39.503 29.4471 40.9129C29.4471 42.3229 30.5901 43.4659 32 43.4659C33.4099 43.4659 34.5529 42.3229 34.5529 40.9129C34.5529 39.503 33.4099 38.36 32 38.36ZM39.5674 44.4879L42.7299 41.3254C42.9577 41.0976 42.9577 40.7283 42.7299 40.5004L39.5674 37.3379C39.3397 37.1102 38.9703 37.1102 38.7426 37.3379C38.5148 37.5657 38.5148 37.935 38.7426 38.1629L41.4927 40.9129L38.7426 43.6629C38.5148 43.8907 38.5148 44.26 38.7426 44.4879C38.9703 44.7156 39.3397 44.7156 39.5674 44.4879ZM25.2574 43.663L22.5073 40.913L25.2574 38.1629C25.4852 37.9352 25.4852 37.5659 25.2574 37.338C25.0297 37.1103 24.6603 37.1103 24.4325 37.338L21.27 40.5005C21.0422 40.7283 21.0422 41.0976 21.27 41.3254L24.4325 44.4879C24.6603 44.7157 25.0296 44.7157 25.2574 44.4879C25.4853 44.2601 25.4853 43.8908 25.2574 43.663Z" fill="white"/>
</svg>
