<svg width="20" height="17" viewBox="0 0 20 17" fill="none" xmlns="http://www.w3.org/2000/svg">
<path d="M19.3718 2.85959C19.2434 3.13073 19.0043 3.47322 18.6547 3.88704C18.3051 4.30086 17.8735 4.66475 17.3597 4.97869C17.374 5.09287 17.3847 5.19988 17.3918 5.29977C17.4472 6.83773 17.0788 8.43339 16.5677 9.76275C15.577 12.2344 14.059 14.2236 11.8907 15.5742C9.62962 16.8712 6.99632 17.147 4.57014 16.9121C2.95945 16.7271 1.37194 16.2011 0.171387 15.2104C2.36716 15.4728 4.41636 14.7259 6.03639 13.5193C4.2368 13.5649 2.92927 12.2631 2.31191 10.7581C2.59021 10.831 2.88133 10.8222 3.14671 10.8009C3.47338 10.7702 3.78346 10.7396 4.08854 10.6725C2.94105 10.3022 1.93699 9.62166 1.4129 8.59616C1.10549 7.94639 0.966684 7.32763 0.963404 6.62689C1.5011 6.90998 2.14788 7.18589 2.74003 7.16201C1.84574 6.40444 1.1288 5.43626 0.995516 4.32582C0.911371 3.39994 1.14306 2.55477 1.47714 1.7679C2.81488 3.2381 4.31584 4.44799 6.04713 5.19273C7.23112 5.67757 8.41176 5.93686 9.6325 5.9419C9.49159 4.85156 9.60116 3.79705 10.1141 2.90236C10.7178 1.94045 11.5986 1.38236 12.5864 1.10432C13.9999 0.741882 15.3784 1.25385 16.2467 2.23879C17.1831 2.13766 18.08 1.72226 18.7939 1.29697C18.4906 2.21555 17.8999 3.12888 17.0387 3.56591C17.8587 3.4141 18.6411 3.17136 19.3718 2.85959Z" fill="#F3F5FF"/>
</svg>
