<svg width="16" height="17" viewBox="0 0 16 17" fill="none" xmlns="http://www.w3.org/2000/svg">
<path d="M10.2519 12.0949V13.9789C10.2519 14.3777 10.1164 14.5771 9.8456 14.5771C9.68588 14.5771 9.52963 14.5116 9.37685 14.3807V11.6932C9.52963 11.5622 9.68588 11.4967 9.8456 11.4967C10.1164 11.4967 10.2519 11.6961 10.2519 12.0949ZM13.7727 12.1039V12.5146H12.8352V12.1039C12.8352 11.6991 12.9914 11.4967 13.3039 11.4967C13.6164 11.4967 13.7727 11.6991 13.7727 12.1039ZM3.71018 10.1574H4.82477V9.31815H1.57477V10.1574H2.66852V15.2378H3.71018V10.1574ZM6.71019 15.2378H7.63727V10.8271H6.71019V14.2021C6.50185 14.4521 6.30394 14.5771 6.11644 14.5771C5.99144 14.5771 5.91852 14.5146 5.89769 14.3896C5.89074 14.3717 5.88727 14.2676 5.88727 14.0771V10.8271H4.96019V14.3182C4.96019 14.6098 4.98796 14.8271 5.04352 14.9699C5.12685 15.1902 5.32824 15.3003 5.64769 15.3003C5.98102 15.3003 6.33519 15.1187 6.71019 14.7557V15.2378ZM11.1789 13.9164V12.1574C11.1789 11.7229 11.1477 11.4283 11.0852 11.2735C10.9671 10.9402 10.7206 10.7735 10.3456 10.7735C9.99838 10.7735 9.67546 10.9342 9.37685 11.2557V9.31815H8.44977V15.2378H9.37685V14.8092C9.68935 15.1366 10.0123 15.3003 10.3456 15.3003C10.7206 15.3003 10.9671 15.1366 11.0852 14.8092C11.1477 14.6485 11.1789 14.3509 11.1789 13.9164ZM14.6998 13.8271V13.711H13.7519C13.7519 14.0146 13.7449 14.1961 13.731 14.2557C13.6824 14.4699 13.5435 14.5771 13.3144 14.5771C12.9949 14.5771 12.8352 14.3717 12.8352 13.961V13.1842H14.6998V12.2646C14.6998 11.7943 14.606 11.4491 14.4185 11.2289C14.1477 10.9253 13.7796 10.7735 13.3144 10.7735C12.8421 10.7735 12.4706 10.9253 12.1998 11.2289C12.0053 11.4491 11.9081 11.7943 11.9081 12.2646V13.8092C11.9081 14.2795 12.0088 14.6247 12.2102 14.8449C12.481 15.1485 12.856 15.3003 13.3352 15.3003C13.8352 15.3003 14.2102 15.1426 14.4602 14.8271C14.5852 14.6664 14.6581 14.5057 14.6789 14.3449C14.6928 14.2914 14.6998 14.1187 14.6998 13.8271ZM8.36644 5.67529V3.80029C8.36644 3.38958 8.21713 3.18422 7.91852 3.18422C7.61991 3.18422 7.4706 3.38958 7.4706 3.80029V5.67529C7.4706 6.09196 7.61991 6.30029 7.91852 6.30029C8.21713 6.30029 8.36644 6.09196 8.36644 5.67529ZM15.856 12.3807C15.856 13.7735 15.7657 14.8152 15.5852 15.5057C15.488 15.8568 15.2866 16.1515 14.981 16.3896C14.6755 16.6277 14.3213 16.7646 13.9185 16.8003C12.6407 16.9253 10.7137 16.9878 8.13727 16.9878C5.56088 16.9878 3.6338 16.9253 2.35602 16.8003C1.95324 16.7646 1.59734 16.6277 1.28831 16.3896C0.979282 16.1515 0.779629 15.8568 0.689351 15.5057C0.508796 14.839 0.418518 13.7973 0.418518 12.3807C0.418518 10.9878 0.508796 9.94613 0.689351 9.25565C0.786574 8.90446 0.987962 8.60982 1.29352 8.37172C1.59907 8.13363 1.95671 7.99375 2.36643 7.95208C3.63727 7.83303 5.56088 7.77351 8.13727 7.77351C10.7137 7.77351 12.6407 7.83303 13.9185 7.95208C14.3213 7.99375 14.6772 8.13363 14.9862 8.37172C15.2953 8.60982 15.4949 8.90446 15.5852 9.25565C15.7657 9.92232 15.856 10.964 15.856 12.3807ZM5.46019 0.987793H6.52269L5.26227 4.55029V6.96994H4.2206V4.55029C4.12338 4.10982 3.91157 3.47886 3.58518 2.65744C3.32824 2.04434 3.10255 1.48779 2.9081 0.987793H4.01227L4.75185 3.33601L5.46019 0.987793ZM9.31435 3.96101V5.52351C9.31435 6.00565 9.21713 6.35684 9.02269 6.57708C8.7588 6.88065 8.39074 7.03244 7.91852 7.03244C7.45324 7.03244 7.08866 6.88065 6.82477 6.57708C6.63032 6.35089 6.5331 5.9997 6.5331 5.52351V3.96101C6.5331 3.48482 6.63032 3.1366 6.82477 2.91636C7.08866 2.61279 7.45324 2.46101 7.91852 2.46101C8.39074 2.46101 8.7588 2.61279 9.02269 2.91636C9.21713 3.1366 9.31435 3.48482 9.31435 3.96101ZM12.8039 2.51458V6.96994H11.856V6.47886C11.488 6.84791 11.1303 7.03244 10.7831 7.03244C10.4637 7.03244 10.2588 6.92232 10.1685 6.70208C10.113 6.55922 10.0852 6.33601 10.0852 6.03244V2.51458H11.0331V5.79136C11.0331 5.98779 11.0366 6.09196 11.0435 6.10386C11.0644 6.23482 11.1373 6.30029 11.2623 6.30029C11.4498 6.30029 11.6477 6.17232 11.856 5.91636V2.51458H12.8039Z" fill="#F3F5FF"/>
</svg>
